<?xml version="1.0" encoding="utf-8"?>
<!-- Copyright © 2013 Apple Inc. All rights reserved. -->
<svg version="1.1" xmlns="http://www.w3.org/2000/svg" viewBox="0 0 16 16">
    <path d="M 9 11.875 C 10.40625 11.511719 11.511719 10.40625 11.875 9 L 9.734375 9 C 9.902344 8.707031 10 8.363281 10 8 C 10 7.636719 9.902344 7.292969 9.734375 7 L 11.875 7 C 11.511719 5.59375 10.40625 4.488281 9 4.125 L 9 6.265625 C 8.707031 6.097656 8.363281 6 8 6 C 7.636719 6 7.292969 6.097656 7 6.265625 L 7 4.125 C 5.59375 4.488281 4.488281 5.59375 4.125 7 L 6.265625 7 C 6.097656 7.292969 6 7.636719 6 8 C 6 8.363281 6.097656 8.707031 6.265625 9 L 4.125 9 C 4.488281 10.40625 5.59375 11.511719 7 11.875 L 7 9.734375 C 7.292969 9.902344 7.636719 10 8 10 C 8.363281 10 8.707031 9.902344 9 9.734375 Z M 7 13.410156 C 4.765625 13 3 11.234375 2.589844 9 L 1 9 L 1 7 L 2.589844 7 C 3 4.765625 4.765625 3 7 2.589844 L 7 1 L 9 1 L 9 2.589844 C 11.234375 3 13 4.765625 13.410156 7 L 15 7 L 15 9 L 13.410156 9 C 13 11.234375 11.234375 13 9 13.410156 L 9 15 L 7 15 Z"/>
</svg>
