<?xml version="1.0" encoding="utf-8"?>
<!-- Copyright © 2013 Apple Inc. All rights reserved. -->
<svg version="1.1" xmlns="http://www.w3.org/2000/svg" viewBox="0 0 16 16">
    <path fill="rgb(165, 202, 164)" d="M 13 1 L 3 1 C 1.898438 1 1 1.898438 1 3 L 1 13 C 1 14.101562 1.898438 15 3 15 L 13 15 C 14.101562 15 15 14.101562 15 13 L 15 3 C 15 1.898438 14.101562 1 13 1 Z"/>
    <path fill="rgb(118, 153, 116)" d="M 13 1 L 3 1 C 1.898438 1 1 1.898438 1 3 L 1 13 C 1 14.101562 1.898438 15 3 15 L 13 15 C 14.101562 15 15 14.101562 15 13 L 15 3 C 15 1.898438 14.101562 1 13 1 M 13 2 C 13.550781 2 14 2.449219 14 3 L 14 13 C 14 13.550781 13.550781 14 13 14 L 3 14 C 2.449219 14 2 13.550781 2 13 L 2 3 C 2 2.449219 2.449219 2 3 2 L 13 2"/>
    <path fill="rgb(128, 166, 126)" d="M 4.773438 11.542969 C 3.855469 10.621094 3.390625 9.347656 3.390625 7.769531 C 3.390625 6.15625 3.863281 4.878906 4.789062 3.964844 C 5.710938 3.054688 7.003906 2.59375 8.625 2.59375 C 9.570312 2.59375 10.519531 2.707031 11.441406 2.929688 C 11.890625 3.035156 12.210938 3.4375 12.210938 3.902344 L 12.210938 5.195312 C 12.210938 5.519531 12.050781 5.824219 11.789062 6.011719 C 11.613281 6.132812 11.410156 6.195312 11.207031 6.195312 C 11.097656 6.195312 10.984375 6.179688 10.878906 6.140625 C 10.015625 5.835938 9.308594 5.683594 8.769531 5.683594 C 8.058594 5.683594 7.753906 5.941406 7.589844 6.132812 C 7.296875 6.476562 7.148438 7.019531 7.148438 7.746094 C 7.148438 8.445312 7.308594 8.972656 7.621094 9.320312 C 7.808594 9.523438 8.148438 9.796875 8.921875 9.796875 C 9.542969 9.796875 10.1875 9.632812 10.839844 9.308594 C 10.980469 9.242188 11.132812 9.207031 11.285156 9.207031 C 11.46875 9.207031 11.648438 9.257812 11.8125 9.359375 C 12.105469 9.539062 12.285156 9.859375 12.285156 10.207031 L 12.285156 11.425781 C 12.285156 11.820312 12.050781 12.179688 11.691406 12.339844 C 10.792969 12.738281 9.730469 12.941406 8.527344 12.941406 C 6.957031 12.941406 5.691406 12.472656 4.773438 11.542969"/>
    <path fill="white" d="M 11.285156 11.425781 C 10.515625 11.769531 9.597656 11.941406 8.527344 11.941406 C 7.226562 11.941406 6.210938 11.574219 5.484375 10.839844 C 4.757812 10.105469 4.394531 9.082031 4.394531 7.769531 C 4.394531 6.429688 4.757812 5.398438 5.492188 4.675781 C 6.222656 3.957031 7.269531 3.59375 8.625 3.59375 C 9.492188 3.59375 10.351562 3.695312 11.210938 3.902344 L 11.210938 5.195312 C 10.238281 4.855469 9.425781 4.683594 8.769531 4.683594 C 7.933594 4.683594 7.285156 4.949219 6.832031 5.484375 C 6.375 6.015625 6.148438 6.769531 6.148438 7.746094 C 6.148438 8.707031 6.394531 9.453125 6.882812 9.992188 C 7.371094 10.527344 8.050781 10.796875 8.921875 10.796875 C 9.703125 10.796875 10.488281 10.601562 11.285156 10.207031 Z"/>
</svg>
