<?xml version="1.0" encoding="utf-8"?>
<!-- Copyright © 2013 Apple Inc. All rights reserved. -->
<svg version="1.1" xmlns="http://www.w3.org/2000/svg" viewBox="0 0 16 16">
    <path fill="rgb(165, 202, 164)" d="M 13 1 L 3 1 C 1.898438 1 1 1.898438 1 3 L 1 13 C 1 14.101562 1.898438 15 3 15 L 13 15 C 14.101562 15 15 14.101562 15 13 L 15 3 C 15 1.898438 14.101562 1 13 1 Z"/>
    <path fill="rgb(118, 153, 116)" d="M 13 1 L 3 1 C 1.898438 1 1 1.898438 1 3 L 1 13 C 1 14.101562 1.898438 15 3 15 L 13 15 C 14.101562 15 15 14.101562 15 13 L 15 3 C 15 1.898438 14.101562 1 13 1 M 13 2 C 13.550781 2 14 2.449219 14 3 L 14 13 C 14 13.550781 13.550781 14 13 14 L 3 14 C 2.449219 14 2 13.550781 2 13 L 2 3 C 2 2.449219 2.449219 2 3 2 L 13 2"/>
    <path fill="rgb(128, 166, 126)" d="M 9 12 C 8.449219 12 8 11.550781 8 11 L 8 9 C 8 8.449219 8.449219 8 9 8 C 8.25 8 7.75 8 7 8 C 7.550781 8 8 8.449219 8 9 L 8 11 C 8 11.550781 7.550781 12 7 12 L 4 12 C 3.445312 12 3 11.550781 3 11 L 3 9 C 3 8.449219 3.445312 8 4 8 C 3.445312 8 3 7.550781 3 7 L 3 5 C 3 4.449219 3.445312 4 4 4 L 12 4 C 12.554688 4 13 4.449219 13 5 L 13 7 C 13 7.550781 12.554688 8 12 8 C 12.554688 8 13 8.449219 13 9 L 13 11 C 13 11.550781 12.554688 12 12 12 L 9 12"/>
    <path fill="white" d="M 12 9 L 12 11 L 9 11 L 9 9 L 10 9 L 10 7 L 6 7 L 6 9 L 7 9 L 7 11 L 4 11 L 4 9 L 5 9 L 5 7 L 4 7 L 4 5 L 12 5 L 12 7 L 11 7 L 11 9 Z"/>
</svg>
