<?xml version="1.0" encoding="utf-8"?>
<!-- Copyright © 2013 Apple Inc. All rights reserved. -->
<svg version="1.1" xmlns="http://www.w3.org/2000/svg" viewBox="0 0 32 32">
    <path fill="rgb(48, 48, 48)" d="M 27.886719 24.535156 L 22.828125 21.613281 C 22.136719 21.210938 21.902344 20.324219 22.300781 19.636719 C 22.699219 18.945312 23.578125 18.714844 24.265625 19.113281 L 29.328125 22.027344 C 30.015625 22.429688 30.253906 23.308594 29.855469 23.996094 C 29.457031 24.6875 28.578125 24.933594 27.886719 24.535156"/>
    <path fill="rgba(48, 48, 48, 0.87)" d="M 30.5625 17.445312 L 24.71875 17.441406 C 23.921875 17.441406 23.273438 16.792969 23.273438 15.996094 C 23.273438 15.199219 23.921875 14.558594 24.71875 14.558594 L 30.554688 14.554688 C 31.351562 14.554688 32 15.199219 32 15.996094 C 32 16.792969 31.363281 17.445312 30.5625 17.445312"/>
    <path fill="rgba(48, 48, 48, 0.75)" d="M 29.335938 9.972656 L 24.269531 12.890625 C 23.578125 13.289062 22.695312 13.054688 22.296875 12.359375 C 21.898438 11.667969 22.136719 10.792969 22.828125 10.394531 L 27.882812 7.46875 C 28.574219 7.070312 29.457031 7.304688 29.855469 7.996094 C 30.25 8.691406 30.023438 9.574219 29.335938 9.972656"/>
    <path fill="rgba(48, 48, 48, 0.64)" d="M 19.101562 7.734375 L 22.027344 2.671875 C 22.425781 1.980469 23.308594 1.746094 24 2.144531 C 24.691406 2.542969 24.921875 3.421875 24.523438 4.113281 L 21.613281 9.171875 C 21.210938 9.867188 20.328125 10.101562 19.636719 9.703125 C 18.945312 9.304688 18.703125 8.425781 19.101562 7.734375"/>
    <path fill="rgba(48, 48, 48, 0.53)" d="M 14.554688 7.289062 L 14.554688 1.445312 C 14.554688 0.648438 15.203125 0.00390625 16.003906 -0.00390625 C 16.800781 -0.00390625 17.441406 0.644531 17.4375 1.445312 L 17.441406 7.285156 C 17.445312 8.082031 16.800781 8.722656 16.003906 8.722656 C 15.203125 8.722656 14.554688 8.085938 14.554688 7.289062"/>
    <path fill="rgba(48, 48, 48, 0.45)" d="M 10.390625 9.179688 L 7.46875 4.121094 C 7.070312 3.429688 7.308594 2.539062 8 2.140625 C 8.691406 1.742188 9.566406 1.984375 9.964844 2.675781 L 12.894531 7.726562 C 13.292969 8.414062 13.054688 9.300781 12.363281 9.695312 C 11.675781 10.097656 10.789062 9.871094 10.390625 9.179688"/>
    <path fill="rgba(48, 48, 48, 0.37)" d="M 7.734375 12.898438 L 2.671875 9.972656 C 1.980469 9.574219 1.746094 8.6875 2.144531 7.996094 C 2.542969 7.308594 3.417969 7.078125 4.109375 7.476562 L 9.167969 10.390625 C 9.859375 10.789062 10.097656 11.671875 9.699219 12.359375 C 9.300781 13.050781 8.421875 13.296875 7.734375 12.898438"/>
    <path fill="rgba(48, 48, 48, 0.31)" d="M 7.289062 17.449219 L 1.441406 17.445312 C 0.644531 17.445312 -0.00390625 16.796875 0 16 C -0.00390625 15.203125 0.644531 14.5625 1.441406 14.5625 L 7.28125 14.554688 C 8.078125 14.554688 8.722656 15.199219 8.722656 16 C 8.722656 16.796875 8.085938 17.449219 7.289062 17.449219"/>
    <path fill="rgba(48, 48, 48, 0.25)" d="M 9.179688 21.605469 L 4.117188 24.523438 C 3.425781 24.925781 2.539062 24.6875 2.140625 24 C 1.742188 23.308594 1.980469 22.433594 2.667969 22.035156 L 7.722656 19.109375 C 8.417969 18.707031 9.296875 18.945312 9.695312 19.636719 C 10.097656 20.328125 9.871094 21.207031 9.179688 21.605469"/>
    <path fill="rgba(48, 48, 48, 0.22)" d="M 7.464844 27.890625 L 10.386719 22.832031 C 10.785156 22.144531 11.671875 21.902344 12.363281 22.300781 C 13.054688 22.699219 13.285156 23.578125 12.886719 24.269531 L 9.972656 29.332031 C 9.574219 30.023438 8.691406 30.257812 8 29.859375 C 7.308594 29.460938 7.0625 28.582031 7.464844 27.890625"/>
    <path fill="rgba(48, 48, 48, 0.19)" d="M 14.550781 30.566406 L 14.554688 24.71875 C 14.554688 23.921875 15.203125 23.273438 16 23.273438 C 16.796875 23.273438 17.4375 23.921875 17.4375 24.71875 L 17.445312 30.558594 C 17.445312 31.355469 16.796875 32 16 32 C 15.203125 32 14.550781 31.363281 14.550781 30.566406"/>
    <path fill="rgba(48, 48, 48, 0.17)" d="M 22.027344 29.339844 L 19.109375 24.273438 C 18.710938 23.582031 18.945312 22.699219 19.636719 22.300781 C 20.328125 21.902344 21.207031 22.140625 21.605469 22.832031 L 24.53125 27.882812 C 24.929688 28.574219 24.691406 29.457031 24 29.855469 C 23.308594 30.253906 22.425781 30.03125 22.027344 29.339844"/>
</svg>
