<?xml version="1.0" encoding="utf-8"?>
<!-- Copyright © 2013 Apple Inc. All rights reserved. -->
<svg version="1.1" xmlns="http://www.w3.org/2000/svg" viewBox="0 0 32 32">
    <path fill="rgb(48, 48, 48)" d="M 4.109375 7.464844 L 9.167969 10.386719 C 9.859375 10.785156 10.097656 11.675781 9.695312 12.363281 C 9.296875 13.054688 8.417969 13.28125 7.730469 12.882812 L 2.671875 9.96875 C 1.980469 9.570312 1.742188 8.691406 2.140625 8 C 2.539062 7.3125 3.417969 7.066406 4.109375 7.464844"/>
    <path fill="rgba(48, 48, 48, 0.87)" d="M 1.433594 14.554688 L 7.28125 14.554688 C 8.074219 14.554688 8.722656 15.207031 8.722656 16.003906 C 8.722656 16.800781 8.078125 17.441406 7.277344 17.4375 L 1.441406 17.445312 C 0.644531 17.445312 -0.00390625 16.800781 -0.00390625 16.003906 C -0.00390625 15.203125 0.636719 14.554688 1.433594 14.554688"/>
    <path fill="rgba(48, 48, 48, 0.75)" d="M 2.664062 22.027344 L 7.726562 19.109375 C 8.417969 18.710938 9.300781 18.945312 9.699219 19.640625 C 10.097656 20.332031 9.859375 21.207031 9.167969 21.605469 L 4.113281 24.53125 C 3.425781 24.929688 2.539062 24.695312 2.140625 24.003906 C 1.746094 23.308594 1.972656 22.425781 2.664062 22.027344"/>
    <path fill="rgba(48, 48, 48, 0.64)" d="M 12.894531 24.261719 L 9.96875 29.328125 C 9.570312 30.015625 8.6875 30.25 7.996094 29.851562 C 7.304688 29.453125 7.074219 28.578125 7.472656 27.886719 L 10.382812 22.828125 C 10.785156 22.132812 11.667969 21.898438 12.359375 22.296875 C 13.050781 22.695312 13.296875 23.574219 12.894531 24.261719"/>
    <path fill="rgba(48, 48, 48, 0.53)" d="M 17.441406 24.710938 L 17.441406 30.550781 C 17.441406 31.351562 16.792969 31.996094 15.996094 32 C 15.195312 32.003906 14.558594 31.355469 14.558594 30.550781 L 14.554688 24.714844 C 14.554688 23.914062 15.195312 23.277344 15.992188 23.277344 C 16.792969 23.277344 17.441406 23.914062 17.441406 24.710938"/>
    <path fill="rgba(48, 48, 48, 0.45)" d="M 21.605469 22.820312 L 24.527344 27.878906 C 24.925781 28.570312 24.6875 29.457031 23.996094 29.859375 C 23.304688 30.257812 22.429688 30.011719 22.03125 29.320312 L 19.101562 24.273438 C 18.703125 23.582031 18.941406 22.699219 19.632812 22.300781 C 20.324219 21.902344 21.207031 22.128906 21.605469 22.820312"/>
    <path fill="rgba(48, 48, 48, 0.37)" d="M 24.265625 19.101562 L 29.324219 22.023438 C 30.015625 22.421875 30.25 23.3125 29.851562 24 C 29.453125 24.691406 28.578125 24.921875 27.886719 24.519531 L 22.828125 21.605469 C 22.136719 21.207031 21.898438 20.328125 22.296875 19.636719 C 22.695312 18.949219 23.574219 18.703125 24.265625 19.101562"/>
    <path fill="rgba(48, 48, 48, 0.31)" d="M 24.707031 14.550781 L 30.554688 14.554688 C 31.351562 14.554688 32 15.203125 32 16 C 32 16.796875 31.351562 17.4375 30.554688 17.4375 L 24.714844 17.445312 C 23.917969 17.445312 23.273438 16.796875 23.273438 16 C 23.273438 15.203125 23.910156 14.550781 24.707031 14.550781"/>
    <path fill="rgba(48, 48, 48, 0.25)" d="M 22.816406 10.390625 L 27.878906 7.472656 C 28.570312 7.074219 29.457031 7.308594 29.855469 8 C 30.253906 8.691406 30.015625 9.566406 29.328125 9.964844 L 24.273438 12.890625 C 23.578125 13.292969 22.699219 13.054688 22.300781 12.363281 C 21.898438 11.671875 22.125 10.789062 22.816406 10.390625"/>
    <path fill="rgba(48, 48, 48, 0.22)" d="M 24.535156 4.105469 L 21.609375 9.164062 C 21.210938 9.855469 20.324219 10.097656 19.632812 9.695312 C 18.941406 9.296875 18.710938 8.421875 19.109375 7.730469 L 22.023438 2.664062 C 22.421875 1.976562 23.304688 1.742188 23.996094 2.140625 C 24.6875 2.539062 24.933594 3.417969 24.535156 4.105469"/>
    <path fill="rgba(48, 48, 48, 0.19)" d="M 17.445312 1.433594 L 17.441406 7.28125 C 17.441406 8.078125 16.792969 8.726562 15.996094 8.722656 C 15.199219 8.722656 14.558594 8.078125 14.558594 7.28125 L 14.550781 1.441406 C 14.550781 0.644531 15.199219 -0.00390625 15.996094 0 C 16.792969 0 17.445312 0.636719 17.445312 1.433594"/>
    <path fill="rgba(48, 48, 48, 0.17)" d="M 9.96875 2.660156 L 12.886719 7.726562 C 13.285156 8.417969 13.050781 9.300781 12.359375 9.699219 C 11.667969 10.097656 10.789062 9.859375 10.390625 9.167969 L 7.46875 4.113281 C 7.066406 3.425781 7.304688 2.539062 7.996094 2.144531 C 8.6875 1.746094 9.570312 1.96875 9.96875 2.660156"/>
</svg>
