<?xml version="1.0" encoding="utf-8"?>
<!-- Copyright © 2013 Apple Inc. All rights reserved. -->
<svg version="1.1" xmlns="http://www.w3.org/2000/svg" viewBox="0 0 8 10">
    <path d="M 2.132812 3.183594 C 2.132812 2.128906 2.96875 1.273438 4 1.273438 C 5.03125 1.273438 5.867188 2.128906 5.867188 3.183594 L 5.867188 4.546875 L 2.132812 4.546875 Z M 7.109375 4.546875 L 7.109375 3.183594 C 7.109375 1.425781 5.71875 0 4 0 C 2.28125 0 0.890625 1.425781 0.890625 3.183594 L 0.890625 4.546875 C 0.398438 4.546875 0 4.953125 0 5.453125 L 0 9.089844 C 0 9.589844 0.398438 10 0.890625 10 L 7.109375 10 C 7.601562 10 8 9.589844 8 9.089844 L 8 5.453125 C 8 4.953125 7.601562 4.546875 7.109375 4.546875"/>
</svg>
