<?xml version="1.0" encoding="utf-8"?>
<!-- Copyright © 2013 Apple Inc. All rights reserved. -->
<svg version="1.1" xmlns="http://www.w3.org/2000/svg" viewBox="0 0 16 16">
    <path d="M 14.992188 7.503906 L 14.992188 8.527344 L 13.152344 8.527344 C 13.082031 9.632812 12.769531 10.644531 12.308594 11.519531 L 14.058594 13.25 L 13.253906 14.046875 L 11.679688 12.492188 C 10.746094 13.667969 9.46875 14.410156 8.03125 14.410156 C 6.597656 14.410156 5.316406 13.667969 4.386719 12.496094 L 2.761719 14.101562 L 1.957031 13.304688 L 3.757812 11.523438 C 3.292969 10.648438 2.980469 9.632812 2.910156 8.527344 L 0.972656 8.527344 L 0.972656 7.503906 L 2.90625 7.503906 C 2.976562 6.4375 3.269531 5.464844 3.703125 4.609375 L 1.867188 2.796875 L 2.675781 2 L 4.316406 3.621094 C 5.253906 2.394531 6.558594 1.609375 8.03125 1.609375 C 9.480469 1.609375 10.773438 2.367188 11.707031 3.5625 L 13.289062 2 L 14.09375 2.796875 L 12.328125 4.542969 C 12.78125 5.410156 13.085938 6.414062 13.15625 7.503906 Z M 7.359375 6.214844 L 5.050781 6.214844 C 4.914062 6.71875 4.828125 7.265625 4.828125 7.839844 C 4.828125 10.003906 5.914062 11.808594 7.359375 12.222656 Z M 10.929688 6.214844 L 8.65625 6.214844 L 8.65625 12.210938 C 10.082031 11.78125 11.152344 9.988281 11.152344 7.839844 C 11.152344 7.265625 11.066406 6.71875 10.929688 6.214844 Z"/>
</svg>
