<?xml version="1.0" encoding="utf-8"?>
<!-- Copyright © 2013 Apple Inc. All rights reserved. -->
<svg version="1.1" xmlns="http://www.w3.org/2000/svg" viewBox="0 0 16 16">
    <path d="M 11.867188 14.332031 L 8.859375 11.324219 C 10.25 10.3125 11.066406 9.15625 11.460938 8.480469 L 14.589844 11.609375 Z M 12.613281 11.035156 L 11.109375 12.542969 L 11.777344 13.210938 L 13.28125 11.707031 Z M 10.84375 10.324219 L 9.929688 11.363281 L 10.601562 12.035156 L 11.515625 10.992188 Z M 5.949219 8.417969 L 1.394531 3.863281 L 4.121094 1.140625 L 8.386719 5.410156 C 7.105469 6.410156 6.335938 7.652344 5.949219 8.417969 Z M 6.523438 4.945312 L 5.015625 6.449219 L 5.6875 7.121094 L 7.191406 5.617188 Z M 4.71875 4.199219 L 3.804688 5.238281 L 4.476562 5.910156 L 5.390625 4.867188 Z M 4.019531 2.445312 L 2.515625 3.949219 L 3.1875 4.621094 L 4.691406 3.117188 Z"/>
    <path d="M 1.367188 13.789062 C 1.367188 13.789062 2.820312 14.105469 3.289062 12.722656 C 3.757812 11.34375 3.960938 10.867188 5.222656 10.976562 C 5.222656 10.976562 5.714844 11.886719 6.933594 12.308594 C 6.933594 12.308594 5.75 16.207031 1.367188 13.789062 Z M 14.339844 2.351562 C 14.054688 2.839844 10.289062 8.804688 9.554688 9.65625 C 8.820312 10.511719 6.917969 11.71875 6.917969 11.71875 C 6.003906 11.242188 5.710938 10.738281 5.710938 10.738281 C 5.710938 10.738281 6.328125 8.992188 7.230469 7.683594 C 8.132812 6.378906 13.050781 1.949219 13.460938 1.636719 C 13.871094 1.320312 14.625 1.867188 14.339844 2.351562 Z"/>
</svg>
