<?xml version="1.0" encoding="utf-8"?>
<!-- Copyright © 2013 Apple Inc. All rights reserved. -->
<svg version="1.1" xmlns="http://www.w3.org/2000/svg" viewBox="0 0 16 16">
    <path d="M 7.988281 14.558594 C 4.359375 14.558594 1.417969 11.617188 1.417969 7.984375 C 1.417969 6.542969 1.898438 5.21875 2.6875 4.136719 L 2.128906 3.578125 L 1.664062 4.042969 L 0.617188 2.992188 L 2.90625 0.703125 L 3.957031 1.753906 L 3.457031 2.25 L 4.003906 2.792969 C 5.113281 1.941406 6.480469 1.414062 7.988281 1.414062 C 11.617188 1.414062 14.558594 4.355469 14.558594 7.984375 C 14.558594 11.617188 11.617188 14.558594 7.988281 14.558594 Z M 7.960938 3.3125 C 5.386719 3.3125 3.304688 5.394531 3.304688 7.964844 C 3.304688 10.535156 5.386719 12.621094 7.960938 12.621094 C 10.53125 12.621094 12.613281 10.535156 12.613281 7.964844 C 12.613281 5.394531 10.53125 3.3125 7.960938 3.3125 Z M 8.703125 7.9375 C 8.703125 8.351562 8.363281 8.691406 7.945312 8.691406 C 7.527344 8.691406 7.1875 8.351562 7.1875 7.9375 C 7.1875 7.914062 7.203125 7.894531 7.203125 7.871094 L 5.132812 5.796875 L 5.796875 5.132812 L 7.859375 7.195312 C 7.886719 7.191406 7.914062 7.179688 7.945312 7.179688 C 7.984375 7.179688 8.015625 7.195312 8.054688 7.203125 L 10.0625 5.195312 L 10.726562 5.859375 L 8.691406 7.894531 C 8.695312 7.910156 8.703125 7.921875 8.703125 7.9375 Z"/>
</svg>
