<?xml version="1.0" encoding="utf-8"?>
<!-- Copyright © 2013 Apple Inc. All rights reserved. -->
<svg version="1.1" xmlns="http://www.w3.org/2000/svg" viewBox="0 0 16 16">
    <path d="M 2 14 L 2 4 L 5 2 L 11 2 L 14 4 L 14 14 Z M 12 5 L 4 5 L 4 12 L 12 12 Z M 10 9 L 6 9 L 6 6 L 10 6 Z M 9.4375 6.59375 L 6.59375 6.59375 L 6.59375 8.40625 L 9.4375 8.40625 Z M 6.5 10.152344 L 9.5 10.152344 C 9.777344 10.152344 9.875 10.304688 9.875 10.5 C 9.875 10.691406 9.777344 10.851562 9.5 10.851562 L 6.5 10.851562 C 6.222656 10.851562 6.09375 10.691406 6.09375 10.5 C 6.09375 10.304688 6.222656 10.152344 6.5 10.152344 Z"/>
</svg>
