<?xml version="1.0" encoding="utf-8"?>
<!-- Copyright © 2013 Apple Inc. All rights reserved. -->
<svg version="1.1" xmlns="http://www.w3.org/2000/svg" viewBox="0 0 13 5">
    <path fill="rgb(54, 124, 210)" d="M 11 5 C 10.445312 5 10 4.550781 10 4 C 8.664062 4 5.328125 4 4.496094 4 C 4.035156 4.617188 3.296875 5 2.5 5 C 1.121094 5 0 3.878906 0 2.5 C 0 1.121094 1.121094 0 2.5 0 C 3.296875 0 4.035156 0.382812 4.496094 1 C 5.328125 1 8.664062 1 10 1 C 10 0.445312 10.445312 0 11 0 L 12 0 C 12.550781 0 13 0.445312 13 1 L 13 4 C 13 4.550781 12.550781 5 12 5 L 11 5"/>
    <path fill="white" d="M 11 4 L 11 1 L 12 1 L 12 4 Z M 2 3 L 2 2 L 12 2 L 12 3 Z M 2.5 4 C 1.671875 4 1 3.328125 1 2.5 C 1 1.671875 1.671875 1 2.5 1 C 3.328125 1 4 1.671875 4 2.5 C 4 3.328125 3.328125 4 2.5 4 Z"/>
</svg>
