<?xml version="1.0" encoding="utf-8"?>
<!-- Copyright © 2013 Apple Inc. All rights reserved. -->
<svg version="1.1" xmlns="http://www.w3.org/2000/svg" viewBox="0 0 13 5">
    <path fill="rgb(54, 124, 210)" d="M 8.5 4 C 7.667969 4 4.332031 4 3 4 C 3 4.550781 2.550781 5 2 5 L 1 5 C 0.445312 5 0 4.550781 0 4 L 0 1 C 0 0.445312 0.445312 0 1 0 L 2 0 C 2.550781 0 3 0.445312 3 1 C 4.332031 1 7.667969 1 8.5 1 C 8.964844 0.382812 9.699219 0 10.5 0 C 11.878906 0 13 1.121094 13 2.5 C 13 3.878906 11.878906 5 10.5 5 C 9.699219 5 8.964844 4.617188 8.5 4"/>
    <path fill="white" d="M 1 4 L 1 1 L 2 1 L 2 4 Z M 1 3 L 1 2 L 11 2 L 11 3 Z M 10.5 4 C 9.671875 4 9 3.328125 9 2.5 C 9 1.671875 9.671875 1 10.5 1 C 11.328125 1 12 1.671875 12 2.5 C 12 3.328125 11.328125 4 10.5 4 Z"/>
</svg>
