<?xml version="1.0" encoding="utf-8"?>
<!-- Copyright © 2013 Apple Inc. All rights reserved. -->
<svg version="1.1" xmlns="http://www.w3.org/2000/svg" viewBox="0 0 16 16">
    <path fill="rgb(148, 183, 219)" d="M 13 1 L 3 1 C 1.898438 1 1 1.898438 1 3 L 1 13 C 1 14.101562 1.898438 15 3 15 L 13 15 C 14.101562 15 15 14.101562 15 13 L 15 3 C 15 1.898438 14.101562 1 13 1 Z"/>
    <path fill="rgb(106, 136, 170)" d="M 13 1 L 3 1 C 1.898438 1 1 1.898438 1 3 L 1 13 C 1 14.101562 1.898438 15 3 15 L 13 15 C 14.101562 15 15 14.101562 15 13 L 15 3 C 15 1.898438 14.101562 1 13 1 M 13 2 C 13.550781 2 14 2.449219 14 3 L 14 13 C 14 13.550781 13.550781 14 13 14 L 3 14 C 2.449219 14 2 13.550781 2 13 L 2 3 C 2 2.449219 2.449219 2 3 2 L 13 2"/>
    <path fill="white" d="M 7 7.632812 L 7.027344 7.632812 C 8.28125 7.632812 9.0625 7.144531 9.0625 6.167969 C 9.0625 5.453125 8.347656 5.097656 7.230469 5.097656 L 7 5.097656 Z M 5 12 L 5 4 L 8.109375 4 C 9.800781 4 11 4.675781 11 6 C 11 6.496094 10.855469 6.941406 10.570312 7.347656 C 10.285156 7.753906 9.53125 8.050781 9.03125 8.265625 L 11.75 12 L 9.402344 12 L 7.34375 8.730469 L 7 8.730469 L 7 12 Z"/>
    <path fill="rgb(113, 146, 184)" d="M 8.109375 3 L 4 3 L 4 13 L 8 13 L 8 11.644531 L 8.558594 12.53125 L 8.851562 13 L 13.714844 13 L 12.558594 11.410156 L 10.550781 8.652344 C 10.875 8.460938 11.175781 8.226562 11.386719 7.925781 C 11.792969 7.351562 12 6.703125 12 6 C 12 4.179688 10.472656 3 8.109375 3 M 7 7.632812 L 7.027344 7.632812 C 8.28125 7.632812 9.0625 7.144531 9.0625 6.167969 C 9.0625 5.453125 8.347656 5.097656 7.230469 5.097656 L 7 5.097656 L 7 7.632812 M 8.109375 4 C 9.796875 4 11 4.679688 11 6 C 11 6.492188 10.855469 6.941406 10.570312 7.347656 C 10.285156 7.753906 9.535156 8.050781 9.03125 8.265625 L 11.75 12 L 9.40625 12 L 7.34375 8.730469 L 7 8.730469 L 7 12 L 5 12 L 5 4 L 8.109375 4"/>
</svg>
