<?xml version="1.0" encoding="utf-8"?>
<!-- Copyright © 2013 Apple Inc. All rights reserved. -->
<svg version="1.1" xmlns="http://www.w3.org/2000/svg" viewBox="0 0 16 16">
    <path fill="rgb(148, 183, 219)" d="M 13 1 L 3 1 C 1.898438 1 1 1.898438 1 3 L 1 13 C 1 14.101562 1.898438 15 3 15 L 13 15 C 14.101562 15 15 14.101562 15 13 L 15 3 C 15 1.898438 14.101562 1 13 1 Z"/>
    <path fill="rgb(106, 136, 170)" d="M 13 1 L 3 1 C 1.898438 1 1 1.898438 1 3 L 1 13 C 1 14.101562 1.898438 15 3 15 L 13 15 C 14.101562 15 15 14.101562 15 13 L 15 3 C 15 1.898438 14.101562 1 13 1 M 13 2 C 13.550781 2 14 2.449219 14 3 L 14 13 C 14 13.550781 13.550781 14 13 14 L 3 14 C 2.449219 14 2 13.550781 2 13 L 2 3 C 2 2.449219 2.449219 2 3 2 L 13 2"/>
    <path fill="rgb(113, 146, 184)" d="M 7.292969 12.707031 L 3.292969 8.707031 C 3.101562 8.515625 3 8.257812 3 8 C 3 7.871094 3.027344 7.742188 3.074219 7.617188 C 3.230469 7.242188 3.59375 7 4 7 C 4 7 5.109375 7 6 7 C 6 5.875 6 4 6 4 C 6 3.445312 6.445312 3 7 3 L 9 3 C 9.554688 3 10 3.445312 10 4 C 10 4 10 5.875 10 7 C 10.890625 7 12 7 12 7 C 12.40625 7 12.769531 7.242188 12.925781 7.617188 C 12.972656 7.742188 13 7.871094 13 8 C 13 8.257812 12.898438 8.515625 12.707031 8.707031 L 8.707031 12.707031 C 8.511719 12.902344 8.253906 13 8 13 C 7.746094 13 7.488281 12.902344 7.292969 12.707031"/>
    <path fill="white" d="M 7 4 L 7 8 L 4 8 L 8 12 L 12 8 L 9 8 L 9 4 L 7 4"/>
</svg>
