<?xml version="1.0" encoding="utf-8"?>
<!-- Copyright © 2013 Apple Inc. All rights reserved. -->
<svg version="1.1" xmlns="http://www.w3.org/2000/svg" viewBox="0 0 16 16">
    <path fill="rgb(148, 183, 219)" d="M 13 1 L 3 1 C 1.898438 1 1 1.898438 1 3 L 1 13 C 1 14.101562 1.898438 15 3 15 L 13 15 C 14.101562 15 15 14.101562 15 13 L 15 3 C 15 1.898438 14.101562 1 13 1 Z"/>
    <path fill="rgb(106, 136, 170)" d="M 13 1 L 3 1 C 1.898438 1 1 1.898438 1 3 L 1 13 C 1 14.101562 1.898438 15 3 15 L 13 15 C 14.101562 15 15 14.101562 15 13 L 15 3 C 15 1.898438 14.101562 1 13 1 M 13 2 C 13.550781 2 14 2.449219 14 3 L 14 13 C 14 13.550781 13.550781 14 13 14 L 3 14 C 2.449219 14 2 13.550781 2 13 L 2 3 C 2 2.449219 2.449219 2 3 2 L 13 2"/>
    <path fill="white" d="M 6.585938 12.023438 C 6.152344 12.023438 5.820312 11.96875 5.574219 11.863281 C 5.308594 11.746094 5.113281 11.550781 4.992188 11.285156 C 4.882812 11.035156 4.828125 10.660156 4.828125 10.136719 C 4.828125 9.453125 4.796875 9.226562 4.78125 9.152344 C 4.753906 9.03125 4.699219 8.925781 4.617188 8.824219 C 4.558594 8.75 4.40625 8.703125 4.191406 8.695312 L 4 8.6875 L 4 7.328125 L 4.199219 7.328125 C 4.414062 7.324219 4.566406 7.265625 4.667969 7.144531 C 4.714844 7.085938 4.828125 6.875 4.828125 6.152344 C 4.828125 5.691406 4.84375 5.355469 4.878906 5.128906 C 4.914062 4.875 5.007812 4.660156 5.152344 4.484375 C 5.296875 4.308594 5.484375 4.183594 5.710938 4.109375 C 5.925781 4.035156 6.210938 4 6.585938 4 L 6.984375 4 L 6.984375 5.367188 L 6.785156 5.367188 C 6.363281 5.367188 6.273438 5.417969 6.265625 5.425781 C 6.265625 5.425781 6.21875 5.488281 6.214844 5.742188 C 6.199219 6.386719 6.175781 6.804688 6.152344 7 C 6.125 7.210938 6.0625 7.417969 5.964844 7.613281 C 5.894531 7.753906 5.789062 7.882812 5.644531 8.011719 C 5.78125 8.132812 5.890625 8.273438 5.96875 8.421875 C 6.085938 8.648438 6.152344 8.957031 6.171875 9.367188 L 6.226562 10.515625 C 6.234375 10.539062 6.257812 10.574219 6.300781 10.601562 C 6.308594 10.605469 6.394531 10.65625 6.78125 10.65625 L 6.980469 10.65625 L 6.980469 12.023438 Z"/>
    <path fill="rgb(113, 146, 184)" d="M 7.984375 3 L 6.585938 3 C 6.101562 3 5.714844 3.050781 5.394531 3.160156 C 4.984375 3.296875 4.648438 3.527344 4.382812 3.84375 C 4.121094 4.160156 3.953125 4.546875 3.886719 4.984375 C 3.847656 5.265625 3.828125 5.636719 3.828125 6.152344 C 3.828125 6.21875 3.828125 6.277344 3.824219 6.332031 L 3 6.339844 L 3 9.652344 L 3.820312 9.683594 C 3.824219 9.796875 3.828125 9.941406 3.828125 10.136719 C 3.828125 10.8125 3.90625 11.308594 4.082031 11.691406 C 4.300781 12.1875 4.679688 12.558594 5.171875 12.777344 C 5.546875 12.941406 6.011719 13.023438 6.585938 13.023438 L 7.980469 13.023438 L 7.980469 9.652344 L 7.1875 9.652344 L 7.171875 9.316406 C 7.144531 8.789062 7.050781 8.363281 6.882812 8.015625 C 7.015625 7.730469 7.105469 7.433594 7.144531 7.121094 C 7.160156 7.015625 7.175781 6.820312 7.195312 6.363281 L 7.984375 6.363281 Z M 6.984375 4 L 6.984375 5.363281 L 6.785156 5.363281 C 6.367188 5.363281 6.277344 5.417969 6.265625 5.425781 C 6.265625 5.425781 6.21875 5.488281 6.214844 5.742188 C 6.199219 6.386719 6.175781 6.804688 6.152344 7 C 6.125 7.210938 6.0625 7.417969 5.964844 7.613281 C 5.894531 7.753906 5.789062 7.886719 5.644531 8.011719 C 5.78125 8.132812 5.890625 8.269531 5.96875 8.421875 C 6.085938 8.648438 6.152344 8.957031 6.171875 9.363281 L 6.226562 10.515625 C 6.234375 10.539062 6.257812 10.574219 6.296875 10.601562 C 6.308594 10.605469 6.394531 10.652344 6.78125 10.652344 L 6.980469 10.652344 L 6.980469 12.023438 L 6.585938 12.023438 C 6.152344 12.023438 5.820312 11.96875 5.574219 11.859375 C 5.308594 11.742188 5.113281 11.550781 4.992188 11.285156 C 4.882812 11.035156 4.828125 10.660156 4.828125 10.136719 C 4.828125 9.453125 4.796875 9.230469 4.78125 9.152344 C 4.753906 9.03125 4.699219 8.925781 4.617188 8.824219 C 4.554688 8.75 4.40625 8.703125 4.195312 8.695312 L 4 8.6875 L 4 7.328125 L 4.199219 7.328125 C 4.414062 7.324219 4.570312 7.265625 4.667969 7.144531 C 4.714844 7.085938 4.828125 6.875 4.828125 6.152344 C 4.828125 5.691406 4.84375 5.355469 4.878906 5.128906 C 4.914062 4.875 5.007812 4.65625 5.152344 4.484375 C 5.296875 4.3125 5.484375 4.183594 5.710938 4.105469 C 5.925781 4.035156 6.210938 4 6.585938 4 L 6.984375 4"/>
    <path fill="rgb(113, 146, 184)" d="M 9.414062 3 L 8.015625 3 L 8.015625 6.363281 L 8.808594 6.363281 C 8.824219 6.804688 8.851562 7.113281 8.890625 7.328125 C 8.933594 7.570312 9.011719 7.804688 9.117188 8.019531 C 9 8.261719 8.921875 8.519531 8.878906 8.785156 C 8.851562 8.921875 8.828125 9.136719 8.808594 9.652344 L 8.019531 9.652344 L 8.019531 13.023438 L 9.421875 13.023438 C 9.90625 13.023438 10.296875 12.96875 10.617188 12.859375 C 11.003906 12.730469 11.355469 12.496094 11.617188 12.179688 C 11.886719 11.855469 12.054688 11.472656 12.117188 11.035156 C 12.15625 10.753906 12.171875 10.382812 12.171875 9.863281 C 12.171875 9.800781 12.175781 9.742188 12.175781 9.691406 L 13 9.683594 L 13 6.371094 L 12.179688 6.339844 C 12.175781 6.230469 12.171875 6.078125 12.171875 5.886719 C 12.171875 5.210938 12.09375 4.714844 11.921875 4.328125 C 11.699219 3.839844 11.324219 3.464844 10.828125 3.246094 C 10.453125 3.078125 9.988281 3 9.414062 3 M 9.414062 4 C 9.847656 4 10.179688 4.054688 10.425781 4.160156 C 10.691406 4.277344 10.886719 4.472656 11.007812 4.738281 C 11.117188 4.988281 11.171875 5.363281 11.171875 5.886719 C 11.171875 6.59375 11.203125 6.816406 11.222656 6.886719 C 11.253906 7.003906 11.308594 7.105469 11.390625 7.203125 C 11.425781 7.246094 11.523438 7.316406 11.808594 7.328125 L 12 7.335938 L 12 8.695312 L 11.800781 8.695312 C 11.585938 8.699219 11.433594 8.757812 11.332031 8.878906 C 11.273438 8.953125 11.171875 9.175781 11.171875 9.863281 C 11.171875 10.332031 11.15625 10.667969 11.125 10.894531 C 11.089844 11.144531 10.996094 11.363281 10.851562 11.539062 C 10.707031 11.714844 10.519531 11.839844 10.292969 11.914062 C 10.082031 11.984375 9.796875 12.023438 9.421875 12.023438 L 9.019531 12.023438 L 9.019531 10.652344 L 9.21875 10.652344 C 9.636719 10.652344 9.726562 10.59375 9.730469 10.59375 C 9.730469 10.59375 9.785156 10.53125 9.789062 10.277344 C 9.808594 9.582031 9.828125 9.148438 9.863281 8.945312 C 9.898438 8.730469 9.972656 8.527344 10.078125 8.339844 C 10.144531 8.21875 10.238281 8.109375 10.355469 8.007812 C 10.230469 7.902344 10.140625 7.796875 10.074219 7.6875 C 9.976562 7.523438 9.910156 7.34375 9.875 7.148438 C 9.839844 6.96875 9.816406 6.644531 9.800781 6.183594 C 9.78125 5.597656 9.761719 5.480469 9.757812 5.457031 C 9.695312 5.402344 9.609375 5.363281 9.214844 5.363281 L 9.015625 5.363281 L 9.015625 4 L 9.414062 4"/>
    <path fill="white" d="M 9.019531 12.023438 L 9.019531 10.65625 L 9.21875 10.65625 C 9.636719 10.65625 9.726562 10.59375 9.734375 10.589844 C 9.734375 10.589844 9.785156 10.53125 9.789062 10.277344 C 9.804688 9.582031 9.832031 9.148438 9.863281 8.945312 C 9.898438 8.730469 9.96875 8.527344 10.078125 8.339844 C 10.144531 8.21875 10.238281 8.109375 10.351562 8.007812 C 10.230469 7.902344 10.140625 7.796875 10.074219 7.6875 C 9.976562 7.523438 9.910156 7.34375 9.875 7.152344 C 9.839844 6.96875 9.816406 6.644531 9.800781 6.183594 C 9.78125 5.597656 9.761719 5.476562 9.757812 5.457031 C 9.695312 5.402344 9.609375 5.367188 9.214844 5.367188 L 9.015625 5.367188 L 9.015625 4 L 9.414062 4 C 9.847656 4 10.179688 4.050781 10.425781 4.160156 C 10.691406 4.277344 10.886719 4.472656 11.007812 4.738281 C 11.117188 4.988281 11.171875 5.363281 11.171875 5.886719 C 11.171875 6.589844 11.207031 6.816406 11.222656 6.886719 C 11.253906 7.003906 11.308594 7.105469 11.390625 7.203125 C 11.425781 7.246094 11.527344 7.316406 11.804688 7.328125 L 12 7.335938 L 12 8.695312 L 11.800781 8.695312 C 11.585938 8.699219 11.433594 8.757812 11.332031 8.878906 C 11.273438 8.953125 11.171875 9.175781 11.171875 9.867188 C 11.171875 10.332031 11.15625 10.667969 11.125 10.890625 C 11.089844 11.144531 11 11.363281 10.851562 11.539062 C 10.707031 11.710938 10.519531 11.839844 10.292969 11.914062 C 10.082031 11.988281 9.792969 12.023438 9.417969 12.023438 Z"/>
</svg>
