<?xml version="1.0" encoding="utf-8"?>
<!-- Copyright © 2013 Apple Inc. All rights reserved. -->
<svg xmlns="http://www.w3.org/2000/svg" id="root" version="1.1" viewBox="0 0 32 32">
    <path fill="rgb(48, 48, 48)" d="M 7.464844 27.890625 L 10.386719 22.828125 C 10.785156 22.136719 11.671875 21.902344 12.363281 22.300781 C 13.054688 22.699219 13.28125 23.578125 12.882812 24.269531 L 9.96875 29.328125 C 9.570312 30.019531 8.691406 30.257812 8 29.859375 C 7.308594 29.457031 7.066406 28.582031 7.464844 27.890625"/>
    <path fill="rgba(48, 48, 48, 0.87)" d="M 14.554688 30.566406 L 14.554688 24.71875 C 14.554688 23.921875 15.203125 23.277344 16 23.277344 C 16.800781 23.273438 17.4375 23.921875 17.4375 24.71875 L 17.441406 30.554688 C 17.441406 31.351562 16.800781 32 16.003906 32 C 15.203125 32 14.554688 31.363281 14.554688 30.566406"/>
    <path fill="rgba(48, 48, 48, 0.75)" d="M 22.027344 29.335938 L 19.105469 24.273438 C 18.707031 23.582031 18.941406 22.695312 19.640625 22.300781 C 20.332031 21.902344 21.203125 22.136719 21.601562 22.828125 L 24.527344 27.882812 C 24.925781 28.574219 24.691406 29.457031 24.003906 29.855469 C 23.304688 30.253906 22.425781 30.027344 22.027344 29.335938"/>
    <path fill="rgba(48, 48, 48, 0.64)" d="M 24.261719 19.101562 L 29.328125 22.03125 C 30.015625 22.429688 30.25 23.3125 29.851562 24 C 29.453125 24.691406 28.574219 24.925781 27.886719 24.527344 L 22.828125 21.613281 C 22.132812 21.210938 21.898438 20.328125 22.296875 19.636719 C 22.695312 18.949219 23.570312 18.703125 24.261719 19.101562"/>
    <path fill="rgba(48, 48, 48, 0.53)" d="M 24.707031 14.554688 L 30.550781 14.558594 C 31.347656 14.558594 31.996094 15.203125 32 16.003906 C 32 16.800781 31.355469 17.441406 30.550781 17.4375 L 24.710938 17.445312 C 23.914062 17.445312 23.273438 16.800781 23.273438 16.003906 C 23.273438 15.207031 23.914062 14.554688 24.707031 14.554688"/>
    <path fill="rgba(48, 48, 48, 0.45)" d="M 22.816406 10.390625 L 27.878906 7.472656 C 28.570312 7.074219 29.457031 7.3125 29.855469 8.003906 C 30.253906 8.695312 30.011719 9.566406 29.320312 9.96875 L 24.273438 12.894531 C 23.582031 13.292969 22.699219 13.054688 22.300781 12.367188 C 21.902344 11.675781 22.128906 10.792969 22.816406 10.390625"/>
    <path fill="rgba(48, 48, 48, 0.37)" d="M 19.101562 7.734375 L 22.023438 2.671875 C 22.421875 1.980469 23.308594 1.746094 24 2.144531 C 24.691406 2.542969 24.917969 3.421875 24.519531 4.113281 L 21.605469 9.171875 C 21.207031 9.863281 20.328125 10.101562 19.636719 9.703125 C 18.945312 9.304688 18.703125 8.425781 19.101562 7.734375"/>
    <path fill="rgba(48, 48, 48, 0.31)" d="M 14.550781 7.289062 L 14.550781 1.441406 C 14.550781 0.644531 15.203125 0 16 0 C 16.796875 0 17.433594 0.644531 17.433594 1.441406 L 17.445312 7.285156 C 17.445312 8.082031 16.796875 8.726562 16 8.726562 C 15.199219 8.726562 14.550781 8.085938 14.550781 7.289062"/>
    <path fill="rgba(48, 48, 48, 0.25)" d="M 10.390625 9.179688 L 7.472656 4.117188 C 7.074219 3.425781 7.308594 2.542969 8 2.140625 C 8.6875 1.742188 9.5625 1.980469 9.960938 2.671875 L 12.886719 7.726562 C 13.292969 8.417969 13.050781 9.300781 12.363281 9.699219 C 11.671875 10.097656 10.789062 9.871094 10.390625 9.179688"/>
    <path fill="rgba(48, 48, 48, 0.22)" d="M 4.105469 7.464844 L 9.164062 10.390625 C 9.855469 10.789062 10.09375 11.671875 9.695312 12.363281 C 9.296875 13.054688 8.417969 13.289062 7.730469 12.886719 L 2.664062 9.972656 C 1.976562 9.574219 1.738281 8.691406 2.140625 8 C 2.539062 7.3125 3.414062 7.066406 4.105469 7.464844"/>
    <path fill="rgba(48, 48, 48, 0.19)" d="M 1.429688 14.550781 L 7.277344 14.558594 C 8.074219 14.558594 8.722656 15.203125 8.722656 16 C 8.722656 16.800781 8.074219 17.441406 7.28125 17.441406 L 1.441406 17.445312 C 0.644531 17.445312 -0.00390625 16.800781 -0.00390625 16.003906 C -0.00390625 15.203125 0.632812 14.554688 1.429688 14.550781"/>
    <path fill="rgba(48, 48, 48, 0.17)" d="M 2.660156 22.027344 L 7.726562 19.113281 C 8.414062 18.710938 9.300781 18.949219 9.699219 19.636719 C 10.097656 20.328125 9.859375 21.207031 9.167969 21.605469 L 4.113281 24.53125 C 3.421875 24.929688 2.539062 24.691406 2.140625 24 C 1.742188 23.308594 1.96875 22.425781 2.660156 22.027344"/>
</svg>
