<?xml version="1.0" encoding="utf-8"?>
<!-- Copyright © 2013 Apple Inc. All rights reserved. -->
<svg xmlns="http://www.w3.org/2000/svg" id="root" version="1.1" viewBox="0 0 32 32">
    <path fill="rgb(48, 48, 48)" d="M 22.027344 29.335938 L 19.105469 24.273438 C 18.707031 23.582031 18.945312 22.695312 19.636719 22.296875 C 20.328125 21.898438 21.203125 22.140625 21.601562 22.832031 L 24.527344 27.886719 C 24.925781 28.574219 24.691406 29.457031 24 29.855469 C 23.308594 30.253906 22.425781 30.027344 22.027344 29.335938"/>
    <path fill="rgba(48, 48, 48, 0.87)" d="M 27.890625 24.535156 L 22.828125 21.609375 C 22.136719 21.210938 21.902344 20.324219 22.300781 19.632812 C 22.699219 18.945312 23.578125 18.710938 24.269531 19.113281 L 29.324219 22.027344 C 30.015625 22.425781 30.257812 23.304688 29.859375 23.996094 C 29.457031 24.6875 28.582031 24.933594 27.890625 24.535156"/>
    <path fill="rgba(48, 48, 48, 0.75)" d="M 30.5625 17.445312 L 24.714844 17.441406 C 23.917969 17.441406 23.269531 16.796875 23.273438 15.996094 C 23.273438 15.199219 23.917969 14.558594 24.714844 14.558594 L 30.554688 14.554688 C 31.351562 14.554688 32 15.199219 32 15.996094 C 31.996094 16.796875 31.359375 17.445312 30.5625 17.445312"/>
    <path fill="rgba(48, 48, 48, 0.64)" d="M 22.816406 10.394531 L 27.886719 7.472656 C 28.574219 7.074219 29.457031 7.3125 29.855469 8.003906 C 30.253906 8.691406 30.015625 9.570312 29.324219 9.96875 L 24.273438 12.890625 C 23.578125 13.292969 22.695312 13.054688 22.296875 12.363281 C 21.898438 11.675781 22.125 10.792969 22.816406 10.394531"/>
    <path fill="rgba(48, 48, 48, 0.53)" d="M 19.101562 7.734375 L 22.027344 2.675781 C 22.421875 1.984375 23.308594 1.746094 24.003906 2.144531 C 24.691406 2.539062 24.925781 3.421875 24.519531 4.117188 L 21.605469 9.175781 C 21.207031 9.867188 20.332031 10.097656 19.640625 9.699219 C 18.949219 9.300781 18.703125 8.421875 19.101562 7.734375"/>
    <path fill="rgba(48, 48, 48, 0.45)" d="M 14.550781 7.289062 L 14.550781 1.445312 C 14.550781 0.648438 15.203125 0 16.003906 0 C 16.800781 0 17.433594 0.648438 17.433594 1.445312 L 17.445312 7.28125 C 17.445312 8.078125 16.800781 8.722656 16.003906 8.722656 C 15.203125 8.726562 14.550781 8.085938 14.550781 7.289062"/>
    <path fill="rgba(48, 48, 48, 0.37)" d="M 10.390625 9.179688 L 7.46875 4.117188 C 7.070312 3.425781 7.308594 2.539062 8 2.140625 C 8.691406 1.742188 9.566406 1.984375 9.964844 2.675781 L 12.886719 7.726562 C 13.289062 8.417969 13.054688 9.300781 12.363281 9.699219 C 11.671875 10.097656 10.789062 9.871094 10.390625 9.179688"/>
    <path fill="rgba(48, 48, 48, 0.31)" d="M 7.730469 12.898438 L 2.667969 9.972656 C 1.976562 9.574219 1.742188 8.6875 2.140625 8 C 2.539062 7.308594 3.417969 7.078125 4.109375 7.476562 L 9.171875 10.386719 C 9.863281 10.785156 10.097656 11.671875 9.699219 12.359375 C 9.300781 13.050781 8.421875 13.296875 7.730469 12.898438"/>
    <path fill="rgba(48, 48, 48, 0.25)" d="M 7.289062 17.445312 L 1.445312 17.441406 C 0.648438 17.441406 -0.00390625 16.796875 -0.00390625 15.996094 C -0.00390625 15.199219 0.640625 14.5625 1.4375 14.5625 L 7.277344 14.554688 C 8.078125 14.550781 8.722656 15.199219 8.722656 15.996094 C 8.722656 16.796875 8.085938 17.445312 7.289062 17.445312"/>
    <path fill="rgba(48, 48, 48, 0.22)" d="M 2.660156 22.03125 L 7.722656 19.113281 C 8.414062 18.714844 9.300781 18.949219 9.699219 19.640625 C 10.097656 20.332031 9.859375 21.207031 9.167969 21.605469 L 4.113281 24.53125 C 3.421875 24.929688 2.539062 24.691406 2.140625 24.003906 C 1.742188 23.3125 1.96875 22.429688 2.660156 22.03125"/>
    <path fill="rgba(48, 48, 48, 0.19)" d="M 7.460938 27.890625 L 10.390625 22.832031 C 10.789062 22.140625 11.671875 21.902344 12.363281 22.300781 C 13.054688 22.699219 13.285156 23.582031 12.886719 24.269531 L 9.972656 29.328125 C 9.574219 30.019531 8.691406 30.257812 8 29.855469 C 7.308594 29.457031 7.0625 28.582031 7.460938 27.890625"/>
    <path fill="rgba(48, 48, 48, 0.17)" d="M 14.550781 30.566406 L 14.554688 24.71875 C 14.554688 23.921875 15.203125 23.273438 16 23.273438 C 16.796875 23.273438 17.4375 23.921875 17.4375 24.71875 L 17.445312 30.558594 C 17.445312 31.355469 16.796875 32 16 32 C 15.203125 32 14.550781 31.363281 14.550781 30.566406"/>
</svg>
