<?xml version="1.0" encoding="utf-8"?>
<!-- Copyright © 2017 Apple Inc. All rights reserved. -->
<svg xmlns="http://www.w3.org/2000/svg" id="root" viewBox="0 0 16 16">
    <path fill="currentColor" fill-rule="evenodd" d="M 10.1589104 13.4997743C 7.6207023 14.9652094 4.41851284 14.2388343 2.74398502 11.9078979L 4.31515363 11.0007832.421523602 8.89653784.296314315 13.3210612 1.65145707 12.5386692C 3.54608019 15.2801236 7.14278804 16.2718354 10.1691404 14.9049059L 10.1589104 13.4997743zM 1.67902543 8.51419182C 1.7234718 5.64447423 3.9060071 3.29358667 6.70386082 2.98429963L 6.70386082 4.76349105 10.4730058 2.44363124 6.70386082.122935137 6.70386082 1.72158218C 3.41613949 2.01785462.792429597 4.61690383.457986941 7.89347401.457986941 7.89347401 1.67856516 8.54390992 1.67902543 8.51419182zM 11.412545 3.02613865C 11.412545 3.02613865 10.2139156 3.73931007 10.2411398 3.75563434 12.7083426 5.23502792 13.6489697 8.31336275 12.5013398 10.8944151L 11.1011966 10.0860421 11.2256817 14.5101473 15.1200359 12.4063201 13.5944092 11.5254991C 14.9935767 8.53568734 14.068459 4.96425679 11.412545 3.02613865 Z"/>
</svg>
