<?xml version="1.0" encoding="utf-8"?>
<!-- Copyright © 2016 Apple Inc. All rights reserved. -->
<svg xmlns="http://www.w3.org/2000/svg" id="root" version="1.1" viewBox="0 0 16 16">
    <path fill="currentColor" d="M 2 5 C 1.51875 5 1 5.45 1 6 L 1 12 L 3 12 C 3.240625 12 3.5 11.775 3.5 11.5 C 3.5 11.225 3.240625 11 3 11 L 2.5 11 L 2.5 9 L 13.5 9 L 13.5 11 L 13 11 C 12.759375 11 12.5 11.225 12.5 11.5 C 12.5 11.775 12.759375 12 13 12 L 15 12 L 15 6 C 15 5.45 14.48125 5 14 5 L 2 5 Z M 5 4 L 5 2 L 11 2 L 11 4 C 11 4.275 11.28 4.5 11.5 4.5 C 11.72 4.5 12 4.275 12 4 L 12 1 L 4 1 L 4 4 C 4 4.275 4.28 4.5 4.5 4.5 C 4.72 4.5 5 4.275 5 4 Z M 11.5 9.5 C 11.28 9.5 11 9.725 11 10 L 11 14 L 5 14 L 5 10 C 5 9.725 4.72 9.5 4.5 9.5 C 4.28 9.5 4 9.725 4 10 L 4 15 L 12 15 L 12 10 C 12 9.725 11.72 9.5 11.5 9.5 L 11.5 9.5 Z"/>
</svg>
