<svg xmlns="http://www.w3.org/2000/svg" viewBox="0 0 16 16"><path d="M9.2534105,14.7102108 C10.1750034,14.7102108 11.0425796,14.5338294 11.8561389,14.1810666 C12.6696982,13.8283037 13.3873501,13.34105 14.0090947,12.7193055 C14.6308392,12.097561 15.1180929,11.3799091 15.4708557,10.5663497 C15.8236186,9.75279041 16,8.88521428 16,7.96362133 C16,7.04202839 15.8225162,6.17445225 15.4675486,5.36089293 C15.112581,4.54733361 14.6242249,3.82968169 14.0024804,3.20793716 C13.3807358,2.58619264 12.6630839,2.09893896 11.8495246,1.74617611 C11.0359653,1.39341326 10.1683891,1.21703183 9.2467962,1.21703183 C8.38693675,1.21703183 7.57337743,1.37136558 6.80611823,1.68003307 C6.03885903,1.98870056 5.35207386,2.41642552 4.74576271,2.96320794 C4.13945156,3.50999035 3.64558357,4.14716825 3.26415874,4.87474163 C2.88273391,5.60231501 2.64572137,6.38500758 2.55312112,7.22281935 C2.71186441,7.1919526 2.89816729,7.1710073 3.11202976,7.15998346 C3.32589224,7.14895963 3.52101419,7.15447154 3.69739562,7.17651922 C3.78999587,6.4930412 3.99503927,5.85696569 4.31252584,5.26829268 C4.6300124,4.67961968 5.03789445,4.16701116 5.53617197,3.73046714 C6.0344495,3.29392311 6.59887006,2.95328648 7.22943365,2.70855726 C7.85999724,2.46382803 8.53245143,2.34146341 9.2467962,2.34146341 C10.027284,2.34146341 10.7570621,2.48587571 11.4361306,2.77470029 C12.1151991,3.06352487 12.7126912,3.465895 13.2286069,3.98181067 C13.7445225,4.49772633 14.147995,5.09521841 14.4390244,5.7742869 C14.7300537,6.45335538 14.8755684,7.18313353 14.8755684,7.96362133 C14.8755684,8.69119471 14.7476919,9.3768775 14.4919388,10.0206697 C14.2361858,10.6644619 13.8812181,11.233292 13.427036,11.72716 C13.2109687,11.4714069 12.9023012,11.2277801 12.5010335,10.9962795 C12.0997657,10.7647788 11.6235359,10.5762712 11.0723439,10.4307565 C10.521152,10.2852418 9.91263608,10.2124845 9.2467962,10.2124845 C8.92930963,10.2124845 8.62505167,10.231225 8.33402232,10.2687061 C8.04299297,10.3061871 7.767397,10.3557944 7.50723439,10.4175279 C7.58660604,10.7350145 7.62629186,11.0679344 7.62629186,11.4162877 C7.62629186,11.9322034 7.53699876,12.4238666 7.35841257,12.8912774 C7.17982637,13.3586882 6.93179,13.7797988 6.61430343,14.1546093 C7.01998071,14.3309908 7.4455009,14.4676864 7.89086399,14.5646962 C8.33622709,14.6617059 8.79040926,14.7102108 9.2534105,14.7102108 Z M9.2467962,9.08805291 C9.67011162,9.09246245 10.0526388,8.98553121 10.3943778,8.7672592 C10.7361169,8.54898718 11.0084057,8.25134353 11.2112443,7.87432823 C11.414083,7.49731294 11.5155023,7.07069037 11.5155023,6.59446052 C11.5155023,6.14909742 11.414083,5.74121538 11.2112443,5.37081439 C11.0084057,5.00041339 10.7361169,4.70497451 10.3943778,4.48449773 C10.0526388,4.26402095 9.67011162,4.15378255 9.2467962,4.15378255 C8.82348078,4.15378255 8.43985118,4.26402095 8.0959074,4.48449773 C7.75196362,4.70497451 7.47857241,5.00041339 7.27573377,5.37081439 C7.07289514,5.74121538 6.97368058,6.14909742 6.97809012,6.59446052 C6.97809012,7.07069037 7.07950944,7.49621056 7.28234808,7.87102108 C7.48518672,8.24583161 7.75747554,8.5412705 8.09921455,8.75733774 C8.44095356,8.97340499 8.82348078,9.08364338 9.2467962,9.08805291 Z M3.36006614,14.7829682 C3.81424831,14.7829682 4.24417804,14.6947775 4.64985531,14.518396 C5.05553259,14.3420146 5.41380736,14.0994901 5.72467962,13.7908227 C6.03555188,13.4821552 6.27917872,13.1249828 6.45556015,12.7193055 C6.63194157,12.3136282 6.72013229,11.8814937 6.72013229,11.422902 C6.72013229,10.9599008 6.63304396,10.5255615 6.4588673,10.1198842 C6.28469064,9.71420697 6.04326857,9.35703459 5.73460107,9.04836709 C5.42593358,8.7396996 5.0687612,8.49827753 4.66308392,8.32410087 C4.25740664,8.14992421 3.82306738,8.06283588 3.36006614,8.06283588 C2.90147444,8.06283588 2.46933995,8.14992421 2.06366267,8.32410087 C1.65798539,8.49827753 1.30081301,8.74080198 0.992145515,9.05167425 C0.683478021,9.36254651 0.440953562,9.71971889 0.264572137,10.1231914 C0.0881907124,10.5266639 0,10.9599008 0,11.422902 C0,11.8859033 0.0881907124,12.3202425 0.264572137,12.7259198 C0.440953562,13.1315971 0.683478021,13.4887695 0.992145515,13.797437 C1.30081301,14.1061045 1.65798539,14.3475265 2.06366267,14.5217032 C2.46933995,14.6958798 2.90147444,14.7829682 3.36006614,14.7829682 Z M3.36006614,13.6056222 C3.24541822,13.6056222 3.14510128,13.5681411 3.05911534,13.493179 C2.97312939,13.4182169 2.93013642,13.3190023 2.93013642,13.1955353 L2.93013642,11.8263745 L1.66019016,11.8263745 C1.54995177,11.8263745 1.45514675,11.7866887 1.37577511,11.7073171 C1.29640347,11.6279454 1.25671765,11.5331404 1.25671765,11.422902 C1.25671765,11.3126636 1.29640347,11.2167562 1.37577511,11.1351798 C1.45514675,11.0536034 1.54995177,11.0128152 1.66019016,11.0128152 L2.93013642,11.0128152 L2.93013642,9.6436544 C2.93013642,9.52018741 2.97312939,9.42207524 3.05911534,9.3493179 C3.14510128,9.27656056 3.24541822,9.24018189 3.36006614,9.24018189 C3.47471407,9.24018189 3.575031,9.27656056 3.66101695,9.3493179 C3.74700289,9.42207524 3.78999587,9.52018741 3.78999587,9.6436544 L3.78999587,11.0128152 L5.05994212,11.0128152 C5.17018052,11.0128152 5.26498553,11.0536034 5.34435717,11.1351798 C5.42372881,11.2167562 5.46341463,11.3126636 5.46341463,11.422902 C5.46341463,11.5331404 5.42372881,11.6279454 5.34435717,11.7073171 C5.26498553,11.7866887 5.17018052,11.8263745 5.05994212,11.8263745 L3.78999587,11.8263745 L3.78999587,13.1955353 C3.78999587,13.3190023 3.74700289,13.4182169 3.66101695,13.493179 C3.575031,13.5681411 3.47471407,13.6056222 3.36006614,13.6056222 Z"/></svg>