<svg xmlns="http://www.w3.org/2000/svg" viewBox="0 0 16 16"><path fill="#666666" d="M10.3571889,2.55834945 C10.8523533,1.96002579 11.2030948,1.1450677 11.2030948,0.319793681 C11.2030948,0.206318504 11.1927789,0.0928433269 11.172147,0 C10.3675048,0.0309477756 9.39780787,0.536428111 8.82011605,1.21727917 C8.36621534,1.73307544 7.94326241,2.55834945 7.94326241,3.38362347 C7.94326241,3.50741457 7.96389426,3.63120567 7.97421019,3.67246937 C8.02578981,3.6827853 8.10831721,3.69310123 8.19084462,3.69310123 C8.91295938,3.69310123 9.8207608,3.20825274 10.3571889,2.55834945 Z M10.9245648,3.86847195 C9.71760155,3.86847195 8.73758865,4.60090264 8.10831721,4.60090264 C7.43778208,4.60090264 6.56092843,3.90973565 5.50870406,3.90973565 C3.5177305,3.90973565 1.49580916,5.56028369 1.49580916,8.66537718 C1.49580916,10.6047711 2.23855577,12.6473243 3.16698904,13.9677627 C3.96131528,15.0818827 4.65248227,16 5.65312701,16 C6.64345583,16 7.07672469,15.3397808 8.30431979,15.3397808 C9.55254674,15.3397808 9.83107672,15.9793681 10.9245648,15.9793681 C12.0077369,15.9793681 12.7298517,14.9890393 13.4107028,14.0090264 C14.1740812,12.8845906 14.4938749,11.7911025 14.5041908,11.7395229 C14.4422953,11.718891 12.3687943,10.8729852 12.3687943,8.50032237 C12.3687943,6.44745326 13.9987105,5.52933591 14.0915538,5.45712444 C13.0186976,3.90973565 11.3784655,3.86847195 10.9245648,3.86847195 Z"/></svg>