<svg xmlns="http://www.w3.org/2000/svg" viewBox="0 0 16 16"><path d="M6.43050677,7.16106372 L6.90416458,7.16106372 C7.04331828,7.16106372 7.14099348,7.13564141 7.19719017,7.08479679 C7.25338685,7.03395217 7.2814852,6.938953 7.2814852,6.7997993 L7.2814852,6.3261415 C7.2814852,6.18698779 7.25338685,6.09065061 7.19719017,6.03712995 C7.14099348,5.9836093 7.04331828,5.95684897 6.90416458,5.95684897 L6.43050677,5.95684897 C6.29135307,5.95684897 6.19367787,5.9836093 6.13748118,6.03712995 C6.0812845,6.09065061 6.05318615,6.18698779 6.05318615,6.3261415 L6.05318615,6.7997993 C6.05318615,6.938953 6.0812845,7.03395217 6.13748118,7.08479679 C6.19367787,7.13564141 6.29135307,7.16106372 6.43050677,7.16106372 Z M9.10386352,7.16106372 L9.56949323,7.16106372 C9.713999,7.16106372 9.81301221,7.13564141 9.86653287,7.08479679 C9.92005352,7.03395217 9.94681385,6.938953 9.94681385,6.7997993 L9.94681385,6.3261415 C9.94681385,6.18698779 9.92005352,6.09065061 9.86653287,6.03712995 C9.81301221,5.9836093 9.713999,5.95684897 9.56949323,5.95684897 L9.10386352,5.95684897 C8.95935775,5.95684897 8.86034454,5.9836093 8.80682388,6.03712995 C8.75330323,6.09065061 8.7265429,6.18698779 8.7265429,6.3261415 L8.7265429,6.7997993 C8.7265429,6.938953 8.75330323,7.03395217 8.80682388,7.08479679 C8.86034454,7.13564141 8.95935775,7.16106372 9.10386352,7.16106372 Z M11.7691922,7.16106372 L12.24285,7.16106372 C12.3820037,7.16106372 12.4783409,7.13564141 12.5318615,7.08479679 C12.5853822,7.03395217 12.6121425,6.938953 12.6121425,6.7997993 L12.6121425,6.3261415 C12.6121425,6.18698779 12.5853822,6.09065061 12.5318615,6.03712995 C12.4783409,5.9836093 12.3820037,5.95684897 12.24285,5.95684897 L11.7691922,5.95684897 C11.6246864,5.95684897 11.5256732,5.9836093 11.4721525,6.03712995 C11.4186319,6.09065061 11.3918716,6.18698779 11.3918716,6.3261415 L11.3918716,6.7997993 C11.3918716,6.938953 11.4186319,7.03395217 11.4721525,7.08479679 C11.5256732,7.13564141 11.6246864,7.16106372 11.7691922,7.16106372 Z M3.76517812,9.78625188 L4.23883593,9.78625188 C4.37798963,9.78625188 4.47432681,9.76082957 4.52784747,9.70998495 C4.58136812,9.65914032 4.60812845,9.56414116 4.60812845,9.42498746 L4.60812845,8.95132965 C4.60812845,8.81217595 4.58136812,8.71717679 4.52784747,8.66633216 C4.47432681,8.61548754 4.37798963,8.59006523 4.23883593,8.59006523 L3.76517812,8.59006523 C3.62067235,8.59006523 3.52165914,8.61548754 3.46813848,8.66633216 C3.41461783,8.71717679 3.3878575,8.81217595 3.3878575,8.95132965 L3.3878575,9.42498746 C3.3878575,9.56414116 3.41461783,9.65914032 3.46813848,9.70998495 C3.52165914,9.76082957 3.62067235,9.78625188 3.76517812,9.78625188 Z M6.43050677,9.78625188 L6.90416458,9.78625188 C7.04331828,9.78625188 7.14099348,9.76082957 7.19719017,9.70998495 C7.25338685,9.65914032 7.2814852,9.56414116 7.2814852,9.42498746 L7.2814852,8.95132965 C7.2814852,8.81217595 7.25338685,8.71717679 7.19719017,8.66633216 C7.14099348,8.61548754 7.04331828,8.59006523 6.90416458,8.59006523 L6.43050677,8.59006523 C6.29135307,8.59006523 6.19367787,8.61548754 6.13748118,8.66633216 C6.0812845,8.71717679 6.05318615,8.81217595 6.05318615,8.95132965 L6.05318615,9.42498746 C6.05318615,9.56414116 6.0812845,9.65914032 6.13748118,9.70998495 C6.19367787,9.76082957 6.29135307,9.78625188 6.43050677,9.78625188 Z M9.10386352,9.78625188 L9.56949323,9.78625188 C9.713999,9.78625188 9.81301221,9.76082957 9.86653287,9.70998495 C9.92005352,9.65914032 9.94681385,9.56414116 9.94681385,9.42498746 L9.94681385,8.95132965 C9.94681385,8.81217595 9.92005352,8.71717679 9.86653287,8.66633216 C9.81301221,8.61548754 9.713999,8.59006523 9.56949323,8.59006523 L9.10386352,8.59006523 C8.95935775,8.59006523 8.86034454,8.61548754 8.80682388,8.66633216 C8.75330323,8.71717679 8.7265429,8.81217595 8.7265429,8.95132965 L8.7265429,9.42498746 C8.7265429,9.56414116 8.75330323,9.65914032 8.80682388,9.70998495 C8.86034454,9.76082957 8.95935775,9.78625188 9.10386352,9.78625188 Z M11.7691922,9.78625188 L12.24285,9.78625188 C12.3820037,9.78625188 12.4783409,9.76082957 12.5318615,9.70998495 C12.5853822,9.65914032 12.6121425,9.56414116 12.6121425,9.42498746 L12.6121425,8.95132965 C12.6121425,8.81217595 12.5853822,8.71717679 12.5318615,8.66633216 C12.4783409,8.61548754 12.3820037,8.59006523 12.24285,8.59006523 L11.7691922,8.59006523 C11.6246864,8.59006523 11.5256732,8.61548754 11.4721525,8.66633216 C11.4186319,8.71717679 11.3918716,8.81217595 11.3918716,8.95132965 L11.3918716,9.42498746 C11.3918716,9.56414116 11.4186319,9.65914032 11.4721525,9.70998495 C11.5256732,9.76082957 11.6246864,9.78625188 11.7691922,9.78625188 Z M3.76517812,12.4194681 L4.23883593,12.4194681 C4.37798963,12.4194681 4.47432681,12.3927078 4.52784747,12.3391872 C4.58136812,12.2856665 4.60812845,12.1893293 4.60812845,12.0501756 L4.60812845,11.5765178 C4.60812845,11.4373641 4.58136812,11.3423649 4.52784747,11.2915203 C4.47432681,11.2406757 4.37798963,11.2152534 4.23883593,11.2152534 L3.76517812,11.2152534 C3.62067235,11.2152534 3.52165914,11.2406757 3.46813848,11.2915203 C3.41461783,11.3423649 3.3878575,11.4373641 3.3878575,11.5765178 L3.3878575,12.0501756 C3.3878575,12.1893293 3.41461783,12.2856665 3.46813848,12.3391872 C3.52165914,12.3927078 3.62067235,12.4194681 3.76517812,12.4194681 Z M6.43050677,12.4194681 L6.90416458,12.4194681 C7.04331828,12.4194681 7.14099348,12.3927078 7.19719017,12.3391872 C7.25338685,12.2856665 7.2814852,12.1893293 7.2814852,12.0501756 L7.2814852,11.5765178 C7.2814852,11.4373641 7.25338685,11.3423649 7.19719017,11.2915203 C7.14099348,11.2406757 7.04331828,11.2152534 6.90416458,11.2152534 L6.43050677,11.2152534 C6.29135307,11.2152534 6.19367787,11.2406757 6.13748118,11.2915203 C6.0812845,11.3423649 6.05318615,11.4373641 6.05318615,11.5765178 L6.05318615,12.0501756 C6.05318615,12.1893293 6.0812845,12.2856665 6.13748118,12.3391872 C6.19367787,12.3927078 6.29135307,12.4194681 6.43050677,12.4194681 Z M9.10386352,12.4194681 L9.56949323,12.4194681 C9.713999,12.4194681 9.81301221,12.3927078 9.86653287,12.3391872 C9.92005352,12.2856665 9.94681385,12.1893293 9.94681385,12.0501756 L9.94681385,11.5765178 C9.94681385,11.4373641 9.92005352,11.3423649 9.86653287,11.2915203 C9.81301221,11.2406757 9.713999,11.2152534 9.56949323,11.2152534 L9.10386352,11.2152534 C8.95935775,11.2152534 8.86034454,11.2406757 8.80682388,11.2915203 C8.75330323,11.3423649 8.7265429,11.4373641 8.7265429,11.5765178 L8.7265429,12.0501756 C8.7265429,12.1893293 8.75330323,12.2856665 8.80682388,12.3391872 C8.86034454,12.3927078 8.95935775,12.4194681 9.10386352,12.4194681 Z M2.52082288,15.3898645 L13.4872052,15.3898645 C14.3274795,15.3898645 14.9563472,15.182472 15.3738083,14.7676869 C15.7912694,14.3529018 16,13.7307242 16,12.901154 L16,3.09884596 C16,2.2692758 15.7912694,1.64709818 15.3738083,1.2323131 C14.9563472,0.817528015 14.3274795,0.610135474 13.4872052,0.610135474 L2.52082288,0.610135474 C1.68054859,0.610135474 1.05034287,0.817528015 0.63020572,1.2323131 C0.210068573,1.64709818 0,2.2692758 0,3.09884596 L0,12.901154 C0,13.7307242 0.210068573,14.3529018 0.63020572,14.7676869 C1.05034287,15.182472 1.68054859,15.3898645 2.52082288,15.3898645 Z M2.4004014,14.0973407 C2.04716508,14.0973407 1.77420973,14.0023415 1.58153537,13.8123432 C1.38886101,13.6223449 1.29252383,13.3426994 1.29252383,12.9734069 L1.29252383,5.40291019 C1.29252383,5.03361766 1.38886101,4.75397224 1.58153537,4.56397391 C1.77420973,4.37397558 2.04716508,4.27897642 2.4004014,4.27897642 L13.5915705,4.27897642 C13.9501589,4.27897642 14.2257903,4.37397558 14.4184646,4.56397391 C14.611139,4.75397224 14.7074762,5.03361766 14.7074762,5.40291019 L14.7074762,12.9734069 C14.7074762,13.3426994 14.611139,13.6223449 14.4184646,13.8123432 C14.2257903,14.0023415 13.9501589,14.0973407 13.5915705,14.0973407 L2.4004014,14.0973407 Z"/></svg>