<svg xmlns="http://www.w3.org/2000/svg" viewBox="0 0 16 16"><path d="M7.99215686,0 C9.08496732,0 10.1150327,0.209150327 11.0823529,0.62745098 C12.0496732,1.04575163 12.9019608,1.62352941 13.6392157,2.36078431 C14.3764706,3.09803922 14.9542484,3.94901961 15.372549,4.91372549 C15.7908497,5.87843137 16,6.90718954 16,8 C16,9.09281046 15.7908497,10.1215686 15.372549,11.0862745 C14.9542484,12.0509804 14.3764706,12.9019608 13.6392157,13.6392157 C12.9019608,14.3764706 12.0509804,14.9542484 11.0862745,15.372549 C10.1215686,15.7908497 9.09281046,16 8,16 C6.90718954,16 5.87843137,15.7908497 4.91372549,15.372549 C3.94901961,14.9542484 3.09803922,14.3764706 2.36078431,13.6392157 C1.62352941,12.9019608 1.04575163,12.0509804 0.62745098,11.0862745 C0.209150327,10.1215686 0,9.09281046 0,8 C0,6.90718954 0.209150327,5.87843137 0.62745098,4.91372549 C1.04575163,3.94901961 1.62222222,3.09803922 2.35686275,2.36078431 C3.09150327,1.62352941 3.94117647,1.04575163 4.90588235,0.62745098 C5.87058824,0.209150327 6.89934641,0 7.99215686,0 Z M7.99215686,1.33333333 C7.06666667,1.33333333 6.20130719,1.50457516 5.39607843,1.84705882 C4.59084967,2.18954248 3.88496732,2.66666667 3.27843137,3.27843137 C2.67189542,3.89019608 2.19738562,4.59869281 1.85490196,5.40392157 C1.5124183,6.20915033 1.34117647,7.0745098 1.34117647,8 C1.34117647,8.9254902 1.5124183,9.79084967 1.85490196,10.5960784 C2.19738562,11.4013072 2.67320261,12.1084967 3.28235294,12.7176471 C3.89150327,13.3267974 4.59869281,13.8039216 5.40392157,14.1490196 C6.20915033,14.4941176 7.0745098,14.6666667 8,14.6666667 C8.9254902,14.6666667 9.79215686,14.4941176 10.6,14.1490196 C11.4078431,13.8039216 12.1163399,13.3267974 12.7254902,12.7176471 C13.3346405,12.1084967 13.8104575,11.4013072 14.1529412,10.5960784 C14.4954248,9.79084967 14.6666667,8.9254902 14.6666667,8 C14.6666667,7.0745098 14.4941176,6.20915033 14.1490196,5.40392157 C13.8039216,4.59869281 13.3254902,3.89019608 12.7137255,3.27843137 C12.1019608,2.66666667 11.3934641,2.18954248 10.5882353,1.84705882 C9.78300654,1.50457516 8.91764706,1.33333333 7.99215686,1.33333333 Z M7.81960784,11.9686275 C8.0496732,11.9686275 8.24836601,11.8901961 8.41568627,11.7333333 C8.58300654,11.5764706 8.66666667,11.3830065 8.66666667,11.1529412 C8.66666667,10.9228758 8.58300654,10.7294118 8.41568627,10.572549 C8.24836601,10.4156863 8.0496732,10.3372549 7.81960784,10.3372549 C7.58954248,10.3372549 7.39215686,10.4169935 7.22745098,10.5764706 C7.0627451,10.7359477 6.98039216,10.9281046 6.98039216,11.1529412 C6.98039216,11.3777778 7.06405229,11.5699346 7.23137255,11.7294118 C7.39869281,11.8888889 7.59477124,11.9686275 7.81960784,11.9686275 Z M7.84313725,9.63137255 C8.03660131,9.63137255 8.18954248,9.57647059 8.30196078,9.46666667 C8.41437908,9.35686275 8.47058824,9.22614379 8.47058824,9.0745098 C8.47058824,9.05882353 8.47058824,9.04183007 8.47058824,9.02352941 C8.47058824,9.00522876 8.47058824,8.99084967 8.47058824,8.98039216 C8.47058824,8.76078431 8.53594771,8.57124183 8.66666667,8.41176471 C8.79738562,8.25228758 9.00130719,8.08104575 9.27843137,7.89803922 C9.65490196,7.64705882 9.96601307,7.38562092 10.2117647,7.11372549 C10.4575163,6.84183007 10.5803922,6.47058824 10.5803922,6 C10.5803922,5.56601307 10.4640523,5.2 10.2313725,4.90196078 C9.99869281,4.60392157 9.69411765,4.37777778 9.31764706,4.22352941 C8.94117647,4.06928105 8.53071895,3.99215686 8.08627451,3.99215686 C7.41176471,3.99215686 6.86143791,4.12941176 6.43529412,4.40392157 C6.00915033,4.67843137 5.74117647,4.99607843 5.63137255,5.35686275 C5.61045752,5.41960784 5.59477124,5.48366013 5.58431373,5.54901961 C5.57385621,5.61437908 5.56862745,5.67843137 5.56862745,5.74117647 C5.56862745,5.91895425 5.62614379,6.05359477 5.74117647,6.14509804 C5.85620915,6.23660131 5.97908497,6.28235294 6.10980392,6.28235294 C6.32941176,6.28235294 6.47973856,6.23137255 6.56078431,6.12941176 C6.64183007,6.02745098 6.74771242,5.90065359 6.87843137,5.74901961 C7.00392157,5.53464052 7.1620915,5.36601307 7.35294118,5.24313725 C7.54379085,5.12026144 7.76993464,5.05882353 8.03137255,5.05882353 C8.39215686,5.05882353 8.67973856,5.15163399 8.89411765,5.3372549 C9.10849673,5.52287582 9.21568627,5.76470588 9.21568627,6.0627451 C9.21568627,6.32941176 9.13202614,6.54771242 8.96470588,6.71764706 C8.79738562,6.8875817 8.54117647,7.09281046 8.19607843,7.33333333 C7.91372549,7.52679739 7.67973856,7.74117647 7.49411765,7.97647059 C7.30849673,8.21176471 7.21568627,8.52287582 7.21568627,8.90980392 C7.21568627,8.9254902 7.21568627,8.94248366 7.21568627,8.96078431 C7.21568627,8.97908497 7.21568627,8.99607843 7.21568627,9.01176471 C7.21568627,9.4248366 7.4248366,9.63137255 7.84313725,9.63137255 Z"/></svg>