<svg xmlns="http://www.w3.org/2000/svg" viewBox="0 0 16 16"><path d="M8,9.34117647 C8.50196078,9.34640523 8.95686275,9.21960784 9.36470588,8.96078431 C9.77254902,8.70196078 10.0954248,8.34771242 10.3333333,7.89803922 C10.5712418,7.44836601 10.6901961,6.94379085 10.6901961,6.38431373 C10.6901961,5.85620915 10.5699346,5.37254902 10.3294118,4.93333333 C10.0888889,4.49411765 9.76601307,4.14248366 9.36078431,3.87843137 C8.95555556,3.61437908 8.50196078,3.48235294 8,3.48235294 C7.49803922,3.48235294 7.04313725,3.61437908 6.63529412,3.87843137 C6.22745098,4.14248366 5.90326797,4.49411765 5.6627451,4.93333333 C5.42222222,5.37254902 5.30457516,5.85620915 5.30980392,6.38431373 C5.31503268,6.94379085 5.43660131,7.44575163 5.6745098,7.89019608 C5.9124183,8.33464052 6.23398693,8.68627451 6.63921569,8.94509804 C7.04444444,9.20392157 7.49803922,9.33594771 8,9.34117647 Z M13.3647059,13.1764706 L13.3411765,13.0901961 C13.2104575,12.703268 12.9058824,12.324183 12.427451,11.9529412 C11.9490196,11.5816993 11.3320261,11.275817 10.5764706,11.0352941 C9.82091503,10.7947712 8.9620915,10.6745098 8,10.6745098 C7.04313725,10.6745098 6.1869281,10.7947712 5.43137255,11.0352941 C4.67581699,11.275817 4.05751634,11.5816993 3.57647059,11.9529412 C3.09542484,12.324183 2.78954248,12.7006536 2.65882353,13.0823529 L2.63529412,13.1764706 C3.10588235,13.6418301 3.6627451,14.0392157 4.30588235,14.3686275 C4.94901961,14.6980392 5.59869281,14.9503268 6.25490196,15.1254902 C6.91111111,15.3006536 7.49281046,15.3882353 8,15.3882353 C8.5124183,15.3882353 9.09542484,15.3006536 9.74901961,15.1254902 C10.4026144,14.9503268 11.0496732,14.6980392 11.6901961,14.3686275 C12.330719,14.0392157 12.8888889,13.6418301 13.3647059,13.1764706 Z M8,16 C9.09281046,16 10.1215686,15.7908497 11.0862745,15.372549 C12.0509804,14.9542484 12.9019608,14.3764706 13.6392157,13.6392157 C14.3764706,12.9019608 14.9542484,12.0509804 15.372549,11.0862745 C15.7908497,10.1215686 16,9.09281046 16,8 C16,6.90718954 15.7908497,5.87843137 15.372549,4.91372549 C14.9542484,3.94901961 14.3764706,3.09803922 13.6392157,2.36078431 C12.9019608,1.62352941 12.0496732,1.04575163 11.0823529,0.62745098 C10.1150327,0.209150327 9.08496732,0 7.99215686,0 C6.89934641,0 5.87058824,0.209150327 4.90588235,0.62745098 C3.94117647,1.04575163 3.09150327,1.62352941 2.35686275,2.36078431 C1.62222222,3.09803922 1.04575163,3.94901961 0.62745098,4.91372549 C0.209150327,5.87843137 0,6.90718954 0,8 C0,9.09281046 0.209150327,10.1215686 0.62745098,11.0862745 C1.04575163,12.0509804 1.62352941,12.9019608 2.36078431,13.6392157 C3.09803922,14.3764706 3.94901961,14.9542484 4.91372549,15.372549 C5.87843137,15.7908497 6.90718954,16 8,16 Z M8,14.6666667 C7.0745098,14.6666667 6.20915033,14.4941176 5.40392157,14.1490196 C4.59869281,13.8039216 3.89150327,13.3267974 3.28235294,12.7176471 C2.67320261,12.1084967 2.19738562,11.4013072 1.85490196,10.5960784 C1.5124183,9.79084967 1.34117647,8.9254902 1.34117647,8 C1.34117647,7.0745098 1.5124183,6.20915033 1.85490196,5.40392157 C2.19738562,4.59869281 2.67189542,3.89019608 3.27843137,3.27843137 C3.88496732,2.66666667 4.59084967,2.18954248 5.39607843,1.84705882 C6.20130719,1.50457516 7.06666667,1.33333333 7.99215686,1.33333333 C8.91764706,1.33333333 9.78300654,1.50457516 10.5882353,1.84705882 C11.3934641,2.18954248 12.1019608,2.66666667 12.7137255,3.27843137 C13.3254902,3.89019608 13.8039216,4.59869281 14.1490196,5.40392157 C14.4941176,6.20915033 14.6666667,7.0745098 14.6666667,8 C14.6666667,8.9254902 14.4954248,9.79084967 14.1529412,10.5960784 C13.8104575,11.4013072 13.3346405,12.1084967 12.7254902,12.7176471 C12.1163399,13.3267974 11.4078431,13.8039216 10.6,14.1490196 C9.79215686,14.4941176 8.9254902,14.6666667 8,14.6666667 Z"/></svg>