<svg xmlns="http://www.w3.org/2000/svg" viewBox="0 0 16 16"><path d="M8.00411734,16 C9.09658604,16 10.1259221,15.7900154 11.0921256,15.3700463 C12.058329,14.9500772 12.9092469,14.3722765 13.6448791,13.6366444 C14.3805112,12.9010122 14.9569394,12.0514668 15.3741637,11.0880082 C15.7913879,10.1245497 16,9.09384114 16,7.99588266 C16,6.90341396 15.7900154,5.87407789 15.3700463,4.90787442 C14.9500772,3.94167096 14.3722765,3.08938068 13.6366444,2.3510036 C12.9010122,1.61262652 12.0500944,1.03619832 11.0838909,0.621718991 C10.1176874,0.207239664 9.08835135,0 7.99588266,0 C6.90341396,0 5.87545033,0.207239664 4.91199177,0.621718991 C3.9485332,1.03619832 3.09761537,1.61262652 2.35923829,2.3510036 C1.62086121,3.08938068 1.04306056,3.94167096 0.625836336,4.90787442 C0.208612112,5.87407789 -1.50990331e-14,6.90341396 -1.50990331e-14,7.99588266 C-1.50990331e-14,9.09384114 0.20998456,10.1245497 0.62995368,11.0880082 C1.0499228,12.0514668 1.62772345,12.9010122 2.36335564,13.6366444 C3.09898782,14.3722765 3.9485332,14.9500772 4.91199177,15.3700463 C5.87545033,15.7900154 6.90615886,16 8.00411734,16 Z M8.00411734,14.5342254 C7.0983016,14.5342254 6.25012867,14.3654143 5.45959856,14.0277921 C4.66906845,13.6901698 3.97460971,13.222165 3.37622234,12.6237777 C2.77783496,12.0253903 2.31120261,11.3309315 1.97632527,10.5404014 C1.64144793,9.74987133 1.47400926,8.9016984 1.47400926,7.99588266 C1.47400926,7.09006691 1.64144793,6.24189398 1.97632527,5.45136387 C2.31120261,4.66083376 2.77783496,3.96637502 3.37622234,3.36798765 C3.97460971,2.76960027 4.667696,2.30296792 5.45548121,1.96809058 C6.24326643,1.63321324 7.09006691,1.46577458 7.99588266,1.46577458 C8.9016984,1.46577458 9.75124378,1.63321324 10.5445188,1.96809058 C11.3377938,2.30296792 12.033625,2.76960027 12.6320124,3.36798765 C13.2303997,3.96637502 13.6970321,4.66083376 14.0319094,5.45136387 C14.3667868,6.24189398 14.5342254,7.09006691 14.5342254,7.99588266 C14.5342254,8.9016984 14.3667868,9.74987133 14.0319094,10.5404014 C13.6970321,11.3309315 13.2303997,12.0253903 12.6320124,12.6237777 C12.033625,13.222165 11.3391662,13.6901698 10.5486361,14.0277921 C9.75810602,14.3654143 8.90993309,14.5342254 8.00411734,14.5342254 Z M7.99588266,6.13484303 C8.35820896,6.13484303 8.70269343,6.10464917 9.02933608,6.04426145 C9.35597873,5.98387373 9.63458569,5.89878195 9.86515697,5.7889861 C10.0024018,5.72859839 10.0971007,5.65448619 10.1492537,5.56664951 C10.2014068,5.47881283 10.2274833,5.37725167 10.2274833,5.26196603 C10.2274833,4.9929662 10.1533711,4.7418082 10.0051467,4.50849202 C9.85692229,4.27517584 9.64556528,4.08440556 9.37107566,3.93618116 L9.35460628,3.82089552 C9.33264711,3.67267113 9.40126951,3.57934466 9.56047349,3.54091611 L9.8486876,3.44209985 C9.99691199,3.4036713 10.076514,3.32269686 10.0874936,3.19917653 C10.0984732,3.0756562 10.0600446,2.9672328 9.97220793,2.87390633 C9.88437125,2.78057986 9.76634071,2.75862069 9.61811631,2.80802882 L9.28049408,2.94801853 C8.89620861,3.07977355 8.70681077,3.31308972 8.71230057,3.64796706 L8.72053525,3.6891405 C8.61073941,3.66169154 8.49545377,3.64110482 8.37467833,3.62738034 C8.2539029,3.61365586 8.12763767,3.60679362 7.99588266,3.60679362 C7.86412764,3.60679362 7.73923486,3.61365586 7.62120432,3.62738034 C7.50317379,3.64110482 7.38926059,3.66169154 7.27946475,3.6891405 L7.27946475,3.64796706 C7.28495454,3.31308972 7.0928118,3.07977355 6.70303654,2.94801853 L6.373649,2.80802882 C6.2254246,2.75862069 6.10876651,2.78057986 6.02367473,2.87390633 C5.93858295,2.9672328 5.90152685,3.0756562 5.91250643,3.19917653 C5.92348602,3.32269686 6.00034311,3.4036713 6.14307771,3.44209985 L6.43952651,3.54091611 C6.59324069,3.57934466 6.65637331,3.67267113 6.62892434,3.82089552 L6.61245497,3.93618116 C6.34345514,4.08440556 6.13621547,4.27517584 5.99073598,4.50849202 C5.84525648,4.7418082 5.77251673,4.9929662 5.77251673,5.26196603 C5.77251673,5.37725167 5.79722079,5.47881283 5.84662892,5.56664951 C5.89603706,5.65448619 5.98936353,5.72859839 6.12660834,5.7889861 C6.36266941,5.89878195 6.64402127,5.98387373 6.97066392,6.04426145 C7.29730657,6.10464917 7.63904615,6.13484303 7.99588266,6.13484303 Z M7.99588266,7.37004632 C8.1825356,7.37004632 8.27586207,7.4606279 8.27586207,7.64179104 L8.27586207,12.3685023 C8.27586207,12.4782982 8.31154572,12.5579002 8.38291302,12.6073083 C8.45428032,12.6567164 8.56407617,12.6759307 8.71230057,12.6649511 C9.14050437,12.6100532 9.53302453,12.4824155 9.88986104,12.2820381 C10.2466975,12.0816607 10.5541259,11.8305027 10.8121462,11.5285641 L11.372105,11.9979413 C11.4599417,12.0638188 11.5532681,12.09813 11.6520844,12.1008749 C11.7509007,12.1036198 11.8305027,12.0638188 11.8908904,11.981472 C11.9622577,11.8991251 11.9883342,11.8099159 11.9691199,11.7138446 C11.9499056,11.6177732 11.8991251,11.5367988 11.8167782,11.4709213 L11.1991765,10.9521359 C11.3419111,10.683136 11.4558243,10.3880597 11.5409161,10.0669068 C11.6260079,9.74575399 11.6712987,9.4095042 11.6767885,9.05815749 L12.3849717,9.05815749 C12.4947675,9.05815749 12.5839767,9.02521873 12.6525991,8.95934122 C12.7212215,8.89346372 12.7555327,8.81111683 12.7555327,8.71230057 C12.7555327,8.48172928 12.6347572,8.36644364 12.3932064,8.36644364 L11.635615,8.35820896 C11.5642477,7.77629096 11.4050437,7.26025047 11.1580031,6.81008749 L11.8167782,6.25836336 C11.9046149,6.19248585 11.9567679,6.11013896 11.9732373,6.0113227 C11.9897066,5.91250643 11.9650026,5.82192486 11.8991251,5.73957797 C11.8332476,5.65174129 11.7522731,5.61056785 11.6562017,5.61605764 C11.5601304,5.62154744 11.4654315,5.65997598 11.372105,5.73134328 L10.6968605,6.29130211 C10.5925545,6.20346543 10.5019729,6.15542975 10.4251158,6.14719506 C10.3482587,6.13896037 10.2768914,6.14582261 10.2110139,6.16778178 C9.89809573,6.31051638 9.55223881,6.42168468 9.17344313,6.50128667 C8.79464745,6.58088866 8.40212729,6.62068966 7.99588266,6.62068966 C7.59512781,6.62068966 7.2039801,6.58088866 6.82243953,6.50128667 C6.44089895,6.42168468 6.09641448,6.31051638 5.7889861,6.16778178 C5.72310859,6.14033282 5.65036885,6.13209813 5.57076686,6.14307771 C5.49116487,6.1540573 5.39921084,6.20346543 5.29490479,6.29130211 L4.61142563,5.73134328 C4.52907874,5.65997598 4.43986962,5.62291988 4.34379825,5.62017499 C4.24772688,5.61743009 4.16675244,5.65723109 4.10087494,5.73957797 C4.03499743,5.82192486 4.01029336,5.91250643 4.02676274,6.0113227 C4.04323212,6.11013896 4.09264025,6.19248585 4.17498713,6.25836336 L4.84199691,6.81008749 C4.59495625,7.26025047 4.43575227,7.77629096 4.36438497,8.35820896 L3.60679362,8.36644364 C3.36524275,8.36644364 3.24446732,8.48172928 3.24446732,8.71230057 C3.24446732,8.81111683 3.27740607,8.89346372 3.34328358,8.95934122 C3.40916109,9.02521873 3.49699777,9.05815749 3.60679362,9.05815749 L4.31497684,9.05815749 C4.32595642,9.4095042 4.37261966,9.74575399 4.45496655,10.0669068 C4.53731343,10.3880597 4.65259907,10.683136 4.80082347,10.9521359 L4.17498713,11.4709213 C4.09813004,11.5367988 4.05009436,11.6177732 4.03088008,11.7138446 C4.01166581,11.8099159 4.03499743,11.8991251 4.10087494,11.981472 C4.16675244,12.0638188 4.24909933,12.1036198 4.34791559,12.1008749 C4.44673186,12.09813 4.54005833,12.0638188 4.62789501,11.9979413 L5.17961915,11.5285641 C5.43763939,11.8305027 5.74506776,12.0816607 6.10190427,12.2820381 C6.45874078,12.4824155 6.85400583,12.6100532 7.28769943,12.6649511 C7.42494424,12.6759307 7.53062275,12.6567164 7.60473495,12.6073083 C7.67884714,12.5579002 7.71590324,12.4782982 7.71590324,12.3685023 L7.71590324,7.64179104 C7.71590324,7.4606279 7.80922971,7.37004632 7.99588266,7.37004632 Z M5.52547607,8.16057643 C5.52547607,7.99039286 5.58860868,7.84216847 5.71487391,7.71590324 C5.84113913,7.58963802 5.99210842,7.5265054 6.16778178,7.5265054 C6.33796535,7.5265054 6.48756219,7.58963802 6.61657231,7.71590324 C6.74558243,7.84216847 6.81008749,7.99039286 6.81008749,8.16057643 C6.81008749,8.33624979 6.74558243,8.48859153 6.61657231,8.61760165 C6.48756219,8.74661177 6.33796535,8.81111683 6.16778178,8.81111683 C5.99210842,8.81111683 5.84113913,8.74661177 5.71487391,8.61760165 C5.58860868,8.48859153 5.52547607,8.33624979 5.52547607,8.16057643 Z M5.55018013,10.3098302 C5.55018013,10.1121976 5.62017499,9.94201407 5.76016469,9.79927946 C5.9001544,9.65654486 6.06896552,9.58517756 6.26659804,9.58517756 C6.46423057,9.58517756 6.63578658,9.65654486 6.78126608,9.79927946 C6.92674558,9.94201407 6.99948533,10.1121976 6.99948533,10.3098302 C6.99948533,10.5074627 6.92674558,10.6776463 6.78126608,10.8203809 C6.63578658,10.9631155 6.46423057,11.0344828 6.26659804,11.0344828 C6.06896552,11.0344828 5.9001544,10.9631155 5.76016469,10.8203809 C5.62017499,10.6776463 5.55018013,10.5074627 5.55018013,10.3098302 Z M10.4745239,8.16057643 C10.4745239,8.33624979 10.4100189,8.48859153 10.2810087,8.61760165 C10.1519986,8.74661177 9.99965689,8.81111683 9.82398353,8.81111683 C9.64831017,8.81111683 9.49871333,8.74661177 9.375193,8.61760165 C9.25167267,8.48859153 9.18991251,8.33624979 9.18991251,8.16057643 C9.18991251,7.99039286 9.25167267,7.84216847 9.375193,7.71590324 C9.49871333,7.58963802 9.64831017,7.5265054 9.82398353,7.5265054 C9.99965689,7.5265054 10.1519986,7.58963802 10.2810087,7.71590324 C10.4100189,7.84216847 10.4745239,7.99039286 10.4745239,8.16057643 Z M10.4498199,10.3098302 C10.4498199,10.5074627 10.379825,10.6776463 10.2398353,10.8203809 C10.0998456,10.9631155 9.92828959,11.0344828 9.72516727,11.0344828 C9.52753474,11.0344828 9.35735118,10.9631155 9.21461657,10.8203809 C9.07188197,10.6776463 9.00051467,10.5074627 9.00051467,10.3098302 C9.00051467,10.1121976 9.07188197,9.94201407 9.21461657,9.79927946 C9.35735118,9.65654486 9.52753474,9.58517756 9.72516727,9.58517756 C9.92828959,9.58517756 10.0998456,9.65654486 10.2398353,9.79927946 C10.379825,9.94201407 10.4498199,10.1121976 10.4498199,10.3098302 Z"/></svg>