<svg xmlns="http://www.w3.org/2000/svg" viewBox="0 0 16 16"><path d="M0.0783833435,1.05817514 C0.0783833435,1.64605021 0.548683405,2.12614819 1.13655848,2.12614819 C8.22045315,2.12614819 13.8738518,7.77954685 13.8738518,14.8634415 C13.8738518,15.4513166 14.3539498,15.9216167 14.9418249,15.9216167 C15.5296999,15.9216167 16,15.4513166 16,14.8634415 C16,6.60379669 9.39620331,0 1.13655848,0 C0.548683405,0 0.0783833435,0.470300061 0.0783833435,1.05817514 Z M0.0783833435,5.39865279 C0.0783833435,5.97672994 0.548683405,6.45682792 1.13655848,6.45682792 C5.83955909,6.45682792 9.54317208,10.1604409 9.54317208,14.8634415 C9.54317208,15.4513166 10.0232701,15.9216167 10.6013472,15.9216167 C11.1892223,15.9216167 11.6693203,15.4513166 11.6693203,14.8634415 C11.6693203,8.99448867 7.00551133,4.33067973 1.13655848,4.33067973 C0.548683405,4.33067973 0.0783833435,4.81077771 0.0783833435,5.39865279 Z M0.0783833435,9.59216167 C0.0783833435,10.1800367 0.548683405,10.6601347 1.13655848,10.6601347 C3.44886712,10.6601347 5.33986528,12.5511329 5.33986528,14.8634415 C5.33986528,15.4513166 5.81996326,15.9216167 6.40783833,15.9216167 C6.99571341,15.9216167 7.47581139,15.4513166 7.47581139,14.8634415 C7.47581139,11.3655848 4.62461727,8.52418861 1.13655848,8.52418861 C0.548683405,8.52418861 0.0783833435,9.00428659 0.0783833435,9.59216167 Z M1.56766687,16 C2.42008573,16 3.11573791,15.2945499 3.11573791,14.451929 C3.11573791,13.5897122 2.42988365,12.89406 1.56766687,12.89406 C0.71524801,12.89406 0,13.6191059 0,14.4813227 C0,15.2945499 0.725045928,16 1.56766687,16 Z"/></svg>