<svg xmlns="http://www.w3.org/2000/svg" viewBox="0 0 16 16"><path d="M8,16 C9.09281046,16 10.1215686,15.7908497 11.0862745,15.372549 C12.0509804,14.9542484 12.9019608,14.3764706 13.6392157,13.6392157 C14.3764706,12.9019608 14.9542484,12.0509804 15.372549,11.0862745 C15.7908497,10.1215686 16,9.09281046 16,8 C16,6.90718954 15.7908497,5.87843137 15.372549,4.91372549 C14.9542484,3.94901961 14.3764706,3.09803922 13.6392157,2.36078431 C12.9019608,1.62352941 12.0496732,1.04575163 11.0823529,0.62745098 C10.1150327,0.209150327 9.08496732,0 7.99215686,0 C6.89934641,0 5.87058824,0.209150327 4.90588235,0.62745098 C3.94117647,1.04575163 3.09150327,1.62352941 2.35686275,2.36078431 C1.62222222,3.09803922 1.04575163,3.94901961 0.62745098,4.91372549 C0.209150327,5.87843137 0,6.90718954 0,8 C0,9.09281046 0.209150327,10.1215686 0.62745098,11.0862745 C1.04575163,12.0509804 1.62352941,12.9019608 2.36078431,13.6392157 C3.09803922,14.3764706 3.94901961,14.9542484 4.91372549,15.372549 C5.87843137,15.7908497 6.90718954,16 8,16 Z M8,14.6666667 C7.0745098,14.6666667 6.20915033,14.4941176 5.40392157,14.1490196 C4.59869281,13.8039216 3.89150327,13.3267974 3.28235294,12.7176471 C2.67320261,12.1084967 2.19738562,11.4013072 1.85490196,10.5960784 C1.5124183,9.79084967 1.34117647,8.9254902 1.34117647,8 C1.34117647,7.0745098 1.5124183,6.20915033 1.85490196,5.40392157 C2.19738562,4.59869281 2.67189542,3.89019608 3.27843137,3.27843137 C3.88496732,2.66666667 4.59084967,2.18954248 5.39607843,1.84705882 C6.20130719,1.50457516 7.06666667,1.33333333 7.99215686,1.33333333 C8.91764706,1.33333333 9.78300654,1.50457516 10.5882353,1.84705882 C11.3934641,2.18954248 12.1019608,2.66666667 12.7137255,3.27843137 C13.3254902,3.89019608 13.8039216,4.59869281 14.1490196,5.40392157 C14.4941176,6.20915033 14.6666667,7.0745098 14.6666667,8 C14.6666667,8.9254902 14.4954248,9.79084967 14.1529412,10.5960784 C13.8104575,11.4013072 13.3346405,12.1084967 12.7254902,12.7176471 C12.1163399,13.3267974 11.4078431,13.8039216 10.6,14.1490196 C9.79215686,14.4941176 8.9254902,14.6666667 8,14.6666667 Z M7.14509804,10.3686275 C7.74640523,10.3686275 8.29281046,10.220915 8.78431373,9.9254902 C9.27581699,9.63006536 9.66928105,9.23660131 9.96470588,8.74509804 C10.2601307,8.25359477 10.4078431,7.70718954 10.4078431,7.10588235 C10.4078431,6.50457516 10.2601307,5.95686275 9.96470588,5.4627451 C9.66928105,4.96862745 9.27581699,4.5751634 8.78431373,4.28235294 C8.29281046,3.98954248 7.74640523,3.84313725 7.14509804,3.84313725 C6.54901961,3.84313725 6.00392157,3.99084967 5.50980392,4.28627451 C5.01568627,4.58169935 4.62091503,4.97647059 4.3254902,5.47058824 C4.03006536,5.96470588 3.88235294,6.50980392 3.88235294,7.10588235 C3.88235294,7.70196078 4.03006536,8.24705882 4.3254902,8.74117647 C4.62091503,9.23529412 5.01568627,9.63006536 5.50980392,9.9254902 C6.00392157,10.220915 6.54901961,10.3686275 7.14509804,10.3686275 Z M7.14509804,9.30196078 C6.74771242,9.30196078 6.38169935,9.20130719 6.04705882,9 C5.7124183,8.79869281 5.44575163,8.53202614 5.24705882,8.2 C5.04836601,7.86797386 4.94901961,7.50326797 4.94901961,7.10588235 C4.94901961,6.70326797 5.04836601,6.33594771 5.24705882,6.00392157 C5.44575163,5.67189542 5.7124183,5.40653595 6.04705882,5.20784314 C6.38169935,5.00915033 6.74771242,4.90980392 7.14509804,4.90980392 C7.54771242,4.90980392 7.91503268,5.00915033 8.24705882,5.20784314 C8.57908497,5.40653595 8.84313725,5.67189542 9.03921569,6.00392157 C9.23529412,6.33594771 9.33333333,6.70326797 9.33333333,7.10588235 C9.33333333,7.50326797 9.23529412,7.86797386 9.03921569,8.2 C8.84313725,8.53202614 8.57908497,8.79869281 8.24705882,9 C7.91503268,9.20130719 7.54771242,9.30196078 7.14509804,9.30196078 Z M11.4431373,12.1019608 C11.6313725,12.1019608 11.7856209,12.0405229 11.9058824,11.9176471 C12.0261438,11.7947712 12.0862745,11.6339869 12.0862745,11.4352941 C12.0862745,11.3464052 12.0653595,11.2601307 12.0235294,11.1764706 C11.9816993,11.0928105 11.9294118,11.0196078 11.8666667,10.9568627 L9.38823529,8.4627451 L8.39215686,9.37254902 L10.8862745,11.8666667 C11.0379085,12.0235294 11.2235294,12.1019608 11.4431373,12.1019608 Z"/></svg>