<svg xmlns="http://www.w3.org/2000/svg" viewBox="0 0 16 16"><path d="M4.09636084,16 L11.9036392,16 C12.4339655,16 12.8289766,15.8646848 13.0886725,15.5940543 C13.3483684,15.3234239 13.4782163,14.9010764 13.4782163,14.3270118 L13.4782163,8.3075346 C13.4782163,7.7389373 13.3483684,7.31932342 13.0886725,7.04869298 C12.8289766,6.77806253 12.4339655,6.64274731 11.9036392,6.64274731 L4.26037929,6.65914915 C3.73552025,6.65914915 3.31453955,6.79309756 2.99743721,7.06099436 C2.68033487,7.32889117 2.5217837,7.74440458 2.5217837,8.3075346 L2.5217837,14.3270118 C2.5217837,14.9010764 2.65299846,15.3234239 2.91542799,15.5940543 C3.17785751,15.8646848 3.57150179,16 4.09636084,16 Z M3.82573039,7.19220912 L5.14607893,7.19220912 L5.14607893,4.41209636 C5.14607893,3.72321886 5.2772937,3.14505382 5.53972322,2.67760123 C5.80215274,2.21014864 6.15069195,1.85750897 6.58534085,1.61968221 C7.01998975,1.38185546 7.4915428,1.26294208 8,1.26294208 C8.51392448,1.26294208 8.98684435,1.38185546 9.41875961,1.61968221 C9.85067487,1.85750897 10.1978473,2.21014864 10.4602768,2.67760123 C10.7227063,3.14505382 10.8539211,3.72321886 10.8539211,4.41209636 L10.8539211,7.19220912 L12.1742696,7.19220912 L12.1742696,4.58431574 C12.1742696,3.81342901 12.0594567,3.14095336 11.8298309,2.56688877 C11.600205,1.99282419 11.28857,1.51580386 10.8949257,1.13582778 C10.5012814,0.7558517 10.0543311,0.47155305 9.55407483,0.28293183 C9.05381855,0.0943106099 8.53579361,0 8,0 C7.46420639,0 6.94754827,0.0943106099 6.45002563,0.28293183 C5.95250299,0.47155305 5.50691953,0.7558517 5.11327524,1.13582778 C4.71963096,1.51580386 4.40662908,1.99282419 4.17426961,2.56688877 C3.94191013,3.14095336 3.82573039,3.81342901 3.82573039,4.58431574 L3.82573039,7.19220912 Z"/></svg>