<svg xmlns="http://www.w3.org/2000/svg" width="16" height="16" viewBox="0 0 16 16"><path d="M3.63143631,2.19692864 L3.63143631,8.09394761 L3.93495935,8.05781391 C4.03613369,8.04817826 4.13730804,8.04336043 4.23848238,8.04336043 C4.33965673,8.04336043 4.44203553,8.04817826 4.54561879,8.05781391 L4.86720867,8.09394761 L4.86720867,2.25474255 C4.86720867,1.92713038 4.95272508,1.67539898 5.1237579,1.49954833 C5.29479073,1.32369768 5.55133996,1.23577236 5.8934056,1.23577236 L8.8635953,1.23577236 L8.8635953,5.08039747 C8.8635953,5.54290876 8.97801867,5.88738332 9.2068654,6.11382114 C9.43571213,6.34025896 9.77898223,6.45347787 10.2366757,6.45347787 L14.0234869,6.45347787 L14.0234869,12.4805781 C14.0234869,12.8130081 13.936766,13.0671484 13.7633243,13.2429991 C13.5898826,13.4188497 13.3321289,13.5067751 12.9900632,13.5067751 L8.56007227,13.5067751 C8.51671183,13.7235772 8.4540801,13.9355616 8.37217706,14.1427281 C8.29027401,14.3498946 8.19391749,14.5450166 8.0831075,14.7280939 L13.0767841,14.7280939 C13.799458,14.7280939 14.3426679,14.5450166 14.7064137,14.1788618 C15.0701596,13.812707 15.2520325,13.2658838 15.2520325,12.5383921 L15.2520325,6.33062331 C15.2520325,6.02710027 15.2351701,5.76934658 15.2014453,5.55736224 C15.1677206,5.3453779 15.1014755,5.15266486 15.00271,4.97922313 C14.9039446,4.80578139 14.7582054,4.62029509 14.5654923,4.42276423 L10.8943089,0.686540199 C10.6196929,0.407106293 10.3498946,0.22282445 10.0849142,0.13369467 C9.81993375,0.0445648901 9.48268594,0 9.07317073,0 L5.80668473,0 C5.08882867,0 4.54682325,0.184281843 4.18066847,0.552845528 C3.8145137,0.921409214 3.63143631,1.46943692 3.63143631,2.19692864 Z M9.96928636,4.95031617 L9.96928636,1.43089431 L13.828365,5.34056007 L10.366757,5.34056007 C10.22704,5.34056007 10.1258657,5.3092442 10.063234,5.24661247 C10.0006022,5.18398073 9.96928636,5.0852153 9.96928636,4.95031617 Z M4.24570912,9.00451671 C4.88166215,9.00451671 5.46582355,9.16230051 5.99819332,9.47786811 C6.53056308,9.79343571 6.95453177,10.2161999 7.27009937,10.7461608 C7.58566697,11.2761217 7.74345077,11.8614875 7.74345077,12.5022584 C7.74345077,12.9792231 7.65070762,13.4284854 7.46522132,13.8500452 C7.27973502,14.2716049 7.0255947,14.643782 6.70280036,14.9665763 C6.38000602,15.2893707 6.00782897,15.5423065 5.5862692,15.7253839 C5.16470942,15.9084613 4.71785607,16 4.24570912,16 C3.76874435,16 3.31827763,15.9096658 2.89430894,15.7289973 C2.47034026,15.5483288 2.0981632,15.2965974 1.77777778,14.9738031 C1.45739235,14.6510087 1.20566095,14.2776272 1.02258356,13.8536585 C0.839506173,13.4296899 0.74796748,12.9792231 0.74796748,12.5022584 C0.74796748,11.8614875 0.906955736,11.2761217 1.22493225,10.7461608 C1.54290876,10.2161999 1.96567299,9.79343571 2.49322493,9.47786811 C3.02077687,9.16230051 3.60493827,9.00451671 4.24570912,9.00451671 Z M4.2601626,10.2836495 C4.12526347,10.2836495 4.00963565,10.3294188 3.91327913,10.4209575 C3.81692261,10.5124962 3.76874435,10.6233062 3.76874435,10.7533875 L3.76874435,12.5094851 L3.81210479,13.3405601 L3.39295393,12.9214092 L2.77868112,12.2782294 C2.67268895,12.1722373 2.55947004,12.1216501 2.43902439,12.1264679 C2.30894309,12.1264679 2.20054201,12.1686239 2.11382114,12.2529359 C2.02710027,12.3372478 1.98614875,12.4420355 1.99096658,12.567299 C2.00060223,12.7021981 2.05359831,12.8130081 2.14995483,12.899729 L3.89882565,14.532972 C4.0192713,14.6485998 4.13971695,14.7064137 4.2601626,14.7064137 C4.36615477,14.7064137 4.4817826,14.6485998 4.60704607,14.532972 L6.36314363,12.899729 C6.46431798,12.8081903 6.51490515,12.6973803 6.51490515,12.567299 C6.51490515,12.4420355 6.47274917,12.3360434 6.38843722,12.2493225 C6.30412526,12.1626016 6.19933755,12.1216501 6.07407407,12.1264679 C5.94399277,12.1361036 5.83318278,12.1866908 5.74164408,12.2782294 L5.1129178,12.9214092 L4.70822042,13.3405601 L4.74435411,12.5094851 L4.74435411,10.7533875 C4.74435411,10.6233062 4.69738031,10.5124962 4.6034327,10.4209575 C4.50948509,10.3294188 4.39506173,10.2836495 4.2601626,10.2836495 Z M9.09472656,7.78798828 L9.09472656,7.02626953 L6.81933594,8.23720703 L6.81933594,8.82802734 L9.09472656,10.0365234 L9.09472656,9.27724609 L7.53710937,8.55703125 L7.53710937,8.50820312 L9.09472656,7.78798828 Z M11.4677734,8.50820312 L11.4677734,8.55703125 L9.91015625,9.27724609 L9.91015625,10.0365234 L12.1855469,8.82802734 L12.1855469,8.23720703 L9.91015625,7.02626953 L9.91015625,7.78798828 L11.4677734,8.50820312 Z"/></svg>