<?xml version="1.0" encoding="UTF-8" standalone="no"?>
<svg
   xmlns:dc="http://purl.org/dc/elements/1.1/"
   xmlns:cc="http://creativecommons.org/ns#"
   xmlns:rdf="http://www.w3.org/1999/02/22-rdf-syntax-ns#"
   xmlns:svg="http://www.w3.org/2000/svg"
   xmlns="http://www.w3.org/2000/svg"
   xmlns:sodipodi="http://sodipodi.sourceforge.net/DTD/sodipodi-0.dtd"
   xmlns:inkscape="http://www.inkscape.org/namespaces/inkscape"
   width="800px"
   height="600px"
   viewBox="0 0 800 600"
   version="1.1"
   id="svg2"
   sodipodi:version="0.32"
   inkscape:version="0.46"
   sodipodi:docname="sf1.svg"
   inkscape:output_extension="org.inkscape.output.svg.inkscape">
  <metadata
     id="metadata90">
    <rdf:RDF>
      <cc:Work
         rdf:about="">
        <dc:format>image/svg+xml</dc:format>
        <dc:type
           rdf:resource="http://purl.org/dc/dcmitype/StillImage" />
      </cc:Work>
    </rdf:RDF>
  </metadata>
  <defs
     id="defs88">
    <inkscape:perspective
       sodipodi:type="inkscape:persp3d"
       inkscape:vp_x="0 : 300 : 1"
       inkscape:vp_y="0 : 1000 : 0"
       inkscape:vp_z="800 : 300 : 1"
       inkscape:persp3d-origin="400 : 200 : 1"
       id="perspective92" />
  </defs>
  <sodipodi:namedview
     inkscape:window-height="824"
     inkscape:window-width="1140"
     inkscape:pageshadow="2"
     inkscape:pageopacity="0.0"
     guidetolerance="10.0"
     gridtolerance="10.0"
     objecttolerance="10.0"
     borderopacity="1.0"
     bordercolor="#666666"
     pagecolor="#ffffff"
     id="base"
     showgrid="false"
     inkscape:zoom="1.3575"
     inkscape:cx="416.51043"
     inkscape:cy="321.83047"
     inkscape:window-x="20"
     inkscape:window-y="20"
     inkscape:current-layer="g4" />
  <g
     transform="matrix(1,0,0,-1,0,600)"
     id="g4">
     <animateMotion values="0,0; 3,30; 0,0" dur="15" calcMode="spline" keySplines="0.5,0,0.5,1;0.5,0,0.5,1" repeatCount="indefinite"/>
    <g
       id="bubble1">
      <path
         transform="translate(99.600098,381.100098)"
         d="M -12.1,-0.2 C -15.7,-4.7 -17.6,-9.5 -17.6,-14.5 L -15.1,-24.1 C -11.8,-29.200001 -6.8,-31.9 -0.1,-32.299999 C 6.5,-32.700001 11.2,-30.9 13.8,-27.1 C 16.300001,-23.200001 17.6,-17.700001 17.6,-10.5 C 17.6,-2.5 15.8,3 12,6.2 C 8.900001,9 4.9,9.7 0,8.2 C -4.7,6.8 -8.7,4 -12.1,-0.2"
         id="path7" />
      <path
         transform="translate(110.800003,370)"
         d="M 0,0 C 0,11.6 -3.7,15.3 -11.2,11.1 C -14,9.6 -16.5,7.4 -18.9,4.4 C -21.200001,1.4 -22.5,-1.1 -22.6,-3.4 C -22.9,-5.6 -21.700001,-8.6 -19.200001,-12.1 C -16.700001,-15.6 -12.6,-16.200001 -6.6,-14.1 C -4.5,-13.2 -2.9,-10.900001 -1.6,-7.2 C -0.6,-3.8 0,-1.4 0,0"
         id="path9"
         fill="white" >
        </path>
      <animateTransform attributeName="transform" begin="0" type="translate" from="0,0" to="-30,300" dur="7s" repeatCount="indefinite"/>
    </g>
    <g
       id="bubble2">
      <path
         transform="translate(122.100098,437.600098)"
         d="M 33.700001,-29 C 36.100002,-24 37.200001,-16.800001 37.200001,-7.2 C 37.200001,0.5 34.600002,6.3 29.300001,10.3 C 24.6,13.8 18.800001,15.2 11.900001,14.400001 C 5,13.6 -0.9,11 -5.6,6.3 C -10.900001,1.2 -13.5,-5.3 -13.5,-13 C -13.5,-16.1 -11.8,-21.5 -8.3,-29.4 C -4.1,-38.900002 0.3,-43.700001 4.9,-43.700001 C 19.300001,-43.700001 28.9,-38.700001 33.700001,-29"
         id="path12" />
      <path
         transform="translate(134.5,442.899902)"
         d="M 0,0 C -4.7,-0.2 -8.900001,-2 -12.400001,-5.3 C -16.1,-8.900001 -18,-13.1 -18,-18.1 C -18,-20.800001 -16.6,-24.800001 -14,-30.1 C -10.8,-36.5 -7.6,-39.799999 -4.4,-39.799999 C 4.6,-39.799999 11,-37.100002 14.8,-31.800001 C 17,-28.800001 18,-25.6 18,-22.1 C 18,-14.400001 16.200001,-8.6 12.5,-4.7 C 9.2,-1.2 5,0.4 0,0"
         id="path14"
         fill="white" />
      <animateTransform attributeName="transform" begin="0" type="translate" from="-50,-50" to="0,300" dur="6s" repeatCount="indefinite"/>te"/>
    </g>
    <g
       id="bubble3">
      <path
         transform="translate(92.200005,465.600098)"
         d="M 11,5.7 C 8.7,7.8 5.7,8.5 2,7.8 C -1.4,7.2 -4.4,5.8 -7,3.5 C -9.8,1.2 -11.2,-1.2 -11.2,-3.4 C -11.2,-6.2 -10.6,-9 -9.6,-11.900001 C -7.7,-16.700001 -4.7,-19 -0.4,-19 C 3.4,-19 6.8,-17.800001 10,-15.5 C 13.400001,-13 15.2,-9.900001 15.2,-6.4 C 15.2,-0.7 13.8,3.3 11,5.7"
         id="path17" />
      <path
         transform="translate(97.200005,466.200195)"
         d="M 0,0 C -0.1,0.6 -1.8,0.4 -5,-0.6 C -8.7,-1.6 -10.6,-2.8 -10.6,-4 C -10.6,-6.3 -9.7,-8.3 -7.8,-10.1 C -6.1,-11.6 -4.5,-12.400001 -3,-12.400001 C -0.4,-12.400001 1.6,-11.6 3,-10.1 C 4.1,-9 4.6,-7.7 4.6,-6.4 C 4.6,-5.1 4.4,-3.8 3.8,-2.6 C 3.2,-1.6 2,-0.6 0,0"
         id="path19"
         fill="white" />
         <animateTransform attributeName="transform" begin="0" type="translate" from="0,-100" to="10,300" dur="8s" repeatCount="indefinite"/>
    </g>
    <path
       id="outline"
       d="M 19.300001,-15.3 C 19.300001,-3 13.900001,4.5 3.1,7.3 C -11.400001,11 -35.200001,6.2 -68.200005,-7.1 C -74,-9.3 -87.400002,-17.5 -108.400002,-31.300001 C -126.700005,-43.5 -138.400009,-49.5 -143.699997,-49.5 L -162.600006,-49.5 C -164.400009,-49.799999 -165.699997,-50.5 -166.199997,-52 C -167.699997,-51.799999 -169.300003,-51.799999 -170.900009,-51.799999 C -170.199997,-50.600002 -169.400009,-49.400002 -168.600006,-48.299999 C -165.900009,-44 -164.600006,-41.100002 -164.600006,-39.700001 C -164.600006,-32.100002 -168.699997,-27.300001 -176.900009,-25.300001 C -184.400009,-23.5 -193.400009,-24.1 -204,-27.5 C -214.699997,-30.800001 -223.800003,-35.900002 -231.100006,-42.700001 C -233.699997,-45.100002 -236,-47.799999 -237.800003,-50.400002 C -243.900009,-47.5 -255,-44.100002 -271.5,-40 C -264.399994,-32.600002 -259.899994,-27.5 -257.899994,-24.800001 C -253.300003,-18.5 -251,-11.8 -251,-4.9 C -251,3.7 -253.699997,9.5 -259.200012,12.2 C -264.100006,14.7 -270,14.3 -277,11 C -284.100006,7.8 -290,2.6 -294.899994,-4.5 C -300.300018,-12.5 -303,-21.300001 -303,-30.9 L -303,-32.700001 C -310.600006,-31 -318.100006,-29.4 -325.800018,-27.9 C -326.600006,-27.6 -327.399994,-27.300001 -328.200012,-27.1 C -328.200012,-23.700001 -329.200012,-20.5 -331.399994,-17.9 C -333.700012,-14.8 -336.5,-13.8 -339.800018,-15.1 C -339.800018,-18.9 -339.399994,-22.5 -338.399994,-25.800001 C -338.200012,-26.1 -338.100006,-26.5 -338,-26.9 L -338.200012,-26.9 C -350.5,-9.5 -356.600006,-6.1 -356.600006,-16.9 C -356.600006,-18.700001 -354.600006,-22.1 -350.700012,-27.1 C -349.600006,-28.5 -348.600006,-29.6 -347.600006,-30.700001 C -352.5,-33.5 -356.200012,-37.400002 -359,-42.299999 C -360,-44.100002 -363.100006,-47 -368,-50.900002 C -370.800018,-53 -372.600006,-55 -373.600006,-56.799999 C -381.700012,-53.5 -391.5,-53 -402.800018,-55.600002 C -415.800018,-58.5 -427.200012,-64.400002 -436.800018,-73.200005 C -447,-82.700005 -452.200012,-93 -452.200012,-103.900002 C -452.200012,-104 -451.399994,-106.300003 -449.800018,-110.700005 C -449.700012,-111.099998 -449.5,-111.5 -449.300018,-111.900002 C -459.300018,-116.800003 -468.600006,-124.700005 -477.300018,-135.5 C -483.800018,-143.699997 -487.600006,-150.800003 -488.600006,-157.100006 C -489,-156.900009 -489.399994,-156.800003 -489.899994,-156.699997 C -494,-155.400009 -496.899994,-154.800003 -498.300018,-155 C -498.399994,-155.199997 -498.399994,-155.400009 -498.5,-155.600006 L -498.5,-156.699997 C -498.5,-157.199997 -496.700012,-158.600006 -493.200012,-160.699997 C -491.899994,-161.5 -490.700012,-162.100006 -489.600006,-162.699997 L -489.899994,-162.699997 C -492.800018,-164.199997 -494.700012,-165.600006 -495.399994,-167 C -495.100006,-167.300003 -494.600006,-167.699997 -493.700012,-168.100006 C -492.600006,-168.600006 -491.600006,-168.699997 -490.700012,-168.699997 C -489.899994,-168.699997 -488.700012,-168.400009 -487.399994,-167.699997 C -487.399994,-181.300003 -487.600006,-202.100006 -487.800018,-230.100006 C -487.800018,-234.5 -485.399994,-240.199997 -480.800018,-247.400009 C -474.5,-257.100006 -465.5,-265.899994 -453.800018,-273.899994 C -447.300018,-278.399994 -440.100006,-282.399994 -432.300018,-286.100006 C -433.700012,-287.700012 -434.399994,-289 -434.399994,-290.100006 C -434.399994,-290.600006 -434.300018,-291.100006 -434,-291.600006 C -433.5,-292.399994 -432.600006,-292.899994 -431.300018,-292.899994 C -430.600006,-292.899994 -429,-291.5 -426.300018,-288.700012 C -416,-293.100006 -404.600006,-296.800018 -392.300018,-299.700012 C -392.5,-300.300018 -392.800018,-300.899994 -393,-301.399994 C -393.800018,-303.399994 -394.300018,-305 -394.300018,-305.899994 C -394.300018,-307.300018 -394.300018,-308 -394.100006,-308.100006 C -393.700012,-308.399994 -393.300018,-308.600006 -393,-308.899994 C -392.800018,-309 -392.200012,-309.100006 -391.399994,-309.100006 C -389.600006,-309.100006 -388.300018,-307.600006 -387.200012,-304.399994 C -386.800018,-303.300018 -386.5,-302.100006 -386.300018,-301.100006 C -385.300018,-301.300018 -384.300018,-301.5 -383.300018,-301.700012 C -383.300018,-302.300018 -382.800018,-303.800018 -381.899994,-306.300018 C -380.899994,-309.200012 -380,-310.800018 -379.200012,-311.100006 C -377.600006,-311 -376.800018,-309.899994 -376.800018,-307.899994 C -376.800018,-306 -377,-304.399994 -377.200012,-302.899994 C -355.800018,-306.800018 -331.700012,-308.700012 -305,-308.700012 C -300.600006,-308.700012 -294.600006,-308.100006 -286.800018,-307 C -286.300018,-308.5 -285.700012,-310.300018 -285,-312.5 C -282.200012,-320.100006 -279.100006,-327.100006 -275.700012,-333.5 C -265.200012,-353.700012 -254.199997,-363.899994 -242.600006,-363.899994 C -242.5,-363.899994 -239.800003,-362.399994 -234.600006,-359.399994 C -233,-359.899994 -231.400009,-360.300018 -229.5,-360.300018 C -226.5,-360.300018 -224.199997,-358.600006 -222.699997,-355.300018 C -222.100006,-354.200012 -221.699997,-353.100006 -221.400009,-351.899994 C -211.400009,-351.899994 -205.699997,-351.5 -204.600006,-350.700012 C -203.900009,-350.200012 -203.600006,-349.300018 -203.600006,-347.800018 C -203.699997,-345.800018 -203.800003,-343.899994 -203.800003,-342.300018 C -204.900009,-336.800018 -206.199997,-331.399994 -207.800003,-326.100006 C -209.199997,-321.5 -210.600006,-317.899994 -211.900009,-315.399994 C -209.5,-315.200012 -207.400009,-315 -205.699997,-314.800018 C -203.5,-326 -201.600006,-333.200012 -199.900009,-336.300018 C -198.199997,-339.5 -192.600006,-344.399994 -183,-351.100006 C -174.199997,-354.399994 -168.400009,-355.600006 -165.400009,-354.700012 C -162.600006,-353.700012 -160.699997,-352.800018 -159.800003,-352 C -158.900009,-351.100006 -157.199997,-350.899994 -154.600006,-351.5 C -145.600006,-356.300018 -138,-357.899994 -131.900009,-356.300018 C -128.699997,-353.200012 -127,-350.5 -126.900002,-348 C -126.800003,-345.5 -125.400002,-344.300018 -122.900002,-344.200012 C -120.300003,-344.100006 -118,-343.700012 -116,-343 C -112.900002,-339.899994 -111.400002,-335.899994 -111.599998,-331 C -111.700005,-326.200012 -112.599998,-321.300018 -113.900002,-316.300018 C -98.200005,-315.399994 -78.400002,-308.300018 -54.400002,-295.100006 C -54,-294.800018 -53.5,-294.5 -53,-294.200012 C -52.600002,-294 -52,-293.700012 -51.600002,-293.399994 C -42.700001,-288.399994 -34.100002,-283 -25.700001,-277.200012 C -19,-272.600006 -15.2,-269.700012 -14.2,-268.700012 C -10.7,-269.700012 3.3,-276.399994 28,-288.700012 C 53,-300.399994 69.700005,-306.300018 78.200005,-306.300018 C 80.700005,-306.300018 82.599998,-305.899994 83.700005,-305.100006 C 85.099998,-304.200012 85.700005,-302.600006 85.700005,-300.300018 C 81.5,-289.200012 77.200005,-277.600006 73,-265.200012 C 64.400002,-240.600006 60.200001,-223.699997 60.200001,-214.5 C 60.200001,-207.800003 65.700005,-192.600006 76.900002,-168.699997 C 88.800003,-144.5 95.5,-130.300003 97,-126.300003 C 99.700005,-118.5 107.700005,-101.5 120.700005,-75.300003 C 132.600006,-51.400002 138.600006,-38.799999 138.600006,-37.5 C 138.600006,-29.5 133.199997,-26.5 122.5,-28.300001 C 114.200005,-29.800001 102.300003,-34.299999 86.599998,-41.900002 C 82,-44.100002 76.5,-47.700001 70,-52.5 C 63.200001,-58 58.700001,-61.5 56.600002,-63.100002 C 48.799999,-69 41.700001,-76.900002 35.299999,-86.700005 C 29,-97.800003 24.200001,-105.800003 21,-110.700005 C 18,-104.5 11,-96 0,-85.099998 C -9.6,-75.700005 -17.9,-69.5 -25,-66.800003 C -18.9,-61.700001 -10.900001,-53.700001 -1.4,-42.900002 C 12.400001,-27.300001 19.300001,-18.1 19.300001,-15.3"
       transform="translate(591.799805,464.899902)" />
    <g
       id="body">
      <defs
         id="defs23">
        <linearGradient
           id="gradient-body"
           gradientUnits="userSpaceOnUse"
           x1="220"
           y1="0"
           x2="710"
           y2="0">
          <stop
             offset="0"
             stop-color="#7b4524"
             id="stop26" />
          <stop
             offset="1"
             stop-color="#6385b5"
             id="stop28" />
        </linearGradient>
      </defs>
      <path
         id="ear-right"
         d="M 301.200012,448.899994 C 300.299011,445.899994 299.700012,443 299.201019,440 L 299.201019,440 C 299.100006,438.899994 298.899994,437.800018 298.800018,436.600006 L 298.800018,436.600006 C 299.201019,437.701019 299.600006,438.799011 300,439.899994 L 300,439.899994 C 303.899994,449.399994 308.399994,454.399994 313.600006,454.600006 L 313.600006,454.600006 C 313.600006,454.399994 313.799011,454.100006 314.200012,453.600006 L 314.200012,453.600006 C 314.600006,453 314.800018,451.899994 314.800018,450.399994 L 314.800018,450.399994 C 311.800018,440.800018 308.800018,433.399994 306.100006,428.399994 L 306.100006,428.399994 C 307.899994,427.899994 309.299011,427.600006 310.200012,427.399994 L 310.200012,427.399994 C 313,429.600006 315.600006,432.200012 317.899994,435.100006 L 317.899994,435.100006 C 320.200012,438 321.701019,439.899994 322.399994,440.600006 L 322.399994,440.600006 C 328.800018,447.899994 332,454.300018 332,459.800018 L 332,459.800018 C 332,462.800018 331.799011,464.800018 331.200012,465.701019 L 331.200012,465.701019 C 329.899994,467.899994 327,469 322.600006,469 L 322.600006,469 C 312.200012,469 305.100006,462.299011 301.200012,448.899994"
         fill="url(#gradient-body)" />
      <path
         id="paw-right"
         d="M 330.300018,130.400009 C 335.299011,122.099998 339.399994,116.700005 342.399994,113.800003 L 342.399994,113.800003 C 342.399994,114.799004 342.100006,116.700005 341.600006,119.299004 L 341.600006,119.299004 C 341.100006,121.900002 340.799011,124 340.799011,125.400002 L 340.799011,125.400002 C 340.799011,127.099998 340.799011,128.100006 340.899994,128.400009 L 340.899994,128.400009 C 340.899994,128.800003 341.100006,129.400009 341.200012,130.199997 L 341.200012,130.199997 L 342.399994,131.100006 C 343.201019,131.899002 344.399994,132.199997 346,132.199997 L 346,132.199997 C 348.600006,132.199997 350.899994,130.100006 353.201019,125.800003 L 353.201019,125.800003 C 356.100006,120.599998 357.799011,117.900002 358.399994,117.400002 L 358.399994,117.400002 C 358.399994,120.900002 358.600006,124.200005 358.799011,127.400002 L 358.799011,127.400002 C 358.899994,127.400002 359.399994,127.599998 360.100006,128.201004 L 360.100006,128.201004 C 360.899994,128.800003 362.100006,129 363.600006,129 L 363.600006,129 C 365.200012,129 367.200012,128.100006 369.600006,126.5 L 369.600006,126.5 C 372.600006,124.400002 375.100006,122.900002 377.200012,122.200005 L 377.200012,122.200005 C 377.200012,121.900002 377.300018,121.700005 377.399994,121.700005 L 377.399994,121.700005 C 377.600006,121.700005 377.600006,122.599998 377.600006,124.200005 L 377.600006,124.200005 C 377.600006,124.601006 374.899994,132.799011 369.600006,148.800003 L 369.600006,148.800003 L 369.600006,149.400009 C 346.399994,149.5 329.200012,150.799011 317.899994,153.100006 L 317.899994,153.100006 C 317.800018,153.199997 317.700012,153.199997 317.600006,153.199997 L 317.600006,153.199997 L 316.800018,153.400009 C 320,147.900009 324.5,140.199997 330.300018,130.400009"
         fill="url(#gradient-body)" />
      <path
         id="back"
         d="M 549.5,458.399994 C 537.400024,454.100006 523.700012,447.200012 508.300018,437.800018 L 508.300018,437.800018 C 492.100006,427.200012 480.5,420 473.800018,415.899994 L 473.800018,415.899994 C 462.299011,409.200012 453.600006,405.800018 447.600006,405.800018 L 447.600006,405.800018 C 444.299011,405.800018 440.899994,405.899994 437.399994,406.201019 L 437.399994,406.201019 C 435.600006,405 433.201019,404.100006 430.300018,403.399994 L 430.300018,403.399994 C 427.899994,402.899994 425.899994,402.600006 424.399994,402.600006 L 424.399994,402.600006 C 419.399994,402.600006 415.600006,402.899994 412.899994,403.399994 L 412.899994,403.399994 C 412.700012,403.300018 412.600006,403.100006 412.399994,403 L 412.399994,403 C 400.600006,390.800018 388.899994,384.600006 377.200012,384.600006 L 377.200012,384.600006 C 373.800018,384.799011 371.899994,385.799011 371.600006,387.700012 L 371.600006,387.700012 L 371.600006,389 C 371.600006,390 374,391.899994 378.899994,394.600006 L 378.899994,394.600006 C 381.800018,396.399994 387.100006,399.399994 395,403.600006 L 395,403.600006 C 410.600006,412.600006 418.399994,419.600006 418.399994,425 L 418.399994,425 C 418.399994,426.800018 417.800018,428.200012 416.399994,429.300018 L 416.399994,429.300018 C 415.201019,430.100006 413.899994,430.600006 412.399994,430.600006 L 412.399994,430.600006 C 391.800018,430.600006 377.899994,427.700012 370.899994,421.899994 L 370.899994,421.899994 C 368.600006,420.100006 366.899994,417.899994 366.100006,415.399994 L 366.100006,415.399994 C 365.600006,414.100006 363.5,409.600006 359.800018,401.701019 L 359.800018,401.701019 C 359.700012,401.600006 359.600006,401.399994 359.600006,401.100006 L 359.600006,401.100006 C 357.100006,396.800018 355.100006,394.200012 353.5,393.600006 L 353.5,393.600006 C 351.399994,392.899994 350.100006,392.800018 349.5,393.399994 L 349.5,393.399994 C 348.799011,394.200012 348.399994,395.600006 348.399994,397.399994 L 348.399994,397.399994 C 348.399994,400.899994 349,404.200012 350.200012,407.399994 L 350.200012,407.399994 C 342.700012,408.100006 328.100006,411.399994 306.200012,417.399994 L 306.200012,417.399994 C 282.200012,424.100006 266.200012,427.399994 258.399994,427.399994 L 258.399994,427.399994 C 253.201019,427.399994 246.199997,423.800018 237.400009,416.5 L 237.400009,416.5 C 236.800003,415.899994 233.699997,413.200012 228.100006,408.200012 L 228.100006,408.200012 C 226.5,406.899994 225.199997,405.899994 224.199997,405 L 224.199997,405 C 233.699997,398.600006 238.400009,387.800018 238.400009,372.600006 L 238.400009,372.600006 C 238.400009,369.899994 237.600006,366.100006 236.100006,361.100006 L 236.100006,361.100006 C 234,354.299011 231.199997,348.200012 227.600006,342.600006 L 227.600006,342.600006 C 226.201004,340.300018 224.600006,338.200012 223,336.299011 L 223,336.299011 C 226.100006,334.800018 229.199997,333.399994 232.600006,332.399994 L 232.600006,332.399994 C 234.100006,331.899994 235.400009,331.5 236.800003,331.100006 L 236.800003,331.100006 C 238.600006,338 242.5,344.5 248.600006,350.600006 L 248.600006,350.600006 C 256.399994,358.600006 265.800018,364 277,367.100006 L 277,367.100006 C 288.200012,370.100006 297.800018,369.800018 305.399994,365.899994 L 305.399994,365.899994 C 314.100006,361.600006 318.399994,353.700012 318.399994,342 L 318.399994,342 C 318.399994,336.299011 317,330.701019 314.200012,325.100006 L 314.200012,325.100006 C 318.200012,325.100006 322.399994,324.899994 326.700012,324.700012 L 326.700012,324.700012 C 327.800018,324.600006 328.899994,324.399994 330.100006,324 L 330.100006,324 C 340.399994,320.600006 348.100006,315.800018 352.899994,309.800018 L 352.899994,309.800018 C 353.600006,309 354.399994,308.201019 355.200012,307.399994 L 355.200012,307.399994 C 356,306.600006 356.800018,305.800018 357.5,304.899994 L 357.5,304.899994 C 363.800018,297.800018 366.5,288.700012 365.600006,277.399994 L 365.600006,277.399994 C 365.399994,274.200012 365,271 364.600006,267.799011 L 364.600006,267.799011 C 364.399994,266.800018 364.200012,265.700012 363.800018,264.5 L 363.800018,264.5 C 360.100006,254.699997 354.899994,246.100006 348,238.699997 L 348,238.699997 C 347.200012,237.800003 346.600006,236.800003 346,235.800003 L 346,235.800003 C 342.100006,228 339.100006,220 337,211.600006 L 337,211.600006 C 336,207.600006 336.800018,204.900009 339.399994,203.5 L 339.399994,203.5 C 340.100006,203.199997 340.600006,202.699997 340.899994,202 L 340.899994,202 C 344.299011,195.199997 349.600006,190.201004 356.899994,187 L 356.899994,187 C 358.100006,186.5 359.399994,185.800003 360.700012,185.199997 L 360.700012,185.199997 C 364.200012,183.400009 367.899994,182 371.5,181 L 371.5,181 C 375.399994,180 379.201019,179 383.100006,178 L 383.100006,178 C 384,195.799011 384.701019,209.800003 385.200012,219.800003 L 385.200012,219.800003 L 386,220.300003 C 386.600006,220.800003 387.600006,221 389.201019,221 L 389.201019,221 C 392.800018,221 394.399994,212.800003 394,196.5 L 394,196.5 C 393.899994,189.699997 393.399994,182.800003 392.800018,175.699997 L 392.800018,175.699997 C 392.600006,174.299011 392.600006,173 392.399994,171.600006 L 392.399994,171.600006 C 392.399994,169.199997 393.200012,163.201004 394.899994,153.699997 L 394.899994,153.699997 C 396.100006,146.900009 397.100006,141.900009 398,138.5 L 398,138.5 C 399.399994,136.900009 401.100006,134.699997 403,132.100006 L 403,132.100006 C 403.600006,131.701004 406,129.199997 410.399994,124.799004 L 410.399994,124.799004 C 415.300018,120.5 419.899994,118.400002 424.201019,118.300003 L 424.201019,118.300003 C 428.600006,118.201004 430.799011,119.201004 430.899994,121.200005 L 430.899994,121.200005 C 430.899994,123.200005 430.899994,124.5 430.600006,125.099998 L 430.600006,125.099998 C 430.399994,125.400002 430.200012,125.900002 430,126.200005 L 430,126.200005 C 427.399994,131.100006 426,134 426,134.600006 L 426,134.600006 C 426,138 427.899994,139.800003 431.600006,139.800003 L 431.600006,139.800003 C 436.100006,139.800003 439.100006,136.5 440.600006,129.699997 L 440.600006,129.699997 C 442.201019,123 445.100006,119.201004 449.5,118.201004 L 449.5,118.201004 C 451,117.800003 452.299011,117.5 453.399994,117.5 L 453.399994,117.5 C 455.399994,117.900002 456.399994,118.900002 456.399994,120.599998 L 456.399994,120.599998 C 456.399994,121.800003 455,124.400002 452.399994,128.400009 L 452.399994,128.400009 C 449.700012,132.400009 448.399994,135 448.399994,136.201004 L 448.399994,136.201004 L 448.399994,138.600006 C 448.600006,138.900009 448.600006,139.300003 448.799011,139.800003 L 448.799011,139.800003 L 449.800018,140.600006 C 450.399994,141.100006 451.600006,141.400009 453.100006,141.400009 L 453.100006,141.400009 C 455.399994,141.400009 457.899994,139.100006 460.5,134.5 L 460.5,134.5 C 463.100006,129.900009 466.600006,128.600006 471.100006,130.400009 L 471.100006,130.400009 C 471.600006,131.600006 471.700012,133.100006 471.600006,135 L 471.600006,135 C 471.399994,137 469.100006,143.800003 464.600006,155.5 L 464.600006,155.5 C 460.201019,167.300003 457.899994,174.299011 457.899994,176.600006 L 457.899994,176.600006 L 457.899994,178.799011 C 457.799011,184 457.300018,191.201004 456.399994,200.400009 L 456.399994,200.400009 C 455.300018,211.199997 454.800018,216.800003 454.800018,217.399017 L 454.800018,217.399017 C 454.800018,223.5 456.100006,226.300003 459,225.800003 L 459,225.800003 C 461.800018,225.400009 463.600006,221.800003 464.399994,215 L 464.399994,215 C 466.5,203.800003 467.600006,195 467.600006,188.600006 L 467.600006,188.600006 C 467.600006,185.800003 467.899994,182.600006 468.600006,179 L 468.600006,179 C 470.399994,179.100006 472.100006,179.100006 473.899994,179 L 473.899994,179 C 476.100006,179 478.201019,179 480.399994,179.199997 L 480.399994,179.199997 C 487.300018,179.600006 494.200012,180 501.100006,180.199997 L 501.100006,180.199997 C 509.800018,180.699997 517.700012,179.5 524.900024,176.800003 L 524.900024,176.800003 C 528.400024,178.100006 530.900024,179.199997 532.799988,180.199997 L 532.799988,180.199997 C 533.20105,180.400009 535.900024,182 540.600037,185.199997 L 540.600037,185.199997 C 541.100037,185.5 541.5,185.800003 541.900024,186.100006 L 541.900024,186.100006 C 541.399048,185.899002 540.900024,185.800003 540.400024,185.800003 L 540.400024,185.800003 L 537.100037,186.600006 C 536.70105,186.799011 536.400024,187 536.299988,187 L 536.299988,187 C 536.100037,187.199997 535.900024,188 535.900024,189.600006 L 535.900024,189.600006 C 535.900024,191.201004 536.899048,193.199997 538.600037,195.600006 L 538.600037,195.600006 C 540.299988,198 541.100037,199.600006 541.100037,200.400009 L 541.100037,200.400009 C 541.100037,200.900009 540.799988,201.400009 539.900024,202 L 539.900024,202 C 537.299988,203.701004 534.900024,205.400009 532.799988,207 L 532.799988,207 C 539.600037,210.699997 544.100037,210.199997 546.400024,205.699997 L 546.400024,205.699997 C 547.400024,203.5 547.900024,200 547.900024,195.199997 L 547.900024,195.199997 C 547.900024,192.800003 547.100037,190.600006 545.200012,188.600006 L 545.200012,188.600006 L 545.400024,188.300003 C 548.400024,190.300003 551.799988,192.699997 555.799011,195.300003 L 555.799011,195.300003 C 569.600037,204.701004 576.799988,209.400009 577.100037,209.400009 L 577.100037,209.400009 C 582.600037,209.400009 595.600037,204.199997 616,194 L 616,194 C 621.900024,191 627.299988,188.5 632.100037,186.100006 L 632.100037,186.100006 L 633,188 C 621.600037,195.5 615.600037,199.5 615.100037,199.800003 L 615.100037,199.800003 C 617.899048,203.300003 624.5,202.199997 635,196.400009 L 635,196.400009 C 640.399048,193.5 648.400024,188.5 659,181.600006 L 659,181.600006 C 656.100037,189.5 653.799988,196.199997 651.900024,201.800003 L 651.900024,201.800003 L 651.5,201.800003 C 646.5,201.800003 640,204.701004 632.400024,210.400009 L 632.400024,210.400009 C 625.299988,215.699997 620.799988,220.5 618.799011,224.600006 L 618.799011,224.600006 C 620.5,223.799011 626,221.199997 635.100037,216.600006 L 635.100037,216.600006 C 639.5,214.400009 643.5,212.400009 647.400024,210.600006 L 647.400024,210.600006 L 648.100037,212 L 648.299988,212.5 C 646.400024,218.5 644.899048,224.199997 643.799988,229.800003 L 643.799988,229.800003 C 639.600037,230.199997 635.5,230.900009 631.5,232 L 631.5,232 C 624.5,233.800003 619.900024,236.201004 617.5,239 L 617.5,239 C 619.900024,239.800003 625.100037,239.300003 633.400024,237.400009 L 633.400024,237.400009 C 636.799011,236.699997 640,235.800003 643,234.900009 L 643,234.900009 C 642,240.600006 641.5,246.100006 641.5,251.400009 L 641.5,251.400009 C 641.5,251.900009 641.900024,253.201019 642.5,255 L 642.5,255 C 637.5,254.800003 630,254.699997 620,254.600006 L 620,254.600006 C 619.799011,254.201019 619.5,254 619.400024,254 L 619.400024,254 C 619,253.900009 618.799011,254.800003 618.799011,256.399994 L 618.799011,256.399994 C 618.799011,259.399994 620.799988,261.100006 625,261.399994 L 625,261.399994 C 628.5,261.700012 634.799988,261.200012 644,259.799011 L 644,259.799011 C 645.900024,265 648.900024,272.399994 653,282.200012 L 653,282.200012 C 648.900024,280.300018 641,278.200012 629.100037,275.800018 L 629.100037,275.800018 C 630.900024,278.300018 635.600037,281.299011 643.200012,284.800018 L 643.200012,284.800018 C 648.400024,287.100006 652.5,288.5 655.799011,289 L 655.799011,289 C 658.799988,296.399994 662.400024,304.899994 666.5,314.5 L 666.5,314.5 C 663.600037,312.799011 659,310.200012 652.600037,307 L 652.600037,307 C 645,303.200012 641,301.399994 640.399048,301.399994 L 640.399048,301.399994 C 638.799988,301.399994 638,301.5 637.799011,301.700012 L 637.799011,301.700012 C 637.5,302.200012 637.100037,302.399994 636.799011,302.600006 L 636.799011,302.600006 C 636.600037,302.200012 636.5,302 636.400024,302 L 636.400024,302 C 636.100037,301.899994 636,302.800018 636,304.399994 L 636,304.399994 C 636,306.600006 640.399048,309.299011 649.100037,312.799011 L 649.100037,312.799011 C 657.799988,316 663.600037,317.399994 666.799988,317 L 666.799988,317 L 667.5,316.700012 C 668.400024,318.700012 669.200012,320.800018 670.100037,322.899994 L 670.100037,322.899994 C 674,331.799011 677.799988,340.600006 681.400024,348.899994 L 681.400024,348.899994 C 679,346.899994 672.799011,343.300018 662.799988,337.800018 L 662.799988,337.800018 C 650.400024,331.100006 643.400024,327.100006 642,325.800018 L 642,325.800018 C 641,326 640.5,326.201019 640.20105,326.5 L 640.20105,326.5 C 639.799988,326.800018 639.5,327.899994 639.5,329.600006 L 639.5,329.600006 C 639.5,333.100006 645.400024,337.800018 657.100037,343.800018 L 657.100037,343.800018 C 668.799988,349.700012 677,351.700012 681.900024,349.899994 L 681.900024,349.899994 C 687,361.700012 691.900024,372.800018 696.600037,383.200012 L 696.600037,383.200012 C 691.400024,379.100006 684.5,374.100006 676.100037,368.5 L 676.100037,368.5 C 662.899048,359.600006 655,354.200012 652.400024,352.201019 L 652.400024,352.201019 C 652.400024,352.300018 652.299988,352.600006 652.200012,352.899994 L 652.200012,352.899994 C 652,353.201019 652,354.200012 652,355.800018 L 652,355.800018 C 652,358.899994 658.799988,365.100006 672.299988,374.399994 L 672.299988,374.399994 C 684,382.600006 692.799988,387 698.5,387.399994 L 698.5,387.399994 C 702.100037,395.600006 705.600037,403.200012 709,410.600006 L 709,410.600006 C 700.200012,405.100006 690.900024,398.700012 680.899048,391.399994 L 680.899048,391.399994 C 665.900024,380.100006 655,372.100006 648.400024,367.399994 L 648.400024,367.399994 L 646.799011,368.200012 C 655.5,379.100006 665.600037,389.201019 677.20105,398.399994 L 677.20105,398.399994 C 690,408.299011 701.400024,414.300018 711.5,416.201019 L 711.5,416.201019 C 712.20105,417.700012 712.900024,419.100006 713.5,420.600006 L 713.5,420.600006 L 713.400024,421.700012 C 693.900024,418.600006 678.5,413.600006 667,406.600006 L 667,406.600006 C 656.900024,400.399994 649.20105,392.200012 644,382.200012 L 644,382.200012 C 641.600037,377.800018 636.200012,368.899994 627.799011,355.700012 L 627.799011,355.700012 C 619.400024,342.700012 615.100037,336.200012 614.799988,336.200012 L 614.799988,336.200012 C 609.900024,336.200012 605.700012,339.701019 602,346.5 L 602,346.5 C 596.700012,356.701019 592.600037,363.200012 589.600037,366.200012 L 589.600037,366.200012 C 586.799988,368.899994 581.100037,373.700012 572.400024,380.399994 L 572.400024,380.399994 C 560.5,389.299011 554.100037,394.200012 553.100037,395 L 553.100037,395 L 553.100037,398.600006 C 553.299988,398.600006 553.900024,398.800018 554.70105,399.100006 L 554.70105,399.100006 C 557,401.600006 565.799011,410.600006 581,426.200012 L 581,426.200012 C 596.20105,441.700012 603.200012,451.700012 601.900024,456.200012 L 601.900024,456.200012 C 600.5,460.600006 597.200012,463.600006 591.799011,464.899994 L 591.799011,464.899994 C 589.849976,465.029999 587.887024,465.096008 585.911011,465.096008 L 585.911011,465.096008 C 574.307007,465.096008 562.232056,462.843018 549.5,458.399994"
         fill="url(#gradient-body)" />
      <path
         id="tail-bottom"
         d="M 644.899048,180 C 653.299988,175.900009 659.100037,173.299011 662.400024,172.201004 L 662.400024,172.201004 C 661.799988,173.800003 661.200012,175.5 660.600037,177 L 660.600037,177 L 659.5,177 C 656.100037,177 651.5,178.5 645.400024,181.300003 L 645.400024,181.300003"
         fill="url(#gradient-body)" />
      <path
         id="tail-middle"
         d=" M 632.100037,186.100006 C 636.799011,183.800003 641,181.699997 644.799988,180 L 644.799988,180 L 645.400024,181.300003 C 641.799988,183 637.600037,185.199997 633,188 L 633,188"
         fill="url(#gradient-body)" />
    </g>
    <path
       style="fill:#f2bc29"
       id="path36"
       d="M 216.79989,339.8998 C 218.99989,342.1998 220.89989,344.7998 222.59989,347.7998 C 227.19989,355.7998 229.59989,363.8998 229.59989,372.1998 C 229.59989,385.5998 225.39989,394.5998 216.99989,399.1998 C 209.79989,403.3998 200.49989,403.7998 189.39989,400.5998 C 178.79989,397.5998 169.69989,392.1998 161.79989,384.5998 C 153.39989,376.5998 149.19988,368.4998 149.19988,360.1998 C 149.19988,352.5998 153.59989,345.3998 162.49989,338.8998 C 172.49989,331.3998 184.19989,328.5998 197.59989,330.1998 C 205.19989,331.1998 211.59989,334.3998 216.79989,339.8998" />
    <path
       id="pupil-right"
       d="M 186.3999,373.2998 C 180.9999,372.6998 176.4999,371.1998 172.5999,368.9998 C 168.4999,366.3998 166.3999,363.4998 166.3999,360.1998 C 166.3999,357.2998 166.7999,355.1998 167.5999,354.0998 C 169.3999,351.4998 173.3999,350.1998 179.5999,350.1998 C 186.6999,350.1998 192.9999,351.5998 198.3999,354.1998 C 203.7999,356.7998 206.3999,359.7998 206.3999,362.9998 C 206.3999,367.0998 204.2999,369.8998 200.1999,371.7998 C 196.4999,373.3998 191.7999,373.8998 186.3999,373.2998"
       inkscape:label="#path38">
            <animateMotion path="M 10.686576,20.227776 C 19.43486,28.098588 28.66916,29.148027 29.155181,24.950264 C 29.641196,20.7525 25.753064,9.7333676 22.350957,8.6839246 C 18.948845,7.6344856 4.8543824,7.6344856 5.8264184,12.356969 C 6.7984431,17.079456 10.200561,20.7525 10.686576,20.227776 z" dur="4s" repeatCount="indefinite"/>
       </path>
    <path
       style="fill:#f9eab6"
       id="path40"
       d="M 197.8999,394.3999 C 200.8999,395.5999 202.3999,396.7999 202.3999,397.8999 C 202.3999,400.2999 200.0999,401.1999 195.4999,400.5999 C 191.4999,400.0999 186.3999,398.5999 180.4999,395.9999 C 174.4999,393.3999 169.4999,390.5999 165.2999,387.5999 C 160.7999,384.0999 158.4999,381.1999 158.4999,378.8999 C 158.4999,378.4999 158.7999,377.4999 159.4999,375.8999 C 160.1999,374.2999 160.7999,373.1999 161.2999,372.5999 C 166.4999,379.6999 175.0999,385.5999 186.9999,390.1999 C 189.7999,391.3999 193.4999,392.7999 197.8999,394.3999" />
    <path
       style="fill:#f9eab6"
       id="path42"
       d="M 217.1001,345.70019 L 216.9001,345.30019 C 215.1001,345.00019 211.3001,343.20019 205.8001,340.20019 C 200.6001,337.30019 197.0001,335.80019 194.9001,335.80019 C 194.5001,335.80019 193.7001,335.90019 192.8001,336.10019 C 192.3001,336.20019 192.0001,336.10019 191.8001,335.80019 L 192.0001,335.20019 C 192.3001,335.00019 193.0001,334.50019 193.8001,333.80019 C 194.7001,333.20019 195.5001,332.90019 196.3001,332.90019 C 199.0001,332.90019 203.2001,334.40019 208.7001,337.20019 C 214.4001,340.20019 217.3001,342.60019 217.3001,344.40019 C 217.3001,345.30019 217.2001,345.70019 217.1001,345.70019" />
    <g
       id="teeth">
      <path
         id="tooth-left"
         transform="translate(258.200195,269.200195)"
         d="M 0,0 C 0,-0.1 1,-1.5 3.1,-4.2 C 6.2,-8.2 10.3,-10.2 15.6,-10.2 C 20.5,-10.2 23.800001,-7.6 25.4,-2.5 C 25.800001,0.5 26.1,2.6 26.4,4 C 15.400001,2.8 6.5,1.6 -0.1,0.4"
         fill="white" />
      <path
         id="tooth-right"
         transform="translate(249.299789,267.600098)"
         d="M 0,0 C -1.6,-0.4 -3.1,-0.9 -4.1,-1.4 C -7,-2.7 -12.6,-4.2 -21.300001,-6 C -20.1,-10.400001 -18.6,-12.6 -16.9,-12.6 C -12.900001,-12.6 -8.6,-9.900001 -4.1,-4.6 C -2.5,-2.8 -1.1,-1.2 0,0"
         fill="white" />
    </g>
    <path
       id="nose"
       transform="translate(201,299.799805)"
       d="M 0,0 C 0.6,0.3 0.9,0.9 0.9,1.8 C 0.9,5.7 -7,9.2 -22.700001,12.3 C -29.1,13.5 -34.5,14.1 -39,14 C -43.799999,13.900001 -46.299999,12.8 -46.299999,10.900001 C -46.299999,7.7 -43.200001,5.1 -37.100002,3 C -29.800001,0.4 -19.200001,-0.8 -5.3,-0.8 C -2.7,-0.8 -0.9,-0.6 0,0"
       fill="white" />
    <path
       id="path49"
       d="M 305.4,365.9 C 297.8,369.8 288.2,370.1 277,367.1 C 265.8,364 256.4,358.6 248.6,350.6 C 242.5,344.5 238.6,338 236.8,331.1 C 236,328.1 235.6,325 235.6,321.8 C 235.6,320.8 235.5,318.8 235.2,315.8 C 235.3,312.9 236.2,310.6 237.7,308.5 C 242,302.7 252.8,299.8 270,299.8 C 287.3,299.8 300.4,305.7 309.2,317.4 C 311.2,319.9 312.8,322.5 314.2,325.1 C 317,330.7 318.4,336.3 318.4,342 C 318.4,353.7 314.1,361.6 305.4,365.9" />
    <path
       style="fill:#f2bc29"
       id="path51"
       d="M 252.6998,339.6998 C 252.2998,339.6998 252.0998,340.0998 252.0998,340.8998 C 252.0998,342.1998 252.7998,343.5998 253.9998,344.9998 C 253.3998,344.5998 252.8998,344.0998 252.3998,343.5998 C 247.0998,338.3998 243.6998,333.0998 242.1998,327.5998 C 241.6998,325.3998 241.2998,323.2998 241.2998,321.1998 C 241.2998,315.5998 243.1998,311.7998 246.6998,309.9998 C 250.5998,307.8998 258.5998,306.8998 270.5998,306.8998 C 286.0998,306.8998 297.6998,312.2998 305.0998,323.1998 C 305.2998,323.3998 305.4998,323.6998 305.6998,323.7998 C 309.9998,330.2998 312.1998,336.4998 312.1998,342.2998 C 312.1998,351.2998 308.3998,357.0998 301.0998,359.5998 C 294.5998,361.8998 286.4998,361.3998 276.7998,358.1998 C 269.9998,355.8998 263.8998,352.7998 258.5998,348.6998 C 260.8998,350.2998 263.8998,351.8998 267.5998,353.6998 C 277.7998,358.3998 285.7998,360.3998 291.4998,359.5998 C 291.7998,359.3998 291.8998,358.8998 291.8998,358.0998 C 291.8998,356.7998 288.1998,355.1998 280.8998,352.9998 C 278.5998,352.2998 274.2998,351.2998 268.2998,349.7998 C 266.0998,349.2998 263.5998,347.4998 260.6998,344.5998 C 258.0998,341.7998 255.5998,340.1998 253.2998,339.8998 C 253.0998,339.7998 252.8998,339.6998 252.6998,339.6998" />
    <path
       id="pupil-left"
       d="M 292.3999,342.20019 C 289.0999,342.80019 284.8999,342.50019 280.0999,341.20019 C 275.1999,339.80019 271.0999,337.90019 267.6999,335.40019 C 263.8999,332.70019 261.9999,329.90019 261.9999,327.20019 C 261.9999,326.20019 262.0999,325.30019 262.2999,324.60019 C 262.3999,323.80019 262.5999,323.10019 262.7999,322.50019 C 264.2999,319.80019 267.0999,318.30019 271.1999,318.30019 C 275.5999,318.30019 280.1999,319.80019 285.0999,322.80019 C 286.4999,323.70019 287.8999,324.80019 289.3999,325.80019 C 295.1999,330.30019 298.0999,333.80019 298.0999,336.40019 C 298.0999,339.50019 296.1999,341.40019 292.3999,342.20019"
       inkscape:label="#path53">
       <animateMotion path="M 0.35137106,5.9466274 C 6.4766093,11.773308 12.942139,12.550196 13.282434,9.4426362 C 13.622724,6.3350752 10.900392,-1.8222739 8.5183571,-2.5991656 C 6.1363188,-3.3760544 -3.7321242,-3.3760544 -3.051539,0.11995092 C -2.3709618,3.6159589 0.01108058,6.3350752 0.35137106,5.9466274 z" dur="4.2s" repeatCount="indefinite"/>
    </path>
    <path
       style="fill:#f9eab6"
       id="path55"
       d="M 294.3999,315.5 C 297.0999,318.1 298.7999,320.1 299.2999,321.3 C 298.2999,321.4 295.4999,320.1 290.7999,317.1 C 285.2999,313.8 281.6999,311.8 279.6999,311.2 C 279.9999,310.9 280.5999,310.7 281.3999,310.4 C 282.2999,310.2 283.1999,310.2 284.1999,310.2 C 287.2999,310.2 290.7999,311.9 294.3999,315.5" />
    <path
       style="fill:#f9eab6;stroke:#f9eab6"
       id="path57"
       d="M 252.1001,340.8999 C 252.1001,340.0999 252.3001,339.6999 252.7001,339.6999 C 252.9001,339.6999 253.1001,339.7999 253.3001,339.8999 C 255.6001,340.1999 258.1001,341.7999 260.7001,344.5999 C 263.6001,347.4999 266.1001,349.2999 268.3001,349.7999 C 274.3001,351.2999 278.6001,352.2999 280.9001,352.9999 C 288.2001,355.1999 291.9001,356.7999 291.9001,358.0999 C 291.9001,358.8999 291.8001,359.3999 291.7001,359.3999 C 291.6001,359.3999 291.6001,359.3999 291.5001,359.5999 C 285.8001,360.3999 277.8001,358.3999 267.6001,353.6999 C 263.9001,351.8999 260.9001,350.2999 258.6001,348.6999 C 256.9001,347.5999 255.4001,346.2999 254.0001,344.9999 C 252.8001,343.5999 252.1001,342.1999 252.1001,340.8999" />
    <g
       id="face">
      <path
         transform="translate(357.5,304.899902)"
         d="M 0,0 C -0.7,0.9 -1.5,1.7 -2.3,2.5 C -3.1,3.3 -3.9,4.1 -4.6,4.9 C -9.400001,10.900001 -17.1,15.7 -27.4,19.1 C -28.6,19.5 -29.700001,19.700001 -30.800001,19.800001 C -35.100002,20 -39.299999,20.200001 -43.299999,20.200001 C -44.700001,17.6 -46.299999,15 -48.299999,12.5 C -57.100002,0.8 -70.200005,-5.1 -87.5,-5.1 C -104.700005,-5.1 -115.5,-2.2 -119.800003,3.6 C -121.300003,5.7 -122.200005,8 -122.300003,10.900001 C -122,13.900001 -121.900002,15.900001 -121.900002,16.9 C -121.900002,20.1 -121.5,23.200001 -120.700005,26.200001 C -122.099998,26.6 -123.400002,27 -124.900002,27.5 C -128.300003,28.5 -131.400009,29.9 -134.5,31.4 C -144.699997,19.1 -158.5,12.900001 -175.5,12.900001 L -178,12.900001 C -177.199997,12.8 -176.5,12.5 -175.699997,12.3 C -164.800003,9.3 -153.699997,6.9 -142.400009,5.1 C -138.100006,4.4 -135.300003,3.8 -134.100006,3.1 C -132.699997,2.2 -131.900009,0.5 -131.900009,-1.9 C -131.900009,-7 -135.300003,-12.6 -141.900009,-18.700001 C -149.699997,-25.800001 -159.300003,-29.700001 -170.900009,-30.6 C -170.400009,-31.700001 -170,-33 -169.699997,-34.200001 C -169.300003,-35.700001 -168.800003,-37.600002 -168.300003,-39.900002 C -164,-39.100002 -159,-38.100002 -153.300003,-36.900002 C -131.699997,-32.5 -118.400002,-29.6 -113.5,-28.300001 C -93.700005,-23.1 -72.700005,-19.5 -50.700001,-17.5 C -26.700001,-15.3 -14.7,-16.6 -14.7,-21.300001 C -14.7,-24.5 -28.300001,-27.300001 -55.700001,-29.9 C -57.299999,-30.1 -58.799999,-30.200001 -60.299999,-30.4 L -60.299999,-30.700001 C -60.299999,-34.700001 -62,-39.5 -65.400002,-45.100002 C -70,-52.600002 -75.700005,-56.299999 -82.700005,-56.299999 C -88.900002,-56.299999 -93.900002,-54.900002 -97.900002,-52.100002 C -100.700005,-49.299999 -102.200005,-47.700001 -102.300003,-47.5 C -102.700005,-47.700001 -105.200005,-49.799999 -109.800003,-53.600002 C -115.200005,-57.200001 -120,-59.100002 -124.300003,-59.100002 C -129.699997,-59.100002 -133.600006,-57.100002 -136.300003,-53.200001 C -137.900009,-49.100002 -138.800003,-46.700001 -139.100006,-46.299999 L -139.300003,-45.299999 C -151,-47.600002 -166.300003,-50.100002 -185.100006,-53.100002 C -200.199997,-53.100002 -210.800003,-51.700001 -217.100006,-49.100002 C -219.100006,-48.200001 -221.100006,-47 -223,-45.5 C -225.5,-43.5 -227,-42.299999 -227.5,-41.900002 C -227.699997,-43.299999 -227.900009,-42.700001 -227.900009,-40.100002 C -227.900009,-38.299999 -226.900009,-37.200001 -224.800003,-36.700001 C -223.800003,-36.5 -221.699997,-36.299999 -218.699997,-36.299999 C -214.600006,-36.299999 -211.800003,-36.700001 -210.5,-37.5 C -210.199997,-37.700001 -209.5,-38.5 -208.300003,-39.900002 C -206.5,-42.299999 -199.5,-43.5 -187.5,-43.5 C -186.800003,-43.5 -183.5,-42.900002 -177.600006,-41.700001 C -178.600006,-38.299999 -179.100006,-35.799999 -179.100006,-34.299999 C -179,-33 -178.900009,-31.700001 -178.5,-30.6 C -188.800003,-29.6 -198.5,-23.5 -207.600006,-12.400001 C -211,-8.2 -213.900009,-3.8 -216.400009,0.8 C -218.5,4.7 -219.5,7 -219.5,8.1 C -219.5,12.8 -217.5,16.200001 -213.5,18.4 C -208.5,21 -201.300003,20.800001 -191.699997,17.4 C -197.600006,21 -203,26.700001 -207.900009,34.400002 C -209.199997,36.299999 -210.300003,38.299999 -211.5,40.400002 C -212,39.799999 -212.699997,39.200001 -213.5,38.5 C -215.699997,36.700001 -219.900009,33.5 -225.900009,29.1 C -237.900009,19.5 -243.900009,9.900001 -243.900009,0.3 C -243.900009,-29.5 -242.900009,-54.5 -240.699997,-74.700005 C -240.5,-77.400002 -238.100006,-81.5 -233.699997,-86.900002 C -227.5,-94.599998 -219.100006,-101.599998 -208.5,-108 C -197.5,-114.700005 -184.699997,-120.200005 -170.5,-124.599998 C -173.800003,-121.099998 -175.5,-117.800003 -175.5,-114.5 C -175.5,-111.099998 -174.699997,-109.400002 -173.100006,-109.5 C -172,-109.599998 -169.800003,-110.800003 -166.699997,-113.200005 C -158,-119.800003 -151.300003,-123.099998 -146.699997,-123.099998 C -138.100006,-123.099998 -132.100006,-122.200005 -128.900009,-120.599998 C -124.800003,-118.400002 -120.599998,-116.900002 -116.099998,-116.099998 C -115.400002,-116.099998 -115.099998,-116.900002 -115.099998,-118.5 C -115.099998,-121.200005 -118.400002,-124.200005 -125.099998,-127.5 C -129.5,-129.699997 -133.900009,-131.100006 -138.300003,-132 C -119,-135.100006 -97.599998,-136.699997 -73.900002,-136.699997 C -70.900002,-136.699997 -64,-135.900009 -53.100002,-134.300003 C -42.200001,-132.699997 -35.299999,-131.900009 -32.299999,-131.900009 C -28.1,-131.900009 -25.200001,-132.699997 -23.4,-134.300003 C -22.4,-135.199997 -21.9,-136.400009 -21.9,-137.900009 C -21.9,-139.699997 -25.4,-141.5 -32.400002,-143.400009 C -20.1,-145 -0.3,-146.100006 27.1,-146.699997 C 25.9,-139.900009 25.300001,-135.600006 25.300001,-133.699997 C 25.4,-131.400009 25.5,-129.100006 25.6,-126.900002 C 21.700001,-125.900002 17.9,-124.900002 14,-123.900002 C 10.400001,-122.900002 6.7,-121.5 3.2,-119.700005 C 1.9,-119.099998 0.6,-118.400002 -0.6,-117.900002 C -7.9,-114.700005 -13.2,-109.700005 -16.6,-102.900002 C -16.9,-102.200005 -17.4,-101.700005 -18.1,-101.400002 C -20.700001,-100 -21.5,-97.300003 -20.5,-93.300003 C -18.4,-84.900002 -15.400001,-76.900002 -11.5,-69.099998 C -10.900001,-68.099998 -10.3,-67.099998 -9.5,-66.200005 C -2.6,-58.799999 2.6,-50.200001 6.3,-40.400002 C 6.7,-39.200001 6.9,-38.100002 7.1,-37.100002 C 7.5,-33.900002 7.9,-30.700001 8.1,-27.5 C 9,-16.200001 6.3,-7.1 0,0"
         id="path60"
         fill="#d1c1ad" />
      <path
         transform="translate(473.899902,179)"
         d="M 0,0 C -1.8,0.1 -3.5,0.1 -5.3,0 C -4.3,-5.2 -2.6,-11.2 -0.1,-18 C 0.2,-18.700001 0.5,-19.5 0.7,-20.200001 C 4.8,-18.200001 11,-16 19.200001,-13.3 C 33.299999,-8.8 44,-5.1 51,-2.2 C 43.799999,0.5 35.900002,1.7 27.200001,1.2 C 20.300001,1 13.400001,0.6 6.5,0.2 C 4.3,0 2.2,0 0,0"
         id="path62"
         fill="#d1c1ad" />
    </g>
    <g
       id="scales-fur">
      <path
         transform="translate(549.600098,412.5)"
         d="M 0,0 C -0.8,-2.9 -1,-4.5 -0.6,-4.6 C -0.5,-4.7 -0.2,-4.6 0,-4.3 C 3,-1.8 6.3,2 9.6,7.1 L 18,19.700001 C 16.300001,21.6 13,19.5 8.3,13.400001 C 3.5,7.4 0.8,2.9 0,0"
         id="path65" />
      <path
         transform="translate(516.899902,428.600098)"
         d="M 0,0 C -21,-13.3 -32,-21.300001 -33.100002,-24 C -34.299999,-26.6 -35.100002,-28 -35.700001,-28.200001 C -36.200001,-28.4 -36,-28.6 -35,-28.800001 C -29,-24.4 -16.300001,-16.4 3.2,-4.7 C 22.800001,7 34.900002,14.5 39.5,18 C 34,19.5 20.9,13.5 0,0"
         id="path67" />
      <path
         transform="translate(508.600098,372.200195)"
         d="M 0,0 C -3.9,-0.4 -5.8,-2.1 -5.8,-5.2 C -5.8,-6.8 -5.7,-7.8 -5.2,-8 L -4.7,-8.400001 C 7.1,-10 15,-11.8 19,-14 C 22.4,-15.900001 24.200001,-18.6 24.200001,-22.4 C 24.200001,-28 19.5,-33.400002 10.400001,-38.799999 C 5.8,-41.299999 2.6,-43 0.9,-44.200001 C -2,-46 -3.5,-47.799999 -3.5,-49.400002 C -3.5,-51.100002 -3,-52.400002 -2.2,-53.100002 C -1.9,-53.400002 -0.7,-53.5 1.2,-53.400002 C 6.8,-52.799999 13.3,-48.5 20.5,-40.600002 C 27.800001,-32.799999 31.300001,-26.6 31.300001,-22.200001 C 31.300001,-18.1 29.4,-14.3 25.5,-10.5 C 22.200001,-7.1 18,-4.4 12.8,-2.4 C 7.8,-0.5 3.5,0.3 0,0"
         id="path69" />
      <path
         transform="translate(501.899902,393.799805)"
         d="M 0,0 C 10.3,6.1 21.5,13.900001 33.700001,23.200001 C 45.5,32.100002 54.799999,40 61.700001,46.799999 C 54.600002,46.299999 43.700001,40.100002 29.200001,28.1 C 17,18.1 7.2,8.8 0,0"
         id="path71" />
      <path
         transform="translate(569.799805,347.200195)"
         d="M 0,0 C -5,-2.1 -4.7,-3.8 0.8,-5 C 6.2,-6.2 9.7,-6.8 11.3,-6.8 C 12.400001,-7 13,-7.4 13,-8 C 13,-10.900001 10.7,-14.8 6.1,-19.6 C 1.6,-24.5 -0.7,-27.6 -0.8,-28.9 C -0.9,-30.1 -0.7,-31.300001 0,-32.299999 C 0.5,-33.400002 2.1,-33.600002 4.5,-33.100002 C 7,-32.5 10.2,-29.1 14.3,-23 C 17.9,-17.4 19.800001,-13.6 19.800001,-11.6 C 19.800001,-7.4 18.800001,-4.2 16.800001,-1.9 C 13,2.5 7.3,3 0,0 M 582.799011,339.200012 C 582.799011,339.799011 582.200012,340.200012 581.100037,340.399994 L 581.100037,340.399994"
         id="path73" />
      <path
         transform="translate(395.200195,421.399902)"
         d="M 0,0 L -0.8,0.4 C -12.6,-5.5 -19.4,-9 -21.1,-10 C -27.6,-13.8 -31.6,-17.5 -33.200001,-20.800001 C -33.799999,-21.800001 -34,-23 -34,-24 C -34,-25.800001 -33.600002,-26.9 -32.799999,-27.5 C -32.299999,-27.800001 -31.300001,-28.1 -30,-28.4 C -27.300001,-26.300001 -21.200001,-21.9 -11.6,-15.3 C -3.3,-9.3 0.8,-5.1 0.8,-2.8 C 0.8,-1.2 0.6,-0.3 0,0"
         id="path75" />
      <path
         transform="translate(391.200195,355.399902)"
         d="M 0,0 C 0,-2.6 0.9,-4.7 2.6,-6.6 C 3.7,-7.9 5.7,-10.1 8.8,-13.2 C 5.9,-15 4.1,-17 3.2,-19.200001 C 2.7,-20.4 2.4,-22.200001 2.4,-24.6 C 2.4,-27.6 3.6,-31.800001 6,-37.200001 C 2.6,-38.100002 -0.1,-39.600002 -2,-42 C -3.3,-43.600002 -4,-44.900002 -4,-46 C -4,-47.5 -3.2,-49.299999 -1.6,-51.600002 C -0.6,-52.799999 0.7,-54.600002 2.4,-56.799999 C -2.9,-61.5 -6.3,-64.700005 -8,-66.400002 C -10.6,-69.099998 -11.5,-71.599998 -10.8,-74 C -10.8,-77.200005 -12.400001,-80.599998 -15.8,-84.5 C -19.1,-88.400002 -20.800001,-91.300003 -20.800001,-93.200005 C -20.800001,-94.599998 -20.200001,-96.599998 -19,-99.599998 C -17.800001,-102.400002 -17.200001,-104.5 -17.200001,-105.800003 C -17.200001,-107.200005 -20.6,-111.700005 -27.6,-119.200005 C -34.600002,-126.599998 -38,-130.5 -38,-130.800003 C -38,-131.100006 -37.700001,-131.400009 -37.100002,-131.900009 C -36.700001,-132.199997 -35.100002,-133.300003 -32.400002,-135.199997 C -25.6,-130.400009 -21.200001,-127 -19.1,-125.099998 C -14.400001,-120.800003 -11.3,-116.300003 -9.6,-111.599998 C -9,-109.700005 -8.8,-107.5 -9.3,-104.700005 C -10.1,-101.700005 -10.6,-99.599998 -10.8,-98.400002 C -11.6,-95.200005 -10.3,-92.700005 -6.8,-91 C -3.1,-89.200005 -1.2,-87.099998 -1.2,-84.800003 C -1.8,-81.700005 -2.1,-79.300003 -2.5,-77.599998 C -3.1,-74.300003 -2.8,-71.900002 -1.6,-70.400002 C 1,-66.800003 4.2,-64.200005 7.8,-62.600002 C 10,-61.600002 11.2,-59.799999 11.2,-57.600002 C 11.2,-56.200001 10.5,-54.400002 9.1,-52.299999 C 7.3,-50 6,-48.200001 5.2,-46.799999 C 9.7,-46.5 12.7,-45.299999 13.8,-43.200001 C 14.2,-42.600002 14.400001,-41.200001 14.400001,-39.200001 C 14.400001,-37.600002 13.6,-35.200001 12,-32 C 10.400001,-28.800001 9.6,-26.4 9.6,-24.800001 C 9.6,-22.800001 10.900001,-21.300001 13.400001,-20.4 C 15.900001,-19.5 17.200001,-18 17.200001,-15.8 C 17.200001,-13.2 15.400001,-9.5 11.8,-4.8 C 8.900001,-1.1 5.9,2.2 2.8,4.8 C 2.8,4.5 2,4.4 0.4,4.4 C 0.2,3.7 0.2,3.2 0,3"
         id="path77" />
      <path
         transform="translate(434.399902,313.600098)"
         d="M 0,0 C -0.3,4.5 -1.2,8.900001 -2.6,13.2 C -5.6,21.700001 -10.3,25.9 -16.4,25.800001 L -16.800001,23.200001 C -16.800001,22 -15.3,17.9 -12.400001,11.2 C -9.3,3.7 -7.6,-0.1 -7.6,-0.2 C -13.5,-1.4 -17.200001,-2.8 -18.5,-4.6 C -19,-5.3 -19.200001,-7 -19.200001,-9.8 C -19.200001,-11 -18.5,-12.8 -17,-15.2 C -15.5,-17.6 -14.8,-19.6 -14.8,-21.200001 C -14.8,-22.300001 -15.3,-23.300001 -16.300001,-24 C -17.6,-24.800001 -18.5,-25.4 -19.200001,-26 C -21.5,-28.4 -21.700001,-33.400002 -19.6,-41 C -25.6,-42.299999 -28.800001,-45.100002 -29,-49.700001 C -29.1,-50.700001 -29,-52.5 -28.6,-55.100002 C -28.5,-57.200001 -28.5,-58.600002 -28.800001,-59.400002 C -28.800001,-59.799999 -31,-62.799999 -35.200001,-68.200005 C -39.200001,-73.599998 -41.200001,-77 -41.200001,-78.400002 C -41.200001,-80.200005 -40.799999,-81.400002 -40.100002,-82.200005 C -39.799999,-82.400002 -38.799999,-82.800003 -37.200001,-83.400002 C -35.600002,-82.800003 -32.299999,-79.300003 -26.9,-73 C -21.5,-66.5 -18.800001,-62.700001 -18.800001,-61.200001 C -18.800001,-59.799999 -19,-58 -19.4,-56.200001 C -19.800001,-54.200001 -20,-52.900002 -20,-52.200001 C -19.300001,-51.400002 -17,-49.400002 -13.2,-46.200001 C -11.3,-44.700001 -10.400001,-43.400002 -10.400001,-42.200001 C -10.3,-40.200001 -9.5,-36.799999 -8,-32 C -6.4,-27.300001 -5.6,-23.700001 -5.6,-21.200001 C -5.6,-19.200001 -5.8,-17.4 -6.3,-16 C -6.9,-14.400001 -7.8,-12.8 -9.2,-11 C -4.3,-9.1 -1.5,-7.4 -0.6,-5.9 C -0.3,-5.3 0,-3.3 0,0"
         id="path79" />
      <path
         transform="translate(582.899902,248.299789)"
         d="M 0,0 C -3.1,3.4 -8.1,4.9 -15,4.7 C -14.900001,1.6 -13,-1 -9.5,-3 C -6,-5.1 -4.1,-7.1 -4.1,-9.3 C -4.1,-12 -6.8,-15.5 -12.1,-20.1 C -17.5,-24.6 -20.1,-27.300001 -20.1,-28.1 C -20.1,-29.800001 -19.800001,-31 -19,-31.5 C -13.1,-30.1 -8.7,-26.800001 -2.8,-22.5 C 1.7,-18.6 3.9,-14.900001 3.9,-11.1 C 3.9,-6.4 2.6,-2.7 0,0"
         id="path81" />
      <path
         transform="translate(558.399902,267.799805)"
         d="M 0,0 C 4,5 6,9.400001 6,13.2 C 6,18.6 5.2,23 3.5,26.200001 C 2,29.4 -2.2,32.5 -8.900001,35.400002 C -17.200001,37.299999 -18.800001,35.299999 -13.7,29.300001 C -12.6,28 -10.900001,26.700001 -8.6,25.4 C -4,22.4 -1.6,20 -1.6,17.800001 C -1.6,14 -4.3,9.8 -9.400001,5.2 C -14.6,0.6 -17.300001,-2.4 -17.300001,-3.6 C -17.300001,-5.1 -17.1,-6.1 -16.800001,-6.5 C -16.6,-6.9 -16.5,-7 -16.5,-7.2 L -11.6,-8 C -8,-8 -4.1,-5.4 0,0"
         id="path83" />
      <path
         transform="translate(496.799774,284.200195)"
         d="M 0,0 C 2.3,-5.1 5.6,-9.5 9.8,-13 C 12.6,-15.5 14,-18.4 14,-21.800001 C 14,-25.1 10.8,-28 4.6,-30.6 C -1.7,-33.200001 -4.9,-35.400002 -4.9,-37.200001 C -4.9,-38.799999 -4.7,-39.799999 -4.4,-40.100002 C -4.2,-40.400002 -4,-40.600002 -4,-40.799999 L 0.3,-41.600002 C 4.3,-41.600002 7.8,-40.400002 11,-38 C 13,-40.400002 15,-42.600002 16.800001,-44.600002 C 17.800001,-46.100002 18.300001,-48 18.300001,-50.400002 C 18.300001,-55 16.4,-60.200001 12.6,-65.900002 C 8.7,-70.700005 6.8,-73.300003 6.8,-73.599998 C 6.8,-75.200005 6.8,-76.200005 7.1,-76.5 C 7.3,-76.700005 7.7,-76.900002 8.3,-77.200005 L 11.6,-78 C 15.900001,-78 19.5,-73.700005 22.300001,-65.200005 C 24.5,-59 25.6,-53.799999 25.6,-49.600002 C 25.6,-43.799999 25.200001,-40.299999 24.4,-39 C 23,-36.600002 19.9,-35.200001 15.1,-34.600002 L 14.400001,-34.600002 C 14.6,-34.299999 14.900001,-34 15.1,-33.600002 C 18.6,-29.200001 20.300001,-25.200001 20.300001,-21.6 C 20.300001,-17.5 17.9,-12.6 13,-6.8 C 7.8,-0.6 3.5,1.6 0,0 "
         id="path85" />
    </g>
  </g>
</svg>
