<?xml version="1.0" encoding="utf-8"?>
<!-- Copyright © 2015 Apple Inc. All rights reserved. -->
<svg viewBox="0 0 184 16" version="1.1" xmlns="http://www.w3.org/2000/svg">
    <style>
    g * {
        pointer-events: all;
        transition-property: stroke, fill;
        transition-duration: 250ms;
        transition-timing-function: ease-in-out;
    }

    g.stroked *, g .stroked {
        fill: none;
        stroke: black;
    }

    g.stroked:hover *, g:hover .stroked {
        stroke: rgb(0, 128, 252);
    }

    g.filled *, g .filled {
        stroke: none !important;
        fill: black;
    }

    g.filled:hover *, g:hover .filled {
        fill: rgb(0, 128, 252);
    }
    </style>

    <g class="stroked">
        <rect x="26" y="2" width="12" height="5"/>
        <path d="M 35.5 7.5 L 35.5 9.5"/>
        <path d="M 28.5 7.5 L 28.5 9.5"/>
        <rect x="33" y="10" width="5" height="4"/>
        <rect x="26" y="10" width="5" height="4"/>
    </g>

    <g class="stroked">
        <path d="M 56 15 C 59.8659934 15 63 11.8659934 63 8 C 63 4.13400656 59.8659934 1 56 1 C 52.1340066 1 49 4.13400656 49 8 C 49 11.8659934 52.1340066 15 56 15 Z"/>
        <path d="M 56.5 3 L 56.5 8.5 L 53 8.5"/>
    </g>

    <g class="stroked">
        <rect x="73" y="1" width="14" height="14" rx="2"/>
        <path d="M 76 4 L 80 8 L 76 12"/>
        <path d="M 80 4.5 L 84 4.5"/>
        <path d="M 82 8 L 84 8"/>
        <path d="M 80 11.5 L 84 11.5"/>
    </g>

    <g class="stroked">
        <path d="M 104.045455 15 C 106.806878 15 109.045455 11.8659934 109.045455 8 C 109.045455 4.13400656 106.806878 1 104.045455 1 C 101.284031 1 99.0454545 4.13400656 99.0454545 8 C 99.0454545 11.8659934 101.284031 15 104.045455 15 Z"/>
        <path d="M 99.5 4.5 L 108.5 4.5 L 99.5 4.5 Z"/>
        <path d="M 104 4.5 L 104 15"/>
        <path d="M 107.5 12.5 L 109.5 14.5"/>
        <path d="M 109 8 L 111 8"/>
        <path d="M 99 8 L 97 8"/>
        <path d="M 100.5 12.5 L 98.5 14.5 L 100.5 12.5 Z"/>
        <path d="M 100.5 3.5 L 98.5 1.5"/>
        <path d="M 107.5 3.5 L 109.5 1.5"/>
    </g>

    <g class="filled">
        <path d="M 157.447564 6.5701038 C 158.11311 6.95915994 158.5 7.44243562 158.5 8 C 158.5 9.52952015 155.58856 10.5 152 10.5 C 148.41144 10.5 145.5 9.52952015 145.5 8 C 145.5 7.44243562 145.88689 6.95915994 146.552436 6.5701038 C 146.959846 6.75017534 147.435831 6.90963763 147.96621 7.04342621 C 147.949199 7.04895616 147.932287 7.05452352 147.915473 7.06012807 C 146.983031 7.37094212 146.5 7.7516133 146.5 8 C 146.5 8.2483867 146.983031 8.62905788 147.915473 8.93987193 C 148.978734 9.2942921 150.437778 9.5 152 9.5 C 153.562222 9.5 155.021266 9.2942921 156.084527 8.93987193 C 157.016969 8.62905788 157.5 8.2483867 157.5 8 C 157.5 7.7516133 157.016969 7.37094212 156.084527 7.06012807 C 156.067713 7.05452352 156.050801 7.04895616 156.03379 7.04342621 C 156.564169 6.90963763 157.040154 6.75017534 157.447564 6.5701038 Z"/>
        <path d="M 157.447564 10.5701038 C 158.11311 10.9591599 158.5 11.4424356 158.5 12 C 158.5 13.5295201 155.58856 14.5 152 14.5 C 148.41144 14.5 145.5 13.5295201 145.5 12 C 145.5 11.4424356 145.88689 10.9591599 146.552436 10.5701038 C 146.959846 10.7501753 147.435831 10.9096376 147.96621 11.0434262 C 147.949199 11.0489562 147.932287 11.0545235 147.915473 11.0601281 C 146.983031 11.3709421 146.5 11.7516133 146.5 12 C 146.5 12.2483867 146.983031 12.6290579 147.915473 12.9398719 C 148.978734 13.2942921 150.437778 13.5 152 13.5 C 153.562222 13.5 155.021266 13.2942921 156.084527 12.9398719 C 157.016969 12.6290579 157.5 12.2483867 157.5 12 C 157.5 11.7516133 157.016969 11.3709421 156.084527 11.0601281 C 156.067713 11.0545235 156.050801 11.0489562 156.03379 11.0434262 C 156.564169 10.9096376 157.040154 10.7501753 157.447564 10.5701038 Z"/>
        <path d="M 158.5 4 C 158.5 2.47047985 155.58856 1.5 152 1.5 C 148.41144 1.5 145.5 2.47047985 145.5 4 C 145.5 5.52952015 148.41144 6.5 152 6.5 C 155.58856 6.5 158.5 5.52952015 158.5 4 Z M 147.915473 4.93987193 C 146.983031 4.62905788 146.5 4.2483867 146.5 4 C 146.5 3.7516133 146.983031 3.37094212 147.915473 3.06012807 C 148.978734 2.7057079 150.437778 2.5 152 2.5 C 153.562222 2.5 155.021266 2.7057079 156.084527 3.06012807 C 157.016969 3.37094212 157.5 3.7516133 157.5 4 C 157.5 4.2483867 157.016969 4.62905788 156.084527 4.93987193 C 155.021266 5.2942921 153.562222 5.5 152 5.5 C 150.437778 5.5 148.978734 5.2942921 147.915473 4.93987193 Z"/>
    </g>

    <g class="stroked">
        <rect x="169" y="1" width="14" height="14" rx="2"/>
        <circle cx="175" cy="7" r="3"/>
        <path d="M 177 9 L 180.5 12.5"/>
    </g>


    <g class="stroked">
        <path d="M 8.0 15.0 C 11.866 15.0 15.0 11.866 15.0 8.0 C 15.0 4.134 11.866 1.0 8.0 1.0 C 4.134 1.0 1.0 4.134 1.0 8.0 C 1.0 11.866 4.134 15.0 8.0 15.0 Z"/>
        <path d="M 5.5 1.5 L 5.5 10.5"/>
        <path d="M 3.0 9.0 L 5.5 11.0 L 8.0 9.0"/>
        <path d="M 10.5 14.5 L 10.5 5.5"/>
        <path d="M 13.0 7.0 L 10.5 5.0 L 8.0 7.0"/>
    </g>

    <g class="stroked">
        <path d="M 122.5 1.5 L 122.5 14.5 L 133.5 14.5 L 133.5 5.5 L 129.5 1.5 L 122.5 1.5 Z"/>
        <path class="filled" d="M 129.0 3.0 L 129.0 6.0 L 132.0 6.0 L 129.0 3.0 Z"/>
    </g>
</svg>
