<?xml version="1.0" encoding="iso-8859-1" ?>
<svg viewBox="0 0 500 300" xmlns="http://www.w3.org/2000/svg">
<rect x="0" y="0" width="500" height="300" fill="#fff" />

<g fill="#080" stroke="#FF0" stroke-width="10" transform="translate(-30)">
    <circle cx="80" cy="50" r="35" stroke="none"/>
    <circle cx="80" cy="50" r="20"/>
    <circle cx="80" cy="120" r="35" stroke="none"/>
    <circle cx="80" cy="120" r="20"/>
    <circle cx="80" cy="190" r="35" stroke="none"/>
    <circle cx="80" cy="190" r="20"/>
    <circle cx="80" cy="260" r="35" stroke="none"/>
    <circle cx="80" cy="260" r="20"/>
</g>

<g fill="#080" stroke="#FF0" stroke-width="10" transform="translate(170)">
    <circle cx="80" cy="50" r="35" stroke="none"/>
    <circle cx="80" cy="50" r="20"/>
    <circle cx="80" cy="120" r="35" stroke="none"/>
    <circle cx="80" cy="120" r="20"/>
    <circle cx="80" cy="190" r="35" stroke="none"/>
    <circle cx="80" cy="190" r="20"/>
    <circle cx="80" cy="260" r="35" stroke="none"/>
    <circle cx="80" cy="260" r="20"/>
</g>


<g fill="#080" stroke="#FF0" stroke-width="10" transform="translate(370)">
    <circle cx="80" cy="50" r="35" stroke="none"/>
    <circle cx="80" cy="50" r="20"/>
    <circle cx="80" cy="120" r="35" stroke="none"/>
    <circle cx="80" cy="120" r="20"/>
    <circle cx="80" cy="190" r="35" stroke="none"/>
    <circle cx="80" cy="190" r="20"/>
    <circle cx="80" cy="260" r="35" stroke="none"/>
    <circle cx="80" cy="260" r="20"/>
</g>
</svg>
