<?xml version="1.0" encoding="UTF-8" standalone="no"?>
<!DOCTYPE svg PUBLIC "-//W3C//DTD SVG 1.0//EN" "http://www.w3.org/TR/2001/REC-SVG-20010904/DTD/svg10.dtd">
<svg xmlns="http://www.w3.org/2000/svg" width="200" height="200" viewBox="0 0 200 200">
    <!-- Both of these previously caused crashes, but now should be ignored. -->
	<rect width="100" height="100" transform="foo(20,20)" fill="green"/>
	<rect width="100" height="100" transform="scale()" fill="green"/>
	<rect width="100" height="100" transform="scale(20,20,20)" fill="green"/>
	<rect width="100" height="100" transform="scale(20,)" fill="green"/>
	<rect width="100" height="100" transform="scale(20,,)" fill="green"/>
	<rect width="100" height="100" transform="scale(20" fill="green"/>
	<rect width="100" height="100" transform="scale 20)" fill="green"/>
	<rect width="100" height="100" transform="scale(r)" fill="green"/>
	<rect width="100" height="100" transform="translate()" fill="green"/>
	<rect width="100" height="100" transform="translate(20,20,20)" fill="green"/>
	<rect width="100" height="100" transform="translate(20,)" fill="green"/>
	<rect width="100" height="100" transform="translate(20,,)" fill="green"/>
	<rect width="100" height="100" transform="translate(20" fill="green"/>
	<rect width="100" height="100" transform="translate 20)" fill="green"/>
	<rect width="100" height="100" transform="translate(r)" fill="green"/>
	<rect width="100" height="100" transform="skewX()" fill="green"/>
	<rect width="100" height="100" transform="skewX(20,20,20)" fill="green"/>
	<rect width="100" height="100" transform="skewX(20,)" fill="green"/>
	<rect width="100" height="100" transform="skewX(20,,)" fill="green"/>
	<rect width="100" height="100" transform="skewX(20" fill="green"/>
	<rect width="100" height="100" transform="skewX 20)" fill="green"/>
	<rect width="100" height="100" transform="skewX(r)" fill="green"/>
	<rect width="100" height="100" transform="skewY()" fill="green"/>
	<rect width="100" height="100" transform="skewY(20,20,20)" fill="green"/>
	<rect width="100" height="100" transform="skewY(20,)" fill="green"/>
	<rect width="100" height="100" transform="skewY(20,,)" fill="green"/>
	<rect width="100" height="100" transform="skewY(20" fill="green"/>
	<rect width="100" height="100" transform="skewY 20)" fill="green"/>
	<rect width="100" height="100" transform="skewY(r)" fill="green"/>
	<rect width="100" height="100" transform="scale(20), scale(1)  ," fill="green"/>
</svg>
