<svg xmlns="http://www.w3.org/2000/svg" xmlns:xlink="http://www.w3.org/1999/xlink">
<style type="text/css">
    path { fill: none; stroke: blue; stroke-width: 1px; }
</style>

<g>
    <path d="M50,50 L100,50 L100,100 L50,100 Z"/>
    <path d="M50,50 L100,50 L100,100 L50,100 Z" transform="translate(100,0)"/>
    <path d="M50,50 L100,50 L100,100 L50,100 Z" transform="translate(200,0)"/>
</g>

<g transform="translate(0,100)">
    <path d="M50,50 L100,50 L100,100 L50,100 Z"/>
    <path d="M50,50 L100,50 L100,100 L50,100 Z" transform="translate(100,0)"/>
    <path d="M50,50 L100,50 L100,100 L50,100 Z" transform="translate(200,0)"/>
</g>

<g transform="translate(0,200)">
    <path d="M50,50 L100,50 L100,100 L50,100 Z"/>
    <path d="M50,50 L100,50 L100,100 L50,100 Z" transform="translate(100,0)"/>
    <path d="M50,50 L100,50 L100,100 L50,100 Z" transform="translate(200,0)"/>
</g>

<g transform="translate(0,300)">
    <path d="M50,50 L100,50 L100,100 L50,100 Z"/>
    <path d="M50,50 L100,50 L100,100 L50,100 Z" transform="translate(100,0)"/>
    <path d="M50,50 L100,50 L100,100 L50,100 Z" transform="translate(200,0)"/>
</g>

</svg>
