<?xml version="1.0" encoding="utf-8"?>
<!-- Copyright © 2016 Apple Inc. All rights reserved. -->
<svg viewBox="0 0 1052 1251" version="1.1" xmlns="http://www.w3.org/2000/svg">
    <g fill-opacity="0.5" fill="white">
        <polygon points="251.761719 0 253.761719 0 2.12833345 1250.36328 0.128333454 1250.36328"/>
        <polygon points="291.761719 0 295.761719 0 44.1283335 1250.36328 40.1283335 1250.36328"/>
        <polygon points="331.761719 0 337.761719 0 86.1283335 1250.36328 80.1283335 1250.36328"/>
        <polygon points="371.761719 0 379.761719 0 128.128333 1250.36328 120.128333 1250.36328"/>
        <polygon points="411.761719 0 421.761719 0 170.128333 1250.36328 160.128333 1250.36328"/>
        <polygon points="451.761719 0 463.761719 0 212.128333 1250.36328 200.128333 1250.36328"/>
        <polygon points="491.761719 0 505.761719 0 254.128333 1250.36328 240.128333 1250.36328"/>
        <polygon points="531.761719 0 547.761719 0 296.128333 1250.36328 280.128333 1250.36328"/>
        <polygon points="571.761719 0 589.761719 0 338.128333 1250.36328 320.128333 1250.36328"/>
        <polygon points="611.761719 0 631.761719 0 380.128333 1250.36328 360.128333 1250.36328"/>
        <polygon points="651.761719 0 673.761719 0 422.128333 1250.36328 400.128333 1250.36328"/>
        <polygon points="691.761719 0 715.761719 0 464.128333 1250.36328 440.128333 1250.36328"/>
        <polygon points="731.761719 0 757.761719 0 506.128333 1250.36328 480.128333 1250.36328"/>
        <polygon points="771.761719 0 799.761719 0 548.128333 1250.36328 520.128333 1250.36328"/>
        <polygon points="811.761719 0 841.761719 0 590.128333 1250.36328 560.128333 1250.36328"/>
        <polygon points="851.761719 0 883.761719 0 632.128333 1250.36328 600.128333 1250.36328"/>
        <polygon points="891.761719 0 925.761719 0 674.128333 1250.36328 640.128333 1250.36328"/>
        <polygon points="931.761719 0 967.761719 0 716.128333 1250.36328 680.128333 1250.36328"/>
        <polygon points="971.761719 0 1009.76172 0 758.128333 1250.36328 720.128333 1250.36328"/>
        <polygon points="1011.76172 0 1051.76172 0 800.128333 1250.36328 760.128333 1250.36328"/>
    </g>
</svg>
