<?xml version="1.0" encoding="UTF-8"?>
<!-- Licensed under the Creative Commons Attribution-Share Alike 3.0 United States License (http://creativecommons.org/licenses/by-sa/3.0/) -->
<svg xmlns="http://www.w3.org/2000/svg" id="root" version="1.1" viewBox="0 0 16 16">
 <defs>
  <linearGradient id="d" x1="491.22" x2="491.22" y1="506.65" y2="732.05" gradientUnits="userSpaceOnUse" gradientTransform="matrix(.093294 0 0 .093294 -35.871 -43.769)">
   <stop stop-color="#204a87" offset="0"/>
   <stop stop-color="#bdd2e9" offset="1"/>
  </linearGradient>
  <radialGradient id="b" cx="301" cy="51.5" r="19.5" gradientUnits="userSpaceOnUse" gradientTransform="matrix(.97063 1.9684e-8 0 .28611 -291.16 -14.63)">
   <stop stop-color="#fff" offset="0"/>
   <stop stop-color="#fff" stop-opacity="0" offset="1"/>
  </radialGradient>
  <radialGradient id="a" cx="24.446" cy="35.878" r="20.531" gradientUnits="userSpaceOnUse" gradientTransform="matrix(.85696 3.2529e-7 -1.253e-7 .33010 -12.949 .77181)">
   <stop stop-color="#fff" offset="0"/>
   <stop stop-color="#cbdbed" offset="1"/>
  </radialGradient>
  <linearGradient id="c" x1="321.57" x2="311.65" y1="145.52" y2="118.5" gradientUnits="userSpaceOnUse" gradientTransform="matrix(.55569 0 0 .55568 -169.27 -70.906)">
   <stop stop-color="#204a87" offset="0"/>
   <stop stop-color="#bdd2e9" offset="1"/>
  </linearGradient>
 </defs>
 <rect width="15.004" height="15.003" x=".49815" y=".49833" fill="url(#a)" fill-rule="evenodd" stroke="url(#c)" stroke-miterlimit="10" rx="1.5143" ry="1.5143" stroke-linejoin="bevel"/>
 <rect width="12.997" height="13" x="1.5014" y="1.5016" fill="none" stroke="#fff" stroke-miterlimit="10" ry=".50810" stroke-linejoin="bevel" rx=".50812"/>
 <rect width="14" height="14" x="1.0017" y="1.0016" fill="url(#b)" fill-rule="evenodd" rx="1.9062" ry="1.9062"/>
 <path fill="#fff" d="m7.1374 4.8508c-0.03291 0.00406-0.06499 0.014755-0.09375 0.03125-0.01131 0.00947-0.02178 0.019939-0.03125 0.03125-0.01327 0.019236-0.02382 0.040343-0.03125 0.0625-0.01131 0.00947-0.02178 0.019939-0.03125 0.03125l-3 8a0.25002 0.25002 0 0 0 0 0.0625 0.25002 0.25002 0 0 0 0 0.0625 0.25002 0.25002 0 0 0 0 0.0625 0.25002 0.25002 0 0 0 0.03125 0.03125 0.25002 0.25002 0 0 0 0.09375 0.09375 0.25002 0.25002 0 0 0 0.125 0.03125h1.375a0.25002 0.25002 0 0 0 0.03125 0 0.25002 0.25002 0 0 0 0.03125 0 0.25002 0.25002 0 0 0 0.09375 -0.0625 0.25002 0.25002 0 0 0 0.03125 -0.03125 0.25002 0.25002 0 0 0 0.03125 -0.0625l0.75-1.9375h2.5938l0.75 1.9375a0.25002 0.25002 0 0 0 0 0.03125 0.25002 0.25002 0 0 0 0.0625 0.0625 0.25002 0.25002 0 0 0 0.0625 0.03125 0.25002 0.25002 0 0 0 0.09375 0.03125h1.4688a0.25002 0.25002 0 0 0 0.03125 0 0.25002 0.25002 0 0 0 0.0625 -0.03125 0.25002 0.25002 0 0 0 0.0625 -0.03125 0.25002 0.25002 0 0 0 0.03125 -0.03125 0.25002 0.25002 0 0 0 0.0625 -0.125 0.25002 0.25002 0 0 0 0 -0.03125 0.25002 0.25002 0 0 0 0 -0.0625 0.25002 0.25002 0 0 0 0 -0.03125l-3-8a0.25002 0.25002 0 0 0 -0.03125 -0.03125 0.25002 0.25002 0 0 0 -0.03125 -0.03125 0.25002 0.25002 0 0 0 0 -0.03125 0.25002 0.25002 0 0 0 -0.03125 -0.03125 0.25002 0.25002 0 0 0 -0.0625 -0.03125 0.25002 0.25002 0 0 0 -0.03125 0 0.25002 0.25002 0 0 0 -0.0625 0h-1.375c-0.02072-0.00261-0.04178-0.00261-0.0625 0zm0.6875 2.6562 0.6875 1.9375h-1.3438l0.65625-1.9375z" display="block"/>
 <path fill="url(#d)" d="m7.1892 3.8205c-0.03291 0.00406-0.06499 0.014755-0.09375 0.03125-0.01131 0.00947-0.02178 0.019939-0.03125 0.03125-0.01327 0.019236-0.02382 0.040343-0.03125 0.0625-0.01131 0.00947-0.02178 0.019939-0.03125 0.03125l-3 8a0.25002 0.25002 0 0 0 0 0.0625 0.25002 0.25002 0 0 0 0 0.0625 0.25002 0.25002 0 0 0 0 0.0625 0.25002 0.25002 0 0 0 0.03125 0.03125 0.25002 0.25002 0 0 0 0.09375 0.09375 0.25002 0.25002 0 0 0 0.125 0.03125h1.375a0.25002 0.25002 0 0 0 0.03125 0 0.25002 0.25002 0 0 0 0.03125 0 0.25002 0.25002 0 0 0 0.09375 -0.0625 0.25002 0.25002 0 0 0 0.03125 -0.03125 0.25002 0.25002 0 0 0 0.03125 -0.0625l0.75-1.9375h2.5938l0.75 1.9375a0.25002 0.25002 0 0 0 0 0.03125 0.25002 0.25002 0 0 0 0.0625 0.0625 0.25002 0.25002 0 0 0 0.0625 0.03125 0.25002 0.25002 0 0 0 0.09375 0.03125h1.4688a0.25002 0.25002 0 0 0 0.03125 0 0.25002 0.25002 0 0 0 0.0625 -0.03125 0.25002 0.25002 0 0 0 0.0625 -0.03125 0.25002 0.25002 0 0 0 0.03125 -0.03125 0.25002 0.25002 0 0 0 0.0625 -0.125 0.25002 0.25002 0 0 0 0 -0.03125 0.25002 0.25002 0 0 0 0 -0.0625 0.25002 0.25002 0 0 0 0 -0.03125l-3.0003-8.0002a0.25002 0.25002 0 0 0 -0.03125 -0.03125 0.25002 0.25002 0 0 0 -0.03125 -0.03125 0.25002 0.25002 0 0 0 0 -0.03125 0.25002 0.25002 0 0 0 -0.03125 -0.03125 0.25002 0.25002 0 0 0 -0.0625 -0.03125 0.25002 0.25002 0 0 0 -0.03125 0 0.25002 0.25002 0 0 0 -0.0625 0h-1.375c-0.02072-0.00261-0.04178-0.00261-0.0625 0zm0.6875 2.6562 0.6875 1.9375h-1.3438l0.65625-1.9375z" display="block"/>
</svg>
