<?xml version="1.0" encoding="UTF-8"?>
<!-- Licensed under the Creative Commons Attribution-Share Alike 3.0 United States License (http://creativecommons.org/licenses/by-sa/3.0/) -->
<svg xmlns="http://www.w3.org/2000/svg" id="root" version="1.1" viewBox="0 0 21 12">
 <path d="m2.925 1c-0.4468 0-0.8501 0.1361-1.1562 0.4062-0.3062 0.2702-0.4688 0.6721-0.4688 1.125v7.9375c0 0.46074 0.12924 0.88567 0.4375 1.1562 0.3083 0.271 0.7346 0.375 1.1875 0.375h7.219 0.156l0.125-0.094 5.063-5.0935 0.281-0.2813-0.281-0.25-5.063-5.1562-0.125-0.125h-0.156z"/>
 <path fill="#3465a4" stroke="#204a87" stroke-width=".78777" d="m10.146 0.39389 5.0713 5.1409-5.0713 5.0713h-7.2048c-0.78066 0-1.2473-0.3721-1.2473-1.1324v-7.9474c0-0.72715 0.49521-1.1324 1.2473-1.1324z"/>
 <path fill="#729fcf" d="m14.706 5.5-4.7266-4.7266h-7.09c-0.78777 0-0.78777 0.78777-0.78777 0.78777h7.8777z" opacity=".48980"/>
</svg>
