<?xml version="1.0" encoding="UTF-8"?>
<!-- Licensed under the Creative Commons Attribution-Share Alike 3.0 United States License (http://creativecommons.org/licenses/by-sa/3.0/) -->
<svg xmlns="http://www.w3.org/2000/svg" id="root" version="1.1" viewBox="0 0 16 16">
 <path d="m6.2724 2c-0.2947 0.0562-0.5276 0.3431-0.5223 0.643v10.714c0 0.337 0.3062 0.643 0.6428 0.643h3.2142c0.33658-0.000033 0.6428-0.30626 0.64283-0.64283v-10.714c0.005-0.2999-0.228-0.5868-0.5224-0.643zm0.76336 1.286h1.9285v9.4283h-1.9285z"/>
 <path d="m1.2724 2c-0.29467 0.056228-0.52758 0.34306-0.5223 0.643v4.9293h1.2857v-4.2863h1.9285v9.4284h1.2857v-10.071c0.00528-0.29994-0.22762-0.58677-0.5223-0.643z"/>
 <rect width=".64282" height=".64283" x="1.393" y="9.5002" fill-rule="evenodd"/>
 <rect width=".64282" height=".64283" x=".75020" y="10.143" fill-rule="evenodd"/>
 <rect width=".64282" height=".64283" x="1.393" y="10.786" fill-rule="evenodd"/>
 <rect width=".64282" height=".64283" x=".75020" y="11.429" fill-rule="evenodd"/>
 <rect width=".64282" height=".64283" x="1.393" y="12.072" fill-rule="evenodd"/>
 <rect width=".64282" height=".64283" x=".75020" y="12.714" fill-rule="evenodd"/>
 <rect width=".64282" height=".64283" x="2.0359" y="12.714" fill-rule="evenodd"/>
 <rect width=".64282" height=".64283" x="3.3215" y="12.714" fill-rule="evenodd"/>
 <rect width=".64282" height=".64283" x="1.393" y="13.357" fill-rule="evenodd"/>
 <rect width=".64282" height=".64283" x="2.6787" y="13.357" fill-rule="evenodd"/>
 <rect width=".64282" height=".64283" x="3.9644" y="13.357" fill-rule="evenodd"/>
 <rect width=".64282" height=".76336" x="4.6072" y="12.594" fill-rule="evenodd"/>
 <rect width=".64282" height=".64283" x="1.393" y="6.9289" fill-rule="evenodd"/>
 <rect width=".64282" height=".64283" x=".75020" y="7.5717" fill-rule="evenodd"/>
 <rect width=".64282" height=".64283" x="1.393" y="8.2145" fill-rule="evenodd"/>
 <rect width=".64282" height=".64283" x=".75020" y="8.8574" fill-rule="evenodd"/>
</svg>
