<?xml version="1.0" encoding="UTF-8"?>
<!-- Licensed under the Creative Commons Attribution-Share Alike 3.0 United States License (http://creativecommons.org/licenses/by-sa/3.0/) -->
<svg xmlns="http://www.w3.org/2000/svg" id="root" version="1.1" viewBox="0 0 16 16">
 <path d="m4 4h1c0.01037-0.00012 0.02079-0.00046 0.03125 0 0.25495 0.0112 0.50987 0.12858 0.6875 0.3125l2.2812 2.2813 2.312-2.2813c0.266-0.2305 0.447-0.3055 0.688-0.3125h1v1c0 0.28647-0.03434 0.55065-0.25 0.75l-2.2812 2.2812 2.25 2.25c0.188 0.188 0.281 0.454 0.281 0.719v1h-1c-0.2653-0.00001-0.53059-0.0931-0.71875-0.28125l-2.281-2.2815-2.2812 2.2815c-0.1882 0.188-0.4535 0.281-0.7188 0.281h-1v-1c-0.000003-0.26529 0.09306-0.53058 0.28125-0.71875l2.2813-2.2498-2.2813-2.2812c-0.2107-0.1946-0.3031-0.4692-0.2812-0.75v-1z"/>
</svg>
