<?xml version="1.0" encoding="UTF-8"?>
<!-- Licensed under the Creative Commons Attribution-Share Alike 3.0 United States License (http://creativecommons.org/licenses/by-sa/3.0/) -->
<svg xmlns="http://www.w3.org/2000/svg" id="root" version="1.1" viewBox="0 0 16 16">
 <path fill="currentColor" d="m2.1875 0.5c-1.2055 0-2.1875 1.0167-2.1875 2.2188v10.562c0 1.202 0.98197 2.219 2.1875 2.219h11.625c1.206 0 2.188-1.017 2.188-2.219v-10.562c0-1.2023-0.982-2.219-2.188-2.219h-11.625zm0 2h11.625c0.123 0 0.188 0.0809 0.188 0.2188v10.562c0 0.138-0.065 0.219-0.188 0.219h-11.625c-0.1223 0-0.187-0.081-0.187-0.219v-10.562c0-0.1381 0.0647-0.219 0.1875-0.219z"/>
 <path fill="currentColor" d="m4.3125 6.4062a0.60006 0.60006 0 0 0 -0.25 1.0313l1.5625 1.5625-1.5625 1.562a0.61872 0.61872 0 1 0 0.875 0.875l2-2a0.60006 0.60006 0 0 0 0 -0.875l-2-2a0.60006 0.60006 0 0 0 -0.625 -0.1558z"/>
 <rect width="3" height="1" x="8" y="10.5" fill="currentColor"/>
</svg>
