<?xml version="1.0" encoding="UTF-8"?>
<!-- Licensed under the Creative Commons Attribution-Share Alike 3.0 United States License (http://creativecommons.org/licenses/by-sa/3.0/) -->
<svg xmlns="http://www.w3.org/2000/svg" id="root" version="1.1" viewBox="0 0 16 16">
 <path fill="#bebebe" d="m2.8124 0.50055a1.0001 1.0001 0 0 0 -0.8125 1v13a1.0001 1.0001 0 0 0 1 1h10a1.0001 1.0001 0 0 0 1 -1v-9.4375a1.0001 1.0001 0 0 0 -0.28125 -0.71875l-3.563-3.563a1.0001 1.0001 0 0 0 -0.71875 -0.28125h-6.4375a1.0001 1.0001 0 0 0 -0.0937 0 1.0001 1.0001 0 0 0 -0.0937 0zm1.1875 2h5v3h3v8h-8v-11z"/>
 <path fill="#bebebe" d="m9.4173 6.111c-0.86023 0-1.5563 0.72246-1.5563 1.5827s0.69608 1.5563 1.5563 1.5563c0.86024 0 1.5827-0.69608 1.5827-1.5563 0-0.86023-0.72246-1.5827-1.5827-1.5827zm0 1.0024c0.3198 0 0.58032 0.26053 0.58032 0.58032 0 0.3198-0.26052 0.55395-0.58032 0.55395s-0.55394-0.23415-0.55394-0.55395c0-0.31979 0.23414-0.58032 0.55394-0.58032z"/>
 <rect width="2.1" height="5.5" x="5" y="3.5589" fill="#bebebe"/>
 <rect width="6" height="2.4" x="5" y="10.1" fill="#bebebe"/>
</svg>
