<?xml version="1.0" encoding="UTF-8" standalone="no"?>
<!-- Created with Inkscape (http://www.inkscape.org/) -->

<svg
   xmlns:dc="http://purl.org/dc/elements/1.1/"
   xmlns:cc="http://creativecommons.org/ns#"
   xmlns:rdf="http://www.w3.org/1999/02/22-rdf-syntax-ns#"
   xmlns:svg="http://www.w3.org/2000/svg"
   xmlns="http://www.w3.org/2000/svg"
   version="1.1"
   width="16"
   height="16"
   id="svg3012">
  <defs
     id="defs3014" />
  <metadata
     id="metadata3017">
    <rdf:RDF>
      <cc:Work
         rdf:about="">
        <dc:format>image/svg+xml</dc:format>
        <dc:type
           rdf:resource="http://purl.org/dc/dcmitype/StillImage" />
        <dc:title></dc:title>
        <cc:license
           rdf:resource="http://creativecommons.org/licenses/by-sa/3.0/" />
      </cc:Work>
      <cc:License
         rdf:about="http://creativecommons.org/licenses/by-sa/3.0/">
        <cc:permits
           rdf:resource="http://creativecommons.org/ns#Reproduction" />
        <cc:permits
           rdf:resource="http://creativecommons.org/ns#Distribution" />
        <cc:requires
           rdf:resource="http://creativecommons.org/ns#Notice" />
        <cc:requires
           rdf:resource="http://creativecommons.org/ns#Attribution" />
        <cc:permits
           rdf:resource="http://creativecommons.org/ns#DerivativeWorks" />
        <cc:requires
           rdf:resource="http://creativecommons.org/ns#ShareAlike" />
      </cc:License>
    </rdf:RDF>
  </metadata>
  <g
     id="layer1">
    <path
       d="m 2.8124436,0.50054895 a 1.0000999,1.0000999 0 0 0 -0.8125,1.00000005 l 0,13 a 1.0000999,1.0000999 0 0 0 1.0000001,1 l 9.9999993,0 a 1.0000999,1.0000999 0 0 0 1,-1 l 0,-9.4375 a 1.0000999,1.0000999 0 0 0 -0.28125,-0.71875 L 10.156194,0.78179895 a 1.0000999,1.0000999 0 0 0 -0.7187503,-0.28125 l -6.4375,0 a 1.0000999,1.0000999 0 0 0 -0.0937,0 1.0000999,1.0000999 0 0 0 -0.0937,0 z m 1.1875001,2.00000005 5,0 0,3 2.9999993,0 0,8 -7.9999993,0 0,-11 z"
       id="path35724"
       style="font-size:medium;font-style:normal;font-variant:normal;font-weight:normal;font-stretch:normal;text-indent:0;text-align:start;text-decoration:none;line-height:normal;letter-spacing:normal;word-spacing:normal;text-transform:none;direction:ltr;block-progression:tb;writing-mode:lr-tb;text-anchor:start;baseline-shift:baseline;color:#000000;fill:#bebebe;fill-opacity:1;stroke:none;stroke-width:1.99999988;marker:none;visibility:visible;display:inline;overflow:visible;enable-background:accumulate;font-family:Sans;-inkscape-font-specification:Sans" />
    <path
       d="m 9.4172809,6.11099 c -0.8602344,0 -1.55631,0.72246 -1.55631,1.58269 0,0.86024 0.6960756,1.55632 1.55631,1.55632 0.8602351,0 1.5826901,-0.69608 1.5826901,-1.55632 0,-0.86023 -0.722455,-1.58269 -1.5826901,-1.58269 z m 0,1.00237 c 0.3197979,0 0.5803159,0.26053 0.5803159,0.58032 0,0.3198 -0.260518,0.55395 -0.5803159,0.55395 -0.319798,0 -0.553936,-0.23415 -0.553936,-0.55395 0,-0.31979 0.234138,-0.58032 0.553936,-0.58032 z"
       id="path35728"
       style="font-size:medium;font-style:normal;font-variant:normal;font-weight:normal;font-stretch:normal;text-indent:0;text-align:start;text-decoration:none;line-height:normal;letter-spacing:normal;word-spacing:normal;text-transform:none;direction:ltr;block-progression:tb;writing-mode:lr-tb;text-anchor:start;baseline-shift:baseline;color:#000000;fill:#bebebe;fill-opacity:1;stroke:none;stroke-width:1.18468678;marker:none;visibility:visible;display:inline;overflow:visible;enable-background:accumulate;font-family:Sans;-inkscape-font-specification:Sans" />
    <rect
       width="2.0999999"
       height="5.5"
       x="4.9999571"
       y="3.5589108"
       id="rect35730"
       style="color:#000000;fill:#bebebe;fill-opacity:1;fill-rule:nonzero;stroke:none;stroke-width:1;marker:none;visibility:visible;display:inline;overflow:visible;enable-background:accumulate" />
    <rect
       width="6.0000138"
       height="2.4000001"
       x="4.9999571"
       y="10.10043"
       id="rect35734"
       style="color:#000000;fill:#bebebe;fill-opacity:1;fill-rule:nonzero;stroke:none;stroke-width:1;marker:none;visibility:visible;display:inline;overflow:visible;enable-background:accumulate" />
  </g>
</svg>
