<?xml version="1.0" encoding="UTF-8"?>
<!-- Licensed under the Creative Commons Attribution-Share Alike 3.0 United States License (http://creativecommons.org/licenses/by-sa/3.0/) -->
<svg xmlns="http://www.w3.org/2000/svg" id="root" version="1.1" viewBox="0 0 16 16">
 <path d="m7.9012 0.008034c-0.2434 0.046493-0.4366 0.28375-0.4322 0.53196v0.6317c-3.3628 0.2615-6.0392 2.9292-6.317 6.2837h-0.53196c-0.033035-0.00319-0.066707-0.00319-0.099742 0-0.27869 0.025321-0.52481 0.31938-0.49871 0.59845 0.02613 0.27908 0.31992 0.49246 0.59845 0.46546h0.53196c0.24742 3.3854 2.932 6.1202 6.317 6.3835v0.53196c-0.0043 0.281 0.2514 0.565 0.532 0.565s0.5359-0.284 0.5319-0.565v-0.53196c3.4071-0.253 6.1181-3.008 6.3501-6.4169h0.5652c0.28058 0.00426 0.53196-0.25089 0.53196-0.53196 0-0.28106-0.25138-0.53594-0.53196-0.53196h-0.5652c-0.293-3.3472-2.987-6.0009-6.3501-6.2505v-0.6317c0.0053-0.31511-0.3226-0.59107-0.6317-0.53197zm-0.46546 3.3247v0.53196c-0.00426 0.28058 0.25089 0.53196 0.53196 0.53196 0.28106 0 0.53594-0.25138 0.53196-0.53196v-0.53196c2.2324 0.2309 3.9734 1.9338 4.2224 4.156h-0.5652c-0.28058-0.00398-0.53196 0.25089-0.53196 0.53196 0 0.28106 0.25138 0.53621 0.53196 0.53196h0.5652c-0.24169 2.2348-1.9832 3.9881-4.2224 4.2224v-0.5652c0.00398-0.28058-0.25089-0.53196-0.53196-0.53196-0.28106 0-0.53621 0.25138-0.53196 0.53196v0.53196c-2.2127-0.262-3.9286-1.999-4.1559-4.2226h0.53196c0.28058 0.00426 0.53196-0.25089 0.53196-0.53196 0-0.28106-0.25138-0.53594-0.53196-0.53196h-0.49871c0.2686-2.1715 1.9445-3.8688 4.1226-4.1227z"/>
 <path d="m9.0449 7.9748a1.0639 1.0639 0 0 1 -2.1278 0 1.0639 1.0639 0 1 1 2.1278 0z"/>
</svg>
