<?xml version="1.0" encoding="UTF-8" standalone="no"?>
<!-- Licensed under the Creative Commons Attribution-Share Alike 3.0 United States License (http://creativecommons.org/licenses/by-sa/3.0/) -->
<svg xmlns="http://www.w3.org/2000/svg" version="1.1" viewBox="0 0 16 16">
 <g transform="matrix(1.0639 0 0 1.0639 -.51036 -.49068)">
  <path style="block-progression:tb;text-indent:0;color:#000000;text-transform:none" d="m7.9062 0.46875c-0.2288 0.0437-0.4103 0.2667-0.4062 0.5v0.59375c-3.1608 0.2458-5.6764 2.7532-5.9375 5.9063h-0.5c-0.03105-0.003-0.0627-0.003-0.09375 0-0.26195 0.0238-0.49328 0.3001-0.46875 0.5624 0.02456 0.2624 0.3007 0.4629 0.5625 0.4376h0.5c0.23256 3.182 2.7559 5.7526 5.9375 6v0.5c-0.004 0.264 0.2363 0.531 0.5 0.531 0.26374 0 0.50372-0.26709 0.5-0.53125v-0.5c3.2026-0.23774 5.7502-2.8272 5.9688-6.0312h0.53125c0.26372 0.004 0.5-0.23582 0.5-0.5s-0.23628-0.50374-0.5-0.5h-0.53125c-0.276-3.1464-2.808-5.6406-5.969-5.8753v-0.59375c0.005-0.29617-0.3033-0.55555-0.5938-0.5zm-0.4375 3.125v0.5c-0.004 0.26372 0.23582 0.5 0.5 0.5s0.50374-0.23628 0.5-0.5v-0.5c2.0983 0.2169 3.7343 1.8175 3.9693 3.9062h-0.53125c-0.26372-0.00374-0.5 0.23582-0.5 0.5s0.23628 0.504 0.5 0.5h0.53125c-0.22717 2.1005-1.8641 3.7485-3.9688 3.9688v-0.53125c0.00374-0.26372-0.23582-0.5-0.5-0.5s-0.504 0.23628-0.5 0.5v0.5c-2.0803-0.246-3.6931-1.879-3.9067-3.9692h0.5c0.26372 0.004 0.5-0.23582 0.5-0.5s-0.23628-0.50374-0.5-0.5h-0.46875c0.25248-2.041 1.8277-3.6363 3.875-3.875z"/>
  <path style="color:#000000;enable-background:new" d="m8.9812 7.9569a1 1 0 0 1 -2 0 1 1 0 1 1 2 0z"/>
 </g>
</svg>
