<?xml version="1.0" encoding="UTF-8"?>
<!-- Licensed under the Creative Commons Attribution-Share Alike 3.0 United States License (http://creativecommons.org/licenses/by-sa/3.0/) -->
<svg xmlns="http://www.w3.org/2000/svg" version="1.1" viewBox="0 0 16 16">
 <path d="m-55 295a1.5 2 0 1 1 -3 0 1.5 2 0 1 1 3 0z" transform="matrix(.97978 0 0 .73483 58.342 -203.8)" class="filled"/>
 <path d="m-55 295a1.5 2 0 1 1 -3 0 1.5 2 0 1 1 3 0z" transform="matrix(.97978 0 0 .73483 68.374 -213.76)" class="filled"/>
 <path d="m12.523 3.9785v1s-0.03702 2.2264-0.59375 3.5625c-0.13918 0.33404-0.29669 0.61607-0.46875 0.78125s-0.31302 0.21875-0.53125 0.21875c-0.43646 0-1.3206-0.42223-2.5312-1.875-1.2937-1.5525-2.3208-2.226-3.3125-2.0938-0.49585 0.06611-0.91864 0.35861-1.2188 0.71875-0.30011 0.36014-0.51857 0.80824-0.6875 1.2812-0.67573 1.892-0.65625 4.4063-0.65625 4.4063h1s0.019479-2.4858 0.59375-4.0938c0.14357-0.40199 0.34308-0.74295 0.53125-0.96875s0.35522-0.31611 0.5625-0.34375c0.41456-0.05527 1.2312 0.27122 2.4375 1.7188 1.2894 1.5472 2.3115 2.25 3.2812 2.25 0.4849 0 0.90253-0.19643 1.2188-0.5 0.31622-0.30357 0.54543-0.70904 0.71875-1.125 0.69328-1.6639 0.65625-3.9375 0.65625-3.9375v-1h-1z" class="filled"/>
</svg>
