<?xml version="1.0" encoding="UTF-8"?>
<!-- Licensed under the Creative Commons Attribution-Share Alike 3.0 United States License (http://creativecommons.org/licenses/by-sa/3.0/) -->
<svg xmlns="http://www.w3.org/2000/svg" id="root" version="1.1" viewBox="0 0 16 16">
 <path d="m13.929 0.14286-2.393 2.6071c-1.025-1.0575-2.3209-1.7143-3.7503-1.7143-1.3478 0-2.6105 0.58459-3.6071 1.5357l-2.1786-2.3214-0.8214 0.7857 2.25 2.3929c-0.6439 0.8686-1.1039 1.931-1.3572 3.1071-0.1067 0.4957-0.1569 1.0051-0.1785 1.5357h-1.8929v1.1429h1.8929c0.0907 1.1127 0.3795 2.1227 0.8214 3.0357l-1.8214 1.964 0.8214 0.786 1.5714-1.714c1.0873 1.5697 2.7125 2.5714 4.5 2.5714 1.8529 0 3.5198-1.0798 4.6071-2.75l1.8214 1.9643 0.82143-0.75-2.1071-2.2857c0.38387-0.85846 0.66652-1.7971 0.75-2.8214h2.3214v-1.1429h-2.3214c-0.022-0.5309-0.108-1.0403-0.215-1.536-0.143-0.6646-0.366-1.2799-0.643-1.8571-0.18-0.3766-0.342-0.742-0.571-1.0715l2.5-2.6785-0.821-0.78574zm-10.786 6.3928h4.0714v8c-2.4374-0.35-4.3214-2.928-4.3214-6.0717 0-0.67366 0.090183-1.3234 0.25-1.9286zm5.5714 0h3.6786c0.16037 0.60612 0.25 1.2537 0.25 1.9286 0 2.9762-1.6802 5.4132-3.9286 5.9643v-7.8929z"/>
</svg>
