<?xml version="1.0" encoding="UTF-8"?>
<!-- Licensed under the Creative Commons Attribution-Share Alike 3.0 United States License (http://creativecommons.org/licenses/by-sa/3.0/) -->
<svg xmlns="http://www.w3.org/2000/svg" id="root" version="1.1" viewBox="0 0 16 14">
 <path fill="currentColor" d="m13.723 1c0.68784 0.05559 1.2842 0.59506 1.2812 1.1875v9.625c0.002 0.03747 0.002 0.05628 0 0.09375v1.094h-14v-0.96875c-0.0082-0.07477-0.0082-0.14398 0-0.21875v-9.6245c0.0007-0.6282 0.6742-1.1874 1.4069-1.1875h11.187c0.04369-0.00176 0.08131-0.00176 0.125 0zm-1.7188 2h-4.0937c-0.017326-0.0005328-0.045174-0.0005328-0.0625 0h-0.84375v0.65625c-0.00211 0.034616-0.00211 0.059135 0 0.09375-0.010826 0.077482-0.010826 0.17252 0 0.25v4h0.6875c0.74378 0 1-0.093119 1-0.84375v-1.2812l1.8755 1.875c0.13236 0.13015 0.31544 0.23005 0.5 0.25 0.69913 0.11488 1.2372-0.95471 0.71875-1.4375l-1.9064-1.9063h1.2813c0.65464 0 0.84375-0.33135 0.84375-0.96875zm-5.9994 0h-3v8h3z"/>
</svg>
