<?xml version="1.0" encoding="UTF-8" standalone="no"?>
<!-- Created with Inkscape (http://www.inkscape.org/) -->

<svg
   xmlns:dc="http://purl.org/dc/elements/1.1/"
   xmlns:cc="http://creativecommons.org/ns#"
   xmlns:rdf="http://www.w3.org/1999/02/22-rdf-syntax-ns#"
   xmlns:svg="http://www.w3.org/2000/svg"
   xmlns="http://www.w3.org/2000/svg"
   version="1.1"
   width="16"
   height="14"
   id="svg3020">
  <defs
     id="defs3022" />
  <metadata
     id="metadata3025">
    <rdf:RDF>
      <cc:Work
         rdf:about="">
        <dc:format>image/svg+xml</dc:format>
        <dc:type
           rdf:resource="http://purl.org/dc/dcmitype/StillImage" />
        <dc:title></dc:title>
        <cc:license
           rdf:resource="http://creativecommons.org/licenses/by-sa/3.0/" />
      </cc:Work>
      <cc:License
         rdf:about="http://creativecommons.org/licenses/by-sa/3.0/">
        <cc:permits
           rdf:resource="http://creativecommons.org/ns#Reproduction" />
        <cc:permits
           rdf:resource="http://creativecommons.org/ns#Distribution" />
        <cc:requires
           rdf:resource="http://creativecommons.org/ns#Notice" />
        <cc:requires
           rdf:resource="http://creativecommons.org/ns#Attribution" />
        <cc:permits
           rdf:resource="http://creativecommons.org/ns#DerivativeWorks" />
        <cc:requires
           rdf:resource="http://creativecommons.org/ns#ShareAlike" />
      </cc:License>
    </rdf:RDF>
  </metadata>
  <g
     transform="translate(0,-2)"
     id="layer1">
    <path
       d="M 2.28125,1 C 1.5934111,1.0555903 0.99702097,1.5950559 1,2.1875 l 0,9.625 c -0.00205,0.03747 -0.00205,0.05628 0,0.09375 L 1,13 l 1.1875,0 0.21875,0 11.1875,0 0.125,0 L 15,13 15,12.03125 c 0.0082,-0.07477 0.0082,-0.143979 0,-0.21875 l 0,-9.625 C 14.999927,1.5592677 14.326365,1.0000628 13.59375,1 L 2.40625,1 C 2.362556,0.99824 2.3249437,0.99824 2.28125,1 z m 5.59375,1.03125 0.625,0 0.03125,0 c 0.7392332,0 1,0.065018 1,0.8125 l 0,1.3125 1.875,-1.90625 c 0.131548,-0.1296029 0.316566,-0.198882 0.5,-0.21875 0.694857,-0.1144009 1.202829,0.956737 0.6875,1.4375 l -1.875,1.875 1.28125,0 c 0.650635,0 0.8125,0.3340245 0.8125,0.96875 l 0,0.6875 -0.75,0 L 12,7 8.8125,7 8.75,7 C 8.732779,7.0005306 8.704721,7.0005306 8.6875,7 l -0.0625,0 -0.75,0 0,-0.65625 C 7.87288,6.3092798 7.87288,6.28447 7.875,6.25 7.864241,6.1728426 7.864241,6.108407 7.875,6.03125 l 0,-3.1875 0,-0.0625 0,-0.75 z M 3,8 13,8 13,11 3,11 3,8 z"
       transform="translate(0,2)"
       id="rect13039-7"
       style="font-size:medium;font-style:normal;font-variant:normal;font-weight:normal;font-stretch:normal;text-indent:0;text-align:start;text-decoration:none;line-height:normal;letter-spacing:normal;word-spacing:normal;text-transform:none;direction:ltr;block-progression:tb;writing-mode:lr-tb;text-anchor:start;baseline-shift:baseline;color:#000000;fill-opacity:1;stroke:none;stroke-width:2;marker:none;visibility:visible;display:inline;overflow:visible;enable-background:new;font-family:Sans;-inkscape-font-specification:Sans" />
  </g>
</svg>
