<?xml version="1.0" encoding="UTF-8"?>
<!-- Licensed under the Creative Commons Attribution-Share Alike 3.0 United States License (http://creativecommons.org/licenses/by-sa/3.0/) -->
<svg xmlns="http://www.w3.org/2000/svg" id="root" version="1.1" viewBox="0 0 16 14">
 <path d="m2.2812 1c-0.6878 0.0556-1.2842 0.5951-1.2812 1.1875v9.625c-0.00205 0.03747-0.00205 0.05628 0 0.09375v1.094h1.1875 0.21875 11.188 0.125 1.281v-0.969c0.0082-0.07477 0.0082-0.14398 0-0.21875v-9.625c0-0.6277-0.674-1.1869-1.406-1.187h-11.188c-0.0434-0.00176-0.0811-0.00176-0.1248 0zm5.5938 1.0312h0.625 0.03125c0.73923 0 1 0.065018 1 0.8125v1.3125l1.875-1.9062c0.13155-0.1296 0.31657-0.19888 0.5-0.21875 0.69486-0.1144 1.2028 0.95674 0.6875 1.4375l-1.875 1.875h1.2812c0.65064 0 0.8125 0.33402 0.8125 0.96875v0.6875h-0.75l-0.062-0.0001h-3.1875-0.0625c-0.0172 0.0005-0.0453 0.0005-0.0625 0h-0.0625-0.75v-0.65625c-0.0021-0.0345-0.0021-0.0593 0-0.0938-0.0108-0.0772-0.0108-0.1416 0-0.2188v-3.1875-0.0625-0.75zm-4.875 5.9688h10v3h-10v-3z"/>
</svg>
