<?xml version="1.0" encoding="UTF-8"?>
<!-- Licensed under the Creative Commons Attribution-Share Alike 3.0 United States License (http://creativecommons.org/licenses/by-sa/3.0/) -->
<svg xmlns="http://www.w3.org/2000/svg" id="root" version="1.1" viewBox="0 0 16 14">
 <path fill="currentColor" d="m2.2812 1c-0.6878 0.0556-1.2842 0.5951-1.2812 1.1875v9.625c-0.00205 0.03747-0.00205 0.05628 0 0.09375v1.094h1.1875 0.21875 11.188 0.125 1.281v-0.969c0.0082-0.07477 0.0082-0.14398 0-0.21875v-9.625c0-0.6277-0.674-1.1869-1.406-1.187h-11.188c-0.0434-0.00176-0.0811-0.00176-0.1248 0zm1.7188 2h0.75 0.09375 3.1875 0.0625c0.017326-0.0005328 0.045174-0.0005328 0.0625 0h0.0626 0.7812v0.6562c0.0021 0.0347 0.0021 0.0592 0 0.0938 0.0108 0.0775 0.0108 0.1725 0 0.25v3.1562 0.0938 0.75h-0.6562-0.0313c-0.74378 0-1-0.093119-1-0.84375v-1.2812l-1.875 1.875c-0.1324 0.1301-0.3154 0.23-0.5 0.25-0.6991 0.1149-1.2373-0.9547-0.7187-1.4375l1.9062-1.9063h-1.2812c-0.6547 0-0.8438-0.3313-0.8438-0.9687v-0.6875zm6 0h3v8h-3v-8z"/>
</svg>
