<?xml version="1.0" encoding="UTF-8"?>
<!-- Licensed under the Creative Commons Attribution-Share Alike 3.0 United States License (http://creativecommons.org/licenses/by-sa/3.0/) -->
<svg xmlns="http://www.w3.org/2000/svg" id="root" version="1.1" viewBox="0 0 16 16">
 <defs>
  <radialGradient id="b" cx="301" cy="51.5" r="19.5" gradientUnits="userSpaceOnUse" gradientTransform="matrix(.97063 1.9684e-8 0 .28611 -291.16 -14.63)">
   <stop stop-color="#fff" offset="0"/>
   <stop stop-color="#fff" stop-opacity="0" offset="1"/>
  </radialGradient>
  <radialGradient id="a" cx="24.446" cy="35.878" r="20.531" gradientUnits="userSpaceOnUse" gradientTransform="matrix(.85696 3.2529e-7 -1.253e-7 .33010 -12.949 .77181)">
   <stop stop-color="#fff" offset="0"/>
   <stop stop-color="#dcdcdc" offset="1"/>
  </radialGradient>
  <linearGradient id="c" x1="321.57" x2="311.65" y1="145.52" y2="118.5" gradientUnits="userSpaceOnUse" gradientTransform="matrix(.55569 0 0 .55568 -169.27 -70.906)">
   <stop stop-color="#9b9b9b" offset="0"/>
   <stop stop-color="#d3d7cf" offset="1"/>
  </linearGradient>
  <linearGradient id="d" x1="491.22" x2="491.22" y1="506.65" y2="732.05" gradientUnits="userSpaceOnUse" gradientTransform="matrix(.093294 0 0 .093294 -35.871 -43.769)">
   <stop stop-color="#888a85" offset="0"/>
   <stop stop-color="#d3d7cf" offset="1"/>
  </linearGradient>
 </defs>
 <rect width="15.004" height="15.003" x=".49815" y=".49833" fill="url(#a)" fill-rule="evenodd" stroke="url(#c)" stroke-miterlimit="10" rx="1.5143" ry="1.5143" stroke-linejoin="bevel"/>
 <rect width="12.997" height="13" x="1.5014" y="1.5016" fill="none" stroke="#fff" stroke-miterlimit="10" ry=".50810" stroke-linejoin="bevel" rx=".50812"/>
 <rect width="14" height="14" x="1.0017" y="1.0016" fill="url(#b)" fill-rule="evenodd" rx="1.9062" ry="1.9062"/>
 <path fill="#fff" d="m4.2791 4.8511a0.25002 0.25002 0 0 0 -0.03125 0.03125 0.25002 0.25002 0 0 0 -0.0625 0.0625 0.25002 0.25002 0 0 0 -0.03125 0.0625 0.25002 0.25002 0 0 0 0 0.0625 0.25002 0.25002 0 0 0 0 0.03125v8a0.25002 0.25002 0 0 0 0 0.0625 0.25002 0.25002 0 0 0 0.0625 0.09375 0.25002 0.25002 0 0 0 0.03125 0.03125 0.25002 0.25002 0 0 0 0.09375 0.03125 0.25002 0.25002 0 0 0 0.0625 0.03125h2c0.65883 0 1.3832-0.01226 2.0938-0.1875 0.01009-0.0024 0.02121 0.0025 0.03125 0 1.1558-0.28345 1.963-0.96115 2.4375-1.75 0.47865-0.7957 0.65625-1.715 0.65625-2.5625 0-0.86908-0.24254-1.8618-0.9375-2.6562-0.69495-0.79446-1.8527-1.3438-3.5937-1.3438h-2.6875a0.25002 0.25002 0 0 0 -0.0625 0 0.25002 0.25002 0 0 0 -0.03125 0 0.25002 0.25002 0 0 0 -0.03125 0zm1.7813 1.7812h1.0625c0.85144 0 1.4595 0.20476 1.875 0.59375 0.41551 0.38899 0.65625 0.98412 0.65625 1.8125 0 0.70312-0.17815 1.1373-0.3125 1.375-0.29654 0.54626-0.72126 0.82297-1.1875 0.96875s-0.9715 0.15625-1.4062 0.15625h-0.6875v-4.9062z" display="block"/>
 <path fill="url(#d)" d="m4.3308 3.8207a0.25002 0.25002 0 0 0 -0.03125 0.03125 0.25002 0.25002 0 0 0 -0.0625 0.0625 0.25002 0.25002 0 0 0 -0.03125 0.0625 0.25002 0.25002 0 0 0 0 0.0625 0.25002 0.25002 0 0 0 0 0.03125v8a0.25002 0.25002 0 0 0 0 0.0625 0.25002 0.25002 0 0 0 0.0625 0.09375 0.25002 0.25002 0 0 0 0.03125 0.03125 0.25002 0.25002 0 0 0 0.09375 0.03125 0.25002 0.25002 0 0 0 0.0625 0.03125h2c0.65883 0 1.3832-0.01226 2.0938-0.1875 0.01009-0.0024 0.02121 0.0025 0.03125 0 1.1558-0.28345 1.963-0.96115 2.4375-1.75 0.47865-0.7957 0.65625-1.715 0.65625-2.5625 0-0.86908-0.24254-1.8618-0.9375-2.6562-0.69496-0.79446-1.8527-1.3438-3.5937-1.3438h-2.6875a0.25002 0.25002 0 0 0 -0.0625 0 0.25002 0.25002 0 0 0 -0.03125 0 0.25002 0.25002 0 0 0 -0.03125 0zm1.7813 1.7812h1.0625c0.85144 0 1.4595 0.20476 1.875 0.59375 0.41551 0.38899 0.65625 0.98412 0.65625 1.8125 0 0.70312-0.17815 1.1373-0.3125 1.375-0.29654 0.54626-0.72126 0.82297-1.1875 0.96875s-0.9715 0.15625-1.4062 0.15625h-0.6875v-4.9062z" display="block"/>
</svg>
