<?xml version="1.0" encoding="UTF-8" standalone="no"?>
<!-- Licensed under the Creative Commons Attribution-Share Alike 3.0 United States License (http://creativecommons.org/licenses/by-sa/3.0/) -->
<svg xmlns="http://www.w3.org/2000/svg" version="1.1" viewBox="0 0 16 16">
 <defs>
  <radialGradient id="b" gradientUnits="userSpaceOnUse" cy="51.5" cx="301" gradientTransform="matrix(.97063 1.9684e-8 0 .28611 -291.16 -14.63)" r="19.5">
   <stop stop-color="#fff" offset="0"/>
   <stop stop-color="#fff" stop-opacity="0" offset="1"/>
  </radialGradient>
  <radialGradient id="a" gradientUnits="userSpaceOnUse" cy="35.878" cx="24.446" gradientTransform="matrix(.85696 3.2529e-7 -1.253e-7 .33010 -12.949 .77181)" r="20.531">
   <stop stop-color="#fff" offset="0"/>
   <stop stop-color="#dcdcdc" offset="1"/>
  </radialGradient>
  <linearGradient id="c" y2="118.5" gradientUnits="userSpaceOnUse" x2="311.65" gradientTransform="matrix(.55569 0 0 .55568 -169.27 -70.906)" y1="145.52" x1="321.57">
   <stop stop-color="#9b9b9b" offset="0"/>
   <stop stop-color="#d3d7cf" offset="1"/>
  </linearGradient>
  <linearGradient id="d" y2="732.05" gradientUnits="userSpaceOnUse" x2="491.22" gradientTransform="matrix(.093294 0 0 .093294 -35.871 -43.769)" y1="506.65" x1="491.22">
   <stop stop-color="#888a85" offset="0"/>
   <stop stop-color="#d3d7cf" offset="1"/>
  </linearGradient>
 </defs>
 <rect stroke-linejoin="bevel" height="15.003" stroke="url(#c)" fill="url(#a)" style="enable-background:new" fill-rule="evenodd" rx="1.5143" ry="1.5143" width="15.004" stroke-miterlimit="10" y=".49833" x=".49815"/>
 <rect stroke-linejoin="bevel" style="enable-background:new" rx=".50812" ry=".50810" height="13" width="12.997" stroke="#fff" stroke-miterlimit="10" y="1.5016" x="1.5014" fill="none"/>
 <rect style="enable-background:new" fill-rule="evenodd" rx="1.9062" ry="1.9062" height="14" width="14" y="1.0016" x="1.0017" fill="url(#b)"/>
 <path style="color:#000000;enable-background:new" d="m4.2791 4.8511a0.25002 0.25002 0 0 0 -0.03125 0.03125 0.25002 0.25002 0 0 0 -0.0625 0.0625 0.25002 0.25002 0 0 0 -0.03125 0.0625 0.25002 0.25002 0 0 0 0 0.0625 0.25002 0.25002 0 0 0 0 0.03125v8a0.25002 0.25002 0 0 0 0 0.0625 0.25002 0.25002 0 0 0 0.0625 0.09375 0.25002 0.25002 0 0 0 0.03125 0.03125 0.25002 0.25002 0 0 0 0.09375 0.03125 0.25002 0.25002 0 0 0 0.0625 0.03125h2c0.65883 0 1.3832-0.01226 2.0938-0.1875 0.01009-0.0024 0.02121 0.0025 0.03125 0 1.1558-0.28345 1.963-0.96115 2.4375-1.75 0.47865-0.7957 0.65625-1.715 0.65625-2.5625 0-0.86908-0.24254-1.8618-0.9375-2.6562-0.69495-0.79446-1.8527-1.3438-3.5937-1.3438h-2.6875a0.25002 0.25002 0 0 0 -0.0625 0 0.25002 0.25002 0 0 0 -0.03125 0 0.25002 0.25002 0 0 0 -0.03125 0zm1.7813 1.7812h1.0625c0.85144 0 1.4595 0.20476 1.875 0.59375 0.41551 0.38899 0.65625 0.98412 0.65625 1.8125 0 0.70312-0.17815 1.1373-0.3125 1.375-0.29654 0.54626-0.72126 0.82297-1.1875 0.96875s-0.9715 0.15625-1.4062 0.15625h-0.6875v-4.9062z" display="block" fill="#fff"/>
 <path style="color:#000000;enable-background:new" d="m4.3308 3.8207a0.25002 0.25002 0 0 0 -0.03125 0.03125 0.25002 0.25002 0 0 0 -0.0625 0.0625 0.25002 0.25002 0 0 0 -0.03125 0.0625 0.25002 0.25002 0 0 0 0 0.0625 0.25002 0.25002 0 0 0 0 0.03125v8a0.25002 0.25002 0 0 0 0 0.0625 0.25002 0.25002 0 0 0 0.0625 0.09375 0.25002 0.25002 0 0 0 0.03125 0.03125 0.25002 0.25002 0 0 0 0.09375 0.03125 0.25002 0.25002 0 0 0 0.0625 0.03125h2c0.65883 0 1.3832-0.01226 2.0938-0.1875 0.01009-0.0024 0.02121 0.0025 0.03125 0 1.1558-0.28345 1.963-0.96115 2.4375-1.75 0.47865-0.7957 0.65625-1.715 0.65625-2.5625 0-0.86908-0.24254-1.8618-0.9375-2.6562-0.69496-0.79446-1.8527-1.3438-3.5937-1.3438h-2.6875a0.25002 0.25002 0 0 0 -0.0625 0 0.25002 0.25002 0 0 0 -0.03125 0 0.25002 0.25002 0 0 0 -0.03125 0zm1.7813 1.7812h1.0625c0.85144 0 1.4595 0.20476 1.875 0.59375 0.41551 0.38899 0.65625 0.98412 0.65625 1.8125 0 0.70312-0.17815 1.1373-0.3125 1.375-0.29654 0.54626-0.72126 0.82297-1.1875 0.96875s-0.9715 0.15625-1.4062 0.15625h-0.6875v-4.9062z" display="block" fill="url(#d)"/>
</svg>
