<?xml version="1.0" encoding="UTF-8"?>
<!-- Licensed under the Creative Commons Attribution-Share Alike 3.0 United States License (http://creativecommons.org/licenses/by-sa/3.0/) -->
<svg xmlns="http://www.w3.org/2000/svg" id="root" version="1.1" viewBox="0 0 16 16">
 <path fill="currentColor" d="m4.3438 9c-0.10481 0.041893-0.19456 0.12043-0.25 0.21875l-1 1.5c-0.1172 0.134-0.0938 0.211-0.0938 0.5-0.0013 0.021-0.0013 0.041 0 0.062v3.719h10v-3.688-0.062c0-0.37949 0.03493-0.39156-0.09375-0.53125l-1-1.5c-0.105-0.1611-0.31-0.2506-0.5-0.219-0.327 0.0631-0.506 0.5098-0.312 0.7812l0.812 1.2188h-7.8122l0.8124-1.2188c0.2295-0.3226-0.1109-0.8544-0.5-0.7812-0.0208-0.0013-0.0416-0.0013-0.0624 0zm2 3.4375c0.0208-0.001 0.0417-0.001 0.0625 0 0.29096-0.0556 0.59898 0.20383 0.59375 0.5v0.062h2v-0.062c-0.004-0.26416 0.23582-0.5 0.5-0.5s0.50373 0.23584 0.5 0.5v0.062c0 0.54535-0.45465 1-1 1h-2c-0.5454 0-1-0.455-1-1v-0.0625c-0.0108-0.21706 0.13723-0.43234 0.34375-0.5z"/>
 <path fill="currentColor" d="m7 1v5.5625l-1.2812-1.2813c-0.1882-0.1881-0.4535-0.2812-0.7188-0.2812h-1v1c0.00001 0.2653 0.0931 0.53058 0.28125 0.71875l3 3 0.2813 0.2812h0.875l0.28125-0.28125 3-3c0.188-0.1882 0.281-0.4535 0.281-0.7188v-1h-1c-0.2653 0.00001-0.53059 0.0931-0.71875 0.28125l-1.281 1.2813v-5.5625z"/>
</svg>
