<?xml version="1.0" encoding="UTF-8" standalone="no"?>
<!-- Licensed under the Creative Commons Attribution-Share Alike 3.0 United States License (http://creativecommons.org/licenses/by-sa/3.0/) -->
<svg xmlns="http://www.w3.org/2000/svg" version="1.1" viewBox="0 0 16 16">
 <defs>
  <radialGradient id="b" gradientUnits="userSpaceOnUse" cy="51.5" cx="301" gradientTransform="matrix(.97063 1.9684e-8 0 .28611 -291.16 -14.63)" r="19.5">
   <stop stop-color="#fff" offset="0"/>
   <stop stop-color="#fff" stop-opacity="0" offset="1"/>
  </radialGradient>
  <radialGradient id="a" gradientUnits="userSpaceOnUse" cy="35.878" cx="24.446" gradientTransform="matrix(.85696 3.2529e-7 -1.253e-7 .33010 -12.949 .77181)" r="20.531">
   <stop stop-color="#fff" offset="0"/>
   <stop stop-color="#fee2ba" offset="1"/>
  </radialGradient>
  <linearGradient id="c" y2="118.5" gradientUnits="userSpaceOnUse" x2="311.65" gradientTransform="matrix(.55569 0 0 .55568 -169.27 -70.906)" y1="145.52" x1="321.57">
   <stop stop-color="#ce5c00" offset="0"/>
   <stop stop-color="#fedba8" offset="1"/>
  </linearGradient>
  <linearGradient id="d" y2="732.05" gradientUnits="userSpaceOnUse" x2="491.22" gradientTransform="matrix(.093294 0 0 .093294 -35.871 -43.769)" y1="506.65" x1="491.22">
   <stop stop-color="#ce5c00" offset="0"/>
   <stop stop-color="#fedba8" offset="1"/>
  </linearGradient>
 </defs>
 <g>
  <rect stroke-linejoin="bevel" height="15.003" stroke="url(#c)" fill="url(#a)" style="enable-background:new" fill-rule="evenodd" rx="1.5143" ry="1.5143" width="15.004" stroke-miterlimit="10" y=".49833" x=".49815"/>
  <rect stroke-linejoin="bevel" style="enable-background:new" rx=".50812" ry=".50810" height="13" width="12.997" stroke="#fff" stroke-miterlimit="10" y="1.5016" x="1.5014" fill="none"/>
  <rect style="enable-background:new" fill-rule="evenodd" rx="1.9062" ry="1.9062" height="14" width="14" y="1.0016" x="1.0017" fill="url(#b)"/>
  <path style="color:#000000;enable-background:new" d="m5.1843 4.8494a0.25002 0.25002 0 0 0 -0.03125 0.03125 0.25002 0.25002 0 0 0 -0.03125 0.03125 0.25002 0.25002 0 0 0 -0.0625 0.0625 0.25002 0.25002 0 0 0 -0.03125 0.0625 0.25002 0.25002 0 0 0 0 0.0625v8c-0.0026 0.02072-0.0026 0.04178 0 0.0625 0.0074 0.02216 0.01798 0.04326 0.03125 0.0625 0.02211 0.03888 0.05487 0.07164 0.09375 0.09375 0.0095 0.01131 0.01994 0.02178 0.03125 0.03125 0.02072 0.0026 0.04178 0.0026 0.0625 0 0.0104 0.000652 0.02085 0.000652 0.03125 0h5.2187a0.25002 0.25002 0 0 0 0.03125 0 0.25002 0.25002 0 0 0 0.0625 0 0.25002 0.25002 0 0 0 0.0625 -0.0625 0.25002 0.25002 0 0 0 0.03125 -0.03125 0.25002 0.25002 0 0 0 0.03125 -0.0625 0.25002 0.25002 0 0 0 0.03125 -0.09375v-1.3125a0.25002 0.25002 0 0 0 0 -0.0625 0.25002 0.25002 0 0 0 -0.03125 -0.0625 0.25002 0.25002 0 0 0 -0.0625 -0.0625 0.25002 0.25002 0 0 0 -0.03125 0 0.25002 0.25002 0 0 0 -0.03125 -0.03125 0.25002 0.25002 0 0 0 -0.03125 0 0.25002 0.25002 0 0 0 -0.0625 -0.03125h-3.5625v-1.5937h3.1562a0.25002 0.25002 0 0 0 0.0625 0 0.25002 0.25002 0 0 0 0.03125 -0.03125 0.25002 0.25002 0 0 0 0.0625 -0.03125 0.25002 0.25002 0 0 0 0.03125 -0.03125 0.25002 0.25002 0 0 0 0.03125 -0.03125 0.25002 0.25002 0 0 0 0.03125 -0.09375 0.25002 0.25002 0 0 0 0 -0.03125v-1.3125a0.25002 0.25002 0 0 0 -0.03125 -0.09375 0.25002 0.25002 0 0 0 -0.03125 -0.03125 0.25002 0.25002 0 0 0 -0.0625 -0.0625 0.25002 0.25002 0 0 0 -0.03125 0 0.25002 0.25002 0 0 0 -0.03125 -0.03125 0.25002 0.25002 0 0 0 -0.03125 0 0.25002 0.25002 0 0 0 -0.03125 -0.03125h-3.1562v-1.5h3.5625a0.25002 0.25002 0 0 0 0.03125 0 0.25002 0.25002 0 0 0 0.0625 0 0.25002 0.25002 0 0 0 0.03125 -0.03125 0.25002 0.25002 0 0 0 0.03125 0 0.25002 0.25002 0 0 0 0.0625 -0.0625 0.25002 0.25002 0 0 0 0 -0.03125 0.25002 0.25002 0 0 0 0.03125 -0.09375 0.25002 0.25002 0 0 0 0 -0.03125v-1.2812a0.25002 0.25002 0 0 0 -0.03125 -0.09375 0.25002 0.25002 0 0 0 -0.03125 -0.0625 0.25002 0.25002 0 0 0 -0.03125 -0.03125 0.25002 0.25002 0 0 0 -0.03125 -0.03125 0.25002 0.25002 0 0 0 -0.03125 0 0.25002 0.25002 0 0 0 -0.0625 -0.03125 0.25002 0.25002 0 0 0 -0.03125 0h-5.2187a0.25002 0.25002 0 0 0 -0.03125 0 0.25002 0.25002 0 0 0 -0.03125 0 0.25002 0.25002 0 0 0 -0.03125 0z" display="block" fill="#fff"/>
  <path style="color:#000000;enable-background:new" d="m5.2361 3.819a0.25002 0.25002 0 0 0 -0.03125 0.03125 0.25002 0.25002 0 0 0 -0.03125 0.03125 0.25002 0.25002 0 0 0 -0.0625 0.0625 0.25002 0.25002 0 0 0 -0.03125 0.0625 0.25002 0.25002 0 0 0 0 0.0625v8c-0.0026 0.02072-0.0026 0.04178 0 0.0625 0.0074 0.02216 0.01798 0.04326 0.03125 0.0625 0.02211 0.03888 0.05487 0.07164 0.09375 0.09375 0.0095 0.01131 0.01994 0.02178 0.03125 0.03125 0.02072 0.0026 0.04178 0.0026 0.0625 0 0.0104 0.000651 0.02085 0.000651 0.03125 0h5.2187a0.25002 0.25002 0 0 0 0.03125 0 0.25002 0.25002 0 0 0 0.0625 0 0.25002 0.25002 0 0 0 0.0625 -0.0625 0.25002 0.25002 0 0 0 0.03125 -0.03125 0.25002 0.25002 0 0 0 0.03125 -0.0625 0.25002 0.25002 0 0 0 0.03125 -0.09375v-1.3125a0.25002 0.25002 0 0 0 0 -0.0625 0.25002 0.25002 0 0 0 -0.03125 -0.0625 0.25002 0.25002 0 0 0 -0.0625 -0.0625 0.25002 0.25002 0 0 0 -0.03125 0 0.25002 0.25002 0 0 0 -0.03125 -0.03125 0.25002 0.25002 0 0 0 -0.03125 0 0.25002 0.25002 0 0 0 -0.0625 -0.03125h-3.5625v-1.5938h3.1562a0.25002 0.25002 0 0 0 0.0625 0 0.25002 0.25002 0 0 0 0.03125 -0.03125 0.25002 0.25002 0 0 0 0.0625 -0.03125 0.25002 0.25002 0 0 0 0.03125 -0.03125 0.25002 0.25002 0 0 0 0.03125 -0.03125 0.25002 0.25002 0 0 0 0.03125 -0.09375 0.25002 0.25002 0 0 0 0 -0.03125v-1.3125a0.25002 0.25002 0 0 0 -0.03125 -0.09375 0.25002 0.25002 0 0 0 -0.03125 -0.03125 0.25002 0.25002 0 0 0 -0.0625 -0.0625 0.25002 0.25002 0 0 0 -0.03125 0 0.25002 0.25002 0 0 0 -0.03125 -0.03125 0.25002 0.25002 0 0 0 -0.03125 0 0.25002 0.25002 0 0 0 -0.03125 -0.03125h-3.1562v-1.5h3.5625a0.25002 0.25002 0 0 0 0.03125 0 0.25002 0.25002 0 0 0 0.0625 0 0.25002 0.25002 0 0 0 0.03125 -0.03125 0.25002 0.25002 0 0 0 0.03125 0 0.25002 0.25002 0 0 0 0.0625 -0.0625 0.25002 0.25002 0 0 0 0 -0.03125 0.25002 0.25002 0 0 0 0.03125 -0.09375 0.25002 0.25002 0 0 0 0 -0.03125v-1.2812a0.25002 0.25002 0 0 0 -0.03125 -0.09375 0.25002 0.25002 0 0 0 -0.03125 -0.0625 0.25002 0.25002 0 0 0 -0.03125 -0.03125 0.25002 0.25002 0 0 0 -0.03125 -0.03125 0.25002 0.25002 0 0 0 -0.03125 0 0.25002 0.25002 0 0 0 -0.0625 -0.03125 0.25002 0.25002 0 0 0 -0.03125 0h-5.2187a0.25002 0.25002 0 0 0 -0.03125 0 0.25002 0.25002 0 0 0 -0.03125 0 0.25002 0.25002 0 0 0 -0.03125 0z" display="block" fill="url(#d)"/>
 </g>
</svg>
