<?xml version="1.0" encoding="UTF-8"?>
<!-- Licensed under the Creative Commons Attribution-Share Alike 3.0 United States License (http://creativecommons.org/licenses/by-sa/3.0/) -->
<svg xmlns="http://www.w3.org/2000/svg" id="root" version="1.1" viewBox="0 0 16 16">
 <defs>
  <linearGradient id="d" x1="491.22" x2="491.22" y1="506.65" y2="732.05" gradientUnits="userSpaceOnUse" gradientTransform="matrix(.093294 0 0 .093294 -35.871 -43.769)">
   <stop stop-color="#204a87" offset="0"/>
   <stop stop-color="#bdd2e9" offset="1"/>
  </linearGradient>
  <radialGradient id="b" cx="301" cy="51.5" r="19.5" gradientUnits="userSpaceOnUse" gradientTransform="matrix(.97063 1.9684e-8 0 .28611 -291.16 -14.63)">
   <stop stop-color="#fff" offset="0"/>
   <stop stop-color="#fff" stop-opacity="0" offset="1"/>
  </radialGradient>
  <radialGradient id="a" cx="24.446" cy="35.878" r="20.531" gradientUnits="userSpaceOnUse" gradientTransform="matrix(.85696 3.2529e-7 -1.253e-7 .33010 -12.949 .77181)">
   <stop stop-color="#fff" offset="0"/>
   <stop stop-color="#cbdbed" offset="1"/>
  </radialGradient>
  <linearGradient id="c" x1="321.57" x2="311.65" y1="145.52" y2="118.5" gradientUnits="userSpaceOnUse" gradientTransform="matrix(.55569 0 0 .55568 -169.27 -70.906)">
   <stop stop-color="#204a87" offset="0"/>
   <stop stop-color="#bdd2e9" offset="1"/>
  </linearGradient>
 </defs>
 <rect width="15.004" height="15.003" x=".49815" y=".49833" fill="url(#a)" fill-rule="evenodd" stroke="url(#c)" stroke-miterlimit="10" rx="1.5143" ry="1.5143" stroke-linejoin="bevel"/>
 <rect width="12.997" height="13" x="1.5014" y="1.5016" fill="none" stroke="#fff" stroke-miterlimit="10" ry=".50810" stroke-linejoin="bevel" rx=".50812"/>
 <rect width="14" height="14" x="1.0017" y="1.0016" fill="url(#b)" fill-rule="evenodd" rx="1.9062" ry="1.9062"/>
 <path fill="#fff" d="m3.1218 5.647a0.25002 0.25002 0 0 0 -0.03125 0.03125 0.25002 0.25002 0 0 0 -0.09375 0.09375 0.25002 0.25002 0 0 0 -0.03125 0.125v6.4063a0.25002 0.25002 0 0 0 0 0.0625 0.25002 0.25002 0 0 0 0.03125 0.09375 0.25002 0.25002 0 0 0 0.0625 0.0625 0.25002 0.25002 0 0 0 0.0625 0.03125 0.25002 0.25002 0 0 0 0.0625 0 0.25002 0.25002 0 0 0 0.03125 0h4.1562a0.25002 0.25002 0 0 0 0.09375 -0.03125 0.25002 0.25002 0 0 0 0.0625 -0.03125 0.25002 0.25002 0 0 0 0.0625 -0.125 0.25002 0.25002 0 0 0 0 -0.03125 0.25002 0.25002 0 0 0 0.03125 -0.03125v-1.0312a0.25002 0.25002 0 0 0 -0.03125 -0.0625 0.25002 0.25002 0 0 0 -0.03125 -0.0625 0.25002 0.25002 0 0 0 -0.09375 -0.09375 0.25002 0.25002 0 0 0 -0.09375 -0.03125h-2.7812v-1.1875h2.4688a0.25002 0.25002 0 0 0 0.09375 -0.03125 0.25002 0.25002 0 0 0 0.0625 -0.03125 0.25002 0.25002 0 0 0 0.0625 -0.125 0.25002 0.25002 0 0 0 0 -0.03125 0.25002 0.25002 0 0 0 0.03125 -0.03125v-1.0625a0.25002 0.25002 0 0 0 -0.03125 -0.0625 0.25002 0.25002 0 0 0 -0.03125 -0.0625 0.25002 0.25002 0 0 0 -0.09375 -0.09375 0.25002 0.25002 0 0 0 -0.09375 -0.03125h-2.4688v-1.0938h2.7812a0.25002 0.25002 0 0 0 0.09375 -0.03125 0.25002 0.25002 0 0 0 0.0625 -0.03125 0.25002 0.25002 0 0 0 0.0625 -0.125 0.25002 0.25002 0 0 0 0 -0.03125 0.25002 0.25002 0 0 0 0.03125 -0.03125v-1.0313a0.25002 0.25002 0 0 0 -0.03125 -0.0625 0.25002 0.25002 0 0 0 -0.03125 -0.0625 0.25002 0.25002 0 0 0 -0.09375 -0.09375 0.25002 0.25002 0 0 0 -0.09375 -0.03125h-4.1562a0.25002 0.25002 0 0 0 -0.0625 0 0.25002 0.25002 0 0 0 -0.03125 0zm4.8125 1.9375a0.25002 0.25002 0 0 0 -0.03125 0.03125 0.25002 0.25002 0 0 0 -0.09375 0.09375 0.25002 0.25002 0 0 0 -0.03125 0.125 0.25002 0.25002 0 0 0 0 0.0625 0.25002 0.25002 0 0 0 0 0.03125 0.25002 0.25002 0 0 0 0.03125 0.0625l1.5 2.1562-1.4062 2.0312a0.25002 0.25002 0 0 0 -0.03125 0.0625 0.25002 0.25002 0 0 0 0 0.0625 0.25002 0.25002 0 0 0 0 0.0625 0.25002 0.25002 0 0 0 0.03125 0.09375 0.25002 0.25002 0 0 0 0.0625 0.0625 0.25002 0.25002 0 0 0 0.0625 0.03125 0.25002 0.25002 0 0 0 0.0625 0 0.25002 0.25002 0 0 0 0.03125 0h1.2188a0.25002 0.25002 0 0 0 0.09375 -0.03125 0.25002 0.25002 0 0 0 0.0625 -0.03125 0.25002 0.25002 0 0 0 0.03125 -0.0625l0.71875-1.125 0.8125 1.1562a0.25002 0.25002 0 0 0 0.0625 0.0625 0.25002 0.25002 0 0 0 0.0625 0.03125 0.25002 0.25002 0 0 0 0.0625 0 0.25002 0.25002 0 0 0 0.03125 0h1.3125a0.25002 0.25002 0 0 0 0.09375 -0.03125 0.25002 0.25002 0 0 0 0.0625 -0.03125 0.25002 0.25002 0 0 0 0.0625 -0.125 0.25002 0.25002 0 0 0 0 -0.03125 0.25002 0.25002 0 0 0 0 -0.0625 0.25002 0.25002 0 0 0 0 -0.0625 0.25002 0.25002 0 0 0 -0.03125 -0.0625l-1.5312-2.0312 1.4688-2.125a0.25002 0.25002 0 0 0 0.03125 -0.0625 0.25002 0.25002 0 0 0 0 -0.0625 0.25002 0.25002 0 0 0 0 -0.0625 0.25002 0.25002 0 0 0 0 -0.0625 0.25002 0.25002 0 0 0 -0.0625 -0.09375 0.25002 0.25002 0 0 0 -0.125 -0.0625 0.25002 0.25002 0 0 0 -0.03125 0h-1.25a0.25002 0.25002 0 0 0 -0.0625 0 0.25002 0.25002 0 0 0 -0.0625 0.03125 0.25002 0.25002 0 0 0 -0.09375 0.09375l-0.781 1.2499-0.8124-1.25a0.25002 0.25002 0 0 0 -0.03125 -0.0625 0.25002 0.25002 0 0 0 -0.0625 -0.03125 0.25002 0.25002 0 0 0 -0.09375 -0.03125h-1.25a0.25002 0.25002 0 0 0 -0.0625 0 0.25002 0.25002 0 0 0 -0.03125 0z" display="block"/>
 <path fill="url(#d)" d="m3.1736 4.6166a0.25002 0.25002 0 0 0 -0.03125 0.03125 0.25002 0.25002 0 0 0 -0.09375 0.09375 0.25002 0.25002 0 0 0 -0.03125 0.125v6.4062a0.25002 0.25002 0 0 0 0 0.0625 0.25002 0.25002 0 0 0 0.03125 0.09375 0.25002 0.25002 0 0 0 0.0625 0.0625 0.25002 0.25002 0 0 0 0.0625 0.03125 0.25002 0.25002 0 0 0 0.0625 0 0.25002 0.25002 0 0 0 0.03125 0h4.1562a0.25002 0.25002 0 0 0 0.09375 -0.03125 0.25002 0.25002 0 0 0 0.0625 -0.03125 0.25002 0.25002 0 0 0 0.0625 -0.125 0.25002 0.25002 0 0 0 0 -0.03125 0.25002 0.25002 0 0 0 0.03125 -0.03125v-1.0312a0.25002 0.25002 0 0 0 -0.03125 -0.0625 0.25002 0.25002 0 0 0 -0.03125 -0.0625 0.25002 0.25002 0 0 0 -0.09375 -0.09375 0.25002 0.25002 0 0 0 -0.09375 -0.03125h-2.7812v-1.1875h2.4688a0.25002 0.25002 0 0 0 0.09375 -0.03125 0.25002 0.25002 0 0 0 0.0625 -0.03125 0.25002 0.25002 0 0 0 0.0625 -0.125 0.25002 0.25002 0 0 0 0 -0.03125 0.25002 0.25002 0 0 0 0.03125 -0.03125v-1.0625a0.25002 0.25002 0 0 0 -0.03125 -0.0625 0.25002 0.25002 0 0 0 -0.03125 -0.0625 0.25002 0.25002 0 0 0 -0.09375 -0.09375 0.25002 0.25002 0 0 0 -0.09375 -0.03125h-2.4688v-1.0938h2.7812a0.25002 0.25002 0 0 0 0.09375 -0.03125 0.25002 0.25002 0 0 0 0.0625 -0.03125 0.25002 0.25002 0 0 0 0.0625 -0.125 0.25002 0.25002 0 0 0 0 -0.03125 0.25002 0.25002 0 0 0 0.03125 -0.03125v-1.0313a0.25002 0.25002 0 0 0 -0.03125 -0.0625 0.25002 0.25002 0 0 0 -0.03125 -0.0625 0.25002 0.25002 0 0 0 -0.09375 -0.09375 0.25002 0.25002 0 0 0 -0.09375 -0.03125h-4.1562a0.25002 0.25002 0 0 0 -0.0625 0 0.25002 0.25002 0 0 0 -0.03125 0zm4.8125 1.9375a0.25002 0.25002 0 0 0 -0.03125 0.03125 0.25002 0.25002 0 0 0 -0.09375 0.09375 0.25002 0.25002 0 0 0 -0.03125 0.125 0.25002 0.25002 0 0 0 0 0.0625 0.25002 0.25002 0 0 0 0 0.03125 0.25002 0.25002 0 0 0 0.03125 0.0625l1.5 2.1562-1.4062 2.0312a0.25002 0.25002 0 0 0 -0.03125 0.0625 0.25002 0.25002 0 0 0 0 0.0625 0.25002 0.25002 0 0 0 0 0.0625 0.25002 0.25002 0 0 0 0.03125 0.09375 0.25002 0.25002 0 0 0 0.0625 0.0625 0.25002 0.25002 0 0 0 0.0625 0.03125 0.25002 0.25002 0 0 0 0.0625 0 0.25002 0.25002 0 0 0 0.03125 0h1.2188a0.25002 0.25002 0 0 0 0.09375 -0.03125 0.25002 0.25002 0 0 0 0.0625 -0.03125 0.25002 0.25002 0 0 0 0.03125 -0.0625l0.71875-1.125 0.8125 1.1562a0.25002 0.25002 0 0 0 0.0625 0.0625 0.25002 0.25002 0 0 0 0.0625 0.03125 0.25002 0.25002 0 0 0 0.0625 0 0.25002 0.25002 0 0 0 0.03125 0h1.3125a0.25002 0.25002 0 0 0 0.09375 -0.03125 0.25002 0.25002 0 0 0 0.0625 -0.03125 0.25002 0.25002 0 0 0 0.0625 -0.125 0.25002 0.25002 0 0 0 0 -0.03125 0.25002 0.25002 0 0 0 0 -0.0625 0.25002 0.25002 0 0 0 0 -0.0625 0.25002 0.25002 0 0 0 -0.03125 -0.0625l-1.5312-2.0312 1.4688-2.125a0.25002 0.25002 0 0 0 0.03125 -0.0625 0.25002 0.25002 0 0 0 0 -0.0625 0.25002 0.25002 0 0 0 0 -0.0625 0.25002 0.25002 0 0 0 0 -0.0625 0.25002 0.25002 0 0 0 -0.0625 -0.09375 0.25002 0.25002 0 0 0 -0.125 -0.0625 0.25002 0.25002 0 0 0 -0.03125 0h-1.25a0.25002 0.25002 0 0 0 -0.0625 0 0.25002 0.25002 0 0 0 -0.0625 0.03125 0.25002 0.25002 0 0 0 -0.09375 0.09375l-0.78125 1.25-0.8125-1.25a0.25002 0.25002 0 0 0 -0.03125 -0.0625 0.25002 0.25002 0 0 0 -0.0625 -0.03125 0.25002 0.25002 0 0 0 -0.09375 -0.03125h-1.25a0.25002 0.25002 0 0 0 -0.0625 0 0.25002 0.25002 0 0 0 -0.03125 0z" display="block"/>
</svg>
