<?xml version="1.0" encoding="UTF-8" standalone="no"?>
<!-- Created with Inkscape (http://www.inkscape.org/) -->

<svg
   xmlns:dc="http://purl.org/dc/elements/1.1/"
   xmlns:cc="http://creativecommons.org/ns#"
   xmlns:rdf="http://www.w3.org/1999/02/22-rdf-syntax-ns#"
   xmlns:svg="http://www.w3.org/2000/svg"
   xmlns="http://www.w3.org/2000/svg"
   xmlns:xlink="http://www.w3.org/1999/xlink"
   version="1.1"
   width="16"
   height="16"
   id="svg7929">
  <defs
     id="defs7931">
    <linearGradient
       id="linearGradient7888">
      <stop
         id="stop7890"
         style="stop-color:#204a87;stop-opacity:1"
         offset="0" />
      <stop
         id="stop7892"
         style="stop-color:#bdd2e9;stop-opacity:1"
         offset="1" />
    </linearGradient>
    <radialGradient
       cx="301"
       cy="51.5"
       r="19.500002"
       fx="301"
       fy="51.5"
       id="radialGradient3175-6-6-4-0"
       xlink:href="#linearGradient8978-0-9-0-8"
       gradientUnits="userSpaceOnUse"
       gradientTransform="matrix(0.9706301,1.96843e-8,0,0.2861052,-291.15791,-14.630262)" />
    <linearGradient
       id="linearGradient8978-0-9-0-8">
      <stop
         id="stop8980-9-1-8-4"
         style="stop-color:#ffffff;stop-opacity:1"
         offset="0" />
      <stop
         id="stop8982-2-2-4-4"
         style="stop-color:#ffffff;stop-opacity:0"
         offset="1" />
    </linearGradient>
    <radialGradient
       cx="24.44569"
       cy="35.87817"
       r="20.530962"
       fx="24.44569"
       fy="35.87817"
       id="radialGradient7833"
       xlink:href="#linearGradient7394-3"
       gradientUnits="userSpaceOnUse"
       gradientTransform="matrix(0.8569597,3.2529443e-7,-1.2530456e-7,0.3301039,-20.948972,32.907402)" />
    <linearGradient
       id="linearGradient7394-3">
      <stop
         id="stop7396-0"
         style="stop-color:#ffffff;stop-opacity:1"
         offset="0" />
      <stop
         id="stop7398-2"
         style="stop-color:#cbdbed;stop-opacity:1"
         offset="1" />
    </linearGradient>
    <linearGradient
       x1="321.5675"
       y1="145.51683"
       x2="311.65057"
       y2="118.49502"
       id="linearGradient7835"
       xlink:href="#linearGradient4247-6-9-9-7"
       gradientUnits="userSpaceOnUse"
       gradientTransform="matrix(0.5556927,0,0,0.5556793,-177.26596,-38.770868)" />
    <linearGradient
       id="linearGradient4247-6-9-9-7">
      <stop
         id="stop4249-2-0-1-7"
         style="stop-color:#204a87;stop-opacity:1"
         offset="0" />
      <stop
         id="stop4251-2-1-0-5"
         style="stop-color:#bdd2e9;stop-opacity:1"
         offset="1" />
    </linearGradient>
    <radialGradient
       cx="24.44569"
       cy="35.87817"
       r="20.530962"
       fx="24.44569"
       fy="35.87817"
       id="radialGradient7925"
       xlink:href="#linearGradient7394-3"
       gradientUnits="userSpaceOnUse"
       gradientTransform="matrix(0.8569597,3.2529443e-7,-1.2530456e-7,0.3301039,-12.948972,0.77180763)" />
    <linearGradient
       x1="321.5675"
       y1="145.51683"
       x2="311.65057"
       y2="118.49502"
       id="linearGradient7927"
       xlink:href="#linearGradient4247-6-9-9-7"
       gradientUnits="userSpaceOnUse"
       gradientTransform="matrix(0.5556927,0,0,0.5556793,-169.26596,-70.906462)" />
    <linearGradient
       x1="491.22195"
       y1="506.64685"
       x2="491.22195"
       y2="732.05341"
       id="linearGradient3161-1-5-9-6-1"
       xlink:href="#linearGradient7888-7"
       gradientUnits="userSpaceOnUse"
       gradientTransform="matrix(0.09329421,0,0,0.09329421,-35.870602,-43.768872)" />
    <linearGradient
       id="linearGradient7888-7">
      <stop
         id="stop7890-4"
         style="stop-color:#204a87;stop-opacity:1"
         offset="0" />
      <stop
         id="stop7892-2"
         style="stop-color:#bdd2e9;stop-opacity:1"
         offset="1" />
    </linearGradient>
    <linearGradient
       x1="491.22195"
       y1="506.64685"
       x2="491.22195"
       y2="732.05341"
       id="linearGradient8140"
       xlink:href="#linearGradient7888-7"
       gradientUnits="userSpaceOnUse"
       gradientTransform="matrix(0.09329421,0,0,0.09329421,-38.9244,-46.943611)" />
    <linearGradient
       x1="491.22195"
       y1="506.64685"
       x2="491.22195"
       y2="732.05341"
       id="linearGradient3161-1-5-9-6-1-0"
       xlink:href="#linearGradient7888-7-8"
       gradientUnits="userSpaceOnUse"
       gradientTransform="matrix(0.09329421,0,0,0.09329421,-35.870602,-43.768872)" />
    <linearGradient
       id="linearGradient7888-7-8">
      <stop
         id="stop7890-4-0"
         style="stop-color:#204a87;stop-opacity:1"
         offset="0" />
      <stop
         id="stop7892-2-3"
         style="stop-color:#bdd2e9;stop-opacity:1"
         offset="1" />
    </linearGradient>
    <linearGradient
       x1="491.22195"
       y1="506.64685"
       x2="491.22195"
       y2="732.05341"
       id="linearGradient8293"
       xlink:href="#linearGradient7888-7-8"
       gradientUnits="userSpaceOnUse"
       gradientTransform="matrix(0.09329421,0,0,0.09329421,-39.497065,-47.58668)" />
  </defs>
  <metadata
     id="metadata7934">
    <rdf:RDF>
      <cc:Work
         rdf:about="">
        <dc:format>image/svg+xml</dc:format>
        <dc:type
           rdf:resource="http://purl.org/dc/dcmitype/StillImage" />
        <cc:license
           rdf:resource="http://creativecommons.org/licenses/by-sa/3.0/" />
        <dc:title></dc:title>
      </cc:Work>
      <cc:License
         rdf:about="http://creativecommons.org/licenses/by-sa/3.0/">
        <cc:permits
           rdf:resource="http://creativecommons.org/ns#Reproduction" />
        <cc:permits
           rdf:resource="http://creativecommons.org/ns#Distribution" />
        <cc:requires
           rdf:resource="http://creativecommons.org/ns#Notice" />
        <cc:requires
           rdf:resource="http://creativecommons.org/ns#Attribution" />
        <cc:permits
           rdf:resource="http://creativecommons.org/ns#DerivativeWorks" />
        <cc:requires
           rdf:resource="http://creativecommons.org/ns#ShareAlike" />
      </cc:License>
    </rdf:RDF>
  </metadata>
  <g
     id="layer1">
    <rect
       width="15.003705"
       height="15.003344"
       rx="1.5143198"
       ry="1.5142833"
       x="0.49814749"
       y="0.49832821"
       id="rect4319-7-2-1-7"
       style="fill:url(#radialGradient7925);fill-opacity:1;fill-rule:evenodd;stroke:url(#linearGradient7927);stroke-width:1.00000095;stroke-linecap:butt;stroke-linejoin:bevel;stroke-miterlimit:10;stroke-opacity:1;stroke-dasharray:none;stroke-dashoffset:0;marker:none;visibility:visible;display:inline;overflow:visible;enable-background:new" />
    <rect
       width="12.997247"
       height="12.999963"
       rx="0.5081172"
       ry="0.50810492"
       x="1.5013518"
       y="1.5016088"
       id="rect4321-0-9-4-0"
       style="fill:none;stroke:#ffffff;stroke-width:0.99999994;stroke-linecap:butt;stroke-linejoin:bevel;stroke-miterlimit:10;stroke-opacity:1;stroke-dasharray:none;stroke-dashoffset:0;marker:none;visibility:visible;display:inline;overflow:visible;enable-background:new" />
    <rect
       width="14.000044"
       height="14.000041"
       rx="1.9062433"
       ry="1.9062428"
       x="1.0017486"
       y="1.0015783"
       id="rect9035-4-9-5-7"
       style="fill:url(#radialGradient3175-6-6-4-0);fill-opacity:1;fill-rule:evenodd;stroke:none;stroke-width:1;marker:none;visibility:visible;display:inline;overflow:visible;enable-background:new" />
    <path
       d="m 3.1218181,5.6469728 a 0.250025,0.250025 0 0 0 -0.03125,0.03125 0.250025,0.250025 0 0 0 -0.09375,0.09375 0.250025,0.250025 0 0 0 -0.03125,0.125 l 0,6.4062502 a 0.250025,0.250025 0 0 0 0,0.0625 0.250025,0.250025 0 0 0 0.03125,0.09375 0.250025,0.250025 0 0 0 0.0625,0.0625 0.250025,0.250025 0 0 0 0.0625,0.03125 0.250025,0.250025 0 0 0 0.0625,0 0.250025,0.250025 0 0 0 0.03125,0 l 4.15625,0 a 0.250025,0.250025 0 0 0 0.09375,-0.03125 0.250025,0.250025 0 0 0 0.0625,-0.03125 0.250025,0.250025 0 0 0 0.0625,-0.125 0.250025,0.250025 0 0 0 0,-0.03125 0.250025,0.250025 0 0 0 0.03125,-0.03125 l 0,-1.03125 a 0.250025,0.250025 0 0 0 -0.03125,-0.0625 0.250025,0.250025 0 0 0 -0.03125,-0.0625 0.250025,0.250025 0 0 0 -0.09375,-0.09375 0.250025,0.250025 0 0 0 -0.09375,-0.03125 l -2.78125,0 0,-1.1874999 2.46875,0 a 0.250025,0.250025 0 0 0 0.09375,-0.03125 0.250025,0.250025 0 0 0 0.0625,-0.03125 0.250025,0.250025 0 0 0 0.0625,-0.125 0.250025,0.250025 0 0 0 0,-0.03125 0.250025,0.250025 0 0 0 0.03125,-0.03125 l 0,-1.0625 a 0.250025,0.250025 0 0 0 -0.03125,-0.0625 0.250025,0.250025 0 0 0 -0.03125,-0.0625 0.250025,0.250025 0 0 0 -0.09375,-0.09375 0.250025,0.250025 0 0 0 -0.09375,-0.03125 l -2.46875,0 0,-1.0937501 2.78125,0 a 0.250025,0.250025 0 0 0 0.09375,-0.03125 0.250025,0.250025 0 0 0 0.0625,-0.03125 0.250025,0.250025 0 0 0 0.0625,-0.125 0.250025,0.250025 0 0 0 0,-0.03125 0.250025,0.250025 0 0 0 0.03125,-0.03125 l 0,-1.0312502 a 0.250025,0.250025 0 0 0 -0.03125,-0.0625 0.250025,0.250025 0 0 0 -0.03125,-0.0625 0.250025,0.250025 0 0 0 -0.09375,-0.09375 0.250025,0.250025 0 0 0 -0.09375,-0.03125 l -4.15625,0 a 0.250025,0.250025 0 0 0 -0.0625,0 0.250025,0.250025 0 0 0 -0.03125,0 z m 4.8125,1.9375002 a 0.250025,0.250025 0 0 0 -0.03125,0.03125 0.250025,0.250025 0 0 0 -0.09375,0.09375 0.250025,0.250025 0 0 0 -0.03125,0.125 0.250025,0.250025 0 0 0 0,0.0625 0.250025,0.250025 0 0 0 0,0.03125 0.250025,0.250025 0 0 0 0.03125,0.0625 l 1.5,2.15625 -1.40625,2.03125 a 0.250025,0.250025 0 0 0 -0.03125,0.0625 0.250025,0.250025 0 0 0 0,0.0625 0.250025,0.250025 0 0 0 0,0.0625 0.250025,0.250025 0 0 0 0.03125,0.09375 0.250025,0.250025 0 0 0 0.0625,0.0625 0.250025,0.250025 0 0 0 0.0625,0.03125 0.250025,0.250025 0 0 0 0.0625,0 0.250025,0.250025 0 0 0 0.03125,0 l 1.21875,0 a 0.250025,0.250025 0 0 0 0.09375,-0.03125 0.250025,0.250025 0 0 0 0.0625,-0.03125 0.250025,0.250025 0 0 0 0.03125,-0.0625 l 0.7187499,-1.125 0.8125,1.15625 a 0.250025,0.250025 0 0 0 0.0625,0.0625 0.250025,0.250025 0 0 0 0.0625,0.03125 0.250025,0.250025 0 0 0 0.0625,0 0.250025,0.250025 0 0 0 0.03125,0 l 1.3125,0 a 0.250025,0.250025 0 0 0 0.09375,-0.03125 0.250025,0.250025 0 0 0 0.0625,-0.03125 0.250025,0.250025 0 0 0 0.0625,-0.125 0.250025,0.250025 0 0 0 0,-0.03125 0.250025,0.250025 0 0 0 0,-0.0625 0.250025,0.250025 0 0 0 0,-0.0625 0.250025,0.250025 0 0 0 -0.03125,-0.0625 l -1.53125,-2.03125 1.46875,-2.125 a 0.250025,0.250025 0 0 0 0.03125,-0.0625 0.250025,0.250025 0 0 0 0,-0.0625 0.250025,0.250025 0 0 0 0,-0.0625 0.250025,0.250025 0 0 0 0,-0.0625 0.250025,0.250025 0 0 0 -0.0625,-0.09375 0.250025,0.250025 0 0 0 -0.125,-0.0625 0.250025,0.250025 0 0 0 -0.03125,0 l -1.25,0 a 0.250025,0.250025 0 0 0 -0.0625,0 0.250025,0.250025 0 0 0 -0.0625,0.03125 0.250025,0.250025 0 0 0 -0.09375,0.09375 L 10.278068,8.9594731 9.4655681,7.709473 a 0.250025,0.250025 0 0 0 -0.03125,-0.0625 0.250025,0.250025 0 0 0 -0.0625,-0.03125 0.250025,0.250025 0 0 0 -0.09375,-0.03125 l -1.25,0 a 0.250025,0.250025 0 0 0 -0.0625,0 0.250025,0.250025 0 0 0 -0.03125,0 z"
       id="path4311-6"
       style="font-size:9.25737095px;font-style:normal;font-variant:normal;font-weight:bold;font-stretch:normal;text-align:start;line-height:125%;letter-spacing:0px;word-spacing:0px;writing-mode:lr-tb;text-anchor:start;color:#000000;fill:#ffffff;fill-opacity:1;fill-rule:nonzero;stroke:none;stroke-width:0.9999997;marker:none;visibility:visible;display:block;overflow:visible;enable-background:new;font-family:Cantarell;-inkscape-font-specification:Cantarell Bold" />
    <path
       d="m 3.1735981,4.6166431 a 0.250025,0.250025 0 0 0 -0.03125,0.03125 0.250025,0.250025 0 0 0 -0.09375,0.09375 0.250025,0.250025 0 0 0 -0.03125,0.125 l 0,6.4062499 a 0.250025,0.250025 0 0 0 0,0.0625 0.250025,0.250025 0 0 0 0.03125,0.09375 0.250025,0.250025 0 0 0 0.0625,0.0625 0.250025,0.250025 0 0 0 0.0625,0.03125 0.250025,0.250025 0 0 0 0.0625,0 0.250025,0.250025 0 0 0 0.03125,0 l 4.15625,0 a 0.250025,0.250025 0 0 0 0.09375,-0.03125 0.250025,0.250025 0 0 0 0.0625,-0.03125 0.250025,0.250025 0 0 0 0.0625,-0.125 0.250025,0.250025 0 0 0 0,-0.03125 0.250025,0.250025 0 0 0 0.03125,-0.03125 l 0,-1.03125 a 0.250025,0.250025 0 0 0 -0.03125,-0.0625 0.250025,0.250025 0 0 0 -0.03125,-0.0625 0.250025,0.250025 0 0 0 -0.09375,-0.09375 0.250025,0.250025 0 0 0 -0.09375,-0.03125 l -2.78125,0 0,-1.1875 2.46875,0 a 0.250025,0.250025 0 0 0 0.09375,-0.03125 0.250025,0.250025 0 0 0 0.0625,-0.03125 0.250025,0.250025 0 0 0 0.0625,-0.125 0.250025,0.250025 0 0 0 0,-0.03125 0.250025,0.250025 0 0 0 0.03125,-0.03125 l 0,-1.0625 a 0.250025,0.250025 0 0 0 -0.03125,-0.0625 0.250025,0.250025 0 0 0 -0.03125,-0.0625 0.250025,0.250025 0 0 0 -0.09375,-0.09375 0.250025,0.250025 0 0 0 -0.09375,-0.03125 l -2.46875,0 0,-1.09375 2.78125,0 a 0.250025,0.250025 0 0 0 0.09375,-0.03125 0.250025,0.250025 0 0 0 0.0625,-0.03125 0.250025,0.250025 0 0 0 0.0625,-0.125 0.250025,0.250025 0 0 0 0,-0.03125 0.250025,0.250025 0 0 0 0.03125,-0.03125 l 0,-1.0312502 a 0.250025,0.250025 0 0 0 -0.03125,-0.0625 0.250025,0.250025 0 0 0 -0.03125,-0.0625 0.250025,0.250025 0 0 0 -0.09375,-0.09375 0.250025,0.250025 0 0 0 -0.09375,-0.03125 l -4.15625,0 a 0.250025,0.250025 0 0 0 -0.0625,0 0.250025,0.250025 0 0 0 -0.03125,0 z m 4.8125,1.9375002 a 0.250025,0.250025 0 0 0 -0.03125,0.03125 0.250025,0.250025 0 0 0 -0.09375,0.09375 0.250025,0.250025 0 0 0 -0.03125,0.125 0.250025,0.250025 0 0 0 0,0.0625 0.250025,0.250025 0 0 0 0,0.03125 0.250025,0.250025 0 0 0 0.03125,0.0625 l 1.5,2.15625 -1.40625,2.0312497 a 0.250025,0.250025 0 0 0 -0.03125,0.0625 0.250025,0.250025 0 0 0 0,0.0625 0.250025,0.250025 0 0 0 0,0.0625 0.250025,0.250025 0 0 0 0.03125,0.09375 0.250025,0.250025 0 0 0 0.0625,0.0625 0.250025,0.250025 0 0 0 0.0625,0.03125 0.250025,0.250025 0 0 0 0.0625,0 0.250025,0.250025 0 0 0 0.03125,0 l 1.21875,0 a 0.250025,0.250025 0 0 0 0.09375,-0.03125 0.250025,0.250025 0 0 0 0.0625,-0.03125 0.250025,0.250025 0 0 0 0.03125,-0.0625 l 0.7187499,-1.125 0.8125,1.15625 a 0.250025,0.250025 0 0 0 0.0625,0.0625 0.250025,0.250025 0 0 0 0.0625,0.03125 0.250025,0.250025 0 0 0 0.0625,0 0.250025,0.250025 0 0 0 0.03125,0 l 1.3125,0 a 0.250025,0.250025 0 0 0 0.09375,-0.03125 0.250025,0.250025 0 0 0 0.0625,-0.03125 0.250025,0.250025 0 0 0 0.0625,-0.125 0.250025,0.250025 0 0 0 0,-0.03125 0.250025,0.250025 0 0 0 0,-0.0625 0.250025,0.250025 0 0 0 0,-0.0625 0.250025,0.250025 0 0 0 -0.03125,-0.0625 l -1.53125,-2.0312497 1.46875,-2.125 a 0.250025,0.250025 0 0 0 0.03125,-0.0625 0.250025,0.250025 0 0 0 0,-0.0625 0.250025,0.250025 0 0 0 0,-0.0625 0.250025,0.250025 0 0 0 0,-0.0625 0.250025,0.250025 0 0 0 -0.0625,-0.09375 0.250025,0.250025 0 0 0 -0.125,-0.0625 0.250025,0.250025 0 0 0 -0.03125,0 l -1.25,0 a 0.250025,0.250025 0 0 0 -0.0625,0 0.250025,0.250025 0 0 0 -0.0625,0.03125 0.250025,0.250025 0 0 0 -0.09375,0.09375 l -0.78125,1.25 -0.8124999,-1.25 a 0.250025,0.250025 0 0 0 -0.03125,-0.0625 0.250025,0.250025 0 0 0 -0.0625,-0.03125 0.250025,0.250025 0 0 0 -0.09375,-0.03125 l -1.25,0 a 0.250025,0.250025 0 0 0 -0.0625,0 0.250025,0.250025 0 0 0 -0.03125,0 z"
       id="path4311-6-1"
       style="font-size:9.25737095px;font-style:normal;font-variant:normal;font-weight:bold;font-stretch:normal;text-align:start;line-height:125%;letter-spacing:0px;word-spacing:0px;writing-mode:lr-tb;text-anchor:start;color:#000000;fill:url(#linearGradient3161-1-5-9-6-1-0);fill-opacity:1;fill-rule:nonzero;stroke:none;stroke-width:0.9999997;marker:none;visibility:visible;display:block;overflow:visible;enable-background:new;font-family:Cantarell;-inkscape-font-specification:Cantarell Bold" />
  </g>
</svg>
