<?xml version="1.0" encoding="UTF-8"?>
<!-- Licensed under the Creative Commons Attribution-Share Alike 3.0 United States License (http://creativecommons.org/licenses/by-sa/3.0/) -->
<svg xmlns="http://www.w3.org/2000/svg" id="root" version="1.1" viewBox="0 0 16 11">
 <path fill="currentColor" d="m8 0.5c-3.6819 0-6.6562 5-6.6562 5s2.9744 5 6.6562 5c3.6819 0 6.6562-5 6.6562-5s-2.9744-5-6.6562-5zm0 1.6562c3.2217 0 5 3.3438 5 3.3438s-1.7783 3.3438-5 3.3438-5-3.3438-5-3.3438 1.7783-3.3438 5-3.3438z"/>
 <path fill="currentColor" d="m8 3c-1.3807 0-2.5 1.1193-2.5 2.5s1.1193 2.5 2.5 2.5 2.5-1.1193 2.5-2.5-1.1193-2.5-2.5-2.5zm0 1.2812c0.6561 0 1.1875 0.5399 1.1875 1.2188s-0.5314 1.25-1.1875 1.25-1.1875-0.5711-1.1875-1.25 0.5314-1.2188 1.1875-1.2188z"/>
</svg>
