<?xml version="1.0" encoding="UTF-8"?>
<!-- Licensed under the Creative Commons Attribution-Share Alike 3.0 United States License (http://creativecommons.org/licenses/by-sa/3.0/) -->
<svg xmlns="http://www.w3.org/2000/svg" id="root" version="1.1" viewBox="0 0 16 16">
 <path d="m4.5 3v2h6c0.42816 0 0.59383 0.26733 0.46875 0.71875l-0.344 1.2812h-5.25c-1.8385 0-3.1251 1.3524-3.5 2.75-0.1874 0.699-0.1622 1.479 0.25 2.156 0.4122 0.678 1.248 1.094 2.1562 1.094h6 0.75l0.21875-0.71875 1.6562-6c0.435-1.5687-0.726-3.2812-2.406-3.2812h-6zm0.875 6h4.687l-0.562 2h-5.2188c-0.3978 0-0.4245-0.084-0.4687-0.156-0.0442-0.073-0.0808-0.293 0-0.594 0.1616-0.6024 0.7178-1.25 1.5625-1.25z"/>
</svg>
