<?xml version="1.0" encoding="UTF-8"?>
<!-- Licensed under the Creative Commons Attribution-Share Alike 3.0 United States License (http://creativecommons.org/licenses/by-sa/3.0/) -->
<svg xmlns="http://www.w3.org/2000/svg" id="root" version="1.1" viewBox="0 0 16 16">
 <path d="m4.0883 3.5-3.2143 9h1.9286c0.95538-2.5714 0.01422 0 0.96959-2.5714h3.2037l0.96958 2.5714h1.9286l-3.2143-9zm1.2857 1.9286 1.2999 3.2143h-2.5714z"/>
 <path d="m9.9413 5.5v7h3.0406c0.65735 0 1.2479-0.26693 1.6188-0.67812 0.37082-0.4112 0.53191-0.93246 0.525-1.4438-0.007-0.51129-0.20014-1.0172-0.56875-1.4219-0.14324-0.15727-0.32798-0.28606-0.525-0.39375 0.16764-0.3207 0.3536-0.63549 0.35-0.98437-0.0052-0.50368-0.16425-1.0199-0.525-1.4219-0.361-0.4019-0.94-0.6561-1.575-0.6561zm1.4 1.4h0.94062c0.28177 0 0.41831 0.077986 0.525 0.19687 0.10669 0.11889 0.17303 0.31227 0.175 0.50313 0.0018 0.19085-0.05171 0.36738-0.15312 0.48125-0.1014 0.11387-0.24544 0.19688-0.54688 0.19688h-0.94062zm0 2.7781h1.6406c0.29488 0 0.43357 0.09436 0.54688 0.21875 0.1133 0.12439 0.19425 0.30895 0.19688 0.50312 0.0027 0.19418-0.06869 0.36335-0.175 0.48125-0.107 0.118-0.248 0.219-0.569 0.219h-1.6406z"/>
</svg>
