<?xml version="1.0" encoding="UTF-8"?>
<!-- Licensed under the Creative Commons Attribution-Share Alike 3.0 United States License (http://creativecommons.org/licenses/by-sa/3.0/) -->
<svg xmlns="http://www.w3.org/2000/svg" id="root" version="1.1" viewBox="0 0 16 16">
 <path fill="currentColor" d="m4 3v2h6c0.42816 0 1 0.61414 1 1v1h-5c-0.9193 0-1.7356 0.384-2.25 0.9688-0.5144 0.5847-0.7564 1.3106-0.75 2.0312 0.0064 0.721 0.2689 1.453 0.7812 2.031 0.5124 0.579 1.3105 0.969 2.2188 0.969h6 1v-1-6c0-1.6343-1.32-3-3-3h-6zm2 6h5v2h-5c-0.3979 0-0.5669-0.11-0.7188-0.281-0.1518-0.172-0.2787-0.44-0.2812-0.719-0.0025-0.2794 0.1047-0.5535 0.25-0.7188 0.1453-0.1652 0.3276-0.2812 0.75-0.2812z"/>
</svg>
