<?xml version="1.0" encoding="UTF-8" standalone="no"?>
<!-- Created with Inkscape (http://www.inkscape.org/) -->

<svg
   xmlns:dc="http://purl.org/dc/elements/1.1/"
   xmlns:cc="http://creativecommons.org/ns#"
   xmlns:rdf="http://www.w3.org/1999/02/22-rdf-syntax-ns#"
   xmlns:svg="http://www.w3.org/2000/svg"
   xmlns="http://www.w3.org/2000/svg"
   xmlns:xlink="http://www.w3.org/1999/xlink"
   version="1.1"
   width="16"
   height="16"
   id="svg3986">
  <defs
     id="defs3988">
    <linearGradient
       x1="491.22195"
       y1="506.64685"
       x2="491.22195"
       y2="732.05341"
       id="linearGradient3161"
       xlink:href="#linearGradient4373-2-5-8-6"
       gradientUnits="userSpaceOnUse"
       gradientTransform="matrix(0.09329421,0,0,0.09329421,-35.8706,-43.768871)" />
    <linearGradient
       id="linearGradient4373-2-5-8-6">
      <stop
         id="stop4375-3-6-8-4"
         style="stop-color:#4e9a06;stop-opacity:1"
         offset="0" />
      <stop
         id="stop4377-3-5-2-3"
         style="stop-color:#8ae234;stop-opacity:1"
         offset="1" />
    </linearGradient>
    <radialGradient
       cx="301"
       cy="51.5"
       r="19.500002"
       fx="301"
       fy="51.5"
       id="radialGradient3175"
       xlink:href="#linearGradient8978"
       gradientUnits="userSpaceOnUse"
       gradientTransform="matrix(0.9706301,1.96843e-8,0,0.2861052,-291.15791,-14.630261)" />
    <linearGradient
       id="linearGradient8978">
      <stop
         id="stop8980"
         style="stop-color:#ffffff;stop-opacity:1"
         offset="0" />
      <stop
         id="stop8982"
         style="stop-color:#ffffff;stop-opacity:0"
         offset="1" />
    </linearGradient>
    <radialGradient
       cx="24.44569"
       cy="35.87817"
       r="20.530962"
       fx="24.44569"
       fy="35.87817"
       id="radialGradient3179"
       xlink:href="#linearGradient11520"
       gradientUnits="userSpaceOnUse"
       gradientTransform="matrix(0.8569597,3.2529443e-7,-1.2530456e-7,0.3301039,-49.42355,1.24638)" />
    <linearGradient
       id="linearGradient11520">
      <stop
         id="stop11522"
         style="stop-color:#ffffff;stop-opacity:1"
         offset="0" />
      <stop
         id="stop11524"
         style="stop-color:#dcf6c2;stop-opacity:1"
         offset="1" />
    </linearGradient>
    <linearGradient
       x1="321.5675"
       y1="145.51683"
       x2="311.65057"
       y2="118.49502"
       id="linearGradient3181"
       xlink:href="#linearGradient4247"
       gradientUnits="userSpaceOnUse"
       gradientTransform="matrix(0.5556927,0,0,0.5556793,-205.74054,-70.43189)" />
    <linearGradient
       id="linearGradient4247">
      <stop
         id="stop4249"
         style="stop-color:#4e9a06;stop-opacity:1"
         offset="0" />
      <stop
         id="stop4251"
         style="stop-color:#d3f4b2;stop-opacity:1"
         offset="1" />
    </linearGradient>
    <radialGradient
       cx="24.44569"
       cy="35.87817"
       r="20.530962"
       fx="24.44569"
       fy="35.87817"
       id="radialGradient3982"
       xlink:href="#linearGradient11520"
       gradientUnits="userSpaceOnUse"
       gradientTransform="matrix(0.8569597,3.2529443e-7,-1.2530456e-7,0.3301039,-12.94897,0.77180835)" />
    <linearGradient
       x1="321.5675"
       y1="145.51683"
       x2="311.65057"
       y2="118.49502"
       id="linearGradient3984"
       xlink:href="#linearGradient4247"
       gradientUnits="userSpaceOnUse"
       gradientTransform="matrix(0.5556927,0,0,0.5556793,-169.26596,-70.906461)" />
    <linearGradient
       x1="491.22195"
       y1="506.64685"
       x2="491.22195"
       y2="732.05341"
       id="linearGradient3161-0"
       xlink:href="#linearGradient4373-2-5-8-6-3"
       gradientUnits="userSpaceOnUse"
       gradientTransform="matrix(0.09329421,0,0,0.09329421,-35.8706,-43.768871)" />
    <linearGradient
       id="linearGradient4373-2-5-8-6-3">
      <stop
         id="stop4375-3-6-8-4-9"
         style="stop-color:#4e9a06;stop-opacity:1"
         offset="0" />
      <stop
         id="stop4377-3-5-2-3-5"
         style="stop-color:#8ae234;stop-opacity:1"
         offset="1" />
    </linearGradient>
    <linearGradient
       x1="491.22195"
       y1="506.64685"
       x2="491.22195"
       y2="732.05341"
       id="linearGradient4650"
       xlink:href="#linearGradient4373-2-5-8-6-3"
       gradientUnits="userSpaceOnUse"
       gradientTransform="matrix(0.09329421,0,0,0.09329421,-38.9244,-46.943609)" />
    <radialGradient
       cx="301"
       cy="51.5"
       r="19.500002"
       fx="301"
       fy="51.5"
       id="radialGradient3038"
       xlink:href="#linearGradient8978"
       gradientUnits="userSpaceOnUse"
       gradientTransform="matrix(0.9706301,1.96843e-8,0,0.2861052,-291.15791,-14.630261)" />
    <radialGradient
       cx="24.44569"
       cy="35.87817"
       r="20.530962"
       fx="24.44569"
       fy="35.87817"
       id="radialGradient3042"
       xlink:href="#linearGradient11520"
       gradientUnits="userSpaceOnUse"
       gradientTransform="matrix(0.8569597,3.2529443e-7,-1.2530456e-7,0.3301039,-12.94897,0.77180835)" />
    <linearGradient
       x1="321.5675"
       y1="145.51683"
       x2="311.65057"
       y2="118.49502"
       id="linearGradient3044"
       xlink:href="#linearGradient4247"
       gradientUnits="userSpaceOnUse"
       gradientTransform="matrix(0.5556927,0,0,0.5556793,-169.26596,-70.906461)" />
    <linearGradient
       x1="491.22195"
       y1="506.64685"
       x2="491.22195"
       y2="732.05341"
       id="linearGradient3034-1"
       xlink:href="#linearGradient4373-2-5-8-6-3-3"
       gradientUnits="userSpaceOnUse"
       gradientTransform="matrix(0.09329421,0,0,0.09329421,-35.8706,-43.768871)" />
    <linearGradient
       id="linearGradient4373-2-5-8-6-3-3">
      <stop
         id="stop4375-3-6-8-4-9-2"
         style="stop-color:#4e9a06;stop-opacity:1"
         offset="0" />
      <stop
         id="stop4377-3-5-2-3-5-3"
         style="stop-color:#8ae234;stop-opacity:1"
         offset="1" />
    </linearGradient>
    <linearGradient
       x1="491.22195"
       y1="506.64685"
       x2="491.22195"
       y2="732.05341"
       id="linearGradient3829"
       xlink:href="#linearGradient4373-2-5-8-6-3-3"
       gradientUnits="userSpaceOnUse"
       gradientTransform="matrix(0.09329421,0,0,0.09329421,-39.902379,-47.244888)" />
    <linearGradient
       x1="491.22195"
       y1="506.64685"
       x2="491.22195"
       y2="732.05341"
       id="linearGradient3034-1-1"
       xlink:href="#linearGradient4373-2-5-8-6-3-3-1"
       gradientUnits="userSpaceOnUse"
       gradientTransform="matrix(0.09329421,0,0,0.09329421,-35.8706,-43.768871)" />
    <linearGradient
       id="linearGradient4373-2-5-8-6-3-3-1">
      <stop
         id="stop4375-3-6-8-4-9-2-1"
         style="stop-color:#4e9a06;stop-opacity:1"
         offset="0" />
      <stop
         id="stop4377-3-5-2-3-5-3-9"
         style="stop-color:#8ae234;stop-opacity:1"
         offset="1" />
    </linearGradient>
    <linearGradient
       x1="491.22195"
       y1="506.64685"
       x2="491.22195"
       y2="732.05341"
       id="linearGradient4042"
       xlink:href="#linearGradient4373-2-5-8-6-3-3-1"
       gradientUnits="userSpaceOnUse"
       gradientTransform="matrix(0.09329421,0,0,0.09329421,-35.8706,-43.768871)" />
    <linearGradient
       id="linearGradient4044">
      <stop
         id="stop4046"
         style="stop-color:#4e9a06;stop-opacity:1"
         offset="0" />
      <stop
         id="stop4048"
         style="stop-color:#8ae234;stop-opacity:1"
         offset="1" />
    </linearGradient>
    <linearGradient
       x1="491.22195"
       y1="506.64685"
       x2="491.22195"
       y2="732.05341"
       id="linearGradient4050"
       xlink:href="#linearGradient4373-2-5-8-6-3-3-1"
       gradientUnits="userSpaceOnUse"
       gradientTransform="matrix(0.09329421,0,0,0.09329421,-35.8706,-43.768871)" />
    <linearGradient
       id="linearGradient4052">
      <stop
         id="stop4054"
         style="stop-color:#4e9a06;stop-opacity:1"
         offset="0" />
      <stop
         id="stop4056"
         style="stop-color:#8ae234;stop-opacity:1"
         offset="1" />
    </linearGradient>
    <linearGradient
       x1="491.22195"
       y1="506.64685"
       x2="491.22195"
       y2="732.05341"
       id="linearGradient4065"
       xlink:href="#linearGradient4373-2-5-8-6-3-3-1"
       gradientUnits="userSpaceOnUse"
       gradientTransform="matrix(0.09329421,0,0,0.09329421,-35.8706,-43.768871)" />
    <linearGradient
       x1="491.22195"
       y1="506.64685"
       x2="491.22195"
       y2="732.05341"
       id="linearGradient3034-1-7"
       xlink:href="#linearGradient4373-2-5-8-6-3-3-6"
       gradientUnits="userSpaceOnUse"
       gradientTransform="matrix(0.09329421,0,0,0.09329421,-35.8706,-43.768871)" />
    <linearGradient
       id="linearGradient4373-2-5-8-6-3-3-6">
      <stop
         id="stop4375-3-6-8-4-9-2-6"
         style="stop-color:#4e9a06;stop-opacity:1"
         offset="0" />
      <stop
         id="stop4377-3-5-2-3-5-3-2"
         style="stop-color:#8ae234;stop-opacity:1"
         offset="1" />
    </linearGradient>
    <linearGradient
       x1="491.22195"
       y1="506.64685"
       x2="491.22195"
       y2="732.05341"
       id="linearGradient4042-2"
       xlink:href="#linearGradient4373-2-5-8-6-3-3-6"
       gradientUnits="userSpaceOnUse"
       gradientTransform="matrix(0.09329421,0,0,0.09329421,-35.8706,-43.768871)" />
    <linearGradient
       id="linearGradient4044-6">
      <stop
         id="stop4046-4"
         style="stop-color:#4e9a06;stop-opacity:1"
         offset="0" />
      <stop
         id="stop4048-9"
         style="stop-color:#8ae234;stop-opacity:1"
         offset="1" />
    </linearGradient>
    <linearGradient
       x1="491.22195"
       y1="506.64685"
       x2="491.22195"
       y2="732.05341"
       id="linearGradient4050-5"
       xlink:href="#linearGradient4373-2-5-8-6-3-3-6"
       gradientUnits="userSpaceOnUse"
       gradientTransform="matrix(0.09329421,0,0,0.09329421,-35.8706,-43.768871)" />
    <linearGradient
       id="linearGradient4052-8">
      <stop
         id="stop4054-3"
         style="stop-color:#4e9a06;stop-opacity:1"
         offset="0" />
      <stop
         id="stop4056-9"
         style="stop-color:#8ae234;stop-opacity:1"
         offset="1" />
    </linearGradient>
    <linearGradient
       x1="491.22195"
       y1="506.64685"
       x2="491.22195"
       y2="732.05341"
       id="linearGradient3034-1-11"
       xlink:href="#linearGradient4373-2-5-8-6-3-3-2"
       gradientUnits="userSpaceOnUse"
       gradientTransform="matrix(0.09329421,0,0,0.09329421,-35.8706,-43.768871)" />
    <linearGradient
       id="linearGradient4373-2-5-8-6-3-3-2">
      <stop
         id="stop4375-3-6-8-4-9-2-3"
         style="stop-color:#4e9a06;stop-opacity:1"
         offset="0" />
      <stop
         id="stop4377-3-5-2-3-5-3-3"
         style="stop-color:#8ae234;stop-opacity:1"
         offset="1" />
    </linearGradient>
    <linearGradient
       x1="491.22195"
       y1="506.64685"
       x2="491.22195"
       y2="732.05341"
       id="linearGradient4198"
       xlink:href="#linearGradient4373-2-5-8-6-3-3-2"
       gradientUnits="userSpaceOnUse"
       gradientTransform="matrix(0.09329421,0,0,0.09329421,-35.8706,-43.768871)" />
    <linearGradient
       id="linearGradient4200">
      <stop
         id="stop4202"
         style="stop-color:#4e9a06;stop-opacity:1"
         offset="0" />
      <stop
         id="stop4204"
         style="stop-color:#8ae234;stop-opacity:1"
         offset="1" />
    </linearGradient>
    <linearGradient
       x1="491.22195"
       y1="506.64685"
       x2="491.22195"
       y2="732.05341"
       id="linearGradient4206"
       xlink:href="#linearGradient4373-2-5-8-6-3-3-2"
       gradientUnits="userSpaceOnUse"
       gradientTransform="matrix(0.09329421,0,0,0.09329421,-35.8706,-43.768871)" />
    <linearGradient
       id="linearGradient4208">
      <stop
         id="stop4210"
         style="stop-color:#4e9a06;stop-opacity:1"
         offset="0" />
      <stop
         id="stop4212"
         style="stop-color:#8ae234;stop-opacity:1"
         offset="1" />
    </linearGradient>
    <linearGradient
       x1="491.22195"
       y1="506.64685"
       x2="491.22195"
       y2="732.05341"
       id="linearGradient4217"
       xlink:href="#linearGradient4373-2-5-8-6-3-3-2"
       gradientUnits="userSpaceOnUse"
       gradientTransform="matrix(0.09329421,0,0,0.09329421,-35.8706,-43.768871)" />
    <linearGradient
       x1="491.22195"
       y1="506.64685"
       x2="491.22195"
       y2="732.05341"
       id="linearGradient4219"
       xlink:href="#linearGradient4373-2-5-8-6-3-3-2"
       gradientUnits="userSpaceOnUse"
       gradientTransform="matrix(0.09329421,0,0,0.09329421,-35.8706,-43.768871)" />
    <linearGradient
       x1="491.22195"
       y1="506.64685"
       x2="491.22195"
       y2="732.05341"
       id="linearGradient4221"
       xlink:href="#linearGradient4373-2-5-8-6-3-3-2"
       gradientUnits="userSpaceOnUse"
       gradientTransform="matrix(0.09329421,0,0,0.09329421,-35.8706,-43.768871)" />
    <linearGradient
       x1="491.22195"
       y1="506.64685"
       x2="491.22195"
       y2="732.05341"
       id="linearGradient3034-1-11-8"
       xlink:href="#linearGradient4373-2-5-8-6-3-3-2-1"
       gradientUnits="userSpaceOnUse"
       gradientTransform="matrix(0.09329421,0,0,0.09329421,-35.8706,-43.768871)" />
    <linearGradient
       id="linearGradient4373-2-5-8-6-3-3-2-1">
      <stop
         id="stop4375-3-6-8-4-9-2-3-0"
         style="stop-color:#4e9a06;stop-opacity:1"
         offset="0" />
      <stop
         id="stop4377-3-5-2-3-5-3-3-0"
         style="stop-color:#8ae234;stop-opacity:1"
         offset="1" />
    </linearGradient>
    <linearGradient
       x1="491.22195"
       y1="506.64685"
       x2="491.22195"
       y2="732.05341"
       id="linearGradient4341"
       xlink:href="#linearGradient4373-2-5-8-6-3-3-2-1"
       gradientUnits="userSpaceOnUse"
       gradientTransform="matrix(0.09329421,0,0,0.09329421,-39.497066,-47.586678)" />
    <linearGradient
       x1="491.22195"
       y1="506.64685"
       x2="491.22195"
       y2="732.05341"
       id="linearGradient3034-1-11-8-2"
       xlink:href="#linearGradient4373-2-5-8-6-3-3-2-1-6"
       gradientUnits="userSpaceOnUse"
       gradientTransform="matrix(0.09329421,0,0,0.09329421,-35.8706,-43.768871)" />
    <linearGradient
       id="linearGradient4373-2-5-8-6-3-3-2-1-6">
      <stop
         id="stop4375-3-6-8-4-9-2-3-0-8"
         style="stop-color:#4e9a06;stop-opacity:1"
         offset="0" />
      <stop
         id="stop4377-3-5-2-3-5-3-3-0-0"
         style="stop-color:#8ae234;stop-opacity:1"
         offset="1" />
    </linearGradient>
    <linearGradient
       x1="491.22195"
       y1="506.64685"
       x2="491.22195"
       y2="732.05341"
       id="linearGradient4533"
       xlink:href="#linearGradient4373-2-5-8-6-3-3-2-1-6"
       gradientUnits="userSpaceOnUse"
       gradientTransform="matrix(0.09329421,0,0,0.09329421,-40.13795,-47.510514)" />
  </defs>
  <metadata
     id="metadata3991">
    <rdf:RDF>
      <cc:Work
         rdf:about="">
        <dc:format>image/svg+xml</dc:format>
        <dc:type
           rdf:resource="http://purl.org/dc/dcmitype/StillImage" />
        <dc:title></dc:title>
        <cc:license
           rdf:resource="http://creativecommons.org/licenses/by-sa/3.0/" />
      </cc:Work>
      <cc:License
         rdf:about="http://creativecommons.org/licenses/by-sa/3.0/">
        <cc:permits
           rdf:resource="http://creativecommons.org/ns#Reproduction" />
        <cc:permits
           rdf:resource="http://creativecommons.org/ns#Distribution" />
        <cc:requires
           rdf:resource="http://creativecommons.org/ns#Notice" />
        <cc:requires
           rdf:resource="http://creativecommons.org/ns#Attribution" />
        <cc:permits
           rdf:resource="http://creativecommons.org/ns#DerivativeWorks" />
        <cc:requires
           rdf:resource="http://creativecommons.org/ns#ShareAlike" />
      </cc:License>
    </rdf:RDF>
  </metadata>
  <rect
     width="15.003705"
     height="15.003344"
     rx="1.5143198"
     ry="1.5142833"
     x="0.49814749"
     y="0.49832821"
     id="rect4319"
     style="fill:url(#radialGradient3042);fill-opacity:1;fill-rule:evenodd;stroke:url(#linearGradient3044);stroke-width:1.00000095;stroke-linecap:butt;stroke-linejoin:bevel;stroke-miterlimit:10;stroke-opacity:1;stroke-dasharray:none;stroke-dashoffset:0;marker:none;visibility:visible;display:inline;overflow:visible;enable-background:new" />
  <rect
     width="12.997247"
     height="12.999963"
     rx="0.5081172"
     ry="0.50810492"
     x="1.5013518"
     y="1.5016088"
     id="rect4321"
     style="fill:none;stroke:#ffffff;stroke-width:0.99999994;stroke-linecap:butt;stroke-linejoin:bevel;stroke-miterlimit:10;stroke-opacity:1;stroke-dasharray:none;stroke-dashoffset:0;marker:none;visibility:visible;display:inline;overflow:visible;enable-background:new" />
  <rect
     width="14.000044"
     height="14.000041"
     rx="1.9062433"
     ry="1.9062428"
     x="1.0017486"
     y="1.0015783"
     id="rect9035"
     style="fill:url(#radialGradient3038);fill-opacity:1;fill-rule:evenodd;stroke:none;stroke-width:1;marker:none;visibility:visible;display:inline;overflow:visible;enable-background:new" />
  <path
     d="m 9.0593202,4.8342297 c -1.0618901,0 -1.8016162,0.3976987 -2.2500002,0.8749999 -0.448384,0.4773013 -0.617186,1.0049648 -0.6875,1.34375 l -0.0625,0.25 -0.71875,0 a 0.250025,0.250025 0 0 0 -0.0625,0 0.250025,0.250025 0 0 0 -0.09375,0.0625 0.250025,0.250025 0 0 0 -0.03125,0.03125 0.250025,0.250025 0 0 0 -0.03125,0.03125 0.250025,0.250025 0 0 0 -0.03125,0.09375 l -0.1875,1.09375 a 0.250025,0.250025 0 0 0 0,0.03125 0.250025,0.250025 0 0 0 0,0.0625 0.250025,0.250025 0 0 0 0.125,0.15625 0.250025,0.250025 0 0 0 0.125,0.03125 l 0.59375,0 -0.84375,4.1562504 a 0.250025,0.250025 0 0 0 0,0.0625 0.250025,0.250025 0 0 0 0,0.0625 0.250025,0.250025 0 0 0 0.09375,0.125 0.250025,0.250025 0 0 0 0.03125,0.03125 0.250025,0.250025 0 0 0 0.09375,0.03125 0.250025,0.250025 0 0 0 0.03125,0 l 1.40625,0 a 0.250025,0.250025 0 0 0 0.03125,0 0.250025,0.250025 0 0 0 0.09375,-0.03125 0.250025,0.250025 0 0 0 0.09375,-0.09375 0.250025,0.250025 0 0 0 0.03125,-0.0625 l 0.8437502,-4.2812504 1.875,0 a 0.250025,0.250025 0 0 0 0.03125,0 0.250025,0.250025 0 0 0 0.09375,-0.03125 0.250025,0.250025 0 0 0 0.09375,-0.09375 0.250025,0.250025 0 0 0 0.03125,-0.0625 l 0.21875,-1.09375 a 0.250025,0.250025 0 0 0 0,-0.0625 0.250025,0.250025 0 0 0 0,-0.0625 0.250025,0.250025 0 0 0 -0.0625,-0.09375 0.250025,0.250025 0 0 0 -0.03125,-0.03125 0.250025,0.250025 0 0 0 -0.0625,-0.03125 0.250025,0.250025 0 0 0 -0.09375,-0.03125 l -1.78125,0 0.03125,-0.15625 c 0.037755,-0.1929699 0.147325,-0.3464786 0.34375,-0.46875 0.196425,-0.1222714 0.4762021,-0.21875 0.8125,-0.21875 0.3047946,0 0.6558987,0.064823 0.78125,0.09375 l 0.2187498,0.0625 a 0.250025,0.250025 0 0 0 0.0625,0 0.250025,0.250025 0 0 0 0.0625,0 0.250025,0.250025 0 0 0 0.125,-0.09375 0.250025,0.250025 0 0 0 0.03125,-0.03125 0.250025,0.250025 0 0 0 0,-0.03125 l 0.40625,-0.9999999 a 0.250025,0.250025 0 0 0 0.03125,-0.03125 0.250025,0.250025 0 0 0 0,-0.0625 0.250025,0.250025 0 0 0 -0.03125,-0.09375 0.250025,0.250025 0 0 0 -0.03125,-0.0625 0.250025,0.250025 0 0 0 -0.03125,-0.03125 0.250025,0.250025 0 0 0 -0.0625,-0.03125 0.250025,0.250025 0 0 0 -0.03125,-0.03125 l -0.1875,-0.0625 C 9.8230217,4.836401 9.3652916,4.8342297 9.0593202,4.8342297 z"
     id="path4289-0-54-5"
     style="font-size:11.52737713px;font-style:italic;font-variant:normal;font-weight:bold;font-stretch:normal;text-align:start;line-height:125%;letter-spacing:0px;word-spacing:0px;writing-mode:lr-tb;text-anchor:start;color:#000000;fill:#ffffff;fill-opacity:1;fill-rule:nonzero;stroke:none;stroke-width:0.9999997;marker:none;visibility:visible;display:block;overflow:visible;enable-background:new;font-family:Cantarell;-inkscape-font-specification:Cantarell Bold Italic" />
  <path
     d="m 9.1111002,3.8038987 c -1.0618901,0 -1.8016162,0.3976987 -2.2500003,0.875 -0.448384,0.4773013 -0.617186,1.0049648 -0.6875,1.34375 l -0.0625,0.25 -0.71875,0 a 0.250025,0.250025 0 0 0 -0.0625,0 0.250025,0.250025 0 0 0 -0.09375,0.0625 0.250025,0.250025 0 0 0 -0.03125,0.03125 0.250025,0.250025 0 0 0 -0.03125,0.03125 0.250025,0.250025 0 0 0 -0.03125,0.09375 l -0.1875,1.09375 a 0.250025,0.250025 0 0 0 0,0.03125 0.250025,0.250025 0 0 0 0,0.0625 0.250025,0.250025 0 0 0 0.125,0.15625 0.250025,0.250025 0 0 0 0.125,0.03125 l 0.59375,0 -0.84375,4.1562503 a 0.250025,0.250025 0 0 0 0,0.0625 0.250025,0.250025 0 0 0 0,0.0625 0.250025,0.250025 0 0 0 0.09375,0.125 0.250025,0.250025 0 0 0 0.03125,0.03125 0.250025,0.250025 0 0 0 0.09375,0.03125 0.250025,0.250025 0 0 0 0.03125,0 l 1.40625,0 a 0.250025,0.250025 0 0 0 0.03125,0 0.250025,0.250025 0 0 0 0.09375,-0.03125 0.250025,0.250025 0 0 0 0.09375,-0.09375 0.250025,0.250025 0 0 0 0.03125,-0.0625 l 0.8437503,-4.2812503 1.875,0 a 0.250025,0.250025 0 0 0 0.03125,0 0.250025,0.250025 0 0 0 0.09375,-0.03125 0.250025,0.250025 0 0 0 0.09375,-0.09375 0.250025,0.250025 0 0 0 0.03125,-0.0625 L 10.0486,6.5851487 a 0.250025,0.250025 0 0 0 0,-0.0625 0.250025,0.250025 0 0 0 0,-0.0625 0.250025,0.250025 0 0 0 -0.0625,-0.09375 0.250025,0.250025 0 0 0 -0.03125,-0.03125 0.250025,0.250025 0 0 0 -0.0625,-0.03125 0.250025,0.250025 0 0 0 -0.09375,-0.03125 l -1.78125,0 0.03125,-0.15625 c 0.037755,-0.1929699 0.147325,-0.3464786 0.34375,-0.46875 0.196425,-0.1222714 0.4762021,-0.21875 0.8125,-0.21875 0.3047946,0 0.6558987,0.064823 0.78125,0.09375 l 0.21875,0.0625 a 0.250025,0.250025 0 0 0 0.0625,0 0.250025,0.250025 0 0 0 0.0625,0 0.250025,0.250025 0 0 0 0.125,-0.09375 0.250025,0.250025 0 0 0 0.03125,-0.03125 0.250025,0.250025 0 0 0 0,-0.03125 l 0.40625,-1 a 0.250025,0.250025 0 0 0 0.03125,-0.03125 0.250025,0.250025 0 0 0 0,-0.0625 0.250025,0.250025 0 0 0 -0.03125,-0.09375 0.250025,0.250025 0 0 0 -0.03125,-0.0625 0.250025,0.250025 0 0 0 -0.03125,-0.03125 0.250025,0.250025 0 0 0 -0.0625,-0.03125 0.250025,0.250025 0 0 0 -0.03125,-0.03125 l -0.1875,-0.0625 C 9.8748015,3.80607 9.4170713,3.8038987 9.1111,3.8038987 z"
     id="path4289-0-54-5-0"
     style="font-size:11.52737713px;font-style:italic;font-variant:normal;font-weight:bold;font-stretch:normal;text-align:start;line-height:125%;letter-spacing:0px;word-spacing:0px;writing-mode:lr-tb;text-anchor:start;color:#000000;fill:url(#linearGradient3034-1-11-8-2);fill-opacity:1;fill-rule:nonzero;stroke:none;stroke-width:0.9999997;marker:none;visibility:visible;display:block;overflow:visible;enable-background:new;font-family:Cantarell;-inkscape-font-specification:Cantarell Bold Italic" />
</svg>
