<?xml version="1.0" encoding="UTF-8" standalone="no"?>
<!-- Created with Inkscape (http://www.inkscape.org/) -->

<svg
   xmlns:dc="http://purl.org/dc/elements/1.1/"
   xmlns:cc="http://creativecommons.org/ns#"
   xmlns:rdf="http://www.w3.org/1999/02/22-rdf-syntax-ns#"
   xmlns:svg="http://www.w3.org/2000/svg"
   xmlns="http://www.w3.org/2000/svg"
   xmlns:xlink="http://www.w3.org/1999/xlink"
   version="1.1"
   width="16"
   height="16"
   id="svg4286">
  <defs
     id="defs4288">
    <linearGradient
       id="linearGradient4921">
      <stop
         id="stop4923"
         style="stop-color:#fcaf3e;stop-opacity:1"
         offset="0" />
      <stop
         id="stop4925"
         style="stop-color:#fcaf3e;stop-opacity:0"
         offset="1" />
    </linearGradient>
    <linearGradient
       id="linearGradient8896">
      <stop
         id="stop8898"
         style="stop-color:#000000;stop-opacity:1"
         offset="0" />
      <stop
         id="stop8900"
         style="stop-color:#000000;stop-opacity:0"
         offset="1" />
    </linearGradient>
    <linearGradient
       id="linearGradient5676">
      <stop
         id="stop5678"
         style="stop-color:#4e9a06;stop-opacity:1"
         offset="0" />
      <stop
         id="stop5680"
         style="stop-color:#4e9a06;stop-opacity:0"
         offset="1" />
    </linearGradient>
    <linearGradient
       x1="18.0625"
       y1="9.6541071"
       x2="18.0625"
       y2="26.1875"
       id="linearGradient3771"
       xlink:href="#linearGradient6050-1-7-6-4-7-3-6-2-4-5"
       gradientUnits="userSpaceOnUse"
       gradientTransform="matrix(0.57373424,0,0,0.59220544,-3.98276,-5.2836287)" />
    <linearGradient
       id="linearGradient6050-1-7-6-4-7-3-6-2-4-5">
      <stop
         id="stop6052-7-5-7-8-3-0-8-8-5-1"
         style="stop-color:#4f9a06;stop-opacity:1"
         offset="0" />
      <stop
         id="stop6054-0-7-8-9-2-5-1-9-7-2"
         style="stop-color:#8ae234;stop-opacity:1"
         offset="1" />
    </linearGradient>
    <linearGradient
       x1="310.875"
       y1="229.8125"
       x2="310.875"
       y2="220.56094"
       id="linearGradient3766"
       xlink:href="#linearGradient8480-3"
       gradientUnits="userSpaceOnUse" />
    <linearGradient
       id="linearGradient8480-3">
      <stop
         id="stop8482-8"
         style="stop-color:#ffffff;stop-opacity:1"
         offset="0" />
      <stop
         id="stop8484-3"
         style="stop-color:#ffffff;stop-opacity:0"
         offset="1" />
    </linearGradient>
    <clipPath
       id="clipPath8434-7">
      <path
         d="m 243.44687,14.015611 0,208.269279 -208.269277,0 0,-208.269279 208.269277,0 z m -89.4907,58.575735 -34.16918,0 0,91.117814 39.05049,0 0,-52.06732 13.01683,0 0,-25.626888 c -10.7316,0 -17.89814,-2.202187 -17.89814,-13.423606 z"
         id="path8436-8"
         style="opacity:0.5;fill:#000000;fill-opacity:1;fill-rule:nonzero;stroke:none;stroke-width:2;marker:none;visibility:visible;display:inline;overflow:visible;enable-background:accumulate" />
    </clipPath>
    <linearGradient
       id="linearGradient4393-7-9">
      <stop
         id="stop4395-4-8"
         style="stop-color:#ffffff;stop-opacity:1"
         offset="0" />
      <stop
         id="stop4397-4-9"
         style="stop-color:#ffffff;stop-opacity:0"
         offset="1" />
    </linearGradient>
    <linearGradient
       x1="-106.31753"
       y1="59.90741"
       x2="-106.31753"
       y2="171.05693"
       id="linearGradient3760"
       xlink:href="#linearGradient4632-1-3-9-3-2-5-8-5-1-2-7-1-6-9"
       gradientUnits="userSpaceOnUse"
       gradientTransform="matrix(1.5599975,0,0,1.5599977,81.712462,-63.003008)" />
    <linearGradient
       id="linearGradient4632-1-3-9-3-2-5-8-5-1-2-7-1-6-9">
      <stop
         id="stop4634-1-8-3-9-0-1-4-0-0-8-2-5-3-8"
         style="stop-color:#edfae0;stop-opacity:1"
         offset="0" />
      <stop
         id="stop4636-1-9-9-8-8-9-6-8-9-5-4-5-5-2"
         style="stop-color:#ffffff;stop-opacity:1"
         offset="0.0274937" />
      <stop
         id="stop4638-8-3-9-6-6-9-8-0-1-8-8-6-2-8"
         style="stop-color:#f2fce8;stop-opacity:1"
         offset="0.274937" />
      <stop
         id="stop4640-8-5-7-8-9-6-8-7-4-9-6-8-9-4"
         style="stop-color:#edfae0;stop-opacity:1"
         offset="0.38707438" />
      <stop
         id="stop4642-5-41-9-6-9-8-3-8-8-9-7-5-9-5"
         style="stop-color:#d9f5bd;stop-opacity:1"
         offset="0.66528589" />
      <stop
         id="stop4644-5-2-7-9-2-2-4-1-8-1-4-1-6-6"
         style="stop-color:#dff7c7;stop-opacity:1"
         offset="0.76745707" />
      <stop
         id="stop4646-3-2-3-7-3-7-9-8-5-0-3-5-9-6"
         style="stop-color:#f0f0f0;stop-opacity:1"
         offset="1" />
    </linearGradient>
    <linearGradient
       id="linearGradient4022-6-3-3-4-0-1-8-9-6-0-4">
      <stop
         id="stop4024-1-0-7-8-9-2-9-9-1-2-8"
         style="stop-color:#4f9a06;stop-opacity:1"
         offset="0" />
      <stop
         id="stop4026-2-4-1-4-3-8-2-1-2-5-0"
         style="stop-color:#8ae234;stop-opacity:1"
         offset="1" />
    </linearGradient>
    <linearGradient
       id="linearGradient4853-9">
      <stop
         id="stop4855-4"
         style="stop-color:#ffffff;stop-opacity:1"
         offset="0" />
      <stop
         id="stop4857-1"
         style="stop-color:#ffffff;stop-opacity:0"
         offset="1" />
    </linearGradient>
    <linearGradient
       x1="-150.02495"
       y1="62.156101"
       x2="-150.02495"
       y2="274.07629"
       id="linearGradient3764-3"
       xlink:href="#linearGradient4853-9-6"
       gradientUnits="userSpaceOnUse" />
    <linearGradient
       id="linearGradient4853-9-6">
      <stop
         id="stop4855-4-8"
         style="stop-color:#ffffff;stop-opacity:1"
         offset="0" />
      <stop
         id="stop4857-1-9"
         style="stop-color:#ffffff;stop-opacity:0"
         offset="1" />
    </linearGradient>
    <linearGradient
       x1="-150.02495"
       y1="62.156101"
       x2="-150.02495"
       y2="274.07629"
       id="linearGradient5408"
       xlink:href="#linearGradient4853-9-6"
       gradientUnits="userSpaceOnUse" />
    <linearGradient
       x1="-106.31753"
       y1="59.90741"
       x2="-106.31753"
       y2="171.05693"
       id="linearGradient5445"
       xlink:href="#linearGradient4632-1-3-9-3-2-5-8-5-1-2-7-1-6-9"
       gradientUnits="userSpaceOnUse"
       gradientTransform="matrix(0.11984466,0,0,0.11984467,24.979917,-5.9168478)" />
    <linearGradient
       x1="-42.698154"
       y1="169.07428"
       x2="-132.12018"
       y2="169.07428"
       id="linearGradient5447"
       xlink:href="#linearGradient4022-6-3-3-4-0-1-8-9-6-0-4"
       gradientUnits="userSpaceOnUse"
       gradientTransform="matrix(0,0.11584983,0.11584983,0,-2.2315447,20.729109)" />
    <linearGradient
       x1="6.6228719"
       y1="-1.3009801"
       x2="6.6228719"
       y2="10.049566"
       id="linearGradient5462"
       xlink:href="#linearGradient6050-1-7-6-4-7-3-6-2-4-5"
       gradientUnits="userSpaceOnUse" />
    <linearGradient
       x1="6.6228719"
       y1="-1.3009801"
       x2="6.6228719"
       y2="10.049566"
       id="linearGradient5603"
       xlink:href="#linearGradient6050-1-7-6-4-7-3-6-2-4-5"
       gradientUnits="userSpaceOnUse" />
    <linearGradient
       x1="6.6228719"
       y1="-1.3009801"
       x2="6.6228719"
       y2="10.049566"
       id="linearGradient5609"
       xlink:href="#linearGradient6050-1-7-6-4-7-3-6-2-4-5"
       gradientUnits="userSpaceOnUse"
       gradientTransform="translate(0.42651341,-0.02881858)" />
    <linearGradient
       x1="-4.2982244"
       y1="2.83077"
       x2="-2.5372779"
       y2="2.83077"
       id="linearGradient5690"
       xlink:href="#linearGradient4632-1-3-9-3-2-5-8-5-1-2-7-1-6-9"
       gradientUnits="userSpaceOnUse" />
    <linearGradient
       x1="-5.6747751"
       y1="4.3266273"
       x2="-2.031734"
       y2="4.3266273"
       id="linearGradient8902"
       xlink:href="#linearGradient8896"
       gradientUnits="userSpaceOnUse" />
    <linearGradient
       x1="6.6228719"
       y1="-1.3009801"
       x2="6.6228719"
       y2="10.049566"
       id="linearGradient8908"
       xlink:href="#linearGradient6050-1-7-6-4-7-3-6-2-4-5"
       gradientUnits="userSpaceOnUse"
       gradientTransform="translate(0.42651341,-0.02881858)" />
    <linearGradient
       x1="-150.02495"
       y1="62.156101"
       x2="-150.02495"
       y2="274.07629"
       id="linearGradient8913"
       xlink:href="#linearGradient4853-9-6"
       gradientUnits="userSpaceOnUse"
       gradientTransform="matrix(0.11069528,0,0,0.11066585,23.682407,-4.8510717)" />
    <linearGradient
       x1="-106.31753"
       y1="59.90741"
       x2="-106.31753"
       y2="171.05693"
       id="linearGradient8916"
       xlink:href="#linearGradient4632-1-3-9-3-2-5-8-5-1-2-7-1-6-9"
       gradientUnits="userSpaceOnUse"
       gradientTransform="matrix(0.11984466,0,0,0.11984467,24.979917,-5.9168478)" />
    <linearGradient
       x1="-42.698154"
       y1="169.07428"
       x2="-132.12018"
       y2="169.07428"
       id="linearGradient8918"
       xlink:href="#linearGradient4022-6-3-3-4-0-1-8-9-6-0-4"
       gradientUnits="userSpaceOnUse"
       gradientTransform="matrix(0,0.11584983,0.11584983,0,-2.2315447,20.729109)" />
    <linearGradient
       x1="6.6228719"
       y1="-1.3009801"
       x2="6.6228719"
       y2="10.049566"
       id="linearGradient8928"
       xlink:href="#linearGradient6050-1-7-6-4-7-3-6-2-4-5"
       gradientUnits="userSpaceOnUse"
       gradientTransform="translate(0.42651341,-0.02881858)" />
    <linearGradient
       x1="6.6228719"
       y1="-1.3009801"
       x2="6.6228719"
       y2="10.049566"
       id="linearGradient3374"
       xlink:href="#linearGradient6050-1-7-6-4-7-3-6-2-4-5-4"
       gradientUnits="userSpaceOnUse" />
    <linearGradient
       x1="6.6228719"
       y1="-1.3009801"
       x2="6.6228719"
       y2="10.049566"
       id="linearGradient3412"
       xlink:href="#linearGradient6050-1-7-6-4-7-3-6-2-4-5-4"
       gradientUnits="userSpaceOnUse" />
    <linearGradient
       x1="6.6228719"
       y1="-1.3009801"
       x2="6.6228719"
       y2="10.049566"
       id="linearGradient3466"
       xlink:href="#linearGradient6050-1-7-6-4-7-3-6-2-4-5-4"
       gradientUnits="userSpaceOnUse" />
    <linearGradient
       x1="6.6228719"
       y1="-1.3009801"
       x2="6.6228719"
       y2="10.049566"
       id="linearGradient4257"
       xlink:href="#linearGradient6050-1-7-6-4-7-3-6-2-4-5-4"
       gradientUnits="userSpaceOnUse" />
    <linearGradient
       x1="6.6228719"
       y1="-1.3009801"
       x2="6.6228719"
       y2="10.049566"
       id="linearGradient4263"
       xlink:href="#linearGradient6050-1-7-6-4-7-3-6-2-4-5"
       gradientUnits="userSpaceOnUse" />
    <linearGradient
       x1="6.6228719"
       y1="-1.3009801"
       x2="6.6228719"
       y2="10.049566"
       id="linearGradient4277"
       xlink:href="#linearGradient6050-1-7-6-4-7-3-6-2-4-5"
       gradientUnits="userSpaceOnUse" />
    <linearGradient
       x1="6.6228719"
       y1="-1.3009801"
       x2="6.6228719"
       y2="10.049566"
       id="linearGradient4283"
       xlink:href="#linearGradient6050-1-7-6-4-7-3-6-2-4-5"
       gradientUnits="userSpaceOnUse"
       gradientTransform="translate(0.54755087,0)" />
    <linearGradient
       x1="6.6228719"
       y1="-1.3009801"
       x2="6.6228719"
       y2="10.049566"
       id="linearGradient4295"
       xlink:href="#linearGradient6050-1-7-6-4-7-3-6-2-4-5"
       gradientUnits="userSpaceOnUse"
       gradientTransform="translate(0.54755087,0)" />
    <linearGradient
       x1="-6.1102781"
       y1="2.6887574"
       x2="-4.1524439"
       y2="2.6887574"
       id="linearGradient4927"
       xlink:href="#linearGradient4921"
       gradientUnits="userSpaceOnUse" />
  </defs>
  <metadata
     id="metadata4291">
    <rdf:RDF>
      <cc:Work
         rdf:about="">
        <dc:format>image/svg+xml</dc:format>
        <dc:type
           rdf:resource="http://purl.org/dc/dcmitype/StillImage" />
        <dc:title></dc:title>
        <cc:license
           rdf:resource="http://creativecommons.org/licenses/by-sa/3.0/" />
      </cc:Work>
      <cc:License
         rdf:about="http://creativecommons.org/licenses/by-sa/3.0/">
        <cc:permits
           rdf:resource="http://creativecommons.org/ns#Reproduction" />
        <cc:permits
           rdf:resource="http://creativecommons.org/ns#Distribution" />
        <cc:requires
           rdf:resource="http://creativecommons.org/ns#Notice" />
        <cc:requires
           rdf:resource="http://creativecommons.org/ns#Attribution" />
        <cc:permits
           rdf:resource="http://creativecommons.org/ns#DerivativeWorks" />
        <cc:requires
           rdf:resource="http://creativecommons.org/ns#ShareAlike" />
      </cc:License>
    </rdf:RDF>
  </metadata>
  <path
     d="m 12.411986,12.134781 2.112266,2.280563"
     id="path7868-7"
     style="opacity:0.37558684;color:#000000;fill:none;stroke:#eeeeec;stroke-width:1;stroke-linecap:round;stroke-linejoin:round;stroke-miterlimit:4;stroke-opacity:1;stroke-dasharray:none;stroke-dashoffset:1.6;marker:none;visibility:visible;display:inline;overflow:visible;enable-background:accumulate" />
  <rect
     width="14.999999"
     height="14.999999"
     rx="3.2073758"
     ry="3.2027895"
     x="0.49999967"
     y="0.49999928"
     id="rect7870-5"
     style="color:#000000;fill:url(#linearGradient8916);fill-opacity:1;stroke:url(#linearGradient8918);stroke-width:0.99999994;stroke-linecap:round;stroke-linejoin:miter;stroke-miterlimit:4;stroke-opacity:1;stroke-dasharray:none;stroke-dashoffset:0;marker:none;visibility:visible;display:inline;overflow:visible;enable-background:new" />
  <path
     d="m 3.8195227,1.4949231 c -1.2946898,0 -2.3246009,1.0324565 -2.3246009,2.3274412 l 0,8.3552717 c 0,1.294985 1.0299111,2.327441 2.3246009,2.327441 l 8.3609533,0 c 1.294689,0 2.3246,-1.032456 2.3246,-2.327441 l 0,-8.3552717 c 0,-1.2949847 -1.029911,-2.3274412 -2.3246,-2.3274412 l -8.3609533,0 z"
     id="path7872-5-4"
     style="color:#000000;fill:none;stroke:url(#linearGradient8913);stroke-width:0.98984581;stroke-linecap:round;stroke-linejoin:miter;stroke-miterlimit:4;stroke-opacity:1;stroke-dasharray:none;stroke-dashoffset:0;marker:none;visibility:visible;display:inline;overflow:visible;enable-background:new" />
  <path
     d="m 9.15625,2.96875 c -1.240429,0 -2.1735062,0.476225 -2.75,1.09375 C 5.9459199,4.5555936 5.8087121,5.02184 5.6875,5.4375 l -0.21875,0 A 1.0001,1.0001 0 0 0 4.5,6.25 L 4.28125,7.3125 A 1.0001,1.0001 0 0 0 5,8.46875 L 4.3125,11.8125 A 1.0001,1.0001 0 0 0 5.28125,13 l 1.375,0 a 1.0001,1.0001 0 0 0 1,-0.8125 l 0.75,-3.65625 1.25,0 A 1.0001,1.0001 0 0 0 10.625,7.71875 L 10.84375,6.625 a 1.0001,1.0001 0 0 0 -0.03125,-0.5 1.0001,1.0001 0 0 0 0.4375,-0.5 l 0.40625,-1 A 1.0001,1.0001 0 0 0 11.09375,3.3125 L 10.9375,3.25 A 1.0001,1.0001 0 0 0 10.875,3.21875 c -0.753759,-0.2422798 -1.3677559,-0.25 -1.71875,-0.25 z"
     id="text5177-4-0"
     style="font-size:11.52737713px;font-style:italic;font-variant:normal;font-weight:bold;font-stretch:normal;text-indent:0;text-align:start;text-decoration:none;line-height:125%;letter-spacing:0px;word-spacing:0px;text-transform:none;direction:ltr;block-progression:tb;writing-mode:lr-tb;text-anchor:start;baseline-shift:baseline;color:#000000;fill:#ffffff;fill-opacity:1;stroke:none;stroke-width:2;marker:none;visibility:visible;display:inline;overflow:visible;enable-background:accumulate;font-family:Cantarell;-inkscape-font-specification:Cantarell Bold Italic" />
  <path
     d="M 9.15625,3.46875 C 8.0345951,3.46875 7.2406966,3.8806287 6.75,4.40625 6.2593034,4.9318713 6.0770409,5.5350531 6,5.90625 l 0,0.03125 -0.53125,0 c -0.2333,-0.00411 -0.4562667,0.1770488 -0.5,0.40625 l -0.1875,1.0625 C 4.7064268,7.6956093 4.9512646,8.0220596 5.25,8.03125 l 0.3125,0 -0.78125,3.875 c -0.055551,0.290956 0.2038342,0.598976 0.5,0.59375 l 1.375,0 c 0.2333,0.0041 0.4562667,-0.177049 0.5,-0.40625 l 0.8125,-4.0625 1.6875,0 c 0.2333,0.00411 0.456267,-0.1770488 0.5,-0.40625 l 0.1875,-1.09375 C 10.39762,6.2504072 10.160677,5.9502796 9.875,5.9375 l -1.3125,0 c 0.1118193,-0.1826619 0.2456439,-0.375 0.71875,-0.375 0.2538337,0 0.5725438,0.09126 0.6456469,0.092505 L 10.21875,5.71875 c 0.23,0.064736 0.498139,-0.062278 0.59375,-0.28125 l 0.375,-1 C 11.292011,4.1999608 11.17357,3.8890453 10.9375,3.78125 L 10.75,3.71875 c -0.01041,-3.255e-4 -0.02084,-3.255e-4 -0.03125,0 -0.699646,-0.2248862 -1.2371472,-0.25 -1.5625,-0.25 z m 0,1 c 0.1983491,0 0.5580151,0.048177 0.90625,0.125 l -0.03125,0.0625 C 9.8405926,4.6144011 9.6126906,4.5625 9.28125,4.5625 8.3781247,4.5625 7.5338649,5.0317737 7.375,5.84375 l -0.09375,0.5 c -0.055551,0.2909564 0.2038342,0.5989759 0.5,0.59375 l 1.46875,0 -0.03125,0.09375 -1.65625,0 c -0.2249277,-0.0071 -0.4438352,0.1570817 -0.5,0.375 L 6.28125,11.5 5.90625,11.5 6.6875,7.625 C 6.7430507,7.3340436 6.4836658,7.0260241 6.1875,7.03125 l -0.3125,0 0,-0.09375 0.53125,0 C 6.6290591,6.9274554 6.833389,6.7503695 6.875,6.53125 l 0.09375,-0.4375 c 0.04976,-0.2397535 0.2121478,-0.6581861 0.53125,-1 0.3191022,-0.3418139 0.7721433,-0.625 1.65625,-0.625 z"
     id="text5177-6"
     style="font-size:11.52737713px;font-style:italic;font-variant:normal;font-weight:bold;font-stretch:normal;text-indent:0;text-align:start;text-decoration:none;line-height:125%;letter-spacing:0px;word-spacing:0px;text-transform:none;direction:ltr;block-progression:tb;writing-mode:lr-tb;text-anchor:start;baseline-shift:baseline;color:#000000;fill:url(#linearGradient4295);fill-opacity:1;stroke:none;stroke-width:1;marker:none;visibility:visible;display:inline;overflow:visible;enable-background:accumulate;font-family:Cantarell;-inkscape-font-specification:Cantarell Bold Italic" />
  <path
     d="m 6.48415,5.9942365 -0.092219,0.4495677 -0.9221901,0 -0.2074928,1.0720461 0.9221902,0 L 5.2853027,12 6.668588,12 7.5677234,7.5158503 l 2.0864553,0 0.2074928,-1.0720461 -2.0864553,0 L 7.8789626,5.948127 C 7.9827089,5.4178682 8.5244965,5.0720463 9.2737752,5.0720463 c 0.3342936,0 0.6916428,0.080692 0.8414988,0.1152738 l 0.21902,0.057637 0.403458,-0.9913544 -0.172911,-0.069164 C 9.919309,3.9769457 9.4697403,3.9538908 9.1700288,3.9538908 c -2.0057616,0 -2.5590778,1.4293953 -2.6858788,2.0403457"
     id="path4289"
     style="font-size:11.52737713px;font-style:italic;font-variant:normal;font-weight:bold;font-stretch:normal;text-align:start;line-height:125%;letter-spacing:0px;word-spacing:0px;writing-mode:lr-tb;text-anchor:start;fill:#ffffff;fill-opacity:1;stroke:none;font-family:Cantarell;-inkscape-font-specification:Cantarell Bold Italic" />
</svg>
