<?xml version="1.0" encoding="UTF-8"?>
<!-- Licensed under the Creative Commons Attribution-Share Alike 3.0 United States License (http://creativecommons.org/licenses/by-sa/3.0/) -->
<svg xmlns="http://www.w3.org/2000/svg" id="root" version="1.1" viewBox="0 0 15 15">
 <path d="m7.5 0.50005c-0.22065 0-0.44081 0.0113-0.65625 0.0312l-0.4063 2.0938c-0.3345 0.0733-0.6631 0.1759-0.9687 0.3125l-1.5313-1.4687c-0.3886 0.2301-0.7269 0.514-1.0625 0.8124l0.9062 1.9063c-0.2224 0.249-0.4242 0.5225-0.5937 0.8125l-2.0937-0.2812c-0.17777 0.4087-0.30877 0.8363-0.4063 1.2812l1.8438 1c-0.0171 0.16809-0.0312 0.3274-0.0312 0.5s0.0142 0.33191 0.0312 0.5l-1.8438 1c0.0975 0.4449 0.22853 0.8725 0.4063 1.281l2.0937-0.281c0.1695 0.29 0.37133 0.56351 0.59375 0.8125l-0.9062 1.907c0.33555 0.29842 0.67387 0.58239 1.0625 0.8125l1.5313-1.47c0.3057 0.13661 0.63429 0.23916 0.96875 0.3125l0.40625 2.0938c0.21544 0.02 0.4356 0.0312 0.65625 0.0312s0.44081-0.0113 0.65625-0.0312l0.4062-2.093c0.33446-0.0733 0.66305-0.17589 0.96875-0.3125l1.5312 1.4688c0.38863-0.23011 0.72695-0.51408 1.0625-0.8125l-0.905-1.906c0.222-0.248 0.424-0.522 0.593-0.812l2.0938 0.28125c0.178-0.4085 0.309-0.8361 0.406-1.281l-1.843-1c0.0171-0.16809 0.0312-0.3274 0.0312-0.5s-0.0142-0.33191-0.0312-0.5l1.843-1c-0.097-0.4449-0.228-0.8725-0.406-1.2812l-2.094 0.2812c-0.169-0.29-0.371-0.5635-0.593-0.8125l0.906-1.9063c-0.336-0.2984-0.674-0.5823-1.063-0.8124l-1.5308 1.4687c-0.3056-0.1366-0.6342-0.2392-0.9687-0.3125l-0.4063-2.0938c-0.2154-0.01995-0.4356-0.03115-0.6562-0.03115zm0 4c1.6568 0 3 1.3432 3 3s-1.3432 3-3 3-3-1.3432-3-3 1.3432-3 3-3z"/>
</svg>
