<?xml version="1.0" encoding="UTF-8" standalone="no"?>
<!-- Licensed under the Creative Commons Attribution-Share Alike 3.0 United States License (http://creativecommons.org/licenses/by-sa/3.0/) -->
<svg xmlns="http://www.w3.org/2000/svg" version="1.1" viewBox="0 0 10 10">
 <g transform="translate(0,-6)">
  <path style="block-progression:tb;text-indent:0;color:#000000;text-transform:none" d="m3.7812 6c-1.5485 0-2.8124 1.264-2.8124 2.8125v0.40625h1.625v-0.40625c0-0.6773 0.5102-1.1875 1.1874-1.1875 0.6773 0 1.2188 0.5102 1.2188 1.1875v5.25h1.625v-5.25c0-1.5485-1.2952-2.8125-2.8438-2.8125z"/>
  <path style="block-progression:tb;text-indent:0;color:#bebebe;text-transform:none" d="m9.0302 11.642h-0.80604c-0.20706 0-0.42596 0.10465-0.57934 0.25189l-1.8389 1.839-1.8387-1.839c-0.1534-0.147-0.3723-0.252-0.5794-0.252h-0.80604v0.80604c0 0.24943 0.072785 0.44519 0.2267 0.60453l2.9974 2.947 2.9975-2.947c0.15391-0.15934 0.2267-0.3551 0.2267-0.60453z"/>
 </g>
</svg>
