<?xml version="1.0" encoding="UTF-8"?>
<!-- Licensed under the Creative Commons Attribution-Share Alike 3.0 United States License (http://creativecommons.org/licenses/by-sa/3.0/) -->
<svg xmlns="http://www.w3.org/2000/svg" id="root" version="1.1" viewBox="0 0 16 16">
 <rect width="9.9437" height="1" x="5.5849" y="5" fill="#e0a685"/>
 <rect width="9.9437" height=".97577" x="5.5276" y="14" fill="#e0a685"/>
 <rect width="1" height="10" x="5.5286" y="5" fill="#e0a685"/>
 <rect width="1" height="9.8951" x="14.529" y="5.1049" fill="#e0a685"/>
 <rect width="9.9437" height="1" x=".52864" y="1" fill="#e0a685"/>
 <rect width="9.9437" height=".97577" x=".52763" y="10" fill="#e0a685"/>
 <rect width="1" height="10" x=".52864" y="1" fill="#e0a685"/>
 <rect width="1" height="10" x="9.5286" y="1" fill="#e0a685"/>
 <path fill="#e0a685" d="m0.52864 2 5 4 1-1-5-4z"/>
 <path fill="#e0a685" d="m9.5286 2 5 4 1-1-5-4z"/>
 <path fill="#e0a685" d="m0.52864 11 5 4 1-1-5-4z"/>
 <path fill="#e0a685" d="m9.5286 11 5 4 1-1-5-4z"/>
</svg>
