<?xml version="1.0" encoding="UTF-8"?>
<!-- Licensed under the Creative Commons Attribution-Share Alike 3.0 United States License (http://creativecommons.org/licenses/by-sa/3.0/) -->
<svg xmlns="http://www.w3.org/2000/svg" id="root" version="1.1" viewBox="0 0 16 16">
 <path fill="currentColor" d="m7.9481 2.0014c-0.42299-0.023021-0.83571 0.22784-1.1571 0.77978l-5.0308 9.3318c-0.4295 0.776 0.0388 1.887 0.8804 1.887h10.59c0.79022 0 1.5319-0.93323 0.98101-1.8866l-5.0817-9.2815c-0.3209-0.5201-0.7592-0.807-1.1822-0.8301zm0.050308 3.1694c0.43827-0.013845 0.84397 0.39182 0.83009 0.83009v3.1694c0.00563 0.42525-0.37963 0.80493-0.80493 0.80493s-0.81095-0.37968-0.80493-0.80493v-3.1694c-0.0064-0.3755 0.285-0.7345 0.654-0.8049 0.041132-0.011672 0.083271-0.020043 0.12577-0.025114zm0.025154 5.6094c0.44455 0 0.80493 0.36038 0.80493 0.80493s-0.36039 0.80494-0.80493 0.80494c-0.44455 0-0.80493-0.36039-0.80493-0.80494s0.36039-0.80493 0.80493-0.80493z"/>
</svg>
