<?xml version="1.0" encoding="UTF-8"?>
<!-- Licensed under the Creative Commons Attribution-Share Alike 3.0 United States License (http://creativecommons.org/licenses/by-sa/3.0/) -->
<svg xmlns="http://www.w3.org/2000/svg" id="root" version="1.1" viewBox="0 0 16 16">
 <rect width="13.952" height="1" x="1.0242" y="9.9982" fill="#b0cb67" rx=".62308" ry="0.5" display="block"/>
 <path fill="#b0cb67" d="m12.263 6.5471-2.7128-1.5489-0.77509 0.77447 1.5502 1.9362 0.77509 4.6468 0.92382 1.6425v2l1-1 0.0139-3.8042z" display="block"/>
 <path fill="#b0cb67" d="m3.788 6.5471 2.6732-1.5489 0.76377 0.77447-1.5275 1.9362-0.76377 4.6468-0.90942 1.6425v2l-1-1v-3.8042z" display="block"/>
 <rect width="2" height="1.9963" x="7.0242" y=".0018385" fill="#b0cb67" rx=".75" ry="0.6" display="block"/>
 <rect width="2" height="3" x="7.0242" y="8.9982" fill="#b0cb67" rx="1.0556" ry="1.1061" display="block"/>
 <path fill="#b0cb67" d="m8.0242 0.99816c-1.6568 0-3 1.3431-3 3 0 1.6568 1.3432 3 3 3s3-1.3432 3-3-1.3432-3-3-3zm0 1.4687c0.84518 0 1.5312 0.68607 1.5312 1.5312 0 0.84518-0.68607 1.5312-1.5312 1.5312-0.84518 0-1.5312-0.68607-1.5312-1.5312 0-0.84518 0.68607-1.5312 1.5312-1.5312z"/>
</svg>
