<?xml version="1.0" encoding="UTF-8" standalone="no"?>
<!-- Created with Inkscape (http://www.inkscape.org/) -->

<svg
   xmlns:dc="http://purl.org/dc/elements/1.1/"
   xmlns:cc="http://creativecommons.org/ns#"
   xmlns:rdf="http://www.w3.org/1999/02/22-rdf-syntax-ns#"
   xmlns:svg="http://www.w3.org/2000/svg"
   xmlns="http://www.w3.org/2000/svg"
   version="1.1"
   width="15"
   height="13"
   id="svg7416">
  <defs
     id="defs7418" />
  <metadata
     id="metadata7421">
    <rdf:RDF>
      <cc:Work
         rdf:about="">
        <dc:format>image/svg+xml</dc:format>
        <dc:type
           rdf:resource="http://purl.org/dc/dcmitype/StillImage" />
        <cc:license
           rdf:resource="http://creativecommons.org/licenses/by-sa/3.0/" />
        <dc:title></dc:title>
      </cc:Work>
      <cc:License
         rdf:about="http://creativecommons.org/licenses/by-sa/3.0/">
        <cc:permits
           rdf:resource="http://creativecommons.org/ns#Reproduction" />
        <cc:permits
           rdf:resource="http://creativecommons.org/ns#Distribution" />
        <cc:requires
           rdf:resource="http://creativecommons.org/ns#Notice" />
        <cc:requires
           rdf:resource="http://creativecommons.org/ns#Attribution" />
        <cc:permits
           rdf:resource="http://creativecommons.org/ns#DerivativeWorks" />
        <cc:requires
           rdf:resource="http://creativecommons.org/ns#ShareAlike" />
      </cc:License>
    </rdf:RDF>
  </metadata>
  <g
     transform="translate(0,-3)"
     id="layer1">
    <path
       d="M 2,3 C 0.9476303,3 0,3.84508 0,4.9375 l 0,9.125 C 0,15.15492 0.9476303,16 2,16 l 7.6875,0 C 9.578972,15.833849 9.5,15.645923 9.5,15.4375 l 0,-3.875 c 0,-0.367706 0.206871,-0.683531 0.5,-0.875 L 10,9 l 3,0 0,1.5 1.4375,0 c 0.208424,0 0.396349,0.07897 0.5625,0.1875 l 0,-5.75 C 15,3.84508 14.05237,3 13,3 L 2,3 z m 0,3 3.03125,0 0,2 L 2,8 2,6 z m 5,0 1,0 0,1 1,0 0,1 -1,0 0,1 1,0 0,1 -1,0 0,1 1,0 0,1 -1,0 0,1 1,0 0,1 -1,0 0,-1 -1,0 0,1 -1,0 0,-1 1,0 0,-1 -1,0 0,-1 1,0 L 7,10 6,10 6,9 7,9 7,8 6,8 6,7 7,7 7,6 z M 7,7 7,8 8,8 8,7 7,7 z m 0,2 0,1 1,0 0,-1 -1,0 z m 0,2 0,1 1,0 0,-1 -1,0 z m 3,-5 3,0 0,2 -3,0 0,-2 z m -8,3 3.03125,0 0,2 L 2,11 2,9 z m 8.5625,2 C 10.254724,11 10,11.254723 10,11.5625 l 0,3.875 C 10,15.745276 10.254724,16 10.5625,16 l 3.875,0 C 14.745278,16 15,15.745276 15,15.4375 l 0,-3.875 C 15,11.254723 14.745278,11 14.4375,11 l -3.875,0 z m 1.0625,0.40625 0.96875,1.1875 1,-1.1875 0.84375,0.71875 -1.125,1.34375 1.125,1.375 -0.84375,0.71875 -1,-1.21875 L 11.625,15.5625 10.75,14.84375 11.90625,13.46875 10.75,12.125 11.625,11.40625 z M 2,12 l 3.03125,0 0,2 L 2,14 2,12 z"
       id="rect27790-9"
       style="font-size:medium;font-style:normal;font-variant:normal;font-weight:normal;font-stretch:normal;text-indent:0;text-align:start;text-decoration:none;line-height:normal;letter-spacing:normal;word-spacing:normal;text-transform:none;direction:ltr;block-progression:tb;writing-mode:lr-tb;text-anchor:start;baseline-shift:baseline;color:#000000;fill-opacity:1;stroke:none;stroke-width:2;marker:none;visibility:visible;display:inline;overflow:visible;enable-background:new;font-family:Sans;-inkscape-font-specification:Sans" />
  </g>
</svg>
