<?xml version="1.0" encoding="UTF-8" standalone="no"?>
<!-- Created with Inkscape (http://www.inkscape.org/) -->

<svg
   xmlns:dc="http://purl.org/dc/elements/1.1/"
   xmlns:cc="http://creativecommons.org/ns#"
   xmlns:rdf="http://www.w3.org/1999/02/22-rdf-syntax-ns#"
   xmlns:svg="http://www.w3.org/2000/svg"
   xmlns="http://www.w3.org/2000/svg"
   version="1.1"
   width="8"
   height="10"
   id="svg3021">
  <defs
     id="defs3023" />
  <metadata
     id="metadata3026">
    <rdf:RDF>
      <cc:Work
         rdf:about="">
        <dc:format>image/svg+xml</dc:format>
        <dc:type
           rdf:resource="http://purl.org/dc/dcmitype/StillImage" />
        <dc:title></dc:title>
        <cc:license
           rdf:resource="http://creativecommons.org/licenses/by-sa/3.0/" />
      </cc:Work>
      <cc:License
         rdf:about="http://creativecommons.org/licenses/by-sa/3.0/">
        <cc:permits
           rdf:resource="http://creativecommons.org/ns#Reproduction" />
        <cc:permits
           rdf:resource="http://creativecommons.org/ns#Distribution" />
        <cc:requires
           rdf:resource="http://creativecommons.org/ns#Notice" />
        <cc:requires
           rdf:resource="http://creativecommons.org/ns#Attribution" />
        <cc:permits
           rdf:resource="http://creativecommons.org/ns#DerivativeWorks" />
        <cc:requires
           rdf:resource="http://creativecommons.org/ns#ShareAlike" />
      </cc:License>
    </rdf:RDF>
  </metadata>
  <g
     transform="translate(0,-6)"
     id="layer1">
    <path
       d="m 3.3333333,6.6666666 c -1.0964666,0 -2,0.9035334 -2,2.0000001 l 0,2.0000003 -0.6666666,0 C 0.2973333,10.666667 0,10.964 0,11.333333 l 0,0.354167 0,3.645833 3.3333333,0 1.3333334,0 L 8,15.333333 8,11.6875 8,11.333333 C 8,10.964 7.7026667,10.666667 7.3333333,10.666667 l -0.6666666,0 0,-2.0000003 c 0,-1.0964667 -0.9035334,-2.0000001 -2,-2.0000001 l -1.3333334,0 z m 0,1.3333335 1.3333334,0 c 0.3808666,0 0.6666666,0.2857999 0.6666666,0.6666666 l 0,2.0000003 -2.6666666,0 0,-2.0000003 c 0,-0.3808667 0.2858,-0.6666666 0.6666666,-0.6666666 z"
       id="rect4063"
       style="color:#bebebe;fill-opacity:1;fill-rule:nonzero;stroke:none;stroke-width:2;marker:none;visibility:visible;display:inline;overflow:visible" />
  </g>
</svg>
