<?xml version="1.0" encoding="UTF-8"?>
<!-- Licensed under the Creative Commons Attribution-Share Alike 3.0 United States License (http://creativecommons.org/licenses/by-sa/3.0/) -->
<svg xmlns="http://www.w3.org/2000/svg" id="root" version="1.1" viewBox="0 0 10 10">
 <path fill="#bebebe" d="m1 1v8h0.4844c-0.2247-0.2625-0.1955-0.4959 0.0156-0.7656l1.2723-1.2605c-0.1697-0.2926-0.2723-0.6285-0.2723-0.9895 0-1.1068 0.90039-2.0156 2-2.0156s2 0.90884 2 2.0156-0.9004 2.0156-2 2.0156c-0.4046 0-0.7779-0.1178-1.0938-0.3281l-1.3906 1.3281h6c-0.063-0.063-0.1094-0.1539-0.1094-0.25 0-0.1922 0.1516-0.3438 0.3438-0.3438s0.3594 0.1516 0.3594 0.3438c0 0.0961-0.0464 0.187-0.1094 0.25h0.5v-8h-0.5c-0.063 0.063-0.1539 0.1094-0.25 0.1094s-0.1714-0.0464-0.2344-0.1094h-6.0312c-0.063 0.063-0.1383 0.1094-0.2344 0.1094s-0.187-0.0464-0.25-0.1094zm0.75 0.40625c0.19221 0 0.34375 0.15154 0.34375 0.34375s-0.15154 0.35938-0.34375 0.35938c-0.1922 0.0001-0.3594-0.1671-0.3594-0.3593s0.1672-0.3438 0.3594-0.3438zm6.5 0c0.19221 0 0.35938 0.15154 0.35938 0.34375 0 0.1922-0.1672 0.3594-0.3594 0.3594s-0.3438-0.1672-0.3438-0.3594 0.1516-0.3438 0.3438-0.3438zm-6.5 1c0.19221 0 0.34375 0.15154 0.34375 0.34375s-0.15154 0.35938-0.34375 0.35938c-0.1922 0.0001-0.3594-0.1671-0.3594-0.3593s0.1672-0.3438 0.3594-0.3438zm6.5 0c0.19221 0 0.35938 0.15154 0.35938 0.34375 0 0.1922-0.1672 0.3594-0.3594 0.3594s-0.3438-0.1672-0.3438-0.3594 0.1516-0.3438 0.3438-0.3438zm-6.5 1c0.19221 0 0.34375 0.15154 0.34375 0.34375s-0.15154 0.35938-0.34375 0.35938c-0.1922 0.0001-0.3594-0.1671-0.3594-0.3593s0.1672-0.3438 0.3594-0.3438zm6.5 0c0.19221 0 0.35938 0.15154 0.35938 0.34375 0 0.1922-0.1672 0.3594-0.3594 0.3594s-0.3438-0.1672-0.3438-0.3594 0.1516-0.3438 0.3438-0.3438zm-6.5 1c0.19221 0 0.34375 0.15154 0.34375 0.34375s-0.15154 0.35938-0.34375 0.35938c-0.1922 0.0001-0.3594-0.1671-0.3594-0.3593s0.1672-0.3438 0.3594-0.3438zm6.5 0c0.19221 0 0.35938 0.15154 0.35938 0.34375 0 0.1922-0.1672 0.3594-0.3594 0.3594s-0.3438-0.1672-0.3438-0.3594 0.1516-0.3438 0.3438-0.3438zm-3.7299 0.6016c-0.5561 0-0.99552 0.44808-0.99552 1.0078 0 0.55973 0.43942 1.0078 0.99552 1.0078s0.99552-0.44808 0.99552-1.0078c0-0.55973-0.43942-1.0078-0.99552-1.0078zm-2.7701 0.3984c0.19221 0 0.34375 0.15154 0.34375 0.34375s-0.15154 0.35938-0.34375 0.35938c-0.1922 0.0001-0.3594-0.1671-0.3594-0.3593s0.1672-0.3438 0.3594-0.3438zm6.5 0c0.19221 0 0.35938 0.15154 0.35938 0.34375 0 0.1922-0.1672 0.3594-0.3594 0.3594s-0.3438-0.1672-0.3438-0.3594 0.1516-0.3438 0.3438-0.3438zm-6.5 1c0.19221 0 0.34375 0.15154 0.34375 0.34375s-0.15154 0.35938-0.34375 0.35938c-0.1922 0.0001-0.3594-0.1671-0.3594-0.3593s0.1672-0.3438 0.3594-0.3438zm6.5 0c0.19221 0 0.35938 0.15154 0.35938 0.34375 0 0.1922-0.1672 0.3594-0.3594 0.3594s-0.3438-0.1672-0.3438-0.3594 0.1516-0.3438 0.3438-0.3438zm0 1c0.19221 0 0.35938 0.15154 0.35938 0.34375 0 0.1922-0.1672 0.3594-0.3594 0.3594s-0.3438-0.1672-0.3438-0.3594 0.1516-0.3438 0.3438-0.3438z"/>
</svg>
