<?xml version="1.0" encoding="UTF-8"?>
<!-- Licensed under the Creative Commons Attribution-Share Alike 3.0 United States License (http://creativecommons.org/licenses/by-sa/3.0/) -->
<svg xmlns="http://www.w3.org/2000/svg" id="root" version="1.1" viewBox="0 0 16 16">
 <path d="m2 2v12h0.72656c-0.33695-0.39381-0.29316-0.74388 0.0234-1.1484l1.9084-1.891c-0.2546-0.439-0.4084-0.943-0.4084-1.4844 0-1.6602 1.3506-3.0234 3-3.0234s3 1.3633 3 3.0234c0 1.6602-1.3506 3.0234-3 3.0234-0.6069 0-1.1669-0.17667-1.6406-0.49219l-2.086 1.992h8.9996c-0.09447-0.09447-0.16406-0.23084-0.16406-0.375 0-0.28832 0.22731-0.51562 0.51562-0.51562 0.28832 0 0.53906 0.22731 0.53906 0.51562 0 0.14416-0.0696 0.28053-0.16406 0.375h0.75v-12h-0.75c-0.09447 0.09447-0.23084 0.16406-0.375 0.16406s-0.25709-0.0696-0.35156-0.16406h-9.0464c-0.0945 0.0945-0.2074 0.1641-0.3516 0.1641s-0.2805-0.0696-0.375-0.1641zm1.125 0.60938c0.28832 0 0.51562 0.22731 0.51562 0.51562 0 0.28832-0.22731 0.53906-0.51562 0.53906-0.28832 0-0.53906-0.25075-0.53906-0.53906 0-0.28832 0.25075-0.51562 0.53906-0.51562zm9.75 0c0.28832 0 0.53906 0.22731 0.53906 0.51562 0 0.28832-0.25075 0.53906-0.53906 0.53906-0.28832 0-0.51562-0.25075-0.51562-0.53906 0-0.28832 0.22731-0.51562 0.51562-0.51562zm-9.75 1.5c0.28832 0 0.51562 0.22731 0.51562 0.51562 0 0.28832-0.22731 0.53906-0.51562 0.53906-0.28832 0-0.53906-0.25075-0.53906-0.53906 0-0.28832 0.25075-0.51562 0.53906-0.51562zm9.75 0c0.28832 0 0.53906 0.22731 0.53906 0.51562 0 0.28832-0.25075 0.53906-0.53906 0.53906-0.28832 0-0.51562-0.25075-0.51562-0.53906 0-0.28832 0.22731-0.51562 0.51562-0.51562zm-9.75 1.5c0.28832 0 0.51562 0.22731 0.51562 0.51562 0 0.28832-0.22731 0.53906-0.51562 0.53906-0.28832 0-0.53906-0.25075-0.53906-0.53906 0-0.28832 0.25075-0.51562 0.53906-0.51562zm9.75 0c0.28832 0 0.53906 0.22731 0.53906 0.51562 0 0.28832-0.25075 0.53906-0.53906 0.53906-0.28832 0-0.51562-0.25075-0.51562-0.53906 0-0.28832 0.22731-0.51562 0.51562-0.51562zm-9.75 1.5c0.28832 0 0.51562 0.22731 0.51562 0.51562 0 0.28832-0.22731 0.53906-0.51562 0.53906-0.28832 0-0.53906-0.25075-0.53906-0.53906 0-0.28832 0.25075-0.51562 0.53906-0.51562zm9.75 0c0.28832 0 0.53906 0.22731 0.53906 0.51562 0 0.28832-0.25075 0.53906-0.53906 0.53906-0.28832 0-0.51562-0.25075-0.51562-0.53906 0-0.28832 0.22731-0.51562 0.51562-0.51562zm-5.5948 0.90234c-0.83415 0-1.4933 0.67213-1.4933 1.5117 0 0.83959 0.65914 1.5117 1.4933 1.5117 0.83415 0 1.4933-0.67212 1.4933-1.5117 0-0.8396-0.65913-1.5117-1.4933-1.5117zm-4.1552 0.5977c0.28832 0 0.51562 0.22731 0.51562 0.51562 0 0.28832-0.22731 0.53906-0.51562 0.53906-0.28832 0-0.53906-0.25075-0.53906-0.53906 0-0.28832 0.25075-0.51562 0.53906-0.51562zm9.75 0c0.28832 0 0.53906 0.22731 0.53906 0.51562 0 0.28832-0.25075 0.53906-0.53906 0.53906-0.28832 0-0.51562-0.25075-0.51562-0.53906 0-0.28832 0.22731-0.51562 0.51562-0.51562zm-9.75 1.5c0.28832 0 0.51562 0.22731 0.51562 0.51562 0 0.28832-0.22731 0.53906-0.51562 0.53906-0.28832 0-0.53906-0.25075-0.53906-0.53906 0-0.28832 0.25075-0.51562 0.53906-0.51562zm9.75 0c0.28832 0 0.53906 0.22731 0.53906 0.51562 0 0.28832-0.25075 0.53906-0.53906 0.53906-0.28832 0-0.51562-0.25075-0.51562-0.53906 0-0.28832 0.22731-0.51562 0.51562-0.51562zm0 1.5c0.28832 0 0.53906 0.22731 0.53906 0.51562 0 0.28832-0.25075 0.53906-0.53906 0.53906-0.28832 0-0.51562-0.25075-0.51562-0.53906 0-0.28832 0.22731-0.51562 0.51562-0.51562z"/>
</svg>
