<?xml version="1.0" encoding="UTF-8" standalone="no"?>
<!-- Created with Inkscape (http://www.inkscape.org/) -->

<svg
   xmlns:dc="http://purl.org/dc/elements/1.1/"
   xmlns:cc="http://creativecommons.org/ns#"
   xmlns:rdf="http://www.w3.org/1999/02/22-rdf-syntax-ns#"
   xmlns:svg="http://www.w3.org/2000/svg"
   xmlns="http://www.w3.org/2000/svg"
   version="1.1"
   width="16"
   height="16"
   id="svg4953">
  <defs
     id="defs4955" />
  <metadata
     id="metadata4958">
    <rdf:RDF>
      <cc:Work
         rdf:about="">
        <dc:format>image/svg+xml</dc:format>
        <dc:type
           rdf:resource="http://purl.org/dc/dcmitype/StillImage" />
        <cc:license
           rdf:resource="http://creativecommons.org/licenses/by-sa/3.0/" />
        <dc:title></dc:title>
      </cc:Work>
      <cc:License
         rdf:about="http://creativecommons.org/licenses/by-sa/3.0/">
        <cc:permits
           rdf:resource="http://creativecommons.org/ns#Reproduction" />
        <cc:permits
           rdf:resource="http://creativecommons.org/ns#Distribution" />
        <cc:requires
           rdf:resource="http://creativecommons.org/ns#Notice" />
        <cc:requires
           rdf:resource="http://creativecommons.org/ns#Attribution" />
        <cc:permits
           rdf:resource="http://creativecommons.org/ns#DerivativeWorks" />
        <cc:requires
           rdf:resource="http://creativecommons.org/ns#ShareAlike" />
      </cc:License>
    </rdf:RDF>
  </metadata>
  <g
     id="layer1">
    <path
       d="m 0,0 0,16 0.96875,0 C 0.51948,15.47492 0.57787,15.00816 0.99995,14.46875 L 3.5446,11.94785 C 3.2051,11.36266 2.99995,10.69087 2.99995,9.96875 c 0,-2.21358 1.80078,-4.03125 4,-4.03125 2.19923,0 4,1.81767 4,4.03125 0,2.21358 -1.80077,4.03125 -4,4.03125 -0.8092,0 -1.55582,-0.23556 -2.1875,-0.65625 L 2.03125,16 l 12,0 c -0.12596,-0.12596 -0.21875,-0.30779 -0.21875,-0.5 0,-0.38442 0.30308,-0.6875 0.6875,-0.6875 0.38442,0 0.71875,0.30308 0.71875,0.6875 0,0.19221 -0.0928,0.37404 -0.21875,0.5 l 1,0 0,-16 -1,0 C 14.87404,0.12596 14.69221,0.21875 14.5,0.21875 14.30779,0.21875 14.15721,0.12595 14.03125,0 L 1.96875,0 C 1.84279,0.12595 1.69221,0.21875 1.5,0.21875 1.30779,0.21875 1.12596,0.12595 1,0 z M 1.5,0.8125 C 1.88442,0.8125 2.1875,1.11558 2.1875,1.5 2.1875,1.88442 1.88442,2.21875 1.5,2.21875 1.11558,2.21875 0.78125,1.88442 0.78125,1.5 0.78125,1.11558 1.11558,0.8125 1.5,0.8125 z m 13,0 c 0.38442,0 0.71875,0.30308 0.71875,0.6875 0,0.38442 -0.33433,0.71875 -0.71875,0.71875 -0.38442,0 -0.6875,-0.33433 -0.6875,-0.71875 0,-0.38442 0.30308,-0.6875 0.6875,-0.6875 z m -13,2 C 1.88442,2.8125 2.1875,3.11558 2.1875,3.5 2.1875,3.88442 1.88442,4.21875 1.5,4.21875 1.11558,4.21875 0.78125,3.88442 0.78125,3.5 0.78125,3.11558 1.11558,2.8125 1.5,2.8125 z m 13,0 c 0.38442,0 0.71875,0.30308 0.71875,0.6875 0,0.38442 -0.33433,0.71875 -0.71875,0.71875 -0.38442,0 -0.6875,-0.33433 -0.6875,-0.71875 0,-0.38442 0.30308,-0.6875 0.6875,-0.6875 z m -13,2 C 1.88442,4.8125 2.1875,5.11558 2.1875,5.5 2.1875,5.88442 1.88442,6.21875 1.5,6.21875 1.11558,6.21875 0.78125,5.88442 0.78125,5.5 0.78125,5.11558 1.11558,4.8125 1.5,4.8125 z m 13,0 c 0.38442,0 0.71875,0.30308 0.71875,0.6875 0,0.38442 -0.33433,0.71875 -0.71875,0.71875 -0.38442,0 -0.6875,-0.33433 -0.6875,-0.71875 0,-0.38442 0.30308,-0.6875 0.6875,-0.6875 z m -13,2 C 1.88442,6.8125 2.1875,7.11558 2.1875,7.5 2.1875,7.88442 1.88442,8.21875 1.5,8.21875 1.11558,8.21875 0.78125,7.88442 0.78125,7.5 0.78125,7.11558 1.11558,6.8125 1.5,6.8125 z m 13,0 c 0.38442,0 0.71875,0.30308 0.71875,0.6875 0,0.38442 -0.33433,0.71875 -0.71875,0.71875 -0.38442,0 -0.6875,-0.33433 -0.6875,-0.71875 0,-0.38442 0.30308,-0.6875 0.6875,-0.6875 z M 7.04021,8.01562 c -1.1122,0 -1.99105,0.89617 -1.99105,2.01563 0,1.11946 0.87885,2.01562 1.99105,2.01562 1.1122,0 1.99104,-0.89616 1.99104,-2.01562 0,-1.11946 -0.87884,-2.01563 -1.99104,-2.01563 z M 1.5,8.8125 c 0.38442,0 0.6875,0.30308 0.6875,0.6875 0,0.38442 -0.30308,0.71875 -0.6875,0.71875 C 1.11558,10.21875 0.78125,9.88442 0.78125,9.5 0.78125,9.11558 1.11558,8.8125 1.5,8.8125 z m 13,0 c 0.38442,0 0.71875,0.30308 0.71875,0.6875 0,0.38442 -0.33433,0.71875 -0.71875,0.71875 -0.38442,0 -0.6875,-0.33433 -0.6875,-0.71875 0,-0.38442 0.30308,-0.6875 0.6875,-0.6875 z m -13,2 c 0.38442,0 0.6875,0.30308 0.6875,0.6875 0,0.38442 -0.30308,0.71875 -0.6875,0.71875 -0.38442,0 -0.71875,-0.33433 -0.71875,-0.71875 0,-0.38442 0.33433,-0.6875 0.71875,-0.6875 z m 13,0 c 0.38442,0 0.71875,0.30308 0.71875,0.6875 0,0.38442 -0.33433,0.71875 -0.71875,0.71875 -0.38442,0 -0.6875,-0.33433 -0.6875,-0.71875 0,-0.38442 0.30308,-0.6875 0.6875,-0.6875 z m 0,2 c 0.38442,0 0.71875,0.30308 0.71875,0.6875 0,0.38442 -0.33433,0.71875 -0.71875,0.71875 -0.38442,0 -0.6875,-0.33433 -0.6875,-0.71875 0,-0.38442 0.30308,-0.6875 0.6875,-0.6875 z"
       id="path10349"
       style="fill-opacity:1;stroke:none;display:inline" />
  </g>
</svg>
