<?xml version="1.0" encoding="UTF-8" standalone="no"?>
<!-- Licensed under the Creative Commons Attribution-Share Alike 3.0 United States License (http://creativecommons.org/licenses/by-sa/3.0/) -->
<svg xmlns="http://www.w3.org/2000/svg" version="1.1" viewBox="0 0 16 16">
 <g transform="matrix(.75 0 0 .75 2 2)">
  <path d="m0 0v16h0.96875c-0.44927-0.525-0.39088-0.992 0.0312-1.531l2.5446-2.521c-0.3395-0.585-0.5446-1.257-0.5446-1.9792 0-2.2136 1.8008-4.0312 4-4.0312s4 1.8177 4 4.0312c0 2.2136-1.8008 4.0312-4 4.0312-0.8092 0-1.5558-0.23556-2.1875-0.65625l-2.7813 2.656h12c-0.12596-0.12596-0.21875-0.30779-0.21875-0.5 0-0.38442 0.30308-0.6875 0.6875-0.6875s0.71875 0.30308 0.71875 0.6875c0 0.19221-0.0928 0.37404-0.21875 0.5h1v-16h-1c-0.126 0.12596-0.308 0.21875-0.5 0.21875s-0.343-0.0928-0.469-0.21875h-12.062c-0.1262 0.12595-0.2768 0.21875-0.469 0.21875s-0.374-0.0928-0.5-0.21875zm1.5 0.8125c0.3844 0 0.6875 0.3031 0.6875 0.6875s-0.3031 0.7188-0.6875 0.7188-0.71875-0.3344-0.71875-0.7188 0.33435-0.6875 0.71875-0.6875zm13 0c0.38442 0 0.71875 0.30308 0.71875 0.6875s-0.33433 0.71875-0.71875 0.71875-0.6875-0.33433-0.6875-0.71875 0.30308-0.6875 0.6875-0.6875zm-13 2c0.3844 0 0.6875 0.3031 0.6875 0.6875s-0.3031 0.7188-0.6875 0.7188-0.71875-0.3344-0.71875-0.7188 0.33435-0.6875 0.71875-0.6875zm13 0c0.38442 0 0.71875 0.30308 0.71875 0.6875s-0.33433 0.71875-0.71875 0.71875-0.6875-0.33433-0.6875-0.71875 0.30308-0.6875 0.6875-0.6875zm-13 2c0.3844 0 0.6875 0.3031 0.6875 0.6875s-0.3031 0.7188-0.6875 0.7188-0.71875-0.3344-0.71875-0.7188 0.33435-0.6875 0.71875-0.6875zm13 0c0.38442 0 0.71875 0.30308 0.71875 0.6875s-0.33433 0.71875-0.71875 0.71875-0.6875-0.33433-0.6875-0.71875 0.30308-0.6875 0.6875-0.6875zm-13 2c0.3844 0 0.6875 0.3031 0.6875 0.6875s-0.3031 0.7188-0.6875 0.7188-0.71875-0.3344-0.71875-0.7188 0.33435-0.6875 0.71875-0.6875zm13 0c0.38442 0 0.71875 0.30308 0.71875 0.6875s-0.33433 0.71875-0.71875 0.71875-0.6875-0.33433-0.6875-0.71875 0.30308-0.6875 0.6875-0.6875zm-7.4598 1.2031c-1.1122 0-1.991 0.89617-1.991 2.0156 0 1.1195 0.87885 2.0156 1.991 2.0156s1.991-0.89616 1.991-2.0156c0-1.1195-0.87884-2.0156-1.991-2.0156zm-5.5402 0.7969c0.38442 0 0.6875 0.30308 0.6875 0.6875s-0.30308 0.71875-0.6875 0.71875c-0.3844 0-0.71875-0.3346-0.71875-0.719s0.33435-0.6875 0.71875-0.6875zm13 0c0.38442 0 0.71875 0.30308 0.71875 0.6875s-0.33433 0.71875-0.71875 0.71875-0.6875-0.33433-0.6875-0.71875 0.30308-0.6875 0.6875-0.6875zm-13 2c0.38442 0 0.6875 0.30308 0.6875 0.6875s-0.30308 0.71875-0.6875 0.71875-0.71875-0.33433-0.71875-0.71875 0.33433-0.6875 0.71875-0.6875zm13 0c0.38442 0 0.71875 0.30308 0.71875 0.6875s-0.33433 0.71875-0.71875 0.71875-0.6875-0.33433-0.6875-0.71875 0.30308-0.6875 0.6875-0.6875zm0 2c0.38442 0 0.71875 0.30308 0.71875 0.6875s-0.33433 0.71875-0.71875 0.71875-0.6875-0.33433-0.6875-0.71875 0.30308-0.6875 0.6875-0.6875z"/>
 </g>
</svg>
