<?xml version="1.0" encoding="UTF-8"?>
<!-- Licensed under the Creative Commons Attribution-Share Alike 3.0 United States License (http://creativecommons.org/licenses/by-sa/3.0/) -->
<svg xmlns="http://www.w3.org/2000/svg" id="root" version="1.1" viewBox="0 0 16 16">
 <path fill="#e0a685" d="m5.4687 3.6207c-1.108 0-2 0.892-2 2v5c0 1.108 0.892 2 2 2h5c1.108 0 2-0.892 2-2v-5c0-1.108-0.892-2-2-2z"/>
 <rect width="1" height="2" x="4.4687" y=".53861" fill="#e0a685" rx="2" ry="2"/>
 <rect width="1" height="2" x="6.4687" y=".53861" fill="#e0a685" rx="2" ry="2"/>
 <rect width="1" height="2" x="8.4687" y=".53861" fill="#e0a685" rx="2" ry="2"/>
 <rect width="1" height="2" x="10.469" y=".53861" fill="#e0a685" rx="2" ry="2"/>
 <rect width="1" height="2" x="4.4687" y="13.539" fill="#e0a685" rx="2" ry="2"/>
 <rect width="1" height="2" x="6.4687" y="13.539" fill="#e0a685" rx="2" ry="2"/>
 <rect width="1" height="2" x="8.4687" y="13.539" fill="#e0a685" rx="2" ry="2"/>
 <rect width="1" height="2" x="10.469" y="13.539" fill="#e0a685" rx="2" ry="2"/>
 <rect width="2" height="1" x=".46867" y="4.3768" fill="#e0a685" rx="2" ry="2"/>
 <rect width="2" height="1" x=".46867" y="6.3768" fill="#e0a685" rx="2" ry="2"/>
 <rect width="2" height="1" x=".46867" y="8.3768" fill="#e0a685" rx="2" ry="2"/>
 <rect width="2" height="1" x=".46867" y="10.377" fill="#e0a685" rx="2" ry="2"/>
 <rect width="2" height="1" x="13.469" y="4.3768" fill="#e0a685" rx="2" ry="2"/>
 <rect width="2" height="1" x="13.469" y="6.3768" fill="#e0a685" rx="2" ry="2"/>
 <rect width="2" height="1" x="13.469" y="8.3768" fill="#e0a685" rx="2" ry="2"/>
 <rect width="2" height="1" x="13.469" y="10.377" fill="#e0a685" rx="2" ry="2"/>
</svg>
