<?xml version="1.0" encoding="UTF-8" standalone="no"?>
<!-- Created with Inkscape (http://www.inkscape.org/) -->

<svg
   xmlns:dc="http://purl.org/dc/elements/1.1/"
   xmlns:cc="http://creativecommons.org/ns#"
   xmlns:rdf="http://www.w3.org/1999/02/22-rdf-syntax-ns#"
   xmlns:svg="http://www.w3.org/2000/svg"
   xmlns="http://www.w3.org/2000/svg"
   version="1.1"
   width="16"
   height="16"
   id="svg2994">
  <defs
     id="defs2996" />
  <metadata
     id="metadata2999">
    <rdf:RDF>
      <cc:Work
         rdf:about="">
        <dc:format>image/svg+xml</dc:format>
        <dc:type
           rdf:resource="http://purl.org/dc/dcmitype/StillImage" />
        <dc:title></dc:title>
        <cc:license
           rdf:resource="http://creativecommons.org/licenses/by-sa/3.0/" />
      </cc:Work>
      <cc:License
         rdf:about="http://creativecommons.org/licenses/by-sa/3.0/">
        <cc:permits
           rdf:resource="http://creativecommons.org/ns#Reproduction" />
        <cc:permits
           rdf:resource="http://creativecommons.org/ns#Distribution" />
        <cc:requires
           rdf:resource="http://creativecommons.org/ns#Notice" />
        <cc:requires
           rdf:resource="http://creativecommons.org/ns#Attribution" />
        <cc:permits
           rdf:resource="http://creativecommons.org/ns#DerivativeWorks" />
        <cc:requires
           rdf:resource="http://creativecommons.org/ns#ShareAlike" />
      </cc:License>
    </rdf:RDF>
  </metadata>
  <g
     id="layer1">
    <path
       d="m 5.5,3.9279703 c -1.108,0 -2,0.892 -2,2 l 0,4.9999997 c 0,1.108 0.892,2 2,2 l 5,0 c 1.108,0 2,-0.892 2,-2 l 0,-4.9999997 c 0,-1.108 -0.892,-2 -2,-2 z"
       id="rect22435"
       style="fill-opacity:1;stroke:none" />
    <rect
       width="1"
       height="2"
       rx="2"
       ry="0"
       x="-5.5"
       y="-2.9279704"
       transform="scale(-1,-1)"
       id="rect22439"
       style="fill-opacity:1;stroke:none" />
    <rect
       width="1"
       height="2"
       rx="2"
       ry="0"
       x="-7.5"
       y="-2.9279704"
       transform="scale(-1,-1)"
       id="rect22441"
       style="fill-opacity:1;stroke:none" />
    <rect
       width="1"
       height="2"
       rx="2"
       ry="0"
       x="-9.5"
       y="-2.9279704"
       transform="scale(-1,-1)"
       id="rect22443"
       style="fill-opacity:1;stroke:none" />
    <rect
       width="1"
       height="2"
       rx="2"
       ry="0"
       x="-11.5"
       y="-2.9279704"
       transform="scale(-1,-1)"
       id="rect22445"
       style="fill-opacity:1;stroke:none" />
    <rect
       width="1"
       height="2"
       rx="2"
       ry="0"
       x="-5.5"
       y="-15.92797"
       transform="scale(-1,-1)"
       id="rect22461"
       style="fill-opacity:1;stroke:none" />
    <rect
       width="1"
       height="2"
       rx="2"
       ry="0"
       x="-7.5"
       y="-15.92797"
       transform="scale(-1,-1)"
       id="rect22463"
       style="fill-opacity:1;stroke:none" />
    <rect
       width="1"
       height="2"
       rx="2"
       ry="0"
       x="-9.5"
       y="-15.92797"
       transform="scale(-1,-1)"
       id="rect22465"
       style="fill-opacity:1;stroke:none" />
    <rect
       width="1"
       height="2"
       rx="2"
       ry="0"
       x="-11.5"
       y="-15.92797"
       transform="scale(-1,-1)"
       id="rect22467"
       style="fill-opacity:1;stroke:none" />
    <rect
       width="2"
       height="1"
       rx="2"
       ry="0"
       x="0.5"
       y="4.9279704"
       id="rect22469"
       style="fill-opacity:1;stroke:none" />
    <rect
       width="2"
       height="1"
       rx="2"
       ry="0"
       x="0.5"
       y="6.9279704"
       id="rect22471"
       style="fill-opacity:1;stroke:none" />
    <rect
       width="2"
       height="1"
       rx="2"
       ry="0"
       x="0.5"
       y="8.9279699"
       id="rect22473"
       style="fill-opacity:1;stroke:none" />
    <rect
       width="2"
       height="1"
       rx="2"
       ry="0"
       x="0.5"
       y="10.92797"
       id="rect22475"
       style="fill-opacity:1;stroke:none" />
    <rect
       width="2"
       height="1"
       rx="2"
       ry="0"
       x="13.5"
       y="4.9279704"
       id="rect22477"
       style="fill-opacity:1;stroke:none" />
    <rect
       width="2"
       height="1"
       rx="2"
       ry="0"
       x="13.5"
       y="6.9279704"
       id="rect22479"
       style="fill-opacity:1;stroke:none" />
    <rect
       width="2"
       height="1"
       rx="2"
       ry="0"
       x="13.5"
       y="8.9279699"
       id="rect22481"
       style="fill-opacity:1;stroke:none" />
    <rect
       width="2"
       height="1"
       rx="2"
       ry="0"
       x="13.5"
       y="10.92797"
       id="rect22483"
       style="fill-opacity:1;stroke:none" />
  </g>
</svg>
