<?xml version="1.0" encoding="UTF-8" standalone="no"?>
<!-- Created with Inkscape (http://www.inkscape.org/) -->

<svg
   xmlns:dc="http://purl.org/dc/elements/1.1/"
   xmlns:cc="http://creativecommons.org/ns#"
   xmlns:rdf="http://www.w3.org/1999/02/22-rdf-syntax-ns#"
   xmlns:svg="http://www.w3.org/2000/svg"
   xmlns="http://www.w3.org/2000/svg"
   version="1.1"
   width="15"
   height="13"
   id="svg7416">
  <defs
     id="defs7418" />
  <metadata
     id="metadata7421">
    <rdf:RDF>
      <cc:Work
         rdf:about="">
        <dc:format>image/svg+xml</dc:format>
        <dc:type
           rdf:resource="http://purl.org/dc/dcmitype/StillImage" />
        <cc:license
           rdf:resource="http://creativecommons.org/licenses/by-sa/3.0/" />
        <dc:title></dc:title>
      </cc:Work>
      <cc:License
         rdf:about="http://creativecommons.org/licenses/by-sa/3.0/">
        <cc:permits
           rdf:resource="http://creativecommons.org/ns#Reproduction" />
        <cc:permits
           rdf:resource="http://creativecommons.org/ns#Distribution" />
        <cc:requires
           rdf:resource="http://creativecommons.org/ns#Notice" />
        <cc:requires
           rdf:resource="http://creativecommons.org/ns#Attribution" />
        <cc:permits
           rdf:resource="http://creativecommons.org/ns#DerivativeWorks" />
        <cc:requires
           rdf:resource="http://creativecommons.org/ns#ShareAlike" />
      </cc:License>
    </rdf:RDF>
  </metadata>
  <g
     transform="translate(0,-3)"
     id="layer1">
    <path
       d="m 2,3.0000002 c -1.052369,0 -2,0.84508 -2,1.9375 L 0,14.0625 C 0,15.15492 0.947631,16 2,16 l 11,0 c 1.05237,0 2,-0.84508 2,-1.9375 l 0,-9.1249998 c 0,-1.09242 -0.94763,-1.9375 -2,-1.9375 l -11,0 z m 2.5,0.5 1,0 c 0.25692,-4e-5 0.52871,0.11519 0.71875,0.28125 L 7.5,4.9375002 8.78125,3.7812502 C 8.97155,3.6154202 9.2431,3.5000102 9.5,3.5000002 l 1,0 0,0.90625 c 0,0.28091 -0.09032,0.50801 -0.28125,0.6875 l -2.15625,1.90625 0.9375,0 0,1 -1,0 0,1 1,0 L 9,10 l -1,0 0,1 1,0 0,1 -1,0 0,1 1,0 0,1 -1,0 0,-1 -1,0 0,1 -1,0 0,-1 1,0 0,-1 -1,0 0,-1 1,0 0,-1 -1,0 0,-0.9999998 1,0 0,-1 -1,0 0,-1 0.9375,0 -2.15625,-1.90625 C 4.59015,4.9143002 4.5,4.6871602 4.5,4.4062502 l 0,-0.90625 z m 2.5,4.5 1,0 0,-0.9375 -0.5,0.4375 -0.5,-0.4375 0,0.9375 z m 0,1 L 7,10 l 1,0 0,-0.9999998 -1,0 z M 7,11 l 0,1 1,0 0,-1 -1,0 z m -5,-4.9999998 3.03125,0 0,2 -3.03125,0 0,-2 z m 8,0 3,0 0,2 -3,0 0,-2 z m -8,3 3.03125,0 L 5.03125,11 2,11 2,9.0000002 z m 8,0 3,0 L 13,11 10,11 10,9.0000002 z M 2,12 l 3.03125,0 0,2 L 2,14 2,12 z m 8,0 3,0 0,2 -3,0 0,-2 z"
       id="rect27790-9-7-4"
       style="font-size:medium;font-style:normal;font-variant:normal;font-weight:normal;font-stretch:normal;text-indent:0;text-align:start;text-decoration:none;line-height:normal;letter-spacing:normal;word-spacing:normal;text-transform:none;direction:ltr;block-progression:tb;writing-mode:lr-tb;text-anchor:start;baseline-shift:baseline;color:#000000;fill-opacity:1;stroke:none;stroke-width:2;marker:none;visibility:visible;display:inline;overflow:visible;enable-background:new;font-family:Sans;-inkscape-font-specification:Sans" />
  </g>
</svg>
