<?xml version="1.0" encoding="UTF-8" standalone="no"?>
<!-- Licensed under the Creative Commons Attribution-Share Alike 3.0 United States License (http://creativecommons.org/licenses/by-sa/3.0/) -->
<svg xmlns="http://www.w3.org/2000/svg" version="1.1" viewBox="0 0 16 16">
 <path style="color:#000000" d="m3.1875 0c-1.2051 0-2.1875 1.018-2.1875 2.2188v11.562c0 1.201 0.9824 2.219 2.1875 2.219h9.625c1.206 0 2.188-1.018 2.188-2.219v-11.562c0-1.201-0.982-2.219-2.188-2.219h-9.6245zm-0.1875 3h10v11h-10v-11zm1 1v4h8.0312v-4h-8.031zm2.3438 1.4375a0.50005 0.50005 0 0 1 0.0625 0 0.50005 0.50005 0 0 1 0.5937 0.5v0.0625h2v-0.0625a0.50005 0.50005 0 1 1 1 0v0.0625c0 0.5454-0.4546 1-1 1h-2c-0.5454 0-1-0.4546-1-1v-0.0625a0.50005 0.50005 0 0 1 0.34375 -0.5zm-2.3126 3.5625v4h8.0312v-4h-8.0312zm2.3125 1.4375a0.50005 0.50005 0 0 1 0.0625 0 0.50005 0.50005 0 0 1 0.5938 0.5v0.062h2v-0.062a0.50005 0.50005 0 1 1 1 0v0.062c0 0.54535-0.45465 1-1 1h-2c-0.5454 0-1-0.455-1-1v-0.0625a0.50005 0.50005 0 0 1 0.34375 -0.5z" fill-rule="evenodd"/>
</svg>
