<?xml version="1.0" encoding="UTF-8" standalone="no"?>
<!-- Created with Inkscape (http://www.inkscape.org/) -->

<svg
   xmlns:dc="http://purl.org/dc/elements/1.1/"
   xmlns:cc="http://creativecommons.org/ns#"
   xmlns:rdf="http://www.w3.org/1999/02/22-rdf-syntax-ns#"
   xmlns:svg="http://www.w3.org/2000/svg"
   xmlns="http://www.w3.org/2000/svg"
   version="1.1"
   width="16"
   height="16"
   id="svg8338">
  <defs
     id="defs8340" />
  <metadata
     id="metadata8343">
    <rdf:RDF>
      <cc:Work
         rdf:about="">
        <dc:format>image/svg+xml</dc:format>
        <dc:type
           rdf:resource="http://purl.org/dc/dcmitype/StillImage" />
        <dc:title></dc:title>
      </cc:Work>
    </rdf:RDF>
  </metadata>
  <g
     id="layer1">
    <g
       id="text8346"
       style="font-size:13.956604px;font-style:normal;font-variant:normal;font-weight:bold;font-stretch:normal;text-align:start;line-height:125%;letter-spacing:2px;word-spacing:0px;writing-mode:lr-tb;text-anchor:start;fill-opacity:1;stroke:none;font-family:Cantarell;-inkscape-font-specification:Sans Bold">
      <path
         d="M 3.4300534,5.459898 C 3.2765309,6.6322516 2.6624395,7.1486472 2.0064798,7.2602999 l -0.2372623,0.027913 0,1.4235736 0.2372623,0.027913 c 0.237262,0.04187 0.4605681,0.1395662 0.6559604,0.2791321 0.8653085,0.6280466 0.7536567,1.7585334 0.8513528,2.7075814 0.2651752,2.609883 2.1074479,3.056497 2.749451,3.098366 l 0.2372623,0.02791 0.3349585,-1.423573 -0.3070453,-0.04187 C 6.067852,13.331423 5.6770664,13.038334 5.453761,12.703375 4.7001051,11.544978 5.5095858,9.3119194 3.9604043,7.9999999 5.4956292,6.6880805 4.6861485,4.4689779 5.453761,3.2966244 5.6770664,2.9616662 6.067852,2.6546205 6.5284195,2.5987942 L 6.8354648,2.5569244 6.5005063,1.1473074 6.263244,1.161264 C 5.5235447,1.2170903 3.7650116,1.7055742 3.513793,4.3573263 3.4858798,4.7341542 3.4719232,5.1109832 3.4300534,5.459898"
         id="path8893" />
      <path
         d="M 12.486207,4.3573263 C 12.234988,1.7195308 10.490412,1.2170903 9.736756,1.161264 L 9.4994937,1.147307 9.1784918,2.556924 9.4855371,2.598794 c 0.4605675,0.055826 0.8373969,0.362872 1.0607019,0.6978302 0.767612,1.1723535 -0.04187,3.3914561 1.493357,4.7033755 -1.549182,1.3119195 -0.739701,3.5449783 -1.493357,4.7033753 -0.223305,0.334959 -0.6001344,0.628048 -1.0607019,0.683874 l -0.3070453,0.04187 0.3210019,1.423573 0.2372623,-0.02791 c 0.642003,-0.04187 2.484276,-0.488483 2.749451,-3.098366 0.0977,-0.949048 -0.01396,-2.0795346 0.851353,-2.7075812 0.195392,-0.1395659 0.432655,-0.2372623 0.669917,-0.2791321 l 0.223305,-0.027913 0,-1.4235736 -0.223305,-0.027913 C 13.351517,7.1486472 12.737426,6.6322516 12.583903,5.459898 12.542033,5.1109832 12.51412,4.7341542 12.486207,4.3573263"
         id="path8895" />
    </g>
  </g>
</svg>
