<?xml version="1.0" encoding="UTF-8"?>
<!-- Licensed under the Creative Commons Attribution-Share Alike 3.0 United States License (http://creativecommons.org/licenses/by-sa/3.0/) -->
<svg xmlns="http://www.w3.org/2000/svg" id="root" version="1.1" viewBox="0 0 16 16">
 <path fill="currentColor" d="m7.8223 0.93359c-1.632 0.01287-3.2157 0.85571-4.2266 2.2754l2.1543 1.5332c0.7601-1.0674 1.8085-1.3991 2.8203-1.041 0.7717 0.2731 1.4567 0.9971 1.7987 1.9746l-3.2596 0.6406 5.4276 4.5236 3.34-6.2482-2.904 0.5723c-0.52-1.824-1.77-3.3371-3.5218-3.9571-0.5351-0.1893-1.085-0.2777-1.6289-0.27341zm-4.3731 4.5898l-3.3418 6.2476 2.9043-0.572c0.5199 1.824 1.7696 3.337 3.5215 3.957 2.1404 0.758 4.5098-0.109 5.8578-2.002l-2.157-1.533c-0.7597 1.068-1.8062 1.399-2.818 1.041-0.7718-0.273-1.4576-0.997-1.8008-1.974l3.2598-0.641-5.4258-4.5236z"/>
</svg>
