<?xml version="1.0" encoding="UTF-8" standalone="no"?>
<!-- Licensed under the Creative Commons Attribution-Share Alike 3.0 United States License (http://creativecommons.org/licenses/by-sa/3.0/) -->
<svg xmlns="http://www.w3.org/2000/svg" version="1.1" viewBox="0 0 16 16">
 <path style="block-progression:tb;text-indent:0;color:#000000;text-transform:none" d="m2.625 3c-0.4468 0-0.8501 0.1361-1.1562 0.4062-0.3062 0.2702-0.4688 0.6721-0.4688 1.125v7.9375c0 0.46 0.1605 0.885 0.4688 1.156 0.3082 0.271 0.7033 0.375 1.1562 0.375h7.2188 0.1562l0.125-0.094 5.063-5.0935 0.281-0.2813-0.281-0.25-5.063-5.1562-0.125-0.125h-0.1562-7.2188zm7.75 2c0.31445 0 0.5625 0.2832 0.5625 0.625 0 0.42383-0.41797 0.75-0.9375 0.75h-0.125c-0.082032-0.013672-0.14648 0-0.1875 0-0.61523 0-1.416 0.74414-2.25 2.125 0.58789 1.4902 0.70508 1.7344 0.9375 2.0625 0.28711 0.38281 0.56055 0.5625 0.875 0.5625 0.24609 0 0.42578-0.06641 0.78125-0.3125l0.3125 0.25c-0.5332 0.5332-1.2383 0.875-1.8125 0.875-0.49219 0-0.93555-0.23242-1.25-0.65625-0.21875-0.27344-0.28516-0.44531-0.75-1.5938l-0.3125-0.75c-1.2444 2.188-2.1331 3.063-3.0628 3.063-0.3828 0-0.6562-0.281-0.6562-0.719 0-0.39648 0.29102-0.6875 0.6875-0.6875 0.027344 0 0.14844 0.01758 0.3125 0.03125 0.068359 0.01367 0.13281 0 0.1875 0 0.76562 0 1.4375-0.63672 2.3125-2.25l-0.3438-0.906c-0.4648-1.2305-0.6152-1.3887-1.5312-1.5938l0.0625-0.4062c0.7246-0.0821 1.0859-0.1172 1.6875-0.2813h0.34375l0.9687 2.8125c1.2715-1.9961 2.3398-3 3.1875-3z" fill-rule="evenodd"/>
</svg>
