<?xml version="1.0" encoding="UTF-8"?>
<!-- Licensed under the Creative Commons Attribution-Share Alike 3.0 United States License (http://creativecommons.org/licenses/by-sa/3.0/) -->
<svg xmlns="http://www.w3.org/2000/svg" id="root" version="1.1" viewBox="0 0 16 16">
 <path d="m3.4301 5.4599c-0.1536 1.1724-0.7677 1.6887-1.4236 1.8004l-0.23726 0.027913v1.4236l0.23726 0.027913c0.23726 0.04187 0.46057 0.13957 0.65596 0.27913 0.86531 0.62805 0.75366 1.7585 0.85135 2.7076 0.26518 2.6099 2.1074 3.0565 2.7495 3.0984l0.23726 0.02791 0.33496-1.4236-0.30705-0.04187c-0.4606-0.056-0.8514-0.349-1.0747-0.684-0.7537-1.158 0.0558-3.3911-1.4934-4.703 1.5352-1.3119 0.7257-3.531 1.4934-4.7034 0.2233-0.3349 0.6141-0.642 1.0746-0.6978l0.3071-0.0419-0.335-1.4096-0.2373 0.014c-0.7397 0.0558-2.4982 0.5443-2.7494 3.196-0.0279 0.3769-0.0419 0.7537-0.0837 1.1026"/>
 <path d="m12.486 4.3573c-0.251-2.6378-1.996-3.1402-2.7492-3.196l-0.2373-0.014-0.321 1.4096 0.307 0.0419c0.46057 0.055826 0.8374 0.36287 1.0607 0.69783 0.76761 1.1724-0.04187 3.3915 1.4934 4.7034-1.5492 1.3119-0.7397 3.545-1.4934 4.7034-0.2233 0.33496-0.60013 0.62805-1.0607 0.68387l-0.30705 0.04187 0.321 1.4236 0.23726-0.02791c0.642-0.04187 2.4843-0.48848 2.7495-3.0984 0.0977-0.94905-0.01396-2.0795 0.85135-2.7076 0.19539-0.13957 0.43266-0.23726 0.66992-0.27913l0.2233-0.027913v-1.4236l-0.2233-0.027913c-0.655-0.1129-1.27-0.6292-1.423-1.8016-0.042-0.3489-0.07-0.7257-0.098-1.1026"/>
</svg>
