<?xml version="1.0" encoding="UTF-8" standalone="no"?>
<!-- Licensed under the Creative Commons Attribution-Share Alike 3.0 United States License (http://creativecommons.org/licenses/by-sa/3.0/) -->
<svg xmlns="http://www.w3.org/2000/svg" version="1.1" viewBox="0 0 16 16">
 <g transform="matrix(1.2172 0 0 1.2172 -1.7374 -1.7374)">
  <path d="m12.198 10.908c-0.45007 0.31158-0.6751 0.41545-0.98668 0.41545-0.39814 0-0.76165-0.22503-1.1252-0.70972-0.2944-0.416-0.4329-0.7099-1.1772-2.5967 1.0559-1.7483 2.0772-2.7177 2.8562-2.7177 0.05193 0 0.13848 0 0.24234 0.01731h0.15579c0.65779 0 1.1771-0.43276 1.1771-0.96937 0-0.43276-0.31158-0.77896-0.70972-0.77896-1.0732 0-2.4234 1.281-4.0333 3.8083l-1.2116-3.5833h-0.45007c-0.7616 0.2077-1.229 0.277-2.1465 0.3808l-0.0865 0.502c1.1598 0.2597 1.3502 0.4674 1.9387 2.0253l0.4328 1.1252c-1.1079 2.0426-1.9561 2.8731-2.9254 2.8731-0.069241 0-0.13848 0-0.22503-0.01731-0.20772-0.01731-0.36352-0.03462-0.39814-0.03462-0.502 0-0.86551 0.36352-0.86551 0.86551 0 0.55393 0.3289 0.91744 0.81358 0.91744 1.1771 0 2.3023-1.1079 3.8775-3.8775l0.39814 0.95206c0.58855 1.4541 0.69241 1.6791 0.96937 2.0253 0.39814 0.53662 0.95206 0.83089 1.5752 0.83089 0.72703 0 1.6099-0.43276 2.285-1.1079l-0.38083-0.3462"/>
 </g>
</svg>
