<?xml version="1.0" encoding="UTF-8" standalone="no"?>
<!-- Created with Inkscape (http://www.inkscape.org/) -->

<svg
   xmlns:dc="http://purl.org/dc/elements/1.1/"
   xmlns:cc="http://creativecommons.org/ns#"
   xmlns:rdf="http://www.w3.org/1999/02/22-rdf-syntax-ns#"
   xmlns:svg="http://www.w3.org/2000/svg"
   xmlns="http://www.w3.org/2000/svg"
   version="1.1"
   width="16"
   height="16"
   id="svg4702">
  <defs
     id="defs4704" />
  <metadata
     id="metadata4707">
    <rdf:RDF>
      <cc:Work
         rdf:about="">
        <dc:format>image/svg+xml</dc:format>
        <dc:type
           rdf:resource="http://purl.org/dc/dcmitype/StillImage" />
        <dc:title></dc:title>
        <cc:license
           rdf:resource="http://creativecommons.org/licenses/by-sa/3.0/" />
      </cc:Work>
      <cc:License
         rdf:about="http://creativecommons.org/licenses/by-sa/3.0/">
        <cc:permits
           rdf:resource="http://creativecommons.org/ns#Reproduction" />
        <cc:permits
           rdf:resource="http://creativecommons.org/ns#Distribution" />
        <cc:requires
           rdf:resource="http://creativecommons.org/ns#Notice" />
        <cc:requires
           rdf:resource="http://creativecommons.org/ns#Attribution" />
        <cc:permits
           rdf:resource="http://creativecommons.org/ns#DerivativeWorks" />
        <cc:requires
           rdf:resource="http://creativecommons.org/ns#ShareAlike" />
      </cc:License>
    </rdf:RDF>
  </metadata>
  <g
     id="layer1">
    <path
       d="m 3.5,5 0,9 9,0 0,-9 2,0 0,9 c 0,2 -2,2 -2,2 l -9,0 c -2,0 -2,-2 -2,-2 l 0,-9 z m 4.00001,1 1.00002,0 0,6 -1.00002,0 z m 2,0 1.00002,0 0,6 -1.00002,0 z m -4,0 0.99999,0 0,6 -0.99999,0 z M 4.5,0 c -2,0 -2,2 -2,2 l -2,0 0,2 15,0 0,-2 -2,0 c 0,-2 -2,-2 -2,-2 l -7,0 z m 0,1 7,0 0,1 -7,0 0,-1 z"
       id="path3799"
       style="fill-opacity:1;stroke:none" />
  </g>
</svg>
