<?xml version="1.0" encoding="UTF-8" standalone="no"?>
<!-- Created with Inkscape (http://www.inkscape.org/) -->

<svg
   xmlns:dc="http://purl.org/dc/elements/1.1/"
   xmlns:cc="http://creativecommons.org/ns#"
   xmlns:rdf="http://www.w3.org/1999/02/22-rdf-syntax-ns#"
   xmlns:svg="http://www.w3.org/2000/svg"
   xmlns="http://www.w3.org/2000/svg"
   version="1.1"
   width="13"
   height="14"
   id="svg16025">
  <defs
     id="defs16027" />
  <metadata
     id="metadata16030">
    <rdf:RDF>
      <cc:Work
         rdf:about="">
        <dc:format>image/svg+xml</dc:format>
        <dc:type
           rdf:resource="http://purl.org/dc/dcmitype/StillImage" />
        <cc:license
           rdf:resource="http://creativecommons.org/licenses/by-sa/3.0/" />
        <dc:title></dc:title>
      </cc:Work>
      <cc:License
         rdf:about="http://creativecommons.org/licenses/by-sa/3.0/">
        <cc:permits
           rdf:resource="http://creativecommons.org/ns#Reproduction" />
        <cc:permits
           rdf:resource="http://creativecommons.org/ns#Distribution" />
        <cc:requires
           rdf:resource="http://creativecommons.org/ns#Notice" />
        <cc:requires
           rdf:resource="http://creativecommons.org/ns#Attribution" />
        <cc:permits
           rdf:resource="http://creativecommons.org/ns#DerivativeWorks" />
        <cc:requires
           rdf:resource="http://creativecommons.org/ns#ShareAlike" />
      </cc:License>
    </rdf:RDF>
  </metadata>
  <g
     transform="translate(0,-2)"
     id="layer1">
    <rect
       width="12.000041"
       height="11.999752"
       rx="1.2111608"
       ry="1.2111316"
       x="0.4999795"
       y="3.000124"
       id="rect4319-7"
       style="fill:none;stroke:#000000;stroke-width:0.99995869;stroke-linecap:butt;stroke-linejoin:bevel;stroke-miterlimit:10;stroke-opacity:1;stroke-dasharray:none;stroke-dashoffset:0;marker:none;visibility:visible;display:inline;overflow:visible;enable-background:new" />
    <path
       d="m 3.0937502,4.75 c -0.02216,0.00743 -0.04326,0.017981 -0.0625,0.03125 -0.03888,0.02211 -0.07164,0.054868 -0.09375,0.09375 -0.01327,0.019236 -0.02385,0.040343 -0.03125,0.0625 -0.0026,0.020724 -0.0026,0.041776 0,0.0625 l 0,1.2812501 a 0.250025,0.250025 0 0 0 0,0.0625 0.250025,0.250025 0 0 0 0.09375,0.125 0.250025,0.250025 0 0 0 0.03125,0.03125 0.250025,0.250025 0 0 0 0.09375,0.03125 0.250025,0.250025 0 0 0 0.03125,0 l 2.3749995,0 0,6.4687499 a 0.250025,0.250025 0 0 0 0.03125,0.09375 0.250025,0.250025 0 0 0 0.0625,0.09375 0.250025,0.250025 0 0 0 0.0625,0.03125 0.250025,0.250025 0 0 0 0.09375,0.03125 l 1.40625,0 a 0.250025,0.250025 0 0 0 0.0625,0 0.250025,0.250025 0 0 0 0.0625,-0.03125 0.250025,0.250025 0 0 0 0.09375,-0.09375 0.250025,0.250025 0 0 0 0.03125,-0.0625 0.250025,0.250025 0 0 0 0,-0.0625 l 0,-6.4687499 2.4062501,0 a 0.250025,0.250025 0 0 0 0.0625,0 0.250025,0.250025 0 0 0 0.09375,-0.0625 0.250025,0.250025 0 0 0 0.03125,-0.03125 0.250025,0.250025 0 0 0 0.03125,-0.09375 0.250025,0.250025 0 0 0 0.03125,-0.0625 L 10.09375,5 a 0.250025,0.250025 0 0 0 0,-0.0625 A 0.250025,0.250025 0 0 0 10.0625,4.875 0.250025,0.250025 0 0 0 9.9687498,4.78125 0.250025,0.250025 0 0 0 9.9062498,4.75 a 0.250025,0.250025 0 0 0 -0.0625,0 l -6.6874996,0 c -0.02072,-0.00261 -0.04178,-0.00261 -0.0625,0 z"
       id="path9473-5-4"
       style="font-size:11.52737713px;font-style:normal;font-variant:normal;font-weight:bold;font-stretch:normal;text-align:start;line-height:125%;letter-spacing:0px;word-spacing:0px;writing-mode:lr-tb;text-anchor:start;color:#000000;fill:#000000;fill-opacity:1;fill-rule:nonzero;stroke:none;stroke-width:1;marker:none;visibility:visible;display:block;overflow:visible;enable-background:new;font-family:Cantarell;-inkscape-font-specification:Cantarell Bold" />
  </g>
</svg>
