<?xml version="1.0" encoding="UTF-8" standalone="no"?>
<!-- Licensed under the Creative Commons Attribution-Share Alike 3.0 United States License (http://creativecommons.org/licenses/by-sa/3.0/) -->
<svg xmlns="http://www.w3.org/2000/svg" version="1.1" viewBox="0 0 16 16">
 <g transform="matrix(1.0433 0 0 1.0433 -.17864 -.68459)">
  <path d="m15.25 0.65625c-0.15 0.00269-0.349 0.10083-0.562 0.3125-3.999 3.9688-4.6981 4.0066-8.438 9.1562 1.0036 0.038 1.8651 0.689 2.3125 1.625 4.4275-4.7725 4.9265-7.3238 6.8435-10.406 0.193-0.41638 0.094-0.69223-0.156-0.68775zm-14.25 0.84375v12.625c0.49869 0.00018 0.73121-0.09104 0.9375-0.25 0.2063-0.159 0.4085-0.422 0.5937-0.781 0.1544-0.299 0.2921-0.705 0.4688-1.094v-0.5h0.28125c0.2271-0.368 0.5156-0.717 0.9688-1h-1.25v-1.0312c0.0326 0.0066 0.0591 0.0312 0.0938 0.0312h2.375c0.1766-0.243 0.3045-0.4346 0.4687-0.6562-0.068-0.1953-0.2498-0.3438-0.4687-0.3438h-2.375c-0.0337 0-0.062-0.0063-0.0938 0v-1h1.5c0.277 0 0.5-0.223 0.5-0.5s-0.223-0.5-0.5-0.5h-1.5v-1h1.5c0.277 0 0.5-0.223 0.5-0.5s-0.223-0.5-0.5-0.5h-1.5v-1h4.1875c1.1861 0 1.6916 0.66595 1.7812 1.625 0.52726-0.56565 1.0782-1.0758 1.625-1.5938-0.522-1.1481-1.5685-2.0312-3.2815-2.0312h-6.3125zm10 9.0312c-0.494 0.607-1.0525 1.222-1.6875 1.907l-0.3437 0.343c0.076 0.621-0.0274 1.203-0.25 1.719h2.2812v-3.969zm-5.125 0.469c-0.3453 0.008-0.7422 0.105-1.125 0.344-1.3212 0.825-1.0289 3.782-3.75 3.781 0.25763 0.99788 4.1664 1.2315 5.7812 0.1875 0.84182-0.54422 1.463-1.5504 1.125-2.7812-0.2008-0.731-0.9954-1.555-2.0312-1.531z"/>
 </g>
</svg>
