<?xml version="1.0" encoding="UTF-8" standalone="no"?>
<!-- Licensed under the Creative Commons Attribution-Share Alike 3.0 United States License (http://creativecommons.org/licenses/by-sa/3.0/) -->
<svg xmlns="http://www.w3.org/2000/svg" version="1.1" viewBox="0 0 13 14">
 <g transform="translate(0,-2)">
  <rect stroke-linejoin="bevel" style="enable-background:new" rx="1.2112" ry="1.2111" height="12" width="12" stroke="#000" stroke-miterlimit="10" y="3.0001" x=".49998" stroke-width=".99996" fill="none"/>
  <path style="color:#000000;enable-background:new" d="m3.0938 4.75c-0.02216 0.00743-0.04326 0.017981-0.0625 0.03125-0.03888 0.02211-0.07164 0.054868-0.09375 0.09375-0.01327 0.019236-0.02385 0.040343-0.03125 0.0625-0.0026 0.020724-0.0026 0.041776 0 0.0625v1.2813a0.25002 0.25002 0 0 0 0 0.0625 0.25002 0.25002 0 0 0 0.09375 0.125 0.25002 0.25002 0 0 0 0.03125 0.03125 0.25002 0.25002 0 0 0 0.09375 0.03125 0.25002 0.25002 0 0 0 0.03125 0h2.375v6.4687a0.25002 0.25002 0 0 0 0.03125 0.09375 0.25002 0.25002 0 0 0 0.0625 0.09375 0.25002 0.25002 0 0 0 0.0625 0.03125 0.25002 0.25002 0 0 0 0.09375 0.03125h1.4062a0.25002 0.25002 0 0 0 0.0625 0 0.25002 0.25002 0 0 0 0.0625 -0.03125 0.25002 0.25002 0 0 0 0.09375 -0.09375 0.25002 0.25002 0 0 0 0.03125 -0.0625 0.25002 0.25002 0 0 0 0 -0.0625v-6.4687h2.4063a0.25002 0.25002 0 0 0 0.0625 0 0.25002 0.25002 0 0 0 0.09375 -0.0625 0.25002 0.25002 0 0 0 0.03125 -0.03125 0.25002 0.25002 0 0 0 0.03125 -0.09375 0.25002 0.25002 0 0 0 0.03125 -0.0625v-1.2813a0.25002 0.25002 0 0 0 0 -0.0625 0.25002 0.25002 0 0 0 -0.032 -0.0625 0.25002 0.25002 0 0 0 -0.0933 -0.0938 0.25002 0.25002 0 0 0 -0.0625 -0.0312 0.25002 0.25002 0 0 0 -0.0625 0h-6.6875c-0.02072-0.00261-0.04178-0.00261-0.0625 0z" display="block"/>
 </g>
</svg>
