<?xml version="1.0" encoding="UTF-8" standalone="no"?>
<!-- Licensed under the Creative Commons Attribution-Share Alike 3.0 United States License (http://creativecommons.org/licenses/by-sa/3.0/) -->
<svg xmlns="http://www.w3.org/2000/svg" version="1.1" viewBox="0 0 16 16">
 <g transform="matrix(1.1429 0 0 1.1429 -1.1429 -1.1429)">
  <path style="block-progression:tb;text-indent:0;color:#000000;text-transform:none" d="m13.188 1.125-2.0938 2.2812c-0.89656-0.92528-2.0305-1.5-3.2812-1.5-1.1794 0-2.2842 0.51152-3.1562 1.3438l-1.9066-2.0312-0.7188 0.6874 1.9688 2.0938c-0.5634 0.76-0.9659 1.6896-1.1875 2.7188-0.0934 0.4337-0.1373 0.8794-0.1563 1.3437h-1.6562v1h1.6562c0.079371 0.97391 0.33214 1.8576 0.71875 2.6562l-1.5938 1.719 0.7188 0.687 1.375-1.5c0.9514 1.3735 2.3734 2.25 3.9375 2.25 1.6213 0 3.0798-0.94484 4.0312-2.4062l1.5938 1.7188 0.71875-0.65625-1.8438-2c0.33588-0.75115 0.58321-1.5725 0.65625-2.4688h2.0312v-1h-2.0312c-0.01893-0.4643-0.0941-0.91004-0.1875-1.3438-0.12523-0.58151-0.32057-1.1199-0.5625-1.625-0.15783-0.3295-0.29942-0.64919-0.5-0.9375l2.187-2.3444-0.718-0.6875zm-9.438 5.5938h3.5625v7c-2.1328-0.307-3.7813-2.562-3.7813-5.3128 0-0.5894 0.079-1.1579 0.2188-1.6874zm4.875 0h3.2188c0.14032 0.53036 0.21875 1.097 0.21875 1.6875 0 2.6041-1.4702 4.7365-3.4375 5.2188v-6.9062z"/>
 </g>
</svg>
