<?xml version="1.0" encoding="UTF-8" standalone="no"?>
<!-- Licensed under the Creative Commons Attribution-Share Alike 3.0 United States License (http://creativecommons.org/licenses/by-sa/3.0/) -->
<svg xmlns="http://www.w3.org/2000/svg" version="1.1" viewBox="0 0 16 16">
 <g transform="matrix(1.0666 0 0 1.0666 -.53271 -.53271)">
  <path style="block-progression:tb;text-indent:0;color:#000000;text-transform:none" d="m2.8124 0.50055a1.0001 1.0001 0 0 0 -0.8125 1v13a1.0001 1.0001 0 0 0 1 1h10a1.0001 1.0001 0 0 0 1 -1v-9.4375a1.0001 1.0001 0 0 0 -0.28125 -0.71875l-3.563-3.563a1.0001 1.0001 0 0 0 -0.71875 -0.28125h-6.4375a1.0001 1.0001 0 0 0 -0.0937 0 1.0001 1.0001 0 0 0 -0.0937 0zm1.1875 2h5v3h3v8h-8v-11z"/>
 </g>
</svg>
