<?xml version="1.0" encoding="UTF-8" standalone="no"?>
<!-- Licensed under the Creative Commons Attribution-Share Alike 3.0 United States License (http://creativecommons.org/licenses/by-sa/3.0/) -->
<svg xmlns="http://www.w3.org/2000/svg" version="1.1" viewBox="0 0 16 16">
 <g transform="matrix(1.0686 0 0 1.0686 -.54860 -.54860)">
  <path style="block-progression:tb;text-indent:0;color:#000000;enable-background:new;text-transform:none" d="m8 0.51339c-4.1303 0-7.4866 3.3563-7.4866 7.4866s3.3563 7.4866 7.4866 7.4866 7.4866-3.3563 7.4866-7.4866-3.3563-7.4866-7.4866-7.4866zm0 1.9732c3.0494 0 5.5134 2.464 5.5134 5.5134s-2.464 5.5134-5.5134 5.5134-5.5134-2.464-5.5134-5.5134 2.464-5.5134 5.5134-5.5134z"/>
  <path style="block-progression:tb;text-indent:0;color:#000000;enable-background:new;text-transform:none" d="m4.8123 4.4688a0.50005 0.50005 0 0 0 -0.2187 0.8437l3.0938 3.0625a0.50005 0.50005 0 0 0 0.0625 0.0312 0.50005 0.50005 0 0 0 0.0625 0.0312 0.50005 0.50005 0 0 0 0.0625 0.0312 0.50005 0.50005 0 0 0 0.0312 0 0.50005 0.50005 0 0 0 0.0625 0.0312 0.50005 0.50005 0 0 0 0.0937 0h0.15625 2.7812a0.50005 0.50005 0 1 0 0 -1h-2.75l-2.9688-2.875a0.50005 0.50005 0 0 0 -0.469 -0.1562z"/>
 </g>
</svg>
