<?xml version="1.0" encoding="UTF-8"?>
<!-- Licensed under the Creative Commons Attribution-Share Alike 3.0 United States License (http://creativecommons.org/licenses/by-sa/3.0/) -->
<svg xmlns="http://www.w3.org/2000/svg" id="root" version="1.1" viewBox="0 0 16 16">
 <path fill="#77b1c7" d="m8 0c-4.4047 0-8 3.5953-8 8s3.5953 8 8 8 8-3.5953 8-8-3.5953-8-8-8zm0 2.1875c3.2218 0 5.8125 2.5908 5.8125 5.8125 0 3.2218-2.5908 5.8125-5.8125 5.8125-3.2218 0-5.8125-2.5907-5.8125-5.8125s2.5908-5.8125 5.8125-5.8125z"/>
 <path fill="#77b1c7" d="m8.1504 2.9609l-0.5762 0.0664-0.707 0.1993-0.1328 0.1328 0.4433 0.2871v0.1758l-0.1777 0.1777 0.2207 0.4648 0.1543-0.0898 0.1992-0.3086c0.2957-0.0914 0.5608-0.202 0.8418-0.332l0.2207-0.5742-0.4863-0.1993zm1.5996 0.2891l-0.2812 0.0625-0.2813 0.1875v0.125l-0.375 0.2812 0.0625 0.3438 0.25-0.1562 0.1562 0.1562 0.1563 0.0938 0.0937-0.2813-0.0624-0.1563 0.0624-0.0937 0.25-0.2187h0.0938l-0.0938 0.2187v0.2187c0.0954-0.026 0.1837-0.0504 0.2808-0.0624l-0.2808 0.1874v0.125l-0.3124 0.25-0.3126-0.0624v-0.1876l-0.1562 0.0938 0.0625 0.1562h-0.2187l-0.1563 0.2188-0.1563 0.1875-0.2812 0.0625 0.1875 0.1562 0.0313 0.1563h-0.2188l-0.25 0.1563v0.4062h0.125l0.125 0.125 0.25-0.125 0.0938-0.25 0.1874-0.125 0.0626-0.0938 0.3124-0.0624 0.1563 0.1874 0.1563 0.0938-0.0938 0.2188 0.1875-0.0626 0.0625-0.2187-0.1875-0.2187h0.0625l0.2188 0.1562 0.0624 0.25 0.1563 0.2188 0.0625-0.3126 0.094-0.0624c0.102 0.1065 0.194 0.255 0.281 0.375h0.313l0.218 0.75c-0.096 0.088-0.183 0.1644-0.281 0.25h-0.25l-0.375-0.0938h-0.1562l-0.1563 0.1875-0.375-0.4063-0.25-0.0624-0.4063 0.0624-0.5 0.1876c-0.198 0.2244-0.25 0.3293-0.4374 0.5624l0.0312 0.3438 0.0938 0.0938-0.1876 0.2812 0.1876 0.5c0.1765 0.1997 0.3549 0.3939 0.5312 0.5938l0.2812-0.2188 0.125 0.125 0.25-0.1875 0.0938 0.125h0.2812l0.1876 0.1563-0.125 0.3437 0.2187 0.2187-0.0313 0.3748 0.1563 0.282-0.0937 0.25c-0.0102 0.172-0.0313 0.358-0.0313 0.531 0.0851 0.234 0.1383 0.451 0.2187 0.687l0.0938 0.406v0.157h0.125l0.25-0.125h0.25c0.004-0.003-0.004-0.029 0-0.032l0.437-0.437-0.062-0.156 0.25-0.25-0.188-0.188 0.25-0.219 0.219-0.124 0.094-0.126-0.063-0.25v-0.6558l0.219-0.4062 0.188-0.2812 0.281-0.5938v-0.1562c-0.117 0.014-0.26 0.0222-0.375 0.0312l0.25-0.25 0.344-0.25 0.187-0.2188v-0.2187c-0.041-0.0784-0.083-0.1405-0.125-0.2187l-0.156 0.1874-0.125-0.1562-0.188-0.125v-0.3125l0.219 0.2187h0.219c0.109 0.0988 0.217 0.2001 0.312 0.3126l0.188-0.2188c-0.356-1.3262-0.827-2.1357-1.406-2.8438-0.011-0.0104-0.021-0.0209-0.032-0.0312-0.27-0.2659-0.581-0.4871-0.906-0.6875l-0.156 0.1563-0.281-0.2813h0.219c-0.22-0.1212-0.4501-0.2243-0.688-0.3125zm-4.7188 0.6562l-0.0937 0.2188s-0.1463 0.0525-0.1875 0.0625c-0.2645 0.2402-0.6941 0.6225-1.0625 1.1875-0.0921 0.1412-0.1647 0.2722-0.25 0.4375-0.0363 0.0752-0.0924 0.1416-0.125 0.2187-0.0462 0.1008-0.0832 0.2033-0.125 0.3126-0.0174 0.0502-0.0153 0.1053-0.0313 0.1562-0.1251 0.4024-0.1977 0.8116-0.2187 1.25 0.0563 0.0907 0.125 0.2188 0.125 0.2188l0.375 0.25 0.4375 0.125 0.125 0.1874 0.2812 0.1876 0.1563-0.0313 0.125 0.0625v0.0312l-0.1563 0.4376-0.125 0.1874 0.0313 0.0626-0.0625 0.3124 0.3125 0.6568 0.3437 0.312 0.1563 0.188-0.0313 0.468 0.0938 0.282-0.0938 0.437c0.2211 0.159 0.4731 0.283 0.7188 0.406l-0.0312-0.125 0.1562-0.156 0.0625-0.156 0.25-0.063 0.2187-0.5-0.0937-0.125 0.125-0.187 0.2813-0.063 0.1874-0.344-0.0624-0.437 0.25-0.313 0.0312-0.312c-0.313-0.1581-0.5956-0.3373-0.9062-0.5l-0.1876-0.3125-0.25-0.0625-0.1874-0.4062-0.375 0.0312-0.3126-0.25-0.3437 0.3125v0.0313c-0.104-0.031-0.2513-0.005-0.3437-0.0626l-0.0626-0.25v-0.2187l-0.2187 0.0313c0.0202-0.1516 0.0422-0.3173 0.0625-0.4688l-0.125 0.0312-0.1562 0.1563-0.125 0.0313-0.1876-0.0938v-0.2188l0.0313-0.2812 0.2813-0.1875 0.2187-0.0313 0.0625-0.125 0.2812 0.0626 0.1876 0.2812 0.0312-0.4375 0.375-0.2813 0.1562-0.3437 0.2813-0.0937 0.125-0.25 0.3437-0.0626 0.1876-0.25h-0.5l0.2812-0.125h0.25l0.3125-0.125 0.0625-0.125-0.125-0.125-0.125-0.0312 0.0312-0.125-0.0937-0.1875-0.2187 0.0625 0.0312-0.1875-0.2812-0.125-0.1876 0.3437v0.1563l-0.2187 0.0937-0.125 0.2813-0.0313-0.2813-0.4062-0.1562-0.0312-0.1875 0.4687-0.25 0.2187-0.2187 0.0313-0.25-0.125-0.0626h-0.1563z"/>
</svg>
