<?xml version="1.0" encoding="UTF-8"?>
<!-- Licensed under the Creative Commons Attribution-Share Alike 3.0 United States License (http://creativecommons.org/licenses/by-sa/3.0/) -->
<svg xmlns="http://www.w3.org/2000/svg" id="root" version="1.1" viewBox="0 0 16 16">
 <path d="m13.93 1.5c-0.12717 0.00228-0.29604 0.085471-0.47681 0.26489-3.3896 3.3642-3.9819 3.3962-7.1521 7.7614 0.85067 0.03196 1.5809 0.58374 1.9602 1.3774 3.7537-4.0456 4.1767-6.2083 5.8017-8.8212 0.163-0.3527 0.079-0.5866-0.133-0.5828zm-7.9464 8.768c-0.29267 0.0069-0.62917 0.08868-0.95362 0.29138-1.1199 0.7-0.8722 3.206-3.1787 3.206 0.2183 0.845 3.5316 1.044 4.9005 0.159 0.7136-0.462 1.2401-1.315 0.9536-2.358-0.1703-0.62-0.8438-1.319-1.7218-1.298z"/>
</svg>
