<?xml version="1.0" encoding="UTF-8" standalone="no"?>
<!-- Licensed under the Creative Commons Attribution-Share Alike 3.0 United States License (http://creativecommons.org/licenses/by-sa/3.0/) -->
<svg xmlns="http://www.w3.org/2000/svg" version="1.1" viewBox="0 0 16 16">
 <g>
  <path d="m4.4395 2.9164c0.40346 0 0.9683 0.12104 0.9683 1.3516 0 0.7464-0.20173 1.4726-0.9683 1.4726-0.78674 0-0.94813-0.76657-0.94813-1.513 0-0.66571 0.18156-1.3112 0.94813-1.3112m0-1.755c-1.4121 0-2.7233 1.0086-2.7233 3.0663 0 2.4409 1.3516 3.2277 2.7233 3.2277 1.6542 0 2.9251-1.2104 2.9251-3.2075 0-2.5014-1.7147-3.0865-2.9251-3.0865m7.1415 9.0576c0.40346 0 0.9683 0.12104 0.9683 1.3516 0 0.7464-0.20173 1.4524-0.9683 1.4524-0.78674 0-0.9683-0.7464-0.9683-1.4928 0-0.6657 0.20173-1.3112 0.9683-1.3112m0-1.755c-1.4726 0-2.9049 1.0086-2.9049 3.0663 0 2.4409 1.4726 3.2277 2.9049 3.2277 1.5735 0 2.7233-1.2104 2.7233-3.2075 0-2.4611-1.513-3.0865-2.7233-3.0865m0.524-7.464-10.873 14h2.6628l10.873-14h-2.6628"/>
 </g>
</svg>
