<?xml version="1.0" encoding="UTF-8" standalone="no"?>
<!-- Licensed under the Creative Commons Attribution-Share Alike 3.0 United States License (http://creativecommons.org/licenses/by-sa/3.0/) -->
<svg xmlns="http://www.w3.org/2000/svg" version="1.1" viewBox="0 0 16 16">
 <defs>
  <radialGradient id="b" gradientUnits="userSpaceOnUse" cy="51.5" cx="301" gradientTransform="matrix(.97063 1.9684e-8 0 .28611 -291.16 -14.63)" r="19.5">
   <stop stop-color="#fff" offset="0"/>
   <stop stop-color="#fff" stop-opacity="0" offset="1"/>
  </radialGradient>
  <radialGradient id="a" gradientUnits="userSpaceOnUse" cy="35.878" cx="24.446" gradientTransform="matrix(.85696 3.2529e-7 -1.253e-7 .33010 -12.949 .77181)" r="20.531">
   <stop stop-color="#fff" offset="0"/>
   <stop stop-color="#fabebe" offset="1"/>
  </radialGradient>
  <linearGradient id="c" y2="118.5" gradientUnits="userSpaceOnUse" x2="311.65" gradientTransform="matrix(.55569 0 0 .55568 -169.27 -70.906)" y1="145.52" x1="321.57">
   <stop stop-color="#a40000" offset="0"/>
   <stop stop-color="#f9adad" offset="1"/>
  </linearGradient>
  <linearGradient id="d" y2="732.05" gradientUnits="userSpaceOnUse" x2="491.22" gradientTransform="matrix(.093294 0 0 .093294 -35.871 -43.769)" y1="506.65" x1="491.22">
   <stop stop-color="#a40000" offset="0"/>
   <stop stop-color="#f9adad" offset="1"/>
  </linearGradient>
 </defs>
 <rect stroke-linejoin="bevel" height="15.003" stroke="url(#c)" fill="url(#a)" style="enable-background:new" fill-rule="evenodd" rx="1.5143" ry="1.5143" width="15.004" stroke-miterlimit="10" y=".49833" x=".49815"/>
 <rect stroke-linejoin="bevel" style="enable-background:new" rx=".50812" ry=".50810" height="13" width="12.997" stroke="#fff" stroke-miterlimit="10" y="1.5016" x="1.5014" fill="none"/>
 <rect style="enable-background:new" fill-rule="evenodd" rx="1.9062" ry="1.9062" height="14" width="14" y="1.0016" x="1.0017" fill="url(#b)"/>
 <path style="color:#000000;enable-background:new" d="m4.9353 4.8501c-0.03291 0.00406-0.06499 0.014754-0.09375 0.03125-0.02216 0.00743-0.04326 0.017981-0.0625 0.03125-0.01131 0.00947-0.02175 0.019939-0.03125 0.03125-0.02758 0.025975-0.04913 0.058305-0.0625 0.09375-0.0026 0.020724-0.0026 0.041776 0 0.0625v8a0.25002 0.25002 0 0 0 0 0.0625 0.25002 0.25002 0 0 0 0.03125 0.0625 0.25002 0.25002 0 0 0 0.03125 0.03125 0.25002 0.25002 0 0 0 0.03125 0.03125 0.25002 0.25002 0 0 0 0.0625 0.03125 0.25002 0.25002 0 0 0 0.09375 0.03125h1.4375a0.25002 0.25002 0 0 0 0.09375 -0.03125 0.25002 0.25002 0 0 0 0.0625 -0.03125 0.25002 0.25002 0 0 0 0.03125 -0.03125 0.25002 0.25002 0 0 0 0.03125 -0.03125 0.25002 0.25002 0 0 0 0.03125 -0.03125 0.25002 0.25002 0 0 0 0 -0.0625 0.25002 0.25002 0 0 0 0 -0.03125v-2.875c0.11491 0.0052 0.21821 0.03125 0.34375 0.03125 0.87733 0 1.8771-0.05577 2.6875-0.4375s1.4375-1.1251 1.4375-2.3438c0-1.1859-0.65393-1.9068-1.4062-2.25-0.75232-0.34325-1.5933-0.375-2.125-0.375h-2.625zm1.6875 1.8125h0.78125c0.50267 0 0.97982 0.028766 1.2812 0.15625 0.30143 0.12748 0.4375 0.27798 0.4375 0.6875 0 0.23499-0.037039 0.38143-0.125 0.5s-0.22339 0.21106-0.40625 0.28125c-0.36571 0.14038-0.93321 0.1875-1.5312 0.1875-0.14412 0-0.29053-0.021575-0.4375-0.03125v-1.7812z" display="block" fill="#fff"/>
 <path style="color:#000000;enable-background:new" d="m5.0479 3.75c-0.03291 0.00406-0.06499 0.014754-0.09375 0.03125-0.02216 0.00743-0.04326 0.017981-0.0625 0.03125-0.01131 0.00947-0.02175 0.019939-0.03125 0.03125-0.02758 0.025975-0.04913 0.058305-0.0625 0.09375-0.0026 0.020724-0.0026 0.041776 0 0.0625v8a0.25002 0.25002 0 0 0 0 0.0625 0.25002 0.25002 0 0 0 0.03125 0.0625 0.25002 0.25002 0 0 0 0.03125 0.03125 0.25002 0.25002 0 0 0 0.03125 0.03125 0.25002 0.25002 0 0 0 0.0625 0.03125 0.25002 0.25002 0 0 0 0.09375 0.03125h1.4375a0.25002 0.25002 0 0 0 0.09375 -0.03125 0.25002 0.25002 0 0 0 0.0625 -0.03125 0.25002 0.25002 0 0 0 0.03125 -0.03125 0.25002 0.25002 0 0 0 0.03125 -0.03125 0.25002 0.25002 0 0 0 0.03125 -0.03125 0.25002 0.25002 0 0 0 0 -0.0625 0.25002 0.25002 0 0 0 0 -0.03125v-2.875c0.11491 0.00518 0.21821 0.03125 0.34375 0.03125 0.87733 0 1.8771-0.055769 2.6875-0.4375 0.8104-0.3818 1.4374-1.1251 1.4374-2.3438 0-1.1859-0.65393-1.9068-1.4062-2.25-0.7523-0.3432-1.5932-0.375-2.1249-0.375h-2.625zm1.6875 1.8125h0.78125c0.50267 0 0.97982 0.028766 1.2812 0.15625 0.30143 0.12748 0.4375 0.27798 0.4375 0.6875 0 0.23499-0.037039 0.38143-0.125 0.5s-0.22339 0.21106-0.40625 0.28125c-0.36571 0.14038-0.93321 0.1875-1.5312 0.1875-0.14412 0-0.29053-0.021575-0.4375-0.03125v-1.7812z" display="block" fill="url(#d)"/>
</svg>
