<?xml version="1.0" encoding="UTF-8"?>
<!-- Licensed under the Creative Commons Attribution-Share Alike 3.0 United States License (http://creativecommons.org/licenses/by-sa/3.0/) -->
<svg xmlns="http://www.w3.org/2000/svg" id="root" version="1.1" viewBox="0 0 16 16">
 <path fill="currentColor" d="m1 1v14h14v-14h-14zm1 0.5273h1.9805v1.4473h-1.9805v-1.4473zm10.02 0.0254h1.98v1.4473h-1.98v-1.4473zm-10.02 2.8692h1.9805v1.4453h-1.9805v-1.4453zm10.02 0.0254h1.98v1.4453h-1.98v-1.4453zm-5.5669 1.3457l3.9999 2.1972-3.9999 2.1988v-4.396zm-4.4531 1.5215h1.9805v1.4472h-1.9805v-1.4472zm10.02 0.0253h1.98v1.4473h-1.98v-1.4473zm-10.02 2.8672h1.9805v1.447h-1.9805v-1.447zm10.02 0.025h1.98v1.448h-1.98v-1.448zm-10.02 2.87h1.9805v1.445h-1.9805v-1.445zm10.02 0.023h1.98v1.447h-1.98v-1.447z"/>
</svg>
