<?xml version="1.0" encoding="UTF-8"?>
<!-- Licensed under the Creative Commons Attribution-Share Alike 3.0 United States License (http://creativecommons.org/licenses/by-sa/3.0/) -->
<svg xmlns="http://www.w3.org/2000/svg" id="root" version="1.1" viewBox="0 0 16 16">
 <defs>
  <linearGradient id="d" x1="491.22" x2="491.22" y1="506.65" y2="732.05" gradientUnits="userSpaceOnUse" gradientTransform="matrix(.093294 0 0 .093294 -35.871 -43.769)">
   <stop stop-color="#204a87" offset="0"/>
   <stop stop-color="#bdd2e9" offset="1"/>
  </linearGradient>
  <radialGradient id="b" cx="301" cy="51.5" r="19.5" gradientUnits="userSpaceOnUse" gradientTransform="matrix(.97063 1.9684e-8 0 .28611 -291.16 -14.63)">
   <stop stop-color="#fff" offset="0"/>
   <stop stop-color="#fff" stop-opacity="0" offset="1"/>
  </radialGradient>
  <radialGradient id="a" cx="24.446" cy="35.878" r="20.531" gradientUnits="userSpaceOnUse" gradientTransform="matrix(.85696 3.2529e-7 -1.253e-7 .33010 -12.949 .77181)">
   <stop stop-color="#fff" offset="0"/>
   <stop stop-color="#cbdbed" offset="1"/>
  </radialGradient>
  <linearGradient id="c" x1="321.57" x2="311.65" y1="145.52" y2="118.5" gradientUnits="userSpaceOnUse" gradientTransform="matrix(.55569 0 0 .55568 -169.27 -70.906)">
   <stop stop-color="#204a87" offset="0"/>
   <stop stop-color="#bdd2e9" offset="1"/>
  </linearGradient>
 </defs>
 <rect width="15.004" height="15.003" x=".49815" y=".49833" fill="url(#a)" fill-rule="evenodd" stroke="url(#c)" stroke-miterlimit="10" rx="1.5143" ry="1.5143" stroke-linejoin="bevel"/>
 <rect width="12.997" height="13" x="1.5014" y="1.5016" fill="none" stroke="#fff" stroke-miterlimit="10" ry=".50810" stroke-linejoin="bevel" rx=".50812"/>
 <rect width="14" height="14" x="1.0017" y="1.0016" fill="url(#b)" fill-rule="evenodd" rx="1.9062" ry="1.9062"/>
 <path fill="#fff" d="m4.7937 4.8501c-0.03291 0.00406-0.06499 0.014754-0.09375 0.03125-0.02216 0.00743-0.04326 0.017981-0.0625 0.03125-0.02758 0.025975-0.04913 0.058305-0.0625 0.09375-0.000652 0.010403-0.000652 0.020847 0 0.03125-0.0026 0.020724-0.0026 0.041776 0 0.0625v8a0.25002 0.25002 0 0 0 0 0.03125 0.25002 0.25002 0 0 0 0 0.03125 0.25002 0.25002 0 0 0 0 0.03125 0.25002 0.25002 0 0 0 0 0.03125 0.25002 0.25002 0 0 0 0.03125 0.03125 0.25002 0.25002 0 0 0 0.03125 0.03125 0.25002 0.25002 0 0 0 0.0625 0.03125 0.25002 0.25002 0 0 0 0.09375 0.03125 0.25002 0.25002 0 0 0 0.03125 0h1.4062a0.25002 0.25002 0 0 0 0.03125 0 0.25002 0.25002 0 0 0 0.09375 -0.03125 0.25002 0.25002 0 0 0 0.0625 -0.03125 0.25002 0.25002 0 0 0 0.03125 -0.03125 0.25002 0.25002 0 0 0 0.03125 -0.0625 0.25002 0.25002 0 0 0 0 -0.03125 0.25002 0.25002 0 0 0 0 -0.03125 0.25002 0.25002 0 0 0 0 -0.03125v-2.875c0.12483 0.0059 0.2381 0.03125 0.375 0.03125 0.14931 0 0.32427 0.0053 0.5 0l1.75 2.9688a0.25002 0.25002 0 0 0 0.03125 0.03125 0.25002 0.25002 0 0 0 0.0625 0.0625 0.25002 0.25002 0 0 0 0.0625 0.03125 0.25002 0.25002 0 0 0 0.03125 0 0.25002 0.25002 0 0 0 0.03125 0h1.625a0.25002 0.25002 0 0 0 0.03125 0 0.25002 0.25002 0 0 0 0.03125 0 0.25002 0.25002 0 0 0 0.0625 -0.03125 0.25002 0.25002 0 0 0 0.0625 -0.0625 0.25002 0.25002 0 0 0 0.03125 -0.03125 0.25002 0.25002 0 0 0 0.03125 -0.09375 0.25002 0.25002 0 0 0 0 -0.0625 0.25002 0.25002 0 0 0 -0.03125 -0.09375l-1.9066-3.1249c0.40877-0.16309 0.82622-0.3517 1.125-0.6875 0.36559-0.41089 0.59375-0.96258 0.59375-1.6875 0-1.1859-0.65393-1.9068-1.4063-2.25-0.75232-0.34325-1.6246-0.375-2.1562-0.375h-2.5938c-0.0104-0.0006514-0.02085-0.0006514-0.03125 0zm1.6875 1.8125h0.8125c0.50267 0 0.97982 0.028766 1.2812 0.15625 0.30143 0.12748 0.4375 0.27798 0.4375 0.6875 0 0.23499-0.03704 0.38143-0.125 0.5s-0.22339 0.21106-0.40625 0.28125c-0.36572 0.14038-0.93321 0.1875-1.5312 0.1875-0.15438 0-0.31008-0.020841-0.46875-0.03125v-1.7813z" display="block"/>
 <path fill="url(#d)" d="m4.8455 3.8198c-0.03291 0.00406-0.06499 0.014754-0.09375 0.03125-0.02216 0.00743-0.04326 0.017981-0.0625 0.03125-0.02758 0.025975-0.04913 0.058305-0.0625 0.09375-0.000652 0.010403-0.000652 0.020847 0 0.03125-0.0026 0.020724-0.0026 0.041776 0 0.0625v8a0.25002 0.25002 0 0 0 0 0.03125 0.25002 0.25002 0 0 0 0 0.03125 0.25002 0.25002 0 0 0 0 0.03125 0.25002 0.25002 0 0 0 0 0.03125 0.25002 0.25002 0 0 0 0.03125 0.03125 0.25002 0.25002 0 0 0 0.03125 0.03125 0.25002 0.25002 0 0 0 0.0625 0.03125 0.25002 0.25002 0 0 0 0.09375 0.03125 0.25002 0.25002 0 0 0 0.03125 0h1.4062a0.25002 0.25002 0 0 0 0.03125 0 0.25002 0.25002 0 0 0 0.09375 -0.03125 0.25002 0.25002 0 0 0 0.0625 -0.03125 0.25002 0.25002 0 0 0 0.03125 -0.03125 0.25002 0.25002 0 0 0 0.03125 -0.0625 0.25002 0.25002 0 0 0 0 -0.03125 0.25002 0.25002 0 0 0 0 -0.03125 0.25002 0.25002 0 0 0 0 -0.03125v-2.875c0.12483 0.00594 0.2381 0.03125 0.375 0.03125 0.14931 0 0.32427 0.00525 0.5 0l1.75 2.9688a0.25002 0.25002 0 0 0 0.03125 0.03125 0.25002 0.25002 0 0 0 0.0625 0.0625 0.25002 0.25002 0 0 0 0.0625 0.03125 0.25002 0.25002 0 0 0 0.03125 0 0.25002 0.25002 0 0 0 0.03125 0h1.625a0.25002 0.25002 0 0 0 0.03125 0 0.25002 0.25002 0 0 0 0.03125 0 0.25002 0.25002 0 0 0 0.0625 -0.03125 0.25002 0.25002 0 0 0 0.0625 -0.0625 0.25002 0.25002 0 0 0 0.03125 -0.03125 0.25002 0.25002 0 0 0 0.03125 -0.09375 0.25002 0.25002 0 0 0 0 -0.0625 0.25002 0.25002 0 0 0 -0.03125 -0.09375l-1.9068-3.1252c0.40877-0.16309 0.82622-0.3517 1.125-0.6875 0.36559-0.41089 0.59375-0.96258 0.59375-1.6875 0-1.1859-0.65393-1.9068-1.4063-2.25-0.75232-0.34325-1.6246-0.375-2.1562-0.375h-2.5938c-0.0104-0.0006514-0.02085-0.0006514-0.03125 0zm1.6875 1.8125h0.8125c0.50267 0 0.97982 0.028766 1.2812 0.15625 0.30143 0.12748 0.4375 0.27798 0.4375 0.6875 0 0.23499-0.03704 0.38143-0.125 0.5s-0.22339 0.21106-0.40625 0.28125c-0.36572 0.14038-0.93321 0.1875-1.5312 0.1875-0.15438 0-0.31008-0.020841-0.46875-0.03125v-1.7813z" display="block"/>
</svg>
