<?xml version="1.0" encoding="UTF-8"?>
<!-- Licensed under the Creative Commons Attribution-Share Alike 3.0 United States License (http://creativecommons.org/licenses/by-sa/3.0/) -->
<svg xmlns="http://www.w3.org/2000/svg" id="root" version="1.1" viewBox="0 0 13 13">
 <path fill="currentColor" d="m11.902 0.48662c-0.04226 0.007714-0.08403 0.018155-0.12496 0.031239-0.44699 0.1001-0.792 0.54171-0.78097 0.99964v1.6869c-0.382-0.5778-0.849-1.0818-1.4054-1.4995-1.1552-0.86643-2.5311-1.2518-3.8736-1.187-0.1918 0.00895-0.3721 0.03524-0.5623 0.06243-1.5217 0.21734-2.9771 1.0227-3.9674 2.3429-1.9804 2.6405-1.4221 6.4228 1.2184 8.4028 2.6405 1.9805 6.4227 1.4222 8.4032-1.2183 0.12263-0.17163 0.18926-0.38261 0.18743-0.59354 0.004-0.051961 0.004-0.10423 0-0.15619v-0.84345h-0.81221-0.09372c-0.03122-0.00146-0.0625-0.00146-0.093716 0-0.3137-0.0011-0.6246 0.1544-0.8118 0.4065-1.3322 1.7759-3.8157 2.1129-5.5918 0.781-1.7761-1.3322-2.1131-3.8157-0.7809-5.5918 1.3321-1.7761 3.8156-2.1131 5.5917-0.781 0.4293 0.3221 0.7693 0.7327 1.0309 1.1871h-1.437c-0.5234 0.0000524-0.99959 0.47624-0.99964 0.99964-0.00799 0.072599-0.00799 0.14607 0 0.21867v0.78097h0.84345 0.15619 3.9986 0.99964v-0.99964-5.0261c-0.36447 0.003399-0.72892-0.001789-1.0934-0.003259z"/>
</svg>
