<?xml version="1.0" encoding="UTF-8" standalone="no"?>
<!-- Licensed under the Creative Commons Attribution-Share Alike 3.0 United States License (http://creativecommons.org/licenses/by-sa/3.0/) -->
<svg xmlns="http://www.w3.org/2000/svg" version="1.1" viewBox="0 0 13 13">
 <g display="none" transform="translate(0,-3)">
  <path style="block-progression:tb;text-indent:0;color:#000000;enable-background:new;text-transform:none" d="m2 2.9882c-1.0524 0-2 0.84508-2 1.9375v9.1363c0 1.093 0.94763 1.938 2 1.938h11c1.0524 0 2-0.84508 2-1.9375v-9.1368c0-1.0924-0.94763-1.9375-2-1.9375zm0 3.0118h3.0312v2h-3.0312zm4.0312 0h2.9688v2h-2.9688zm3.9688 0h3v2h-3zm-8 3h3.0312v2h-3.0312zm4.0312 0h2.9688v2h-2.9688zm3.9688 0h3v2h-3zm-8 3h3.0312v2h-3.0312zm4.0312 0h2.9688v2h-2.9688zm3.9688 0h3v2h-3z" display="inline"/>
  <g transform="translate(21.103 -1.464)">
   <g transform="translate(.65192 4.7199)">
    <rect height="1" width="1" y="1.4201" x="-3.897"/>
    <rect height="1" width="1" y=".42012" x="-2.897"/>
    <rect height="1" width="1" y="1.4201" x="-1.897"/>
   </g>
   <g transform="translate(.65192 6.7199)">
    <rect height="1" width="1" y="1.4201" x="-3.897"/>
    <rect height="1" width="1" y=".42012" x="-2.897"/>
    <rect height="1" width="1" y="1.4201" x="-1.897"/>
   </g>
   <g transform="translate(0 4)">
    <g transform="translate(.65192 4.7199)">
     <rect height="1" width="1" y="1.4201" x="-3.897"/>
     <rect height="1" width="1" y=".42012" x="-2.897"/>
     <rect height="1" width="1" y="1.4201" x="-1.897"/>
    </g>
    <g transform="translate(.65192 6.7199)">
     <rect height="1" width="1" y="1.4201" x="-3.897"/>
     <rect height="1" width="1" y=".42012" x="-2.897"/>
     <rect height="1" width="1" y="1.4201" x="-1.897"/>
    </g>
   </g>
   <g transform="translate(0 8)">
    <g transform="translate(.65192 4.7199)">
     <rect height="1" width="1" y="1.4201" x="-3.897"/>
     <rect height="1" width="1" y=".42012" x="-2.897"/>
     <rect height="1" width="1" y="1.4201" x="-1.897"/>
    </g>
    <g transform="translate(.65192 6.7199)">
     <rect height="1" width="1" y="1.4201" x="-3.897"/>
     <rect height="1" width="1" y=".42012" x="-2.897"/>
     <rect height="1" width="1" y="1.4201" x="-1.897"/>
    </g>
   </g>
  </g>
  <rect style="color:#000000" height="11.788" width="2.8367" stroke="#000" display="inline" y="3.7942" x="6.0816" stroke-width=".83536"/>
  <path style="block-progression:tb;text-indent:0;color:#000000;enable-background:new;text-transform:none" d="m-1.4538 14.454v-1h-1v1h-1v-1h1v-1h-1v-1h1v-1h-1v-1h1v-1h-1v-1h1v-1h1v1h1v1h-1v1h1v1h-1v1h1v1h-1v1h1v1h-1m5 2c1.0524 0 2-0.84508 2-1.9375v-9.125c0-1.0924-0.94763-1.9375-2-1.9375h-11c-1.0524 0-2 0.84508-2 1.9375v9.125c0 1.0924 0.94763 1.9375 2 1.9375m6-4v-1h-1v1zm0-2v-1h-1v1zm0-2v-1h-1v1zm0-2h-1zm-6 0h3.0312v2h-3.0312zm8 0h3v2h-3zm-8 3h3.0312v2h-3.0312zm8 0h3v2h-3zm-8 3h3.0312v2h-3.0312zm8 0h3v2h-3z" display="inline"/>
 </g>
 <g transform="matrix(.99964 0 0 .99964 -.99938 -1.4814)">
  <path style="block-progression:tb;text-indent:0;color:#bebebe;text-transform:none" d="m12.906 1.9688c-0.042 0.0077-0.084 0.0181-0.125 0.0312-0.447 0.1001-0.792 0.5419-0.781 1v1.6875c-0.382-0.578-0.849-1.0822-1.406-1.5-1.1559-0.8668-2.5322-1.2523-3.8752-1.1875-0.1919 0.009-0.3723 0.0353-0.5626 0.0625-1.5221 0.2174-2.9781 1.023-3.9687 2.3437-1.9812 2.6415-1.4227 6.4248 1.2187 8.4058 2.6415 1.982 6.4251 1.423 8.4058-1.218 0.123-0.172 0.19-0.383 0.188-0.594 0.004-0.05198 0.004-0.10427 0-0.15625v-0.844h-0.812-0.094c-0.031-0.0015-0.063-0.0015-0.094 0-0.314-0.0015-0.625 0.154-0.812 0.406-1.3332 1.777-3.8175 2.114-5.5942 0.782-1.7768-1.3331-2.114-3.8175-0.7813-5.5942 1.3327-1.7768 3.817-2.1139 5.5937-0.7813 0.4295 0.3221 0.7698 0.7329 1.0318 1.1875h-1.438c-0.5236 0.0001-0.9999 0.4764-1 1-0.008 0.0726-0.008 0.1461 0 0.2188v0.7812h0.8438 0.1562 4 1v-1-5.0279c-0.3646 0.0034-0.72918-0.00179-1.0938-0.00326z"/>
 </g>
</svg>
