<?xml version="1.0" encoding="UTF-8"?>
<!-- Licensed under the Creative Commons Attribution-Share Alike 3.0 United States License (http://creativecommons.org/licenses/by-sa/3.0/) -->
<svg xmlns="http://www.w3.org/2000/svg" id="root" version="1.1" viewBox="0 0 16 16">
 <path fill="currentColor" d="m12.908 1.9686c-0.04228 0.00772-0.08406 0.018162-0.125 0.031249-0.447 0.1002-0.792 0.542-0.781 1.0001v1.6875c-0.382-0.578-0.849-1.0823-1.406-1.5-1.1557-0.8668-2.532-1.2523-3.875-1.1875-0.19186 0.009-0.37222 0.035299-0.56249 0.062499-1.5222 0.2174-2.9781 1.023-3.9687 2.3437-1.9811 2.6414-1.4226 6.4249 1.2187 8.4059 2.6414 1.9812 6.4249 1.4226 8.4061-1.2187 0.12267-0.17168 0.18932-0.38274 0.1875-0.59374 0.004-0.05198 0.004-0.10427 0-0.15625v-0.84373h-0.81248-0.09375c-0.03123-0.00146-0.06252-0.00146-0.09375 0-0.31415-0.00145-0.62516 0.15405-0.81248 0.40624-1.333 1.777-3.8173 2.114-5.594 0.781-1.7767-1.3324-2.1138-3.8167-0.7812-5.5934s3.8169-2.1139 5.5936-0.7813c0.4295 0.3222 0.7696 0.733 1.0316 1.1875h-1.4375c-0.52357 0.0000524-0.99993 0.47641-0.99998 0.99998-0.00799 0.072624-0.00799 0.14612 0 0.21875v0.78123h0.84373 0.15625 3.9999 0.99998v-0.99998-5.0278c-0.3646 0.0034-0.72916-0.00179-1.0937-0.00326z"/>
</svg>
