<?xml version="1.0" encoding="UTF-8"?>
<!-- Licensed under the Creative Commons Attribution-Share Alike 3.0 United States License (http://creativecommons.org/licenses/by-sa/3.0/) -->
<svg xmlns="http://www.w3.org/2000/svg" id="root" version="1.1" viewBox="0 0 16 16">
 <path fill="currentColor" d="m3.8503 2.0009a0.80002 0.80002 0 0 0 -0.65 0.7999v10.399a0.80002 0.80002 0 0 0 0.7999 0.8h7.9994a0.80002 0.80002 0 0 0 0.79994 -0.79994v-7.5494a0.80002 0.80002 0 0 0 -0.225 -0.5749l-2.8502-2.8498a0.80002 0.80002 0 0 0 -0.5749 -0.225h-5.1496a0.80002 0.80002 0 0 0 -0.074955 0 0.80002 0.80002 0 0 0 -0.074955 0zm0.94993 1.5999h3.9997v2.3998h2.3998v6.3995h-6.3995v-8.7994z"/>
</svg>
