<?xml version="1.0" encoding="UTF-8"?>
<!-- Licensed under the Creative Commons Attribution-Share Alike 3.0 United States License (http://creativecommons.org/licenses/by-sa/3.0/) -->
<svg xmlns="http://www.w3.org/2000/svg" id="root" version="1.1" viewBox="0 0 16 16">
 <defs>
  <linearGradient id="d" x1="491.22" x2="491.22" y1="506.65" y2="732.05" gradientUnits="userSpaceOnUse" gradientTransform="matrix(.093294 0 0 .093294 -35.871 -43.769)">
   <stop stop-color="#204a87" offset="0"/>
   <stop stop-color="#bdd2e9" offset="1"/>
  </linearGradient>
  <radialGradient id="b" cx="301" cy="51.5" r="19.5" gradientUnits="userSpaceOnUse" gradientTransform="matrix(.97063 1.9684e-8 0 .28611 -291.16 -14.63)">
   <stop stop-color="#fff" offset="0"/>
   <stop stop-color="#fff" stop-opacity="0" offset="1"/>
  </radialGradient>
  <radialGradient id="a" cx="24.446" cy="35.878" r="20.531" gradientUnits="userSpaceOnUse" gradientTransform="matrix(.85696 3.2529e-7 -1.253e-7 .33010 -12.949 .77181)">
   <stop stop-color="#fff" offset="0"/>
   <stop stop-color="#cbdbed" offset="1"/>
  </radialGradient>
  <linearGradient id="c" x1="321.57" x2="311.65" y1="145.52" y2="118.5" gradientUnits="userSpaceOnUse" gradientTransform="matrix(.55569 0 0 .55568 -169.27 -70.906)">
   <stop stop-color="#204a87" offset="0"/>
   <stop stop-color="#bdd2e9" offset="1"/>
  </linearGradient>
 </defs>
 <rect width="15.004" height="15.003" x=".49815" y=".49833" fill="url(#a)" fill-rule="evenodd" stroke="url(#c)" stroke-miterlimit="10" rx="1.5143" ry="1.5143" stroke-linejoin="bevel"/>
 <rect width="12.997" height="13" x="1.5014" y="1.5016" fill="none" stroke="#fff" stroke-miterlimit="10" ry=".50810" stroke-linejoin="bevel" rx=".50812"/>
 <rect width="14" height="14" x="1.0017" y="1.0016" fill="url(#b)" fill-rule="evenodd" rx="1.9062" ry="1.9062"/>
 <path fill="#fff" d="m6.7634 4.8508a0.25002 0.25002 0 0 0 -0.0625 0.0625 0.25002 0.25002 0 0 0 -0.03125 0.0625 0.25002 0.25002 0 0 0 -0.03125 0.09375 0.25002 0.25002 0 0 0 0 0.03125v4.4062l-0.875-0.78125c-0.24477-0.21756-0.55772-0.31249-0.875-0.3125h-1a0.25002 0.25002 0 0 0 -0.0625 0 0.25002 0.25002 0 0 0 -0.03125 0 0.25002 0.25002 0 0 0 -0.09375 0.0625 0.25002 0.25002 0 0 0 -0.03125 0.03125 0.25002 0.25002 0 0 0 -0.03125 0.09375 0.25002 0.25002 0 0 0 0 0.0625v0.875c0.000013 0.30161 0.099 0.62617 0.34375 0.84375l3 2.6562 0.28125 0.25a0.25002 0.25002 0 0 0 0.0625 0.03125 0.25002 0.25002 0 0 0 0.125 0.03125h0.875a0.25002 0.25002 0 0 0 0.03125 0 0.25002 0.25002 0 0 0 0.09375 -0.03125 0.25002 0.25002 0 0 0 0.03125 -0.03125l0.28125-0.25 3-2.6562c0.24481-0.21759 0.37499-0.54217 0.375-0.84375v-0.875a0.25002 0.25002 0 0 0 -0.03125 -0.09375 0.25002 0.25002 0 0 0 -0.03125 -0.0625 0.25002 0.25002 0 0 0 -0.03125 -0.03125 0.25002 0.25002 0 0 0 -0.03125 -0.03125 0.25002 0.25002 0 0 0 -0.09375 -0.03125 0.25002 0.25002 0 0 0 -0.03125 0h-1c-0.31728 0.0000105-0.66148 0.094941-0.90625 0.3125l-0.84375 0.75v-4.375a0.25002 0.25002 0 0 0 0 -0.0625 0.25002 0.25002 0 0 0 -0.0625 -0.09375 0.25002 0.25002 0 0 0 -0.03125 -0.03125 0.25002 0.25002 0 0 0 -0.125 -0.0625 0.25002 0.25002 0 0 0 -0.03125 0h-2a0.25002 0.25002 0 0 0 -0.0625 0 0.25002 0.25002 0 0 0 -0.03125 0 0.25002 0.25002 0 0 0 -0.03125 0z" display="block"/>
 <path fill="url(#d)" d="m6.8152 3.8205a0.25002 0.25002 0 0 0 -0.0625 0.0625 0.25002 0.25002 0 0 0 -0.03125 0.0625 0.25002 0.25002 0 0 0 -0.03125 0.09375 0.25002 0.25002 0 0 0 0 0.03125v4.4062l-0.875-0.78125c-0.24477-0.21756-0.55772-0.31249-0.875-0.3125h-1a0.25002 0.25002 0 0 0 -0.0625 0 0.25002 0.25002 0 0 0 -0.03125 0 0.25002 0.25002 0 0 0 -0.09375 0.0625 0.25002 0.25002 0 0 0 -0.03125 0.03125 0.25002 0.25002 0 0 0 -0.03125 0.09375 0.25002 0.25002 0 0 0 0 0.0625v0.875c0.000013 0.30161 0.099 0.62617 0.34375 0.84375l3 2.6563 0.28125 0.25a0.25002 0.25002 0 0 0 0.0625 0.03125 0.25002 0.25002 0 0 0 0.125 0.03125h0.875a0.25002 0.25002 0 0 0 0.03125 0 0.25002 0.25002 0 0 0 0.09375 -0.03125 0.25002 0.25002 0 0 0 0.03125 -0.03125l0.28125-0.25 3-2.6563c0.24481-0.21759 0.37499-0.54217 0.375-0.84375v-0.875a0.25002 0.25002 0 0 0 -0.03125 -0.09375 0.25002 0.25002 0 0 0 -0.03125 -0.0625 0.25002 0.25002 0 0 0 -0.03125 -0.03125 0.25002 0.25002 0 0 0 -0.03125 -0.03125 0.25002 0.25002 0 0 0 -0.09375 -0.03125 0.25002 0.25002 0 0 0 -0.03125 0h-1c-0.31728 0.0000105-0.66148 0.094941-0.90625 0.3125l-0.84375 0.75v-4.375a0.25002 0.25002 0 0 0 0 -0.0625 0.25002 0.25002 0 0 0 -0.0625 -0.09375 0.25002 0.25002 0 0 0 -0.03125 -0.03125 0.25002 0.25002 0 0 0 -0.125 -0.0625 0.25002 0.25002 0 0 0 -0.03125 0h-2a0.25002 0.25002 0 0 0 -0.0625 0 0.25002 0.25002 0 0 0 -0.03125 0 0.25002 0.25002 0 0 0 -0.03125 0z" display="block"/>
</svg>
