<?xml version="1.0" encoding="UTF-8" standalone="no"?>
<!-- Created with Inkscape (http://www.inkscape.org/) -->

<svg
   xmlns:dc="http://purl.org/dc/elements/1.1/"
   xmlns:cc="http://creativecommons.org/ns#"
   xmlns:rdf="http://www.w3.org/1999/02/22-rdf-syntax-ns#"
   xmlns:svg="http://www.w3.org/2000/svg"
   xmlns="http://www.w3.org/2000/svg"
   xmlns:xlink="http://www.w3.org/1999/xlink"
   version="1.1"
   width="16"
   height="16"
   id="svg9882">
  <defs
     id="defs9884">
    <radialGradient
       cx="301"
       cy="51.5"
       r="19.500002"
       fx="301"
       fy="51.5"
       id="radialGradient3175"
       xlink:href="#linearGradient8978"
       gradientUnits="userSpaceOnUse"
       gradientTransform="matrix(0.9706301,1.96843e-8,0,0.2861052,-291.15791,-14.630261)" />
    <linearGradient
       id="linearGradient8978">
      <stop
         id="stop8980"
         style="stop-color:#ffffff;stop-opacity:1"
         offset="0" />
      <stop
         id="stop8982"
         style="stop-color:#ffffff;stop-opacity:0"
         offset="1" />
    </linearGradient>
    <radialGradient
       cx="24.44569"
       cy="35.87817"
       r="20.530962"
       fx="24.44569"
       fy="35.87817"
       id="radialGradient3179"
       xlink:href="#linearGradient11520"
       gradientUnits="userSpaceOnUse"
       gradientTransform="matrix(0.8569597,3.2529443e-7,-1.2530456e-7,0.3301039,-49.42355,1.24638)" />
    <linearGradient
       id="linearGradient11520">
      <stop
         id="stop11522"
         style="stop-color:#ffffff;stop-opacity:1"
         offset="0" />
      <stop
         id="stop11524"
         style="stop-color:#dcdcdc;stop-opacity:1"
         offset="1" />
    </linearGradient>
    <linearGradient
       x1="321.5675"
       y1="145.51683"
       x2="311.65057"
       y2="118.49502"
       id="linearGradient3181"
       xlink:href="#linearGradient4247"
       gradientUnits="userSpaceOnUse"
       gradientTransform="matrix(0.5556927,0,0,0.5556793,-205.74054,-70.43189)" />
    <linearGradient
       id="linearGradient4247">
      <stop
         id="stop4249"
         style="stop-color:#9b9b9b;stop-opacity:1"
         offset="0" />
      <stop
         id="stop4251"
         style="stop-color:#d3d7cf;stop-opacity:1"
         offset="1" />
    </linearGradient>
    <radialGradient
       cx="24.44569"
       cy="35.87817"
       r="20.530962"
       fx="24.44569"
       fy="35.87817"
       id="radialGradient9878"
       xlink:href="#linearGradient11520"
       gradientUnits="userSpaceOnUse"
       gradientTransform="matrix(0.8569597,3.2529443e-7,-1.2530456e-7,0.3301039,-12.94897,0.77180835)" />
    <linearGradient
       x1="321.5675"
       y1="145.51683"
       x2="311.65057"
       y2="118.49502"
       id="linearGradient9880"
       xlink:href="#linearGradient4247"
       gradientUnits="userSpaceOnUse"
       gradientTransform="matrix(0.5556927,0,0,0.5556793,-169.26596,-70.906461)" />
    <linearGradient
       x1="491.22195"
       y1="506.64685"
       x2="491.22195"
       y2="732.05341"
       id="linearGradient3161-6"
       xlink:href="#linearGradient4373-2-5-8-6-4"
       gradientUnits="userSpaceOnUse"
       gradientTransform="matrix(0.09329421,0,0,0.09329421,-35.8706,-43.768871)" />
    <linearGradient
       id="linearGradient4373-2-5-8-6-4">
      <stop
         id="stop4375-3-6-8-4-1"
         style="stop-color:#888a85;stop-opacity:1"
         offset="0" />
      <stop
         id="stop4377-3-5-2-3-8"
         style="stop-color:#d3d7cf;stop-opacity:1"
         offset="1" />
    </linearGradient>
    <linearGradient
       x1="491.22195"
       y1="506.64685"
       x2="491.22195"
       y2="732.05341"
       id="linearGradient9970"
       xlink:href="#linearGradient4373-2-5-8-6-4"
       gradientUnits="userSpaceOnUse"
       gradientTransform="matrix(0.09329421,0,0,0.09329421,-38.9244,-46.943609)" />
    <linearGradient
       x1="491.22195"
       y1="506.64685"
       x2="491.22195"
       y2="732.05341"
       id="linearGradient3161-1-5-9-6-7-1-5-5-9-9"
       xlink:href="#linearGradient7888-2-3-2-3-3-9"
       gradientUnits="userSpaceOnUse"
       gradientTransform="matrix(0.09329421,0,0,0.09329421,-35.870603,-43.768871)" />
    <linearGradient
       id="linearGradient7888-2-3-2-3-3-9">
      <stop
         id="stop7890-1-6-2-7-3-1"
         style="stop-color:#5c3566;stop-opacity:1"
         offset="0" />
      <stop
         id="stop7892-2-4-9-8-5-1"
         style="stop-color:#ddc9db;stop-opacity:1"
         offset="1" />
    </linearGradient>
    <linearGradient
       x1="491.22195"
       y1="506.64685"
       x2="491.22195"
       y2="732.05341"
       id="linearGradient10160"
       xlink:href="#linearGradient7888-2-3-2-3-3-9"
       gradientUnits="userSpaceOnUse"
       gradientTransform="matrix(0.09329421,0,0,0.09329421,-35.8706,-43.768872)" />
  </defs>
  <metadata
     id="metadata9887">
    <rdf:RDF>
      <cc:Work
         rdf:about="">
        <dc:format>image/svg+xml</dc:format>
        <dc:type
           rdf:resource="http://purl.org/dc/dcmitype/StillImage" />
        <cc:license
           rdf:resource="http://creativecommons.org/licenses/by-sa/3.0/" />
        <dc:title></dc:title>
      </cc:Work>
      <cc:License
         rdf:about="http://creativecommons.org/licenses/by-sa/3.0/">
        <cc:permits
           rdf:resource="http://creativecommons.org/ns#Reproduction" />
        <cc:permits
           rdf:resource="http://creativecommons.org/ns#Distribution" />
        <cc:requires
           rdf:resource="http://creativecommons.org/ns#Notice" />
        <cc:requires
           rdf:resource="http://creativecommons.org/ns#Attribution" />
        <cc:permits
           rdf:resource="http://creativecommons.org/ns#DerivativeWorks" />
        <cc:requires
           rdf:resource="http://creativecommons.org/ns#ShareAlike" />
      </cc:License>
    </rdf:RDF>
  </metadata>
  <g
     id="layer1">
    <rect
       width="15.003705"
       height="15.003344"
       rx="1.5143198"
       ry="1.5142833"
       x="0.49814749"
       y="0.49832821"
       id="rect4319"
       style="fill:url(#radialGradient9878);fill-opacity:1;fill-rule:evenodd;stroke:url(#linearGradient9880);stroke-width:1.00000095;stroke-linecap:butt;stroke-linejoin:bevel;stroke-miterlimit:10;stroke-opacity:1;stroke-dasharray:none;stroke-dashoffset:0;marker:none;visibility:visible;display:inline;overflow:visible;enable-background:new" />
    <rect
       width="12.997247"
       height="12.999963"
       rx="0.5081172"
       ry="0.50810492"
       x="1.5013518"
       y="1.5016088"
       id="rect4321"
       style="fill:none;stroke:#ffffff;stroke-width:0.99999994;stroke-linecap:butt;stroke-linejoin:bevel;stroke-miterlimit:10;stroke-opacity:1;stroke-dasharray:none;stroke-dashoffset:0;marker:none;visibility:visible;display:inline;overflow:visible;enable-background:new" />
    <rect
       width="14.000044"
       height="14.000041"
       rx="1.9062433"
       ry="1.9062428"
       x="1.0017486"
       y="1.0015783"
       id="rect9035"
       style="fill:url(#radialGradient3175);fill-opacity:1;fill-rule:evenodd;stroke:none;stroke-width:1;marker:none;visibility:visible;display:inline;overflow:visible;enable-background:new" />
    <path
       d="m 4.8249452,5.5063486 a 0.250025,0.250025 0 0 0 -0.0625,0.0625 0.250025,0.250025 0 0 0 -0.03125,0.0625 0.250025,0.250025 0 0 0 -0.03125,0.125 l 0,1.3125 a 0.250025,0.250025 0 0 0 0,0.0625 0.250025,0.250025 0 0 0 0.0625,0.125 0.250025,0.250025 0 0 0 0.03125,0.03125 0.250025,0.250025 0 0 0 0.0625,0.03125 0.250025,0.250025 0 0 0 0.0625,0 0.250025,0.250025 0 0 0 0.03125,0 l 5.8749998,0 a 0.250025,0.250025 0 0 0 0.09375,-0.03125 0.250025,0.250025 0 0 0 0.0625,-0.03125 0.250025,0.250025 0 0 0 0.03125,-0.03125 0.250025,0.250025 0 0 0 0.03125,-0.03125 0.250025,0.250025 0 0 0 0.03125,-0.09375 0.250025,0.250025 0 0 0 0,-0.03125 l 0,-1.3125 a 0.250025,0.250025 0 0 0 0,-0.0625 0.250025,0.250025 0 0 0 -0.09375,-0.125 0.250025,0.250025 0 0 0 -0.0625,-0.03125 0.250025,0.250025 0 0 0 -0.09375,-0.03125 l -5.8749998,0 a 0.250025,0.250025 0 0 0 -0.0625,0 0.250025,0.250025 0 0 0 -0.03125,0 0.250025,0.250025 0 0 0 -0.03125,0 z m 0,2.6875 a 0.250025,0.250025 0 0 0 -0.0625,0.0625 0.250025,0.250025 0 0 0 -0.03125,0.0625 0.250025,0.250025 0 0 0 -0.03125,0.125 l 0,1.3125 a 0.250025,0.250025 0 0 0 0,0.0625 0.250025,0.250025 0 0 0 0.0625,0.125 0.250025,0.250025 0 0 0 0.03125,0.03125 0.250025,0.250025 0 0 0 0.0625,0.03125 0.250025,0.250025 0 0 0 0.0625,0 0.250025,0.250025 0 0 0 0.03125,0 l 5.8749998,0 a 0.250025,0.250025 0 0 0 0.09375,-0.03125 0.250025,0.250025 0 0 0 0.0625,-0.03125 0.250025,0.250025 0 0 0 0.03125,-0.03125 0.250025,0.250025 0 0 0 0.03125,-0.03125 0.250025,0.250025 0 0 0 0.03125,-0.09375 0.250025,0.250025 0 0 0 0,-0.03125 l 0,-1.3125 a 0.250025,0.250025 0 0 0 0,-0.0625 0.250025,0.250025 0 0 0 -0.09375,-0.125 0.250025,0.250025 0 0 0 -0.0625,-0.03125 0.250025,0.250025 0 0 0 -0.09375,-0.03125 l -5.8749998,0 a 0.250025,0.250025 0 0 0 -0.0625,0 0.250025,0.250025 0 0 0 -0.03125,0 0.250025,0.250025 0 0 0 -0.03125,0 z m 0,2.6875004 a 0.250025,0.250025 0 0 0 -0.0625,0.0625 0.250025,0.250025 0 0 0 -0.03125,0.0625 0.250025,0.250025 0 0 0 -0.03125,0.125 l 0,1.3125 a 0.250025,0.250025 0 0 0 0,0.0625 0.250025,0.250025 0 0 0 0.0625,0.125 0.250025,0.250025 0 0 0 0.03125,0.03125 0.250025,0.250025 0 0 0 0.0625,0.03125 0.250025,0.250025 0 0 0 0.0625,0 0.250025,0.250025 0 0 0 0.03125,0 l 5.8749998,0 a 0.250025,0.250025 0 0 0 0.09375,-0.03125 0.250025,0.250025 0 0 0 0.0625,-0.03125 0.250025,0.250025 0 0 0 0.03125,-0.03125 0.250025,0.250025 0 0 0 0.03125,-0.03125 0.250025,0.250025 0 0 0 0.03125,-0.09375 0.250025,0.250025 0 0 0 0,-0.03125 l 0,-1.3125 a 0.250025,0.250025 0 0 0 0,-0.0625 0.250025,0.250025 0 0 0 -0.09375,-0.125 0.250025,0.250025 0 0 0 -0.0625,-0.03125 0.250025,0.250025 0 0 0 -0.09375,-0.03125 l -5.8749998,0 a 0.250025,0.250025 0 0 0 -0.0625,0 0.250025,0.250025 0 0 0 -0.03125,0 0.250025,0.250025 0 0 0 -0.03125,0 z"
       id="path4760-2-0"
       style="font-size:11.52737713px;font-style:normal;font-variant:normal;font-weight:bold;font-stretch:normal;text-align:start;line-height:125%;letter-spacing:0px;word-spacing:0px;writing-mode:lr-tb;text-anchor:start;color:#000000;fill:#ffffff;fill-opacity:1;fill-rule:nonzero;stroke:none;stroke-width:0.9999997;marker:none;visibility:visible;display:block;overflow:visible;enable-background:new;font-family:Cantarell;-inkscape-font-specification:Cantarell Bold" />
    <path
       d="m 4.8767252,4.4760186 c -0.024316,0.016912 -0.045588,0.038184 -0.0625,0.0625 -0.013269,0.019236 -0.023823,0.040343 -0.03125,0.0625 -0.021038,0.038004 -0.031929,0.081566 -0.03125,0.125 l 0,1.3125 c -0.00261,0.020724 -0.00261,0.041776 0,0.0625 0.00847,0.046447 0.030425,0.090355 0.0625,0.125 0.00947,0.011311 0.019939,0.021782 0.03125,0.03125 0.019236,0.013269 0.040343,0.023823 0.0625,0.03125 0.020724,0.00261 0.041776,0.00261 0.0625,0 0.010403,6.514e-4 0.020847,6.514e-4 0.03125,0 l 5.8749998,0 c 0.03291,-0.00406 0.06499,-0.014754 0.09375,-0.03125 0.02216,-0.00743 0.04326,-0.017981 0.0625,-0.03125 0.01131,-0.00947 0.02178,-0.019939 0.03125,-0.03125 0.01131,-0.00947 0.02178,-0.019939 0.03125,-0.03125 0.0165,-0.028764 0.02719,-0.060841 0.03125,-0.09375 6.51e-4,-0.010403 6.51e-4,-0.020847 0,-0.03125 l 0,-1.3125 c 0.0026,-0.020724 0.0026,-0.041776 0,-0.0625 -0.01695,-0.050185 -0.05032,-0.094676 -0.09375,-0.125 -0.01924,-0.013269 -0.04034,-0.023822 -0.0625,-0.03125 -0.02876,-0.016495 -0.06084,-0.027188 -0.09375,-0.03125 l -5.8749998,0 c -0.020724,-0.00261 -0.041776,-0.00261 -0.0625,0 -0.010403,-6.514e-4 -0.020847,-6.514e-4 -0.03125,0 -0.010403,-6.514e-4 -0.020847,-6.514e-4 -0.03125,0 z m 0,5.3750001 c -0.024316,0.016912 -0.045588,0.038185 -0.0625,0.0625 -0.013269,0.019236 -0.023823,0.040343 -0.03125,0.0625 -0.021039,0.038004 -0.031929,0.081566 -0.03125,0.1250003 l 0,1.3125 c -0.00261,0.02072 -0.00261,0.04178 0,0.0625 0.00847,0.04645 0.030425,0.09035 0.0625,0.125 0.00947,0.01131 0.019939,0.02178 0.03125,0.03125 0.019236,0.01327 0.040343,0.02382 0.0625,0.03125 0.020724,0.0026 0.041776,0.0026 0.0625,0 0.010403,6.51e-4 0.020847,6.51e-4 0.03125,0 l 5.8749998,0 c 0.03291,-0.0041 0.06499,-0.01475 0.09375,-0.03125 0.02216,-0.0074 0.04326,-0.01798 0.0625,-0.03125 0.01131,-0.0095 0.02178,-0.01994 0.03125,-0.03125 0.01131,-0.0095 0.02178,-0.01994 0.03125,-0.03125 0.0165,-0.02876 0.02719,-0.06084 0.03125,-0.09375 6.51e-4,-0.0104 6.51e-4,-0.02085 0,-0.03125 l 0,-1.3125 c 0.0026,-0.02072 0.0026,-0.04178 0,-0.0625 -0.01695,-0.050186 -0.05032,-0.094677 -0.09375,-0.1250003 -0.01924,-0.013269 -0.04034,-0.023822 -0.0625,-0.03125 -0.02876,-0.016495 -0.06084,-0.027188 -0.09375,-0.03125 l -5.8749998,0 c -0.020724,-0.00261 -0.041776,-0.00261 -0.0625,0 -0.010403,-6.514e-4 -0.020847,-6.514e-4 -0.03125,0 -0.010403,-6.514e-4 -0.020847,-6.514e-4 -0.03125,0 z"
       id="path4760-2-0-8"
       style="font-size:11.52737713px;font-style:normal;font-variant:normal;font-weight:bold;font-stretch:normal;text-align:start;line-height:125%;letter-spacing:0px;word-spacing:0px;writing-mode:lr-tb;text-anchor:start;color:#000000;fill:url(#linearGradient3161-6);fill-opacity:1;fill-rule:nonzero;stroke:none;stroke-width:0.9999997;marker:none;visibility:visible;display:block;overflow:visible;enable-background:new;font-family:Cantarell;-inkscape-font-specification:Cantarell Bold" />
    <path
       d="m 4.8767254,7.1635188 c -0.024316,0.016912 -0.045588,0.038184 -0.0625,0.0625 -0.013269,0.019236 -0.023822,0.040343 -0.03125,0.0625 -0.021038,0.038004 -0.031929,0.081566 -0.03125,0.125 l 0,1.3125 c -0.00261,0.020724 -0.00261,0.041776 0,0.0625 0.00847,0.046447 0.030425,0.090355 0.0625,0.125 0.00947,0.011311 0.019939,0.021782 0.03125,0.03125 0.019236,0.013269 0.040343,0.023822 0.0625,0.03125 0.020724,0.00261 0.041776,0.00261 0.0625,0 0.010403,6.514e-4 0.020847,6.514e-4 0.03125,0 l 5.8749996,0 c 0.03291,-0.00406 0.06499,-0.014755 0.09375,-0.03125 0.02216,-0.00743 0.04326,-0.017981 0.0625,-0.03125 0.01131,-0.00947 0.02178,-0.019939 0.03125,-0.03125 0.01131,-0.00947 0.02178,-0.019939 0.03125,-0.03125 0.0165,-0.028764 0.02719,-0.060841 0.03125,-0.09375 6.51e-4,-0.010403 6.51e-4,-0.020847 0,-0.03125 l 0,-1.3125 c 0.0026,-0.020724 0.0026,-0.041776 0,-0.0625 -0.01695,-0.050185 -0.05032,-0.094677 -0.09375,-0.125 -0.01924,-0.013269 -0.04034,-0.023823 -0.0625,-0.03125 -0.02876,-0.016496 -0.06084,-0.027188 -0.09375,-0.03125 l -5.8749996,0 c -0.020724,-0.00261 -0.041776,-0.00261 -0.0625,0 -0.010403,-6.514e-4 -0.020847,-6.514e-4 -0.03125,0 -0.010403,-6.514e-4 -0.020847,-6.514e-4 -0.03125,0 z"
       id="path4760-2-0-3"
       style="font-size:11.52737713px;font-style:normal;font-variant:normal;font-weight:bold;font-stretch:normal;text-align:start;line-height:125%;letter-spacing:0px;word-spacing:0px;writing-mode:lr-tb;text-anchor:start;color:#000000;fill:url(#linearGradient10160);fill-opacity:1;fill-rule:nonzero;stroke:none;stroke-width:0.9999997;marker:none;visibility:visible;display:block;overflow:visible;enable-background:new;font-family:Cantarell;-inkscape-font-specification:Cantarell Bold" />
  </g>
</svg>
