<?xml version="1.0" encoding="UTF-8" standalone="no"?>
<!-- Licensed under the Creative Commons Attribution-Share Alike 3.0 United States License (http://creativecommons.org/licenses/by-sa/3.0/) -->
<svg xmlns="http://www.w3.org/2000/svg" version="1.1" viewBox="0 0 16 16">
 <defs>
  <radialGradient id="b" gradientUnits="userSpaceOnUse" cy="51.5" cx="301" gradientTransform="matrix(.97063 1.9684e-8 0 .28611 -291.16 -14.63)" r="19.5">
   <stop stop-color="#fff" offset="0"/>
   <stop stop-color="#fff" stop-opacity="0" offset="1"/>
  </radialGradient>
  <radialGradient id="a" gradientUnits="userSpaceOnUse" cy="35.878" cx="24.446" gradientTransform="matrix(.85696 3.2529e-7 -1.253e-7 .33010 -12.949 .77181)" r="20.531">
   <stop stop-color="#fff" offset="0"/>
   <stop stop-color="#dcdcdc" offset="1"/>
  </radialGradient>
  <linearGradient id="c" y2="118.5" gradientUnits="userSpaceOnUse" x2="311.65" gradientTransform="matrix(.55569 0 0 .55568 -169.27 -70.906)" y1="145.52" x1="321.57">
   <stop stop-color="#9b9b9b" offset="0"/>
   <stop stop-color="#d3d7cf" offset="1"/>
  </linearGradient>
  <linearGradient id="d" y2="732.05" gradientUnits="userSpaceOnUse" x2="491.22" gradientTransform="matrix(.093294 0 0 .093294 -35.871 -43.769)" y1="506.65" x1="491.22">
   <stop stop-color="#888a85" offset="0"/>
   <stop stop-color="#d3d7cf" offset="1"/>
  </linearGradient>
  <linearGradient id="e" y2="732.05" gradientUnits="userSpaceOnUse" x2="491.22" gradientTransform="matrix(.093294 0 0 .093294 -35.871 -43.769)" y1="506.65" x1="491.22">
   <stop stop-color="#5c3566" offset="0"/>
   <stop stop-color="#ddc9db" offset="1"/>
  </linearGradient>
 </defs>
 <g>
  <rect stroke-linejoin="bevel" height="15.003" stroke="url(#c)" fill="url(#a)" style="enable-background:new" fill-rule="evenodd" rx="1.5143" ry="1.5143" width="15.004" stroke-miterlimit="10" y=".49833" x=".49815"/>
  <rect stroke-linejoin="bevel" style="enable-background:new" rx=".50812" ry=".50810" height="13" width="12.997" stroke="#fff" stroke-miterlimit="10" y="1.5016" x="1.5014" fill="none"/>
  <rect style="enable-background:new" fill-rule="evenodd" rx="1.9062" ry="1.9062" height="14" width="14" y="1.0016" x="1.0017" fill="url(#b)"/>
  <path style="color:#000000;enable-background:new" d="m4.8249 5.5063a0.25002 0.25002 0 0 0 -0.0625 0.0625 0.25002 0.25002 0 0 0 -0.03125 0.0625 0.25002 0.25002 0 0 0 -0.03125 0.125v1.3125a0.25002 0.25002 0 0 0 0 0.0625 0.25002 0.25002 0 0 0 0.0625 0.125 0.25002 0.25002 0 0 0 0.03125 0.03125 0.25002 0.25002 0 0 0 0.0625 0.03125 0.25002 0.25002 0 0 0 0.0625 0 0.25002 0.25002 0 0 0 0.03125 0h5.875a0.25002 0.25002 0 0 0 0.09375 -0.03125 0.25002 0.25002 0 0 0 0.0625 -0.03125 0.25002 0.25002 0 0 0 0.03125 -0.03125 0.25002 0.25002 0 0 0 0.03125 -0.03125 0.25002 0.25002 0 0 0 0.03125 -0.09375 0.25002 0.25002 0 0 0 0 -0.03125v-1.3125a0.25002 0.25002 0 0 0 0 -0.0625 0.25002 0.25002 0 0 0 -0.09375 -0.125 0.25002 0.25002 0 0 0 -0.0625 -0.03125 0.25002 0.25002 0 0 0 -0.09375 -0.03125h-5.875a0.25002 0.25002 0 0 0 -0.0625 0 0.25002 0.25002 0 0 0 -0.03125 0 0.25002 0.25002 0 0 0 -0.03125 0zm0 2.6875a0.25002 0.25002 0 0 0 -0.0625 0.0625 0.25002 0.25002 0 0 0 -0.03125 0.0625 0.25002 0.25002 0 0 0 -0.03125 0.125v1.3125a0.25002 0.25002 0 0 0 0 0.0625 0.25002 0.25002 0 0 0 0.0625 0.125 0.25002 0.25002 0 0 0 0.03125 0.03125 0.25002 0.25002 0 0 0 0.0625 0.03125 0.25002 0.25002 0 0 0 0.0625 0 0.25002 0.25002 0 0 0 0.03125 0h5.875a0.25002 0.25002 0 0 0 0.09375 -0.03125 0.25002 0.25002 0 0 0 0.0625 -0.03125 0.25002 0.25002 0 0 0 0.03125 -0.03125 0.25002 0.25002 0 0 0 0.03125 -0.03125 0.25002 0.25002 0 0 0 0.03125 -0.09375 0.25002 0.25002 0 0 0 0 -0.03125v-1.3125a0.25002 0.25002 0 0 0 0 -0.0625 0.25002 0.25002 0 0 0 -0.09375 -0.125 0.25002 0.25002 0 0 0 -0.0625 -0.03125 0.25002 0.25002 0 0 0 -0.09375 -0.03125h-5.875a0.25002 0.25002 0 0 0 -0.0625 0 0.25002 0.25002 0 0 0 -0.03125 0 0.25002 0.25002 0 0 0 -0.03125 0zm0 2.6875a0.25002 0.25002 0 0 0 -0.0625 0.0625 0.25002 0.25002 0 0 0 -0.03125 0.0625 0.25002 0.25002 0 0 0 -0.03125 0.125v1.3125a0.25002 0.25002 0 0 0 0 0.0625 0.25002 0.25002 0 0 0 0.0625 0.125 0.25002 0.25002 0 0 0 0.03125 0.03125 0.25002 0.25002 0 0 0 0.0625 0.03125 0.25002 0.25002 0 0 0 0.0625 0 0.25002 0.25002 0 0 0 0.03125 0h5.875a0.25002 0.25002 0 0 0 0.09375 -0.03125 0.25002 0.25002 0 0 0 0.0625 -0.03125 0.25002 0.25002 0 0 0 0.03125 -0.03125 0.25002 0.25002 0 0 0 0.03125 -0.03125 0.25002 0.25002 0 0 0 0.03125 -0.09375 0.25002 0.25002 0 0 0 0 -0.03125v-1.3125a0.25002 0.25002 0 0 0 0 -0.0625 0.25002 0.25002 0 0 0 -0.09375 -0.125 0.25002 0.25002 0 0 0 -0.0625 -0.03125 0.25002 0.25002 0 0 0 -0.09375 -0.03125h-5.875a0.25002 0.25002 0 0 0 -0.0625 0 0.25002 0.25002 0 0 0 -0.03125 0 0.25002 0.25002 0 0 0 -0.03125 0z" display="block" fill="#fff"/>
  <path style="color:#000000;enable-background:new" d="m4.8767 4.476c-0.024316 0.016912-0.045588 0.038184-0.0625 0.0625-0.013269 0.019236-0.023823 0.040343-0.03125 0.0625-0.021038 0.038004-0.031929 0.081566-0.03125 0.125v1.3125c-0.00261 0.020724-0.00261 0.041776 0 0.0625 0.00847 0.046447 0.030425 0.090355 0.0625 0.125 0.00947 0.011311 0.019939 0.021782 0.03125 0.03125 0.019236 0.013269 0.040343 0.023823 0.0625 0.03125 0.020724 0.00261 0.041776 0.00261 0.0625 0 0.010403 0.0006514 0.020847 0.0006514 0.03125 0h5.875c0.03291-0.00406 0.06499-0.014754 0.09375-0.03125 0.02216-0.00743 0.04326-0.017981 0.0625-0.03125 0.01131-0.00947 0.02178-0.019939 0.03125-0.03125 0.01131-0.00947 0.02178-0.019939 0.03125-0.03125 0.0165-0.028764 0.02719-0.060841 0.03125-0.09375 0.000651-0.010403 0.000651-0.020847 0-0.03125v-1.3125c0.0026-0.020724 0.0026-0.041776 0-0.0625-0.01695-0.050185-0.05032-0.094676-0.09375-0.125-0.01924-0.013269-0.04034-0.023822-0.0625-0.03125-0.02876-0.016495-0.06084-0.027188-0.09375-0.03125h-5.875c-0.020724-0.00261-0.041776-0.00261-0.0625 0-0.010403-0.0006514-0.020847-0.0006514-0.03125 0-0.010403-0.0006514-0.020847-0.0006514-0.03125 0zm0 5.375c-0.024316 0.016912-0.045588 0.038185-0.0625 0.0625-0.013269 0.019236-0.023823 0.040343-0.03125 0.0625-0.021039 0.038004-0.031929 0.081566-0.03125 0.125v1.3125c-0.00261 0.02072-0.00261 0.04178 0 0.0625 0.00847 0.04645 0.030425 0.09035 0.0625 0.125 0.00947 0.01131 0.019939 0.02178 0.03125 0.03125 0.019236 0.01327 0.040343 0.02382 0.0625 0.03125 0.020724 0.0026 0.041776 0.0026 0.0625 0 0.010403 0.000651 0.020847 0.000651 0.03125 0h5.875c0.03291-0.0041 0.06499-0.01475 0.09375-0.03125 0.02216-0.0074 0.04326-0.01798 0.0625-0.03125 0.01131-0.0095 0.02178-0.01994 0.03125-0.03125 0.01131-0.0095 0.02178-0.01994 0.03125-0.03125 0.0165-0.02876 0.02719-0.06084 0.03125-0.09375 0.000651-0.0104 0.000651-0.02085 0-0.03125v-1.3125c0.0026-0.02072 0.0026-0.04178 0-0.0625-0.01695-0.050186-0.05032-0.094677-0.09375-0.125-0.01924-0.013269-0.04034-0.023822-0.0625-0.03125-0.02876-0.016495-0.06084-0.027188-0.09375-0.03125h-5.875c-0.020724-0.00261-0.041776-0.00261-0.0625 0-0.010403-0.0006514-0.020847-0.0006514-0.03125 0-0.010403-0.0006514-0.020847-0.0006514-0.03125 0z" display="block" fill="url(#d)"/>
  <path style="color:#000000;enable-background:new" d="m4.8767 7.1635c-0.024316 0.016912-0.045588 0.038184-0.0625 0.0625-0.013269 0.019236-0.023822 0.040343-0.03125 0.0625-0.021038 0.038004-0.031929 0.081566-0.03125 0.125v1.3125c-0.00261 0.020724-0.00261 0.041776 0 0.0625 0.00847 0.046447 0.030425 0.090355 0.0625 0.125 0.00947 0.011311 0.019939 0.021782 0.03125 0.03125 0.019236 0.013269 0.040343 0.023822 0.0625 0.03125 0.020724 0.00261 0.041776 0.00261 0.0625 0 0.010403 0.0006514 0.020847 0.0006514 0.03125 0h5.875c0.03291-0.00406 0.06499-0.014755 0.09375-0.03125 0.02216-0.00743 0.04326-0.017981 0.0625-0.03125 0.01131-0.00947 0.02178-0.019939 0.03125-0.03125 0.01131-0.00947 0.02178-0.019939 0.03125-0.03125 0.0165-0.028764 0.02719-0.060841 0.03125-0.09375 0.000651-0.010403 0.000651-0.020847 0-0.03125v-1.3125c0.0026-0.020724 0.0026-0.041776 0-0.0625-0.01695-0.050185-0.05032-0.094677-0.09375-0.125-0.01924-0.013269-0.04034-0.023823-0.0625-0.03125-0.02876-0.016496-0.06084-0.027188-0.09375-0.03125h-5.875c-0.020724-0.00261-0.041776-0.00261-0.0625 0-0.010403-0.0006514-0.020847-0.0006514-0.03125 0-0.010403-0.0006514-0.020847-0.0006514-0.03125 0z" display="block" fill="url(#e)"/>
 </g>
</svg>
