<?xml version="1.0" encoding="UTF-8"?>
<!-- Licensed under the Creative Commons Attribution-Share Alike 3.0 United States License (http://creativecommons.org/licenses/by-sa/3.0/) -->
<svg xmlns="http://www.w3.org/2000/svg" version="1.1" viewBox="0 0 9 8">
 <path d="m9 5.443c-0.0264-0.1111-0.0865-0.214-0.1701-0.2917l-2.9167-2.9166-0.4132-0.3889-0.4132 0.3889-2.9167 2.9166c-0.1072 0.1088-0.1696 0.2605-0.1701 0.4132v0.024306 0.048611 0.51042h0.4375 0.072917c0.18408 0.0279 0.37989-0.03737 0.51042-0.17014l2.4792-2.4791 2.5035 2.4791c0.10818 0.10802 0.26032 0.17066 0.41319 0.17014h0.12153 0.46181v-0.46181-0.072917-0.048611-0.072917z" class="filled"/>
 <path d="m-6.8475-4.3051a3.2542 3.2542 0 1 1 -6.5085 0 3.2542 3.2542 0 1 1 6.5085 0z" transform="matrix(.15365 0 0 .15365 2.5521 1.6615)" class="filled"/>
 <path d="m-6.8475-4.3051a3.2542 3.2542 0 1 1 -6.5085 0 3.2542 3.2542 0 1 1 6.5085 0z" transform="matrix(.15365 0 0 .15365 2.5521 7.6615)" class="filled"/>
 <path d="m-6.8475-4.3051a3.2542 3.2542 0 1 1 -6.5085 0 3.2542 3.2542 0 1 1 6.5085 0z" transform="matrix(.15365 0 0 .15365 2.5521 5.6615)" class="filled"/>
 <path d="m-6.8475-4.3051a3.2542 3.2542 0 1 1 -6.5085 0 3.2542 3.2542 0 1 1 6.5085 0z" transform="matrix(.15365 0 0 .15365 2.5521 3.6615)" class="filled"/>
</svg>
