<?xml version="1.0" encoding="UTF-8"?>
<!-- Licensed under the Creative Commons Attribution-Share Alike 3.0 United States License (http://creativecommons.org/licenses/by-sa/3.0/) -->
<svg xmlns="http://www.w3.org/2000/svg" xmlns:xlink="http://www.w3.org/1999/xlink" version="1.1" viewBox="0 0 9 8">
    <style>
        svg[id] {
            display: none;
        }

        svg[id]:target {
            display: initial;
        }

        path {
            fill: inherit;
        }

        svg[id $= "-normal"] {
            fill: hsl(0, 0%, 33%);
        }
    </style>

    <defs>
        <symbol id="up-arrow-symbol">
            <path d="m9 5.443c-0.0264-0.1111-0.0865-0.214-0.1701-0.2917l-2.9167-2.9166-0.4132-0.3889-0.4132 0.3889-2.9167 2.9166c-0.1072 0.1088-0.1696 0.2605-0.1701 0.4132v0.024306 0.048611 0.51042h0.4375 0.072917c0.18408 0.0279 0.37989-0.03737 0.51042-0.17014l2.4792-2.4791 2.5035 2.4791c0.10818 0.10802 0.26032 0.17066 0.41319 0.17014h0.12153 0.46181v-0.46181-0.072917-0.048611-0.072917z"/>
            <path d="m-6.8475-4.3051a3.2542 3.2542 0 1 1 -6.5085 0 3.2542 3.2542 0 1 1 6.5085 0z" transform="matrix(.15365 0 0 .15365 2.5521 1.6615)"/>
            <path d="m-6.8475-4.3051a3.2542 3.2542 0 1 1 -6.5085 0 3.2542 3.2542 0 1 1 6.5085 0z" transform="matrix(.15365 0 0 .15365 2.5521 7.6615)"/>
            <path d="m-6.8475-4.3051a3.2542 3.2542 0 1 1 -6.5085 0 3.2542 3.2542 0 1 1 6.5085 0z" transform="matrix(.15365 0 0 .15365 2.5521 5.6615)"/>
            <path d="m-6.8475-4.3051a3.2542 3.2542 0 1 1 -6.5085 0 3.2542 3.2542 0 1 1 6.5085 0z" transform="matrix(.15365 0 0 .15365 2.5521 3.6615)"/>
        </symbol>
        <symbol id="down-arrow-symbol">
            <path d="m9 2.557c-0.0264 0.1111-0.0865 0.214-0.1701 0.2917l-2.9167 2.9166-0.4132 0.3889-0.4132-0.3889-2.9167-2.9166c-0.1072-0.1088-0.1696-0.2605-0.1701-0.4132v-0.024306-0.048611-0.51042h0.4375 0.072917c0.18408-0.0279 0.37989 0.03737 0.51042 0.17014l2.4792 2.4791 2.5035-2.4791c0.1082-0.108 0.2603-0.1707 0.4132-0.1702h0.12153 0.46181v0.46181 0.072917 0.048611 0.072917z"/>
            <path d="m-6.8475-4.3051a3.2542 3.2542 0 1 1 -6.5085 0 3.2542 3.2542 0 1 1 6.5085 0z" transform="matrix(.15365 0 0 .15365 2.5521 1.6615)"/>
            <path d="m-6.8475-4.3051a3.2542 3.2542 0 1 1 -6.5085 0 3.2542 3.2542 0 1 1 6.5085 0z" transform="matrix(.15365 0 0 .15365 2.5521 7.6615)"/>
            <path d="m-6.8475-4.3051a3.2542 3.2542 0 1 1 -6.5085 0 3.2542 3.2542 0 1 1 6.5085 0z" transform="matrix(.15365 0 0 .15365 2.5521 5.6615)"/>
            <path d="m-6.8475-4.3051a3.2542 3.2542 0 1 1 -6.5085 0 3.2542 3.2542 0 1 1 6.5085 0z" transform="matrix(.15365 0 0 .15365 2.5521 3.6615)"/>
        </symbol>
    </defs>

    <svg id="up-arrow-normal"><use xlink:href="#up-arrow-symbol"/></svg>
    <svg id="down-arrow-normal"><use xlink:href="#down-arrow-symbol"/></svg>
</svg>
