<?xml version="1.0" encoding="UTF-8"?>
<!-- Licensed under the Creative Commons Attribution-Share Alike 3.0 United States License (http://creativecommons.org/licenses/by-sa/3.0/) -->
<svg xmlns="http://www.w3.org/2000/svg" id="root" version="1.1" viewBox="0 0 16 16">
 <path d="m8.0001 1.7925-0.71877 0.6875-5.0001 5a1.0165 1.0165 0 0 0 -0.28126 0.84375 1.0165 1.0165 0 0 0 0 0.09375v0.78125h0.84377 0.15625a1.0165 1.0165 0 0 0 0.71877 -0.28125l4.2814-4.2813 4.2809 4.2812a1.0165 1.0165 0 0 0 0.84377 0.28125h0.09375 0.78127v-0.84375a1.0165 1.0165 0 0 0 0 -0.15625 1.0165 1.0165 0 0 0 -0.28126 -0.71875l-5.0001-5-0.71877-0.6875z"/>
 <path d="m8.0001 6.7925-0.71877 0.6875-5.0001 5a1.0165 1.0165 0 0 0 -0.2812 0.844 1.0165 1.0165 0 0 0 0 0.09375v0.78125h0.84377 0.15625a1.0165 1.0165 0 0 0 0.71877 -0.28125l4.2813-4.2817 4.2809 4.2817a1.0165 1.0165 0 0 0 0.84377 0.28125h0.09375 0.78127v-0.84375a1.0165 1.0165 0 0 0 0 -0.15625 1.0165 1.0165 0 0 0 -0.28126 -0.71875l-5.0001-5-0.7188-0.6875z"/>
</svg>
