<?xml version="1.0" encoding="UTF-8" standalone="no"?>
<!-- Licensed under the Creative Commons Attribution-Share Alike 3.0 United States License (http://creativecommons.org/licenses/by-sa/3.0/) -->
<svg xmlns="http://www.w3.org/2000/svg" version="1.1" viewBox="0 0 16 16">
 <g>
  <path style="block-progression:tb;text-indent:0;color:#000000;text-transform:none" d="m8.0001 14.207-0.7187-0.687-5.0001-5a1.0165 1.0165 0 0 1 -0.28126 -0.84375 1.0165 1.0165 0 0 1 0 -0.09375v-0.78125h0.84377 0.15625a1.0165 1.0165 0 0 1 0.71877 0.28125l4.2813 4.2816 4.2809-4.2815a1.0165 1.0165 0 0 1 0.84377 -0.28125h0.09375 0.78127v0.84375a1.0165 1.0165 0 0 1 0 0.15625 1.0165 1.0165 0 0 1 -0.28126 0.71875l-5.0001 5-0.71877 0.6875z"/>
  <path style="block-progression:tb;text-indent:0;color:#000000;text-transform:none" d="m8.0001 9.2075-0.7187-0.6875-5.0001-5a1.0165 1.0165 0 0 1 -0.2813 -0.8438 1.0165 1.0165 0 0 1 0 -0.0937v-0.78125h0.84377 0.15625a1.0165 1.0165 0 0 1 0.71877 0.28125l4.2813 4.2813 4.2809-4.2812a1.0165 1.0165 0 0 1 0.84377 -0.28125h0.09375 0.78127v0.84375a1.0165 1.0165 0 0 1 0 0.15625 1.0165 1.0165 0 0 1 -0.28126 0.71875l-5.0001 5-0.71877 0.6875z"/>
 </g>
</svg>
