<?xml version="1.0" encoding="UTF-8" standalone="no"?>
<!-- Created with Inkscape (http://www.inkscape.org/) -->

<svg
   xmlns:dc="http://purl.org/dc/elements/1.1/"
   xmlns:cc="http://creativecommons.org/ns#"
   xmlns:rdf="http://www.w3.org/1999/02/22-rdf-syntax-ns#"
   xmlns:svg="http://www.w3.org/2000/svg"
   xmlns="http://www.w3.org/2000/svg"
   version="1.1"
   width="16"
   height="16"
   id="svg6044">
  <defs
     id="defs6046" />
  <metadata
     id="metadata6049">
    <rdf:RDF>
      <cc:Work
         rdf:about="">
        <dc:format>image/svg+xml</dc:format>
        <dc:type
           rdf:resource="http://purl.org/dc/dcmitype/StillImage" />
        <cc:license
           rdf:resource="http://creativecommons.org/licenses/by-sa/3.0/" />
        <dc:title></dc:title>
      </cc:Work>
      <cc:License
         rdf:about="http://creativecommons.org/licenses/by-sa/3.0/">
        <cc:permits
           rdf:resource="http://creativecommons.org/ns#Reproduction" />
        <cc:permits
           rdf:resource="http://creativecommons.org/ns#Distribution" />
        <cc:requires
           rdf:resource="http://creativecommons.org/ns#Notice" />
        <cc:requires
           rdf:resource="http://creativecommons.org/ns#Attribution" />
        <cc:permits
           rdf:resource="http://creativecommons.org/ns#DerivativeWorks" />
        <cc:requires
           rdf:resource="http://creativecommons.org/ns#ShareAlike" />
      </cc:License>
    </rdf:RDF>
  </metadata>
  <g
     id="layer1">
    <path
       d="m 8.0001395,1.7925168 -0.7187668,0.6875 -5.0001159,5 a 1.0164896,1.016466 0 0 0 -0.2812566,0.8437496 1.0164896,1.016466 0 0 0 0,0.09375 l 0,0.78125 0.8437696,0 0.1562536,0 a 1.0164896,1.016466 0 0 0 0.7187667,-0.28125 L 8.0001395,4.6362668 12.281489,8.9175164 a 1.0164896,1.016466 0 0 0 0.843769,0.28125 l 0.09375,0 0.781268,0 0,-0.84375 a 1.0164896,1.016466 0 0 0 0,-0.1562496 1.0164896,1.016466 0 0 0 -0.281256,-0.71875 l -5.0001159,-5 -0.7187666,-0.6875 z"
       id="path8420"
       style="font-size:medium;font-style:normal;font-variant:normal;font-weight:normal;font-stretch:normal;text-indent:0;text-align:start;text-decoration:none;line-height:normal;letter-spacing:normal;word-spacing:normal;text-transform:none;direction:ltr;block-progression:tb;writing-mode:lr-tb;text-anchor:start;baseline-shift:baseline;color:#000000;fill-opacity:1;stroke:none;stroke-width:2;marker:none;visibility:visible;display:inline;overflow:visible;enable-background:accumulate;font-family:Sans;-inkscape-font-specification:Sans" />
    <path
       d="m 8.000138,6.7925166 -0.7187666,0.6875 -5.0001149,4.9999994 A 1.0164894,1.016466 0 0 0 2,13.323766 a 1.0164894,1.016466 0 0 0 0,0.09375 l 0,0.78125 0.8437694,0 0.1562536,0 a 1.0164894,1.016466 0 0 0 0.7187665,-0.28125 L 8.000138,9.6362664 12.281487,13.917516 a 1.0164894,1.016466 0 0 0 0.843769,0.28125 l 0.09375,0 0.781268,0 0,-0.84375 a 1.0164894,1.016466 0 0 0 0,-0.15625 1.0164894,1.016466 0 0 0 -0.281256,-0.71875 L 8.7189049,7.4800166 8.000138,6.7925166 z"
       id="path8420-0"
       style="font-size:medium;font-style:normal;font-variant:normal;font-weight:normal;font-stretch:normal;text-indent:0;text-align:start;text-decoration:none;line-height:normal;letter-spacing:normal;word-spacing:normal;text-transform:none;direction:ltr;block-progression:tb;writing-mode:lr-tb;text-anchor:start;baseline-shift:baseline;color:#000000;fill-opacity:1;stroke:none;stroke-width:2;marker:none;visibility:visible;display:inline;overflow:visible;enable-background:accumulate;font-family:Sans;-inkscape-font-specification:Sans" />
  </g>
</svg>
