<?xml version="1.0" encoding="UTF-8"?>
<!-- Licensed under the Creative Commons Attribution-Share Alike 3.0 United States License (http://creativecommons.org/licenses/by-sa/3.0/) -->
<svg xmlns="http://www.w3.org/2000/svg" xmlns:xlink="http://www.w3.org/1999/xlink" version="1.1" viewBox="0 0 16 16">
 <style>
  svg {
    display: none;
  }

  svg:target {
    display: initial;
  }
 </style>

 <svg>
  <symbol id="style-rule">
   <rect width="15.004" height="15.003" x=".49815" y=".49833" fill="url(#a)" fill-rule="evenodd" stroke="url(#c)" stroke-miterlimit="10" rx="1.5143" ry="1.5143" stroke-linejoin="bevel"/>
   <rect width="12.997" height="13" x="1.5014" y="1.5016" fill="none" stroke="#fff" stroke-miterlimit="10" ry=".50810" stroke-linejoin="bevel" rx=".50812"/>
   <rect width="14" height="14" x="1.0017" y="1.0016" fill="url(#b)" fill-rule="evenodd" rx="1.9062" ry="1.9062"/>
   <path fill="#fff" d="m6.4497 4.8501c-0.25562 0.01929-0.68218 0.12665-1.0625 0.4375s-0.7029 0.82923-0.78125 1.6562c-0.01595 0.21541-0.04213 0.44238-0.0625 0.625-0.001 0.009 0.0011 0.02233 0 0.03125-0.08624   0.5742-0.34913 0.76554-0.625 0.8125l-0.125 0.03125a0.25002 0.25002 0 0 0 -0.09375 0.03125 0.25002 0.25002 0 0 0 -0.09375 0.09375 0.25002 0.25002 0 0 0 -0.03125 0.125v0.8125a0.25002 0.25002 0 0 0 0.03125 0.09375   0.25002 0.25002 0 0 0 0.03125 0.0625 0.25002 0.25002 0 0 0 0.03125 0.03125 0.25002 0.25002 0 0 0 0.03125 0.03125 0.25002 0.25002 0 0 0 0.09375 0.03125l0.125 0.03125h0.03125c0.08878 0.02005 0.17292 0.03869 0.25   0.09375 0.1907 0.13841 0.2651 0.34781 0.3125 0.59375s0.06321 0.51581 0.09375 0.8125c0.08313 0.81821 0.426 1.3579 0.8125 1.6562 0.37615 0.2904 0.76763 0.35692 1 0.375 0.0064 0.000497 0.02511-0.0004 0.03125 0l0.125   0.03125a0.25002 0.25002 0 0 0 0.0625 0 0.25002 0.25002 0 0 0 0.0625 -0.03125 0.25002 0.25002 0 0 0 0.0625 -0.03125 0.25002 0.25002 0 0 0 0.03125 -0.03125 0.25002 0.25002 0 0 0 0.03125 -0.0625 0.25002 0.25002 0 0 0 0 -0.03125l0.21875-0.84375a0.25002 0.25002 0 0 0 0 -0.03125 0.25002 0.25002 0 0 0 0 -0.0625 0.25002 0.25002 0 0 0 -0.03125 -0.0625 0.25002 0.25002 0 0 0 -0.03125 -0.0625 0.25002 0.25002 0 0 0 -0.03125 -0.03125 0.25002 0.25002 0 0 0 -0.03125 -0.03125 0.25002 0.25002 0 0 0 -0.09375 -0.03125h-0.1875c-0.18184-0.02204-0.34449-0.17298-0.4375-0.3125-0.1576-0.24224-0.16703-0.69416-0.21875-1.2188-0.04542-0.46068-0.24764-0.95497-0.625-1.375 0.37302-0.41951 0.54842-0.91617 0.59375-1.375 0.05042-0.51041 0.09838-0.96692 0.25-1.2188 0.09479-0.14218 0.2606-0.29106 0.4375-0.3125l0.1875-0.03125a0.25002 0.25002 0 0 0 0.0625 0 0.25002 0.25002 0 0 0 0.09375 -0.0625 0.25002 0.25002 0 0 0 0.03125 -0.0625 0.25002 0.25002 0 0 0 0.03125 -0.09375 0.25002 0.25002 0 0 0 0 -0.0625 0.25002 0.25002 0 0 0 0 -0.03125l-0.2187-0.8121a0.25002 0.25002 0 0 0 0 -0.03125 0.25002 0.25002 0 0 0 -0.03125 -0.0625 0.25002 0.25002 0 0 0 -0.0625 -0.0625 0.25002 0.25002 0 0 0 -0.0625 -0.03125 0.25002 0.25002 0 0 0 -0.0625 0 0.25002 0.25002 0 0 0 -0.03125 0h-0.125zm2.625 0a0.25002 0.25002 0 0 0 -0.0625 0.0625 0.25002 0.25002 0 0 0 -0.03125 0.03125 0.25002 0.25002 0 0 0 -0.03125 0.0625 0.25002 0.25002 0 0 0 -0.03125 0.03125l-0.1875 0.8125a0.25002 0.25002 0 0 0 0 0.0625 0.25002 0.25002 0 0 0 0.03125 0.09375 0.25002 0.25002 0 0 0 0.03125 0.0625 0.25002 0.25002 0 0 0 0.03125 0.03125 0.25002 0.25002 0 0 0 0.03125 0.03125 0.25002 0.25002 0 0 0 0.09375 0.03125l0.1875 0.03125c0.1763 0.02137 0.34004 0.16632 0.4375 0.3125 0.15152 0.25187 0.16834 0.70846 0.21875 1.2188 0.045371 0.45927 0.25111 0.95529 0.625 1.375-0.37736 0.42003-0.57958 0.91432-0.625 1.375-0.05172 0.52459-0.061149 0.97651-0.21875 1.2188-0.095677 0.14352-0.25626 0.29053-0.4375 0.3125h-0.1875a0.25002 0.25002 0 0 0 -0.03125 0.03125 0.25002 0.25002 0 0 0 -0.09375 0.0625 0.25002 0.25002 0 0 0 -0.03125 0.03125 0.25002 0.25002 0 0 0 -0.03125 0.0625 0.25002 0.25002 0 0 0 -0.03125 0.125l0.1875 0.84375a0.25002 0.25002 0 0 0 0.0625 0.09375 0.25002 0.25002 0 0 0 0.03125 0.03125 0.25002 0.25002 0 0 0 0.03125 0.03125 0.25002 0.25002 0 0 0 0.09375 0.03125 0.25002 0.25002 0 0 0 0.0625 0l0.125-0.03125c0.00614-0.0004 0.02486 0.000497 0.03125 0 0.23237-0.01808 0.62385-0.0846 1-0.375 0.3865-0.29839 0.72937-0.83804 0.8125-1.6562 0.03054-0.29669 0.04635-0.56656 0.09375-0.8125s0.12182-0.45534 0.3125-0.59375c0.07296-0.05211 0.15827-0.07303 0.25-0.09375h0.03125l0.125-0.03125a0.25002 0.25002 0 0 0 0.09375 -0.03125 0.25002 0.25002 0 0 0 0.09375 -0.09375 0.25002 0.25002 0 0 0 0.03125 -0.09375 0.25002 0.25002 0 0 0 0 -0.03125v-0.8125a0.25002 0.25002 0 0 0 -0.03125 -0.09375 0.25002 0.25002 0 0 0 -0.0625 -0.09375 0.25002 0.25002 0 0 0 -0.0625 -0.03125 0.25002 0.25002 0 0 0 -0.0625 -0.03125l-0.125-0.03125c-0.27587-0.04696-0.53876-0.2383-0.625-0.8125-0.0011-0.0092 0.0011-0.02193 0-0.03125-0.02172-0.18821-0.04698-0.41542-0.0625-0.625-0.078-0.8229-0.402-1.3445-0.781-1.6564s-0.8014-0.4182-1.0623-0.4375h-0.125a0.25002 0.25002 0 0 0 -0.0625 0 0.25002 0.25002 0 0 0 -0.03125 0 0.25002 0.25002 0 0 0 -0.03125 0z" display="block"/>
   <path fill="url(#d)" d="m6.5015 3.8198c-0.25562 0.01929-0.68218 0.12665-1.0625 0.4375s-0.7029 0.82923-0.78125 1.6562c-0.01595 0.21541-0.04213 0.44238-0.0625 0.625-0.001 0.009 0.0011 0.02233 0 0.03125-0.08624 0.5742-0.34913 0.76554-0.625 0.8125l-0.125 0.03125a0.25002 0.25002 0 0 0 -0.09375 0.03125 0.25002 0.25002 0 0 0 -0.09375 0.09375 0.25002 0.25002 0 0 0 -0.03125 0.125v0.8125a0.25002 0.25002 0 0 0 0.03125 0.09375 0.25002 0.25002 0 0 0 0.03125 0.0625 0.25002 0.25002 0 0 0 0.03125 0.03125 0.25002 0.25002 0 0 0 0.03125 0.03125 0.25002 0.25002 0 0 0 0.09375 0.03125l0.125 0.03125h0.03125c0.08878 0.02005 0.17292 0.03869 0.25 0.09375 0.1907 0.13841 0.2651 0.34781 0.3125 0.59375s0.06321 0.51581 0.09375 0.8125c0.08313 0.81821 0.426 1.3579 0.8125 1.6562 0.37615 0.2904 0.76763 0.35692 1 0.375 0.0064 0.000497 0.02511-0.0004 0.03125 0l0.125 0.03125a0.25002 0.25002 0 0 0 0.0625 0 0.25002 0.25002 0 0 0 0.0625 -0.03125 0.25002 0.25002 0 0 0 0.0625 -0.03125 0.25002 0.25002 0 0 0 0.03125 -0.03125 0.25002 0.25002 0 0 0 0.03125 -0.0625 0.25002 0.25002 0 0 0 0 -0.03125l0.21875-0.84375a0.25002 0.25002 0 0 0 0 -0.03125 0.25002 0.25002 0 0 0 0 -0.0625 0.25002 0.25002 0 0 0 -0.03125 -0.0625 0.25002 0.25002 0 0 0 -0.03125 -0.0625 0.25002 0.25002 0 0 0 -0.03125 -0.03125 0.25002 0.25002 0 0 0 -0.03125 -0.03125 0.25002 0.25002 0 0 0 -0.09375 -0.03125h-0.1875c-0.18184-0.02204-0.34449-0.17298-0.4375-0.3125-0.1576-0.24224-0.16703-0.69416-0.21875-1.2187-0.04542-0.46068-0.24764-0.95497-0.625-1.375 0.37302-0.41951 0.54842-0.91617 0.59375-1.375 0.05042-0.51041 0.09838-0.96692 0.25-1.2188 0.09479-0.14218 0.2606-0.29106 0.4375-0.3125l0.1875-0.03125a0.25002 0.25002 0 0 0 0.0625 0 0.25002 0.25002 0 0 0 0.09375 -0.0625 0.25002 0.25002 0 0 0 0.03125 -0.0625 0.25002 0.25002 0 0 0 0.03125 -0.09375 0.25002 0.25002 0 0 0 0 -0.0625 0.25002 0.25002 0 0 0 0 -0.03125l-0.2187-0.8124a0.25002 0.25002 0 0 0 0 -0.03125 0.25002 0.25002 0 0 0 -0.03125 -0.0625 0.25002 0.25002 0 0 0 -0.0625 -0.0625 0.25002 0.25002 0 0 0 -0.0625 -0.03125 0.25002 0.25002 0 0 0 -0.0625 0 0.25002 0.25002 0 0 0 -0.03125 0h-0.125zm2.625 0a0.25002 0.25002 0 0 0 -0.0625 0.0625 0.25002 0.25002 0 0 0 -0.03125 0.03125 0.25002 0.25002 0 0 0 -0.03125 0.0625 0.25002 0.25002 0 0 0 -0.03125 0.03125l-0.1875 0.8125a0.25002 0.25002 0 0 0 0 0.0625 0.25002 0.25002 0 0 0 0.03125 0.09375 0.25002 0.25002 0 0 0 0.03125 0.0625 0.25002 0.25002 0 0 0 0.03125 0.03125 0.25002 0.25002 0 0 0 0.03125 0.03125 0.25002 0.25002 0 0 0 0.09375 0.03125l0.1875 0.03125c0.1763 0.02137 0.34004 0.16632 0.4375 0.3125 0.15152 0.25187 0.16834 0.70846 0.21875 1.2188 0.045371 0.45927 0.25111 0.95529 0.625 1.375-0.37736 0.42003-0.57958 0.91432-0.625 1.375-0.05172 0.52459-0.061149 0.97651-0.21875 1.2187-0.095677 0.14352-0.25626 0.29053-0.4375 0.3125h-0.1875a0.25002 0.25002 0 0 0 -0.03125 0.03125 0.25002 0.25002 0 0 0 -0.09375 0.0625 0.25002 0.25002 0 0 0 -0.03125 0.03125 0.25002 0.25002 0 0 0 -0.03125 0.0625 0.25002 0.25002 0 0 0 -0.03125 0.125l0.1875 0.84375a0.25002 0.25002 0 0 0 0.0625 0.09375 0.25002 0.25002 0 0 0 0.03125 0.03125 0.25002 0.25002 0 0 0 0.03125 0.03125 0.25002 0.25002 0 0 0 0.09375 0.03125 0.25002 0.25002 0 0 0 0.0625 0l0.125-0.03125c0.00614-0.0004 0.02486 0.000497 0.03125 0 0.23237-0.01808 0.62385-0.0846 1-0.375 0.3865-0.29839 0.72937-0.83804 0.8125-1.6562 0.03054-0.29669 0.04635-0.56656 0.09375-0.8125s0.12182-0.45534 0.3125-0.59375c0.07296-0.05211 0.15827-0.07303 0.25-0.09375h0.03125l0.125-0.03125a0.25002 0.25002 0 0 0 0.09375 -0.03125 0.25002 0.25002 0 0 0 0.09375 -0.09375 0.25002 0.25002 0 0 0 0.03125 -0.09375 0.25002 0.25002 0 0 0 0 -0.03125v-0.8125a0.25002 0.25002 0 0 0 -0.03125 -0.09375 0.25002 0.25002 0 0 0 -0.0625 -0.09375 0.25002 0.25002 0 0 0 -0.0625 -0.03125 0.25002 0.25002 0 0 0 -0.0625 -0.03125l-0.125-0.03125c-0.27587-0.04696-0.53876-0.2383-0.625-0.8125-0.0011-0.0092 0.0011-0.02193 0-0.03125-0.02172-0.18821-0.04698-0.41542-0.0625-0.625-0.078-0.8232-0.402-1.3448-0.781-1.6567-0.379-0.312-0.8016-0.4182-1.0625-0.4375h-0.125a0.25002 0.25002 0 0 0 -0.0625 0 0.25002 0.25002 0 0 0 -0.03125 0 0.25002 0.25002 0 0 0 -0.03125 0z" display="block"/>
  </symbol>
 </svg>

 <svg id="author">
  <radialGradient id="a" cx="24.446" cy="35.878" r="20.531" gradientUnits="userSpaceOnUse" gradientTransform="matrix(.85696 3.2529e-7 -1.253e-7 .33010 -12.949 .77181)">
   <stop stop-color="#fff" offset="0"/>
   <stop stop-color="#cbdbed" offset="1"/>
  </radialGradient>
  <radialGradient id="b" cx="301" cy="51.5" r="19.5" gradientUnits="userSpaceOnUse" gradientTransform="matrix(.97063 1.9684e-8 0 .28611 -291.16 -14.63)">
   <stop stop-color="#fff" offset="0"/>
   <stop stop-color="#fff" stop-opacity="0" offset="1"/>
  </radialGradient>
  <linearGradient id="c" x1="321.57" x2="311.65" y1="145.52" y2="118.5" gradientUnits="userSpaceOnUse" gradientTransform="matrix(.55569 0 0 .55568 -169.27 -70.906)">
   <stop stop-color="#204a87" offset="0"/>
   <stop stop-color="#bdd2e9" offset="1"/>
  </linearGradient>
  <linearGradient id="d" x1="491.22" x2="491.22" y1="506.65" y2="732.05" gradientUnits="userSpaceOnUse" gradientTransform="matrix(.093294 0 0 .093294 -35.871 -43.769)">
   <stop stop-color="#204a87" offset="0"/>
   <stop stop-color="#bdd2e9" offset="1"/>
  </linearGradient>
  <use xlink:href="#style-rule"/>
 </svg>

 <svg id="user">
  <radialGradient id="a" cx="24.446" cy="35.878" r="20.531" gradientUnits="userSpaceOnUse" gradientTransform="matrix(.85696 3.2529e-7 -1.253e-7 .33010 -12.949 .77181)">
   <stop stop-color="#fff" offset="0"/>
   <stop stop-color="#fef6ba" offset="1"/>
  </radialGradient>
  <radialGradient id="b" cx="301" cy="51.5" r="19.5" gradientUnits="userSpaceOnUse" gradientTransform="matrix(.97063 1.9684e-8 0 .28611 -291.16 -14.63)">
   <stop stop-color="#fff" offset="0"/>
   <stop stop-color="#fff" stop-opacity="0" offset="1"/>
  </radialGradient>
  <linearGradient id="c" x1="321.57" x2="311.65" y1="145.52" y2="118.5" gradientUnits="userSpaceOnUse" gradientTransform="matrix(.55569 0 0 .55568 -169.27 -70.906)">
   <stop stop-color="#c4a000" offset="0"/>
   <stop stop-color="#fef4a8" offset="1"/>
  </linearGradient>
  <linearGradient id="d" x1="491.22" x2="491.22" y1="506.65" y2="732.05" gradientUnits="userSpaceOnUse" gradientTransform="matrix(.093294 0 0 .093294 -35.871 -43.769)">
   <stop stop-color="#c4a000" offset="0"/>
   <stop stop-color="#fef4a8" offset="1"/>
  </linearGradient>
  <use xlink:href="#style-rule"/>
 </svg>

 <svg id="useragent">
  <radialGradient id="a" cx="24.446" cy="35.878" r="20.531" gradientUnits="userSpaceOnUse" gradientTransform="matrix(.85696 3.2529e-7 -1.253e-7 .33010 -12.949 .77181)">
   <stop stop-color="#fff" offset="0"/>
   <stop stop-color="#fabebe" offset="1"/>
  </radialGradient>
  <radialGradient id="b" cx="301" cy="51.5" r="19.5" gradientUnits="userSpaceOnUse" gradientTransform="matrix(.97063 1.9684e-8 0 .28611 -291.16 -14.63)">
   <stop stop-color="#fff" offset="0"/>
   <stop stop-color="#fff" stop-opacity="0" offset="1"/>
  </radialGradient>
  <linearGradient id="c" x1="321.57" x2="311.65" y1="145.52" y2="118.5" gradientUnits="userSpaceOnUse" gradientTransform="matrix(.55569 0 0 .55568 -169.27 -70.906)">
   <stop stop-color="#a40000" offset="0"/>
   <stop stop-color="#f9adad" offset="1"/>
  </linearGradient>
  <linearGradient id="d" x1="491.22" x2="491.22" y1="506.65" y2="732.05" gradientUnits="userSpaceOnUse" gradientTransform="matrix(.093294 0 0 .093294 -35.871 -43.769)">
   <stop stop-color="#a40000" offset="0"/>
   <stop stop-color="#f9adad" offset="1"/>
  </linearGradient>
  <use xlink:href="#style-rule"/>
 </svg>

 <svg id="inspector">
  <radialGradient id="a" cx="24.446" cy="35.878" r="20.531" gradientUnits="userSpaceOnUse" gradientTransform="matrix(.85696 3.2529e-7 -1.253e-7 .33010 -12.949 .77181)">
   <stop stop-color="#fff" offset="0"/>
   <stop stop-color="#dcf6c2" offset="1"/>
  </radialGradient>
  <radialGradient id="b" cx="301" cy="51.5" r="19.5" gradientUnits="userSpaceOnUse" gradientTransform="matrix(.97063 1.9684e-8 0 .28611 -291.16 -14.63)">
   <stop stop-color="#fff" offset="0"/>
   <stop stop-color="#fff" stop-opacity="0" offset="1"/>
  </radialGradient>
  <linearGradient id="c" x1="321.57" x2="311.65" y1="145.52" y2="118.5" gradientUnits="userSpaceOnUse" gradientTransform="matrix(.55569 0 0 .55568 -169.27 -70.906)">
   <stop stop-color="#4e9a06" offset="0"/>
   <stop stop-color="#d3f4b2" offset="1"/>
  </linearGradient>
  <linearGradient id="d" x1="491.22" x2="491.22" y1="506.65" y2="732.05" gradientUnits="userSpaceOnUse" gradientTransform="matrix(.093294 0 0 .093294 -35.871 -43.769)">
   <stop stop-color="#4e9a06" offset="0"/>
   <stop stop-color="#8ae234" offset="1"/>
  </linearGradient>
  <use xlink:href="#style-rule"/>
 </svg>

 <svg id="inherited">
  <radialGradient id="a" cx="24.446" cy="35.878" r="20.531" gradientUnits="userSpaceOnUse" gradientTransform="matrix(.85696 3.2529e-7 -1.253e-7 .33010 -12.949 .77181)">
   <stop stop-color="#fff" offset="0"/>
   <stop stop-color="#dcdcdc" offset="1"/>
  </radialGradient>
  <radialGradient id="b" cx="301" cy="51.5" r="19.5" gradientUnits="userSpaceOnUse" gradientTransform="matrix(.97063 1.9684e-8 0 .28611 -291.16 -14.63)">
   <stop stop-color="#fff" offset="0"/>
   <stop stop-color="#fff" stop-opacity="0" offset="1"/>
  </radialGradient>
  <linearGradient id="c" x1="321.57" x2="311.65" y1="145.52" y2="118.5" gradientUnits="userSpaceOnUse" gradientTransform="matrix(.55569 0 0 .55568 -169.27 -70.906)">
   <stop stop-color="#9b9b9b" offset="0"/>
   <stop stop-color="#d3d7cf" offset="1"/>
  </linearGradient>
  <linearGradient id="d" x1="491.22" x2="491.22" y1="506.65" y2="732.05" gradientUnits="userSpaceOnUse" gradientTransform="matrix(.093294 0 0 .093294 -35.871 -43.769)">
   <stop stop-color="#888a85" offset="0"/>
   <stop stop-color="#d3d7cf" offset="1"/>
  </linearGradient>
  <use xlink:href="#style-rule"/>
 </svg>
</svg>
