<?xml version="1.0" encoding="UTF-8" standalone="no"?>
<!-- Licensed under the Creative Commons Attribution-Share Alike 3.0 United States License (http://creativecommons.org/licenses/by-sa/3.0/) -->
<svg xmlns="http://www.w3.org/2000/svg" version="1.1" viewBox="0 0 16 16">
 <defs>
  <radialGradient id="b" gradientUnits="userSpaceOnUse" cy="51.5" cx="301" gradientTransform="matrix(.97063 1.9684e-8 0 .28611 -291.16 -14.63)" r="19.5">
   <stop stop-color="#fff" offset="0"/>
   <stop stop-color="#fff" stop-opacity="0" offset="1"/>
  </radialGradient>
  <radialGradient id="a" gradientUnits="userSpaceOnUse" cy="35.878" cx="24.446" gradientTransform="matrix(.85696 3.2529e-7 -1.253e-7 .33010 -12.949 .77181)" r="20.531">
   <stop stop-color="#fff" offset="0"/>
   <stop stop-color="#dcdcdc" offset="1"/>
  </radialGradient>
  <linearGradient id="c" y2="118.5" gradientUnits="userSpaceOnUse" x2="311.65" gradientTransform="matrix(.55569 0 0 .55568 -169.27 -70.906)" y1="145.52" x1="321.57">
   <stop stop-color="#9b9b9b" offset="0"/>
   <stop stop-color="#d3d7cf" offset="1"/>
  </linearGradient>
  <linearGradient id="d" y2="732.05" gradientUnits="userSpaceOnUse" x2="491.22" gradientTransform="matrix(.093294 0 0 .093294 -35.871 -43.769)" y1="506.65" x1="491.22">
   <stop stop-color="#888a85" offset="0"/>
   <stop stop-color="#d3d7cf" offset="1"/>
  </linearGradient>
 </defs>
 <rect stroke-linejoin="bevel" height="15.003" stroke="url(#c)" fill="url(#a)" style="enable-background:new" fill-rule="evenodd" rx="1.5143" ry="1.5143" width="15.004" stroke-miterlimit="10" y=".49833" x=".49815"/>
 <rect stroke-linejoin="bevel" style="enable-background:new" rx=".50812" ry=".50810" height="13" width="12.997" stroke="#fff" stroke-miterlimit="10" y="1.5016" x="1.5014" fill="none"/>
 <rect style="enable-background:new" fill-rule="evenodd" rx="1.9062" ry="1.9062" height="14" width="14" y="1.0016" x="1.0017" fill="url(#b)"/>
 <path style="block-progression:tb;text-indent:0;color:#000000;enable-background:new;text-transform:none" d="m6.4497 4.8501c-0.25562 0.01929-0.68218 0.12665-1.0625 0.4375s-0.7029 0.82923-0.78125 1.6562c-0.01595 0.21541-0.04213 0.44238-0.0625 0.625-0.001 0.009 0.0011 0.02233 0 0.03125-0.08624 0.5742-0.34913 0.76554-0.625 0.8125l-0.125 0.03125a0.25002 0.25002 0 0 0 -0.09375 0.03125 0.25002 0.25002 0 0 0 -0.09375 0.09375 0.25002 0.25002 0 0 0 -0.03125 0.125v0.8125a0.25002 0.25002 0 0 0 0.03125 0.09375 0.25002 0.25002 0 0 0 0.03125 0.0625 0.25002 0.25002 0 0 0 0.03125 0.03125 0.25002 0.25002 0 0 0 0.03125 0.03125 0.25002 0.25002 0 0 0 0.09375 0.03125l0.125 0.03125h0.03125c0.08878 0.02005 0.17292 0.03869 0.25 0.09375 0.1907 0.13841 0.2651 0.34781 0.3125 0.59375s0.06321 0.51581 0.09375 0.8125c0.08313 0.81821 0.426 1.3579 0.8125 1.6562 0.37615 0.2904 0.76763 0.35692 1 0.375 0.0064 0.000497 0.02511-0.0004 0.03125 0l0.125 0.03125a0.25002 0.25002 0 0 0 0.0625 0 0.25002 0.25002 0 0 0 0.0625 -0.03125 0.25002 0.25002 0 0 0 0.0625 -0.03125 0.25002 0.25002 0 0 0 0.03125 -0.03125 0.25002 0.25002 0 0 0 0.03125 -0.0625 0.25002 0.25002 0 0 0 0 -0.03125l0.21875-0.84375a0.25002 0.25002 0 0 0 0 -0.03125 0.25002 0.25002 0 0 0 0 -0.0625 0.25002 0.25002 0 0 0 -0.03125 -0.0625 0.25002 0.25002 0 0 0 -0.03125 -0.0625 0.25002 0.25002 0 0 0 -0.03125 -0.03125 0.25002 0.25002 0 0 0 -0.03125 -0.03125 0.25002 0.25002 0 0 0 -0.09375 -0.03125h-0.1875c-0.18184-0.02204-0.34449-0.17298-0.4375-0.3125-0.1576-0.24224-0.16703-0.69416-0.21875-1.2187-0.04542-0.46068-0.24764-0.95497-0.625-1.375 0.37302-0.41951 0.54842-0.91617 0.59375-1.375 0.05042-0.51041 0.09838-0.96692 0.25-1.2188 0.09479-0.14218 0.2606-0.29106 0.4375-0.3125l0.1875-0.03125a0.25002 0.25002 0 0 0 0.0625 0 0.25002 0.25002 0 0 0 0.09375 -0.0625 0.25002 0.25002 0 0 0 0.03125 -0.0625 0.25002 0.25002 0 0 0 0.03125 -0.09375 0.25002 0.25002 0 0 0 0 -0.0625 0.25002 0.25002 0 0 0 0 -0.03125l-0.21875-0.8125a0.25002 0.25002 0 0 0 0 -0.03125 0.25002 0.25002 0 0 0 -0.03125 -0.0625 0.25002 0.25002 0 0 0 -0.0625 -0.0625 0.25002 0.25002 0 0 0 -0.0625 -0.03125 0.25002 0.25002 0 0 0 -0.0625 0 0.25002 0.25002 0 0 0 -0.03125 0h-0.125zm2.625 0a0.25002 0.25002 0 0 0 -0.0625 0.0625 0.25002 0.25002 0 0 0 -0.03125 0.03125 0.25002 0.25002 0 0 0 -0.03125 0.0625 0.25002 0.25002 0 0 0 -0.03125 0.03125l-0.1875 0.8125a0.25002 0.25002 0 0 0 0 0.0625 0.25002 0.25002 0 0 0 0.03125 0.09375 0.25002 0.25002 0 0 0 0.03125 0.0625 0.25002 0.25002 0 0 0 0.03125 0.03125 0.25002 0.25002 0 0 0 0.03125 0.03125 0.25002 0.25002 0 0 0 0.09375 0.03125l0.1875 0.03125c0.1763 0.02137 0.34004 0.16632 0.4375 0.3125 0.15152 0.25187 0.16834 0.70846 0.21875 1.2188 0.045371 0.45927 0.25111 0.95529 0.625 1.375-0.37736 0.42003-0.57958 0.91432-0.625 1.375-0.05172 0.52459-0.061149 0.97651-0.21875 1.2187-0.095677 0.14352-0.25626 0.29053-0.4375 0.3125h-0.1875a0.25002 0.25002 0 0 0 -0.03125 0.03125 0.25002 0.25002 0 0 0 -0.09375 0.0625 0.25002 0.25002 0 0 0 -0.03125 0.03125 0.25002 0.25002 0 0 0 -0.03125 0.0625 0.25002 0.25002 0 0 0 -0.03125 0.125l0.1875 0.84375a0.25002 0.25002 0 0 0 0.0625 0.09375 0.25002 0.25002 0 0 0 0.03125 0.03125 0.25002 0.25002 0 0 0 0.03125 0.03125 0.25002 0.25002 0 0 0 0.09375 0.03125 0.25002 0.25002 0 0 0 0.0625 0l0.125-0.03125c0.00614-0.0004 0.02486 0.000497 0.03125 0 0.23237-0.01808 0.62385-0.0846 1-0.375 0.3865-0.29839 0.72937-0.83804 0.8125-1.6562 0.03054-0.29669 0.04635-0.56656 0.09375-0.8125s0.12182-0.45534 0.3125-0.59375c0.07296-0.05211 0.15827-0.07303 0.25-0.09375h0.03125l0.125-0.03125a0.25002 0.25002 0 0 0 0.09375 -0.03125 0.25002 0.25002 0 0 0 0.09375 -0.09375 0.25002 0.25002 0 0 0 0.03125 -0.09375 0.25002 0.25002 0 0 0 0 -0.03125v-0.8125a0.25002 0.25002 0 0 0 -0.03125 -0.09375 0.25002 0.25002 0 0 0 -0.0625 -0.09375 0.25002 0.25002 0 0 0 -0.0625 -0.03125 0.25002 0.25002 0 0 0 -0.0625 -0.03125l-0.125-0.03125c-0.27587-0.04696-0.53876-0.2383-0.625-0.8125-0.0011-0.0092 0.0011-0.02193 0-0.03125-0.02172-0.18821-0.04698-0.41542-0.0625-0.625-0.07836-0.82274-0.40221-1.3443-0.78125-1.6562-0.37904-0.31194-0.80161-0.41818-1.0625-0.4375h-0.125a0.25002 0.25002 0 0 0 -0.0625 0 0.25002 0.25002 0 0 0 -0.03125 0 0.25002 0.25002 0 0 0 -0.03125 0z" display="block" fill="#fff"/>
 <path style="block-progression:tb;text-indent:0;color:#000000;enable-background:new;text-transform:none" d="m6.5015 3.8198c-0.25562 0.01929-0.68218 0.12665-1.0625 0.4375s-0.7029 0.82923-0.78125 1.6562c-0.01595 0.21541-0.04213 0.44238-0.0625 0.625-0.001 0.009 0.0011 0.02233 0 0.03125-0.08624 0.5742-0.34913 0.76554-0.625 0.8125l-0.125 0.03125a0.25002 0.25002 0 0 0 -0.09375 0.03125 0.25002 0.25002 0 0 0 -0.09375 0.09375 0.25002 0.25002 0 0 0 -0.03125 0.125v0.8125a0.25002 0.25002 0 0 0 0.03125 0.09375 0.25002 0.25002 0 0 0 0.03125 0.0625 0.25002 0.25002 0 0 0 0.03125 0.03125 0.25002 0.25002 0 0 0 0.03125 0.03125 0.25002 0.25002 0 0 0 0.09375 0.03125l0.125 0.03125h0.03125c0.08878 0.02005 0.17292 0.03869 0.25 0.09375 0.1907 0.13841 0.2651 0.34781 0.3125 0.59375s0.06321 0.51581 0.09375 0.8125c0.08313 0.81821 0.426 1.3579 0.8125 1.6562 0.37615 0.2904 0.76763 0.35692 1 0.375 0.0064 0.000497 0.02511-0.000399 0.03125 0l0.125 0.03125a0.25002 0.25002 0 0 0 0.0625 0 0.25002 0.25002 0 0 0 0.0625 -0.03125 0.25002 0.25002 0 0 0 0.0625 -0.03125 0.25002 0.25002 0 0 0 0.03125 -0.03125 0.25002 0.25002 0 0 0 0.03125 -0.0625 0.25002 0.25002 0 0 0 0 -0.03125l0.21875-0.84375a0.25002 0.25002 0 0 0 0 -0.03125 0.25002 0.25002 0 0 0 0 -0.0625 0.25002 0.25002 0 0 0 -0.03125 -0.0625 0.25002 0.25002 0 0 0 -0.03125 -0.0625 0.25002 0.25002 0 0 0 -0.03125 -0.03125 0.25002 0.25002 0 0 0 -0.03125 -0.03125 0.25002 0.25002 0 0 0 -0.09375 -0.03125h-0.1875c-0.18184-0.02204-0.34449-0.17298-0.4375-0.3125-0.1576-0.24224-0.16703-0.69416-0.21875-1.2187-0.04542-0.46068-0.24764-0.95497-0.625-1.375 0.37302-0.41951 0.54842-0.91617 0.59375-1.375 0.05042-0.51041 0.09838-0.96692 0.25-1.2188 0.09479-0.14218 0.2606-0.29106 0.4375-0.3125l0.1875-0.03125a0.25002 0.25002 0 0 0 0.0625 0 0.25002 0.25002 0 0 0 0.09375 -0.0625 0.25002 0.25002 0 0 0 0.03125 -0.0625 0.25002 0.25002 0 0 0 0.03125 -0.09375 0.25002 0.25002 0 0 0 0 -0.0625 0.25002 0.25002 0 0 0 0 -0.03125l-0.21875-0.8125a0.25002 0.25002 0 0 0 0 -0.03125 0.25002 0.25002 0 0 0 -0.03125 -0.0625 0.25002 0.25002 0 0 0 -0.0625 -0.0625 0.25002 0.25002 0 0 0 -0.0625 -0.03125 0.25002 0.25002 0 0 0 -0.0625 0 0.25002 0.25002 0 0 0 -0.03125 0h-0.125zm2.625 0a0.25002 0.25002 0 0 0 -0.0625 0.0625 0.25002 0.25002 0 0 0 -0.03125 0.03125 0.25002 0.25002 0 0 0 -0.03125 0.0625 0.25002 0.25002 0 0 0 -0.03125 0.03125l-0.1875 0.8125a0.25002 0.25002 0 0 0 0 0.0625 0.25002 0.25002 0 0 0 0.03125 0.09375 0.25002 0.25002 0 0 0 0.03125 0.0625 0.25002 0.25002 0 0 0 0.03125 0.03125 0.25002 0.25002 0 0 0 0.03125 0.03125 0.25002 0.25002 0 0 0 0.09375 0.03125l0.1875 0.03125c0.1763 0.02137 0.34004 0.16632 0.4375 0.3125 0.15152 0.25187 0.16834 0.70846 0.21875 1.2188 0.045371 0.45927 0.25111 0.95529 0.625 1.375-0.37736 0.42003-0.57958 0.91432-0.625 1.375-0.05172 0.52459-0.061149 0.97651-0.21875 1.2187-0.095677 0.14352-0.25626 0.29053-0.4375 0.3125h-0.1875a0.25002 0.25002 0 0 0 -0.03125 0.03125 0.25002 0.25002 0 0 0 -0.09375 0.0625 0.25002 0.25002 0 0 0 -0.03125 0.03125 0.25002 0.25002 0 0 0 -0.03125 0.0625 0.25002 0.25002 0 0 0 -0.03125 0.125l0.1875 0.84375a0.25002 0.25002 0 0 0 0.0625 0.09375 0.25002 0.25002 0 0 0 0.03125 0.03125 0.25002 0.25002 0 0 0 0.03125 0.03125 0.25002 0.25002 0 0 0 0.09375 0.03125 0.25002 0.25002 0 0 0 0.0625 0l0.125-0.03125c0.00614-0.0004 0.02486 0.000497 0.03125 0 0.23237-0.01808 0.62385-0.0846 1-0.375 0.3865-0.29839 0.72937-0.83804 0.8125-1.6562 0.03054-0.29669 0.04635-0.56656 0.09375-0.8125s0.12182-0.45534 0.3125-0.59375c0.07296-0.05211 0.15827-0.07303 0.25-0.09375h0.03125l0.125-0.03125a0.25002 0.25002 0 0 0 0.09375 -0.03125 0.25002 0.25002 0 0 0 0.09375 -0.09375 0.25002 0.25002 0 0 0 0.03125 -0.09375 0.25002 0.25002 0 0 0 0 -0.03125v-0.8125a0.25002 0.25002 0 0 0 -0.03125 -0.09375 0.25002 0.25002 0 0 0 -0.0625 -0.09375 0.25002 0.25002 0 0 0 -0.0625 -0.03125 0.25002 0.25002 0 0 0 -0.0625 -0.03125l-0.125-0.03125c-0.27587-0.04696-0.53876-0.2383-0.625-0.8125-0.0011-0.0092 0.0011-0.02193 0-0.03125-0.02172-0.18821-0.04698-0.41542-0.0625-0.625-0.07836-0.82274-0.40221-1.3443-0.78125-1.6562-0.37904-0.31194-0.80161-0.41818-1.0625-0.4375h-0.125a0.25002 0.25002 0 0 0 -0.0625 0 0.25002 0.25002 0 0 0 -0.03125 0 0.25002 0.25002 0 0 0 -0.03125 0z" display="block" fill="url(#d)"/>
</svg>
