<?xml version="1.0" encoding="UTF-8" standalone="no"?>
<!-- Created with Inkscape (http://www.inkscape.org/) -->

<svg
   xmlns:dc="http://purl.org/dc/elements/1.1/"
   xmlns:cc="http://creativecommons.org/ns#"
   xmlns:rdf="http://www.w3.org/1999/02/22-rdf-syntax-ns#"
   xmlns:svg="http://www.w3.org/2000/svg"
   xmlns="http://www.w3.org/2000/svg"
   xmlns:xlink="http://www.w3.org/1999/xlink"
   version="1.1"
   width="16"
   height="16"
   id="svg3601">
  <defs
     id="defs3603">
    <linearGradient
       id="linearGradient6090">
      <stop
         id="stop6092"
         style="stop-color:#000000;stop-opacity:1"
         offset="0" />
      <stop
         id="stop6094"
         style="stop-color:#000000;stop-opacity:0"
         offset="1" />
    </linearGradient>
    <linearGradient
       x1="18.0625"
       y1="9.6541071"
       x2="18.0625"
       y2="26.1875"
       id="linearGradient8412"
       xlink:href="#linearGradient6050-1-7-6-4-7-3-6-2-4"
       gradientUnits="userSpaceOnUse"
       gradientTransform="matrix(0.57373424,0,0,0.59220544,-3.9827598,-4.8556584)" />
    <linearGradient
       id="linearGradient6050-1-7-6-4-7-3-6-2-4">
      <stop
         id="stop6052-7-5-7-8-3-0-8-8-5"
         style="stop-color:#c4a000;stop-opacity:1"
         offset="0" />
      <stop
         id="stop6054-0-7-8-9-2-5-1-9-7"
         style="stop-color:#fce94f;stop-opacity:1"
         offset="1" />
    </linearGradient>
    <linearGradient
       x1="310.875"
       y1="229.8125"
       x2="310.875"
       y2="220.56094"
       id="linearGradient8486"
       xlink:href="#linearGradient8480"
       gradientUnits="userSpaceOnUse" />
    <linearGradient
       id="linearGradient8480">
      <stop
         id="stop8482"
         style="stop-color:#ffffff;stop-opacity:1"
         offset="0" />
      <stop
         id="stop8484"
         style="stop-color:#ffffff;stop-opacity:0"
         offset="1" />
    </linearGradient>
    <clipPath
       id="clipPath8434">
      <path
         d="m 243.44687,14.015611 0,208.269279 -208.269277,0 0,-208.269279 208.269277,0 z m -89.4907,58.575735 -34.16918,0 0,91.117814 39.05049,0 0,-52.06732 13.01683,0 0,-25.626888 c -10.7316,0 -17.89814,-2.202187 -17.89814,-13.423606 z"
         id="path8436"
         style="opacity:0.5;fill:#000000;fill-opacity:1;fill-rule:nonzero;stroke:none;stroke-width:2;marker:none;visibility:visible;display:inline;overflow:visible;enable-background:accumulate" />
    </clipPath>
    <radialGradient
       cx="310.64407"
       cy="228.07976"
       r="5.9541607"
       fx="310.64407"
       fy="228.07976"
       id="radialGradient7874"
       xlink:href="#linearGradient4393-7"
       gradientUnits="userSpaceOnUse"
       gradientTransform="matrix(0.63490321,0.00311539,-0.01574945,3.2096652,116.68257,-511.81175)" />
    <linearGradient
       id="linearGradient4393-7">
      <stop
         id="stop4395-4"
         style="stop-color:#ffffff;stop-opacity:1"
         offset="0" />
      <stop
         id="stop4397-4"
         style="stop-color:#ffffff;stop-opacity:0"
         offset="1" />
    </linearGradient>
    <linearGradient
       x1="-106.31753"
       y1="59.90741"
       x2="-106.31753"
       y2="171.05693"
       id="linearGradient7876"
       xlink:href="#linearGradient4632-1-3-9-3-2-5-8-5-1-2-7-1-6"
       gradientUnits="userSpaceOnUse"
       gradientTransform="matrix(1.5599975,0,0,1.5599977,81.712462,-63.003008)" />
    <linearGradient
       id="linearGradient4632-1-3-9-3-2-5-8-5-1-2-7-1-6">
      <stop
         id="stop4634-1-8-3-9-0-1-4-0-0-8-2-5-3"
         style="stop-color:#fefbdc;stop-opacity:1"
         offset="0" />
      <stop
         id="stop4636-1-9-9-8-8-9-6-8-9-5-4-5-5"
         style="stop-color:#ffffff;stop-opacity:1"
         offset="0.0274937" />
      <stop
         id="stop4638-8-3-9-6-6-9-8-0-1-8-8-6-2"
         style="stop-color:#fffce5;stop-opacity:1"
         offset="0.274937" />
      <stop
         id="stop4640-8-5-7-8-9-6-8-7-4-9-6-8-9"
         style="stop-color:#fefbdc;stop-opacity:1"
         offset="0.38707438" />
      <stop
         id="stop4642-5-41-9-6-9-8-3-8-8-9-7-5-9"
         style="stop-color:#fef6b4;stop-opacity:1"
         offset="0.66528589" />
      <stop
         id="stop4644-5-2-7-9-2-2-4-1-8-1-4-1-6"
         style="stop-color:#fef7c0;stop-opacity:1"
         offset="0.76745707" />
      <stop
         id="stop4646-3-2-3-7-3-7-9-8-5-0-3-5-9"
         style="stop-color:#fefbe2;stop-opacity:1"
         offset="1" />
    </linearGradient>
    <linearGradient
       x1="-42.698154"
       y1="169.07428"
       x2="-132.12018"
       y2="169.07428"
       id="linearGradient7878"
       xlink:href="#linearGradient4022-6-3-3-4-0-1-8-9-6-0"
       gradientUnits="userSpaceOnUse"
       gradientTransform="matrix(0,1.5079976,1.5079976,0,-272.49451,283.84288)" />
    <linearGradient
       id="linearGradient4022-6-3-3-4-0-1-8-9-6-0">
      <stop
         id="stop4024-1-0-7-8-9-2-9-9-1-2"
         style="stop-color:#c4a000;stop-opacity:1"
         offset="0" />
      <stop
         id="stop4026-2-4-1-4-3-8-2-1-2-5"
         style="stop-color:#fce94f;stop-opacity:1"
         offset="1" />
    </linearGradient>
    <linearGradient
       x1="-150.02495"
       y1="62.156101"
       x2="-150.02495"
       y2="274.07629"
       id="linearGradient7880"
       xlink:href="#linearGradient4853"
       gradientUnits="userSpaceOnUse" />
    <linearGradient
       id="linearGradient4853">
      <stop
         id="stop4855"
         style="stop-color:#ffffff;stop-opacity:1"
         offset="0" />
      <stop
         id="stop4857"
         style="stop-color:#ffffff;stop-opacity:0"
         offset="1" />
    </linearGradient>
    <linearGradient
       x1="-150.02495"
       y1="62.156101"
       x2="-150.02495"
       y2="274.07629"
       id="linearGradient7880-9"
       xlink:href="#linearGradient4853-8"
       gradientUnits="userSpaceOnUse" />
    <linearGradient
       id="linearGradient4853-8">
      <stop
         id="stop4855-0"
         style="stop-color:#ffffff;stop-opacity:1"
         offset="0" />
      <stop
         id="stop4857-6"
         style="stop-color:#ffffff;stop-opacity:0"
         offset="1" />
    </linearGradient>
    <linearGradient
       x1="-150.02495"
       y1="62.156101"
       x2="-150.02495"
       y2="274.07629"
       id="linearGradient3707"
       xlink:href="#linearGradient4853-8"
       gradientUnits="userSpaceOnUse" />
    <radialGradient
       cx="310.64407"
       cy="228.07976"
       r="5.9541607"
       fx="310.64407"
       fy="228.07976"
       id="radialGradient3734"
       xlink:href="#linearGradient4393-7"
       gradientUnits="userSpaceOnUse"
       gradientTransform="matrix(0.63490321,0.00311539,-0.01574945,3.2096652,116.68257,-511.81175)" />
    <linearGradient
       x1="-106.31753"
       y1="59.90741"
       x2="-106.31753"
       y2="171.05693"
       id="linearGradient3736"
       xlink:href="#linearGradient4632-1-3-9-3-2-5-8-5-1-2-7-1-6"
       gradientUnits="userSpaceOnUse"
       gradientTransform="matrix(1.5599975,0,0,1.5599977,81.712462,-63.003008)" />
    <linearGradient
       x1="-42.698154"
       y1="169.07428"
       x2="-132.12018"
       y2="169.07428"
       id="linearGradient3738"
       xlink:href="#linearGradient4022-6-3-3-4-0-1-8-9-6-0"
       gradientUnits="userSpaceOnUse"
       gradientTransform="matrix(0,1.5079976,1.5079976,0,-272.49451,283.84288)" />
    <linearGradient
       x1="-150.02495"
       y1="62.156101"
       x2="-150.02495"
       y2="274.07629"
       id="linearGradient3740"
       xlink:href="#linearGradient4853"
       gradientUnits="userSpaceOnUse" />
    <linearGradient
       x1="-106.31753"
       y1="59.90741"
       x2="-106.31753"
       y2="171.05693"
       id="linearGradient3744"
       xlink:href="#linearGradient4632-1-3-9-3-2-5-8-5-1-2-7-1-6"
       gradientUnits="userSpaceOnUse"
       gradientTransform="matrix(0.11984466,0,0,0.11984467,24.979917,-5.9168491)" />
    <linearGradient
       x1="-42.698154"
       y1="169.07428"
       x2="-132.12018"
       y2="169.07428"
       id="linearGradient3746"
       xlink:href="#linearGradient4022-6-3-3-4-0-1-8-9-6-0"
       gradientUnits="userSpaceOnUse"
       gradientTransform="matrix(0,0.11584983,0.11584983,0,-2.2315447,20.729108)" />
    <linearGradient
       x1="-6.0724082"
       y1="3.0201192"
       x2="-2.9216745"
       y2="3.0201192"
       id="linearGradient4526"
       xlink:href="#linearGradient6050-1-7-6-4-7-3-6-2-4"
       gradientUnits="userSpaceOnUse" />
    <linearGradient
       x1="6.6228719"
       y1="-1.3009801"
       x2="6.6228719"
       y2="10.049566"
       id="linearGradient4585"
       xlink:href="#linearGradient6050-1-7-6-4-7-3-6-2-4-5"
       gradientUnits="userSpaceOnUse" />
    <linearGradient
       x1="6.6228719"
       y1="-1.3009801"
       x2="6.6228719"
       y2="10.049566"
       id="linearGradient5185"
       xlink:href="#linearGradient6050-1-7-6-4-7-3-6-2-4"
       gradientUnits="userSpaceOnUse" />
    <linearGradient
       x1="-5.9777341"
       y1="2.6982248"
       x2="-4.2471185"
       y2="2.6982248"
       id="linearGradient6096"
       xlink:href="#linearGradient6090"
       gradientUnits="userSpaceOnUse" />
    <linearGradient
       x1="6.6228719"
       y1="-1.3009801"
       x2="6.6228719"
       y2="10.049566"
       id="linearGradient10060"
       xlink:href="#linearGradient6050-1-7-6-4-7-3-6-2-4"
       gradientUnits="userSpaceOnUse" />
    <linearGradient
       x1="-150.02495"
       y1="62.156101"
       x2="-150.02495"
       y2="274.07629"
       id="linearGradient10065"
       xlink:href="#linearGradient4853-8"
       gradientUnits="userSpaceOnUse"
       gradientTransform="matrix(0.11069527,0,0,0.11066585,23.682408,-4.8510725)" />
    <linearGradient
       x1="-106.31753"
       y1="59.90741"
       x2="-106.31753"
       y2="171.05693"
       id="linearGradient10068"
       xlink:href="#linearGradient4632-1-3-9-3-2-5-8-5-1-2-7-1-6"
       gradientUnits="userSpaceOnUse"
       gradientTransform="matrix(0.11984466,0,0,0.11984467,24.979917,-5.9168491)" />
    <linearGradient
       x1="-42.698154"
       y1="169.07428"
       x2="-132.12018"
       y2="169.07428"
       id="linearGradient10070"
       xlink:href="#linearGradient4022-6-3-3-4-0-1-8-9-6-0"
       gradientUnits="userSpaceOnUse"
       gradientTransform="matrix(0,0.11584983,0.11584983,0,-2.2315447,20.729108)" />
    <linearGradient
       x1="6.6228719"
       y1="-1.3009801"
       x2="6.6228719"
       y2="10.049566"
       id="linearGradient10080"
       xlink:href="#linearGradient6050-1-7-6-4-7-3-6-2-4"
       gradientUnits="userSpaceOnUse" />
    <linearGradient
       x1="6.6228719"
       y1="-1.3009801"
       x2="6.6228719"
       y2="10.049566"
       id="linearGradient3374"
       xlink:href="#linearGradient6050-1-7-6-4-7-3-6-2-4-5"
       gradientUnits="userSpaceOnUse" />
    <linearGradient
       x1="6.6228719"
       y1="-1.3009801"
       x2="6.6228719"
       y2="10.049566"
       id="linearGradient4699"
       xlink:href="#linearGradient6050-1-7-6-4-7-3-6-2-4-5"
       gradientUnits="userSpaceOnUse" />
    <linearGradient
       x1="6.6228719"
       y1="-1.3009801"
       x2="6.6228719"
       y2="10.049566"
       id="linearGradient4753"
       xlink:href="#linearGradient6050-1-7-6-4-7-3-6-2-4-5"
       gradientUnits="userSpaceOnUse" />
    <linearGradient
       x1="6.2349076"
       y1="-1.8908477"
       x2="6.2349076"
       y2="9.1934252"
       id="linearGradient5379"
       xlink:href="#linearGradient6050-1-7-6-4-7-3-6-2-4"
       gradientUnits="userSpaceOnUse" />
    <linearGradient
       x1="6.2349076"
       y1="-1.8908477"
       x2="6.2349076"
       y2="9.1934252"
       id="linearGradient5472"
       xlink:href="#linearGradient6050-1-7-6-4-7-3-6-2-4"
       gradientUnits="userSpaceOnUse" />
    <linearGradient
       x1="6.2349076"
       y1="-1.8908477"
       x2="6.2349076"
       y2="9.1934252"
       id="linearGradient5474"
       xlink:href="#linearGradient6050-1-7-6-4-7-3-6-2-4"
       gradientUnits="userSpaceOnUse" />
    <linearGradient
       x1="6.2349076"
       y1="-1.8908477"
       x2="6.2349076"
       y2="9.1934252"
       id="linearGradient5476"
       xlink:href="#linearGradient6050-1-7-6-4-7-3-6-2-4"
       gradientUnits="userSpaceOnUse" />
    <linearGradient
       x1="6.2349076"
       y1="-1.8908477"
       x2="6.2349076"
       y2="9.1934252"
       id="linearGradient5478"
       xlink:href="#linearGradient6050-1-7-6-4-7-3-6-2-4"
       gradientUnits="userSpaceOnUse" />
    <linearGradient
       x1="6.2349076"
       y1="-1.8908477"
       x2="6.2349076"
       y2="9.1934252"
       id="linearGradient5480"
       xlink:href="#linearGradient6050-1-7-6-4-7-3-6-2-4"
       gradientUnits="userSpaceOnUse" />
    <linearGradient
       x1="6.2349076"
       y1="-1.8908477"
       x2="6.2349076"
       y2="9.1934252"
       id="linearGradient5482"
       xlink:href="#linearGradient6050-1-7-6-4-7-3-6-2-4"
       gradientUnits="userSpaceOnUse" />
    <linearGradient
       x1="6.2349076"
       y1="-1.8908477"
       x2="6.2349076"
       y2="9.1934252"
       id="linearGradient5527"
       xlink:href="#linearGradient6050-1-7-6-4-7-3-6-2-4"
       gradientUnits="userSpaceOnUse" />
    <linearGradient
       x1="6.2349076"
       y1="-1.8908477"
       x2="6.2349076"
       y2="9.1934252"
       id="linearGradient5529"
       xlink:href="#linearGradient6050-1-7-6-4-7-3-6-2-4"
       gradientUnits="userSpaceOnUse" />
    <linearGradient
       x1="6.2349076"
       y1="-1.8908477"
       x2="6.2349076"
       y2="9.1934252"
       id="linearGradient5531"
       xlink:href="#linearGradient6050-1-7-6-4-7-3-6-2-4"
       gradientUnits="userSpaceOnUse" />
    <linearGradient
       x1="6.2349076"
       y1="-1.8908477"
       x2="6.2349076"
       y2="9.1934252"
       id="linearGradient5533"
       xlink:href="#linearGradient6050-1-7-6-4-7-3-6-2-4"
       gradientUnits="userSpaceOnUse" />
    <linearGradient
       x1="6.2349076"
       y1="-1.8908477"
       x2="6.2349076"
       y2="9.1934252"
       id="linearGradient5535"
       xlink:href="#linearGradient6050-1-7-6-4-7-3-6-2-4"
       gradientUnits="userSpaceOnUse" />
    <linearGradient
       x1="6.2349076"
       y1="-1.8908477"
       x2="6.2349076"
       y2="9.1934252"
       id="linearGradient5537"
       xlink:href="#linearGradient6050-1-7-6-4-7-3-6-2-4"
       gradientUnits="userSpaceOnUse" />
    <linearGradient
       x1="6.2349076"
       y1="-1.8908477"
       x2="6.2349076"
       y2="9.1934252"
       id="linearGradient5540"
       xlink:href="#linearGradient6050-1-7-6-4-7-3-6-2-4"
       gradientUnits="userSpaceOnUse"
       gradientTransform="translate(0.75504355,1.0861138)" />
    <linearGradient
       x1="6.2349076"
       y1="-1.8908477"
       x2="6.2349076"
       y2="9.1934252"
       id="linearGradient5552"
       xlink:href="#linearGradient6050-1-7-6-4-7-3-6-2-4"
       gradientUnits="userSpaceOnUse" />
    <linearGradient
       x1="6.2349076"
       y1="-1.8908477"
       x2="6.2349076"
       y2="9.1934252"
       id="linearGradient5554"
       xlink:href="#linearGradient6050-1-7-6-4-7-3-6-2-4"
       gradientUnits="userSpaceOnUse" />
    <linearGradient
       x1="6.9899511"
       y1="-0.80473387"
       x2="6.9899511"
       y2="10.279539"
       id="linearGradient5556"
       xlink:href="#linearGradient6050-1-7-6-4-7-3-6-2-4"
       gradientUnits="userSpaceOnUse" />
    <linearGradient
       x1="6.2349076"
       y1="-1.8908477"
       x2="6.2349076"
       y2="9.1934252"
       id="linearGradient5558"
       xlink:href="#linearGradient6050-1-7-6-4-7-3-6-2-4"
       gradientUnits="userSpaceOnUse" />
    <linearGradient
       x1="6.2349076"
       y1="-1.8908477"
       x2="6.2349076"
       y2="9.1934252"
       id="linearGradient5560"
       xlink:href="#linearGradient6050-1-7-6-4-7-3-6-2-4"
       gradientUnits="userSpaceOnUse" />
    <linearGradient
       x1="6.2349076"
       y1="-1.8908477"
       x2="6.2349076"
       y2="9.1934252"
       id="linearGradient5562"
       xlink:href="#linearGradient6050-1-7-6-4-7-3-6-2-4"
       gradientUnits="userSpaceOnUse" />
    <linearGradient
       x1="6.2349076"
       y1="-1.8908477"
       x2="6.2349076"
       y2="9.1934252"
       id="linearGradient5564"
       xlink:href="#linearGradient6050-1-7-6-4-7-3-6-2-4"
       gradientUnits="userSpaceOnUse" />
    <linearGradient
       x1="6.6228719"
       y1="-1.3009801"
       x2="6.6228719"
       y2="10.049566"
       id="linearGradient3374-9"
       xlink:href="#linearGradient6050-1-7-6-4-7-3-6-2-4-5-4"
       gradientUnits="userSpaceOnUse" />
    <linearGradient
       x1="6.6228719"
       y1="-1.3009801"
       x2="6.6228719"
       y2="10.049566"
       id="linearGradient5857"
       xlink:href="#linearGradient6050-1-7-6-4-7-3-6-2-4-5-4"
       gradientUnits="userSpaceOnUse" />
    <linearGradient
       x1="6.6228719"
       y1="-1.3009801"
       x2="6.6228719"
       y2="10.049566"
       id="linearGradient3482"
       xlink:href="#linearGradient6050-1-7-6-4-7-3-6-2-4-5-4"
       gradientUnits="userSpaceOnUse" />
    <linearGradient
       x1="6.6228724"
       y1="-1.3009801"
       x2="6.6228724"
       y2="10.049566"
       id="linearGradient4332"
       xlink:href="#linearGradient6050-1-7-6-4-7-3-6-2-4"
       gradientUnits="userSpaceOnUse" />
    <linearGradient
       x1="-20.427217"
       y1="6.7218938"
       x2="-13.239052"
       y2="6.7218938"
       id="linearGradient4714"
       xlink:href="#linearGradient4022-6-3-3-4-0-1-8-9-6-0"
       gradientUnits="userSpaceOnUse" />
    <linearGradient
       x1="-21.411833"
       y1="6.0970421"
       x2="-10.512425"
       y2="6.0970421"
       id="linearGradient4741"
       xlink:href="#linearGradient4632-1-3-9-3-2-5-8-5-1-2-7-1-6"
       gradientUnits="userSpaceOnUse" />
  </defs>
  <metadata
     id="metadata3606">
    <rdf:RDF>
      <cc:Work
         rdf:about="">
        <dc:format>image/svg+xml</dc:format>
        <dc:type
           rdf:resource="http://purl.org/dc/dcmitype/StillImage" />
        <dc:title></dc:title>
        <cc:license
           rdf:resource="http://creativecommons.org/licenses/by-sa/3.0/" />
      </cc:Work>
      <cc:License
         rdf:about="http://creativecommons.org/licenses/by-sa/3.0/">
        <cc:permits
           rdf:resource="http://creativecommons.org/ns#Reproduction" />
        <cc:permits
           rdf:resource="http://creativecommons.org/ns#Distribution" />
        <cc:requires
           rdf:resource="http://creativecommons.org/ns#Notice" />
        <cc:requires
           rdf:resource="http://creativecommons.org/ns#Attribution" />
        <cc:permits
           rdf:resource="http://creativecommons.org/ns#DerivativeWorks" />
        <cc:requires
           rdf:resource="http://creativecommons.org/ns#ShareAlike" />
      </cc:License>
    </rdf:RDF>
  </metadata>
  <path
     d="m 12.411986,12.134779 2.112266,2.280564"
     id="path7868"
     style="opacity:0.37558684;color:#000000;fill:none;stroke:#eeeeec;stroke-width:1;stroke-linecap:round;stroke-linejoin:round;stroke-miterlimit:4;stroke-opacity:1;stroke-dasharray:none;stroke-dashoffset:1.6;marker:none;visibility:visible;display:inline;overflow:visible;enable-background:accumulate" />
  <rect
     width="14.999999"
     height="14.999999"
     rx="3.2073758"
     ry="3.2027895"
     x="0.49999967"
     y="0.499998"
     id="rect7870"
     style="color:#000000;fill:url(#linearGradient10068);fill-opacity:1;stroke:url(#linearGradient10070);stroke-width:0.99999994;stroke-linecap:round;stroke-linejoin:miter;stroke-miterlimit:4;stroke-opacity:1;stroke-dasharray:none;stroke-dashoffset:0;marker:none;visibility:visible;display:inline;overflow:visible;enable-background:new" />
  <path
     d="m 3.8195255,1.4949223 c -1.2946897,0 -2.3246007,1.0324565 -2.3246007,2.3274412 l 0,8.3552715 c 0,1.294985 1.029911,2.327441 2.3246007,2.327441 l 8.3609525,0 c 1.294689,0 2.3246,-1.032456 2.3246,-2.327441 l 0,-8.3552715 c 0,-1.2949847 -1.029911,-2.3274412 -2.3246,-2.3274412 l -8.3609525,0 z"
     id="path7872-9"
     style="color:#000000;fill:none;stroke:url(#linearGradient10065);stroke-width:0.98984575;stroke-linecap:round;stroke-linejoin:miter;stroke-miterlimit:4;stroke-opacity:1;stroke-dasharray:none;stroke-dashoffset:0;marker:none;visibility:visible;display:inline;overflow:visible;enable-background:new" />
  <g
     id="g4412">
    <g
       id="text5177-7-3"
       style="font-size:8.14663982px;font-style:normal;font-variant:normal;font-weight:bold;font-stretch:normal;text-align:start;line-height:125%;letter-spacing:0px;word-spacing:0px;writing-mode:lr-tb;text-anchor:start;fill:none;stroke:#ffffff;stroke-width:2;stroke-linejoin:round;stroke-miterlimit:4;stroke-opacity:1;stroke-dasharray:none;font-family:Cantarell;-inkscape-font-specification:Cantarell Bold">
      <path
         d="M 4.9161787,6.5173121 C 4.8265657,7.2016292 4.4681131,7.5030556 4.0852214,7.5682286 l -0.1384929,0.016293 0,0.8309573 0.1384929,0.016293 c 0.1384927,0.02444 0.2688392,0.081466 0.3828921,0.1629328 0.5050911,0.3665984 0.4399186,1.0264771 0.496945,1.5804473 0.154786,1.523421 1.230143,1.784115 1.604888,1.808554 l 0.1384929,0.01629 0.1955194,-0.830958 -0.1792261,-0.02444 C 6.4558938,11.112017 6.2277875,10.940937 6.0974414,10.745418 5.6575233,10.069248 6.1300271,8.7657839 5.225751,8.0000005 6.1218805,7.2342172 5.6493767,5.9389 6.0974414,5.2545829 6.2277875,5.0590638 6.4558938,4.8798375 6.7247327,4.8472509 L 6.9039588,4.822811 6.7084394,4.0000004 6.5699465,4.008147 c -0.4317714,0.032587 -1.4582486,0.3177205 -1.604888,1.8655806 -0.016293,0.219959 -0.02444,0.4399187 -0.04888,0.6435845"
         id="path3519-5"
         style="letter-spacing:2px;fill:none;stroke:#ffffff;stroke-width:2;stroke-linejoin:round;stroke-miterlimit:4;stroke-opacity:1;stroke-dasharray:none" />
      <path
         d="M 11.034942,5.8737276 C 10.888302,4.3340142 9.8699716,4.0407336 9.4300535,4.008147 L 9.2915606,4.0000004 9.1041879,4.822811 9.283414,4.8472509 C 9.5522528,4.8798375 9.7722125,5.0590638 9.9025586,5.2545829 10.350623,5.9389 9.8781196,7.2342172 10.774249,8.0000005 9.869973,8.7657839 10.342477,10.069248 9.9025586,10.745418 9.7722125,10.940937 9.5522528,11.112017 9.283414,11.144604 l -0.1792261,0.02444 0.1873727,0.830958 0.1384929,-0.01629 c 0.3747451,-0.02444 1.4501025,-0.285133 1.6048885,-1.808554 0.05703,-0.5539706 -0.0081,-1.2138493 0.496945,-1.5804477 0.114052,-0.081466 0.252546,-0.1384929 0.391038,-0.1629328 l 0.130347,-0.016293 0,-0.8309573 -0.130347,-0.016293 C 11.540034,7.5030556 11.181581,7.2016292 11.091968,6.5173121 11.067528,6.3136463 11.051235,6.0936866 11.034942,5.8737276"
         id="path3521-9"
         style="letter-spacing:2px;fill:none;stroke:#ffffff;stroke-width:2;stroke-linejoin:round;stroke-miterlimit:4;stroke-opacity:1;stroke-dasharray:none" />
    </g>
    <g
       id="text5177-7-0"
       style="font-size:8.14663982px;font-style:normal;font-variant:normal;font-weight:bold;font-stretch:normal;text-align:start;line-height:125%;letter-spacing:0px;word-spacing:0px;writing-mode:lr-tb;text-anchor:start;fill:none;stroke:url(#linearGradient4332);stroke-linejoin:round;stroke-opacity:1;font-family:Cantarell;-inkscape-font-specification:Cantarell Bold">
      <path
         d="M 4.9161787,6.5173121 C 4.8265657,7.2016292 4.4681131,7.5030556 4.0852214,7.5682286 l -0.1384929,0.016293 0,0.8309573 0.1384929,0.016293 c 0.1384927,0.02444 0.2688392,0.081466 0.3828921,0.1629328 0.5050911,0.3665984 0.4399186,1.0264771 0.496945,1.5804473 0.154786,1.523421 1.230143,1.784115 1.604888,1.808554 l 0.1384929,0.01629 0.1955194,-0.830958 -0.1792261,-0.02444 C 6.4558938,11.112017 6.2277875,10.940937 6.0974414,10.745418 5.6575233,10.069248 6.1300271,8.7657839 5.225751,8.0000005 6.1218805,7.2342172 5.6493767,5.9389 6.0974414,5.2545829 6.2277875,5.0590638 6.4558938,4.8798375 6.7247327,4.8472509 L 6.9039588,4.822811 6.7084394,4.0000004 6.5699465,4.008147 c -0.4317714,0.032587 -1.4582486,0.3177205 -1.604888,1.8655806 -0.016293,0.219959 -0.02444,0.4399187 -0.04888,0.6435845"
         id="path3519-9"
         style="letter-spacing:2px;fill:none;stroke:url(#linearGradient4332);stroke-linejoin:round;stroke-opacity:1" />
      <path
         d="M 11.034942,5.8737276 C 10.888302,4.3340142 9.8699716,4.0407336 9.4300535,4.008147 L 9.2915606,4.0000004 9.1041879,4.822811 9.283414,4.8472509 C 9.5522528,4.8798375 9.7722125,5.0590638 9.9025586,5.2545829 10.350623,5.9389 9.8781196,7.2342172 10.774249,8.0000005 9.869973,8.7657839 10.342477,10.069248 9.9025586,10.745418 9.7722125,10.940937 9.5522528,11.112017 9.283414,11.144604 l -0.1792261,0.02444 0.1873727,0.830958 0.1384929,-0.01629 c 0.3747451,-0.02444 1.4501025,-0.285133 1.6048885,-1.808554 0.05703,-0.5539706 -0.0081,-1.2138493 0.496945,-1.5804477 0.114052,-0.081466 0.252546,-0.1384929 0.391038,-0.1629328 l 0.130347,-0.016293 0,-0.8309573 -0.130347,-0.016293 C 11.540034,7.5030556 11.181581,7.2016292 11.091968,6.5173121 11.067528,6.3136463 11.051235,6.0936866 11.034942,5.8737276"
         id="path3521-0"
         style="letter-spacing:2px;fill:none;stroke:url(#linearGradient4332);stroke-linejoin:round;stroke-opacity:1" />
    </g>
    <g
       id="text5177-7"
       style="font-size:8.14663982px;font-style:normal;font-variant:normal;font-weight:bold;font-stretch:normal;text-align:start;line-height:125%;letter-spacing:0px;word-spacing:0px;writing-mode:lr-tb;text-anchor:start;fill:#ffffff;fill-opacity:1;stroke:none;font-family:Cantarell;-inkscape-font-specification:Cantarell Bold">
      <path
         d="M 4.9161787,6.5173121 C 4.8265657,7.2016292 4.4681131,7.5030556 4.0852214,7.5682286 l -0.1384929,0.016293 0,0.8309573 0.1384929,0.016293 c 0.1384927,0.02444 0.2688392,0.081466 0.3828921,0.1629328 0.5050911,0.3665984 0.4399186,1.0264771 0.496945,1.5804473 0.154786,1.523421 1.230143,1.784115 1.604888,1.808554 l 0.1384929,0.01629 0.1955194,-0.830958 -0.1792261,-0.02444 C 6.4558938,11.112017 6.2277875,10.940937 6.0974414,10.745418 5.6575233,10.069248 6.1300271,8.7657839 5.225751,8.0000005 6.1218805,7.2342172 5.6493767,5.9389 6.0974414,5.2545829 6.2277875,5.0590638 6.4558938,4.8798375 6.7247327,4.8472509 L 6.9039588,4.822811 6.7084394,4.0000004 6.5699465,4.008147 c -0.4317714,0.032587 -1.4582486,0.3177205 -1.604888,1.8655806 -0.016293,0.219959 -0.02444,0.4399187 -0.04888,0.6435845"
         id="path3519"
         style="letter-spacing:2px" />
      <path
         d="M 11.034942,5.8737276 C 10.888302,4.3340142 9.8699716,4.0407336 9.4300535,4.008147 L 9.2915606,4.0000004 9.1041879,4.822811 9.283414,4.8472509 C 9.5522528,4.8798375 9.7722125,5.0590638 9.9025586,5.2545829 10.350623,5.9389 9.8781196,7.2342172 10.774249,8.0000005 9.869973,8.7657839 10.342477,10.069248 9.9025586,10.745418 9.7722125,10.940937 9.5522528,11.112017 9.283414,11.144604 l -0.1792261,0.02444 0.1873727,0.830958 0.1384929,-0.01629 c 0.3747451,-0.02444 1.4501025,-0.285133 1.6048885,-1.808554 0.05703,-0.5539706 -0.0081,-1.2138493 0.496945,-1.5804477 0.114052,-0.081466 0.252546,-0.1384929 0.391038,-0.1629328 l 0.130347,-0.016293 0,-0.8309573 -0.130347,-0.016293 C 11.540034,7.5030556 11.181581,7.2016292 11.091968,6.5173121 11.067528,6.3136463 11.051235,6.0936866 11.034942,5.8737276"
         id="path3521"
         style="letter-spacing:2px" />
    </g>
  </g>
</svg>
