<?xml version="1.0" encoding="UTF-8" standalone="no"?>
<!-- Created with Inkscape (http://www.inkscape.org/) -->

<svg
   xmlns:dc="http://purl.org/dc/elements/1.1/"
   xmlns:cc="http://creativecommons.org/ns#"
   xmlns:rdf="http://www.w3.org/1999/02/22-rdf-syntax-ns#"
   xmlns:svg="http://www.w3.org/2000/svg"
   xmlns="http://www.w3.org/2000/svg"
   xmlns:xlink="http://www.w3.org/1999/xlink"
   version="1.1"
   width="16"
   height="16"
   id="svg7929">
  <defs
     id="defs7931">
    <linearGradient
       x1="491.22195"
       y1="506.64685"
       x2="491.22195"
       y2="732.05341"
       id="linearGradient3161-1-5-9-6"
       xlink:href="#linearGradient7888"
       gradientUnits="userSpaceOnUse"
       gradientTransform="matrix(0.09329421,0,0,0.09329421,-35.870602,-43.768872)" />
    <linearGradient
       id="linearGradient7888">
      <stop
         id="stop7890"
         style="stop-color:#204a87;stop-opacity:1"
         offset="0" />
      <stop
         id="stop7892"
         style="stop-color:#bdd2e9;stop-opacity:1"
         offset="1" />
    </linearGradient>
    <radialGradient
       cx="301"
       cy="51.5"
       r="19.500002"
       fx="301"
       fy="51.5"
       id="radialGradient3175-6-6-4-0"
       xlink:href="#linearGradient8978-0-9-0-8"
       gradientUnits="userSpaceOnUse"
       gradientTransform="matrix(0.9706301,1.96843e-8,0,0.2861052,-291.15791,-14.630262)" />
    <linearGradient
       id="linearGradient8978-0-9-0-8">
      <stop
         id="stop8980-9-1-8-4"
         style="stop-color:#ffffff;stop-opacity:1"
         offset="0" />
      <stop
         id="stop8982-2-2-4-4"
         style="stop-color:#ffffff;stop-opacity:0"
         offset="1" />
    </linearGradient>
    <radialGradient
       cx="24.44569"
       cy="35.87817"
       r="20.530962"
       fx="24.44569"
       fy="35.87817"
       id="radialGradient7833"
       xlink:href="#linearGradient7394-3"
       gradientUnits="userSpaceOnUse"
       gradientTransform="matrix(0.8569597,3.2529443e-7,-1.2530456e-7,0.3301039,-20.948972,32.907402)" />
    <linearGradient
       id="linearGradient7394-3">
      <stop
         id="stop7396-0"
         style="stop-color:#ffffff;stop-opacity:1"
         offset="0" />
      <stop
         id="stop7398-2"
         style="stop-color:#cbdbed;stop-opacity:1"
         offset="1" />
    </linearGradient>
    <linearGradient
       x1="321.5675"
       y1="145.51683"
       x2="311.65057"
       y2="118.49502"
       id="linearGradient7835"
       xlink:href="#linearGradient4247-6-9-9-7"
       gradientUnits="userSpaceOnUse"
       gradientTransform="matrix(0.5556927,0,0,0.5556793,-177.26596,-38.770868)" />
    <linearGradient
       id="linearGradient4247-6-9-9-7">
      <stop
         id="stop4249-2-0-1-7"
         style="stop-color:#204a87;stop-opacity:1"
         offset="0" />
      <stop
         id="stop4251-2-1-0-5"
         style="stop-color:#bdd2e9;stop-opacity:1"
         offset="1" />
    </linearGradient>
    <radialGradient
       cx="24.44569"
       cy="35.87817"
       r="20.530962"
       fx="24.44569"
       fy="35.87817"
       id="radialGradient7925"
       xlink:href="#linearGradient7394-3"
       gradientUnits="userSpaceOnUse"
       gradientTransform="matrix(0.8569597,3.2529443e-7,-1.2530456e-7,0.3301039,-12.948972,0.77180763)" />
    <linearGradient
       x1="321.5675"
       y1="145.51683"
       x2="311.65057"
       y2="118.49502"
       id="linearGradient7927"
       xlink:href="#linearGradient4247-6-9-9-7"
       gradientUnits="userSpaceOnUse"
       gradientTransform="matrix(0.5556927,0,0,0.5556793,-169.26596,-70.906462)" />
    <linearGradient
       x1="491.22195"
       y1="506.64685"
       x2="491.22195"
       y2="732.05341"
       id="linearGradient3161-1-5-9-6-1"
       xlink:href="#linearGradient7888-7"
       gradientUnits="userSpaceOnUse"
       gradientTransform="matrix(0.09329421,0,0,0.09329421,-35.870602,-43.768872)" />
    <linearGradient
       id="linearGradient7888-7">
      <stop
         id="stop7890-4"
         style="stop-color:#204a87;stop-opacity:1"
         offset="0" />
      <stop
         id="stop7892-2"
         style="stop-color:#bdd2e9;stop-opacity:1"
         offset="1" />
    </linearGradient>
    <linearGradient
       x1="491.22195"
       y1="506.64685"
       x2="491.22195"
       y2="732.05341"
       id="linearGradient8140"
       xlink:href="#linearGradient7888-7"
       gradientUnits="userSpaceOnUse"
       gradientTransform="matrix(0.09329421,0,0,0.09329421,-38.9244,-46.943611)" />
  </defs>
  <metadata
     id="metadata7934">
    <rdf:RDF>
      <cc:Work
         rdf:about="">
        <dc:format>image/svg+xml</dc:format>
        <dc:type
           rdf:resource="http://purl.org/dc/dcmitype/StillImage" />
        <cc:license
           rdf:resource="http://creativecommons.org/licenses/by-sa/3.0/" />
        <dc:title></dc:title>
      </cc:Work>
      <cc:License
         rdf:about="http://creativecommons.org/licenses/by-sa/3.0/">
        <cc:permits
           rdf:resource="http://creativecommons.org/ns#Reproduction" />
        <cc:permits
           rdf:resource="http://creativecommons.org/ns#Distribution" />
        <cc:requires
           rdf:resource="http://creativecommons.org/ns#Notice" />
        <cc:requires
           rdf:resource="http://creativecommons.org/ns#Attribution" />
        <cc:permits
           rdf:resource="http://creativecommons.org/ns#DerivativeWorks" />
        <cc:requires
           rdf:resource="http://creativecommons.org/ns#ShareAlike" />
      </cc:License>
    </rdf:RDF>
  </metadata>
  <g
     id="layer1">
    <rect
       width="15.003705"
       height="15.003344"
       rx="1.5143198"
       ry="1.5142833"
       x="0.49814749"
       y="0.49832821"
       id="rect4319-7-2-1-7"
       style="fill:url(#radialGradient7925);fill-opacity:1;fill-rule:evenodd;stroke:url(#linearGradient7927);stroke-width:1.00000095;stroke-linecap:butt;stroke-linejoin:bevel;stroke-miterlimit:10;stroke-opacity:1;stroke-dasharray:none;stroke-dashoffset:0;marker:none;visibility:visible;display:inline;overflow:visible;enable-background:new" />
    <rect
       width="12.997247"
       height="12.999963"
       rx="0.5081172"
       ry="0.50810492"
       x="1.5013518"
       y="1.5016088"
       id="rect4321-0-9-4-0"
       style="fill:none;stroke:#ffffff;stroke-width:0.99999994;stroke-linecap:butt;stroke-linejoin:bevel;stroke-miterlimit:10;stroke-opacity:1;stroke-dasharray:none;stroke-dashoffset:0;marker:none;visibility:visible;display:inline;overflow:visible;enable-background:new" />
    <rect
       width="14.000044"
       height="14.000041"
       rx="1.9062433"
       ry="1.9062428"
       x="1.0017486"
       y="1.0015783"
       id="rect9035-4-9-5-7"
       style="fill:url(#radialGradient3175-6-6-4-0);fill-opacity:1;fill-rule:evenodd;stroke:none;stroke-width:1;marker:none;visibility:visible;display:inline;overflow:visible;enable-background:new" />
    <path
       d="m 6.449714,4.8500982 c -0.255625,0.01929 -0.682178,0.126648 -1.0625,0.4375001 -0.380323,0.310852 -0.7029,0.8292277 -0.78125,1.6562497 -0.01595,0.215408 -0.04213,0.4423849 -0.0625,0.625 -0.001,0.009 0.0011,0.02233 0,0.03125 -0.08624,0.5741969 -0.349126,0.7655429 -0.625,0.8125 l -0.125,0.03125 a 0.250025,0.250025 0 0 0 -0.09375,0.03125 0.250025,0.250025 0 0 0 -0.09375,0.09375 0.250025,0.250025 0 0 0 -0.03125,0.125 l 0,0.8125 a 0.250025,0.250025 0 0 0 0.03125,0.09375 0.250025,0.250025 0 0 0 0.03125,0.0625 0.250025,0.250025 0 0 0 0.03125,0.03125 0.250025,0.250025 0 0 0 0.03125,0.03125 0.250025,0.250025 0 0 0 0.09375,0.03125 l 0.125,0.03125 0.03125,0 c 0.08878,0.02005 0.172921,0.03869 0.25,0.09375 0.1907,0.138412 0.265101,0.347812 0.3125,0.59375 0.0474,0.245939 0.06321,0.515807 0.09375,0.8125 0.08313,0.818208 0.426004,1.357861 0.8125,1.65625 0.376151,0.290403 0.76763,0.356921 1,0.375 0.0064,4.97e-4 0.02511,-4e-4 0.03125,0 l 0.125,0.03125 a 0.250025,0.250025 0 0 0 0.0625,0 0.250025,0.250025 0 0 0 0.0625,-0.03125 0.250025,0.250025 0 0 0 0.0625,-0.03125 0.250025,0.250025 0 0 0 0.03125,-0.03125 0.250025,0.250025 0 0 0 0.03125,-0.0625 0.250025,0.250025 0 0 0 0,-0.03125 l 0.21875,-0.84375 a 0.250025,0.250025 0 0 0 0,-0.03125 0.250025,0.250025 0 0 0 0,-0.0625 0.250025,0.250025 0 0 0 -0.03125,-0.0625 0.250025,0.250025 0 0 0 -0.03125,-0.0625 0.250025,0.250025 0 0 0 -0.03125,-0.03125 0.250025,0.250025 0 0 0 -0.03125,-0.03125 0.250025,0.250025 0 0 0 -0.09375,-0.03125 l -0.1875,0 c -0.18184,-0.02204 -0.344489,-0.172984 -0.4375,-0.3125 -0.157601,-0.242238 -0.16703,-0.694159 -0.21875,-1.21875 -0.04542,-0.460684 -0.247644,-0.9549702 -0.625,-1.3750002 0.373019,-0.4195051 0.548421,-0.916167 0.59375,-1.375 0.05042,-0.5104071 0.09838,-0.9669151 0.25,-1.21875 0.09479,-0.142182 0.260598,-0.2910571 0.4375,-0.3125 l 0.1875,-0.03125 a 0.250025,0.250025 0 0 0 0.0625,0 0.250025,0.250025 0 0 0 0.09375,-0.0625 0.250025,0.250025 0 0 0 0.03125,-0.0625 0.250025,0.250025 0 0 0 0.03125,-0.09375 0.250025,0.250025 0 0 0 0,-0.0625 0.250025,0.250025 0 0 0 0,-0.03125 L 6.824714,5.0375979 a 0.250025,0.250025 0 0 0 0,-0.03125 0.250025,0.250025 0 0 0 -0.03125,-0.0625 0.250025,0.250025 0 0 0 -0.0625,-0.0625 0.250025,0.250025 0 0 0 -0.0625,-0.03125 0.250025,0.250025 0 0 0 -0.0625,0 0.250025,0.250025 0 0 0 -0.03125,0 l -0.125,0 z m 2.6250007,0 a 0.250025,0.250025 0 0 0 -0.0625,0.0625 0.250025,0.250025 0 0 0 -0.03125,0.03125 0.250025,0.250025 0 0 0 -0.03125,0.0625 0.250025,0.250025 0 0 0 -0.03125,0.03125 l -0.1875,0.8124999 a 0.250025,0.250025 0 0 0 0,0.0625 0.250025,0.250025 0 0 0 0.03125,0.09375 0.250025,0.250025 0 0 0 0.03125,0.0625 0.250025,0.250025 0 0 0 0.03125,0.03125 0.250025,0.250025 0 0 0 0.03125,0.03125 0.250025,0.250025 0 0 0 0.09375,0.03125 l 0.1875,0.03125 c 0.1763038,0.02137 0.340045,0.166318 0.4375,0.3125 0.1515232,0.251867 0.1683378,0.708458 0.21875,1.21875 0.045371,0.4592679 0.2511063,0.9552899 0.6249993,1.375 -0.377356,0.42003 -0.5795796,0.9143159 -0.6249993,1.3749999 -0.05172,0.524591 -0.061149,0.976512 -0.21875,1.21875 -0.095677,0.143516 -0.2562555,0.290531 -0.4375,0.3125 l -0.1875,0 a 0.250025,0.250025 0 0 0 -0.03125,0.03125 0.250025,0.250025 0 0 0 -0.09375,0.0625 0.250025,0.250025 0 0 0 -0.03125,0.03125 0.250025,0.250025 0 0 0 -0.03125,0.0625 0.250025,0.250025 0 0 0 -0.03125,0.125 l 0.1875,0.84375 a 0.250025,0.250025 0 0 0 0.0625,0.09375 0.250025,0.250025 0 0 0 0.03125,0.03125 0.250025,0.250025 0 0 0 0.03125,0.03125 0.250025,0.250025 0 0 0 0.09375,0.03125 0.250025,0.250025 0 0 0 0.0625,0 l 0.125,-0.03125 c 0.00614,-4e-4 0.02486,4.97e-4 0.03125,0 0.2323694,-0.01808 0.6238476,-0.0846 0.9999993,-0.375 0.386496,-0.298388 0.729367,-0.838042 0.8125,-1.65625 0.03054,-0.296688 0.04635,-0.566558 0.09375,-0.8125 0.0474,-0.245942 0.121821,-0.455341 0.3125,-0.5937498 0.07296,-0.05211 0.158267,-0.07303 0.25,-0.09375 l 0.03125,0 0.125,-0.03125 a 0.250025,0.250025 0 0 0 0.09375,-0.03125 0.250025,0.250025 0 0 0 0.09375,-0.09375 0.250025,0.250025 0 0 0 0.03125,-0.09375 0.250025,0.250025 0 0 0 0,-0.03125 l 0,-0.8125 a 0.250025,0.250025 0 0 0 -0.03125,-0.09375 0.250025,0.250025 0 0 0 -0.0625,-0.09375 0.250025,0.250025 0 0 0 -0.0625,-0.03125 0.250025,0.250025 0 0 0 -0.0625,-0.03125 l -0.125,-0.03125 c -0.275873,-0.04696 -0.538758,-0.2383021 -0.625,-0.8125 -0.0011,-0.0092 0.0011,-0.02193 0,-0.03125 -0.02172,-0.1882091 -0.04698,-0.4154211 -0.0625,-0.625 C 11.090104,6.1211102 10.766257,5.5995433 10.387214,5.2875984 10.008172,4.9756533 9.5856033,4.8694233 9.3247147,4.8500983 l -0.125,0 a 0.250025,0.250025 0 0 0 -0.0625,0 0.250025,0.250025 0 0 0 -0.03125,0 0.250025,0.250025 0 0 0 -0.03125,0 z"
       id="path3521-90-4-7-7-3-1-3-9-6"
       style="font-size:8.14663982px;font-style:normal;font-variant:normal;font-weight:bold;font-stretch:normal;text-indent:0;text-align:start;text-decoration:none;line-height:125%;letter-spacing:2px;word-spacing:0px;text-transform:none;direction:ltr;block-progression:tb;writing-mode:lr-tb;text-anchor:start;baseline-shift:baseline;color:#000000;fill:#ffffff;fill-opacity:1;fill-rule:nonzero;stroke:none;stroke-width:0.9999997;marker:none;visibility:visible;display:block;overflow:visible;enable-background:new;font-family:Cantarell;-inkscape-font-specification:Cantarell Bold" />
    <path
       d="m 6.501494,3.8197687 c -0.255625,0.01929 -0.682178,0.126648 -1.0625,0.4375001 -0.380323,0.310852 -0.7029,0.8292277 -0.78125,1.6562497 -0.01595,0.215408 -0.04213,0.4423849 -0.0625,0.625 -0.001,0.009 0.0011,0.02233 0,0.03125 -0.08624,0.5741969 -0.349126,0.7655429 -0.625,0.8125 l -0.125,0.03125 a 0.250025,0.250025 0 0 0 -0.09375,0.03125 0.250025,0.250025 0 0 0 -0.09375,0.09375 0.250025,0.250025 0 0 0 -0.03125,0.125 l 0,0.8125 a 0.250025,0.250025 0 0 0 0.03125,0.09375 0.250025,0.250025 0 0 0 0.03125,0.0625 0.250025,0.250025 0 0 0 0.03125,0.03125 0.250025,0.250025 0 0 0 0.03125,0.03125 0.250025,0.250025 0 0 0 0.09375,0.03125 l 0.125,0.03125 0.03125,0 c 0.08878,0.02005 0.172921,0.03869 0.25,0.09375 0.1907,0.138412 0.265101,0.347812 0.3125,0.59375 0.0474,0.245939 0.06321,0.5158069 0.09375,0.8124995 0.08313,0.818208 0.426004,1.357861 0.8125,1.65625 0.376151,0.290403 0.76763,0.356921 1,0.375 0.0064,4.97e-4 0.02511,-4e-4 0.03125,0 l 0.125,0.03125 a 0.250025,0.250025 0 0 0 0.0625,0 0.250025,0.250025 0 0 0 0.0625,-0.03125 0.250025,0.250025 0 0 0 0.0625,-0.03125 0.250025,0.250025 0 0 0 0.03125,-0.03125 0.250025,0.250025 0 0 0 0.03125,-0.0625 0.250025,0.250025 0 0 0 0,-0.03125 l 0.21875,-0.84375 a 0.250025,0.250025 0 0 0 0,-0.03125 0.250025,0.250025 0 0 0 0,-0.0625 0.250025,0.250025 0 0 0 -0.03125,-0.0625 0.250025,0.250025 0 0 0 -0.03125,-0.0625 0.250025,0.250025 0 0 0 -0.03125,-0.03125 0.250025,0.250025 0 0 0 -0.03125,-0.03125 0.250025,0.250025 0 0 0 -0.09375,-0.03125 l -0.1875,0 c -0.18184,-0.02204 -0.344489,-0.172984 -0.4375,-0.3125 -0.157601,-0.242238 -0.16703,-0.6941587 -0.21875,-1.2187497 -0.04542,-0.460684 -0.247644,-0.95497 -0.625,-1.375 0.373019,-0.4195051 0.548421,-0.916167 0.59375,-1.375 0.05042,-0.5104071 0.09838,-0.9669151 0.25,-1.21875 0.09479,-0.142182 0.260598,-0.2910571 0.4375,-0.3125 l 0.1875,-0.03125 a 0.250025,0.250025 0 0 0 0.0625,0 0.250025,0.250025 0 0 0 0.09375,-0.0625 0.250025,0.250025 0 0 0 0.03125,-0.0625 0.250025,0.250025 0 0 0 0.03125,-0.09375 0.250025,0.250025 0 0 0 0,-0.0625 0.250025,0.250025 0 0 0 0,-0.03125 L 6.876494,4.0072684 a 0.250025,0.250025 0 0 0 0,-0.03125 0.250025,0.250025 0 0 0 -0.03125,-0.0625 0.250025,0.250025 0 0 0 -0.0625,-0.0625 0.250025,0.250025 0 0 0 -0.0625,-0.03125 0.250025,0.250025 0 0 0 -0.0625,0 0.250025,0.250025 0 0 0 -0.03125,0 l -0.125,0 z m 2.6250007,0 a 0.250025,0.250025 0 0 0 -0.0625,0.0625 0.250025,0.250025 0 0 0 -0.03125,0.03125 0.250025,0.250025 0 0 0 -0.03125,0.0625 0.250025,0.250025 0 0 0 -0.03125,0.03125 l -0.1875,0.8124999 a 0.250025,0.250025 0 0 0 0,0.0625 0.250025,0.250025 0 0 0 0.03125,0.09375 0.250025,0.250025 0 0 0 0.03125,0.0625 0.250025,0.250025 0 0 0 0.03125,0.03125 0.250025,0.250025 0 0 0 0.03125,0.03125 0.250025,0.250025 0 0 0 0.09375,0.03125 l 0.1875,0.03125 c 0.1763038,0.02137 0.340045,0.166318 0.4375,0.3125 0.1515232,0.251867 0.1683378,0.708458 0.21875,1.21875 0.045371,0.4592679 0.2511063,0.9552899 0.6249993,1.375 -0.377356,0.42003 -0.5795796,0.914316 -0.6249993,1.375 -0.05172,0.524591 -0.061149,0.9765114 -0.21875,1.2187494 -0.095677,0.143516 -0.2562555,0.290531 -0.4375,0.3125 l -0.1875,0 a 0.250025,0.250025 0 0 0 -0.03125,0.03125 0.250025,0.250025 0 0 0 -0.09375,0.0625 0.250025,0.250025 0 0 0 -0.03125,0.03125 0.250025,0.250025 0 0 0 -0.03125,0.0625 0.250025,0.250025 0 0 0 -0.03125,0.125 l 0.1875,0.84375 a 0.250025,0.250025 0 0 0 0.0625,0.09375 0.250025,0.250025 0 0 0 0.03125,0.03125 0.250025,0.250025 0 0 0 0.03125,0.03125 0.250025,0.250025 0 0 0 0.09375,0.03125 0.250025,0.250025 0 0 0 0.0625,0 l 0.125,-0.03125 c 0.00614,-4e-4 0.02486,4.97e-4 0.03125,0 0.2323694,-0.01808 0.6238473,-0.0846 0.9999993,-0.375 0.386496,-0.298388 0.729367,-0.838042 0.8125,-1.65625 0.03054,-0.2966873 0.04635,-0.5665573 0.09375,-0.8124993 0.0474,-0.245942 0.121821,-0.455341 0.3125,-0.59375 0.07296,-0.05211 0.158267,-0.07303 0.25,-0.09375 l 0.03125,0 0.125,-0.03125 a 0.250025,0.250025 0 0 0 0.09375,-0.03125 0.250025,0.250025 0 0 0 0.09375,-0.09375 0.250025,0.250025 0 0 0 0.03125,-0.09375 0.250025,0.250025 0 0 0 0,-0.03125 l 0,-0.8125 a 0.250025,0.250025 0 0 0 -0.03125,-0.09375 0.250025,0.250025 0 0 0 -0.0625,-0.09375 0.250025,0.250025 0 0 0 -0.0625,-0.03125 0.250025,0.250025 0 0 0 -0.0625,-0.03125 l -0.125,-0.03125 c -0.275873,-0.04696 -0.538758,-0.2383021 -0.625,-0.8125 -0.0011,-0.0092 0.0011,-0.02193 0,-0.03125 -0.02172,-0.1882091 -0.04698,-0.4154211 -0.0625,-0.625 C 11.141884,5.0907807 10.818037,4.5692138 10.438994,4.2572689 10.059952,3.9453238 9.6373833,3.8390938 9.3764947,3.8197688 l -0.125,0 a 0.250025,0.250025 0 0 0 -0.0625,0 0.250025,0.250025 0 0 0 -0.03125,0 0.250025,0.250025 0 0 0 -0.03125,0 z"
       id="path3521-90-4-7-7-3-1-3-9-6-5"
       style="font-size:8.14663982px;font-style:normal;font-variant:normal;font-weight:bold;font-stretch:normal;text-indent:0;text-align:start;text-decoration:none;line-height:125%;letter-spacing:2px;word-spacing:0px;text-transform:none;direction:ltr;block-progression:tb;writing-mode:lr-tb;text-anchor:start;baseline-shift:baseline;color:#000000;fill:url(#linearGradient3161-1-5-9-6-1);fill-opacity:1;fill-rule:nonzero;stroke:none;stroke-width:0.9999997;marker:none;visibility:visible;display:block;overflow:visible;enable-background:new;font-family:Cantarell;-inkscape-font-specification:Cantarell Bold" />
  </g>
</svg>
