<?xml version="1.0" encoding="UTF-8"?>
<!-- Licensed under the Creative Commons Attribution-Share Alike 3.0 United States License (http://creativecommons.org/licenses/by-sa/3.0/) -->
<svg xmlns="http://www.w3.org/2000/svg" id="root" version="1.1" viewBox="0 0 16 16">
 <defs>
  <radialGradient id="b" cx="301" cy="51.5" r="19.5" gradientUnits="userSpaceOnUse" gradientTransform="matrix(.97063 1.9684e-8 0 .28611 -291.16 -14.63)">
   <stop stop-color="#fff" offset="0"/>
   <stop stop-color="#fff" stop-opacity="0" offset="1"/>
  </radialGradient>
  <radialGradient id="a" cx="24.446" cy="35.878" r="20.531" gradientUnits="userSpaceOnUse" gradientTransform="matrix(.85696 3.2529e-7 -1.253e-7 .33010 -12.949 .77181)">
   <stop stop-color="#fff" offset="0"/>
   <stop stop-color="#dcdcdc" offset="1"/>
  </radialGradient>
  <linearGradient id="c" x1="321.57" x2="311.65" y1="145.52" y2="118.5" gradientUnits="userSpaceOnUse" gradientTransform="matrix(.55569 0 0 .55568 -169.27 -70.906)">
   <stop stop-color="#9b9b9b" offset="0"/>
   <stop stop-color="#d3d7cf" offset="1"/>
  </linearGradient>
  <linearGradient id="d" x1="491.22" x2="491.22" y1="506.65" y2="732.05" gradientUnits="userSpaceOnUse" gradientTransform="matrix(.093294 0 0 .093294 -35.871 -43.769)">
   <stop stop-color="#888a85" offset="0"/>
   <stop stop-color="#d3d7cf" offset="1"/>
  </linearGradient>
 </defs>
 <rect width="15.004" height="15.003" x=".49815" y=".49833" fill="url(#a)" fill-rule="evenodd" stroke="url(#c)" stroke-miterlimit="10" rx="1.5143" ry="1.5143" stroke-linejoin="bevel"/>
 <rect width="12.997" height="13" x="1.5014" y="1.5016" fill="none" stroke="#fff" stroke-miterlimit="10" ry=".50810" stroke-linejoin="bevel" rx=".50812"/>
 <rect width="14" height="14" x="1.0017" y="1.0016" fill="url(#b)" fill-rule="evenodd" rx="1.9062" ry="1.9062"/>
 <path fill="#fff" d="m9.0593 4.8342c-1.0619 0-1.8016 0.3977-2.25 0.875-0.44838 0.4773-0.61719 1.005-0.6875 1.3438l-0.0625 0.25h-0.71875a0.25002 0.25002 0 0 0 -0.0625 0 0.25002 0.25002 0 0 0 -0.09375 0.0625 0.25002 0.25002 0 0 0 -0.03125 0.03125 0.25002 0.25002 0 0 0 -0.03125 0.03125 0.25002 0.25002 0 0 0 -0.03125 0.09375l-0.1875 1.0938a0.25002 0.25002 0 0 0 0 0.03125 0.25002 0.25002 0 0 0 0 0.0625 0.25002 0.25002 0 0 0 0.125 0.15625 0.25002 0.25002 0 0 0 0.125 0.03125h0.59375l-0.84375 4.1563a0.25002 0.25002 0 0 0 0 0.0625 0.25002 0.25002 0 0 0 0 0.0625 0.25002 0.25002 0 0 0 0.09375 0.125 0.25002 0.25002 0 0 0 0.03125 0.03125 0.25002 0.25002 0 0 0 0.09375 0.03125 0.25002 0.25002 0 0 0 0.03125 0h1.4062a0.25002 0.25002 0 0 0 0.03125 0 0.25002 0.25002 0 0 0 0.09375 -0.03125 0.25002 0.25002 0 0 0 0.09375 -0.09375 0.25002 0.25002 0 0 0 0.03125 -0.0625l0.84375-4.2813h1.875a0.25002 0.25002 0 0 0 0.03125 0 0.25002 0.25002 0 0 0 0.09375 -0.03125 0.25002 0.25002 0 0 0 0.09375 -0.09375 0.25002 0.25002 0 0 0 0.03125 -0.0625l0.21875-1.0938a0.25002 0.25002 0 0 0 0 -0.0625 0.25002 0.25002 0 0 0 0 -0.0625 0.25002 0.25002 0 0 0 -0.0625 -0.09375 0.25002 0.25002 0 0 0 -0.03125 -0.03125 0.25002 0.25002 0 0 0 -0.0625 -0.03125 0.25002 0.25002 0 0 0 -0.09375 -0.03125h-1.7812l0.03125-0.15625c0.037755-0.19297 0.14732-0.34648 0.34375-0.46875 0.19642-0.12227 0.4762-0.21875 0.8125-0.21875 0.30479 0 0.6559 0.064823 0.78125 0.09375l0.21875 0.0625a0.25002 0.25002 0 0 0 0.0625 0 0.25002 0.25002 0 0 0 0.0625 0 0.25002 0.25002 0 0 0 0.125 -0.09375 0.25002 0.25002 0 0 0 0.03125 -0.03125 0.25002 0.25002 0 0 0 0 -0.03125l0.40625-1a0.25002 0.25002 0 0 0 0.03125 -0.03125 0.25002 0.25002 0 0 0 0 -0.0625 0.25002 0.25002 0 0 0 -0.03125 -0.09375 0.25002 0.25002 0 0 0 -0.03125 -0.0625 0.25002 0.25002 0 0 0 -0.03125 -0.03125 0.25002 0.25002 0 0 0 -0.0625 -0.03125 0.25002 0.25002 0 0 0 -0.03125 -0.03125l-0.1875-0.0625c-0.673-0.2163-1.1307-0.2185-1.4367-0.2185z" display="block"/>
 <path fill="url(#d)" d="m9.1111 3.8039c-1.0619 0-1.8016 0.3977-2.25 0.875-0.44838 0.4773-0.61719 1.005-0.6875 1.3438l-0.0625 0.25h-0.71875a0.25002 0.25002 0 0 0 -0.0625 0 0.25002 0.25002 0 0 0 -0.09375 0.0625 0.25002 0.25002 0 0 0 -0.03125 0.03125 0.25002 0.25002 0 0 0 -0.03125 0.03125 0.25002 0.25002 0 0 0 -0.03125 0.09375l-0.1875 1.0938a0.25002 0.25002 0 0 0 0 0.03125 0.25002 0.25002 0 0 0 0 0.0625 0.25002 0.25002 0 0 0 0.125 0.15625 0.25002 0.25002 0 0 0 0.125 0.03125h0.59375l-0.84375 4.1563a0.25002 0.25002 0 0 0 0 0.0625 0.25002 0.25002 0 0 0 0 0.0625 0.25002 0.25002 0 0 0 0.09375 0.125 0.25002 0.25002 0 0 0 0.03125 0.03125 0.25002 0.25002 0 0 0 0.09375 0.03125 0.25002 0.25002 0 0 0 0.03125 0h1.4062a0.25002 0.25002 0 0 0 0.03125 0 0.25002 0.25002 0 0 0 0.09375 -0.03125 0.25002 0.25002 0 0 0 0.09375 -0.09375 0.25002 0.25002 0 0 0 0.03125 -0.0625l0.84375-4.2813h1.875a0.25002 0.25002 0 0 0 0.03125 0 0.25002 0.25002 0 0 0 0.09375 -0.03125 0.25002 0.25002 0 0 0 0.09375 -0.09375 0.25002 0.25002 0 0 0 0.03125 -0.0625l0.2191-1.0941a0.25002 0.25002 0 0 0 0 -0.0625 0.25002 0.25002 0 0 0 0 -0.0625 0.25002 0.25002 0 0 0 -0.0625 -0.09375 0.25002 0.25002 0 0 0 -0.03125 -0.03125 0.25002 0.25002 0 0 0 -0.0625 -0.03125 0.25002 0.25002 0 0 0 -0.09375 -0.03125h-1.7812l0.03125-0.15625c0.037755-0.19297 0.14732-0.34648 0.34375-0.46875 0.19642-0.12227 0.4762-0.21875 0.8125-0.21875 0.30479 0 0.6559 0.064823 0.78125 0.09375l0.21875 0.0625a0.25002 0.25002 0 0 0 0.0625 0 0.25002 0.25002 0 0 0 0.0625 0 0.25002 0.25002 0 0 0 0.125 -0.09375 0.25002 0.25002 0 0 0 0.03125 -0.03125 0.25002 0.25002 0 0 0 0 -0.03125l0.40625-1a0.25002 0.25002 0 0 0 0.03125 -0.03125 0.25002 0.25002 0 0 0 0 -0.0625 0.25002 0.25002 0 0 0 -0.03125 -0.09375 0.25002 0.25002 0 0 0 -0.03125 -0.0625 0.25002 0.25002 0 0 0 -0.03125 -0.03125 0.25002 0.25002 0 0 0 -0.0625 -0.03125 0.25002 0.25002 0 0 0 -0.03125 -0.03125l-0.1875-0.0625c-0.6732-0.2164-1.1309-0.2186-1.4369-0.2186z" display="block"/>
</svg>
