<?xml version="1.0" encoding="UTF-8"?>
<!-- Licensed under the Creative Commons Attribution-Share Alike 3.0 United States License (http://creativecommons.org/licenses/by-sa/3.0/) -->
<svg xmlns="http://www.w3.org/2000/svg" id="root" version="1.1" viewBox="0 0 16 16">
 <path d="m4.331 3.5-3.2143 9h1.9286c0.95538-2.5714 0.01422 0 0.96959-2.5714h3.2037l0.96958 2.5714h1.9286l-3.2143-9zm1.2857 1.9286 1.2999 3.2143h-2.5714z"/>
 <path d="m10.184 5.5v6.2249 0.77509h0.77509 1.5502c0.72746 0 1.3816-0.29632 1.7924-0.75086 0.4108-0.45455 0.58898-1.0329 0.58132-1.5986-0.008-0.5652-0.221-1.1265-0.63-1.5739-0.408-0.4473-1.03-0.7508-1.744-0.7508h-0.77509v-2.3253h-1.5502zm1.5502 3.8754h0.77509c0.32692 0 0.48028 0.10499 0.60554 0.24221s0.2151 0.34332 0.21799 0.55709c0.0029 0.21378-0.07625 0.40283-0.19377 0.53287s-0.27418 0.24222-0.62976 0.24222h-0.77509v-1.5744z"/>
</svg>
