<?xml version="1.0" encoding="UTF-8"?>
<!-- Licensed under the Creative Commons Attribution-Share Alike 3.0 United States License (http://creativecommons.org/licenses/by-sa/3.0/) -->
<svg xmlns="http://www.w3.org/2000/svg" id="root" version="1.1" viewBox="0 0 16 16">
 <path fill="currentColor" d="m4.5121 6.2993v1.5502h1.4775c-0.042771 0 0.072664 0.10835 0.072664 0.048443v0.72664h-0.77509c-1.33 0-2.3546 0.88446-2.3737 1.9377-0.00955 0.52663 0.24764 1.0489 0.6782 1.4048 0.4306 0.356 1.0151 0.533 1.6955 0.533h1.5502 0.77509v-0.77509-3.827c0-0.90777-0.69518-1.5986-1.6228-1.5986h-1.4775zm0.77509 3.8754h0.77509v0.77509h-0.77509c-0.40259 0-0.60466-0.11294-0.70242-0.19377-0.097767-0.08083-0.12212-0.11377-0.12111-0.16955 0.00202-0.11155 0.071858-0.41176 0.82353-0.41176z"/>
 <path fill="currentColor" d="m8.3876 5.5v6.2249 0.77509h0.77509 1.5502c0.72746 0 1.3816-0.2721 1.7924-0.72664 0.4108-0.45455 0.58898-1.0572 0.58132-1.6228-0.0077-0.56567-0.22141-1.127-0.62976-1.5744-0.40834-0.44736-1.0301-0.75086-1.7439-0.75086h-0.77509v-2.3253h-1.5502zm1.5502 3.8754h0.77509c0.32692 0 0.48028 0.10499 0.60554 0.24221 0.12526 0.13723 0.2151 0.34332 0.21799 0.55709 0.0029 0.21378-0.07625 0.42705-0.19377 0.55709s-0.27418 0.21799-0.62976 0.21799h-0.77509v-1.5744z"/>
</svg>
