<?xml version="1.0" encoding="UTF-8"?>
<!-- Licensed under the Creative Commons Attribution-Share Alike 3.0 United States License (http://creativecommons.org/licenses/by-sa/3.0/) -->
<svg xmlns="http://www.w3.org/2000/svg" id="root" version="1.1" viewBox="0 0 16 16">
 <path fill="currentColor" d="m3.3477 3.5-3.2143 9h1.9286c0.95538-2.5714 0.01422 0 0.96959-2.5714h3.2037l0.96958 2.5714h1.9286l-3.2143-9zm1.2857 1.9286 1.2999 3.2143h-2.5714z"/>
 <path fill="currentColor" d="m9.2007 3.5v9h3.9094c0.84517 0 1.6045-0.34319 2.0812-0.87188 0.47676-0.52868 0.68389-1.1989 0.675-1.8562-0.009-0.65738-0.25732-1.3078-0.73125-1.8281-0.18416-0.2022-0.42169-0.36779-0.675-0.50625 0.21554-0.41233 0.45462-0.81705 0.45-1.2656-0.0067-0.64759-0.21118-1.3113-0.675-1.8281-0.464-0.517-1.208-0.8439-2.025-0.8439zm1.8 1.8h1.2094c0.36227 0 0.53783 0.10027 0.675 0.25312 0.13717 0.15286 0.22247 0.4015 0.225 0.64688 0.0023 0.24538-0.06648 0.47235-0.19688 0.61875-0.13038 0.1464-0.31556 0.25313-0.70312 0.25313h-1.2094zm0 3.5719h2.1094c0.37913 0 0.55745 0.12132 0.70312 0.28125 0.14568 0.15994 0.24975 0.39722 0.25312 0.64687 0.0035 0.24966-0.08832 0.46716-0.225 0.61875-0.136 0.151-0.319 0.281-0.731 0.281h-2.1094z"/>
</svg>
