<?xml version="1.0" encoding="UTF-8" standalone="no"?>
<!-- Created with Inkscape (http://www.inkscape.org/) -->

<svg
   xmlns:dc="http://purl.org/dc/elements/1.1/"
   xmlns:cc="http://creativecommons.org/ns#"
   xmlns:rdf="http://www.w3.org/1999/02/22-rdf-syntax-ns#"
   xmlns:svg="http://www.w3.org/2000/svg"
   xmlns="http://www.w3.org/2000/svg"
   xmlns:xlink="http://www.w3.org/1999/xlink"
   version="1.1"
   width="16"
   height="16"
   id="svg5300">
  <defs
     id="defs5302">
    <linearGradient
       x1="491.22195"
       y1="506.64685"
       x2="491.22195"
       y2="732.05341"
       id="linearGradient3161-1"
       xlink:href="#linearGradient4373-2-5-8-6-8"
       gradientUnits="userSpaceOnUse"
       gradientTransform="matrix(0.09329421,0,0,0.09329421,-35.8706,-43.768871)" />
    <linearGradient
       id="linearGradient4373-2-5-8-6-8">
      <stop
         id="stop4375-3-6-8-4-7"
         style="stop-color:#a40000;stop-opacity:1"
         offset="0" />
      <stop
         id="stop4377-3-5-2-3-7"
         style="stop-color:#f9adad;stop-opacity:1"
         offset="1" />
    </linearGradient>
    <radialGradient
       cx="301"
       cy="51.5"
       r="19.500002"
       fx="301"
       fy="51.5"
       id="radialGradient3175-6"
       xlink:href="#linearGradient8978-0"
       gradientUnits="userSpaceOnUse"
       gradientTransform="matrix(0.9706301,1.96843e-8,0,0.2861052,-291.15791,-14.630261)" />
    <linearGradient
       id="linearGradient8978-0">
      <stop
         id="stop8980-9"
         style="stop-color:#ffffff;stop-opacity:1"
         offset="0" />
      <stop
         id="stop8982-2"
         style="stop-color:#ffffff;stop-opacity:0"
         offset="1" />
    </linearGradient>
    <radialGradient
       cx="24.44569"
       cy="35.87817"
       r="20.530962"
       fx="24.44569"
       fy="35.87817"
       id="radialGradient5208"
       xlink:href="#linearGradient11520-4"
       gradientUnits="userSpaceOnUse"
       gradientTransform="matrix(0.8569597,3.2529443e-7,-1.2530456e-7,0.3301039,-31.728631,-21.533276)" />
    <linearGradient
       id="linearGradient11520-4">
      <stop
         id="stop11522-7"
         style="stop-color:#ffffff;stop-opacity:1"
         offset="0" />
      <stop
         id="stop11524-7"
         style="stop-color:#fabebe;stop-opacity:1"
         offset="1" />
    </linearGradient>
    <linearGradient
       x1="321.5675"
       y1="145.51683"
       x2="311.65057"
       y2="118.49502"
       id="linearGradient5210"
       xlink:href="#linearGradient4247-6"
       gradientUnits="userSpaceOnUse"
       gradientTransform="matrix(0.5556927,0,0,0.5556793,-188.04562,-93.211546)" />
    <linearGradient
       id="linearGradient4247-6">
      <stop
         id="stop4249-2"
         style="stop-color:#a40000;stop-opacity:1"
         offset="0" />
      <stop
         id="stop4251-2"
         style="stop-color:#f9adad;stop-opacity:1"
         offset="1" />
    </linearGradient>
    <radialGradient
       cx="24.44569"
       cy="35.87817"
       r="20.530962"
       fx="24.44569"
       fy="35.87817"
       id="radialGradient5296"
       xlink:href="#linearGradient11520-4"
       gradientUnits="userSpaceOnUse"
       gradientTransform="matrix(0.8569597,3.2529443e-7,-1.2530456e-7,0.3301039,-12.94897,0.77180918)" />
    <linearGradient
       x1="321.5675"
       y1="145.51683"
       x2="311.65057"
       y2="118.49502"
       id="linearGradient5298"
       xlink:href="#linearGradient4247-6"
       gradientUnits="userSpaceOnUse"
       gradientTransform="matrix(0.5556927,0,0,0.5556793,-169.26596,-70.906461)" />
    <linearGradient
       x1="491.22195"
       y1="506.64685"
       x2="491.22195"
       y2="732.05341"
       id="linearGradient3161-1-6"
       xlink:href="#linearGradient4373-2-5-8-6-8-6"
       gradientUnits="userSpaceOnUse"
       gradientTransform="matrix(0.09329421,0,0,0.09329421,-35.8706,-43.768871)" />
    <linearGradient
       id="linearGradient4373-2-5-8-6-8-6">
      <stop
         id="stop4375-3-6-8-4-7-3"
         style="stop-color:#a40000;stop-opacity:1"
         offset="0" />
      <stop
         id="stop4377-3-5-2-3-7-5"
         style="stop-color:#f9adad;stop-opacity:1"
         offset="1" />
    </linearGradient>
    <linearGradient
       x1="491.22195"
       y1="506.64685"
       x2="491.22195"
       y2="732.05341"
       id="linearGradient5518"
       xlink:href="#linearGradient4373-2-5-8-6-8-6"
       gradientUnits="userSpaceOnUse"
       gradientTransform="matrix(0.09329421,0,0,0.09329421,-38.9244,-46.94361)" />
    <radialGradient
       cx="301"
       cy="51.5"
       r="19.500002"
       fx="301"
       fy="51.5"
       id="radialGradient3929"
       xlink:href="#linearGradient8978-0"
       gradientUnits="userSpaceOnUse"
       gradientTransform="matrix(0.9706301,1.96843e-8,0,0.2861052,-291.15791,-14.630261)" />
    <radialGradient
       cx="24.44569"
       cy="35.87817"
       r="20.530962"
       fx="24.44569"
       fy="35.87817"
       id="radialGradient3933"
       xlink:href="#linearGradient11520-4"
       gradientUnits="userSpaceOnUse"
       gradientTransform="matrix(0.8569597,3.2529443e-7,-1.2530456e-7,0.3301039,-12.94897,0.77180918)" />
    <linearGradient
       x1="321.5675"
       y1="145.51683"
       x2="311.65057"
       y2="118.49502"
       id="linearGradient3935"
       xlink:href="#linearGradient4247-6"
       gradientUnits="userSpaceOnUse"
       gradientTransform="matrix(0.5556927,0,0,0.5556793,-169.26596,-70.906461)" />
    <linearGradient
       id="linearGradient4373-2-5-8-6-8-6-4">
      <stop
         id="stop4375-3-6-8-4-7-3-2"
         style="stop-color:#a40000;stop-opacity:1"
         offset="0" />
      <stop
         id="stop4377-3-5-2-3-7-5-2"
         style="stop-color:#f9adad;stop-opacity:1"
         offset="1" />
    </linearGradient>
    <linearGradient
       x1="491.22195"
       y1="506.64685"
       x2="491.22195"
       y2="732.05341"
       id="linearGradient3952"
       xlink:href="#linearGradient4373-2-5-8-6-8-6-4"
       gradientUnits="userSpaceOnUse"
       gradientTransform="matrix(0.09329421,0,0,0.09329421,-39.902379,-47.24489)" />
    <linearGradient
       id="linearGradient4373-2-5-8-6-8-6-4-9">
      <stop
         id="stop4375-3-6-8-4-7-3-2-1"
         style="stop-color:#a40000;stop-opacity:1"
         offset="0" />
      <stop
         id="stop4377-3-5-2-3-7-5-2-5"
         style="stop-color:#f9adad;stop-opacity:1"
         offset="1" />
    </linearGradient>
    <linearGradient
       x1="491.22195"
       y1="506.64685"
       x2="491.22195"
       y2="732.05341"
       id="linearGradient4080"
       xlink:href="#linearGradient4373-2-5-8-6-8-6-4-9"
       gradientUnits="userSpaceOnUse"
       gradientTransform="matrix(0.09329421,0,0,0.09329421,-40.198725,-47.440746)" />
    <linearGradient
       id="linearGradient4373-2-5-8-6-8-6-4-9-8">
      <stop
         id="stop4375-3-6-8-4-7-3-2-1-9"
         style="stop-color:#a40000;stop-opacity:1"
         offset="0" />
      <stop
         id="stop4377-3-5-2-3-7-5-2-5-8"
         style="stop-color:#f9adad;stop-opacity:1"
         offset="1" />
    </linearGradient>
    <linearGradient
       x1="491.22195"
       y1="506.64685"
       x2="491.22195"
       y2="732.05341"
       id="linearGradient4733"
       xlink:href="#linearGradient4373-2-5-8-6-8-6-4-9-8"
       gradientUnits="userSpaceOnUse"
       gradientTransform="matrix(0.09329421,0,0,0.09329421,-40.27489,-47.51691)" />
    <linearGradient
       id="linearGradient4373-2-5-8-6-8-6-4-9-8-3">
      <stop
         id="stop4375-3-6-8-4-7-3-2-1-9-4"
         style="stop-color:#a40000;stop-opacity:1"
         offset="0" />
      <stop
         id="stop4377-3-5-2-3-7-5-2-5-8-2"
         style="stop-color:#f9adad;stop-opacity:1"
         offset="1" />
    </linearGradient>
    <linearGradient
       x1="491.22195"
       y1="506.64685"
       x2="491.22195"
       y2="732.05341"
       id="linearGradient5001"
       xlink:href="#linearGradient4373-2-5-8-6-8-6-4-9-8-3"
       gradientUnits="userSpaceOnUse"
       gradientTransform="matrix(0.09329421,0,0,0.09329421,-40.666495,-47.518871)" />
    <linearGradient
       x1="491.22195"
       y1="506.64685"
       x2="491.22195"
       y2="732.05341"
       id="linearGradient3925-3-9-6-7-5"
       xlink:href="#linearGradient4373-2-5-8-6-8-6-4-9-8-3-9"
       gradientUnits="userSpaceOnUse"
       gradientTransform="matrix(0.09329421,0,0,0.09329421,-35.8706,-43.768871)" />
    <linearGradient
       id="linearGradient4373-2-5-8-6-8-6-4-9-8-3-9">
      <stop
         id="stop4375-3-6-8-4-7-3-2-1-9-4-1"
         style="stop-color:#a40000;stop-opacity:1"
         offset="0" />
      <stop
         id="stop4377-3-5-2-3-7-5-2-5-8-2-8"
         style="stop-color:#f9adad;stop-opacity:1"
         offset="1" />
    </linearGradient>
    <linearGradient
       x1="491.22195"
       y1="506.64685"
       x2="491.22195"
       y2="732.05341"
       id="linearGradient5169"
       xlink:href="#linearGradient4373-2-5-8-6-8-6-4-9-8-3-9"
       gradientUnits="userSpaceOnUse"
       gradientTransform="matrix(0.09329421,0,0,0.09329421,-39.55784,-47.51691)" />
    <linearGradient
       x1="491.22195"
       y1="506.64685"
       x2="491.22195"
       y2="732.05341"
       id="linearGradient3925-3-9-6-7-5-7"
       xlink:href="#linearGradient4373-2-5-8-6-8-6-4-9-8-3-9-2"
       gradientUnits="userSpaceOnUse"
       gradientTransform="matrix(0.09329421,0,0,0.09329421,-35.8706,-43.768871)" />
    <linearGradient
       id="linearGradient4373-2-5-8-6-8-6-4-9-8-3-9-2">
      <stop
         id="stop4375-3-6-8-4-7-3-2-1-9-4-1-7"
         style="stop-color:#a40000;stop-opacity:1"
         offset="0" />
      <stop
         id="stop4377-3-5-2-3-7-5-2-5-8-2-8-6"
         style="stop-color:#f9adad;stop-opacity:1"
         offset="1" />
    </linearGradient>
    <linearGradient
       x1="491.22195"
       y1="506.64685"
       x2="491.22195"
       y2="732.05341"
       id="linearGradient5341"
       xlink:href="#linearGradient4373-2-5-8-6-8-6-4-9-8-3-9-2"
       gradientUnits="userSpaceOnUse"
       gradientTransform="matrix(0.09329421,0,0,0.09329421,-41.010245,-47.516912)" />
  </defs>
  <metadata
     id="metadata5305">
    <rdf:RDF>
      <cc:Work
         rdf:about="">
        <dc:format>image/svg+xml</dc:format>
        <dc:type
           rdf:resource="http://purl.org/dc/dcmitype/StillImage" />
        <dc:title></dc:title>
        <cc:license
           rdf:resource="http://creativecommons.org/licenses/by-sa/3.0/" />
      </cc:Work>
      <cc:License
         rdf:about="http://creativecommons.org/licenses/by-sa/3.0/">
        <cc:permits
           rdf:resource="http://creativecommons.org/ns#Reproduction" />
        <cc:permits
           rdf:resource="http://creativecommons.org/ns#Distribution" />
        <cc:requires
           rdf:resource="http://creativecommons.org/ns#Notice" />
        <cc:requires
           rdf:resource="http://creativecommons.org/ns#Attribution" />
        <cc:permits
           rdf:resource="http://creativecommons.org/ns#DerivativeWorks" />
        <cc:requires
           rdf:resource="http://creativecommons.org/ns#ShareAlike" />
      </cc:License>
    </rdf:RDF>
  </metadata>
  <rect
     width="15.003705"
     height="15.003344"
     rx="1.5143198"
     ry="1.5142833"
     x="0.49814749"
     y="0.49832821"
     id="rect4319-7"
     style="fill:url(#radialGradient3933);fill-opacity:1;fill-rule:evenodd;stroke:url(#linearGradient3935);stroke-width:1.00000095;stroke-linecap:butt;stroke-linejoin:bevel;stroke-miterlimit:10;stroke-opacity:1;stroke-dasharray:none;stroke-dashoffset:0;marker:none;visibility:visible;display:inline;overflow:visible;enable-background:new" />
  <rect
     width="12.997247"
     height="12.999963"
     rx="0.5081172"
     ry="0.50810492"
     x="1.5013518"
     y="1.5016088"
     id="rect4321-0"
     style="fill:none;stroke:#ffffff;stroke-width:0.99999994;stroke-linecap:butt;stroke-linejoin:bevel;stroke-miterlimit:10;stroke-opacity:1;stroke-dasharray:none;stroke-dashoffset:0;marker:none;visibility:visible;display:inline;overflow:visible;enable-background:new" />
  <rect
     width="14.000044"
     height="14.000041"
     rx="1.9062433"
     ry="1.9062428"
     x="1.0017486"
     y="1.0015783"
     id="rect9035-4"
     style="fill:url(#radialGradient3929);fill-opacity:1;fill-rule:evenodd;stroke:none;stroke-width:1;marker:none;visibility:visible;display:inline;overflow:visible;enable-background:new" />
  <path
     d="m 8.1540506,4.7563487 c -0.959403,0 -1.772159,0.2464674 -2.34375,0.6875 -0.571591,0.4410326 -0.875,1.0874574 -0.875,1.8125001 0,0.767377 0.300079,1.3617857 0.75,1.75 0.449921,0.3882143 1.012308,0.5990768 1.5625,0.78125 0.550191,0.1821732 1.1026169,0.3278562 1.4687498,0.5000002 0.1830664,0.08607 0.3253273,0.189273 0.40625,0.28125 0.080923,0.09198 0.09673,0.150116 0.09375,0.28125 0,0.186517 -0.090379,0.354192 -0.34375,0.5 -0.2533707,0.145807 -0.670852,0.25 -1.1562498,0.25 -0.389794,0 -1.073708,-0.125985 -2.09375,-0.5 l -0.1875,-0.0625 a 0.250025,0.250025 0 0 0 -0.09375,-0.03125 0.250025,0.250025 0 0 0 -0.0625,0 0.250025,0.250025 0 0 0 -0.15625,0.125 0.250025,0.250025 0 0 0 -0.03125,0.03125 l -0.46875,1.3125 a 0.250025,0.250025 0 0 0 -0.03125,0.03125 0.250025,0.250025 0 0 0 0,0.0625 0.250025,0.250025 0 0 0 0.03125,0.09375 0.250025,0.250025 0 0 0 0.03125,0.0625 0.250025,0.250025 0 0 0 0.03125,0.03125 0.250025,0.250025 0 0 0 0.0625,0.03125 0.250025,0.250025 0 0 0 0.03125,0 l 0.1875,0.09375 0,-0.03125 c 0.77838,0.302058 1.598281,0.59375 2.65625,0.59375 1.2747053,0 2.1718225,-0.320571 2.7499994,-0.8125 0.578177,-0.49193 0.8125,-1.1637 0.8125,-1.78125 0,-0.753788 -0.304066,-1.2961619 -0.75,-1.6875002 -0.445934,-0.3913383 -1.0136924,-0.6241691 -1.5624996,-0.8125 -0.5488072,-0.1883309 -1.0970258,-0.3332389 -1.4687498,-0.5 -0.185862,-0.083381 -0.323376,-0.1649993 -0.40625,-0.25 -0.08287,-0.085001 -0.125,-0.1750816 -0.125,-0.28125 0,-0.2015172 0.09694,-0.3334515 0.3125,-0.46875 0.21556,-0.1352985 0.580831,-0.25 1.0312498,-0.25 0.6838959,0 1.275116,0.1895545 1.9062496,0.4375 a 0.250025,0.250025 0 0 0 0.0625,0 0.250025,0.250025 0 0 0 0.0625,0 0.250025,0.250025 0 0 0 0.0625,0 0.250025,0.250025 0 0 0 0.09375,-0.0625 0.250025,0.250025 0 0 0 0.03125,-0.0625 0.250025,0.250025 0 0 0 0.03125,-0.03125 l 0.4375,-1.2812501 a 0.250025,0.250025 0 0 0 0,-0.0625 0.250025,0.250025 0 0 0 0,-0.0625 0.250025,0.250025 0 0 0 0,-0.0625 0.250025,0.250025 0 0 0 -0.0625,-0.09375 0.250025,0.250025 0 0 0 -0.0625,-0.03125 l -0.15625,-0.0625 a 0.250025,0.250025 0 0 0 -0.03125,0 c -0.291216,-0.093605 -1.1270651,-0.46875 -2.4374994,-0.46875 z"
     id="text5177-7-7"
     style="font-size:11.52737713px;font-style:normal;font-variant:normal;font-weight:bold;font-stretch:normal;text-align:start;line-height:125%;letter-spacing:0px;word-spacing:0px;writing-mode:lr-tb;text-anchor:start;color:#000000;fill:#ffffff;fill-opacity:1;fill-rule:nonzero;stroke:none;stroke-width:0.9999997;marker:none;visibility:visible;display:block;overflow:visible;enable-background:new;font-family:Cantarell;-inkscape-font-specification:Cantarell Bold" />
  <path
     d="m 8.2666056,3.6562497 c -0.959403,0 -1.772159,0.2464674 -2.34375,0.6875 -0.571591,0.4410326 -0.875,1.0874574 -0.875,1.8125001 0,0.767377 0.300079,1.3617857 0.75,1.75 0.449921,0.3882143 1.012308,0.5990768 1.5625,0.78125 0.550191,0.1821732 1.1026169,0.3278566 1.4687498,0.5 0.1830664,0.086072 0.3253273,0.189273 0.40625,0.28125 0.080923,0.091977 0.09673,0.1501166 0.09375,0.28125 0,0.1865172 -0.090379,0.3541922 -0.34375,0.5000002 -0.2533707,0.145807 -0.670852,0.25 -1.1562498,0.25 -0.389794,0 -1.073708,-0.125985 -2.09375,-0.5000002 l -0.1875,-0.0625 a 0.250025,0.250025 0 0 0 -0.09375,-0.03125 0.250025,0.250025 0 0 0 -0.0625,0 0.250025,0.250025 0 0 0 -0.15625,0.1250002 0.250025,0.250025 0 0 0 -0.03125,0.03125 l -0.46875,1.3125 a 0.250025,0.250025 0 0 0 -0.03125,0.03125 0.250025,0.250025 0 0 0 0,0.0625 0.250025,0.250025 0 0 0 0.03125,0.09375 0.250025,0.250025 0 0 0 0.03125,0.0625 0.250025,0.250025 0 0 0 0.03125,0.03125 0.250025,0.250025 0 0 0 0.0625,0.03125 0.250025,0.250025 0 0 0 0.03125,0 l 0.1875,0.09375 0,-0.03125 c 0.77838,0.302058 1.598281,0.59375 2.65625,0.59375 1.2747053,0 2.1718225,-0.320571 2.7499994,-0.8125 0.578177,-0.49193 0.8125,-1.1637 0.8125,-1.7812502 0,-0.7537881 -0.304066,-1.2961617 -0.75,-1.6875 -0.445934,-0.3913383 -1.0136924,-0.6241691 -1.5624996,-0.8125 -0.5488072,-0.1883309 -1.0970258,-0.3332389 -1.4687498,-0.5 -0.185862,-0.083381 -0.323376,-0.1649993 -0.40625,-0.25 -0.08287,-0.085001 -0.125,-0.1750816 -0.125,-0.28125 0,-0.2015172 0.09694,-0.3334515 0.3125,-0.46875 0.21556,-0.1352985 0.580831,-0.25 1.0312498,-0.25 0.6838959,0 1.275116,0.1895545 1.9062496,0.4375 a 0.250025,0.250025 0 0 0 0.0625,0 0.250025,0.250025 0 0 0 0.0625,0 0.250025,0.250025 0 0 0 0.0625,0 0.250025,0.250025 0 0 0 0.09375,-0.0625 0.250025,0.250025 0 0 0 0.03125,-0.0625 0.250025,0.250025 0 0 0 0.03125,-0.03125 l 0.4375,-1.2812501 a 0.250025,0.250025 0 0 0 0,-0.0625 0.250025,0.250025 0 0 0 0,-0.0625 0.250025,0.250025 0 0 0 0,-0.0625 0.250025,0.250025 0 0 0 -0.0625,-0.09375 0.250025,0.250025 0 0 0 -0.0625,-0.03125 l -0.15625,-0.0625 a 0.250025,0.250025 0 0 0 -0.03125,0 c -0.291216,-0.093605 -1.1270651,-0.46875 -2.4374994,-0.46875 z"
     id="text5177-7-7-1"
     style="font-size:11.52737713px;font-style:normal;font-variant:normal;font-weight:bold;font-stretch:normal;text-align:start;line-height:125%;letter-spacing:0px;word-spacing:0px;writing-mode:lr-tb;text-anchor:start;color:#000000;fill:url(#linearGradient3925-3-9-6-7-5-7);fill-opacity:1;fill-rule:nonzero;stroke:none;stroke-width:0.9999997;marker:none;visibility:visible;display:block;overflow:visible;enable-background:new;font-family:Cantarell;-inkscape-font-specification:Cantarell Bold" />
</svg>
