<?xml version="1.0" encoding="UTF-8"?>
<!-- Licensed under the Creative Commons Attribution-Share Alike 3.0 United States License (http://creativecommons.org/licenses/by-sa/3.0/) -->
<svg xmlns="http://www.w3.org/2000/svg" id="root" version="1.1" viewBox="0 0 16 16">
 <path fill="currentColor" d="m8 3.1749e-7c-4.4135 0-8 3.5865-8 8 3.3715e-7 4.414 3.5865 8 8 8 4.414 0 8-3.586 8-8 0-4.4135-3.586-8-8-8zm0 2.1085c3.2585 0 5.8915 2.633 5.8915 5.8915s-2.6329 5.8915-5.8915 5.8915c-3.2585 0-5.8915-2.6329-5.8915-5.8915 0-3.2585 2.633-5.8915 5.8915-5.8915z"/>
 <path fill="currentColor" d="m11.106 4.26a0.53434 0.53434 0 0 0 -0.268 0.1669l-2.838 2.8384-1.7698-1.7698a0.53434 0.53434 0 1 0 -0.7347 0.7347l2.1372 2.1372a0.53434 0.53434 0 0 0 0.73465 0l3.2056-3.2058a0.53434 0.53434 0 0 0 -0.467 -0.9016z"/>
</svg>
