<?xml version="1.0" encoding="UTF-8" standalone="no"?>
<!-- Created with Inkscape (http://www.inkscape.org/) -->

<svg
   xmlns:dc="http://purl.org/dc/elements/1.1/"
   xmlns:cc="http://creativecommons.org/ns#"
   xmlns:rdf="http://www.w3.org/1999/02/22-rdf-syntax-ns#"
   xmlns:svg="http://www.w3.org/2000/svg"
   xmlns="http://www.w3.org/2000/svg"
   xmlns:xlink="http://www.w3.org/1999/xlink"
   version="1.1"
   width="16"
   height="16"
   id="svg5300">
  <defs
     id="defs5302">
    <linearGradient
       x1="491.22195"
       y1="506.64685"
       x2="491.22195"
       y2="732.05341"
       id="linearGradient3161-1"
       xlink:href="#linearGradient4373-2-5-8-6-8"
       gradientUnits="userSpaceOnUse"
       gradientTransform="matrix(0.09329421,0,0,0.09329421,-35.8706,-43.768871)" />
    <linearGradient
       id="linearGradient4373-2-5-8-6-8">
      <stop
         id="stop4375-3-6-8-4-7"
         style="stop-color:#a40000;stop-opacity:1"
         offset="0" />
      <stop
         id="stop4377-3-5-2-3-7"
         style="stop-color:#f9adad;stop-opacity:1"
         offset="1" />
    </linearGradient>
    <radialGradient
       cx="301"
       cy="51.5"
       r="19.500002"
       fx="301"
       fy="51.5"
       id="radialGradient3175-6"
       xlink:href="#linearGradient8978-0"
       gradientUnits="userSpaceOnUse"
       gradientTransform="matrix(0.9706301,1.96843e-8,0,0.2861052,-291.15791,-14.630261)" />
    <linearGradient
       id="linearGradient8978-0">
      <stop
         id="stop8980-9"
         style="stop-color:#ffffff;stop-opacity:1"
         offset="0" />
      <stop
         id="stop8982-2"
         style="stop-color:#ffffff;stop-opacity:0"
         offset="1" />
    </linearGradient>
    <radialGradient
       cx="24.44569"
       cy="35.87817"
       r="20.530962"
       fx="24.44569"
       fy="35.87817"
       id="radialGradient5208"
       xlink:href="#linearGradient11520-4"
       gradientUnits="userSpaceOnUse"
       gradientTransform="matrix(0.8569597,3.2529443e-7,-1.2530456e-7,0.3301039,-31.728631,-21.533276)" />
    <linearGradient
       id="linearGradient11520-4">
      <stop
         id="stop11522-7"
         style="stop-color:#ffffff;stop-opacity:1"
         offset="0" />
      <stop
         id="stop11524-7"
         style="stop-color:#fabebe;stop-opacity:1"
         offset="1" />
    </linearGradient>
    <linearGradient
       x1="321.5675"
       y1="145.51683"
       x2="311.65057"
       y2="118.49502"
       id="linearGradient5210"
       xlink:href="#linearGradient4247-6"
       gradientUnits="userSpaceOnUse"
       gradientTransform="matrix(0.5556927,0,0,0.5556793,-188.04562,-93.211546)" />
    <linearGradient
       id="linearGradient4247-6">
      <stop
         id="stop4249-2"
         style="stop-color:#a40000;stop-opacity:1"
         offset="0" />
      <stop
         id="stop4251-2"
         style="stop-color:#f9adad;stop-opacity:1"
         offset="1" />
    </linearGradient>
    <radialGradient
       cx="24.44569"
       cy="35.87817"
       r="20.530962"
       fx="24.44569"
       fy="35.87817"
       id="radialGradient5296"
       xlink:href="#linearGradient11520-4"
       gradientUnits="userSpaceOnUse"
       gradientTransform="matrix(0.8569597,3.2529443e-7,-1.2530456e-7,0.3301039,-12.94897,0.77180918)" />
    <linearGradient
       x1="321.5675"
       y1="145.51683"
       x2="311.65057"
       y2="118.49502"
       id="linearGradient5298"
       xlink:href="#linearGradient4247-6"
       gradientUnits="userSpaceOnUse"
       gradientTransform="matrix(0.5556927,0,0,0.5556793,-169.26596,-70.906461)" />
    <linearGradient
       x1="491.22195"
       y1="506.64685"
       x2="491.22195"
       y2="732.05341"
       id="linearGradient3161-1-6"
       xlink:href="#linearGradient4373-2-5-8-6-8-6"
       gradientUnits="userSpaceOnUse"
       gradientTransform="matrix(0.09329421,0,0,0.09329421,-35.8706,-43.768871)" />
    <linearGradient
       id="linearGradient4373-2-5-8-6-8-6">
      <stop
         id="stop4375-3-6-8-4-7-3"
         style="stop-color:#a40000;stop-opacity:1"
         offset="0" />
      <stop
         id="stop4377-3-5-2-3-7-5"
         style="stop-color:#f9adad;stop-opacity:1"
         offset="1" />
    </linearGradient>
    <linearGradient
       x1="491.22195"
       y1="506.64685"
       x2="491.22195"
       y2="732.05341"
       id="linearGradient5518"
       xlink:href="#linearGradient4373-2-5-8-6-8-6"
       gradientUnits="userSpaceOnUse"
       gradientTransform="matrix(0.09329421,0,0,0.09329421,-38.9244,-46.94361)" />
    <radialGradient
       cx="301"
       cy="51.5"
       r="19.500002"
       fx="301"
       fy="51.5"
       id="radialGradient3929"
       xlink:href="#linearGradient8978-0"
       gradientUnits="userSpaceOnUse"
       gradientTransform="matrix(0.9706301,1.96843e-8,0,0.2861052,-291.15791,-14.630261)" />
    <radialGradient
       cx="24.44569"
       cy="35.87817"
       r="20.530962"
       fx="24.44569"
       fy="35.87817"
       id="radialGradient3933"
       xlink:href="#linearGradient11520-4"
       gradientUnits="userSpaceOnUse"
       gradientTransform="matrix(0.8569597,3.2529443e-7,-1.2530456e-7,0.3301039,-12.94897,0.77180918)" />
    <linearGradient
       x1="321.5675"
       y1="145.51683"
       x2="311.65057"
       y2="118.49502"
       id="linearGradient3935"
       xlink:href="#linearGradient4247-6"
       gradientUnits="userSpaceOnUse"
       gradientTransform="matrix(0.5556927,0,0,0.5556793,-169.26596,-70.906461)" />
    <linearGradient
       id="linearGradient4373-2-5-8-6-8-6-4">
      <stop
         id="stop4375-3-6-8-4-7-3-2"
         style="stop-color:#a40000;stop-opacity:1"
         offset="0" />
      <stop
         id="stop4377-3-5-2-3-7-5-2"
         style="stop-color:#f9adad;stop-opacity:1"
         offset="1" />
    </linearGradient>
    <linearGradient
       x1="491.22195"
       y1="506.64685"
       x2="491.22195"
       y2="732.05341"
       id="linearGradient3952"
       xlink:href="#linearGradient4373-2-5-8-6-8-6-4"
       gradientUnits="userSpaceOnUse"
       gradientTransform="matrix(0.09329421,0,0,0.09329421,-39.902379,-47.24489)" />
    <linearGradient
       x1="491.22195"
       y1="506.64685"
       x2="491.22195"
       y2="732.05341"
       id="linearGradient3925-3-9"
       xlink:href="#linearGradient4373-2-5-8-6-8-6-4-9"
       gradientUnits="userSpaceOnUse"
       gradientTransform="matrix(0.09329421,0,0,0.09329421,-35.8706,-43.768871)" />
    <linearGradient
       id="linearGradient4373-2-5-8-6-8-6-4-9">
      <stop
         id="stop4375-3-6-8-4-7-3-2-1"
         style="stop-color:#a40000;stop-opacity:1"
         offset="0" />
      <stop
         id="stop4377-3-5-2-3-7-5-2-5"
         style="stop-color:#f9adad;stop-opacity:1"
         offset="1" />
    </linearGradient>
    <linearGradient
       x1="491.22195"
       y1="506.64685"
       x2="491.22195"
       y2="732.05341"
       id="linearGradient4080"
       xlink:href="#linearGradient4373-2-5-8-6-8-6-4-9"
       gradientUnits="userSpaceOnUse"
       gradientTransform="matrix(0.09329421,0,0,0.09329421,-40.198725,-47.440746)" />
    <linearGradient
       x1="491.22195"
       y1="506.64685"
       x2="491.22195"
       y2="732.05341"
       id="linearGradient3925-3-9-6"
       xlink:href="#linearGradient4373-2-5-8-6-8-6-4-9-8"
       gradientUnits="userSpaceOnUse"
       gradientTransform="matrix(0.09329421,0,0,0.09329421,-35.8706,-43.768871)" />
    <linearGradient
       id="linearGradient4373-2-5-8-6-8-6-4-9-8">
      <stop
         id="stop4375-3-6-8-4-7-3-2-1-9"
         style="stop-color:#a40000;stop-opacity:1"
         offset="0" />
      <stop
         id="stop4377-3-5-2-3-7-5-2-5-8"
         style="stop-color:#f9adad;stop-opacity:1"
         offset="1" />
    </linearGradient>
    <linearGradient
       x1="491.22195"
       y1="506.64685"
       x2="491.22195"
       y2="732.05341"
       id="linearGradient4733"
       xlink:href="#linearGradient4373-2-5-8-6-8-6-4-9-8"
       gradientUnits="userSpaceOnUse"
       gradientTransform="matrix(0.09329421,0,0,0.09329421,-40.27489,-47.51691)" />
  </defs>
  <metadata
     id="metadata5305">
    <rdf:RDF>
      <cc:Work
         rdf:about="">
        <dc:format>image/svg+xml</dc:format>
        <dc:type
           rdf:resource="http://purl.org/dc/dcmitype/StillImage" />
        <dc:title></dc:title>
        <cc:license
           rdf:resource="http://creativecommons.org/licenses/by-sa/3.0/" />
      </cc:Work>
      <cc:License
         rdf:about="http://creativecommons.org/licenses/by-sa/3.0/">
        <cc:permits
           rdf:resource="http://creativecommons.org/ns#Reproduction" />
        <cc:permits
           rdf:resource="http://creativecommons.org/ns#Distribution" />
        <cc:requires
           rdf:resource="http://creativecommons.org/ns#Notice" />
        <cc:requires
           rdf:resource="http://creativecommons.org/ns#Attribution" />
        <cc:permits
           rdf:resource="http://creativecommons.org/ns#DerivativeWorks" />
        <cc:requires
           rdf:resource="http://creativecommons.org/ns#ShareAlike" />
      </cc:License>
    </rdf:RDF>
  </metadata>
  <rect
     width="15.003705"
     height="15.003344"
     rx="1.5143198"
     ry="1.5142833"
     x="0.49814749"
     y="0.49832821"
     id="rect4319-7"
     style="fill:url(#radialGradient3933);fill-opacity:1;fill-rule:evenodd;stroke:url(#linearGradient3935);stroke-width:1.00000095;stroke-linecap:butt;stroke-linejoin:bevel;stroke-miterlimit:10;stroke-opacity:1;stroke-dasharray:none;stroke-dashoffset:0;marker:none;visibility:visible;display:inline;overflow:visible;enable-background:new" />
  <rect
     width="12.997247"
     height="12.999963"
     rx="0.5081172"
     ry="0.50810492"
     x="1.5013518"
     y="1.5016088"
     id="rect4321-0"
     style="fill:none;stroke:#ffffff;stroke-width:0.99999994;stroke-linecap:butt;stroke-linejoin:bevel;stroke-miterlimit:10;stroke-opacity:1;stroke-dasharray:none;stroke-dashoffset:0;marker:none;visibility:visible;display:inline;overflow:visible;enable-background:new" />
  <rect
     width="14.000044"
     height="14.000041"
     rx="1.9062433"
     ry="1.9062428"
     x="1.0017486"
     y="1.0015783"
     id="rect9035-4"
     style="fill:url(#radialGradient3929);fill-opacity:1;fill-rule:evenodd;stroke:none;stroke-width:1;marker:none;visibility:visible;display:inline;overflow:visible;enable-background:new" />
  <path
     d="m 4.9353007,4.850099 c -0.03291,0.00406 -0.06499,0.014754 -0.09375,0.03125 -0.02216,0.00743 -0.04326,0.017981 -0.0625,0.03125 -0.01131,0.00947 -0.02175,0.019939 -0.03125,0.03125 -0.02758,0.025975 -0.04913,0.058305 -0.0625,0.09375 -0.0026,0.020724 -0.0026,0.041776 0,0.0625 l 0,8 a 0.250025,0.250025 0 0 0 0,0.0625 0.250025,0.250025 0 0 0 0.03125,0.0625 0.250025,0.250025 0 0 0 0.03125,0.03125 0.250025,0.250025 0 0 0 0.03125,0.03125 0.250025,0.250025 0 0 0 0.0625,0.03125 0.250025,0.250025 0 0 0 0.09375,0.03125 l 1.4374997,0 a 0.250025,0.250025 0 0 0 0.09375,-0.03125 0.250025,0.250025 0 0 0 0.0625,-0.03125 0.250025,0.250025 0 0 0 0.03125,-0.03125 0.250025,0.250025 0 0 0 0.03125,-0.03125 0.250025,0.250025 0 0 0 0.03125,-0.03125 0.250025,0.250025 0 0 0 0,-0.0625 0.250025,0.250025 0 0 0 0,-0.03125 l 0,-2.875 c 0.1149081,0.0052 0.2182086,0.03125 0.34375,0.03125 0.8773303,0 1.8771032,-0.05577 2.6875,-0.4375 0.8103966,-0.3817315 1.4374996,-1.1250996 1.4374996,-2.34375 0,-1.1859421 -0.65393,-1.9067539 -1.4062496,-2.25 -0.7523196,-0.3432461 -1.5933054,-0.375 -2.125,-0.375 l -2.6249997,0 z m 1.6874997,1.8125 0.78125,0 c 0.502668,0 0.9798162,0.028766 1.28125,0.15625 0.3014338,0.1274839 0.4375,0.2779793 0.4375,0.6875 0,0.23499 -0.037039,0.3814267 -0.125,0.5 -0.087961,0.1185733 -0.2233926,0.2110623 -0.40625,0.28125 -0.3657149,0.1403755 -0.9332062,0.1875 -1.53125,0.1875 -0.144116,0 -0.2905331,-0.021575 -0.4375,-0.03125 l 0,-1.78125 z"
     id="path7036-2"
     style="font-size:11.52737713px;font-style:normal;font-variant:normal;font-weight:bold;font-stretch:normal;text-align:start;line-height:125%;letter-spacing:0px;word-spacing:0px;writing-mode:lr-tb;text-anchor:start;color:#000000;fill:#ffffff;fill-opacity:1;fill-rule:nonzero;stroke:none;stroke-width:0.9999997;marker:none;visibility:visible;display:block;overflow:visible;enable-background:new;font-family:Cantarell;-inkscape-font-specification:Cantarell Bold" />
  <path
     d="m 5.0478557,3.75 c -0.03291,0.00406 -0.06499,0.014754 -0.09375,0.03125 -0.02216,0.00743 -0.04326,0.017981 -0.0625,0.03125 -0.01131,0.00947 -0.02175,0.019939 -0.03125,0.03125 -0.02758,0.025975 -0.04913,0.058305 -0.0625,0.09375 -0.0026,0.020724 -0.0026,0.041776 0,0.0625 l 0,8 a 0.250025,0.250025 0 0 0 0,0.0625 0.250025,0.250025 0 0 0 0.03125,0.0625 0.250025,0.250025 0 0 0 0.03125,0.03125 0.250025,0.250025 0 0 0 0.03125,0.03125 0.250025,0.250025 0 0 0 0.0625,0.03125 0.250025,0.250025 0 0 0 0.09375,0.03125 l 1.4374997,0 a 0.250025,0.250025 0 0 0 0.09375,-0.03125 0.250025,0.250025 0 0 0 0.0625,-0.03125 0.250025,0.250025 0 0 0 0.03125,-0.03125 0.250025,0.250025 0 0 0 0.03125,-0.03125 0.250025,0.250025 0 0 0 0.03125,-0.03125 0.250025,0.250025 0 0 0 0,-0.0625 0.250025,0.250025 0 0 0 0,-0.03125 l 0,-2.875 c 0.1149081,0.00518 0.2182086,0.03125 0.34375,0.03125 0.8773303,0 1.8771032,-0.055769 2.6875,-0.4375 C 10.577002,8.3370185 11.204105,7.5936504 11.204105,6.375 c 0,-1.1859421 -0.65393,-1.9067539 -1.4062496,-2.25 C 9.0455358,3.7817539 8.20455,3.75 7.6728554,3.75 l -2.6249997,0 z m 1.6874997,1.8125 0.78125,0 c 0.502668,0 0.9798162,0.028766 1.28125,0.15625 0.3014338,0.1274839 0.4375,0.2779793 0.4375,0.6875 0,0.23499 -0.037039,0.3814267 -0.125,0.5 -0.087961,0.1185733 -0.2233926,0.2110623 -0.40625,0.28125 -0.3657149,0.1403755 -0.9332062,0.1875 -1.53125,0.1875 -0.144116,0 -0.2905331,-0.021575 -0.4375,-0.03125 l 0,-1.78125 z"
     id="path7036-2-3"
     style="font-size:11.52737713px;font-style:normal;font-variant:normal;font-weight:bold;font-stretch:normal;text-align:start;line-height:125%;letter-spacing:0px;word-spacing:0px;writing-mode:lr-tb;text-anchor:start;color:#000000;fill:url(#linearGradient3925-3-9-6);fill-opacity:1;fill-rule:nonzero;stroke:none;stroke-width:0.9999997;marker:none;visibility:visible;display:block;overflow:visible;enable-background:new;font-family:Cantarell;-inkscape-font-specification:Cantarell Bold" />
</svg>
