<?xml version="1.0" encoding="UTF-8"?>
<!-- Licensed under the Creative Commons Attribution-Share Alike 3.0 United States License (http://creativecommons.org/licenses/by-sa/3.0/) -->
<svg xmlns="http://www.w3.org/2000/svg" id="root" version="1.1" viewBox="0 0 16 16">
 <path d="m8 2c-3.3101 0-6 2.6899-6 6 0 3.31 2.6899 6 6 6 3.31 0 6-2.69 6-6 0-3.3101-2.69-6-6-6zm0 1.5814c2.4439 0 4.4186 1.9747 4.4186 4.4186s-1.9747 4.4186-4.4186 4.4186-4.4186-1.9747-4.4186-4.4186 1.9747-4.4186 4.4186-4.4186z"/>
 <path d="m10.329 5.195a0.40076 0.40076 0 0 0 -0.2 0.1252l-2.129 2.1288-1.3274-1.3274a0.40076 0.40076 0 1 0 -0.551 0.551l1.6029 1.6029a0.40076 0.40076 0 0 0 0.55098 0l2.4045-2.4043a0.40076 0.40076 0 0 0 -0.351 -0.6762z"/>
</svg>
