<?xml version="1.0" encoding="UTF-8" standalone="no"?>
<!-- Created with Inkscape (http://www.inkscape.org/) -->

<svg
   xmlns:dc="http://purl.org/dc/elements/1.1/"
   xmlns:cc="http://creativecommons.org/ns#"
   xmlns:rdf="http://www.w3.org/1999/02/22-rdf-syntax-ns#"
   xmlns:svg="http://www.w3.org/2000/svg"
   xmlns="http://www.w3.org/2000/svg"
   xmlns:xlink="http://www.w3.org/1999/xlink"
   version="1.1"
   width="16"
   height="16"
   id="svg8842">
  <defs
     id="defs8844">
    <linearGradient
       id="linearGradient7888-2">
      <stop
         id="stop7890-1"
         style="stop-color:#5c3566;stop-opacity:1"
         offset="0" />
      <stop
         id="stop7892-2"
         style="stop-color:#ddc9db;stop-opacity:1"
         offset="1" />
    </linearGradient>
    <radialGradient
       cx="301"
       cy="51.5"
       r="19.500002"
       fx="301"
       fy="51.5"
       id="radialGradient3175-6-6-4-0-5"
       xlink:href="#linearGradient8978-0-9-0-8-0"
       gradientUnits="userSpaceOnUse"
       gradientTransform="matrix(0.9706301,1.96843e-8,0,0.2861052,-291.15791,-14.63026)" />
    <linearGradient
       id="linearGradient8978-0-9-0-8-0">
      <stop
         id="stop8980-9-1-8-4-8"
         style="stop-color:#ffffff;stop-opacity:1"
         offset="0" />
      <stop
         id="stop8982-2-2-4-4-7"
         style="stop-color:#ffffff;stop-opacity:0"
         offset="1" />
    </linearGradient>
    <radialGradient
       cx="24.44569"
       cy="35.87817"
       r="20.530962"
       fx="24.44569"
       fy="35.87817"
       id="radialGradient8752"
       xlink:href="#linearGradient7394-3-6"
       gradientUnits="userSpaceOnUse"
       gradientTransform="matrix(0.8569597,3.2529443e-7,-1.2530456e-7,0.3301039,17.966282,36.432825)" />
    <linearGradient
       id="linearGradient7394-3-6">
      <stop
         id="stop7396-0-1"
         style="stop-color:#ffffff;stop-opacity:1"
         offset="0" />
      <stop
         id="stop7398-2-7"
         style="stop-color:#e4d4e2;stop-opacity:1"
         offset="1" />
    </linearGradient>
    <linearGradient
       x1="321.5675"
       y1="145.51683"
       x2="311.65057"
       y2="118.49502"
       id="linearGradient8754"
       xlink:href="#linearGradient4247-6-9-9-7-1"
       gradientUnits="userSpaceOnUse"
       gradientTransform="matrix(0.5556927,0,0,0.5556793,-138.35071,-35.245445)" />
    <linearGradient
       id="linearGradient4247-6-9-9-7-1">
      <stop
         id="stop4249-2-0-1-7-0"
         style="stop-color:#5c3566;stop-opacity:1"
         offset="0" />
      <stop
         id="stop4251-2-1-0-5-9"
         style="stop-color:#ddc9db;stop-opacity:1"
         offset="1" />
    </linearGradient>
    <radialGradient
       cx="24.44569"
       cy="35.87817"
       r="20.530962"
       fx="24.44569"
       fy="35.87817"
       id="radialGradient8838"
       xlink:href="#linearGradient7394-3-6"
       gradientUnits="userSpaceOnUse"
       gradientTransform="matrix(0.8569597,3.2529443e-7,-1.2530456e-7,0.3301039,-12.948973,0.77180949)" />
    <linearGradient
       x1="321.5675"
       y1="145.51683"
       x2="311.65057"
       y2="118.49502"
       id="linearGradient8840"
       xlink:href="#linearGradient4247-6-9-9-7-1"
       gradientUnits="userSpaceOnUse"
       gradientTransform="matrix(0.5556927,0,0,0.5556793,-169.26596,-70.90646)" />
    <linearGradient
       id="linearGradient7888-2-3">
      <stop
         id="stop7890-1-6"
         style="stop-color:#5c3566;stop-opacity:1"
         offset="0" />
      <stop
         id="stop7892-2-4"
         style="stop-color:#ddc9db;stop-opacity:1"
         offset="1" />
    </linearGradient>
    <linearGradient
       x1="491.22195"
       y1="506.64685"
       x2="491.22195"
       y2="732.05341"
       id="linearGradient9071"
       xlink:href="#linearGradient7888-2-3"
       gradientUnits="userSpaceOnUse"
       gradientTransform="matrix(0.09329421,0,0,0.09329421,-38.924401,-46.943612)" />
    <linearGradient
       x1="491.22195"
       y1="506.64685"
       x2="491.22195"
       y2="732.05341"
       id="linearGradient3161-1-5-9-6-7-1-5"
       xlink:href="#linearGradient7888-2-3-2"
       gradientUnits="userSpaceOnUse"
       gradientTransform="matrix(0.09329421,0,0,0.09329421,-35.870603,-43.768871)" />
    <linearGradient
       id="linearGradient7888-2-3-2">
      <stop
         id="stop7890-1-6-2"
         style="stop-color:#5c3566;stop-opacity:1"
         offset="0" />
      <stop
         id="stop7892-2-4-9"
         style="stop-color:#ddc9db;stop-opacity:1"
         offset="1" />
    </linearGradient>
    <linearGradient
       x1="491.22195"
       y1="506.64685"
       x2="491.22195"
       y2="732.05341"
       id="linearGradient9334"
       xlink:href="#linearGradient7888-2-3-2"
       gradientUnits="userSpaceOnUse"
       gradientTransform="matrix(0.09329421,0,0,0.09329421,-40.94849,-47.587416)" />
    <linearGradient
       x1="491.22195"
       y1="506.64685"
       x2="491.22195"
       y2="732.05341"
       id="linearGradient3161-1-5-9-6-7-1-5-5"
       xlink:href="#linearGradient7888-2-3-2-3"
       gradientUnits="userSpaceOnUse"
       gradientTransform="matrix(0.09329421,0,0,0.09329421,-35.870603,-43.768871)" />
    <linearGradient
       id="linearGradient7888-2-3-2-3">
      <stop
         id="stop7890-1-6-2-7"
         style="stop-color:#5c3566;stop-opacity:1"
         offset="0" />
      <stop
         id="stop7892-2-4-9-8"
         style="stop-color:#ddc9db;stop-opacity:1"
         offset="1" />
    </linearGradient>
    <linearGradient
       x1="491.22195"
       y1="506.64685"
       x2="491.22195"
       y2="732.05341"
       id="linearGradient9521"
       xlink:href="#linearGradient7888-2-3-2-3"
       gradientUnits="userSpaceOnUse"
       gradientTransform="matrix(0.09329421,0,0,0.09329421,-40.51197,-47.494891)" />
    <linearGradient
       x1="491.22195"
       y1="506.64685"
       x2="491.22195"
       y2="732.05341"
       id="linearGradient4209"
       xlink:href="#linearGradient7888-2-3-2-3"
       gradientUnits="userSpaceOnUse"
       gradientTransform="matrix(0.09329421,0,0,0.09329421,-35.870603,-43.768871)" />
    <radialGradient
       cx="301"
       cy="51.5"
       r="19.500002"
       fx="301"
       fy="51.5"
       id="radialGradient4213"
       xlink:href="#linearGradient8978-0-9-0-8-0"
       gradientUnits="userSpaceOnUse"
       gradientTransform="matrix(0.9706301,1.96843e-8,0,0.2861052,-291.15791,-14.63026)" />
    <radialGradient
       cx="24.44569"
       cy="35.87817"
       r="20.530962"
       fx="24.44569"
       fy="35.87817"
       id="radialGradient4217"
       xlink:href="#linearGradient7394-3-6"
       gradientUnits="userSpaceOnUse"
       gradientTransform="matrix(0.8569597,3.2529443e-7,-1.2530456e-7,0.3301039,-12.948973,0.77180949)" />
    <linearGradient
       x1="321.5675"
       y1="145.51683"
       x2="311.65057"
       y2="118.49502"
       id="linearGradient4219"
       xlink:href="#linearGradient4247-6-9-9-7-1"
       gradientUnits="userSpaceOnUse"
       gradientTransform="matrix(0.5556927,0,0,0.5556793,-169.26596,-70.90646)" />
    <linearGradient
       x1="491.22195"
       y1="506.64685"
       x2="491.22195"
       y2="732.05341"
       id="linearGradient4209-0"
       xlink:href="#linearGradient7888-2-3-2-3-9"
       gradientUnits="userSpaceOnUse"
       gradientTransform="matrix(0.09329421,0,0,0.09329421,-35.870603,-43.768871)" />
    <linearGradient
       id="linearGradient7888-2-3-2-3-9">
      <stop
         id="stop7890-1-6-2-7-1"
         style="stop-color:#5c3566;stop-opacity:1"
         offset="0" />
      <stop
         id="stop7892-2-4-9-8-8"
         style="stop-color:#ddc9db;stop-opacity:1"
         offset="1" />
    </linearGradient>
    <linearGradient
       x1="491.22195"
       y1="506.64685"
       x2="491.22195"
       y2="732.05341"
       id="linearGradient4236"
       xlink:href="#linearGradient7888-2-3-2-3-9"
       gradientUnits="userSpaceOnUse"
       gradientTransform="matrix(0.09329421,0,0,0.09329421,-40.214115,-47.58668)" />
  </defs>
  <metadata
     id="metadata8847">
    <rdf:RDF>
      <cc:Work
         rdf:about="">
        <dc:format>image/svg+xml</dc:format>
        <dc:type
           rdf:resource="http://purl.org/dc/dcmitype/StillImage" />
        <dc:title></dc:title>
        <cc:license
           rdf:resource="http://creativecommons.org/licenses/by-sa/3.0/" />
      </cc:Work>
      <cc:License
         rdf:about="http://creativecommons.org/licenses/by-sa/3.0/">
        <cc:permits
           rdf:resource="http://creativecommons.org/ns#Reproduction" />
        <cc:permits
           rdf:resource="http://creativecommons.org/ns#Distribution" />
        <cc:requires
           rdf:resource="http://creativecommons.org/ns#Notice" />
        <cc:requires
           rdf:resource="http://creativecommons.org/ns#Attribution" />
        <cc:permits
           rdf:resource="http://creativecommons.org/ns#DerivativeWorks" />
        <cc:requires
           rdf:resource="http://creativecommons.org/ns#ShareAlike" />
      </cc:License>
    </rdf:RDF>
  </metadata>
  <rect
     width="15.003705"
     height="15.003344"
     rx="1.5143198"
     ry="1.5142833"
     x="0.49814749"
     y="0.49832821"
     id="rect4319-7-2-1-7-0"
     style="fill:url(#radialGradient4217);fill-opacity:1;fill-rule:evenodd;stroke:url(#linearGradient4219);stroke-width:1.00000095;stroke-linecap:butt;stroke-linejoin:bevel;stroke-miterlimit:10;stroke-opacity:1;stroke-dasharray:none;stroke-dashoffset:0;marker:none;visibility:visible;display:inline;overflow:visible;enable-background:new" />
  <rect
     width="12.997247"
     height="12.999963"
     rx="0.5081172"
     ry="0.50810492"
     x="1.5013518"
     y="1.5016088"
     id="rect4321-0-9-4-0-5"
     style="fill:none;stroke:#ffffff;stroke-width:0.99999994;stroke-linecap:butt;stroke-linejoin:bevel;stroke-miterlimit:10;stroke-opacity:1;stroke-dasharray:none;stroke-dashoffset:0;marker:none;visibility:visible;display:inline;overflow:visible;enable-background:new" />
  <rect
     width="14.000044"
     height="14.000041"
     rx="1.9062433"
     ry="1.9062428"
     x="1.0017486"
     y="1.0015783"
     id="rect9035-4-9-5-7-3"
     style="fill:url(#radialGradient4213);fill-opacity:1;fill-rule:evenodd;stroke:none;stroke-width:1;marker:none;visibility:visible;display:inline;overflow:visible;enable-background:new" />
  <path
     d="m 4.9352982,4.8501002 c -0.03291,0.00406 -0.06499,0.014754 -0.09375,0.03125 -0.02216,0.00743 -0.04326,0.017981 -0.0625,0.03125 -0.01131,0.00947 -0.02175,0.019939 -0.03125,0.03125 -0.02758,0.025975 -0.04913,0.058305 -0.0625,0.09375 -0.0026,0.020724 -0.0026,0.041776 0,0.0625 l 0,7.9999998 a 0.250025,0.250025 0 0 0 0,0.0625 0.250025,0.250025 0 0 0 0.03125,0.0625 0.250025,0.250025 0 0 0 0.03125,0.03125 0.250025,0.250025 0 0 0 0.03125,0.03125 0.250025,0.250025 0 0 0 0.0625,0.03125 0.250025,0.250025 0 0 0 0.09375,0.03125 l 1.437499,0 a 0.250025,0.250025 0 0 0 0.09375,-0.03125 0.250025,0.250025 0 0 0 0.0625,-0.03125 0.250025,0.250025 0 0 0 0.03125,-0.03125 0.250025,0.250025 0 0 0 0.03125,-0.03125 0.250025,0.250025 0 0 0 0.03125,-0.03125 0.250025,0.250025 0 0 0 0,-0.0625 0.250025,0.250025 0 0 0 0,-0.03125 l 0,-2.875 c 0.114909,0.0052 0.218209,0.03125 0.34375,0.03125 0.877331,0 1.877104,-0.05577 2.6875,-0.4375002 0.8103968,-0.381731 1.4374998,-1.1250992 1.4374998,-2.3437496 0,-1.1859421 -0.65393,-1.9067539 -1.4062498,-2.25 -0.752319,-0.3432461 -1.593305,-0.375 -2.125,-0.375 l -2.624999,0 z m 1.687499,1.8125 0.78125,0 c 0.502668,0 0.979817,0.028766 1.28125,0.15625 0.301434,0.1274839 0.4375,0.2779793 0.4375,0.6875 0,0.23499 -0.03704,0.3814267 -0.125,0.5 -0.08796,0.1185733 -0.223392,0.2110623 -0.40625,0.28125 -0.365714,0.1403755 -0.933206,0.1875 -1.53125,0.1875 -0.144116,0 -0.290533,-0.021575 -0.4375,-0.03125 l 0,-1.78125 z"
     id="path7036-2-0"
     style="font-size:11.52737713px;font-style:normal;font-variant:normal;font-weight:bold;font-stretch:normal;text-align:start;line-height:125%;letter-spacing:0px;word-spacing:0px;writing-mode:lr-tb;text-anchor:start;color:#000000;fill:#ffffff;fill-opacity:1;fill-rule:nonzero;stroke:none;stroke-width:0.9999997;marker:none;visibility:visible;display:block;overflow:visible;enable-background:new;font-family:Cantarell;-inkscape-font-specification:Cantarell Bold" />
  <path
     d="m 4.9870774,3.81977 c -0.03291,0.0041 -0.06499,0.01475 -0.09375,0.03125 -0.02216,0.0074 -0.04326,0.01798 -0.0625,0.03125 -0.01131,0.0095 -0.02175,0.01994 -0.03125,0.03125 -0.02758,0.02598 -0.04913,0.058305 -0.0625,0.09375 -0.0026,0.020724 -0.0026,0.041776 0,0.0625 l 0,8 a 0.250025,0.250025 0 0 0 0,0.0625 0.250025,0.250025 0 0 0 0.03125,0.0625 0.250025,0.250025 0 0 0 0.03125,0.03125 0.250025,0.250025 0 0 0 0.03125,0.03125 0.250025,0.250025 0 0 0 0.0625,0.03125 0.250025,0.250025 0 0 0 0.09375,0.03125 l 1.437499,0 a 0.250025,0.250025 0 0 0 0.09375,-0.03125 0.250025,0.250025 0 0 0 0.0625,-0.03125 0.250025,0.250025 0 0 0 0.03125,-0.03125 0.250025,0.250025 0 0 0 0.03125,-0.03125 0.250025,0.250025 0 0 0 0.03125,-0.03125 0.250025,0.250025 0 0 0 0,-0.0625 0.250025,0.250025 0 0 0 0,-0.03125 l 0,-2.875 c 0.114909,0.0052 0.218209,0.03125 0.34375,0.03125 0.877331,0 1.877104,-0.05577 2.6875,-0.4375 0.8103976,-0.3817315 1.4375006,-1.1250996 1.4375006,-2.34375 0,-1.1859421 -0.65393,-1.9067539 -1.4062506,-2.25 -0.752319,-0.343246 -1.593305,-0.375 -2.125,-0.375 l -2.624999,0 z m 1.687499,1.8124999 0.78125,0 c 0.502668,0 0.979817,0.028766 1.28125,0.15625 0.301434,0.1274839 0.4375,0.2779793 0.4375,0.6875 0,0.23499 -0.03704,0.3814267 -0.125,0.5 -0.08796,0.1185733 -0.223392,0.2110623 -0.40625,0.28125 -0.365714,0.1403755 -0.933206,0.1875 -1.53125,0.1875 -0.144116,0 -0.290533,-0.021575 -0.4375,-0.03125 l 0,-1.78125 z"
     id="path7036-2-0-6"
     style="font-size:11.52737713px;font-style:normal;font-variant:normal;font-weight:bold;font-stretch:normal;text-align:start;line-height:125%;letter-spacing:0px;word-spacing:0px;writing-mode:lr-tb;text-anchor:start;color:#000000;fill:url(#linearGradient4209-0);fill-opacity:1;fill-rule:nonzero;stroke:none;stroke-width:0.9999997;marker:none;visibility:visible;display:block;overflow:visible;enable-background:new;font-family:Cantarell;-inkscape-font-specification:Cantarell Bold" />
</svg>
