<?xml version="1.0" encoding="UTF-8" standalone="no"?>
<!-- Licensed under the Creative Commons Attribution-Share Alike 3.0 United States License (http://creativecommons.org/licenses/by-sa/3.0/) -->
<svg xmlns="http://www.w3.org/2000/svg" version="1.1" viewBox="0 0 16 16">
 <g transform="matrix(.80143 0 0 .80143 1.1986 1.984)">
  <path style="block-progression:tb;color:#000000" d="m8.4866 0.01994c-4.1303 0-7.4866 3.3563-7.4866 7.4866s3.3563 7.4866 7.4866 7.4866 7.4866-3.3563 7.4866-7.4866-3.3563-7.4866-7.4866-7.4866zm0 1.9732c3.0494 0 5.5134 2.464 5.5134 5.5134s-2.464 5.5134-5.5134 5.5134-5.5134-2.464-5.5134-5.5134 2.464-5.5134 5.5134-5.5134z"/>
  <path style="block-progression:tb;color:#000000" d="m11.393 4.0065a0.50005 0.50005 0 0 0 -0.25 0.15625l-2.6564 2.6562-1.6562-1.6562a0.50005 0.50005 0 1 0 -0.6875 0.6875l2 2a0.50005 0.50005 0 0 0 0.6875 0l3-3a0.50005 0.50005 0 0 0 -0.4375 -0.84375z"/>
 </g>
</svg>
