<?xml version="1.0" encoding="UTF-8" standalone="no"?>
<!-- Licensed under the Creative Commons Attribution-Share Alike 3.0 United States License (http://creativecommons.org/licenses/by-sa/3.0/) -->
<svg xmlns="http://www.w3.org/2000/svg" version="1.1" viewBox="0 0 16 16">
 <defs>
  <radialGradient id="b" gradientUnits="userSpaceOnUse" cy="51.5" cx="301" gradientTransform="matrix(.97063 1.9684e-8 0 .28611 -291.16 -14.63)" r="19.5">
   <stop stop-color="#fff" offset="0"/>
   <stop stop-color="#fff" stop-opacity="0" offset="1"/>
  </radialGradient>
  <radialGradient id="a" gradientUnits="userSpaceOnUse" cy="35.878" cx="24.446" gradientTransform="matrix(.85696 3.2529e-7 -1.253e-7 .33010 -12.949 .77181)" r="20.531">
   <stop stop-color="#fff" offset="0"/>
   <stop stop-color="#fef6ba" offset="1"/>
  </radialGradient>
  <linearGradient id="d" y2="118.5" gradientUnits="userSpaceOnUse" x2="311.65" gradientTransform="matrix(.55569 0 0 .55568 -169.27 -70.906)" y1="145.52" x1="321.57">
   <stop stop-color="#c4a000" offset="0"/>
   <stop stop-color="#fef4a8" offset="1"/>
  </linearGradient>
  <linearGradient id="c" y2="732.05" gradientUnits="userSpaceOnUse" x2="491.22" gradientTransform="matrix(.093294 0 0 .093294 -35.871 -43.769)" y1="506.65" x1="491.22">
   <stop stop-color="#c4a000" offset="0"/>
   <stop stop-color="#fef4a8" offset="1"/>
  </linearGradient>
 </defs>
 <g>
  <rect stroke-linejoin="bevel" height="15.003" stroke="url(#d)" fill="url(#a)" style="enable-background:new" fill-rule="evenodd" rx="1.5143" ry="1.5143" width="15.004" stroke-miterlimit="10" y=".49833" x=".49815"/>
  <rect stroke-linejoin="bevel" style="enable-background:new" rx=".50812" ry=".50810" height="13" width="12.997" stroke="#fff" stroke-miterlimit="10" y="1.5016" x="1.5014" fill="none"/>
  <rect style="enable-background:new" fill-rule="evenodd" rx="1.9062" ry="1.9062" height="14" width="14" y="1.0016" x="1.0017" fill="url(#b)"/>
  <path style="block-progression:tb;text-indent:0;color:#000000;enable-background:new;text-transform:none" d="m7.8406 4.8481c-1.0313 0-2.0592 0.3724-2.8438 1.0938-0.78455 0.72136-1.3125 1.7985-1.3125 3.2188 0 2.5548 1.7963 4.2328 4.0625 4.3125 0.12663 0.0073 0.20674 0.0078 0.3125 0 2.2396-0.0781 4.0313-1.6975 4.0313-4.2187 0-2.5923-1.8447-4.4062-4.25-4.4062zm0.093751 1.8125c0.52438 0 1.0551 0.16546 1.4688 0.5625 0.41369 0.39704 0.71875 1.0121 0.71875 1.9375 0 0.93418-0.31504 1.5672-0.75 1.9687-0.42725 0.39438-0.97727 0.58735-1.5 0.59375-0.021472-0.000857-0.042558 0-0.0625 0-0.52756-0.0065-1.0657-0.18202-1.4688-0.5625-0.41058-0.38755-0.6875-0.99125-0.6875-1.875 0-1.6692 1.0047-2.625 2.2813-2.625z" display="block" fill="#fff"/>
  <path style="block-progression:tb;text-indent:0;color:#000000;enable-background:new;text-transform:none" d="m7.8923 3.8178c-1.0313 0-2.0592 0.3724-2.8438 1.0938-0.78455 0.72136-1.3125 1.7985-1.3125 3.2188 0 2.5548 1.7963 4.2328 4.0625 4.3125 0.12663 0.0073 0.20674 0.0078 0.3125 0 2.2396-0.0781 4.0313-1.6975 4.0313-4.2188 0-2.5923-1.8447-4.4062-4.25-4.4062zm0.093751 1.8125c0.52438 0 1.0551 0.16546 1.4688 0.5625 0.41369 0.39704 0.71875 1.0121 0.71875 1.9375 0 0.93418-0.31504 1.5672-0.75 1.9688-0.42725 0.39438-0.97727 0.58735-1.5 0.59375-0.021472-0.000857-0.042558 0-0.0625 0-0.52756-0.0065-1.0657-0.18202-1.4688-0.5625-0.41058-0.38756-0.6875-0.99125-0.6875-1.875 0-1.6692 1.0047-2.625 2.2813-2.625z" display="block" fill="url(#c)"/>
 </g>
</svg>
