<?xml version="1.0" encoding="UTF-8" standalone="no"?>
<!-- Created with Inkscape (http://www.inkscape.org/) -->

<svg
   xmlns:dc="http://purl.org/dc/elements/1.1/"
   xmlns:cc="http://creativecommons.org/ns#"
   xmlns:rdf="http://www.w3.org/1999/02/22-rdf-syntax-ns#"
   xmlns:svg="http://www.w3.org/2000/svg"
   xmlns="http://www.w3.org/2000/svg"
   xmlns:xlink="http://www.w3.org/1999/xlink"
   version="1.1"
   width="16"
   height="16"
   id="svg5300">
  <defs
     id="defs5302">
    <linearGradient
       x1="491.22195"
       y1="506.64685"
       x2="491.22195"
       y2="732.05341"
       id="linearGradient3161-1"
       xlink:href="#linearGradient4373-2-5-8-6-8"
       gradientUnits="userSpaceOnUse"
       gradientTransform="matrix(0.09329421,0,0,0.09329421,-35.8706,-43.768871)" />
    <linearGradient
       id="linearGradient4373-2-5-8-6-8">
      <stop
         id="stop4375-3-6-8-4-7"
         style="stop-color:#a40000;stop-opacity:1"
         offset="0" />
      <stop
         id="stop4377-3-5-2-3-7"
         style="stop-color:#f9adad;stop-opacity:1"
         offset="1" />
    </linearGradient>
    <radialGradient
       cx="301"
       cy="51.5"
       r="19.500002"
       fx="301"
       fy="51.5"
       id="radialGradient3175-6"
       xlink:href="#linearGradient8978-0"
       gradientUnits="userSpaceOnUse"
       gradientTransform="matrix(0.9706301,1.96843e-8,0,0.2861052,-291.15791,-14.630261)" />
    <linearGradient
       id="linearGradient8978-0">
      <stop
         id="stop8980-9"
         style="stop-color:#ffffff;stop-opacity:1"
         offset="0" />
      <stop
         id="stop8982-2"
         style="stop-color:#ffffff;stop-opacity:0"
         offset="1" />
    </linearGradient>
    <radialGradient
       cx="24.44569"
       cy="35.87817"
       r="20.530962"
       fx="24.44569"
       fy="35.87817"
       id="radialGradient5208"
       xlink:href="#linearGradient11520-4"
       gradientUnits="userSpaceOnUse"
       gradientTransform="matrix(0.8569597,3.2529443e-7,-1.2530456e-7,0.3301039,-31.728631,-21.533276)" />
    <linearGradient
       id="linearGradient11520-4">
      <stop
         id="stop11522-7"
         style="stop-color:#ffffff;stop-opacity:1"
         offset="0" />
      <stop
         id="stop11524-7"
         style="stop-color:#fabebe;stop-opacity:1"
         offset="1" />
    </linearGradient>
    <linearGradient
       x1="321.5675"
       y1="145.51683"
       x2="311.65057"
       y2="118.49502"
       id="linearGradient5210"
       xlink:href="#linearGradient4247-6"
       gradientUnits="userSpaceOnUse"
       gradientTransform="matrix(0.5556927,0,0,0.5556793,-188.04562,-93.211546)" />
    <linearGradient
       id="linearGradient4247-6">
      <stop
         id="stop4249-2"
         style="stop-color:#a40000;stop-opacity:1"
         offset="0" />
      <stop
         id="stop4251-2"
         style="stop-color:#f9adad;stop-opacity:1"
         offset="1" />
    </linearGradient>
    <radialGradient
       cx="24.44569"
       cy="35.87817"
       r="20.530962"
       fx="24.44569"
       fy="35.87817"
       id="radialGradient5296"
       xlink:href="#linearGradient11520-4"
       gradientUnits="userSpaceOnUse"
       gradientTransform="matrix(0.8569597,3.2529443e-7,-1.2530456e-7,0.3301039,-12.94897,0.77180918)" />
    <linearGradient
       x1="321.5675"
       y1="145.51683"
       x2="311.65057"
       y2="118.49502"
       id="linearGradient5298"
       xlink:href="#linearGradient4247-6"
       gradientUnits="userSpaceOnUse"
       gradientTransform="matrix(0.5556927,0,0,0.5556793,-169.26596,-70.906461)" />
    <linearGradient
       x1="491.22195"
       y1="506.64685"
       x2="491.22195"
       y2="732.05341"
       id="linearGradient3161-1-6"
       xlink:href="#linearGradient4373-2-5-8-6-8-6"
       gradientUnits="userSpaceOnUse"
       gradientTransform="matrix(0.09329421,0,0,0.09329421,-35.8706,-43.768871)" />
    <linearGradient
       id="linearGradient4373-2-5-8-6-8-6">
      <stop
         id="stop4375-3-6-8-4-7-3"
         style="stop-color:#a40000;stop-opacity:1"
         offset="0" />
      <stop
         id="stop4377-3-5-2-3-7-5"
         style="stop-color:#f9adad;stop-opacity:1"
         offset="1" />
    </linearGradient>
    <linearGradient
       x1="491.22195"
       y1="506.64685"
       x2="491.22195"
       y2="732.05341"
       id="linearGradient5518"
       xlink:href="#linearGradient4373-2-5-8-6-8-6"
       gradientUnits="userSpaceOnUse"
       gradientTransform="matrix(0.09329421,0,0,0.09329421,-38.9244,-46.94361)" />
    <radialGradient
       cx="301"
       cy="51.5"
       r="19.500002"
       fx="301"
       fy="51.5"
       id="radialGradient3929"
       xlink:href="#linearGradient8978-0"
       gradientUnits="userSpaceOnUse"
       gradientTransform="matrix(0.9706301,1.96843e-8,0,0.2861052,-291.15791,-14.630261)" />
    <radialGradient
       cx="24.44569"
       cy="35.87817"
       r="20.530962"
       fx="24.44569"
       fy="35.87817"
       id="radialGradient3933"
       xlink:href="#linearGradient11520-4"
       gradientUnits="userSpaceOnUse"
       gradientTransform="matrix(0.8569597,3.2529443e-7,-1.2530456e-7,0.3301039,-12.94897,0.77180918)" />
    <linearGradient
       x1="321.5675"
       y1="145.51683"
       x2="311.65057"
       y2="118.49502"
       id="linearGradient3935"
       xlink:href="#linearGradient4247-6"
       gradientUnits="userSpaceOnUse"
       gradientTransform="matrix(0.5556927,0,0,0.5556793,-169.26596,-70.906461)" />
    <linearGradient
       id="linearGradient4373-2-5-8-6-8-6-4">
      <stop
         id="stop4375-3-6-8-4-7-3-2"
         style="stop-color:#a40000;stop-opacity:1"
         offset="0" />
      <stop
         id="stop4377-3-5-2-3-7-5-2"
         style="stop-color:#f9adad;stop-opacity:1"
         offset="1" />
    </linearGradient>
    <linearGradient
       x1="491.22195"
       y1="506.64685"
       x2="491.22195"
       y2="732.05341"
       id="linearGradient3952"
       xlink:href="#linearGradient4373-2-5-8-6-8-6-4"
       gradientUnits="userSpaceOnUse"
       gradientTransform="matrix(0.09329421,0,0,0.09329421,-39.902379,-47.24489)" />
    <linearGradient
       x1="491.22195"
       y1="506.64685"
       x2="491.22195"
       y2="732.05341"
       id="linearGradient3925-3-9"
       xlink:href="#linearGradient4373-2-5-8-6-8-6-4-9"
       gradientUnits="userSpaceOnUse"
       gradientTransform="matrix(0.09329421,0,0,0.09329421,-35.8706,-43.768871)" />
    <linearGradient
       id="linearGradient4373-2-5-8-6-8-6-4-9">
      <stop
         id="stop4375-3-6-8-4-7-3-2-1"
         style="stop-color:#a40000;stop-opacity:1"
         offset="0" />
      <stop
         id="stop4377-3-5-2-3-7-5-2-5"
         style="stop-color:#f9adad;stop-opacity:1"
         offset="1" />
    </linearGradient>
    <linearGradient
       x1="491.22195"
       y1="506.64685"
       x2="491.22195"
       y2="732.05341"
       id="linearGradient4080"
       xlink:href="#linearGradient4373-2-5-8-6-8-6-4-9"
       gradientUnits="userSpaceOnUse"
       gradientTransform="matrix(0.09329421,0,0,0.09329421,-40.198725,-47.440746)" />
    <linearGradient
       x1="491.22195"
       y1="506.64685"
       x2="491.22195"
       y2="732.05341"
       id="linearGradient3925-3-9-6"
       xlink:href="#linearGradient4373-2-5-8-6-8-6-4-9-8"
       gradientUnits="userSpaceOnUse"
       gradientTransform="matrix(0.09329421,0,0,0.09329421,-35.8706,-43.768871)" />
    <linearGradient
       id="linearGradient4373-2-5-8-6-8-6-4-9-8">
      <stop
         id="stop4375-3-6-8-4-7-3-2-1-9"
         style="stop-color:#a40000;stop-opacity:1"
         offset="0" />
      <stop
         id="stop4377-3-5-2-3-7-5-2-5-8"
         style="stop-color:#f9adad;stop-opacity:1"
         offset="1" />
    </linearGradient>
    <linearGradient
       x1="491.22195"
       y1="506.64685"
       x2="491.22195"
       y2="732.05341"
       id="linearGradient4733"
       xlink:href="#linearGradient4373-2-5-8-6-8-6-4-9-8"
       gradientUnits="userSpaceOnUse"
       gradientTransform="matrix(0.09329421,0,0,0.09329421,-40.27489,-47.51691)" />
    <linearGradient
       x1="491.22195"
       y1="506.64685"
       x2="491.22195"
       y2="732.05341"
       id="linearGradient3020"
       xlink:href="#linearGradient7888-7-8-2"
       gradientUnits="userSpaceOnUse"
       gradientTransform="matrix(0.09329421,0,0,0.09329421,-35.919529,-62.387703)" />
    <linearGradient
       x1="491.22195"
       y1="506.64685"
       x2="491.22195"
       y2="732.05341"
       id="linearGradient3052"
       xlink:href="#linearGradient7888-7-8-2"
       gradientUnits="userSpaceOnUse"
       gradientTransform="matrix(0.09329421,0,0,0.09329421,-35.919529,-62.387703)" />
    <linearGradient
       x1="491.22195"
       y1="506.64685"
       x2="491.22195"
       y2="732.05341"
       id="linearGradient3058"
       xlink:href="#linearGradient4373-2-5-8-6-8-6-4-9-8"
       gradientUnits="userSpaceOnUse"
       gradientTransform="matrix(0.09329421,0,0,0.09329421,-35.8706,-43.768871)" />
    <linearGradient
       x1="491.22195"
       y1="506.64685"
       x2="491.22195"
       y2="732.05341"
       id="linearGradient3061"
       xlink:href="#linearGradient4373-2-5-8-6-8-6-4-9-8"
       gradientUnits="userSpaceOnUse"
       gradientTransform="matrix(0.09329421,0,0,0.09329421,-35.8706,-43.768871)" />
    <linearGradient
       x1="491.22195"
       y1="506.64685"
       x2="491.22195"
       y2="732.05341"
       id="linearGradient3061-9"
       xlink:href="#linearGradient4373-2-5-8-6-8-6-4-9-8-6"
       gradientUnits="userSpaceOnUse"
       gradientTransform="matrix(0.09329421,0,0,0.09329421,-35.8706,-43.768871)" />
    <linearGradient
       id="linearGradient4373-2-5-8-6-8-6-4-9-8-6">
      <stop
         id="stop4375-3-6-8-4-7-3-2-1-9-4"
         style="stop-color:#a40000;stop-opacity:1"
         offset="0" />
      <stop
         id="stop4377-3-5-2-3-7-5-2-5-8-0"
         style="stop-color:#f9adad;stop-opacity:1"
         offset="1" />
    </linearGradient>
    <linearGradient
       x1="491.22195"
       y1="506.64685"
       x2="491.22195"
       y2="732.05341"
       id="linearGradient3079"
       xlink:href="#linearGradient4373-2-5-8-6-8-6-4-9-8-6"
       gradientUnits="userSpaceOnUse"
       gradientTransform="matrix(0.09329421,0,0,0.09329421,-40.666495,-47.518871)" />
    <linearGradient
       x1="-19.525423"
       y1="-0.30508471"
       x2="-14.711864"
       y2="-0.30508471"
       id="linearGradient3815"
       xlink:href="#linearGradient8978-0"
       gradientUnits="userSpaceOnUse" />
  </defs>
  <metadata
     id="metadata5305">
    <rdf:RDF>
      <cc:Work
         rdf:about="">
        <dc:format>image/svg+xml</dc:format>
        <dc:type
           rdf:resource="http://purl.org/dc/dcmitype/StillImage" />
        <dc:title></dc:title>
        <cc:license
           rdf:resource="http://creativecommons.org/licenses/by-sa/3.0/" />
      </cc:Work>
      <cc:License
         rdf:about="http://creativecommons.org/licenses/by-sa/3.0/">
        <cc:permits
           rdf:resource="http://creativecommons.org/ns#Reproduction" />
        <cc:permits
           rdf:resource="http://creativecommons.org/ns#Distribution" />
        <cc:requires
           rdf:resource="http://creativecommons.org/ns#Notice" />
        <cc:requires
           rdf:resource="http://creativecommons.org/ns#Attribution" />
        <cc:permits
           rdf:resource="http://creativecommons.org/ns#DerivativeWorks" />
        <cc:requires
           rdf:resource="http://creativecommons.org/ns#ShareAlike" />
      </cc:License>
    </rdf:RDF>
  </metadata>
  <g
     id="g3097">
    <rect
       width="15.003705"
       height="15.003344"
       rx="1.5143198"
       ry="1.5142833"
       x="0.49814749"
       y="0.49832821"
       id="rect4319-7"
       style="fill:url(#radialGradient3933);fill-opacity:1;fill-rule:evenodd;stroke:url(#linearGradient3935);stroke-width:1.00000095;stroke-linecap:butt;stroke-linejoin:bevel;stroke-miterlimit:10;stroke-opacity:1;stroke-dasharray:none;stroke-dashoffset:0;marker:none;visibility:visible;display:inline;overflow:visible;enable-background:new" />
    <rect
       width="12.997247"
       height="12.999963"
       rx="0.5081172"
       ry="0.50810492"
       x="1.5013518"
       y="1.5016088"
       id="rect4321-0"
       style="fill:none;stroke:#ffffff;stroke-width:0.99999994;stroke-linecap:butt;stroke-linejoin:bevel;stroke-miterlimit:10;stroke-opacity:1;stroke-dasharray:none;stroke-dashoffset:0;marker:none;visibility:visible;display:inline;overflow:visible;enable-background:new" />
    <rect
       width="14.000044"
       height="14.000041"
       rx="1.9062433"
       ry="1.9062428"
       x="1.0017486"
       y="1.0015783"
       id="rect9035-4"
       style="fill:url(#radialGradient3929);fill-opacity:1;fill-rule:evenodd;stroke:none;stroke-width:1;marker:none;visibility:visible;display:inline;overflow:visible;enable-background:new" />
    <path
       d="m 4.8240769,4.780819 c -0.03291,0.0041 -0.06499,0.01475 -0.09375,0.03125 -0.02216,0.0074 -0.04326,0.01798 -0.0625,0.03125 -0.02758,0.02597 -0.04913,0.0583 -0.0625,0.09375 -6.52e-4,0.0104 -6.52e-4,0.02085 0,0.03125 -0.0026,0.02072 -0.0026,0.04178 0,0.0625 l 0,8 a 0.250025,0.250025 0 0 0 0,0.03125 0.250025,0.250025 0 0 0 0,0.03125 0.250025,0.250025 0 0 0 0,0.03125 0.250025,0.250025 0 0 0 0,0.03125 0.250025,0.250025 0 0 0 0.03125,0.03125 0.250025,0.250025 0 0 0 0.03125,0.03125 0.250025,0.250025 0 0 0 0.0625,0.03125 0.250025,0.250025 0 0 0 0.09375,0.03125 0.250025,0.250025 0 0 0 0.03125,0 l 1.40625,0 a 0.250025,0.250025 0 0 0 0.03125,0 0.250025,0.250025 0 0 0 0.09375,-0.03125 0.250025,0.250025 0 0 0 0.0625,-0.03125 0.250025,0.250025 0 0 0 0.03125,-0.03125 0.250025,0.250025 0 0 0 0.03125,-0.0625 0.250025,0.250025 0 0 0 0,-0.03125 0.250025,0.250025 0 0 0 0,-0.03125 0.250025,0.250025 0 0 0 0,-0.03125 l 0,-2.875 c 0.124827,0.0059 0.238097,0.03125 0.375,0.03125 0.149307,0 0.324266,0.0053 0.5,0 l 1.75,2.96875 a 0.250025,0.250025 0 0 0 0.03125,0.03125 0.250025,0.250025 0 0 0 0.0625,0.0625 0.250025,0.250025 0 0 0 0.0625,0.03125 0.250025,0.250025 0 0 0 0.03125,0 0.250025,0.250025 0 0 0 0.03125,0 l 1.6250011,0 a 0.250025,0.250025 0 0 0 0.03125,0 0.250025,0.250025 0 0 0 0.03125,0 0.250025,0.250025 0 0 0 0.0625,-0.03125 0.250025,0.250025 0 0 0 0.0625,-0.0625 0.250025,0.250025 0 0 0 0.03125,-0.03125 0.250025,0.250025 0 0 0 0.03125,-0.09375 0.250025,0.250025 0 0 0 0,-0.0625 0.250025,0.250025 0 0 0 -0.03125,-0.09375 L 9.2928269,9.7808185 c 0.408774,-0.163092 0.8262171,-0.351698 1.1250011,-0.6875 0.365592,-0.4108871 0.59375,-0.9625795 0.59375,-1.6874995 0,-1.185943 -0.65393,-1.906754 -1.4062511,-2.25 -0.75232,-0.343247 -1.624556,-0.375 -2.15625,-0.375 l -2.59375,0 c -0.0104,-6.52e-4 -0.02085,-6.52e-4 -0.03125,0 z m 1.6875,1.8125 0.8125,0 c 0.502668,0 0.979816,0.02877 1.28125,0.15625 0.301434,0.127483 0.4375,0.277979 0.4375,0.6875 0,0.23499 -0.03704,0.381426 -0.125,0.5 -0.08796,0.118573 -0.223393,0.211062 -0.40625,0.28125 -0.365715,0.140375 -0.933206,0.1875 -1.53125,0.1875 -0.154377,0 -0.310083,-0.02084 -0.46875,-0.03125 l 0,-1.78125 z"
       id="path3371-1"
       style="font-size:11.52737713px;font-style:normal;font-variant:normal;font-weight:bold;font-stretch:normal;text-align:start;line-height:125%;letter-spacing:0px;word-spacing:0px;writing-mode:lr-tb;text-anchor:start;color:#000000;fill:#ffffff;fill-opacity:1;fill-rule:nonzero;stroke:none;stroke-width:0.9999997;marker:none;visibility:visible;display:block;overflow:visible;enable-background:new;font-family:Cantarell;-inkscape-font-specification:Cantarell Bold" />
    <path
       d="m 4.8758569,3.750488 c -0.03291,0.0041 -0.06499,0.01475 -0.09375,0.03125 -0.02216,0.0074 -0.04326,0.01798 -0.0625,0.03125 -0.02758,0.02597 -0.04913,0.0583 -0.0625,0.09375 -6.52e-4,0.0104 -6.52e-4,0.02085 0,0.03125 -0.0026,0.02072 -0.0026,0.04178 0,0.0625 l 0,8.000001 a 0.250025,0.250025 0 0 0 0,0.03125 0.250025,0.250025 0 0 0 0,0.03125 0.250025,0.250025 0 0 0 0,0.03125 0.250025,0.250025 0 0 0 0,0.03125 0.250025,0.250025 0 0 0 0.03125,0.03125 0.250025,0.250025 0 0 0 0.03125,0.03125 0.250025,0.250025 0 0 0 0.0625,0.03125 0.250025,0.250025 0 0 0 0.09375,0.03125 0.250025,0.250025 0 0 0 0.03125,0 l 1.40625,0 a 0.250025,0.250025 0 0 0 0.03125,0 0.250025,0.250025 0 0 0 0.09375,-0.03125 0.250025,0.250025 0 0 0 0.0625,-0.03125 0.250025,0.250025 0 0 0 0.03125,-0.03125 0.250025,0.250025 0 0 0 0.03125,-0.0625 0.250025,0.250025 0 0 0 0,-0.03125 0.250025,0.250025 0 0 0 0,-0.03125 0.250025,0.250025 0 0 0 0,-0.03125 l 0,-2.8750005 c 0.124827,0.00594 0.238097,0.03125 0.375,0.03125 0.149307,0 0.324266,0.00525 0.5,0 l 1.75,2.9687505 a 0.250025,0.250025 0 0 0 0.03125,0.03125 0.250025,0.250025 0 0 0 0.0625,0.0625 0.250025,0.250025 0 0 0 0.0625,0.03125 0.250025,0.250025 0 0 0 0.03125,0 0.250025,0.250025 0 0 0 0.03125,0 l 1.6250011,0 a 0.250025,0.250025 0 0 0 0.03125,0 0.250025,0.250025 0 0 0 0.03125,0 0.250025,0.250025 0 0 0 0.0625,-0.03125 0.250025,0.250025 0 0 0 0.0625,-0.0625 0.250025,0.250025 0 0 0 0.03125,-0.03125 0.250025,0.250025 0 0 0 0.03125,-0.09375 0.250025,0.250025 0 0 0 0,-0.0625 0.250025,0.250025 0 0 0 -0.03125,-0.09375 L 9.3446069,8.7504885 C 9.7533809,8.5873965 10.170824,8.398791 10.469608,8.062989 c 0.365592,-0.410888 0.59375,-0.96258 0.59375,-1.6875 0,-1.185943 -0.65393,-1.906754 -1.4062511,-2.250001 -0.75232,-0.343246 -1.624556,-0.375 -2.15625,-0.375 l -2.59375,0 c -0.0104,-6.51e-4 -0.02085,-6.51e-4 -0.03125,0 z m 1.6875,1.812501 0.8125,0 c 0.502668,0 0.979816,0.02877 1.28125,0.15625 0.301434,0.127483 0.4375,0.277979 0.4375,0.6875 0,0.23499 -0.03704,0.381426 -0.125,0.5 -0.08796,0.118573 -0.223393,0.211062 -0.40625,0.28125 -0.365715,0.140375 -0.933206,0.1875 -1.53125,0.1875 -0.154377,0 -0.310083,-0.02084 -0.46875,-0.03125 l 0,-1.78125 z"
       id="path3371-1-3"
       style="font-size:11.52737713px;font-style:normal;font-variant:normal;font-weight:bold;font-stretch:normal;text-align:start;line-height:125%;letter-spacing:0px;word-spacing:0px;writing-mode:lr-tb;text-anchor:start;color:#000000;fill:url(#linearGradient3061-9);fill-opacity:1;fill-rule:nonzero;stroke:none;stroke-width:0.9999997;marker:none;visibility:visible;display:block;overflow:visible;enable-background:new;font-family:Cantarell;-inkscape-font-specification:Cantarell Bold" />
  </g>
  <rect
     width="4.8135595"
     height="7.2542372"
     rx="0.5081172"
     ry="0.50810492"
     x="-19.525423"
     y="-3.9322033"
     id="rect3039"
     style="opacity:0.8;color:#000000;fill:url(#linearGradient3815);fill-opacity:1;fill-rule:nonzero;stroke:none;stroke-width:0.9999997;marker:none;visibility:visible;display:block;overflow:visible;enable-background:new" />
</svg>
