<?xml version="1.0" encoding="UTF-8" standalone="no"?>
<!-- Created with Inkscape (http://www.inkscape.org/) -->

<svg
   xmlns:dc="http://purl.org/dc/elements/1.1/"
   xmlns:cc="http://creativecommons.org/ns#"
   xmlns:rdf="http://www.w3.org/1999/02/22-rdf-syntax-ns#"
   xmlns:svg="http://www.w3.org/2000/svg"
   xmlns="http://www.w3.org/2000/svg"
   xmlns:xlink="http://www.w3.org/1999/xlink"
   version="1.1"
   width="16"
   height="16"
   id="svg9882">
  <defs
     id="defs9884">
    <radialGradient
       cx="301"
       cy="51.5"
       r="19.500002"
       fx="301"
       fy="51.5"
       id="radialGradient3175"
       xlink:href="#linearGradient8978"
       gradientUnits="userSpaceOnUse"
       gradientTransform="matrix(0.9706301,1.96843e-8,0,0.2861052,-291.15791,-14.630261)" />
    <linearGradient
       id="linearGradient8978">
      <stop
         id="stop8980"
         style="stop-color:#ffffff;stop-opacity:1"
         offset="0" />
      <stop
         id="stop8982"
         style="stop-color:#ffffff;stop-opacity:0"
         offset="1" />
    </linearGradient>
    <radialGradient
       cx="24.44569"
       cy="35.87817"
       r="20.530962"
       fx="24.44569"
       fy="35.87817"
       id="radialGradient3179"
       xlink:href="#linearGradient11520"
       gradientUnits="userSpaceOnUse"
       gradientTransform="matrix(0.8569597,3.2529443e-7,-1.2530456e-7,0.3301039,-49.42355,1.24638)" />
    <linearGradient
       id="linearGradient11520">
      <stop
         id="stop11522"
         style="stop-color:#ffffff;stop-opacity:1"
         offset="0" />
      <stop
         id="stop11524"
         style="stop-color:#dcdcdc;stop-opacity:1"
         offset="1" />
    </linearGradient>
    <linearGradient
       x1="321.5675"
       y1="145.51683"
       x2="311.65057"
       y2="118.49502"
       id="linearGradient3181"
       xlink:href="#linearGradient4247"
       gradientUnits="userSpaceOnUse"
       gradientTransform="matrix(0.5556927,0,0,0.5556793,-205.74054,-70.43189)" />
    <linearGradient
       id="linearGradient4247">
      <stop
         id="stop4249"
         style="stop-color:#9b9b9b;stop-opacity:1"
         offset="0" />
      <stop
         id="stop4251"
         style="stop-color:#d3d7cf;stop-opacity:1"
         offset="1" />
    </linearGradient>
    <radialGradient
       cx="24.44569"
       cy="35.87817"
       r="20.530962"
       fx="24.44569"
       fy="35.87817"
       id="radialGradient9878"
       xlink:href="#linearGradient11520"
       gradientUnits="userSpaceOnUse"
       gradientTransform="matrix(0.8569597,3.2529443e-7,-1.2530456e-7,0.3301039,-12.94897,0.77180835)" />
    <linearGradient
       x1="321.5675"
       y1="145.51683"
       x2="311.65057"
       y2="118.49502"
       id="linearGradient9880"
       xlink:href="#linearGradient4247"
       gradientUnits="userSpaceOnUse"
       gradientTransform="matrix(0.5556927,0,0,0.5556793,-169.26596,-70.906461)" />
    <linearGradient
       x1="491.22195"
       y1="506.64685"
       x2="491.22195"
       y2="732.05341"
       id="linearGradient3161-6"
       xlink:href="#linearGradient4373-2-5-8-6-4"
       gradientUnits="userSpaceOnUse"
       gradientTransform="matrix(0.09329421,0,0,0.09329421,-35.8706,-43.768871)" />
    <linearGradient
       id="linearGradient4373-2-5-8-6-4">
      <stop
         id="stop4375-3-6-8-4-1"
         style="stop-color:#888a85;stop-opacity:1"
         offset="0" />
      <stop
         id="stop4377-3-5-2-3-8"
         style="stop-color:#d3d7cf;stop-opacity:1"
         offset="1" />
    </linearGradient>
    <linearGradient
       x1="491.22195"
       y1="506.64685"
       x2="491.22195"
       y2="732.05341"
       id="linearGradient9970"
       xlink:href="#linearGradient4373-2-5-8-6-4"
       gradientUnits="userSpaceOnUse"
       gradientTransform="matrix(0.09329421,0,0,0.09329421,-38.9244,-46.943609)" />
    <radialGradient
       cx="301"
       cy="51.5"
       r="19.500002"
       fx="301"
       fy="51.5"
       id="radialGradient10464"
       xlink:href="#linearGradient8978"
       gradientUnits="userSpaceOnUse"
       gradientTransform="matrix(0.9706301,1.96843e-8,0,0.2861052,-291.15791,-14.630261)" />
    <radialGradient
       cx="24.44569"
       cy="35.87817"
       r="20.530962"
       fx="24.44569"
       fy="35.87817"
       id="radialGradient10468"
       xlink:href="#linearGradient11520"
       gradientUnits="userSpaceOnUse"
       gradientTransform="matrix(0.8569597,3.2529443e-7,-1.2530456e-7,0.3301039,-12.94897,0.77180835)" />
    <linearGradient
       x1="321.5675"
       y1="145.51683"
       x2="311.65057"
       y2="118.49502"
       id="linearGradient10470"
       xlink:href="#linearGradient4247"
       gradientUnits="userSpaceOnUse"
       gradientTransform="matrix(0.5556927,0,0,0.5556793,-169.26596,-70.906461)" />
    <linearGradient
       x1="491.22195"
       y1="506.64685"
       x2="491.22195"
       y2="732.05341"
       id="linearGradient10460-4"
       xlink:href="#linearGradient4373-2-5-8-6-4-9"
       gradientUnits="userSpaceOnUse"
       gradientTransform="matrix(0.09329421,0,0,0.09329421,-35.8706,-43.768871)" />
    <linearGradient
       id="linearGradient4373-2-5-8-6-4-9">
      <stop
         id="stop4375-3-6-8-4-1-3"
         style="stop-color:#888a85;stop-opacity:1"
         offset="0" />
      <stop
         id="stop4377-3-5-2-3-8-6"
         style="stop-color:#d3d7cf;stop-opacity:1"
         offset="1" />
    </linearGradient>
    <linearGradient
       x1="491.22195"
       y1="506.64685"
       x2="491.22195"
       y2="732.05341"
       id="linearGradient10487"
       xlink:href="#linearGradient4373-2-5-8-6-4-9"
       gradientUnits="userSpaceOnUse"
       gradientTransform="matrix(0.09329421,0,0,0.09329421,-40.620365,-48.242929)" />
    <linearGradient
       x1="491.22195"
       y1="506.64685"
       x2="491.22195"
       y2="732.05341"
       id="linearGradient10460-4-5"
       xlink:href="#linearGradient4373-2-5-8-6-4-9-0"
       gradientUnits="userSpaceOnUse"
       gradientTransform="matrix(0.09329421,0,0,0.09329421,-35.8706,-43.768871)" />
    <linearGradient
       id="linearGradient4373-2-5-8-6-4-9-0">
      <stop
         id="stop4375-3-6-8-4-1-3-4"
         style="stop-color:#888a85;stop-opacity:1"
         offset="0" />
      <stop
         id="stop4377-3-5-2-3-8-6-6"
         style="stop-color:#d3d7cf;stop-opacity:1"
         offset="1" />
    </linearGradient>
    <linearGradient
       x1="491.22195"
       y1="506.64685"
       x2="491.22195"
       y2="732.05341"
       id="linearGradient10670"
       xlink:href="#linearGradient4373-2-5-8-6-4-9-0"
       gradientUnits="userSpaceOnUse"
       gradientTransform="matrix(0.09329421,0,0,0.09329421,-39.497066,-47.586679)" />
    <linearGradient
       x1="491.22195"
       y1="506.64685"
       x2="491.22195"
       y2="732.05341"
       id="linearGradient3012"
       xlink:href="#linearGradient6020-2"
       gradientUnits="userSpaceOnUse"
       gradientTransform="matrix(0.09329421,0,0,0.09329421,-35.870601,-43.768871)" />
    <linearGradient
       x1="491.22195"
       y1="506.64685"
       x2="491.22195"
       y2="732.05341"
       id="linearGradient3045"
       xlink:href="#linearGradient6020-2"
       gradientUnits="userSpaceOnUse"
       gradientTransform="matrix(0.09329421,0,0,0.09329421,-35.870601,-43.768871)" />
    <linearGradient
       x1="491.22195"
       y1="506.64685"
       x2="491.22195"
       y2="732.05341"
       id="linearGradient3049"
       xlink:href="#linearGradient4373-2-5-8-6-4-9-0"
       gradientUnits="userSpaceOnUse"
       gradientTransform="matrix(0.09329421,0,0,0.09329421,-35.8706,-43.768871)" />
    <linearGradient
       x1="491.22195"
       y1="506.64685"
       x2="491.22195"
       y2="732.05341"
       id="linearGradient3052"
       xlink:href="#linearGradient4373-2-5-8-6-4-9-0"
       gradientUnits="userSpaceOnUse"
       gradientTransform="matrix(0.09329421,0,0,0.09329421,-35.8706,-43.768871)" />
    <linearGradient
       x1="491.22195"
       y1="506.64685"
       x2="491.22195"
       y2="732.05341"
       id="linearGradient3052-3"
       xlink:href="#linearGradient4373-2-5-8-6-4-9-0-5"
       gradientUnits="userSpaceOnUse"
       gradientTransform="matrix(0.09329421,0,0,0.09329421,-35.8706,-43.768871)" />
    <linearGradient
       id="linearGradient4373-2-5-8-6-4-9-0-5">
      <stop
         id="stop4375-3-6-8-4-1-3-4-3"
         style="stop-color:#888a85;stop-opacity:1"
         offset="0" />
      <stop
         id="stop4377-3-5-2-3-8-6-6-9"
         style="stop-color:#d3d7cf;stop-opacity:1"
         offset="1" />
    </linearGradient>
    <linearGradient
       x1="491.22195"
       y1="506.64685"
       x2="491.22195"
       y2="732.05341"
       id="linearGradient3070"
       xlink:href="#linearGradient4373-2-5-8-6-4-9-0-5"
       gradientUnits="userSpaceOnUse"
       gradientTransform="matrix(0.09329421,0,0,0.09329421,-40.94849,-47.587415)" />
    <linearGradient
       x1="-12.542373"
       y1="4.8135595"
       x2="-7.3220339"
       y2="4.8135595"
       id="linearGradient3807"
       xlink:href="#linearGradient8978"
       gradientUnits="userSpaceOnUse" />
  </defs>
  <metadata
     id="metadata9887">
    <rdf:RDF>
      <cc:Work
         rdf:about="">
        <dc:format>image/svg+xml</dc:format>
        <dc:type
           rdf:resource="http://purl.org/dc/dcmitype/StillImage" />
        <cc:license
           rdf:resource="http://creativecommons.org/licenses/by-sa/3.0/" />
        <dc:title></dc:title>
      </cc:Work>
      <cc:License
         rdf:about="http://creativecommons.org/licenses/by-sa/3.0/">
        <cc:permits
           rdf:resource="http://creativecommons.org/ns#Reproduction" />
        <cc:permits
           rdf:resource="http://creativecommons.org/ns#Distribution" />
        <cc:requires
           rdf:resource="http://creativecommons.org/ns#Notice" />
        <cc:requires
           rdf:resource="http://creativecommons.org/ns#Attribution" />
        <cc:permits
           rdf:resource="http://creativecommons.org/ns#DerivativeWorks" />
        <cc:requires
           rdf:resource="http://creativecommons.org/ns#ShareAlike" />
      </cc:License>
    </rdf:RDF>
  </metadata>
  <g
     id="g3088">
    <rect
       width="15.003705"
       height="15.003344"
       rx="1.5143198"
       ry="1.5142833"
       x="0.49814749"
       y="0.49832821"
       id="rect4319"
       style="fill:url(#radialGradient10468);fill-opacity:1;fill-rule:evenodd;stroke:url(#linearGradient10470);stroke-width:1.00000095;stroke-linecap:butt;stroke-linejoin:bevel;stroke-miterlimit:10;stroke-opacity:1;stroke-dasharray:none;stroke-dashoffset:0;marker:none;visibility:visible;display:inline;overflow:visible;enable-background:new" />
    <rect
       width="12.997247"
       height="12.999963"
       rx="0.5081172"
       ry="0.50810492"
       x="1.5013518"
       y="1.5016088"
       id="rect4321"
       style="fill:none;stroke:#ffffff;stroke-width:0.99999994;stroke-linecap:butt;stroke-linejoin:bevel;stroke-miterlimit:10;stroke-opacity:1;stroke-dasharray:none;stroke-dashoffset:0;marker:none;visibility:visible;display:inline;overflow:visible;enable-background:new" />
    <rect
       width="14.000044"
       height="14.000041"
       rx="1.9062433"
       ry="1.9062428"
       x="1.0017486"
       y="1.0015783"
       id="rect9035"
       style="fill:url(#radialGradient10464);fill-opacity:1;fill-rule:evenodd;stroke:none;stroke-width:1;marker:none;visibility:visible;display:inline;overflow:visible;enable-background:new" />
    <path
       d="m 7.029045,4.8558798 c -0.514325,0.047292 -1.015171,0.1950858 -1.5,0.4375 -0.0104,-6.514e-4 -0.02085,-6.514e-4 -0.03125,0 l -0.1875,0.125 c -0.03544,0.013371 -0.06778,0.034924 -0.09375,0.0625 -0.01327,0.019236 -0.02382,0.040343 -0.03125,0.0625 -0.0026,0.020724 -0.0026,0.041776 0,0.0625 -0.0026,0.020724 -0.0026,0.041776 0,0.0625 0.0074,0.022157 0.01798,0.043264 0.03125,0.0625 l 0.4375,1.09375 c 0.0095,0.011311 0.01994,0.021782 0.03125,0.03125 0.0095,0.011311 0.01994,0.021782 0.03125,0.03125 0.0095,0.011311 0.01994,0.021782 0.03125,0.03125 0.0095,0.011311 0.01994,0.021782 0.03125,0.03125 0.02876,0.016495 0.06084,0.027188 0.09375,0.03125 0.02072,0.00261 0.04178,0.00261 0.0625,0 0.01131,-0.00947 0.02178,-0.019939 0.03125,-0.03125 l 0.21875,-0.0625 c 0.0104,6.514e-4 0.02085,6.514e-4 0.03125,0 0.253104,-0.1070825 0.810538,-0.25 1.1874999,-0.25 0.616124,0 0.930615,0.1578396 1.09375,0.3125 0.163135,0.1546604 0.1875,0.3218048 0.1875,0.46875 0,0.2839645 -0.103296,0.4873018 -0.28125,0.6875 -0.177954,0.2001982 -0.438739,0.3829692 -0.71875,0.625 C 7.1252739,9.2149414 6.529045,9.9133934 6.529045,11.230879 l 0,0.25 c -6.51e-4,0.0104 -6.51e-4,0.02085 0,0.03125 0.0041,0.03291 0.01475,0.06499 0.03125,0.09375 0.0095,0.01131 0.01994,0.02178 0.03125,0.03125 0.0095,0.01131 0.01994,0.02178 0.03125,0.03125 0.03465,0.03208 0.07855,0.05403 0.125,0.0625 0.0104,6.52e-4 0.02085,6.52e-4 0.03125,0 l 1.4062499,0 c 0.02072,0.0026 0.04178,0.0026 0.0625,0 0.03545,-0.01337 0.06778,-0.03492 0.09375,-0.0625 0.01131,-0.0095 0.02178,-0.01994 0.03125,-0.03125 0.03208,-0.03464 0.05403,-0.07855 0.0625,-0.125 6.51e-4,-0.0104 6.51e-4,-0.02085 0,-0.03125 l 0,-0.25 c 0,-0.425365 0.106343,-0.698962 0.28125,-0.9375 0.174907,-0.238537 0.446409,-0.4234418 0.71875,-0.6562492 0.544681,-0.4656148 1.1562501,-1.1016347 1.1562501,-2.375 0,-0.7837939 -0.330572,-1.4122805 -0.8750001,-1.8125 -0.544428,-0.4002194 -1.279935,-0.59375 -2.15625,-0.59375 -0.16808,0 -0.359808,-0.015764 -0.5312499,0 z m -0.34375,6.9687492 c -0.04343,-6.79e-4 -0.087,0.01021 -0.125,0.03125 -0.03888,0.02211 -0.07164,0.05487 -0.09375,0.09375 -0.01327,0.01924 -0.02385,0.04034 -0.03125,0.0625 -0.0026,0.02072 -0.0026,0.04178 0,0.0625 l 0,1.34375 c -0.0026,0.02072 -0.0026,0.04178 0,0.0625 0.0074,0.02216 0.01798,0.04326 0.03125,0.0625 0.02211,0.03888 0.05487,0.07164 0.09375,0.09375 0.038,0.02104 0.08157,0.03193 0.125,0.03125 l 1.4999999,0 c 0.02072,0.0026 0.04178,0.0026 0.0625,0 0.03291,-0.0041 0.06499,-0.01475 0.09375,-0.03125 0.02432,-0.01691 0.04559,-0.03818 0.0625,-0.0625 0.01327,-0.01924 0.02382,-0.04034 0.03125,-0.0625 0.0026,-0.02072 0.0026,-0.04178 0,-0.0625 6.51e-4,-0.0104 6.51e-4,-0.02085 0,-0.03125 l 0,-1.34375 c 6.51e-4,-0.0104 6.51e-4,-0.02085 0,-0.03125 -0.0041,-0.03291 -0.01475,-0.06499 -0.03125,-0.09375 -0.0095,-0.01131 -0.01994,-0.02178 -0.03125,-0.03125 -0.0095,-0.01131 -0.01994,-0.02178 -0.03125,-0.03125 -0.0095,-0.01131 -0.01994,-0.02178 -0.03125,-0.03125 -0.02876,-0.01649 -0.06084,-0.02719 -0.09375,-0.03125 -0.0104,-6.51e-4 -0.02085,-6.51e-4 -0.03125,0 l -1.4999999,0 z"
       id="path5271-3-3-7-5"
       style="font-size:11.52737713px;font-style:normal;font-variant:normal;font-weight:bold;font-stretch:normal;text-align:start;line-height:125%;letter-spacing:0px;word-spacing:0px;writing-mode:lr-tb;text-anchor:start;color:#000000;fill:#ffffff;fill-opacity:1;fill-rule:nonzero;stroke:none;stroke-width:0.9999997;marker:none;visibility:visible;display:block;overflow:visible;enable-background:new;font-family:Cantarell;-inkscape-font-specification:Cantarell Bold" />
    <path
       d="m 7.080825,3.8255501 c -0.514325,0.047292 -1.015171,0.1950858 -1.5,0.4375 -0.0104,-6.514e-4 -0.02085,-6.514e-4 -0.03125,0 l -0.1875,0.125 c -0.03544,0.013371 -0.06778,0.034924 -0.09375,0.0625 -0.01327,0.019236 -0.02382,0.040343 -0.03125,0.0625 -0.0026,0.020724 -0.0026,0.041776 0,0.0625 -0.0026,0.020724 -0.0026,0.041776 0,0.0625 0.0074,0.022157 0.01798,0.043264 0.03125,0.0625 l 0.4375,1.09375 c 0.0095,0.011311 0.01994,0.021782 0.03125,0.03125 0.0095,0.011311 0.01994,0.021782 0.03125,0.03125 0.0095,0.011311 0.01994,0.021782 0.03125,0.03125 0.0095,0.011311 0.01994,0.021782 0.03125,0.03125 0.02876,0.016495 0.06084,0.027188 0.09375,0.03125 0.02072,0.00261 0.04178,0.00261 0.0625,0 0.01131,-0.00947 0.02178,-0.019939 0.03125,-0.03125 l 0.21875,-0.0625 c 0.0104,6.514e-4 0.02085,6.514e-4 0.03125,0 0.253104,-0.1070825 0.810538,-0.25 1.1874999,-0.25 0.616124,0 0.930615,0.1578396 1.09375,0.3125 0.163135,0.1546604 0.1875,0.3218048 0.1875,0.46875 0,0.2839645 -0.103296,0.4873018 -0.28125,0.6875 -0.177954,0.2001982 -0.438739,0.3829692 -0.71875,0.625 C 7.1770539,8.1846117 6.580825,8.8830637 6.580825,10.20055 l 0,0.25 c -6.51e-4,0.0104 -6.51e-4,0.02085 0,0.03125 0.0041,0.03291 0.01475,0.06499 0.03125,0.09375 0.0095,0.01131 0.01994,0.02178 0.03125,0.03125 0.0095,0.01131 0.01994,0.02178 0.03125,0.03125 0.03465,0.03208 0.07855,0.05403 0.125,0.0625 0.0104,6.51e-4 0.02085,6.51e-4 0.03125,0 l 1.4062499,0 c 0.02072,0.0026 0.04178,0.0026 0.0625,0 0.03545,-0.01337 0.06778,-0.03492 0.09375,-0.0625 0.01131,-0.0095 0.02178,-0.01994 0.03125,-0.03125 0.03208,-0.03464 0.05403,-0.07855 0.0625,-0.125 6.51e-4,-0.0104 6.51e-4,-0.02085 0,-0.03125 l 0,-0.25 c 0,-0.4253658 0.106343,-0.6989623 0.28125,-0.9374999 0.174907,-0.2385376 0.446409,-0.4234426 0.71875,-0.65625 0.5446811,-0.4656148 1.1562501,-1.1016347 1.1562501,-2.375 0,-0.7837939 -0.330572,-1.4122805 -0.8750001,-1.8125 -0.544428,-0.4002194 -1.279935,-0.59375 -2.15625,-0.59375 -0.16808,0 -0.359808,-0.015764 -0.5312499,0 z M 6.737075,10.7943 c -0.04343,-6.79e-4 -0.087,0.01021 -0.125,0.03125 -0.03888,0.02211 -0.07164,0.05487 -0.09375,0.09375 -0.01327,0.01924 -0.02385,0.04034 -0.03125,0.0625 -0.0026,0.02072 -0.0026,0.04178 0,0.0625 l 0,1.34375 c -0.0026,0.02072 -0.0026,0.04178 0,0.0625 0.0074,0.02216 0.01798,0.04326 0.03125,0.0625 0.02211,0.03888 0.05487,0.07164 0.09375,0.09375 0.038,0.02104 0.08157,0.03193 0.125,0.03125 l 1.4999999,0 c 0.02072,0.0026 0.04178,0.0026 0.0625,0 0.03291,-0.0041 0.06499,-0.01475 0.09375,-0.03125 0.02432,-0.01691 0.04559,-0.03818 0.0625,-0.0625 0.01327,-0.01924 0.02382,-0.04034 0.03125,-0.0625 0.0026,-0.02072 0.0026,-0.04178 0,-0.0625 6.51e-4,-0.0104 6.51e-4,-0.02085 0,-0.03125 l 0,-1.34375 c 6.51e-4,-0.0104 6.51e-4,-0.02085 0,-0.03125 -0.0041,-0.03291 -0.01475,-0.06499 -0.03125,-0.09375 -0.0095,-0.01131 -0.01994,-0.02178 -0.03125,-0.03125 -0.0095,-0.01131 -0.01994,-0.02178 -0.03125,-0.03125 -0.0095,-0.01131 -0.01994,-0.02178 -0.03125,-0.03125 -0.02876,-0.01649 -0.06084,-0.02719 -0.09375,-0.03125 -0.0104,-6.52e-4 -0.02085,-6.52e-4 -0.03125,0 l -1.4999999,0 z"
       id="path5271-3-3-7-5-6"
       style="font-size:11.52737713px;font-style:normal;font-variant:normal;font-weight:bold;font-stretch:normal;text-align:start;line-height:125%;letter-spacing:0px;word-spacing:0px;writing-mode:lr-tb;text-anchor:start;color:#000000;fill:url(#linearGradient3052-3);fill-opacity:1;fill-rule:nonzero;stroke:none;stroke-width:0.9999997;marker:none;visibility:visible;display:block;overflow:visible;enable-background:new;font-family:Cantarell;-inkscape-font-specification:Cantarell Bold" />
  </g>
</svg>
