<?xml version="1.0" encoding="UTF-8"?>
<!-- Licensed under the Creative Commons Attribution-Share Alike 3.0 United States License (http://creativecommons.org/licenses/by-sa/3.0/) -->
<svg xmlns="http://www.w3.org/2000/svg" id="root" version="1.1" viewBox="0 0 16 16">
 <defs>
  <linearGradient id="d" x1="491.22" x2="491.22" y1="506.65" y2="732.05" gradientUnits="userSpaceOnUse" gradientTransform="matrix(.093294 0 0 .093294 -35.871 -43.769)">
   <stop stop-color="#c4a000" offset="0"/>
   <stop stop-color="#fef4a8" offset="1"/>
  </linearGradient>
  <radialGradient id="b" cx="301" cy="51.5" r="19.5" gradientUnits="userSpaceOnUse" gradientTransform="matrix(.97063 1.9684e-8 0 .28611 -291.16 -14.63)">
   <stop stop-color="#fff" offset="0"/>
   <stop stop-color="#fff" stop-opacity="0" offset="1"/>
  </radialGradient>
  <radialGradient id="a" cx="24.446" cy="35.878" r="20.531" gradientUnits="userSpaceOnUse" gradientTransform="matrix(.85696 3.2529e-7 -1.253e-7 .33010 -12.949 .77181)">
   <stop stop-color="#fff" offset="0"/>
   <stop stop-color="#fef6ba" offset="1"/>
  </radialGradient>
  <linearGradient id="c" x1="321.57" x2="311.65" y1="145.52" y2="118.5" gradientUnits="userSpaceOnUse" gradientTransform="matrix(.55569 0 0 .55568 -169.27 -70.906)">
   <stop stop-color="#c4a000" offset="0"/>
   <stop stop-color="#fef4a8" offset="1"/>
  </linearGradient>
 </defs>
 <rect width="15.004" height="15.003" x=".49815" y=".49833" fill="url(#a)" fill-rule="evenodd" stroke="url(#c)" stroke-miterlimit="10" rx="1.5143" ry="1.5143" stroke-linejoin="bevel"/>
 <rect width="12.997" height="13" x="1.5014" y="1.5016" fill="none" stroke="#fff" stroke-miterlimit="10" ry=".50810" stroke-linejoin="bevel" rx=".50812"/>
 <rect width="14" height="14" x="1.0017" y="1.0016" fill="url(#b)" fill-rule="evenodd" rx="1.9062" ry="1.9062"/>
 <path fill="#fff" d="m7.8406 4.8481c-1.0313 0-2.0592 0.3724-2.8438 1.0938-0.78455 0.72136-1.3125 1.7985-1.3125 3.2188 0 2.5548 1.7963 4.2328 4.0625 4.3125 0.12663 0.0073 0.20674 0.0078 0.3125 0 2.2396-0.0781 4.0313-1.6975 4.0313-4.2187 0-2.5923-1.8447-4.4062-4.25-4.4062zm0.093751 1.8125c0.52438 0 1.0551 0.16546 1.4688 0.5625 0.41369 0.39704 0.71875 1.0121 0.71875 1.9375 0 0.93418-0.31504 1.5672-0.75 1.9687-0.42725 0.39438-0.97727 0.58735-1.5 0.59375-0.021472-0.000857-0.042558 0-0.0625 0-0.52756-0.0065-1.0657-0.18202-1.4688-0.5625-0.41058-0.38755-0.6875-0.99125-0.6875-1.875 0-1.6692 1.0047-2.625 2.2813-2.625z" display="block"/>
 <path fill="url(#d)" d="m7.8923 3.8178c-1.0313 0-2.0592 0.3724-2.8438 1.0938-0.78455 0.72136-1.3125 1.7985-1.3125 3.2188 0 2.5548 1.7963 4.2328 4.0625 4.3125 0.12663 0.0073 0.20674 0.0078 0.3125 0 2.2396-0.0781 4.0313-1.6975 4.0313-4.2188 0-2.5923-1.8447-4.4062-4.25-4.4062zm0.093751 1.8125c0.52438 0 1.0551 0.16546 1.4688 0.5625 0.41369 0.39704 0.71875 1.0121 0.71875 1.9375 0 0.93418-0.31504 1.5672-0.75 1.9688-0.42725 0.39438-0.97727 0.58735-1.5 0.59375-0.021472-0.000857-0.042558 0-0.0625 0-0.52756-0.0065-1.0657-0.18202-1.4688-0.5625-0.41058-0.38756-0.6875-0.99125-0.6875-1.875 0-1.6692 1.0047-2.625 2.2813-2.625z" display="block"/>
</svg>
