<?xml version="1.0" encoding="UTF-8" standalone="no"?>
<!-- Licensed under the Creative Commons Attribution-Share Alike 3.0 United States License (http://creativecommons.org/licenses/by-sa/3.0/) -->
<svg xmlns="http://www.w3.org/2000/svg" version="1.1" viewBox="0 0 16 16">
 <defs>
  <linearGradient id="d" y2="732.05" gradientUnits="userSpaceOnUse" x2="491.22" gradientTransform="matrix(.093294 0 0 .093294 -35.871 -43.769)" y1="506.65" x1="491.22">
   <stop stop-color="#5c3566" offset="0"/>
   <stop stop-color="#ddc9db" offset="1"/>
  </linearGradient>
  <radialGradient id="b" gradientUnits="userSpaceOnUse" cy="51.5" cx="301" gradientTransform="matrix(.97063 1.9684e-8 0 .28611 -291.16 -14.63)" r="19.5">
   <stop stop-color="#fff" offset="0"/>
   <stop stop-color="#fff" stop-opacity="0" offset="1"/>
  </radialGradient>
  <radialGradient id="a" gradientUnits="userSpaceOnUse" cy="35.878" cx="24.446" gradientTransform="matrix(.85696 3.2529e-7 -1.253e-7 .33010 -12.949 .77181)" r="20.531">
   <stop stop-color="#fff" offset="0"/>
   <stop stop-color="#e4d4e2" offset="1"/>
  </radialGradient>
  <linearGradient id="c" y2="118.5" gradientUnits="userSpaceOnUse" x2="311.65" gradientTransform="matrix(.55569 0 0 .55568 -169.27 -70.906)" y1="145.52" x1="321.57">
   <stop stop-color="#5c3566" offset="0"/>
   <stop stop-color="#ddc9db" offset="1"/>
  </linearGradient>
 </defs>
 <g>
  <rect stroke-linejoin="bevel" height="15.003" stroke="url(#c)" fill="url(#a)" style="enable-background:new" fill-rule="evenodd" rx="1.5143" ry="1.5143" width="15.004" stroke-miterlimit="10" y=".49833" x=".49815"/>
  <rect stroke-linejoin="bevel" style="enable-background:new" rx=".50812" ry=".50810" height="13" width="12.997" stroke="#fff" stroke-miterlimit="10" y="1.5016" x="1.5014" fill="none"/>
  <rect style="enable-background:new" fill-rule="evenodd" rx="1.9062" ry="1.9062" height="14" width="14" y="1.0016" x="1.0017" fill="url(#b)"/>
  <path style="block-progression:tb;text-indent:0;color:#000000;enable-background:new;text-transform:none" d="m4.8933 4.8521c-0.11423 0-0.15625 0.077737-0.15625 0.1875v8.0938c0 0.13608 0.12063 0.21875 0.25 0.21875h2.5c1.5451 0 2.5098-0.33018 3.0937-0.8125 0.58395-0.48232 0.75-1.1169 0.75-1.625 0-0.80263-0.55943-1.6348-1.5312-2 0.57997-0.46987 0.90625-1.0439 0.90625-1.7188 0-0.41205-0.1117-1.0116-0.5625-1.5-0.4508-0.48837-1.2246-0.84375-2.4375-0.84375zm1.75 1.75h0.875c0.55971 0.01043 0.89623 0.12774 1.0625 0.25 0.17556 0.12909 0.25 0.27137 0.25 0.53125 0 0.26622-0.06532 0.40388-0.25 0.53125s-0.52487 0.21875-1.0625 0.21875h-0.875zm0.59375 3.2188c0.065135 0.00154 0.14025 0 0.1875 0 0.75806 0.011439 1.3016 0.12385 1.5938 0.28125 0.30884 0.16639 0.40625 0.36589 0.40625 0.65625 0 0.36264-0.13114 0.48727-0.46875 0.625s-0.90482 0.21875-1.625 0.21875h-0.6875v-1.75z" display="block" fill="#fff"/>
  <path style="block-progression:tb;text-indent:0;color:#000000;enable-background:new;text-transform:none" d="m4.8933 3.8217c-0.11423 0-0.15625 0.077737-0.15625 0.1875v8.0938c0 0.13608 0.12063 0.21875 0.25 0.21875h2.5c1.5451 0 2.5098-0.33018 3.0937-0.8125 0.58395-0.48232 0.75-1.1169 0.75-1.625 0-0.80263-0.55943-1.6348-1.5312-2 0.57997-0.46987 0.90625-1.0439 0.90625-1.7188 0-0.41205-0.1117-1.0116-0.5625-1.5-0.4508-0.48837-1.2246-0.84375-2.4375-0.84375zm1.75 1.75h0.875c0.55971 0.01043 0.89623 0.12774 1.0625 0.25 0.17556 0.12909 0.25 0.27137 0.25 0.53125 0 0.26622-0.06532 0.40388-0.25 0.53125s-0.52487 0.21875-1.0625 0.21875h-0.875zm0.59375 3.2188c0.065135 0.00154 0.14025 0 0.1875 0 0.75806 0.011439 1.3016 0.12385 1.5938 0.28125 0.30884 0.16639 0.40625 0.36589 0.40625 0.65625 0 0.36263-0.13114 0.48727-0.46875 0.625s-0.90482 0.21875-1.625 0.21875h-0.6875v-1.75z" display="block" fill="url(#d)"/>
 </g>
</svg>
