<?xml version="1.0" encoding="UTF-8" standalone="no"?>
<!-- Licensed under the Creative Commons Attribution-Share Alike 3.0 United States License (http://creativecommons.org/licenses/by-sa/3.0/) -->
<svg xmlns="http://www.w3.org/2000/svg" version="1.1" viewBox="0 0 16 16">
 <defs>
  <linearGradient id="e" y2="732.05" gradientUnits="userSpaceOnUse" x2="491.22" gradientTransform="matrix(.093294 0 0 .093294 -35.871 -43.769)" y1="506.65" x1="491.22">
   <stop stop-color="#069a6b" offset="0"/>
   <stop stop-color="#34e2ab" offset="1"/>
  </linearGradient>
  <radialGradient id="b" gradientUnits="userSpaceOnUse" cy="51.5" cx="301" gradientTransform="matrix(.97063 1.9684e-8 0 .28611 -291.16 -14.63)" r="19.5">
   <stop stop-color="#fff" offset="0"/>
   <stop stop-color="#fff" stop-opacity="0" offset="1"/>
  </radialGradient>
  <radialGradient id="a" gradientUnits="userSpaceOnUse" cy="35.878" cx="24.446" gradientTransform="matrix(.85696 3.2529e-7 -1.253e-7 .33010 -12.949 .77181)" r="20.531">
   <stop stop-color="#fff" offset="0"/>
   <stop stop-color="#c2f6e5" offset="1"/>
  </radialGradient>
  <linearGradient id="d" y2="118.5" gradientUnits="userSpaceOnUse" x2="311.65" gradientTransform="matrix(.55569 0 0 .55568 -169.27 -70.906)" y1="145.52" x1="321.57">
   <stop stop-color="#069a6b" offset="0"/>
   <stop stop-color="#b2f4df" offset="1"/>
  </linearGradient>
  <linearGradient id="c" y2="732.05" xlink:href="#linearGradient4373-2-5-8-6-3-3-2-1-5-9" gradientUnits="userSpaceOnUse" x2="491.22" gradientTransform="matrix(.093294 0 0 .093294 -35.871 -43.769)" y1="506.65" x1="491.22"/>
 </defs>
 <rect stroke-linejoin="bevel" height="15.003" stroke="url(#d)" fill="url(#a)" style="enable-background:new" fill-rule="evenodd" rx="1.5143" ry="1.5143" width="15.004" stroke-miterlimit="10" y=".49833" x=".49815"/>
 <rect stroke-linejoin="bevel" style="enable-background:new" rx=".50812" ry=".50810" height="13" width="12.997" stroke="#fff" stroke-miterlimit="10" y="1.5016" x="1.5014" fill="none"/>
 <rect style="enable-background:new" fill-rule="evenodd" rx="1.9062" ry="1.9062" height="14" width="14" y="1.0016" x="1.0017" fill="url(#b)"/>
 <path style="color:#000000;enable-background:new" d="m8.1237 4.8417c-0.9594 0-1.7722 0.24647-2.3437 0.6875-0.57159 0.44103-0.875 1.0875-0.875 1.8125 0 0.76738 0.30008 1.3618 0.75 1.75 0.44992 0.38821 1.0123 0.59908 1.5625 0.78125 0.55019 0.18217 1.1026 0.32786 1.4688 0.5 0.18307 0.08607 0.32533 0.18927 0.40625 0.28125s0.09673 0.15012 0.09375 0.28125c0 0.18652-0.09038 0.35419-0.34375 0.5s-0.67085 0.25-1.1562 0.25c-0.38979 0-1.0737-0.12598-2.0937-0.5l-0.1875-0.0625a0.25002 0.25002 0 0 0 -0.09375 -0.03125 0.25002 0.25002 0 0 0 -0.0625 0 0.25002 0.25002 0 0 0 -0.15625 0.125 0.25002 0.25002 0 0 0 -0.03125 0.03125l-0.46875 1.3125a0.25002 0.25002 0 0 0 -0.03125 0.03125 0.25002 0.25002 0 0 0 0 0.0625 0.25002 0.25002 0 0 0 0.03125 0.09375 0.25002 0.25002 0 0 0 0.03125 0.0625 0.25002 0.25002 0 0 0 0.03125 0.03125 0.25002 0.25002 0 0 0 0.0625 0.03125 0.25002 0.25002 0 0 0 0.03125 0l0.1875 0.09375v-0.03125c0.77838 0.30206 1.5983 0.59375 2.6562 0.59375 1.2747 0 2.1718-0.32057 2.75-0.8125 0.57818-0.49193 0.8125-1.1637 0.8125-1.7812 0-0.75379-0.30407-1.2962-0.75-1.6875-0.44593-0.39134-1.0137-0.62417-1.5625-0.8125-0.54881-0.18833-1.097-0.33324-1.4688-0.5-0.18586-0.08338-0.32338-0.165-0.40625-0.25s-0.125-0.17508-0.125-0.28125c0-0.20152 0.09694-0.33345 0.3125-0.46875s0.58083-0.25 1.0312-0.25c0.6839 0 1.2751 0.18955 1.9063 0.4375a0.25002 0.25002 0 0 0 0.0625 0 0.25002 0.25002 0 0 0 0.0625 0 0.25002 0.25002 0 0 0 0.0625 0 0.25002 0.25002 0 0 0 0.09375 -0.0625 0.25002 0.25002 0 0 0 0.03125 -0.0625 0.25002 0.25002 0 0 0 0.03125 -0.03125l0.4375-1.2812a0.25002 0.25002 0 0 0 0 -0.0625 0.25002 0.25002 0 0 0 0 -0.0625 0.25002 0.25002 0 0 0 0 -0.0625 0.25002 0.25002 0 0 0 -0.0625 -0.09375 0.25002 0.25002 0 0 0 -0.0625 -0.03125l-0.15625-0.0625a0.25002 0.25002 0 0 0 -0.03125 0c-0.292-0.0921-1.1279-0.4673-2.4383-0.4673z" display="block" fill="#fff"/>
 <path style="color:#000000;enable-background:new" d="m8.2362 3.7416c-0.9594 0-1.7722 0.24647-2.3437 0.6875-0.57159 0.44103-0.875 1.0875-0.875 1.8125 0 0.76738 0.30008 1.3618 0.75 1.75 0.44992 0.38821 1.0123 0.59908 1.5625 0.78125 0.55019 0.18217 1.1026 0.32786 1.4688 0.5 0.18307 0.08607 0.32533 0.18927 0.40625 0.28125s0.09673 0.15012 0.09375 0.28125c0 0.18652-0.09038 0.35419-0.34375 0.5s-0.67085 0.25-1.1562 0.25c-0.38979 0-1.0737-0.12598-2.0937-0.5l-0.1875-0.0625a0.25002 0.25002 0 0 0 -0.09375 -0.03125 0.25002 0.25002 0 0 0 -0.0625 0 0.25002 0.25002 0 0 0 -0.15625 0.125 0.25002 0.25002 0 0 0 -0.03125 0.03125l-0.46875 1.3125a0.25002 0.25002 0 0 0 -0.03125 0.03125 0.25002 0.25002 0 0 0 0 0.0625 0.25002 0.25002 0 0 0 0.03125 0.09375 0.25002 0.25002 0 0 0 0.03125 0.0625 0.25002 0.25002 0 0 0 0.03125 0.03125 0.25002 0.25002 0 0 0 0.0625 0.03125 0.25002 0.25002 0 0 0 0.03125 0l0.1875 0.09375v-0.03125c0.77838 0.30206 1.5983 0.59375 2.6562 0.59375 1.2747 0 2.1718-0.32057 2.75-0.8125 0.57818-0.49193 0.8125-1.1637 0.8125-1.7812 0-0.75379-0.30407-1.2962-0.75-1.6875-0.44593-0.39134-1.0137-0.62417-1.5625-0.8125-0.54881-0.18833-1.097-0.33324-1.4688-0.5-0.18586-0.08338-0.32338-0.165-0.40625-0.25s-0.125-0.17508-0.125-0.28125c0-0.20152 0.09694-0.33345 0.3125-0.46875s0.58083-0.25 1.0312-0.25c0.6839 0 1.2751 0.18955 1.9063 0.4375a0.25002 0.25002 0 0 0 0.0625 0 0.25002 0.25002 0 0 0 0.0625 0 0.25002 0.25002 0 0 0 0.0625 0 0.25002 0.25002 0 0 0 0.09375 -0.0625 0.25002 0.25002 0 0 0 0.03125 -0.0625 0.25002 0.25002 0 0 0 0.03125 -0.03125l0.4375-1.2812a0.25002 0.25002 0 0 0 0 -0.0625 0.25002 0.25002 0 0 0 0 -0.0625 0.25002 0.25002 0 0 0 0 -0.0625 0.25002 0.25002 0 0 0 -0.0625 -0.09375 0.25002 0.25002 0 0 0 -0.0625 -0.03125l-0.15625-0.0625a0.25002 0.25002 0 0 0 -0.03125 0c-0.291-0.0922-1.1273-0.4674-2.4378-0.4674z" display="block" fill="url(#e)"/>
 <rect opacity=".8" style="color:#000000;enable-background:new" rx="1.5143" ry="1.2392" height="1.2392" width="2.3408" display="block" y="-2.359" x="3.5341" fill="url(#c)"/>
</svg>
