<?xml version="1.0" encoding="UTF-8"?>
<!-- Licensed under the Creative Commons Attribution-Share Alike 3.0 United States License (http://creativecommons.org/licenses/by-sa/3.0/) -->
<svg xmlns="http://www.w3.org/2000/svg" id="root" version="1.1" viewBox="0 0 16 16">
 <defs>
  <linearGradient id="d" x1="491.22" x2="491.22" y1="506.65" y2="732.05" gradientUnits="userSpaceOnUse" gradientTransform="matrix(.093294 0 0 .093294 -35.871 -43.769)">
   <stop stop-color="#888a85" offset="0"/>
   <stop stop-color="#d3d7cf" offset="1"/>
  </linearGradient>
  <radialGradient id="b" cx="301" cy="51.5" r="19.5" gradientUnits="userSpaceOnUse" gradientTransform="matrix(.97063 1.9684e-8 0 .28611 -291.16 -14.63)">
   <stop stop-color="#fff" offset="0"/>
   <stop stop-color="#fff" stop-opacity="0" offset="1"/>
  </radialGradient>
  <radialGradient id="a" cx="24.446" cy="35.878" r="20.531" gradientUnits="userSpaceOnUse" gradientTransform="matrix(.85696 3.2529e-7 -1.253e-7 .33010 -12.949 .77181)">
   <stop stop-color="#fff" offset="0"/>
   <stop stop-color="#dcdcdc" offset="1"/>
  </radialGradient>
  <linearGradient id="c" x1="321.57" x2="311.65" y1="145.52" y2="118.5" gradientUnits="userSpaceOnUse" gradientTransform="matrix(.55569 0 0 .55568 -169.27 -70.906)">
   <stop stop-color="#9b9b9b" offset="0"/>
   <stop stop-color="#d3d7cf" offset="1"/>
  </linearGradient>
 </defs>
 <rect width="15.004" height="15.003" x=".49815" y=".49833" fill="url(#a)" fill-rule="evenodd" stroke="url(#c)" stroke-miterlimit="10" rx="1.5143" ry="1.5143" stroke-linejoin="bevel"/>
 <rect width="12.997" height="13" x="1.5014" y="1.5016" fill="none" stroke="#fff" stroke-miterlimit="10" ry=".50810" stroke-linejoin="bevel" rx=".50812"/>
 <rect width="14" height="14" x="1.0017" y="1.0016" fill="url(#b)" fill-rule="evenodd" rx="1.9062" ry="1.9062"/>
 <path fill="#fff" d="m7.029 4.8559c-0.51432 0.047292-1.0152 0.19509-1.5 0.4375-0.0104-0.0006514-0.02085-0.0006514-0.03125 0l-0.1875 0.125c-0.03544 0.013371-0.06778 0.034924-0.09375 0.0625-0.01327 0.019236-0.02382 0.040343-0.03125 0.0625-0.0026 0.020724-0.0026 0.041776 0 0.0625-0.0026 0.020724-0.0026 0.041776 0 0.0625 0.0074 0.022157 0.01798 0.043264 0.03125 0.0625l0.4375 1.0938c0.0095 0.011311 0.01994 0.021782 0.03125 0.03125 0.0095 0.011311 0.01994 0.021782 0.03125 0.03125 0.0095 0.011311 0.01994 0.021782 0.03125 0.03125 0.0095 0.011311 0.01994 0.021782 0.03125 0.03125 0.02876 0.016495 0.06084 0.027188 0.09375 0.03125 0.02072 0.00261 0.04178 0.00261 0.0625 0 0.01131-0.00947 0.02178-0.019939 0.03125-0.03125l0.21875-0.0625c0.0104 0.0006514 0.02085 0.0006514 0.03125 0 0.2531-0.10708 0.81054-0.25 1.1875-0.25 0.61612 0 0.93062 0.15784 1.0938 0.3125 0.16314 0.15466 0.1875 0.3218 0.1875 0.46875 0 0.28396-0.1033 0.4873-0.28125 0.6875s-0.43874 0.38297-0.71875 0.625c-0.5601 0.4839-1.1564 1.1824-1.1564 2.5v0.25c-0.000651 0.0104-0.000651 0.02085 0 0.03125 0.0041 0.03291 0.01475 0.06499 0.03125 0.09375 0.0095 0.01131 0.01994 0.02178 0.03125 0.03125 0.0095 0.01131 0.01994 0.02178 0.03125 0.03125 0.03465 0.03208 0.07855 0.05403 0.125 0.0625 0.0104 0.000652 0.02085 0.000652 0.03125 0h1.4062c0.02072 0.0026 0.04178 0.0026 0.0625 0 0.03545-0.01337 0.06778-0.03492 0.09375-0.0625 0.01131-0.0095 0.02178-0.01994 0.03125-0.03125 0.03208-0.03464 0.05403-0.07855 0.0625-0.125 0.000651-0.0104 0.000651-0.02085 0-0.03125v-0.25c0-0.42536 0.10634-0.69896 0.28125-0.9375s0.44641-0.42344 0.71875-0.65625c0.54468-0.46561 1.1563-1.1016 1.1563-2.375 0-0.78379-0.33057-1.4123-0.875-1.8125-0.54443-0.40022-1.2799-0.59375-2.1562-0.59375-0.16808 0-0.35981-0.015764-0.53125 0zm-0.34375 6.9687c-0.04343-0.000679-0.087 0.01021-0.125 0.03125-0.03888 0.02211-0.07164 0.05487-0.09375 0.09375-0.01327 0.01924-0.02385 0.04034-0.03125 0.0625-0.0026 0.02072-0.0026 0.04178 0 0.0625v1.3438c-0.0026 0.02072-0.0026 0.04178 0 0.0625 0.0074 0.02216 0.01798 0.04326 0.03125 0.0625 0.02211 0.03888 0.05487 0.07164 0.09375 0.09375 0.038 0.02104 0.08157 0.03193 0.125 0.03125h1.5c0.02072 0.0026 0.04178 0.0026 0.0625 0 0.03291-0.0041 0.06499-0.01475 0.09375-0.03125 0.02432-0.01691 0.04559-0.03818 0.0625-0.0625 0.01327-0.01924 0.02382-0.04034 0.03125-0.0625 0.0026-0.02072 0.0026-0.04178 0-0.0625 0.000651-0.0104 0.000651-0.02085 0-0.03125v-1.3438c0.000651-0.0104 0.000651-0.02085 0-0.03125-0.0041-0.03291-0.01475-0.06499-0.03125-0.09375-0.0095-0.01131-0.01994-0.02178-0.03125-0.03125-0.0095-0.01131-0.01994-0.02178-0.03125-0.03125-0.0095-0.01131-0.01994-0.02178-0.03125-0.03125-0.02876-0.01649-0.06084-0.02719-0.09375-0.03125-0.0104-0.000651-0.02085-0.000651-0.03125 0h-1.5z" display="block"/>
 <path fill="url(#d)" d="m7.0808 3.8256c-0.51432 0.047292-1.0152 0.19509-1.5 0.4375-0.0104-0.0006514-0.02085-0.0006514-0.03125 0l-0.1875 0.125c-0.03544 0.013371-0.06778 0.034924-0.09375 0.0625-0.01327 0.019236-0.02382 0.040343-0.03125 0.0625-0.0026 0.020724-0.0026 0.041776 0 0.0625-0.0026 0.020724-0.0026 0.041776 0 0.0625 0.0074 0.022157 0.01798 0.043264 0.03125 0.0625l0.4375 1.0938c0.0095 0.011311 0.01994 0.021782 0.03125 0.03125 0.0095 0.011311 0.01994 0.021782 0.03125 0.03125 0.0095 0.011311 0.01994 0.021782 0.03125 0.03125 0.0095 0.011311 0.01994 0.021782 0.03125 0.03125 0.02876 0.016495 0.06084 0.027188 0.09375 0.03125 0.02072 0.00261 0.04178 0.00261 0.0625 0 0.01131-0.00947 0.02178-0.019939 0.03125-0.03125l0.21875-0.0625c0.0104 0.0006514 0.02085 0.0006514 0.03125 0 0.2531-0.10708 0.81054-0.25 1.1875-0.25 0.61612 0 0.93062 0.15784 1.0938 0.3125 0.16314 0.15466 0.1875 0.3218 0.1875 0.46875 0 0.28396-0.1033 0.4873-0.28125 0.6875s-0.43874 0.38297-0.71875 0.625c-0.5601 0.4839-1.1564 1.1824-1.1564 2.5003v0.25c-0.000651 0.0104-0.000651 0.02085 0 0.03125 0.0041 0.03291 0.01475 0.06499 0.03125 0.09375 0.0095 0.01131 0.01994 0.02178 0.03125 0.03125 0.0095 0.01131 0.01994 0.02178 0.03125 0.03125 0.03465 0.03208 0.07855 0.05403 0.125 0.0625 0.0104 0.000651 0.02085 0.000651 0.03125 0h1.4062c0.02072 0.0026 0.04178 0.0026 0.0625 0 0.03545-0.01337 0.06778-0.03492 0.09375-0.0625 0.01131-0.0095 0.02178-0.01994 0.03125-0.03125 0.03208-0.03464 0.05403-0.07855 0.0625-0.125 0.000651-0.0104 0.000651-0.02085 0-0.03125v-0.25c0-0.42537 0.10634-0.69896 0.28125-0.9375s0.44641-0.42344 0.71875-0.65625c0.54468-0.46561 1.1563-1.1016 1.1563-2.375 0-0.78379-0.33057-1.4123-0.875-1.8125-0.54443-0.40022-1.2799-0.59375-2.1562-0.59375-0.16808 0-0.35981-0.015764-0.53125 0zm-0.3437 6.9684c-0.04343-0.000679-0.087 0.01021-0.125 0.03125-0.03888 0.02211-0.07164 0.05487-0.09375 0.09375-0.01327 0.01924-0.02385 0.04034-0.03125 0.0625-0.0026 0.02072-0.0026 0.04178 0 0.0625v1.3438c-0.0026 0.02072-0.0026 0.04178 0 0.0625 0.0074 0.02216 0.01798 0.04326 0.03125 0.0625 0.02211 0.03888 0.05487 0.07164 0.09375 0.09375 0.038 0.02104 0.08157 0.03193 0.125 0.03125h1.5c0.02072 0.0026 0.04178 0.0026 0.0625 0 0.03291-0.0041 0.06499-0.01475 0.09375-0.03125 0.02432-0.01691 0.04559-0.03818 0.0625-0.0625 0.01327-0.01924 0.02382-0.04034 0.03125-0.0625 0.0026-0.02072 0.0026-0.04178 0-0.0625 0.000651-0.0104 0.000651-0.02085 0-0.03125v-1.3438c0.000651-0.0104 0.000651-0.02085 0-0.03125-0.0041-0.03291-0.01475-0.06499-0.03125-0.09375-0.0095-0.01131-0.01994-0.02178-0.03125-0.03125-0.0095-0.01131-0.01994-0.02178-0.03125-0.03125-0.0095-0.01131-0.01994-0.02178-0.03125-0.03125-0.02876-0.01649-0.06084-0.02719-0.09375-0.03125-0.0104-0.000652-0.02085-0.000652-0.03125 0h-1.5z" display="block"/>
</svg>
