<?xml version="1.0" encoding="UTF-8"?>
<!-- Licensed under the Creative Commons Attribution-Share Alike 3.0 United States License (http://creativecommons.org/licenses/by-sa/3.0/) -->
<svg xmlns="http://www.w3.org/2000/svg" id="root" version="1.1" viewBox="0 0 16 14">
 <path d="m1.9062 1.4375c-0.491 0.0397-0.90833 0.4208-0.9062 0.8437v6.875c-0.0015 0.0268-0.0015 0.0358 0 0.0626v0.7812h0.8438 0.1562 2.2812v-4.7188c-0.0045-0.9042 0.7349-1.4956 1.5626-1.5624h0.03125 0.03125c0.039713-0.0016 0.053172-0.00107 0.09375 0 0.00812 0.0002133 0.023307-0.0003199 0.03125 0h4.9688v-1.4375c0-0.4485-0.477-0.8438-1-0.8438h-8c-0.03119-0.00126-0.06256-0.00126-0.09375 0zm4 3c-0.491 0.0397-0.9083 0.4208-0.9062 0.8437v6.875c-0.0015 0.027-0.0015 0.036 0 0.063v0.781h0.8438 0.1562 8 0.094 0.906v-0.688c0.0059-0.05338 0.0059-0.10287 0-0.15625v-6.875c0-0.4482-0.477-0.8435-1-0.8435h-8c-0.031193-0.00126-0.062557-0.00126-0.09375 0zm0.53125 2.4375h7.125v4.6875h-7.125v-4.6875z"/>
</svg>
