<?xml version="1.0" encoding="UTF-8"?>
<!-- Licensed under the Creative Commons Attribution-Share Alike 3.0 United States License (http://creativecommons.org/licenses/by-sa/3.0/) -->
<svg xmlns="http://www.w3.org/2000/svg" id="root" version="1.1" viewBox="0 0 5 12">
 <path d="m4.75 4.4276c-0.017-0.0714-0.0556-0.1375-0.1094-0.1875l-1.875-1.875-0.26562-0.25-0.26562 0.25-1.875 1.875c-0.06894 0.07-0.10908 0.1675-0.1094 0.2657v0.015625 0.03125 0.32812h0.28125 0.046875c0.11834 0.017935 0.24422-0.024025 0.32812-0.10938l1.5938-1.5938 1.6094 1.5938c0.069545 0.069441 0.16735 0.10971 0.26562 0.10938h0.078125 0.29688v-0.29688-0.046875-0.03125-0.046875z"/>
 <path d="m4.75 7.5724c-0.017 0.0714-0.0556 0.1375-0.1094 0.1875l-1.875 1.875-0.26562 0.25-0.26562-0.25-1.875-1.875c-0.06894-0.07-0.10908-0.1675-0.1094-0.2657v-0.015625-0.03125-0.32812h0.28125 0.04687c0.11834-0.0179 0.24422 0.0241 0.32812 0.1094l1.5938 1.5938 1.6094-1.5938c0.0695-0.0694 0.1673-0.1097 0.2656-0.1094h0.07813 0.29688v0.29688 0.046875 0.03125 0.046875z"/>
</svg>
