<?xml version="1.0" encoding="UTF-8" standalone="no"?>
<!-- Licensed under the Creative Commons Attribution-Share Alike 3.0 United States License (http://creativecommons.org/licenses/by-sa/3.0/) -->
<svg xmlns="http://www.w3.org/2000/svg" version="1.1" viewBox="0 0 5 12">
 <g transform="translate(0 -.11514)">
  <path style="block-progression:tb;text-indent:0;color:#000000;text-transform:none" d="m4.75 4.5428c-0.017-0.0714-0.0556-0.1376-0.1094-0.1875l-1.875-1.875-0.2656-0.25-0.26562 0.25-1.875 1.875c-0.06894 0.0699-0.10908 0.1674-0.1094 0.2656v0.015625 0.03125 0.32812h0.28125 0.046875c0.11834 0.0179 0.24422-0.024 0.32813-0.1094l1.5938-1.5937 1.6094 1.5937c0.069545 0.069441 0.16735 0.10971 0.26562 0.10938h0.078125 0.29688v-0.29688-0.046875-0.03125-0.046875z"/>
  <path style="block-progression:tb;text-indent:0;color:#000000;text-transform:none" d="m4.75 7.6875c-0.017 0.0714-0.0556 0.1375-0.1094 0.1875l-1.875 1.875-0.2656 0.25-0.2656-0.25-1.875-1.875c-0.06894-0.0699-0.10908-0.1674-0.1094-0.2656v-0.015625-0.03125-0.32812h0.28125 0.04687c0.11834-0.018 0.24422 0.024 0.32812 0.1094l1.5938 1.5937 1.6094-1.5937c0.0695-0.0695 0.1673-0.1098 0.2656-0.1094h0.07813 0.29688v0.29688 0.046875 0.03125 0.046875z"/>
 </g>
</svg>
