<?xml version="1.0" encoding="UTF-8"?>
<!-- Licensed under the Creative Commons Attribution-Share Alike 3.0 United States License (http://creativecommons.org/licenses/by-sa/3.0/) -->
<svg xmlns="http://www.w3.org/2000/svg" id="root" version="1.1" viewBox="0 0 10 10">
 <path fill="#fcaf3e" d="m4.9599 0.36192c-0.3271-0.0178-0.6462 0.17616-0.8947 0.60292l-3.8898 7.2157c-0.33202 0.59959 0.030011 1.4587 0.68072 1.4587h8.1881c0.611 0 1.1844-0.72158 0.75852-1.4587l-3.9287-7.1768c-0.2482-0.40212-0.5871-0.62397-0.9141-0.64178zm0.0389 2.4506c0.3388-0.0107 0.6525 0.303 0.6418 0.6418v2.4506c0.00436 0.32881-0.29353 0.62238-0.62238 0.62238-0.32884 0-0.62702-0.29357-0.62238-0.62238v-2.4506c-0.00498-0.2904 0.22038-0.56794 0.50568-0.62238 0.031803-0.00902 0.064385-0.015497 0.097246-0.019418zm0.019449 4.3372c0.34373 0 0.62238 0.27865 0.62238 0.62238s-0.27865 0.62238-0.62238 0.62238-0.62238-0.27865-0.62238-0.62238 0.27865-0.62238 0.62238-0.62238z"/>
</svg>
