<?xml version="1.0" encoding="UTF-8" standalone="no"?>
<!-- Licensed under the Creative Commons Attribution-Share Alike 3.0 United States License (http://creativecommons.org/licenses/by-sa/3.0/) -->
<svg xmlns="http://www.w3.org/2000/svg" version="1.1" viewBox="0 0 10 10">
 <g fill="#fcaf3e" transform="matrix(.62238 0 0 .62238 .020993 .020993)">
  <path style="color:#bebebe;enable-background:new" d="m7.9355 0.54778c-0.5255-0.0286-1.0382 0.28305-1.4375 0.96875l-6.25 11.594c-0.53347 0.96339 0.04822 2.3438 1.0938 2.3438h13.156c0.98172 0 1.9031-1.1594 1.2188-2.3438l-6.3127-11.531c-0.39872-0.64617-0.94325-1.0026-1.4688-1.0312zm0.0625 3.9375c0.54448-0.0172 1.0485 0.48677 1.0312 1.0312v3.9375c0.007 0.52831-0.47163 1-1 1-0.52836 0-1.0075-0.47169-1-1v-3.9375c-0.008-0.4666 0.3541-0.91253 0.8125-1 0.0511-0.0145 0.10345-0.0249 0.15625-0.0312zm0.03125 6.9687c0.55228 0 1 0.44772 1 1s-0.44772 1-1 1-1-0.44772-1-1 0.44772-1 1-1z" fill="#fcaf3e"/>
 </g>
</svg>
