<?xml version="1.0" encoding="UTF-8"?>
<!-- Licensed under the Creative Commons Attribution-Share Alike 3.0 United States License (http://creativecommons.org/licenses/by-sa/3.0/) -->
<svg xmlns="http://www.w3.org/2000/svg" id="root" version="1.1" viewBox="0 0 16 16">
 <path fill="currentColor" d="m4.4375 2c-0.5204 0-0.9375 0.4171-0.9375 0.9375v0.125c0 0.5204 0.4171 0.9375 0.9375 0.9375h0.5625v1h-0.6562c-0.4742 0-0.8438 0.3696-0.8438 0.8438v8.1562h9v-8.1562c0-0.4742-0.37-0.8438-0.844-0.8438h-0.656v-1h0.562c0.521 0 0.938-0.4171 0.938-0.9375v-0.125c0-0.5204-0.417-0.9375-0.938-0.9375h-7.125zm0.90625 5.5625c0.02072-0.00261 0.04178-0.00261 0.0625 0h0.5937c0.0329 0.0041 0.065 0.0147 0.0938 0.0313 0.0221 0.0074 0.0432 0.0179 0.0624 0.0312 0.0564 0.045 0.0916 0.1154 0.0938 0.1875v0.96875l0.90625-1.125c0.038-0.0492 0.095-0.0833 0.1563-0.0937 0.0104-0.0006514 0.02085-0.0006514 0.03125 0h0.6875c0.0329 0.0041 0.0649 0.0148 0.0937 0.0313 0.0222 0.0074 0.0433 0.0179 0.0625 0.0312 0.04921 0.03799 0.08339 0.094948 0.09375 0.15625 0.0059 0.030879 0.0059 0.062871 0 0.09375-0.0133 0.0354-0.0349 0.0678-0.0624 0.0938l-1.1876 1.4687 1.2813 1.5625c0.01327 0.01924 0.02385 0.04034 0.03125 0.0625 0.02104 0.038 0.031929 0.08157 0.03125 0.125-0.0041 0.032-0.0148 0.064-0.0312 0.093-0.0222 0.039-0.0549 0.072-0.0938 0.094-0.01924 0.01327-0.04034 0.02385-0.0625 0.03125-0.02072 0.0026-0.04178 0.0026-0.0625 0h-0.71875c-0.0329-0.004-0.0649-0.014-0.0937-0.031-0.0222-0.007-0.0433-0.018-0.0625-0.031-0.0113-0.01-0.0218-0.02-0.0312-0.032l-0.9688-1.218v1.0625c-0.0022 0.072-0.0374 0.143-0.0938 0.188-0.0192 0.013-0.0403 0.024-0.0624 0.031-0.0288 0.017-0.0609 0.027-0.0938 0.031h-0.59375c-0.02072 0.0026-0.04178 0.0026-0.0625 0-0.09079-0.02092-0.16658-0.09671-0.1875-0.1875-0.0026-0.02072-0.0026-0.04178 0-0.0625v-3.3438c0.005-0.0942 0.0686-0.1831 0.1563-0.2184 0.0095-0.0114 0.0199-0.0218 0.0313-0.0313zm4.0937 0.9687c0.2374 0 0.39451 0.086642 0.5625 0.15625 0.0095-0.011311 0.01994-0.02178 0.03125-0.03125 0.0095-0.011311 0.01994-0.02178 0.03125-0.03125 0.02876-0.016496 0.06084-0.02719 0.09375-0.03125 0.0104-0.0006514 0.02085-0.0006514 0.03125 0h0.40625c0.04343-0.000679 0.087 0.010212 0.125 0.03125 0.01131 0.00947 0.02175 0.019939 0.03125 0.03125 0.04343 0.030323 0.0768 0.074815 0.09375 0.125 0.0026 0.020724 0.0026 0.041776 0 0.0625v2.375c0 0.3107-0.07692 0.6703-0.3125 0.96875s-0.62478 0.5-1.1875 0.5c-0.24977 0-0.57703-0.06006-0.90625-0.1875l-0.094-0.031c-0.0114-0.01-0.0218-0.02-0.0313-0.031-0.0607-0.032-0.1072-0.09-0.125-0.157-0.00068-0.04343 0.01021-0.087 0.03125-0.125l0.1562-0.437c0.0074-0.022 0.018-0.044 0.0312-0.063 0.0095-0.011 0.02-0.022 0.0313-0.031 0.0506-0.045 0.12-0.068 0.1875-0.063 0.02072-0.0026 0.04178-0.0026 0.0625 0l0.09375 0.0625c0.13955 0.04652 0.33541 0.09375 0.5 0.09375 0.27536 0 0.35369-0.05106 0.40625-0.125 0.01963-0.02762 0.01759-0.1358 0.03125-0.1875-0.068835 0.01053-0.11241 0.0625-0.1875 0.0625-0.42852 0-0.80814-0.14278-1.0625-0.40625-0.2543-0.263-0.3749-0.641-0.3749-1.062 0-0.5275 0.1921-0.9249 0.4687-1.1562 0.2766-0.2314 0.6012-0.3126 0.875-0.3126zm0.1563 0.9688c-0.1549 0-0.2537 0.0358-0.3126 0.0938-0.0588 0.0579-0.0937 0.1768-0.0937 0.4372 0 0.22455 0.05965 0.31499 0.125 0.375 0.0653 0.06 0.1607 0.094 0.3125 0.094 0.06061 0 0.10828-0.01424 0.15625-0.03125v-0.9375c-0.06-0.0116-0.1334-0.0315-0.1874-0.0315z" display="block"/>
</svg>
