<?xml version="1.0" encoding="UTF-8" standalone="no"?>
<svg width="16px" height="16px" viewBox="0 0 16 16" version="1.1" xmlns="http://www.w3.org/2000/svg" xmlns:xlink="http://www.w3.org/1999/xlink">
    <!-- Generator: Sketch 41.2 (35397) - http://www.bohemiancoding.com/sketch -->
    <title>macOS-ExitFullscreen</title>
    <desc>Created with Sketch.</desc>
    <defs></defs>
    <g id="Page-1" stroke="none" stroke-width="1" fill="none" fill-rule="evenodd">
        <g id="macOS-ExitFullscreen" fill="#231F20">
            <path d="M13.3269097,8 L13.4477881,8 L13.6089594,8 C13.7200082,8.02837354 13.818904,8.09148741 13.891009,8.18 C14.0363303,8.35398442 14.0363303,8.60601558 13.891009,8.78 C13.818904,8.86851259 13.7200082,8.93162646 13.6089594,8.96 L13.4477881,8.96 L8.55221188,8.96 L8.39104065,8.96 C8.27999181,8.93162646 8.181096,8.86851259 8.10899099,8.78 C7.96366967,8.60601558 7.96366967,8.35398442 8.10899099,8.18 C8.181096,8.09148741 8.27999181,8.02837354 8.39104065,8 L8.55221188,8 L13.3269097,8 L13.3269097,8 Z" id="Shape"></path>
            <path d="M8.96406107,13.3269097 L8.96406107,13.4477881 C8.96954562,13.5013698 8.96954562,13.5553776 8.96406107,13.6089594 C8.93568753,13.7200082 8.87257366,13.818904 8.78406107,13.891009 C8.61007665,14.0363303 8.35804549,14.0363303 8.18406107,13.891009 C8.09554848,13.818904 8.03243461,13.7200082 8.00406107,13.6089594 C7.99864631,13.555374 7.99864631,13.5013734 8.00406107,13.4477881 L8.00406107,13.3269097 L8.00406107,8.67309031 L8.00406107,8.55221188 C7.99864631,8.49862658 7.99864631,8.44462595 8.00406107,8.39104065 C8.03243461,8.27999181 8.09554848,8.181096 8.18406107,8.10899099 C8.35804549,7.96366967 8.61007665,7.96366967 8.78406107,8.10899099 C8.87257366,8.181096 8.93568753,8.27999181 8.96406107,8.39104065 C8.96954562,8.44462236 8.96954562,8.49863017 8.96406107,8.55221188 L8.96406107,8.67309031 L8.96406107,13.3269097 L8.96406107,13.3269097 Z" id="Shape"></path>
            <path d="M14.8338264,14.0638264 L14.9238264,14.1538264 C14.9620954,14.1967626 14.9956226,14.2437007 15.0238264,14.2938264 C15.0832507,14.3966317 15.1078076,14.5159081 15.0938264,14.6338264 C15.0671784,14.8759831 14.8759831,15.0671784 14.6338264,15.0938264 C14.5159081,15.1078076 14.3966317,15.0832507 14.2938264,15.0238264 L14.1538264,14.9238264 L14.0638264,14.8338264 L8.76382637,9.53382637 L8.67382637,9.44382637 C8.63549574,9.40093936 8.60196361,9.35399438 8.57382637,9.30382637 C8.51440206,9.20102102 8.48984516,9.08174463 8.50382637,8.96382637 C8.53047438,8.72166967 8.72166967,8.53047438 8.96382637,8.50382637 C9.08174463,8.48984516 9.20102102,8.51440206 9.30382637,8.57382637 L9.44382637,8.67382637 L9.53382637,8.76382637 L14.8338264,14.0638264 Z" id="Shape"></path>
            <path d="M1.67309031,6.96 L1.55221188,6.96 L1.39104065,6.96 C1.27999181,6.93162646 1.181096,6.86851259 1.10899099,6.78 C0.96366967,6.60601558 0.96366967,6.35398442 1.10899099,6.18 C1.181096,6.09148741 1.27999181,6.02837354 1.39104065,6 L1.55221188,6 L6.44778812,6 L6.60895935,6 C6.72000819,6.02837354 6.818904,6.09148741 6.89100901,6.18 C7.03633033,6.35398442 7.03633033,6.60601558 6.89100901,6.78 C6.818904,6.86851259 6.72000819,6.93162646 6.60895935,6.96 L6.44778812,6.96 L1.67309031,6.96 L1.67309031,6.96 Z" id="Shape"></path>
            <path d="M6.00401005,1.67309031 L6.00401005,1.55221188 C5.99866332,1.49862312 5.99866332,1.44462941 6.00401005,1.39104065 C6.03238359,1.27999181 6.09549746,1.181096 6.18401005,1.10899099 C6.35799447,0.96366967 6.61002563,0.96366967 6.78401005,1.10899099 C6.87252264,1.181096 6.93563651,1.27999181 6.96401005,1.39104065 C6.96942481,1.44462595 6.96942481,1.49862658 6.96401005,1.55221188 L6.96401005,1.67309031 L6.96401005,6.32690969 L6.96401005,6.44778812 C6.96942481,6.50137342 6.96942481,6.55537405 6.96401005,6.60895935 C6.93563651,6.72000819 6.87252264,6.818904 6.78401005,6.89100901 C6.61002563,7.03633033 6.35799447,7.03633033 6.18401005,6.89100901 C6.09549746,6.818904 6.03238359,6.72000819 6.00401005,6.60895935 C5.99866332,6.55537059 5.99866332,6.50137688 6.00401005,6.44778812 L6.00401005,6.32690969 L6.00401005,1.67309031 L6.00401005,1.67309031 Z" id="Shape"></path>
            <path d="M0.263826372,1.03382637 L0.173826372,0.943826372 C0.135617436,0.900842128 0.102095055,0.853910795 0.0738263716,0.803826372 C0.014402065,0.701021016 -0.0101548385,0.581744628 0.0038263716,0.463826372 C0.0304743804,0.221669668 0.221669668,0.0304743804 0.463826372,0.0038263716 C0.581744628,-0.0101548385 0.701021016,0.014402065 0.803826372,0.0738263716 L0.943826372,0.173826372 L1.03382637,0.263826372 L6.33382637,5.56382637 L6.42382637,5.65382637 C6.46197666,5.69685738 6.49549443,5.74378226 6.52382637,5.79382637 C6.58325068,5.89663173 6.60780758,6.01590812 6.59382637,6.13382637 C6.56717836,6.37598307 6.37598307,6.56717836 6.13382637,6.59382637 C6.01590812,6.60780758 5.89663173,6.58325068 5.79382637,6.52382637 L5.65382637,6.42382637 L5.56382637,6.33382637 L0.263826372,1.03382637 Z" id="Shape"></path>
        </g>
    </g>
</svg>