<?xml version="1.0" encoding="UTF-8" standalone="no"?>
<svg width="24px" height="16px" viewBox="0 0 24 16" version="1.1" xmlns="http://www.w3.org/2000/svg" xmlns:xlink="http://www.w3.org/1999/xlink">
    <!-- Generator: Sketch 41.2 (35397) - http://www.bohemiancoding.com/sketch -->
    <title>macOS-Forward</title>
    <desc>Created with Sketch.</desc>
    <defs></defs>
    <g id="Page-1" stroke="none" stroke-width="1" fill="none" fill-rule="evenodd">
        <g id="macOS-Forward" transform="translate(-1.000000, 0.000000)" fill="#000000">
            <path d="M24.2,7.6 C24.2,7.6 25,8 25,8.5 C25,9 24.2,9.4 24.2,9.4 L14.4,15.6 C14.4,15.6 13.7,16.2 13.3,15.9 C12.9,15.7 13,14.7 13,14.7 L13,2.2 C13,2.2 12.9,1.2 13.3,1 C13.6,0.8 14.4,1.3 14.4,1.3 L24.2,7.6 Z" id="Shape"></path>
            <path d="M12.2,7.6 C12.2,7.6 13,8 13,8.5 C13,9 12.2,9.4 12.2,9.4 L2.4,15.6 C2.4,15.6 1.7,16.2 1.3,15.9 C0.9,15.7 1,14.7 1,14.7 L1,2.2 C1,2.2 0.9,1.2 1.3,1 C1.6,0.8 2.4,1.3 2.4,1.3 L12.2,7.6 Z" id="Shape"></path>
        </g>
    </g>
</svg>