<?xml version="1.0" encoding="UTF-8" standalone="no"?>
<svg width="17px" height="13px" viewBox="0 0 17 13" version="1.1" xmlns="http://www.w3.org/2000/svg" xmlns:xlink="http://www.w3.org/1999/xlink">
    <!-- Generator: Sketch 41.2 (35397) - http://www.bohemiancoding.com/sketch -->
    <title>macOS-MediaSelector</title>
    <desc>Created with Sketch.</desc>
    <defs></defs>
    <g id="Page-1" stroke="none" stroke-width="1" fill="none" fill-rule="evenodd">
        <g id="macOS-MediaSelector" fill="#231F20">
            <path d="M9,9 L1.96970661,9 L1.70839389,9 C1.62109116,8.98587566 1.5363951,8.9587053 1.45713167,8.91939547 C1.29674467,8.83799087 1.16646556,8.70738669 1.08526358,8.5465995 C1.04619088,8.46708184 1.01909496,8.38219579 1.00485966,8.29471033 C0.998417029,8.20750818 0.998417029,8.11994774 1.00485966,8.03274559 L1.00485966,7.91183879 L1.00485966,7.77078086 L1.00485966,2.22921914 L1.00485966,2.08816121 L1.00485966,1.96725441 C0.998380112,1.88005363 0.998380112,1.79249045 1.00485966,1.70528967 C1.01909496,1.61780421 1.04619088,1.53291816 1.08526358,1.4534005 C1.16646556,1.29261331 1.29674467,1.16200913 1.45713167,1.08060453 C1.5363951,1.0412947 1.62109116,1.01412434 1.70839389,1 L1.96970661,1 L14.0302934,1 L14.2916061,1 C14.3788738,1.01427081 14.4635486,1.04143435 14.5428683,1.08060453 C14.7032553,1.16200913 14.8335344,1.29261331 14.9147364,1.4534005 C14.9538091,1.53291816 14.980905,1.61780421 14.9951403,1.70528967 C15.0016199,1.79249045 15.0016199,1.88005363 14.9951403,1.96725441 L14.9951403,2.08816121 L14.9951403,2.22921914 L14.9951403,2.22921914 L14.9951403,7.77078086 L14.9951403,7.91183879 L14.9951403,8.03274559 C15.001583,8.11994774 15.001583,8.20750818 14.9951403,8.29471033 C14.980905,8.38219579 14.9538091,8.46708184 14.9147364,8.5465995 C14.8335344,8.70738669 14.7032553,8.83799087 14.5428683,8.91939547 C14.4635486,8.95856565 14.3788738,8.98572919 14.2916061,9 L14.0302934,9 L10.41,9 L9,10.41 L9,9 Z M1.84,2.75115192e-05 L14.18,2.75115192e-05 C14.6644243,-0.00263420078 15.1299216,0.187939564 15.4734037,0.529544693 C15.8168858,0.871149821 16.0100073,1.33559588 16.01,1.82002751 L16.01,8.17002751 C16.0100073,8.65445914 15.8168858,9.1189052 15.4734037,9.46051033 C15.1299216,9.80211546 14.6644243,9.99268922 14.18,9.99002751 L11.02,9.99002751 L8.02,12.9100275 L8.02,9.99002751 L1.86,9.99002751 C1.37557568,9.99268922 0.910078402,9.80211546 0.566596322,9.46051033 C0.223114242,9.1189052 0.0299926875,8.65445914 0.03,8.17002751 L0.03,1.82002751 C0.029984886,0.818761595 0.838749197,0.00552897249 1.84,2.75115192e-05 L1.84,2.75115192e-05 Z" id="Combined-Shape"></path>
            <polygon id="Shape" points="2 5 2 4 6 4 6 5"></polygon>
            <polygon id="Shape" points="10 7 10 6 13 6 13 7"></polygon>
            <polygon id="Shape" points="7 5 7 4 14 4 14 5"></polygon>
            <polygon id="Shape" points="6 7 6 6 9 6 9 7"></polygon>
            <polygon id="Shape" points="3.01 7.03 3.01 6.03 5.01 6.03 5.01 7.03"></polygon>
        </g>
    </g>
</svg>