<?xml version="1.0" encoding="UTF-8"?>
<svg width="16px" height="13px" viewBox="0 0 16 13" version="1.1" xmlns="http://www.w3.org/2000/svg" xmlns:xlink="http://www.w3.org/1999/xlink">
    <!-- Generator: Sketch 43.1 (39012) - http://www.bohemiancoding.com/sketch -->
    <title>_Assets/Inline/MediaSelector</title>
    <desc>Created with Sketch.</desc>
    <defs></defs>
    <g id="Media-Control-Symbols" stroke="none" stroke-width="1" fill="none" fill-rule="evenodd">
        <g id="_Assets/Inline/MediaSelector" fill="#000000">
            <path d="M13.354649,9 L14.5017326,9 C14.7800934,9 15,8.77594725 15,8.49956417 L15,1.50043583 C15,1.23079681 14.7769181,1 14.5017326,1 L1.49826741,1 C1.21990657,1 1,1.22405275 1,1.50043583 L1,8.49956417 C1,8.76920319 1.22308192,9 1.49826741,9 L12.3845,9 L12.3845,10.2727808 L13.354649,9 Z M14.18225,10 L11.8910297,12.2940879 C11.5016525,12.6839524 11.186,12.5566468 11.186,11.9906311 L11.186,10.0093689 C11.186,10.0062426 11.1860139,10.0031196 11.1860417,10 L1.00087166,10 C0.448105505,10 0,9.5443356 0,9.00460243 L0,0.995397568 C0,0.445654671 0.444630861,0 1.00087166,0 L14.9991283,0 C15.5518945,0 16,0.455664396 16,0.995397568 L16,9.00460243 C16,9.55434533 15.5553691,10 14.9991283,10 L14.18225,10 Z M2,6 L2,5 L5.995,5 L5.995,6 L2,6 Z M7,6 L7,5 L14,5 L14,6 L7,6 Z M8.995,8 L8.995,7 L12.99,7 L12.99,8 L8.995,8 Z M3,8 L3,7 L8,7 L8,8 L3,8 Z" id="Combined-Shape"></path>
        </g>
    </g>
</svg>