<?xml version="1.0" encoding="UTF-8"?>
<svg width="13px" height="17px" viewBox="0 0 13 17" version="1.1" xmlns="http://www.w3.org/2000/svg" xmlns:xlink="http://www.w3.org/1999/xlink">
    <!-- Generator: Sketch 43.2 (39069) - http://www.bohemiancoding.com/sketch -->
    <title>_Assets/Inline/SkipBack15</title>
    <desc>Created with Sketch.</desc>
    <defs></defs>
    <g id="Media-Control-Symbols" stroke="none" stroke-width="1" fill="none" fill-rule="evenodd">
        <g id="_Assets/Inline/SkipBack15" fill="#000000">
            <path d="M4.02148438,11 L5.05371094,11 L5.05371094,6.06787109 L4.02490234,6.06787109 L2.75,6.94628906 L2.75,7.90673828 L3.95996094,7.07275391 L4.02148438,7.07275391 L4.02148438,11 Z M8.02369142,11.1264648 C9.15503907,11.1264648 9.91041017,10.4121094 9.91041017,9.36621094 C9.91041017,8.39892578 9.24732423,7.71191406 8.31080079,7.71191406 C7.82203126,7.71191406 7.47339845,7.89306641 7.26490235,8.19384766 L7.20337892,8.19384766 L7.31275392,6.92578125 L9.61304688,6.92578125 L9.61304688,6.06787109 L6.51294923,6.06787109 L6.26685548,8.92871094 L7.18970704,8.92871094 C7.36060548,8.65185547 7.65113282,8.484375 8.03394532,8.484375 C8.55689454,8.484375 8.92603517,8.84667969 8.92603517,9.39013672 C8.92603517,9.92675781 8.56031251,10.2822266 8.03052735,10.2822266 C7.56226563,10.2822266 7.19996095,10.0087891 7.14185548,9.59863281 L6.1882422,9.59863281 C6.21900392,10.4804688 6.95044923,11.1264648 8.02369142,11.1264648 Z" id="15"></path>
            <path d="M5,3 L7.55664682,4.27832341 C7.80707169,4.40353584 8,4.28040529 8,4.00952148 L8,3.20703249 C10.3085048,3.85996138 12,5.98244575 12,8.5 C12,11.5375661 9.53756612,14 6.5,14 C3.46243388,14 1,11.5375661 1,8.5 C1,8.33145515 1.00758131,8.16468102 1.02242151,8 L0.0189448167,8 C0.00639146302,8.16502081 1.31838984e-16,8.331764 1.31838984e-16,8.5 C1.31838984e-16,12.0898509 2.91014913,15 6.5,15 C10.0898509,15 13,12.0898509 13,8.5 C13,5.42641836 10.8667,2.85109564 8,2.17393184 L8,0.990478516 C8,0.715057373 7.80150402,0.599247989 7.55664682,0.721676588 L5,2 L5,0.990478516 C5,0.715057373 4.80150402,0.599247989 4.55664682,0.721676588 L1.44335318,2.27832341 C1.19292831,2.40353584 1.19849598,2.59924799 1.44335318,2.72167659 L4.55664682,4.27832341 C4.80707169,4.40353584 5,4.28040529 5,4.00952148 L5,3 Z" id="Combined-Shape"></path>
        </g>
    </g>
</svg>