<?xml version="1.0" encoding="UTF-8"?>
<svg height="16px" viewBox="0 0 16 16" width="16px" xmlns="http://www.w3.org/2000/svg">
    <path d="m 8 0 c -0.554688 0 -1 0.445312 -1 1 v 1 c 0 0.554688 0.445312 1 1 1 s 1 -0.445312 1 -1 v -1 c 0 -0.554688 -0.445312 -1 -1 -1 z m -4.992188 2.003906 c -0.257812 0 -0.511718 0.101563 -0.707031 0.296875 c -0.394531 0.390625 -0.394531 1.019531 0 1.414063 l 0.707031 0.707031 c 0.390626 0.390625 1.019532 0.390625 1.414063 0 c 0.390625 -0.394531 0.390625 -1.023437 0 -1.414063 l -0.707031 -0.707031 c -0.195313 -0.195312 -0.453125 -0.296875 -0.707032 -0.296875 z m 9.984376 0 c -0.253907 0 -0.511719 0.101563 -0.707032 0.296875 l -0.707031 0.707031 c -0.390625 0.390626 -0.390625 1.019532 0 1.414063 c 0.394531 0.390625 1.023437 0.390625 1.414063 0 l 0.707031 -0.707031 c 0.394531 -0.394532 0.394531 -1.023438 0 -1.414063 c -0.195313 -0.195312 -0.449219 -0.296875 -0.707031 -0.296875 z m -4.992188 1.996094 c -2.210938 0 -4 1.789062 -4 4 s 1.789062 4 4 4 s 4 -1.789062 4 -4 s -1.789062 -4 -4 -4 z m -7 3 c -0.554688 0 -1 0.445312 -1 1 s 0.445312 1 1 1 h 1 c 0.554688 0 1 -0.445312 1 -1 s -0.445312 -1 -1 -1 z m 13 0 c -0.554688 0 -1 0.445312 -1 1 s 0.445312 1 1 1 h 1 c 0.554688 0 1 -0.445312 1 -1 s -0.445312 -1 -1 -1 z m -10.335938 4.285156 c -0.238281 0.011719 -0.472656 0.109375 -0.65625 0.292969 l -0.707031 0.707031 c -0.394531 0.394532 -0.394531 1.023438 0 1.414063 c 0.390625 0.394531 1.019531 0.394531 1.414063 0 l 0.707031 -0.707031 c 0.390625 -0.390626 0.390625 -1.019532 0 -1.414063 c -0.210937 -0.207031 -0.484375 -0.304687 -0.757813 -0.292969 z m 8.574219 0 c -0.238281 0.011719 -0.476562 0.109375 -0.660156 0.292969 c -0.390625 0.394531 -0.390625 1.023437 0 1.414063 l 0.707031 0.707031 c 0.394532 0.394531 1.023438 0.394531 1.414063 0 c 0.394531 -0.390625 0.394531 -1.019531 0 -1.414063 l -0.707031 -0.707031 c -0.207032 -0.207031 -0.484376 -0.304687 -0.753907 -0.292969 z m -4.289062 1.714844 c -0.53125 0.027344 -0.949219 0.464844 -0.949219 1 v 1 c 0 0.554688 0.445312 1 1 1 s 1 -0.445312 1 -1 v -1 c 0 -0.554688 -0.445312 -1 -1 -1 c -0.015625 0 -0.035156 0 -0.050781 0 z m 0 0" fill="#2e3436"/>
</svg>
