<?xml version="1.0" encoding="UTF-8"?>
<svg xmlns="http://www.w3.org/2000/svg" height="16px" viewBox="0 0 16 16" width="16px"><g fill="#2e3436"><path d="m 2.5 0 c -1.382812 0 -2.50390625 1.117188 -2.5 2.5 v 8 c 0 1.386719 1.113281 2.5 2.5 2.5 h 8.375 l 3.125 3 v -3.0625 c 1.164062 -0.230469 2 -1.253906 2 -2.4375 v -8 c 0 -1.386719 -1.113281 -2.5 -2.5 -2.5 z m 0 2 h 11 c 0.277344 0 0.5 0.222656 0.5 0.5 v 8 c 0 0.277344 -0.222656 0.5 -0.5 0.5 h -11 c -0.277344 0 -0.5 -0.222656 -0.5 -0.5 v -8 c 0 -0.277344 0.222656 -0.5 0.5 -0.5 z m 0 0"/><path d="m 4 7 h 6 v 2 h -6 z m 0 0"/><path d="m 4 4 h 8 v 2 h -8 z m 0 0"/></g></svg>
