<?xml version="1.0" encoding="UTF-8"?>
<svg height="16px" viewBox="0 0 16 16" width="16px" xmlns="http://www.w3.org/2000/svg">
    <path d="m 7.75 0 c -0.414062 0 -0.75 0.335938 -0.75 0.75 v 1.332031 c -0.589844 0.101563 -1.148438 0.289063 -1.667969 0.546875 l -0.785156 -1.082031 c -0.152344 -0.210937 -0.390625 -0.316406 -0.632813 -0.308594 c -0.144531 0.003907 -0.289062 0.050781 -0.414062 0.144531 l -0.40625 0.292969 c -0.335938 0.246094 -0.410156 0.710938 -0.164062 1.046875 l 0.789062 1.082032 c -0.410156 0.417968 -0.757812 0.894531 -1.03125 1.417968 l -1.273438 -0.414062 c -0.074218 -0.023438 -0.148437 -0.035156 -0.222656 -0.035156 c -0.320312 -0.007813 -0.617187 0.195312 -0.722656 0.519531 l -0.15625 0.472656 c -0.125 0.394531 0.085938 0.816406 0.480469 0.945313 l 1.269531 0.414062 c -0.039062 0.285156 -0.0625 0.578125 -0.0625 0.875 s 0.023438 0.589844 0.0625 0.878906 l -1.269531 0.410156 c -0.394531 0.128907 -0.605469 0.550782 -0.480469 0.945313 l 0.15625 0.476563 c 0.128906 0.394531 0.550781 0.609374 0.945312 0.480468 l 1.273438 -0.414062 c 0.273438 0.519531 0.621094 1 1.03125 1.417968 l -0.789062 1.082032 c -0.246094 0.335937 -0.171876 0.800781 0.164062 1.046875 l 0.40625 0.296875 c 0.335938 0.242187 0.800781 0.167968 1.046875 -0.167969 l 0.785156 -1.082031 c 0.519531 0.257812 1.078125 0.441406 1.667969 0.542968 v 1.335938 c 0 0.414062 0.335938 0.75 0.75 0.75 h 0.5 c 0.414062 0 0.75 -0.335938 0.75 -0.75 v -1.335938 c 0.589844 -0.101562 1.148438 -0.285156 1.667969 -0.542968 l 0.785156 1.082031 c 0.246094 0.335937 0.710937 0.410156 1.046875 0.167969 l 0.40625 -0.292969 c 0.335938 -0.246094 0.410156 -0.714844 0.164062 -1.050781 l -0.789062 -1.082032 c 0.410156 -0.417968 0.757812 -0.898437 1.03125 -1.417968 l 1.273438 0.414062 c 0.394531 0.128906 0.816406 -0.085937 0.945312 -0.480468 l 0.15625 -0.476563 c 0.125 -0.394531 -0.085938 -0.816406 -0.480469 -0.945313 l -1.273437 -0.410156 c 0.042968 -0.289062 0.066406 -0.582031 0.066406 -0.878906 s -0.023438 -0.589844 -0.066406 -0.875 l 1.273437 -0.414062 c 0.394531 -0.128907 0.605469 -0.550782 0.480469 -0.945313 l -0.15625 -0.472656 c -0.105469 -0.324219 -0.402344 -0.527344 -0.722656 -0.519531 c -0.074219 0 -0.148438 0.011718 -0.222656 0.035156 l -1.273438 0.414062 c -0.273438 -0.523437 -0.621094 -1 -1.03125 -1.417968 l 0.789062 -1.082032 c 0.246094 -0.335937 0.171876 -0.800781 -0.164062 -1.046875 l -0.40625 -0.292969 c -0.148438 -0.109374 -0.320312 -0.15625 -0.488281 -0.144531 c -0.214844 0.011719 -0.421875 0.121094 -0.558594 0.308594 l -0.785156 1.085937 c -0.519531 -0.261718 -1.078125 -0.445312 -1.667969 -0.546874 v -1.335938 c 0 -0.414062 -0.335938 -0.75 -0.75 -0.75 z m 0.25 4 c 0.808594 0 1.558594 0.234375 2.183594 0.644531 l 0.324218 0.230469 c 0.558594 0.449219 0.992188 1.042969 1.242188 1.730469 c 0.003906 0.003906 0.007812 0.007812 0.007812 0.015625 l 0.085938 0.261718 c 0.101562 0.355469 0.15625 0.730469 0.15625 1.117188 s -0.054688 0.761719 -0.15625 1.117188 l -0.085938 0.261718 v 0.003906 c -0.253906 0.691407 -0.6875 1.289063 -1.25 1.742188 l -0.324218 0.234375 c -0.625 0.40625 -1.375 0.640625 -2.183594 0.640625 c -0.804688 0 -1.554688 -0.234375 -2.179688 -0.636719 l -0.328124 -0.238281 c -0.554688 -0.445312 -0.988282 -1.035156 -1.238282 -1.714844 l -0.105468 -0.316406 c -0.097657 -0.347656 -0.148438 -0.714844 -0.148438 -1.09375 s 0.050781 -0.746094 0.148438 -1.089844 l 0.109374 -0.328125 c 0.25 -0.675781 0.683594 -1.261719 1.234376 -1.703125 l 0.328124 -0.238281 c 0.625 -0.40625 1.375 -0.640625 2.179688 -0.640625 z m 0 0" fill="#2e3436"/>
</svg>
