<?xml version="1.0" encoding="UTF-8"?>
<svg xmlns="http://www.w3.org/2000/svg" height="16px" viewBox="0 0 16 16" width="16px"><g fill="#2e3436"><path d="m 1 2.007812 c -0.550781 0 -1 0.449219 -1 1 v 9 c 0 0.550782 0.449219 1 1 1 h 4 v -2 h -3 v -7 h 10 v 3 h 2 v -4 c 0 -0.550781 -0.449219 -1 -1 -1 z m 0 0" fill-opacity="0.35"/><path d="m 9 10 c -0.550781 0 -1 0.449219 -1 1 v 4.007812 c 0 0.550782 0.449219 1 1 1 h 6 c 0.550781 0 1 -0.449218 1 -1 v -4.007812 c 0 -0.550781 -0.449219 -1 -1 -1 z m 1 2 h 4 v 2.007812 h -4 z m 0 0"/><path d="m 3.132812 5.140625 c 0.171876 -0.164063 0.496094 -0.1875 0.757813 0.015625 l 3.109375 3.089844 v 0.753906 h -0.753906 l -3.109375 -3.089844 c -0.191407 -0.191406 -0.179688 -0.597656 -0.003907 -0.769531 z m 0 0"/><path d="m 4 9 h 4 v 1 h -4 z m 0 0"/><path d="m 7 6 h 1 v 4 h -1 z m 0 0"/></g></svg>
