<svg height="16" width="16" xmlns="http://www.w3.org/2000/svg">
    <path style="fill:#2e3436" d="m11.127 8.984-.154 3.442.133-.026a6.49 6.49 0 0 1 1.18-.125c.452 0 .8.09 1.029.243.228.152.342.36.342.644 0 .258-.095.443-.278.578-.183.135-.463.215-.826.215a3.328 3.328 0 0 1-1.437-.334l-.108-.053-.373 1.045.082.043c.56.293 1.165.45 1.828.45.724 0 1.333-.193 1.766-.55.432-.355.681-.876.681-1.503 0-.575-.211-1.05-.603-1.371-.761-.478-1.333-.468-2.078-.418l.049-1.13h2.338v-1.15ZM7 1v2a6.008 6.008 0 0 0-5.723 4.2 6.005 6.005 0 0 0 2.282 6.718 1 1 0 1 0 1.148-1.637 3.994 3.994 0 0 1-1.523-4.48A3.995 3.995 0 0 1 7 5v2h.75a.756.756 0 0 0 .375-.117l3.75-2.25A.743.743 0 0 0 12.203 4a.743.743 0 0 0-.328-.633l-3.75-2.25A.756.756 0 0 0 7.75 1Zm1.281 7.984-2.07 1.196.562 1.074.903-.469v2.934h-1.16V15h3.726v-1.281H9.176V8.984Z"/>
</svg>
