<svg height="16" width="16" xmlns="http://www.w3.org/2000/svg">
    <path style="fill:#2e3436" d="m5.115 8.98-.154 3.442.133-.026a6.49 6.49 0 0 1 1.18-.125c.452 0 .8.09 1.029.243.228.152.342.36.342.644 0 .258-.095.443-.278.578-.183.135-.463.215-.826.215a3.328 3.328 0 0 1-1.437-.334l-.108-.053-.373 1.045.082.043c.56.293 1.165.45 1.828.45.724 0 1.333-.193 1.766-.55.432-.355.681-.876.681-1.503 0-.575-.211-1.05-.603-1.371-.761-.478-1.333-.468-2.078-.418l.049-1.13h2.338V8.98ZM8.25 1a.798.798 0 0 0-.375.117l-3.75 2.25A.748.748 0 0 0 3.797 4c0 .25.117.5.328.637l3.75 2.25c.113.07.242.11.375.113H9V5a3.995 3.995 0 0 1 3.816 2.8 3.994 3.994 0 0 1-1.523 4.481 1.008 1.008 0 0 0-.43.906 1.001 1.001 0 0 0 1.578.731 6.013 6.013 0 0 0 2.286-6.719A6.017 6.017 0 0 0 9 3V1ZM2.281 8.988l-2.07 1.196.562 1.074.903-.469v2.93H.516v1.285h3.726v-1.285H3.176v-4.73Z"/>
</svg>
