<?xml version="1.0" encoding="UTF-8" standalone="no"?>
<svg
   height="16px"
   viewBox="0 0 16 16"
   width="16px"
   version="1.1"
   id="svg186"
   xmlns="http://www.w3.org/2000/svg"
   xmlns:svg="http://www.w3.org/2000/svg">
  <defs
     id="defs190" />
  <path
     d="m 9,1.007812 c 0.296875,-0.00391 0.578125,0.125 0.769531,0.351563 L 13,5 h 1 c 1.09375,0 2,0.84375 2,2 v 2 c 0,1.089844 -0.910156,2 -2,2 H 13 L 9.769531,14.640625 C 9.558594,14.894531 9.277344,15.003906 9,15 Z M 6.042969,3.988281 C 6.242188,4 6.4375,4.0625 6.605469,4.191406 c 0.441406,0.332032 0.53125,0.960938 0.195312,1.402344 -1.074219,1.425781 -1.074219,3.386719 0,4.8125 0.335938,0.441406 0.246094,1.070312 -0.195312,1.402344 C 6.164062,12.140625 5.539062,12.050781 5.207031,11.613281 4.402344,10.542969 4,9.273438 4,8 4,6.726562 4.402344,5.457031 5.207031,4.386719 5.390625,4.140625 5.671875,4.003906 5.960938,3.988281 c 0.02734,0 0.05469,0 0.08594,0 z m 0,0"
     fill="#2e3436"
     id="path184" />
</svg>
