<?xml version="1.0" encoding="UTF-8" standalone="no"?>
<svg
   height="16px"
   viewBox="0 0 16 16"
   width="16px"
   version="1.1"
   id="svg8"
   xmlns="http://www.w3.org/2000/svg"
   xmlns:svg="http://www.w3.org/2000/svg">
  <defs
     id="defs12" />
  <g
     fill="#2e3436"
     id="g6"
     transform="matrix(-1,0,0,1,16,0)">
    <path
       d="M 7,1.007812 C 6.703125,1.003906 6.421875,1.132812 6.230469,1.359375 L 3,5 H 2 C 0.90625,5 0,5.84375 0,7 v 2 c 0,1.089844 0.910156,2 2,2 h 1 l 3.230469,3.640625 C 6.441406,14.894531 6.722656,15.003906 7,15 Z m 3.039062,2.980469 C 9.816406,3.980469 9.585938,4.046875 9.394531,4.191406 9.132812,4.390625 9,4.691406 9,4.996094 V 5.0625 c 0.011719,0.1875 0.078125,0.371094 0.199219,0.527344 1.074219,1.429687 1.074219,3.390625 0,4.816406 C 9.078125,10.566406 9.011719,10.75 9,10.9375 v 0.06641 c 0,0.304688 0.132812,0.605469 0.394531,0.804688 0.441407,0.332031 1.066407,0.242187 1.398438,-0.199219 C 11.597656,10.542969 12,9.273438 12,8 12,6.726562 11.597656,5.457031 10.792969,4.386719 10.609375,4.140625 10.328125,4.003906 10.039062,3.988281 Z m 0,0"
       id="path2" />
    <path
       d="m 13.460938,1.96875 c -0.191407,-0.00391 -0.386719,0.054688 -0.558594,0.167969 -0.457032,0.3125 -0.578125,0.933593 -0.269532,1.390625 1.824219,2.707031 1.824219,6.238281 0,8.945312 -0.308593,0.457032 -0.1875,1.078125 0.269532,1.390625 0.457031,0.308594 1.078125,0.1875 1.390625,-0.269531 C 15.429688,11.902344 16,9.953125 16,8 16,6.046875 15.429688,4.097656 14.292969,2.40625 14.097656,2.121094 13.78125,1.96875 13.460938,1.96875 Z m 0,0"
       fill-opacity="0.34902"
       id="path4" />
  </g>
</svg>
