<?xml version="1.0" encoding="UTF-8" standalone="no"?>
<svg
   height="16px"
   viewBox="0 0 16 16"
   width="16px"
   version="1.1"
   id="svg4"
   xmlns="http://www.w3.org/2000/svg"
   xmlns:svg="http://www.w3.org/2000/svg">
  <defs
     id="defs8" />
  <path
     d="m 9,1.007812 c 0.296875,-0.00391 0.578125,0.125 0.769531,0.351563 L 13,5 h 1 c 1.09375,0 2,0.84375 2,2 v 2 c 0,1.089844 -0.910156,2 -2,2 H 13 L 9.769531,14.640625 C 9.558594,14.894531 9.277344,15.003906 9,15 Z M 2.539062,1.96875 c 0.191407,-0.00391 0.386719,0.054688 0.558594,0.167969 0.457032,0.3125 0.578125,0.933593 0.269532,1.390625 -1.824219,2.707031 -1.824219,6.238281 0,8.945312 0.308593,0.457032 0.1875,1.078125 -0.269532,1.390625 C 2.640625,14.171875 2.019531,14.050781 1.707031,13.59375 0.570312,11.902344 0,9.953125 0,8 0,6.046875 0.570312,4.097656 1.707031,2.40625 1.902344,2.121094 2.21875,1.96875 2.539062,1.96875 Z M 5.960938,3.988281 C 6.183594,3.980469 6.414062,4.046875 6.605469,4.191406 6.867188,4.390625 7,4.691406 7,4.996094 v 0.058594 c -0.011719,0.191406 -0.074219,0.375 -0.199219,0.535156 -1.074219,1.429687 -1.074219,3.390625 0,4.816406 0.125,0.164062 0.1875,0.347656 0.199219,0.535156 v 0.0625 C 7,11.308594 6.867188,11.609375 6.605469,11.808594 6.164062,12.140625 5.539062,12.050781 5.207031,11.609375 4.402344,10.542969 4,9.273438 4,8 4,6.726562 4.402344,5.457031 5.207031,4.386719 5.390625,4.140625 5.671875,4.003906 5.960938,3.988281 Z m 0,0"
     fill="#2e3436"
     id="path2" />
</svg>
