#define smile_xbm_width 32
#define smile_xbm_height 32
static char smile_xbm_bits[] = {
   0x00, 0x00, 0x00, 0x00, 0x00, 0x00, 0x00, 0x00, 0x00, 0x00, 0x00, 0x00,
   0x00, 0x00, 0x00, 0x00, 0x00, 0x00, 0x00, 0x00, 0x00, 0xE0, 0x0F, 0x00,
   0x00, 0xF8, 0x3F, 0x00, 0x00, 0x1C, 0x70, 0x00, 0x00, 0x06, 0xC0, 0x00,
   0x00, 0x03, 0x80, 0x01, 0x80, 0x01, 0x00, 0x03, 0x80, 0x70, 0x0C, 0x02,
   0x80, 0x70, 0x1E, 0x02, 0x40, 0x70, 0x1E, 0x04, 0x40, 0x70, 0x0C, 0x04,
   0x40, 0x00, 0x00, 0x04, 0x40, 0x0C, 0x60, 0x04, 0x40, 0x0C, 0x60, 0x04,
   0x40, 0x0C, 0x70, 0x04, 0x80, 0x38, 0x38, 0x02, 0x80, 0xF0, 0x1F, 0x02,
   0x80, 0xC1, 0x07, 0x03, 0x00, 0x03, 0x80, 0x01, 0x00, 0x06, 0xC0, 0x00,
   0x00, 0x1C, 0x70, 0x00, 0x00, 0xF8, 0x3F, 0x00, 0x00, 0xE0, 0x0F, 0x00,
   0x00, 0x00, 0x00, 0x00, 0x00, 0x00, 0x00, 0x00, 0x00, 0x00, 0x00, 0x00,
   0x00, 0x00, 0x00, 0x00, 0x00, 0x00, 0x00, 0x00 };
