<svg xmlns="http://www.w3.org/2000/svg" width="19.9219" height="19.9316">
    <path d="M9.96094 19.9219q2.04106 0 3.84276-.7813 1.8018-.7812 3.1787-2.1582 1.377-1.3769 2.1582-3.1787.7813-1.8017.7813-3.84276 0-2.04102-.7813-3.84278-.7812-1.80175-2.1582-3.17871-1.3769-1.37695-3.1836-2.1582Q11.9922 0 9.95117 0 7.91016 0 6.1084.78125q-1.80176.78125-3.17383 2.1582Q1.5625 4.31641.78125 6.11816 0 7.91992 0 9.96094 0 12.002.78125 13.8037q.78125 1.8018 2.1582 3.1787 1.37696 1.377 3.17871 2.1582 1.80176.7813 3.84278.7813Zm0-1.6602q-1.72852 0-3.23242-.6445-1.50391-.6445-2.64161-1.7822-1.13769-1.1377-1.77734-2.6416-.63965-1.5039-.63965-3.23246 0-1.72852.63965-3.23242.63965-1.50391 1.77246-2.64649Q5.21484 2.93945 6.71875 2.2998q1.50391-.63964 3.23242-.63964 1.72853 0 3.23243.63964 1.5039.63965 2.6465 1.78223t1.7871 2.64649q.6445 1.5039.6445 3.23242 0 1.72856-.6396 3.23246-.6397 1.5039-1.7774 2.6416-1.1377 1.1377-2.6465 1.7822-1.5087.6445-3.23726.6445ZM9.9707 4.98047q-.32226 0-.52734.20508-.20508.20507-.20508.52734v4.88281l.06836 2.0605-.97656-1.1718-1.16211-1.1719q-.21485-.2148-.51758-.2148-.30273 0-.50293.205-.20019.2051-.20019.4981 0 .3222.19531.5078l3.26172 3.2519q.27343.2735.5664.2735.293 0 .5664-.2735l3.2617-3.2519q.1953-.1953.1953-.5078 0-.293-.205-.4981-.2051-.205-.5079-.205-.3222 0-.5175.2148l-1.1524 1.1719-.9863 1.1816.0684-2.0703V5.71289q0-.32227-.2051-.52734-.2051-.20508-.5176-.20508Z" fill="rgba(255,255,255,0.85)"/>
</svg>
