<svg xmlns="http://www.w3.org/2000/svg" width="19.082" height="19.2676">
    <path d="M0 7.79297Q0 9.4043.605469 10.8154q.605471 1.4112 1.679691 2.4854 1.07422 1.0742 2.48535 1.6797 1.41113.6054 3.02246.6054 1.26953 0 2.42183-.3906 1.1524-.3906 2.1094-1.0742l4.8047 4.8144q.1758.1661.3857.2491.21.083.4444.083.332 0 .5859-.1514.2539-.1514.3955-.415.1416-.2637.1416-.586 0-.2343-.083-.4394t-.2392-.3613l-4.7754-4.8047q.7519-.9766 1.1767-2.1778.4248-1.20114.4248-2.53903 0-1.61133-.6054-3.02246-.6055-1.41113-1.6797-2.48535-1.0742-1.07422-2.4854-1.679691Q9.4043 0 7.79297 0T4.77051.605469Q3.35938 1.21094 2.28516 2.28516T.605469 4.77051Q0 6.18164 0 7.79297Zm1.66992 0q0-1.26953.47363-2.37793.47364-1.1084 1.31836-1.95313.84473-.84472 1.95313-1.31836 1.1084-.47363 2.37793-.47363t2.37793.47363q1.1084.47364 1.9482 1.31836.8399.84473 1.3184 1.95313.4785 1.1084.4785 2.37793t-.4785 2.37793q-.4785 1.1084-1.3184 1.9482-.8398.8399-1.9482 1.3184-1.1084.4785-2.37793.4785t-2.37793-.4785q-1.1084-.4785-1.95313-1.3184-.84472-.8398-1.31836-1.9482-.47363-1.1084-.47363-2.37793Zm3.60352.71289h5.02926q.293 0 .503-.20996.2099-.20996.2099-.50293 0-.29297-.2099-.50781-.21-.21485-.503-.21485H5.27344q-.29297 0-.50293.21485-.20996.21484-.20996.50781 0 .29297.20996.50293.20996.20996.50293.20996Z" fill="rgba(255,255,255,0.85)"/>
</svg>
