<?xml version="1.0" encoding="UTF-8" standalone="no"?>
<svg width="12px" height="12px" viewBox="0 0 12 12" version="1.1" xmlns="http://www.w3.org/2000/svg" xmlns:xlink="http://www.w3.org/1999/xlink">
    <!-- Generator: Sketch 41.2 (35397) - http://www.bohemiancoding.com/sketch -->
    <title>macOS-VolumeLo</title>
    <desc>Created with Sketch.</desc>
    <defs></defs>
    <g id="Page-1" stroke="none" stroke-width="1" fill="none" fill-rule="evenodd">
        <g id="macOS-VolumeLo" fill="#221F20">
            <path d="M11.0513,6 C11.0513,7.06586257 10.6523,7.97930993 9.9263,8.79045118 C9.7653,8.97105277 9.7873,9.24247713 9.9773,9.39698022 C10.1663,9.55148332 10.4503,9.52956058 10.6123,9.34895899 C11.4773,8.3822707 11.9523,7.27047478 11.9523,6 C11.9523,4.72952522 11.4773,3.6177293 10.6123,2.65104101 C10.4503,2.47043942 10.1663,2.44851668 9.9773,2.60301978 C9.7873,2.75752287 9.7653,3.02894723 9.9263,3.20954882 C10.6523,4.02069007 11.0513,4.93413743 11.0513,6" id="Fill-1"></path>
            <path d="M4.328144,3.00086919 L6.5893,0.72468533 C6.9593,0.34268533 7.2803,-0.16931467 7.7423,0.0546853301 C8.0623,0.21068533 7.9903,1.21468533 7.9903,1.21468533 C7.9903,1.21468533 7.9873,3.48368533 7.9843,5.97068533 C7.9823,8.46568533 7.9823,3.52568533 7.9843,6.02068533 C7.9873,8.50768533 7.9903,10.7766853 7.9903,10.7766853 C7.9903,10.7766853 8.0623,11.7806853 7.7423,11.9356853 C7.2803,12.1606853 6.9593,11.6486853 6.5893,11.2666853 L4.33757982,9 L4.123,9 L1.877,9 L1.662,9 C1.602,8.999 1.541,8.999 1.481,8.997 C1.349,8.993 1.217,8.986 1.087,8.962 C0.955,8.939 0.832,8.9 0.712,8.839 C0.594,8.779 0.486,8.701 0.393,8.607 C0.299,8.514 0.221,8.406 0.161,8.288 C0.1,8.168 0.061,8.045 0.038,7.913 C0.014,7.783 0.007,7.651 0.003,7.519 C0.001,7.459 0.001,7.399 0.001,7.338 C0,7.267 0,7.195 0,7.123 L0,4.877 C0,4.805 0,4.734 0.001,4.662 C0.001,4.602 0.001,4.541 0.003,4.481 C0.007,4.35 0.014,4.217 0.038,4.087 C0.061,3.955 0.1,3.832 0.161,3.712 C0.221,3.594 0.299,3.487 0.393,3.393 C0.486,3.3 0.594,3.221 0.712,3.161 C0.832,3.1 0.955,3.062 1.087,3.038 C1.217,3.014 1.349,3.007 1.481,3.003 C1.541,3.002 1.602,3.001 1.662,3.001 C1.734,3 1.805,3 1.877,3 L4.123,3 C4.19171265,3 4.25951452,3 4.328144,3.00086919 Z" id="Combined-Shape"></path>
        </g>
    </g>
</svg>