<?xml version="1.0" encoding="UTF-8"?>
<svg width="22px" height="15px" viewBox="0 0 22 15" version="1.1" xmlns="http://www.w3.org/2000/svg" xmlns:xlink="http://www.w3.org/1999/xlink">
    <!-- Generator: Sketch 45 (43475) - http://www.bohemiancoding.com/sketch -->
    <title>_Assets/Both/VolumeHi RTL</title>
    <desc>Created with Sketch.</desc>
    <defs></defs>
    <g id="Media-Control-Symbols" stroke="none" stroke-width="1" fill="none" fill-rule="evenodd">
        <g id="_Assets/Both/VolumeHi-RTL" fill="#000000" transform="translate(2, 0)">
            <path d="M15.5701763,9.99904876 L12.7151198,12.7445465 C12.3273368,13.1174489 12,12.9886171 12,12.44141 L12,2.56259782 C12,2.02224368 12.328475,1.87372699 12.7336617,2.24618642 L15.7297388,5.00026821 C15.7787854,5 15.8276579,5 15.877,5 L18.123,5 C18.195,5 18.266,5 18.338,5.00083333 C18.398,5.00083333 18.459,5.00166667 18.519,5.0025 C18.651,5.00583333 18.783,5.01166667 18.913,5.03166667 C19.045,5.05166667 19.168,5.08333333 19.288,5.13416667 C19.406,5.18416667 19.514,5.25 19.607,5.3275 C19.701,5.40583333 19.779,5.495 19.839,5.59333333 C19.9,5.69333333 19.939,5.79583333 19.962,5.90583333 C19.986,6.01416667 19.993,6.125 19.997,6.23416667 C19.999,6.28416667 19.999,6.335 19.999,6.385 C20,6.445 20,6.50416667 20,6.56416667 L20,8.43583333 C20,8.49583333 20,8.55583333 19.999,8.615 C19.999,8.66583333 19.999,8.71583333 19.997,8.76583333 C19.993,8.87583333 19.986,8.98583333 19.962,9.09416667 C19.939,9.20416667 19.9,9.30666667 19.839,9.40666667 C19.779,9.505 19.701,9.595 19.607,9.6725 C19.514,9.75083333 19.406,9.81583333 19.288,9.86583333 C19.168,9.91666667 19.045,9.94916667 18.913,9.96833333 C18.783,9.98833333 18.651,9.99416667 18.519,9.9975 C18.459,9.99916667 18.398,9.99916667 18.338,10 L18.123,10 L15.877,10 L15.662,10 C15.6315624,9.99957726 15.6008675,9.99936897 15.5701763,9.99904876 Z M10.026,10.2904512 C10.187,10.4710528 10.165,10.7424771 9.975,10.8969802 C9.786,11.0514833 9.502,11.0295606 9.34,10.848959 C8.475,9.8822707 8,8.77047478 8,7.5 C8,6.22952522 8.475,5.1177293 9.34,4.15104101 C9.502,3.97043942 9.786,3.94851668 9.975,4.10301978 C10.165,4.25752287 10.187,4.52894723 10.026,4.70954882 C9.3,5.52069007 8.901,6.43413743 8.901,7.5 C8.901,8.56586257 9.3,9.47930993 10.026,10.2904512 Z M6.725,12.307171 C6.882,12.4897218 6.852,12.7568441 6.659,12.90536 C6.466,13.0528445 6.182,13.0249978 6.025,12.842447 C4.719,11.3242845 4,9.45649073 4,7.5 C4,5.54350927 4.719,3.67571553 6.025,2.15755298 C6.182,1.97500219 6.466,1.94715546 6.659,2.09464 C6.852,2.2431559 6.882,2.51027825 6.725,2.69282905 C5.549,4.06041297 4.901,5.73843639 4.901,7.5 C4.901,9.26156361 5.549,10.939587 6.725,12.307171 Z M3.428,14.3108837 C3.583,14.4953516 3.551,14.7622632 3.355,14.9075703 C3.161,15.0539079 2.877,15.0229915 2.722,14.8395542 C0.929,12.7083835 8.8817842e-16,10.2247657 8.8817842e-16,7.5 C8.8817842e-16,4.7752343 0.929,2.29161654 2.722,0.160445787 C2.877,-0.0229915406 3.161,-0.0539079442 3.355,0.0924296995 C3.551,0.237736796 3.583,0.504648414 3.428,0.689116289 C1.763,2.66776612 0.901,4.96897709 0.901,7.5 C0.901,10.0310229 1.763,12.3322339 3.428,14.3108837 Z" id="iOS/Fullscreen/Mute" style="mix-blend-mode: normal;"></path>
        </g>
    </g>
</svg>