<?xml version="1.0" encoding="UTF-8"?>
<svg width="19px" height="13px" viewBox="0 0 19 13" version="1.1" xmlns="http://www.w3.org/2000/svg" xmlns:xlink="http://www.w3.org/1999/xlink">
    <!-- Generator: Sketch 43.1 (39012) - http://www.bohemiancoding.com/sketch -->
    <title>_Assets/Inline/MiniPipIn</title>
    <desc>Created with Sketch.</desc>
    <defs></defs>
    <g id="Media-Control-Symbols" stroke="none" stroke-width="1" fill="none" fill-rule="evenodd">
        <g id="_Assets/Inline/MiniPipIn" fill="#000000">
            <path d="M17,6 L17,0.995397568 C17,0.455664396 16.5523026,0 16.0000398,0 L0.999960201,0 C0.454708934,0 0,0.445654671 0,0.995397568 L0,9.00460243 C0,9.5443356 0.447697432,10 0.999960201,10 L7,10 L7,9 L1.49907684,9 C1.22344431,9 1,8.76920319 1,8.49956417 L1,1.50043583 C1,1.22405275 1.2236826,1 1.49907684,1 L15.5009232,1 C15.7765557,1 16,1.23079681 16,1.50043583 L16,6 L17,6 Z" id="Combined-Shape"></path>
            <path d="M5.29289322,6 L2.14652448,2.85363127 C1.95514427,2.66225105 1.96400177,2.34310492 2.15355334,2.15355334 C2.34881549,1.9582912 2.66050087,1.95339409 2.85363127,2.14652448 L6,5.29289322 L6,3.49047852 C6,3.21959471 6.23193359,3 6.5,3 C6.77614237,3 7,3.21505737 7,3.49047852 L7,6.50952148 C7,6.64335979 6.94338149,6.76467766 6.85376048,6.85317532 C6.76704859,6.94530675 6.64565912,7 6.50952148,7 L3.49047852,7 C3.21959471,7 3,6.76806641 3,6.5 C3,6.22385763 3.21505737,6 3.49047852,6 L5.29289322,6 Z" id="Combined-Shape"></path>
            <rect id="Rectangle-12" x="8" y="7" width="11" height="6" rx="1"></rect>
        </g>
    </g>
</svg>