<?xml version="1.0" encoding="UTF-8"?>
<svg width="22px" height="15px" viewBox="0 0 22 15" version="1.1" xmlns="http://www.w3.org/2000/svg" xmlns:xlink="http://www.w3.org/1999/xlink">
    <!-- Generator: Sketch 43.1 (39012) - http://www.bohemiancoding.com/sketch -->
    <title>_Assets/Both/Mute</title>
    <desc>Created with Sketch.</desc>
    <defs></defs>
    <g id="Media-Control-Symbols" stroke="none" stroke-width="1" fill="none" fill-rule="evenodd">
        <g id="_Assets/Both/Mute" fill="#000000">
            <path d="M6.15796431,3.26503625 L7.26633835,2.24618642 C7.67152849,1.87372379 8,2.02224368 8,2.56259782 L8,4.32853605 L6.15796431,3.26503625 Z M8,8.36998794 L8,12.44141 C8,12.9886218 7.67266321,13.1174489 7.28488016,12.7445465 L4.42982367,9.99904876 C4.3991325,9.99936897 4.36843758,9.99957726 4.338,10 L4.123,10 L1.877,10 L1.662,10 C1.602,9.99916667 1.541,9.99916667 1.481,9.9975 C1.349,9.99416667 1.217,9.98833333 1.087,9.96833333 C0.955,9.94916667 0.832,9.91666667 0.712,9.86583333 C0.594,9.81583333 0.486,9.75083333 0.393,9.6725 C0.299,9.595 0.221,9.505 0.161,9.40666667 C0.1,9.30666667 0.061,9.20416667 0.038,9.09416667 C0.014,8.98583333 0.007,8.87583333 0.003,8.76583333 C0.001,8.71583333 0.001,8.66583333 0.001,8.615 C0,8.55583333 0,8.49583333 0,8.43583333 L0,6.56416667 C0,6.50416667 0,6.445 0.001,6.385 C0.001,6.335 0.001,6.28416667 0.003,6.23416667 C0.007,6.125 0.014,6.01416667 0.038,5.90583333 C0.061,5.79583333 0.1,5.69333333 0.161,5.59333333 C0.221,5.495 0.299,5.40583333 0.393,5.3275 C0.486,5.25 0.594,5.18416667 0.712,5.13416667 C0.832,5.08333333 0.955,5.05166667 1.087,5.03166667 C1.217,5.01166667 1.349,5.00583333 1.481,5.0025 C1.541,5.00166667 1.602,5.00083333 1.662,5.00083333 C1.734,5 1.805,5 1.877,5 L2.16300967,5 L8,8.36998794 Z M10.4126905,9.76295545 L11.1843351,10.2084646 C11.0358107,10.4286929 10.8686038,10.6421467 10.6835466,10.848959 C10.5215466,11.0295606 10.2375466,11.0514833 10.0485466,10.8969802 C9.85854659,10.7424771 9.83654659,10.4710528 9.99754659,10.2904512 C10.1507067,10.1193293 10.2893133,9.94365424 10.4126905,9.76295545 Z M10.8069786,5.94914593 C10.6172274,5.50888719 10.3447907,5.09751579 9.99754659,4.70954882 C9.83654659,4.52894723 9.85854659,4.25752287 10.0485466,4.10301978 C10.2375466,3.94851668 10.5215466,3.97043942 10.6835466,4.15104101 C11.3388709,4.88340436 11.7703514,5.69905344 11.9410276,6.60388942 L10.8069786,5.94914593 Z M15.8848649,8.88086495 L15.0481423,8.39778293 C15.0856532,8.10174187 15.1047112,7.80209941 15.1047112,7.5 C15.1047112,5.73843639 14.4567112,4.06041297 13.2807112,2.69282905 C13.1237112,2.51027825 13.1537112,2.2431559 13.3467112,2.09464 C13.5397112,1.94715546 13.8237112,1.97500219 13.9807112,2.15755298 C15.2867112,3.67571553 16.0057112,5.54350927 16.0057112,7.5 C16.0057112,7.96651029 15.9648326,8.42797773 15.8848649,8.88086495 Z M14.5270638,12.13839 C14.3583819,12.38032 14.176117,12.6152971 13.9807112,12.842447 C13.8237112,13.0249978 13.5397112,13.0528445 13.3467112,12.90536 C13.1537112,12.7568441 13.1237112,12.4897218 13.2807112,12.307171 C13.4509748,12.1091694 13.6101706,11.9046605 13.7579343,11.6943329 L14.5270638,12.13839 Z M17.1102703,13.629805 L17.8799849,14.0741999 C17.6933328,14.33406 17.494656,14.5892382 17.2840597,14.8395542 C17.1290597,15.0229915 16.8450597,15.0539079 16.6510597,14.9075703 C16.4550597,14.7622632 16.4230597,14.4953516 16.5780597,14.3108837 C16.7656887,14.0879094 16.9431204,13.860839 17.1102703,13.629805 Z M18.6742807,10.4913349 C18.9601106,9.5371308 19.1050597,8.53788734 19.1050597,7.5 C19.1050597,4.96897709 18.2430597,2.66776612 16.5780597,0.689116289 C16.4230597,0.504648414 16.4550597,0.237736796 16.6510597,0.0924296995 C16.8450597,-0.0539079442 17.1290597,-0.0229915406 17.2840597,0.160445787 C19.0770597,2.29161654 20.0060597,4.7752343 20.0060597,7.5 C20.0060597,8.70036154 19.8257656,9.8539227 19.4707347,10.9511678 L18.6742807,10.4913349 Z M0.348205106,1.99951896 C0.555311887,1.64079949 1.00825831,1.51457545 1.37243073,1.7248305 L21.3782047,13.2751695 C21.7367622,13.4821827 21.8609811,13.9382988 21.6524304,14.2995191 C21.4453236,14.6582386 20.9923772,14.7844627 20.6282047,14.5742076 L0.622430735,3.0238686 C0.263873321,2.81685538 0.139654415,2.36073935 0.348205106,1.99951896 Z" id="iOS/Fullscreen/Mute" style="mix-blend-mode: normal;"></path>
        </g>
    </g>
</svg>