<?xml version="1.0" encoding="UTF-8" standalone="no"?>
<svg width="22px" height="15px" viewBox="0 0 22 15" version="1.1" xmlns="http://www.w3.org/2000/svg" xmlns:xlink="http://www.w3.org/1999/xlink">
    <!-- Generator: Sketch 41.2 (35397) - http://www.bohemiancoding.com/sketch -->
    <title>macOS-VolumeHi</title>
    <desc>Created with Sketch.</desc>
    <defs>
        <polygon id="path-1" points="19.9667 1.0002 16.4406398 1.0002 16.4406398 15.55529 19.9667 15.55529 19.9667 1.0002"></polygon>
    </defs>
    <g id="Page-1" stroke="none" stroke-width="1" fill="none" fill-rule="evenodd">
        <g id="macOS-VolumeHi" transform="translate(0.000000, -1.000000)">
            <g id="Group-7" transform="translate(16.000000, 0.555200)"></g>
            <path d="M11.0513,8 C11.0513,9.06586257 10.6523,9.97930993 9.9263,10.7904512 C9.7653,10.9710528 9.7873,11.2424771 9.9773,11.3969802 C10.1663,11.5514833 10.4503,11.5295606 10.6123,11.348959 C11.4773,10.3822707 11.9523,9.27047478 11.9523,8 C11.9523,6.72952522 11.4773,5.6177293 10.6123,4.65104101 C10.4503,4.47043942 10.1663,4.44851668 9.9773,4.60301978 C9.7873,4.75752287 9.7653,5.02894723 9.9263,5.20954882 C10.6523,6.02069007 11.0513,6.93413743 11.0513,8" id="Fill-1" fill="#221F20"></path>
            <path d="M15.0731,8 C15.0731,9.76156361 14.4251,11.439587 13.2491,12.807171 C13.0921,12.9897218 13.1221,13.2568441 13.3151,13.40536 C13.5081,13.5528445 13.7921,13.5249978 13.9491,13.342447 C15.2551,11.8242845 15.9741,9.95649073 15.9741,8 C15.9741,6.04350927 15.2551,4.17571553 13.9491,2.65755298 C13.7921,2.47500219 13.5081,2.44715546 13.3151,2.59464 C13.1221,2.7431559 13.0921,3.01027825 13.2491,3.19282905 C14.4251,4.56041297 15.0731,6.23843639 15.0731,8" id="Fill-3" fill="#221F20"></path>
            <path d="M4.328144,5.00086919 L6.5893,2.72468533 C6.9593,2.34268533 7.2803,1.83068533 7.7423,2.05468533 C8.0623,2.21068533 7.9903,3.21468533 7.9903,3.21468533 C7.9903,3.21468533 7.9873,5.48368533 7.9843,7.97068533 C7.9823,10.4656853 7.9823,5.52568533 7.9843,8.02068533 C7.9873,10.5076853 7.9903,12.7766853 7.9903,12.7766853 C7.9903,12.7766853 8.0623,13.7806853 7.7423,13.9356853 C7.2803,14.1606853 6.9593,13.6486853 6.5893,13.2666853 L4.33757982,11 L4.123,11 L1.877,11 L1.662,11 C1.602,10.999 1.541,10.999 1.481,10.997 C1.349,10.993 1.217,10.986 1.087,10.962 C0.955,10.939 0.832,10.9 0.712,10.839 C0.594,10.779 0.486,10.701 0.393,10.607 C0.299,10.514 0.221,10.406 0.161,10.288 C0.1,10.168 0.061,10.045 0.038,9.913 C0.014,9.783 0.007,9.651 0.003,9.519 C0.001,9.459 0.001,9.399 0.001,9.338 C0,9.267 0,9.195 0,9.123 L0,6.877 C0,6.805 0,6.734 0.001,6.662 C0.001,6.602 0.001,6.541 0.003,6.481 C0.007,6.35 0.014,6.217 0.038,6.087 C0.061,5.955 0.1,5.832 0.161,5.712 C0.221,5.594 0.299,5.487 0.393,5.393 C0.486,5.3 0.594,5.221 0.712,5.161 C0.832,5.1 0.955,5.062 1.087,5.038 C1.217,5.014 1.349,5.007 1.481,5.003 C1.541,5.002 1.602,5.001 1.662,5.001 C1.734,5 1.805,5 1.877,5 L4.123,5 C4.19171265,5 4.25951452,5 4.328144,5.00086919 Z" id="Combined-Shape" fill="#221F20"></path>
            <mask id="mask-2" fill="white">
                <use xlink:href="#path-1"></use>
            </mask>
            <g id="Clip-6"></g>
            <path d="M19.0657,8 C19.0657,10.5310229 18.2037,12.8322339 16.5387,14.8108837 C16.3837,14.9953516 16.4157,15.2622632 16.6117,15.4075703 C16.8057,15.5539079 17.0897,15.5229915 17.2447,15.3395542 C19.0377,13.2083835 19.9667,10.7247657 19.9667,8 C19.9667,5.2752343 19.0377,2.79161654 17.2447,0.660445787 C17.0897,0.477008459 16.8057,0.446092056 16.6117,0.5924297 C16.4157,0.737736796 16.3837,1.00464841 16.5387,1.18911629 C18.2037,3.16776612 19.0657,5.46897709 19.0657,8" id="Fill-5" fill="#221F20" mask="url(#mask-2)"></path>
        </g>
    </g>
</svg>