<svg xmlns="http://www.w3.org/2000/svg" xmlns:xlink="http://www.w3.org/1999/xlink" version="1.1" width="140" height="140">
  <defs>
    <g id="border-image">
      <rect width="100" height="100" fill="lime"/>
      <rect x="10" y="10" width="80" height="80" fill="none" stroke="black" stroke-width="4px"/>
    </g>
    <clipPath id="top-left">
      <rect x="0" y="0" width="20" height="20"/>
    </clipPath>
    <clipPath id="left">
      <rect x="0" y="0" width="20" height="100"/>
    </clipPath>
    <clipPath id="bottom-left">
      <rect x="0" y="0" width="20" height="20"/>
    </clipPath>
    <clipPath id="top-right">
      <rect x="0" y="0" width="20" height="20"/>
    </clipPath>
    <clipPath id="right">
      <rect x="0" y="0" width="20" height="100"/>
    </clipPath>
    <clipPath id="bottom-right">
      <rect x="0" y="0" width="20" height="20"/>
    </clipPath>
    <clipPath id="top">
      <rect x="0" y="0" width="100" height="20"/>
    </clipPath>
    <clipPath id="bottom">
      <rect x="0" y="0" width="100" height="20"/>
    </clipPath>
    <clipPath id="middle">
      <rect x="0" y="0" width="100" height="100"/>
    </clipPath>
  </defs>
  
  <!-- draw left side -->
  <use x="0" y="0" xlink:href="#border-image" clip-path="url(#top-left)"/>
  <use x="0" y="20" xlink:href="#border-image" clip-path="url(#left)"/>
  <use x="0" y="120" xlink:href="#border-image" clip-path="url(#bottom-left)"/>
  
  <!-- draw right side -->
  <use x="120" y="0" xlink:href="#border-image" clip-path="url(#top-right)"/>
  <use x="120" y="20" xlink:href="#border-image" clip-path="url(#right)"/>
  <use x="120" y="120" xlink:href="#border-image" clip-path="url(#bottom-right)"/>
  
  <!-- draw top and bottom sides -->
  <use x="20" y="0" xlink:href="#border-image" clip-path="url(#top)"/>
  <use x="20" y="120" xlink:href="#border-image" clip-path="url(#bottom)"/>
  
  <!-- draw middle -->
  <use x="20" y="20" xlink:href="#border-image" clip-path="url(#middle)"/>
</svg>