<?xml version="1.0" standalone="no"?>
<svg xmlns="http://www.w3.org/2000/svg">
<defs>
<font id="exotic" horiz-adv-x="904">
    <font-face font-family="SVGExotic" units-per-em="2048" panose-1="2 11 6 4 2 2 2 2 2 4" ascent="2189" descent="-555" alphabetic="0" />
    <missing-glyph horiz-adv-x="2048" d="M256 0V1536H1792V0H256ZM384 128H1664V1408H384V128Z" />

    <!-- Punctuation -->    
    <glyph unicode=" " horiz-adv-x="569" />
    <glyph unicode="." horiz-adv-x="569" d="M387 0H182V205H387V0Z" />
    <glyph unicode="," horiz-adv-x="569" d="M389 0Q389 -127 341 -194T221 -289L172 -213Q284 -165 285 0H184V205H389V0Z" />
    <glyph unicode=":" horiz-adv-x="569" d="M389 856H184V1061H389V856ZM389 0H184V205H389V0Z" />
    <glyph unicode="!" horiz-adv-x="569" d="M397 1141L346 365H229L174 1141V1466H397V1141ZM387 0H182V205H387V0Z" />
    <glyph unicode="&quot;" horiz-adv-x="727" d="M641 1227L596 946H485L436 1227V1466H641V1227ZM289 1227L244 946H133L84 1227V1466H289V1227Z" />

    <!-- Polish -->
    <glyph unicode="&#x107;" horiz-adv-x="1024" d="M1006 367Q971 164 846 70T563 -25Q332 -25 206 126T80 528Q80 735 152 859T334 1034T563 1085Q727 1085 843 1000T987 750L813 723Q786 830 726 884T571 938Q420 938 342 831T264 532Q264 336 340 230T561 123Q677 123 743 189T827 389L1006 367ZM808 1491L587 1210H439L572 1491H808Z" />
    <glyph unicode="&#x119;" horiz-adv-x="1139" d="M1059 485H264Q275 309 364 216T588 123Q794 123 868 342L1053 319Q964 0 629 -23Q608 -88 608 -141Q608 -207 648 -250T752 -293Q829 -293 920 -246V-365Q800 -426 700 -426Q604 -426 543 -366T481-205Q481 -130 510 -20Q302 5 191 149T80 522Q80 773 210 929T578 1085Q694 1085 801 1034T984 861T1059 485ZM874 633Q863 795 774 866T578 938Q451 938 369 853T274 633H874Z" />
    <glyph unicode="&#x142;" horiz-adv-x="455" d="M446 842L311 727V0H133V573L2 465V623L133 731V1466H311V885L446 999V842Z" />
    <glyph unicode="&#x15b;" horiz-adv-x="1024" d="M729 764Q717 851 659 894T496 938Q393 938 330 903T266 801Q266 738 316 711T516 645Q684 602 767 569T897 477T944 311Q944 169 828 72T518 -25Q316 -25 203 60T63 317L242 344Q256 233 324 178T516 123Q634 123 697 172T760 293Q760 341 731 370T659 413T463 465Q237 519 165 596T92 780Q92 913 198 999T483 1085Q673 1085 778 1011T905 788L729 764ZM748 1491L527 1210H379L512 1491H748Z" />

    <!-- Greek -->    
    <glyph unicode="&#x39c;" horiz-adv-x="1706" d="M1550 0H1366V1227H1362L940 0H766L346 1247H340V0H156V1466H446L793 428Q851 255 860 211H864Q891 296 942 446L1292 1466H1550V0Z" />
    <glyph unicode="&#x3ac;" horiz-adv-x="1180" d="M1108 0H928Q879 127 864 195Q793 59 708 17T516 -25Q318 -25 195 124T72 532Q72 803 198 944T518 1085Q744 1085 870 883Q896 982 924 1061H1108Q1081 976 1056 882T1005 661T979 530Q979 517 1008 374T1060 147T1108 0ZM541 123Q668 123 748 234T829 541Q829 734 751 836T549 938Q408 938 332 828T256 528Q256 356 329 240T541 123ZM746 1507L619 1229H502L562 1507H746Z" />
    <glyph unicode="&#x3ad;" horiz-adv-x="889" d="M829 145Q736 51 647 13T432 -25Q252 -25 156 64T59 291Q59 464 236 549Q88 631 88 778Q88 909 183 997T440 1085Q652 1085 791 942L662 838Q545 930 432 930Q358 930 311 886T264 782Q264 730 304 687T391 633T549 621V473Q360 473 304 418T248 293Q248 226 303 176T436 125Q590 125 700 256L829 145ZM615 1507L488 1229H371L431 1507H615Z" />
    <glyph unicode="&#x3af;" horiz-adv-x="455" d="M317 0H137V1061H317V0ZM641 1507L514 1229H397L457 1507H641Z" />
    <glyph unicode="&#x3b1;" horiz-adv-x="1180" d="M1108 0H928Q879 127 864 195Q793 59 708 17T516 -25Q318 -25 195 124T72 532Q72 803 198 944T518 1085Q744 1085 870 883Q896 982 924 1061H1108Q1081 976 1056 882T1005 661T979 530Q979 517 1008 374T1060 147T1108 0ZM541 123Q668 123 748 234T829 541Q829 734 751 836T549 938Q408 938 332 828T256 528Q256 356 329 240T541 123Z" />
    <glyph unicode="&#x3b3;" horiz-adv-x="1024" d="M999 1061L602 0V-408H422V0L27 1061H215L512 225L817 1061H999Z" />
    <glyph unicode="&#x3b8;" horiz-adv-x="1139" d="M569 1491Q1047 1491 1047 733Q1047 350 924 163T569 -25Q92 -25 92 733Q92 1117 215 1304T569 1491ZM862 807Q853 1343 569 1343Q289 1343 276 807H862ZM864 659H279Q289 123 569 123Q851 123 864 659Z" />
    <glyph unicode="&#x3b9;" horiz-adv-x="455" d="M317 0H137V1061H317V0Z" />
    <glyph unicode="&#x3bb;" horiz-adv-x="1024" d="M999 0H809L514 793L217 0H27L420 1042L262 1466H453L999 0Z" />
    <glyph unicode="&#x3bc;" horiz-adv-x="1133" d="M997 0H836V156H831Q766 66 700 21T549 -25Q481 -25 416 10T315 102V-408H135V1061H315V428Q315 281 363 206T535 131Q656 131 736 214T817 457V1061H997V0Z" />
    <glyph unicode="&#x3bd;" horiz-adv-x="1024" d="M999 1061L598 0H430L27 1061H217L436 447Q498 273 510 211H514Q530 275 569 383L815 1061H999Z" />
    <glyph unicode="&#x3bf;" horiz-adv-x="1139" d="M569 1085Q784 1085 925 945T1067 547Q1067 234 914 105T569 -25Q368 -25 220 108T72 530Q72 810 215 947T569 1085ZM569 123Q723 123 803 237T883 537Q883 736 793 837T569 938Q432 938 344 836T256 530Q256 328 345 226T569 123Z" />
    <glyph unicode="&#x3c0;" horiz-adv-x="1389" d="M1356 913H1095V0H914V913H474V0H294V913H33V1061H1356V913Z" />
    <glyph unicode="&#x3c1;" horiz-adv-x="1169" d="M135 -408V516Q135 1085 606 1085Q824 1085 961 933T1098 528Q1098 272 965 124T631 -25Q434 -25 315 100V-408H135ZM606 123Q742 123 827 225T913 528Q913 732 821 835T606 938Q464 938 391 830T317 520Q317 328 391 226T606 123Z" />
    <glyph unicode="&#x3c2;" horiz-adv-x="967" d="M952 1053L909 901Q798 938 690 938Q475 938 364 812T252 518Q252 365 333 290T571 174Q785 119 845 51T905 -117Q905 -198 859 -272T725 -388T516 -430Q431 -430 365 -418L410 -252Q459 -264 510 -264Q604 -264 660 -220T717 -123Q717 -67 667 -37T512 16Q300 60 186 181T72 496Q72 733 248 909T709 1085Q838 1085 952 1053Z" />
    <glyph unicode="&#x3c3;" horiz-adv-x="1268" d="M1223 944Q1081 930 997 930Q1067 767 1067 530Q1067 260 927 118T567 -25Q348 -25 210 119T72 530Q72 800 212 942T567 1085L907 1077Q1075 1077 1223 1094V944ZM883 530Q883 781 805 930L569 938Q432 938 344 829T256 530Q256 341 344 232T569 123Q706 123 794 232T883 530Z" />
    <glyph unicode="&#x3c4;" horiz-adv-x="782" d="M750 913H482V0H301V913H33V1061H750V913Z" />
    <glyph unicode="&#x3c5;" horiz-adv-x="1128" d="M989 432Q989 219 877 97T561 -25Q362 -25 251 97T139 432V1061H319V432Q319 278 391 201T563 123Q668 123 738 199T809 430V1061H989V432Z" />
    <glyph unicode="&#x3c6;" horiz-adv-x="1319" d="M750 1085Q981 1069 1114 921T1247 530Q1247 289 1114 141T750 -25V-408H569V-25Q338 -8 205 140T72 530Q72 772 205 920T569 1085V1466H750V1085ZM750 123Q1063 156 1063 530Q1063 905 750 938V123ZM569 123V938Q256 905 256 530Q256 156 569 123Z" />
    <glyph unicode="&#x3c7;" horiz-adv-x="1069" d="M1055 -408H850L535 205L217 -408H14L424 332L45 1061H242L535 473L836 1061H1034L645 338L1055 -408Z" />
    <glyph unicode="&#x3c9;" horiz-adv-x="1569" d="M1339 1061Q1497 779 1497 512Q1497 254 1388 115T1108 -25Q884 -25 784 215Q685 -25 461 -25Q289 -25 181 115T72 512Q72 779 229 1061H403Q297 816 275 706T252 506Q252 333 316 225T481 117Q573 117 633 206T694 449V795H874V449Q874 290 932 204T1087 117Q1188 117 1252 221T1317 506Q1317 604 1292 717T1165 1061H1339Z" />
    <glyph unicode="&#x3ce;" horiz-adv-x="1569" d="M1339 1061Q1497 779 1497 512Q1497 254 1388 115T1108 -25Q884 -25 784 215Q685 -25 461 -25Q289 -25 181 115T72 512Q72 779 229 1061H403Q297 816 275 706T252 506Q252 333 316 225T481 117Q573 117 633 206T694 449V795H874V449Q874 290 932 204T1087 117Q1188 117 1252 221T1317 506Q1317 604 1292 717T1165 1061H1339ZM934 1507L807 1229H690L750 1507H934Z" />

    <!-- Russian -->
    <glyph unicode="&#x42f;" horiz-adv-x="1479" d="M1315 0H1120V649H897Q799 649 740 625T622 532T464 310L266 0H23Q286 410 324 467T424 579T555 668Q352 697 248 800T143 1067Q143 1173 186 1256T302 1389T456 1452T666 1466H1315V0ZM1120 821V1305H657Q505 1305 425 1242T344 1065Q344 984 393 922T513 841T705 821H1120Z" />
    <glyph unicode="&#x432;" horiz-adv-x="1087" d="M834 553Q917 521 962 454T1008 297Q1008 161 910 81T639 0H135V1061H573Q794 1061 877 975T961 780Q961 633 834 553ZM315 616H530Q776 616 776 764Q776 849 715 880T537 911H315V616ZM315 150H575Q823 150 823 307Q823 358 791 400T705 454T559 467H315V150Z" />
    <glyph unicode="&#x433;" horiz-adv-x="784" d="M745 911H315V0H135V1061H745V911Z" />
    <glyph unicode="&#x434;" horiz-adv-x="1194" d="M1133 -301H983V0H150V-301H0V150H94Q182 270 230 495T279 1010V1061H1018V150H1133V-301ZM838 150V911H428Q407 400 266 150H838Z" />
    <glyph unicode="&#x435;" horiz-adv-x="1139" d="M1059 485H264Q275 309 364 216T588 123Q691 123 761 177T868 342L1053 319Q1008 153 888 64T588 -25Q349 -25 215 121T80 522Q80 773 210 929T578 1085Q694 1085 801 1034T984 861T1059 485ZM874 633Q863 795 774 866T578 938Q451 938 369 853T274 633H874Z" />
    <glyph unicode="&#x438;" horiz-adv-x="1145" d="M1010 0H829V805L330 0H135V1061H315V252L815 1061H1010V0Z" />
    <glyph unicode="&#x43a;" horiz-adv-x="895" d="M913 0H717Q513 345 490 383T426 457T330 492H315V0H135V1061H315V602H332Q408 602 443 644T521 791Q602 990 653 1025T807 1061H872V911H823Q766 911 741 899T696 834Q642 688 607 636T487 545Q550 526 602 481T717 330L913 0Z" />
    <glyph unicode="&#x43b;" horiz-adv-x="1169" d="M1034 0H854V911H401V293Q401 115 344 55T166 -6Q91 -6 23 0V158Q83 153 115 153Q190 153 205 185T221 340V1061H1034V0Z" />
    <glyph unicode="&#x43c;" horiz-adv-x="1399" d="M1264 0H1094V897L770 0H608L305 897V0H135V1061H406L694 211L993 1061H1264V0Z" />
    <glyph unicode="&#x43d;" horiz-adv-x="1130" d="M995 0H815V471H315V0H135V1061H315V621H815V1061H995V0Z" />
    <glyph unicode="&#x43e;" horiz-adv-x="1139" d="M569 1086Q784 1086 925 946T1067 548Q1067 235 914 106T569 -24Q368 -24 220 109T72 531Q72 811 215 948T569 1086ZM569 124Q723 124 803 238T883 538Q883 737 793 838T569 939Q432 939 344 837T256 531Q256 329 345 227T569 124Z" />
    <glyph unicode="&#x440;" horiz-adv-x="1139" d="M307 924Q408 1085 610 1085Q819 1085 940 934T1061 539Q1061 280 927 128T598 -25Q427 -25 324 111H319V-408H139V1061H303V924H307ZM586 123Q712 123 794 227T877 539Q877 734 798 839T594 944Q466 944 384 827T301 524Q301 327 380 225T586 123Z" />
    <glyph unicode="&#x441;" horiz-adv-x="1024" d="M1006 368Q971 165 846 71T563 -24Q332 -24 206 127T80 529Q80 736 152 860T334 1035T563 1086Q727 1086 843 1001T987 751L813 724Q786 831 726 885T571 939Q420 939 342 832T264 533Q264 337 340 231T561 124Q677 124 743 190T827 390L1006 368Z" />
    <glyph unicode="&#x442;" horiz-adv-x="938" d="M899 911H559V0H379V911H37V1061H899V911Z" />
    <glyph unicode="&#x443;" horiz-adv-x="1024" d="M1008 1061L602 -18Q601 -20 600 -25Q542 -205 465 -317T244 -430Q196 -430 127 -410L109 -240Q161 -256 211 -256Q311 -256 349 -201T436 -2L33 1061H227L477 366Q499 302 524 201H528Q553 317 592 422L825 1061H1008Z" />
    <glyph unicode="&#x44c;" horiz-adv-x="1071" d="M315 647H565Q772 647 890 558T1008 322Q1008 182 903 91T610 0H135V1061H315V647ZM315 150H530Q823 150 823 322Q823 498 551 498H315V150Z" />
    <glyph unicode="&#x44d;" horiz-adv-x="1044" d="M68 748Q94 908 207 996T489 1085Q713 1085 842 938T971 530Q971 277 845 127T508 -23Q322 -23 201 78T49 365L225 389Q266 125 496 125Q752 125 786 471H412V621H786Q767 772 689 855T496 938Q287 938 244 721L68 748Z" />

    <!-- Hebrew -->
    <glyph unicode="&#x5b8;" horiz-adv-x="737" d="M494 -213H412V-295H326V-213H244V-127H494V-213Z" />
    <glyph unicode="&#x5d0;" horiz-adv-x="1182" d="M1059 0H844L451 580Q307 485 307 219V0H139V219Q139 543 371 696L123 1061H338L668 578Q774 628 824 714T874 944V1061H1042V940Q1042 600 743 463L1059 0Z" />
    <glyph unicode="&#x5d2;" horiz-adv-x="842" d="M791 0H616L524 342L262 0H41L303 317Q440 483 451 499T469 541T477 608V719Q477 827 440 866T315 905Q257 905 180 883L150 1065Q228 1085 336 1085Q500 1085 572 1002T645 739V612Q645 540 668 457L791 0Z" />
    <glyph unicode="&#x5d4;" horiz-adv-x="1217" d="M1077 0H909V578Q909 767 829 836T547 905Q390 905 176 879L147 1061Q341 1085 549 1085Q832 1085 954 976T1077 584V0ZM315 0H147V623H315V0Z" />
    <glyph unicode="&#x5d5;" horiz-adv-x="647" d="M508 0H340V721Q340 822 305 863T180 905Q133 905 61 883L33 1065Q109 1085 221 1085Q508 1085 508 748V0Z" />
    <glyph unicode="&#x5d6;" horiz-adv-x="668" d="M627 715Q551 743 526 749T471 756Q369 756 369 606V0H201V606Q201 689 242 747T346 817L57 922V1112L627 905V715Z" />
    <glyph unicode="&#x5d8;" horiz-adv-x="1217" d="M1090 528Q1090 -25 614 -25Q139 -25 139 528V1061H307V535Q307 339 380 248T614 156Q775 156 848 247T922 535V694Q922 805 891 861T772 918Q715 918 653 893L618 1059Q711 1085 803 1085Q940 1085 1015 985T1090 705V528Z" />
    <glyph unicode="&#x5d9;" horiz-adv-x="647" d="M508 528H340V721Q340 822 305 863T180 905Q133 905 61 883L33 1065Q109 1085 221 1085Q508 1085 508 748V528Z" />
    <glyph unicode="&#x5da;" horiz-adv-x="1038" d="M899 -408H731V578Q731 767 651 836T369 905Q240 905 72 879L41 1061Q221 1085 371 1085Q654 1085 776 976T899 584V-408Z" />
    <glyph unicode="&#x5db;" horiz-adv-x="1079" d="M78 1061Q252 1085 410 1085Q696 1085 828 955T961 530Q961 248 834 112T410 -25Q252 -25 78 0L106 182Q260 156 406 156Q612 156 702 242T793 530Q793 729 704 817T406 905Q260 905 106 879L78 1061Z" />
    <glyph unicode="&#x5dc;" horiz-adv-x="991" d="M236 1061H498Q689 1061 791 972T893 729Q893 512 752 331T295 -25L203 131Q473 272 599 416T725 723Q725 881 498 881H68V1466H236V1061Z" />
    <glyph unicode="&#x5de;" horiz-adv-x="1217" d="M1077 0H565V180H909V573Q909 751 848 828T666 905Q537 905 465 822T360 566L254 0H82L208 636Q218 685 231 725L61 1061H252L324 918Q451 1085 676 1085Q878 1085 977 968T1077 569V0Z" />
    <glyph unicode="&#x5df;" horiz-adv-x="647" d="M508 -408H340V721Q340 822 305 863T180 905Q133 905 61 883L33 1065Q109 1085 221 1085Q508 1085 508 748V-408Z" />
    <glyph unicode="&#x5e0;" horiz-adv-x="692" d="M553 0H78V180H385V721Q385 822 350 863T225 905Q178 905 106 883L78 1065Q155 1085 266 1085Q553 1085 553 748V0Z" />
    <glyph unicode="&#x5e1;" horiz-adv-x="1237" d="M51 1026Q335 1085 573 1085Q837 1085 977 943T1118 526Q1118 252 991 114T629 -25Q390 -25 265 115T139 526Q139 713 215 870Q167 862 82 844L51 1026ZM397 895Q307 744 307 526Q307 156 629 156Q950 156 950 526Q950 905 573 905Q506 905 397 895Z" />
    <glyph unicode="&#x5e2;" horiz-adv-x="1126" d="M1030 1061Q1030 473 767 153T86 -168L66 12Q238 12 385 76L96 1061H274L532 166Q862 417 862 1061H1030Z" />
    <glyph unicode="&#x5e7;" horiz-adv-x="1194" d="M147 1061H700Q892 1061 994 972T1096 729Q1096 286 539 -25L446 131Q928 384 928 723Q928 881 700 881H147V1061ZM315 -408H147V604H315V-408Z" />
    <glyph unicode="&#x5e8;" horiz-adv-x="1038" d="M899 0H731V578Q731 767 651 836T369 905Q240 905 72 879L41 1061Q221 1085 371 1085Q654 1085 776 976T899 584V0Z" />
    <glyph unicode="&#x5e9;" horiz-adv-x="1434" d="M1380 1061Q1272 471 1092 223T578 -25Q327 -25 147 35V1061H315V506Q415 506 483 548T604 710T698 1061H868Q812 758 737 606T562 401T315 348V184Q397 156 588 156Q834 156 976 368T1210 1061H1380Z" />
    <glyph unicode="&#x5ea;" horiz-adv-x="1296" d="M1157 0H989V578Q989 755 894 830T586 905Q497 905 395 893V262Q395 -27 164 -27Q114 -27 43 -12L68 164Q102 154 150 154Q185 154 206 173T227 276V866Q181 858 92 838L55 1020Q332 1085 588 1085Q886 1085 1021 967T1157 584V0Z" />
    <glyph unicode="&#x5f0;" glyph-name="null" horiz-adv-x="1208" d="M508 0H340V721Q340 822 305 863T180 905Q133 905 61 883L33 1065Q109 1085 221 1085Q508 1085 508 748V0ZM1069 0H901V721Q901 822 866 863T741 905Q694 905 622 883L594 1065Q670 1085 782 1085Q1069 1085 1069 748V0Z" />
    <glyph unicode="&#x5f2;" glyph-name="null" horiz-adv-x="1208" d="M508 528H340V721Q340 822 305 863T180 905Q133 905 61 883L33 1065Q109 1085 221 1085Q508 1085 508 748V528ZM1069 528H901V721Q901 822 866 863T741 905Q694 905 622 883L594 1065Q670 1085 782 1085Q1069 1085 1069 748V528Z" />

    <!-- Chinese/Japanese -->
    <glyph unicode="&#x3002;" horiz-adv-x="2048" d="M469 481Q591 481 677 394T764 184Q764 62 678 -24T471 -111Q349 -111 263 -25T176 184Q176 307 262 394T469 481ZM470 14Q541 14 590 64T640 186Q640 257 590 306T470 356Q400 356 350 307T300 186Q300 115 349 65T470 14Z" />
    <glyph unicode="&#x3051;" horiz-adv-x="2048" d="M842 535Q732 342 655 -6H504Q421 150 377 392T332 827Q332 1188 434 1602L635 1554Q516 1152 516 827Q516 538 563 350H567Q599 464 668 610L842 535ZM1872 1042Q1713 1013 1581 999Q1583 940 1583 913Q1583 708 1564 546T1480 216T1290 -113L1102 10Q1229 127 1292 265T1376 566T1397 975Q1163 958 1063 958Q894 958 782 963L778 1163Q899 1141 1087 1141Q1226 1141 1393 1155Q1386 1335 1350 1546L1542 1565Q1566 1363 1573 1176Q1684 1187 1849 1225L1872 1042Z" />
    <glyph unicode="&#x3059;" horiz-adv-x="2048" d="M1815 1141H1354V799Q1397 664 1397 535Q1397 314 1281 142T944 -127L829 61Q990 105 1087 191T1198 385Q1110 309 985 309Q845 309 737 411T629 676Q629 842 730 950T991 1059Q1094 1059 1167 1008V1141H233V1325H1167V1583H1354V1325H1815V1141ZM977 500Q1057 500 1109 559T1161 698Q1161 767 1110 815T985 864Q913 864 866 811T819 680Q819 593 862 547T977 500Z" />
    <glyph unicode="&#x305b;" horiz-adv-x="2048" d="M1800 995L1475 969Q1475 759 1466 663T1428 515T1325 430T1167 395Q1141 395 1081 399L1044 602Q1128 580 1178 580Q1255 580 1271 639T1288 952L684 905Q684 523 699 376T795 188T1141 147Q1283 147 1679 180L1657 -27Q1437 -33 1143 -33Q787 -33 692 12T549 184T500 889L215 868L201 1055L494 1077Q494 1373 502 1556H705Q678 1311 678 1096L1288 1143V1212Q1286 1338 1268 1556H1454Q1475 1334 1475 1206V1157L1786 1180L1800 995Z" />
    <glyph unicode="&#x305d;" horiz-adv-x="2048" d="M1817 932Q1321 899 1128 757T934 446Q934 314 1088 221T1456 127L1380 -72Q1087 -27 913 108T739 428Q739 626 946 819L942 823Q464 762 250 729L209 928L665 982Q705 987 793 1053Q885 1121 946 1170Q1025 1232 1077 1280Q748 1285 471 1339L508 1538Q642 1502 845 1478T1427 1454V1288Q1234 1138 1010 1020L1014 1016L1786 1133L1817 932Z" />
    <glyph unicode="&#x3064;" horiz-adv-x="2048" d="M250 1165Q858 1321 1208 1321Q1418 1321 1532 1265T1712 1077T1778 788Q1778 475 1572 286T1004 96Q939 96 848 100L813 307Q926 285 1040 285Q1297 285 1445 430T1593 793Q1593 957 1496 1054T1180 1151Q1024 1151 836 1111T559 1042L330 975L250 1165Z" />
    <glyph unicode="&#x306f;" horiz-adv-x="2048" d="M1835 344L1714 162Q1593 249 1399 338Q1390 143 1298 41T1038 -61Q864 -61 756 29T647 258Q647 408 777 502T1087 596Q1170 596 1221 586V1020Q858 1020 651 1036L657 1231Q838 1202 1098 1202Q1145 1202 1221 1206V1585H1407V1219Q1519 1225 1733 1266V1067Q1601 1047 1407 1034V547Q1620 474 1835 344ZM1210 391Q1155 410 1090 410Q985 410 907 365T829 254Q829 193 889 158T1036 123Q1124 123 1163 183T1210 391ZM670 469Q570 224 512 -39H342Q227 240 227 651Q227 1065 340 1567L543 1511Q412 1134 412 649Q412 463 430 322H434Q476 453 510 528L670 469Z" />
    <glyph unicode="&#x3079;" horiz-adv-x="2048" d="M1827 1374L1686 1315Q1648 1485 1587 1589L1737 1651Q1793 1539 1827 1374ZM1599 1292L1458 1233Q1421 1403 1360 1507L1509 1569Q1566 1457 1599 1292ZM1862 287L1737 135Q1461 365 1249 593T834 1118Q820 1139 811 1139Q802 1139 722 1055Q457 776 317 666L176 823Q501 1061 745 1356H901Q1117 1028 1331 788T1862 287Z" />
    <glyph unicode="&#x307e;" horiz-adv-x="2048" d="M1827 254L1702 80Q1364 327 1126 383Q1126 197 1023 74T731 -49Q560 -49 446 47T332 276Q332 426 467 520T805 614Q881 614 938 606V811Q612 811 295 831V1016Q601 995 938 995V1194Q563 1194 258 1163V1348Q563 1378 938 1378V1632H1118V1378Q1484 1378 1767 1348V1163Q1492 1194 1118 1194V995Q1438 995 1739 1016V831Q1440 811 1118 811V584Q1478 499 1827 254ZM936 422Q864 426 817 426Q693 426 613 387T532 276Q532 220 587 182T727 143Q834 143 885 197T936 422Z" />
    <glyph unicode="&#x3089;" horiz-adv-x="2048" d="M1499 1319L1403 1153Q1198 1309 815 1425L913 1597Q1266 1469 1499 1319ZM551 778Q821 891 1092 891Q1341 891 1507 772T1673 446Q1673 234 1516 100T1104 -35Q843 -35 463 55L479 274Q764 187 880 167T1083 147Q1489 147 1489 455Q1489 574 1373 641T1083 709Q799 709 446 520L295 643Q464 1074 616 1327L793 1237Q688 1107 551 778Z" />
    <glyph unicode="&#x308c;" horiz-adv-x="2048" d="M1866 172Q1735 84 1614 84Q1495 84 1430 162T1364 377Q1364 463 1406 666Q1450 874 1450 965Q1450 1034 1419 1073T1333 1112Q1152 1112 805 745V-59H625V543Q517 420 369 190L215 307Q359 533 625 834V958H276V1143H625V1585H805V1145Q834 1138 852 1125T870 1100Q870 1083 850 1040L854 1036Q970 1148 1103 1222T1331 1296Q1460 1296 1545 1202T1630 963Q1630 867 1583 661Q1540 474 1540 395Q1540 270 1612 270Q1686 270 1866 385V172Z" />
    <glyph unicode="&#x3092;" horiz-adv-x="2048" d="M1747 -25Q1475 -49 1245 -49Q880 -49 748 36T616 285Q616 422 743 556T1104 803Q1072 913 918 913Q854 913 785 891T674 834Q508 600 397 481L236 610Q309 668 369 736T477 873T572 1026L666 1194Q643 1192 584 1192Q493 1192 328 1200V1399Q473 1380 614 1380Q668 1380 760 1384Q820 1494 858 1649L1053 1593Q998 1451 971 1397Q1296 1411 1579 1462L1591 1272Q1328 1240 881 1210Q831 1102 795 1047Q906 1075 971 1075Q1087 1075 1176 1018T1286 885Q1377 928 1671 1044L1745 856Q1466 753 1305 686V309H1112V596Q973 532 887 446T801 274Q801 203 881 172T1184 141Q1409 141 1729 184L1747 -25Z" />
    <glyph unicode="&#x3093;" horiz-adv-x="2048" d="M1855 369Q1657 125 1543 55T1319 -16Q1199 -16 1126 71T1053 295Q1053 402 1090 557Q1112 649 1112 692Q1112 784 1024 784Q954 784 851 730T667 586T503 328L352 25L184 102L946 1593L1118 1509L788 889L793 885Q899 969 1028 969Q1149 969 1226 895T1303 705Q1303 630 1273 490Q1245 355 1245 285Q1245 234 1269 203T1335 172Q1483 172 1702 502L1855 369Z" />
    <glyph unicode="&#x30ac;" horiz-adv-x="2048" d="M1819 1425L1677 1366Q1640 1536 1579 1640L1729 1702Q1785 1590 1819 1425ZM1757 1245L1751 852Q1748 653 1731 487T1671 187T1577 0T1464 -68T1319 -84Q1262 -84 1133 -82L1081 117Q1257 102 1356 102Q1458 102 1517 323T1577 862L1575 1067H1067Q1006 626 822 355T311 -84L180 70Q522 246 675 462T883 1061H213V1245H897V1626H1081V1245H1757ZM1591 1343L1450 1284Q1412 1454 1352 1559L1501 1620Q1558 1508 1591 1343Z" />
    <glyph unicode="&#x30b9;" horiz-adv-x="2048" d="M1950 45L1790 -72Q1494 332 1098 575Q777 173 311 -106L168 41Q555 244 849 572T1309 1313H283V1489L1483 1491L1538 1434Q1426 1041 1206 723Q1633 451 1950 45Z" />
    <glyph unicode="&#x30e9;" horiz-adv-x="2048" d="M1679 1348H332V1532H1679V1348ZM1788 967Q1788 930 1698 779T1525 526T1344 334T1130 161T883 11T604 -117L492 59Q1293 324 1579 954H213V1139H1788V967Z" />
    <glyph unicode="&#x4f53;" horiz-adv-x="2048" d="M711 1636Q698 1506 628 1313L557 1126V-123H399V848Q335 762 213 631L76 723Q417 1033 575 1702L711 1636ZM1978 371L1862 250Q1683 383 1564 557T1339 1135H1335V412H1667V262H1335V-131H1180V262H856V412H1180V1055Q1063 570 666 250L553 365Q754 544 851 703T1024 1151H639V1300H1180V1698H1335V1300H1894V1151H1489Q1566 839 1669 683T1978 371Z" />
    <glyph unicode="&#x4e0b;" horiz-adv-x="2048" d="M1876 1425H1024V-121H862V1425H172V1581H1876V1425ZM1729 547L1614 426Q1438 667 1083 864L1178 969Q1480 846 1729 547Z" />
    <glyph unicode="&#x4e0d;" horiz-adv-x="2048" d="M1888 1419H1227Q1184 1347 1096 1221V-133H928V1022Q730 756 248 489L145 623Q458 774 655 952T1030 1419H176V1575H1888V1419ZM1901 588L1776 481Q1478 843 1151 985L1260 1094Q1590 945 1901 588Z" />
    <glyph unicode="&#x4f24;" horiz-adv-x="2048" d="M664 1640Q641 1521 618 1419T564 1223L500 1034V-135H344V758L342 762Q302 660 164 528L61 639Q270 849 385 1157T526 1686L664 1640ZM1882 1257H987Q852 877 643 694L532 805Q853 1091 920 1679L1057 1634Q1050 1529 1018 1407H1882V1257ZM1835 977Q1773 107 1713 -2T1537 -112Q1467 -112 1303 -88L1260 68L1501 31Q1534 26 1560 43T1618 308T1673 836H1313Q1266 189 877 -133L760 -16Q1125 226 1161 836H913V977H1176L1178 1208L1329 1176L1323 977H1835Z"/>
    <glyph unicode="&#x50b7;" horiz-adv-x="2048" d="M1835 1419H942Q917 1366 907 1350H1716V827H840V1255H836Q803 1200 659 1051L541 1157Q835 1427 887 1718L1032 1659Q1026 1612 995 1569H1835V1419ZM1563 1223H1001V1151H1561L1563 1223ZM1563 1030H1001V954H1561L1563 1030ZM688 1622Q656 1510 579 1335L502 1163V-137H346V922H342Q279 818 197 741L63 834Q409 1198 532 1706L688 1622ZM1952 598H1145Q1128 570 1075 514H1862Q1848 327 1809 177T1743 -16T1663 -84T1559 -102L1370 -78L1319 70Q1173 -48 997 -133L885 -27Q1292 164 1405 373H1262Q1092 151 723 10L594 121Q881 214 1059 373H905Q737 269 631 242L516 360Q847 463 961 598H623V748H1952V598ZM1694 373H1567Q1497 222 1327 76Q1504 35 1563 35Q1606 35 1643 146T1694 373Z" />
    <glyph unicode="&#x541e;" horiz-adv-x="2048" d="M1964 539L1839 406Q1594 550 1532 608V-137H1370V-4H717V-147H555V594Q464 520 233 387L109 516Q518 724 715 1012H207V1161H803Q851 1248 893 1434H360V1583H1718V1434H1053Q1027 1294 979 1161H1878V1012H1364Q1423 905 1601 758T1964 539ZM1454 666Q1291 811 1171 1012H907Q788 808 631 666H1454ZM1370 145V516H717V145H1370Z" />
    <glyph unicode="&#x6211;" horiz-adv-x="2048" d="M1911 301Q1877 -113 1739 -113Q1654 -113 1544 -8T1341 254Q1184 123 944 -4L807 111Q1108 255 1270 408Q1195 617 1155 922H760V627L1077 707V549L760 465V41Q760 -39 707 -81T531 -121T356 -121L299 39L551 33Q598 33 598 86V420L240 324L125 473Q364 519 598 580V922H178V1077H598V1372Q456 1326 262 1317L166 1470Q574 1467 967 1696L1069 1579Q839 1443 760 1411V1077H1141Q1127 1285 1127 1521Q1127 1608 1128 1704H1286Q1286 1323 1305 1077H1849V922H1319Q1341 730 1401 530Q1539 684 1630 866L1769 807Q1644 563 1462 375Q1478 334 1563 209T1681 83Q1725 83 1751 362L1911 301ZM1821 1272L1690 1159Q1597 1375 1337 1499L1468 1618Q1724 1472 1821 1272Z" />
    <glyph unicode="&#x73bb;" horiz-adv-x="2048" d="M1985 2L1882 -131Q1569 -32 1393 160Q1272 51 958 -129L848 12Q1127 128 1286 281Q1128 501 1079 768H1020V918H1264V1276H985V639Q985 236 795 -16L713 -125L571 -31Q681 84 745 210T820 455T832 856L829 1425H1264V1700H1419V1425H1898Q1839 1139 1800 1006L1645 1030Q1692 1195 1702 1276H1419V918H1757Q1729 528 1501 272Q1661 104 1985 2ZM1581 768H1223Q1271 579 1401 397Q1547 589 1581 768ZM791 383L213 209L131 346L412 424V891H221V1040H412V1395H166V1544H780V1395H567V1040H752V891H567V471L791 532V383Z" />
    <glyph unicode="&#x7483;" horiz-adv-x="2048" d="M1931 1389H729V1538H1217V1706H1382V1538H1931V1389ZM721 305L160 166L80 315L356 375V866H164V1016H356V1421H150V1571H696V1421H512V1016H680V866H512V412L721 467V305ZM1604 1010L1493 913Q1431 994 1335 1059Q1252 993 1063 911L977 1036Q1160 1101 1202 1139Q1092 1187 981 1217L1094 1323Q1220 1286 1319 1235Q1393 1299 1440 1378L1563 1290Q1507 1219 1444 1159Q1520 1111 1604 1010ZM1833 37Q1833 -40 1788 -84T1667 -129H1513L1466 27Q1554 18 1616 18Q1653 18 1665 27T1677 72V481H1303Q1260 346 1212 262Q1419 279 1430 281Q1415 317 1337 395L1470 438Q1591 302 1647 117L1509 59L1479 156L1010 98L938 244L1053 254L1147 481H907V-141H752V631H1184Q1195 661 1206 748H803V1321H958V897H1616V1305H1772V748H1358Q1348 685 1335 631H1833V37Z" />
    <glyph unicode="&#x79c1;" horiz-adv-x="2048" d="M1057 983H719V823L772 866Q919 763 1055 549L924 455Q845 611 719 711V-139H557V643Q419 407 197 207L82 322Q394 578 549 983H156V1133H561V1425Q337 1389 195 1382L137 1536Q637 1561 940 1706L1022 1571Q851 1486 719 1450V1133H1057V983ZM1964 4Q1883 -28 1802 -68Q1749 124 1747 125L899 51L842 221L995 233Q1234 839 1391 1667L1559 1608Q1404 860 1163 238L1692 274Q1567 524 1477 633L1618 692Q1834 456 1964 4Z" />
    <glyph unicode="&#x800c;" horiz-adv-x="2048" d="M1890 1423H1124Q1097 1222 1051 1120H1753V63Q1736 -23 1685 -64T1407 -94L1356 57L1493 55Q1597 52 1597 111V971H1321V61H1165V971H911V57H750V971H485V-139H324V1120H872Q934 1231 958 1423H182V1573H1890V1423Z" />
    <glyph unicode="&#x80fd;" horiz-adv-x="2048" d="M1094 1118L961 1034L899 1149L170 1110L129 1268L270 1272Q421 1490 526 1729L682 1661Q549 1402 451 1272L813 1286Q755 1374 686 1440L823 1516Q999 1352 1094 1118ZM1913 1176Q1864 809 1694 809H1319Q1216 820 1177 871T1137 963V1671H1292V1343Q1599 1430 1778 1571L1872 1454Q1670 1283 1292 1190V1016Q1301 958 1397 958H1667Q1738 958 1763 1233L1913 1176ZM979 80Q979 9 946 -33T865 -88T631 -98L573 59Q687 47 735 47Q823 47 823 102V295H395V-113H240V989H979V80ZM823 717V840H395V717H823ZM823 444V567H395V444H823ZM1964 256Q1926 43 1866 -23T1718 -90H1333Q1235 -90 1190 -30T1145 84V739H1300V455Q1584 520 1794 676L1901 561Q1654 372 1300 301V111Q1300 59 1370 59H1702Q1750 59 1774 116T1812 330L1964 256Z" />
    <glyph unicode="&#x8eab;" horiz-adv-x="2048" d="M1892 985Q1710 739 1526 567V47Q1526 -28 1470 -77T1341 -127H1106L1049 51L1309 41Q1364 50 1364 102V432Q1034 169 266 -63L152 72Q913 280 1274 543L344 426L254 584L510 610V1530L874 1534Q944 1601 1016 1747L1159 1671Q1091 1564 1063 1536H1526V778Q1750 1065 1767 1090L1892 985ZM1364 1253V1386H666V1253H1364ZM1364 961V1104H666V961H1364ZM1364 690V811H666V623L1364 690Z" />
    <glyph unicode="&#x98df;" horiz-adv-x="2048" d="M1960 1079L1851 938Q1688 1002 1556 1075V416H1100Q1223 296 1333 242Q1469 307 1550 397L1673 291Q1570 202 1466 162Q1658 65 1944 10L1829 -127Q1175 44 911 416H643V57L1075 106V-41L362 -137L299 27L489 43V1079Q361 1011 190 946L88 1090Q380 1182 630 1358T981 1735L1124 1673L1106 1634Q1367 1295 1960 1079ZM1534 1087Q1210 1268 1018 1501Q811 1255 502 1087H946V1274H1102V1087H1534ZM1399 825L1401 938H643V825H1399ZM1401 565V676H643V565H1401Z" />

    <!-- Upper latin -->
    <glyph unicode="C" horiz-adv-x="1479" d="M1399 465Q1335 218 1176 97T793 -25Q433 -25 269 200T104 743Q104 1094 297 1292T795 1491Q1009 1491 1161 1382T1374 1063L1184 1018Q1136 1171 1038 1248T793 1325Q553 1325 429 1168T305 745Q305 439 435 290T776 141Q948 141 1055 234T1206 514L1399 465Z" />
    <glyph unicode="G" horiz-adv-x="1593" d="M1462 205Q1185 -25 856 -25Q519 -25 313 180T106 727Q106 935 190 1114T439 1392T842 1491Q1089 1491 1238 1383T1440 1057L1266 1008Q1225 1166 1119 1245T842 1325Q577 1325 442 1163T307 739Q307 543 372 413T566 217T846 150Q1076 150 1274 301V573H842V748H1462V205Z" />
    <glyph unicode="H" horiz-adv-x="1479" d="M1315 0H1120V690H358V0H164V1466H358V864H1120V1466H1315V0Z" />
    <glyph unicode="J" horiz-adv-x="1024" d="M860 469Q860 200 752 88T449 -25Q252 -25 154 85T55 418L229 442Q231 296 286 223T449 150Q548 150 596 197T655 305T666 459V1466H860V469Z" />
    <glyph unicode="M" horiz-adv-x="1706" d="M1550 0H1366V1227H1362L940 0H766L346 1247H340V0H156V1466H446L793 428Q851 255 860 211H864Q891 296 942 446L1292 1466H1550V0Z" />
    <glyph unicode="P" horiz-adv-x="1366" d="M158 1466H711Q842 1466 936 1453T1112 1386T1234 1238T1276 1042Q1276 839 1146 717T727 594H352V0H158V1466ZM352 768H729Q1075 768 1075 1036Q1075 1124 1030 1191T920 1275T725 1292H352V768Z" />
    <glyph unicode="R" horiz-adv-x="1479" d="M1456 0H1212Q993 346 940 425T829 560T719 632T582 647H358V0H164V1466H813Q946 1466 1036 1449T1194 1378T1298 1240T1335 1065Q1335 899 1230 798T924 670V666Q1071 601 1200 399L1456 0ZM358 821H774Q900 821 973 842T1091 926T1135 1065Q1135 1165 1062 1235T821 1305H358V821Z" />
    <glyph unicode="T" horiz-adv-x="1251" d="M1206 1292H721V0H526V1292H45V1466H1206V1292Z" />
    <glyph unicode="Y" horiz-adv-x="1366" d="M1354 1466L770 621V0H575V621L10 1466H246L568 973Q617 898 684 776Q726 858 1128 1466H1354Z" />

    <!-- Lower latin -->
    <glyph unicode="a" horiz-adv-x="1139" d="M1057 0H868Q842 50 831 131Q650 -25 440 -25Q272 -25 175 59T78 281Q78 413 171 498T496 612L664 637Q758 652 819 674Q819 755 814 788T785 858T706 916T561 938Q445 938 378 895T285 735L109 758Q138 921 258 1003T588 1085Q779 1085 868 1029T978 892T999 686V444Q999 223 1007 148T1057 0ZM819 467V532Q678 485 474 458T270 285Q270 212 325 165T483 117Q616 117 717 196T819 467Z" />
    <glyph unicode="b" horiz-adv-x="1139" d="M322 942Q422 1085 608 1085Q813 1085 936 936T1059 547Q1059 270 922 123T600 -25Q413 -25 309 133H305V0H137V1466H317V942H322ZM586 123Q711 123 792 230T874 532Q874 719 799 828T592 938Q462 938 383 825T303 539Q303 370 336 299T435 175T586 123Z" />
    <glyph unicode="d" horiz-adv-x="1139" d="M995 0H827V135H823Q726 -25 530 -25Q335 -25 205 129T74 530Q74 787 197 936T522 1085Q712 1085 811 940H815V1466H995V0ZM549 123Q667 123 749 220T831 514Q831 708 756 823T541 938Q401 938 330 826T258 530Q258 398 296 307T404 169T549 123Z" />
    <glyph unicode="e" horiz-adv-x="1139" d="M1059 485H264Q275 309 364 216T588 123Q691 123 761 177T868 342L1053 319Q1008 153 888 64T588 -25Q349 -25 215 121T80 522Q80 773 210 929T578 1085Q694 1085 801 1034T984 861T1059 485ZM874 633Q863 795 774 866T578 938Q451 938 369 853T274 633H874Z" />
    <glyph unicode="g" horiz-adv-x="1139" d="M1006 143Q1006 -83 961 -194T801 -368T526 -430Q346 -430 226 -350T106 -88L281 -115Q291 -199 351 -241T524 -283Q664 -283 729 -226T808 -87T823 139Q706 0 528 0Q321 0 196 153T70 539Q70 773 192 929T530 1085Q718 1085 836 934H840V1061H1006V143ZM545 147Q660 147 749 238T838 545Q838 735 753 836T543 938Q415 938 335 834T254 549Q254 340 338 244T545 147Z" />
    <glyph unicode="h" horiz-adv-x="1139" d="M1004 0H823V670Q823 800 767 865T600 930Q490 930 404 854T317 580V0H137V1466H317V940Q445 1085 637 1085Q740 1085 834 1043T966 914T1004 672V0Z" />
    <glyph unicode="i" horiz-adv-x="455" d="M317 0H137V1061H317V0ZM317 1262H137V1466H317V1262Z" />
    <glyph unicode="j" horiz-adv-x="455" d="M317 -57Q317 -162 303 -237T231 -370T49 -428Q-22 -428 -92 -410L-57 -258Q-7 -272 27 -272Q85 -272 111 -233T137 -53V1061H317V-57ZM317 1262H137V1466H317V1262Z" />
    <glyph unicode="k" horiz-adv-x="1024" d="M1016 0H795L442 543L315 422V0H135V1466H315V631L741 1061H975L569 668L1016 0Z" />
    <glyph unicode="l" horiz-adv-x="455" d="M317 0H137V1466H317V0Z" />
    <glyph unicode="m" horiz-adv-x="1706" d="M1575 0H1395V670Q1395 744 1385 796T1334 889T1204 930Q1098 930 1021 856T944 616V0H764V690Q764 828 716 879T578 930Q462 930 388 850T313 551V0H133V1061H295V913H299Q407 1085 616 1085Q733 1085 808 1039T918 899Q1036 1085 1245 1085Q1410 1085 1492 996T1575 729V0Z" />
    <glyph unicode="n" horiz-adv-x="1139" d="M1004 0H823V645Q823 808 765 869T602 930Q522 930 451 891T349 781T319 580V0H139V1061H301V911H305Q362 998 445 1041T639 1085Q723 1085 805 1055T933 965T992 837T1004 653V0Z" />
    <glyph unicode="o" horiz-adv-x="1139" d="M569 1085Q784 1085 925 945T1067 547Q1067 234 914 105T569 -25Q368 -25 220 108T72 530Q72 810 215 947T569 1085ZM569 123Q723 123 803 237T883 537Q883 736 793 837T569 938Q432 938 344 836T256 530Q256 328 345 226T569 123Z" />
    <glyph unicode="p" horiz-adv-x="1139" d="M307 924Q408 1085 610 1085Q819 1085 940 934T1061 539Q1061 280 927 128T598 -25Q427 -25 324 111H319V-408H139V1061H303V924H307ZM586 123Q712 123 794 227T877 539Q877 734 798 839T594 944Q466 944 384 827T301 524Q301 327 380 225T586 123Z" />
    <glyph unicode="r" horiz-adv-x="682" d="M709 1028L647 862Q580 901 516 901Q415 901 363 811T311 557V0H131V1061H295V901H299Q385 1085 524 1085Q616 1085 709 1028Z" />
    <glyph unicode="s" horiz-adv-x="1024" d="M729 764Q717 851 659 894T496 938Q393 938 330 903T266 801Q266 738 316 711T516 645Q684 602 767 569T897 477T944 311Q944 169 828 72T518 -25Q316 -25 203 60T63 317L242 344Q256 233 324 178T516 123Q634 123 697 172T760 293Q760 341 731 370T659 413T463 465Q237 519 165 596T92 780Q92 913 198 999T483 1085Q673 1085 778 1011T905 788L729 764Z" />
    <glyph unicode="t" horiz-adv-x="569" d="M551 2Q471 -14 416 -14Q298 -14 244 27T178 133T166 311V922H35V1061H166V1325L346 1434V1061H526V922H346V301Q346 221 362 188T446 154Q485 154 526 162L551 2Z" />
    <glyph unicode="u" horiz-adv-x="1139" d="M997 0H836V156H831Q709 -25 498 -25Q387 -25 293 26T167 168T135 403V1061H315V473Q315 332 328 271T399 171T535 131Q637 131 727 201T817 494V1061H997V0Z" />
    <glyph unicode="w" horiz-adv-x="1479" d="M1468 1061L1135 0H948L780 637Q779 637 759 723T739 817H735L524 0H336L10 1061H197L428 221L464 364L653 1061H838L981 505Q1041 275 1047 244H1051L1292 1061H1468Z" />
    <glyph unicode="x" horiz-adv-x="1024" d="M1010 0H788L512 420L233 0H14L403 553L45 1061H268Q486 732 506 694L766 1061H981L614 563L1010 0Z" />
    <glyph unicode="z" horiz-adv-x="1024" d="M981 0H41V145L717 920Q598 913 514 913H80V1061H948V944L373 272Q356 251 285 174Q268 158 262 147Q365 156 489 156H981V0Z" />
</font>

<!-- FIXME: We don't support vertical SVG Fonts 100% correct so far, vert-adv-y is not taken into account. This is a hacked approxmiation to get somewhat correct vertical svg fonts -->
<font id="exoticVertical" vert-origin-y="141" horiz-adv-x="0">
    <font-face font-family="SVGExotic" units-per-em="2048" panose-1="2 11 6 4 2 2 2 2 2 4" ascent="2189" descent="-555" alphabetic="0" />
    <missing-glyph horiz-adv-x="2048" d="M256 0V1536H1792V0H256ZM384 128H1664V1408H384V128Z" />

    <!-- Punctuation -->    
    <glyph unicode=" " horiz-adv-x="569" />
    <glyph unicode=":" horiz-adv-x="569" d="M389 856H184V1061H389V856ZM389 0H184V205H389V0Z" />
    <glyph unicode="&quot;" horiz-adv-x="727" d="M641 1227L596 946H485L436 1227V1466H641V1227ZM289 1227L244 946H133L84 1227V1466H289V1227Z" />
    
    <!-- Chinese/Japanese -->
    <glyph unicode="&#x3002;" horiz-adv-x="2048" d="M469 481Q591 481 677 394T764 184Q764 62 678 -24T471 -111Q349 -111 263 -25T176 184Q176 307 262 394T469 481ZM470 14Q541 14 590 64T640 186Q640 257 590 306T470 356Q400 356 350 307T300 186Q300 115 349 65T470 14Z" />
    <glyph unicode="&#x3051;" horiz-adv-x="2048" d="M842 535Q732 342 655 -6H504Q421 150 377 392T332 827Q332 1188 434 1602L635 1554Q516 1152 516 827Q516 538 563 350H567Q599 464 668 610L842 535ZM1872 1042Q1713 1013 1581 999Q1583 940 1583 913Q1583 708 1564 546T1480 216T1290 -113L1102 10Q1229 127 1292 265T1376 566T1397 975Q1163 958 1063 958Q894 958 782 963L778 1163Q899 1141 1087 1141Q1226 1141 1393 1155Q1386 1335 1350 1546L1542 1565Q1566 1363 1573 1176Q1684 1187 1849 1225L1872 1042Z" />
    <glyph unicode="&#x3059;" horiz-adv-x="2048" d="M1815 1141H1354V799Q1397 664 1397 535Q1397 314 1281 142T944 -127L829 61Q990 105 1087 191T1198 385Q1110 309 985 309Q845 309 737 411T629 676Q629 842 730 950T991 1059Q1094 1059 1167 1008V1141H233V1325H1167V1583H1354V1325H1815V1141ZM977 500Q1057 500 1109 559T1161 698Q1161 767 1110 815T985 864Q913 864 866 811T819 680Q819 593 862 547T977 500Z" />
    <glyph unicode="&#x305b;" horiz-adv-x="2048" d="M1800 995L1475 969Q1475 759 1466 663T1428 515T1325 430T1167 395Q1141 395 1081 399L1044 602Q1128 580 1178 580Q1255 580 1271 639T1288 952L684 905Q684 523 699 376T795 188T1141 147Q1283 147 1679 180L1657 -27Q1437 -33 1143 -33Q787 -33 692 12T549 184T500 889L215 868L201 1055L494 1077Q494 1373 502 1556H705Q678 1311 678 1096L1288 1143V1212Q1286 1338 1268 1556H1454Q1475 1334 1475 1206V1157L1786 1180L1800 995Z" />
    <glyph unicode="&#x305d;" horiz-adv-x="2048" d="M1817 932Q1321 899 1128 757T934 446Q934 314 1088 221T1456 127L1380 -72Q1087 -27 913 108T739 428Q739 626 946 819L942 823Q464 762 250 729L209 928L665 982Q705 987 793 1053Q885 1121 946 1170Q1025 1232 1077 1280Q748 1285 471 1339L508 1538Q642 1502 845 1478T1427 1454V1288Q1234 1138 1010 1020L1014 1016L1786 1133L1817 932Z" />
    <glyph unicode="&#x3064;" horiz-adv-x="2048" d="M250 1165Q858 1321 1208 1321Q1418 1321 1532 1265T1712 1077T1778 788Q1778 475 1572 286T1004 96Q939 96 848 100L813 307Q926 285 1040 285Q1297 285 1445 430T1593 793Q1593 957 1496 1054T1180 1151Q1024 1151 836 1111T559 1042L330 975L250 1165Z" />
    <glyph unicode="&#x306f;" horiz-adv-x="2048" d="M1835 344L1714 162Q1593 249 1399 338Q1390 143 1298 41T1038 -61Q864 -61 756 29T647 258Q647 408 777 502T1087 596Q1170 596 1221 586V1020Q858 1020 651 1036L657 1231Q838 1202 1098 1202Q1145 1202 1221 1206V1585H1407V1219Q1519 1225 1733 1266V1067Q1601 1047 1407 1034V547Q1620 474 1835 344ZM1210 391Q1155 410 1090 410Q985 410 907 365T829 254Q829 193 889 158T1036 123Q1124 123 1163 183T1210 391ZM670 469Q570 224 512 -39H342Q227 240 227 651Q227 1065 340 1567L543 1511Q412 1134 412 649Q412 463 430 322H434Q476 453 510 528L670 469Z" />
    <glyph unicode="&#x3079;" horiz-adv-x="2048" d="M1827 1374L1686 1315Q1648 1485 1587 1589L1737 1651Q1793 1539 1827 1374ZM1599 1292L1458 1233Q1421 1403 1360 1507L1509 1569Q1566 1457 1599 1292ZM1862 287L1737 135Q1461 365 1249 593T834 1118Q820 1139 811 1139Q802 1139 722 1055Q457 776 317 666L176 823Q501 1061 745 1356H901Q1117 1028 1331 788T1862 287Z" />
    <glyph unicode="&#x307e;" horiz-adv-x="2048" d="M1827 254L1702 80Q1364 327 1126 383Q1126 197 1023 74T731 -49Q560 -49 446 47T332 276Q332 426 467 520T805 614Q881 614 938 606V811Q612 811 295 831V1016Q601 995 938 995V1194Q563 1194 258 1163V1348Q563 1378 938 1378V1632H1118V1378Q1484 1378 1767 1348V1163Q1492 1194 1118 1194V995Q1438 995 1739 1016V831Q1440 811 1118 811V584Q1478 499 1827 254ZM936 422Q864 426 817 426Q693 426 613 387T532 276Q532 220 587 182T727 143Q834 143 885 197T936 422Z" />
    <glyph unicode="&#x3089;" horiz-adv-x="2048" d="M1499 1319L1403 1153Q1198 1309 815 1425L913 1597Q1266 1469 1499 1319ZM551 778Q821 891 1092 891Q1341 891 1507 772T1673 446Q1673 234 1516 100T1104 -35Q843 -35 463 55L479 274Q764 187 880 167T1083 147Q1489 147 1489 455Q1489 574 1373 641T1083 709Q799 709 446 520L295 643Q464 1074 616 1327L793 1237Q688 1107 551 778Z" />
    <glyph unicode="&#x308c;" horiz-adv-x="2048" d="M1866 172Q1735 84 1614 84Q1495 84 1430 162T1364 377Q1364 463 1406 666Q1450 874 1450 965Q1450 1034 1419 1073T1333 1112Q1152 1112 805 745V-59H625V543Q517 420 369 190L215 307Q359 533 625 834V958H276V1143H625V1585H805V1145Q834 1138 852 1125T870 1100Q870 1083 850 1040L854 1036Q970 1148 1103 1222T1331 1296Q1460 1296 1545 1202T1630 963Q1630 867 1583 661Q1540 474 1540 395Q1540 270 1612 270Q1686 270 1866 385V172Z" />
    <glyph unicode="&#x3092;" horiz-adv-x="2048" d="M1747 -25Q1475 -49 1245 -49Q880 -49 748 36T616 285Q616 422 743 556T1104 803Q1072 913 918 913Q854 913 785 891T674 834Q508 600 397 481L236 610Q309 668 369 736T477 873T572 1026L666 1194Q643 1192 584 1192Q493 1192 328 1200V1399Q473 1380 614 1380Q668 1380 760 1384Q820 1494 858 1649L1053 1593Q998 1451 971 1397Q1296 1411 1579 1462L1591 1272Q1328 1240 881 1210Q831 1102 795 1047Q906 1075 971 1075Q1087 1075 1176 1018T1286 885Q1377 928 1671 1044L1745 856Q1466 753 1305 686V309H1112V596Q973 532 887 446T801 274Q801 203 881 172T1184 141Q1409 141 1729 184L1747 -25Z" />
    <glyph unicode="&#x3093;" horiz-adv-x="2048" d="M1855 369Q1657 125 1543 55T1319 -16Q1199 -16 1126 71T1053 295Q1053 402 1090 557Q1112 649 1112 692Q1112 784 1024 784Q954 784 851 730T667 586T503 328L352 25L184 102L946 1593L1118 1509L788 889L793 885Q899 969 1028 969Q1149 969 1226 895T1303 705Q1303 630 1273 490Q1245 355 1245 285Q1245 234 1269 203T1335 172Q1483 172 1702 502L1855 369Z" />
    <glyph unicode="&#x30ac;" horiz-adv-x="2048" d="M1819 1425L1677 1366Q1640 1536 1579 1640L1729 1702Q1785 1590 1819 1425ZM1757 1245L1751 852Q1748 653 1731 487T1671 187T1577 0T1464 -68T1319 -84Q1262 -84 1133 -82L1081 117Q1257 102 1356 102Q1458 102 1517 323T1577 862L1575 1067H1067Q1006 626 822 355T311 -84L180 70Q522 246 675 462T883 1061H213V1245H897V1626H1081V1245H1757ZM1591 1343L1450 1284Q1412 1454 1352 1559L1501 1620Q1558 1508 1591 1343Z" />
    <glyph unicode="&#x30b9;" horiz-adv-x="2048" d="M1950 45L1790 -72Q1494 332 1098 575Q777 173 311 -106L168 41Q555 244 849 572T1309 1313H283V1489L1483 1491L1538 1434Q1426 1041 1206 723Q1633 451 1950 45Z" />
    <glyph unicode="&#x30e9;" horiz-adv-x="2048" d="M1679 1348H332V1532H1679V1348ZM1788 967Q1788 930 1698 779T1525 526T1344 334T1130 161T883 11T604 -117L492 59Q1293 324 1579 954H213V1139H1788V967Z" />
    <glyph unicode="&#x4f53;" horiz-adv-x="2048" d="M711 1636Q698 1506 628 1313L557 1126V-123H399V848Q335 762 213 631L76 723Q417 1033 575 1702L711 1636ZM1978 371L1862 250Q1683 383 1564 557T1339 1135H1335V412H1667V262H1335V-131H1180V262H856V412H1180V1055Q1063 570 666 250L553 365Q754 544 851 703T1024 1151H639V1300H1180V1698H1335V1300H1894V1151H1489Q1566 839 1669 683T1978 371Z" />
    <glyph unicode="&#x4e0b;" horiz-adv-x="2048" d="M1876 1425H1024V-121H862V1425H172V1581H1876V1425ZM1729 547L1614 426Q1438 667 1083 864L1178 969Q1480 846 1729 547Z" />
    <glyph unicode="&#x4e0d;" horiz-adv-x="2048" d="M1888 1419H1227Q1184 1347 1096 1221V-133H928V1022Q730 756 248 489L145 623Q458 774 655 952T1030 1419H176V1575H1888V1419ZM1901 588L1776 481Q1478 843 1151 985L1260 1094Q1590 945 1901 588Z" />
    <glyph unicode="&#x4f24;" horiz-adv-x="2048" d="M664 1640Q641 1521 618 1419T564 1223L500 1034V-135H344V758L342 762Q302 660 164 528L61 639Q270 849 385 1157T526 1686L664 1640ZM1882 1257H987Q852 877 643 694L532 805Q853 1091 920 1679L1057 1634Q1050 1529 1018 1407H1882V1257ZM1835 977Q1773 107 1713 -2T1537 -112Q1467 -112 1303 -88L1260 68L1501 31Q1534 26 1560 43T1618 308T1673 836H1313Q1266 189 877 -133L760 -16Q1125 226 1161 836H913V977H1176L1178 1208L1329 1176L1323 977H1835Z"/>
    <glyph unicode="&#x50b7;" horiz-adv-x="2048" d="M1835 1419H942Q917 1366 907 1350H1716V827H840V1255H836Q803 1200 659 1051L541 1157Q835 1427 887 1718L1032 1659Q1026 1612 995 1569H1835V1419ZM1563 1223H1001V1151H1561L1563 1223ZM1563 1030H1001V954H1561L1563 1030ZM688 1622Q656 1510 579 1335L502 1163V-137H346V922H342Q279 818 197 741L63 834Q409 1198 532 1706L688 1622ZM1952 598H1145Q1128 570 1075 514H1862Q1848 327 1809 177T1743 -16T1663 -84T1559 -102L1370 -78L1319 70Q1173 -48 997 -133L885 -27Q1292 164 1405 373H1262Q1092 151 723 10L594 121Q881 214 1059 373H905Q737 269 631 242L516 360Q847 463 961 598H623V748H1952V598ZM1694 373H1567Q1497 222 1327 76Q1504 35 1563 35Q1606 35 1643 146T1694 373Z" />
    <glyph unicode="&#x541e;" horiz-adv-x="2048" d="M1964 539L1839 406Q1594 550 1532 608V-137H1370V-4H717V-147H555V594Q464 520 233 387L109 516Q518 724 715 1012H207V1161H803Q851 1248 893 1434H360V1583H1718V1434H1053Q1027 1294 979 1161H1878V1012H1364Q1423 905 1601 758T1964 539ZM1454 666Q1291 811 1171 1012H907Q788 808 631 666H1454ZM1370 145V516H717V145H1370Z" />
    <glyph unicode="&#x6211;" horiz-adv-x="2048" d="M1911 301Q1877 -113 1739 -113Q1654 -113 1544 -8T1341 254Q1184 123 944 -4L807 111Q1108 255 1270 408Q1195 617 1155 922H760V627L1077 707V549L760 465V41Q760 -39 707 -81T531 -121T356 -121L299 39L551 33Q598 33 598 86V420L240 324L125 473Q364 519 598 580V922H178V1077H598V1372Q456 1326 262 1317L166 1470Q574 1467 967 1696L1069 1579Q839 1443 760 1411V1077H1141Q1127 1285 1127 1521Q1127 1608 1128 1704H1286Q1286 1323 1305 1077H1849V922H1319Q1341 730 1401 530Q1539 684 1630 866L1769 807Q1644 563 1462 375Q1478 334 1563 209T1681 83Q1725 83 1751 362L1911 301ZM1821 1272L1690 1159Q1597 1375 1337 1499L1468 1618Q1724 1472 1821 1272Z" />
    <glyph unicode="&#x73bb;" horiz-adv-x="2048" d="M1985 2L1882 -131Q1569 -32 1393 160Q1272 51 958 -129L848 12Q1127 128 1286 281Q1128 501 1079 768H1020V918H1264V1276H985V639Q985 236 795 -16L713 -125L571 -31Q681 84 745 210T820 455T832 856L829 1425H1264V1700H1419V1425H1898Q1839 1139 1800 1006L1645 1030Q1692 1195 1702 1276H1419V918H1757Q1729 528 1501 272Q1661 104 1985 2ZM1581 768H1223Q1271 579 1401 397Q1547 589 1581 768ZM791 383L213 209L131 346L412 424V891H221V1040H412V1395H166V1544H780V1395H567V1040H752V891H567V471L791 532V383Z" />
    <glyph unicode="&#x7483;" horiz-adv-x="2048" d="M1931 1389H729V1538H1217V1706H1382V1538H1931V1389ZM721 305L160 166L80 315L356 375V866H164V1016H356V1421H150V1571H696V1421H512V1016H680V866H512V412L721 467V305ZM1604 1010L1493 913Q1431 994 1335 1059Q1252 993 1063 911L977 1036Q1160 1101 1202 1139Q1092 1187 981 1217L1094 1323Q1220 1286 1319 1235Q1393 1299 1440 1378L1563 1290Q1507 1219 1444 1159Q1520 1111 1604 1010ZM1833 37Q1833 -40 1788 -84T1667 -129H1513L1466 27Q1554 18 1616 18Q1653 18 1665 27T1677 72V481H1303Q1260 346 1212 262Q1419 279 1430 281Q1415 317 1337 395L1470 438Q1591 302 1647 117L1509 59L1479 156L1010 98L938 244L1053 254L1147 481H907V-141H752V631H1184Q1195 661 1206 748H803V1321H958V897H1616V1305H1772V748H1358Q1348 685 1335 631H1833V37Z" />
    <glyph unicode="&#x79c1;" horiz-adv-x="2048" d="M1057 983H719V823L772 866Q919 763 1055 549L924 455Q845 611 719 711V-139H557V643Q419 407 197 207L82 322Q394 578 549 983H156V1133H561V1425Q337 1389 195 1382L137 1536Q637 1561 940 1706L1022 1571Q851 1486 719 1450V1133H1057V983ZM1964 4Q1883 -28 1802 -68Q1749 124 1747 125L899 51L842 221L995 233Q1234 839 1391 1667L1559 1608Q1404 860 1163 238L1692 274Q1567 524 1477 633L1618 692Q1834 456 1964 4Z" />
    <glyph unicode="&#x800c;" horiz-adv-x="2048" d="M1890 1423H1124Q1097 1222 1051 1120H1753V63Q1736 -23 1685 -64T1407 -94L1356 57L1493 55Q1597 52 1597 111V971H1321V61H1165V971H911V57H750V971H485V-139H324V1120H872Q934 1231 958 1423H182V1573H1890V1423Z" />
    <glyph unicode="&#x80fd;" horiz-adv-x="2048" d="M1094 1118L961 1034L899 1149L170 1110L129 1268L270 1272Q421 1490 526 1729L682 1661Q549 1402 451 1272L813 1286Q755 1374 686 1440L823 1516Q999 1352 1094 1118ZM1913 1176Q1864 809 1694 809H1319Q1216 820 1177 871T1137 963V1671H1292V1343Q1599 1430 1778 1571L1872 1454Q1670 1283 1292 1190V1016Q1301 958 1397 958H1667Q1738 958 1763 1233L1913 1176ZM979 80Q979 9 946 -33T865 -88T631 -98L573 59Q687 47 735 47Q823 47 823 102V295H395V-113H240V989H979V80ZM823 717V840H395V717H823ZM823 444V567H395V444H823ZM1964 256Q1926 43 1866 -23T1718 -90H1333Q1235 -90 1190 -30T1145 84V739H1300V455Q1584 520 1794 676L1901 561Q1654 372 1300 301V111Q1300 59 1370 59H1702Q1750 59 1774 116T1812 330L1964 256Z" />
    <glyph unicode="&#x8eab;" horiz-adv-x="2048" d="M1892 985Q1710 739 1526 567V47Q1526 -28 1470 -77T1341 -127H1106L1049 51L1309 41Q1364 50 1364 102V432Q1034 169 266 -63L152 72Q913 280 1274 543L344 426L254 584L510 610V1530L874 1534Q944 1601 1016 1747L1159 1671Q1091 1564 1063 1536H1526V778Q1750 1065 1767 1090L1892 985ZM1364 1253V1386H666V1253H1364ZM1364 961V1104H666V961H1364ZM1364 690V811H666V623L1364 690Z" />
    <glyph unicode="&#x98df;" horiz-adv-x="2048" d="M1960 1079L1851 938Q1688 1002 1556 1075V416H1100Q1223 296 1333 242Q1469 307 1550 397L1673 291Q1570 202 1466 162Q1658 65 1944 10L1829 -127Q1175 44 911 416H643V57L1075 106V-41L362 -137L299 27L489 43V1079Q361 1011 190 946L88 1090Q380 1182 630 1358T981 1735L1124 1673L1106 1634Q1367 1295 1960 1079ZM1534 1087Q1210 1268 1018 1501Q811 1255 502 1087H946V1274H1102V1087H1534ZM1399 825L1401 938H643V825H1399ZM1401 565V676H643V565H1401Z" />

    <!-- Upper latin -->
    <glyph unicode="C" horiz-adv-x="1479" d="M1399 465Q1335 218 1176 97T793 -25Q433 -25 269 200T104 743Q104 1094 297 1292T795 1491Q1009 1491 1161 1382T1374 1063L1184 1018Q1136 1171 1038 1248T793 1325Q553 1325 429 1168T305 745Q305 439 435 290T776 141Q948 141 1055 234T1206 514L1399 465Z" />
    <glyph unicode="J" horiz-adv-x="1024" d="M860 469Q860 200 752 88T449 -25Q252 -25 154 85T55 418L229 442Q231 296 286 223T449 150Q548 150 596 197T655 305T666 459V1466H860V469Z" />
    <glyph unicode="T" horiz-adv-x="1251" d="M1206 1292H721V0H526V1292H45V1466H1206V1292Z" />

    <!-- Lower latin -->
    <glyph unicode="a" horiz-adv-x="1139" d="M1057 0H868Q842 50 831 131Q650 -25 440 -25Q272 -25 175 59T78 281Q78 413 171 498T496 612L664 637Q758 652 819 674Q819 755 814 788T785 858T706 916T561 938Q445 938 378 895T285 735L109 758Q138 921 258 1003T588 1085Q779 1085 868 1029T978 892T999 686V444Q999 223 1007 148T1057 0ZM819 467V532Q678 485 474 458T270 285Q270 212 325 165T483 117Q616 117 717 196T819 467Z" />
    <glyph unicode="e" horiz-adv-x="1139" d="M1059 485H264Q275 309 364 216T588 123Q691 123 761 177T868 342L1053 319Q1008 153 888 64T588 -25Q349 -25 215 121T80 522Q80 773 210 929T578 1085Q694 1085 801 1034T984 861T1059 485ZM874 633Q863 795 774 866T578 938Q451 938 369 853T274 633H874Z" />
    <glyph unicode="h" horiz-adv-x="1139" d="M1004 0H823V670Q823 800 767 865T600 930Q490 930 404 854T317 580V0H137V1466H317V940Q445 1085 637 1085Q740 1085 834 1043T966 914T1004 672V0Z" />
    <glyph unicode="i" horiz-adv-x="455" d="M317 0H137V1061H317V0ZM317 1262H137V1466H317V1262Z" />
    <glyph unicode="n" horiz-adv-x="1139" d="M1004 0H823V645Q823 808 765 869T602 930Q522 930 451 891T349 781T319 580V0H139V1061H301V911H305Q362 998 445 1041T639 1085Q723 1085 805 1055T933 965T992 837T1004 653V0Z" />
    <glyph unicode="p" horiz-adv-x="1139" d="M307 924Q408 1085 610 1085Q819 1085 940 934T1061 539Q1061 280 927 128T598 -25Q427 -25 324 111H319V-408H139V1061H303V924H307ZM586 123Q712 123 794 227T877 539Q877 734 798 839T594 944Q466 944 384 827T301 524Q301 327 380 225T586 123Z" />
    <glyph unicode="s" horiz-adv-x="1024" d="M729 764Q717 851 659 894T496 938Q393 938 330 903T266 801Q266 738 316 711T516 645Q684 602 767 569T897 477T944 311Q944 169 828 72T518 -25Q316 -25 203 60T63 317L242 344Q256 233 324 178T516 123Q634 123 697 172T760 293Q760 341 731 370T659 413T463 465Q237 519 165 596T92 780Q92 913 198 999T483 1085Q673 1085 778 1011T905 788L729 764Z" />
    <glyph unicode="t" horiz-adv-x="569" d="M551 2Q471 -14 416 -14Q298 -14 244 27T178 133T166 311V922H35V1061H166V1325L346 1434V1061H526V922H346V301Q346 221 362 188T446 154Q485 154 526 162L551 2Z" />
    <glyph unicode="x" horiz-adv-x="1024" d="M1010 0H788L512 420L233 0H14L403 553L45 1061H268Q486 732 506 694L766 1061H981L614 563L1010 0Z" />
</font>
</defs>
</svg>
