<?xml version="1.0" encoding="utf-8"?>
<!-- Copyright © 2018 Apple Inc. All rights reserved. -->
<svg xmlns="http://www.w3.org/2000/svg" id="root" version="1.1" viewBox="0 0 16 16">
    <path fill="rgb(202, 202, 202)" stroke="rgb(153, 153, 153)" stroke-width="0.5" stroke-miterlimit="10" d="M 7.3 14.7 l -6 -6 c -0.4 -0.4 -0.4 -1.1 0 -1.5 l 6 -6 c 0.4 -0.4 1.1 -0.4 1.5 0 l 6 6 c 0.4 0.4 0.4 1.1 0 1.5 l -6 6 c -0.5 0.4 -1.1 0.4 -1.5 0 z"/>
    <path fill="white" d="M 4.5 9.2 c -0.4 0 -0.7 -0.3 -0.7 -0.7 v -1 c 0 -0.4 0.3 -0.7 0.7 -0.7 h 7 c 0.4 0 0.7 0.3 0.7 0.7 v 1 c 0 0.4 -0.3 0.7 -0.7 0.7 h -7 z"/>
    <path fill="rgb(153, 153, 153)" d="M 11.5 7 c 0.3 0 0.5 0.2 0.5 0.5 v 1 c 0 0.3 -0.2 0.5 -0.5 0.5 h -7 c -0.3 0 -0.5 -0.2 -0.5 -0.5 v -1 c 0 -0.3 0.2 -0.5 0.5 -0.5 h 7 m 0 -0.3 h -7 c -0.5 0 -0.8 0.3 -0.8 0.8 v 1 c 0 0.5 0.3 0.8 0.8 0.8 h 7 c 0.5 0 0.8 -0.4 0.8 -0.8 v -1 c 0 -0.5 -0.3 -0.8 -0.8 -0.8 z"/>
</svg>
