<?xml version="1.0" encoding="utf-8"?>
<!-- Copyright © 2015 Apple Inc. All rights reserved. -->
<svg xmlns="http://www.w3.org/2000/svg" id="root" version="1.1" viewBox="0 0 16 16">
    <rect fill="none" stroke="currentColor" x="0.5" y="1.5" width="3.5" height="12"/>
    <polygon fill="currentColor" opacity="0.7" points="0.5 3.5 0.5 5.5 4 3.5 4 1.5"/>
    <polygon fill="currentColor" opacity="0.7" points="0.5 7.5 0.5 9.5 4 7.5 4 5.5"/>
    <polygon fill="currentColor" opacity="0.7" points="0.5 11.5 0.5 13.5 4 11.5 4 9.5"/>
    <rect fill="none" stroke="currentColor" x="12" y="1.5" width="3.5" height="12"/>
    <polygon fill="currentColor" opacity="0.7" points="12 3.5 12 5.5 15.5 3.5 15.5 1.5"/>
    <polygon fill="currentColor" opacity="0.7" points="12 7.5 12 9.5 15.5 7.5 15.5 5.5"/>
    <polygon fill="currentColor" opacity="0.7" points="12 11.5 12 13.5 15.5 11.5 15.5 9.5"/>
    <rect fill="none" stroke="currentColor" x="5.5" y="5" width="5" height="5"/>
</svg>
