<?xml version="1.0" encoding="utf-8"?>
<!-- Copyright © 2020 Apple Inc. All rights reserved. -->
<svg xmlns="http://www.w3.org/2000/svg" version="1.1" width="100%" height="100%">
    <defs>
        <style>
            g:not(:target) {
                display: none;
            }

            .light {
                color: black;
                --paper: hsl(0, 0%, 85%);
                --corner: hsl(0, 0%, 90%);
                --css-color: hsl(2, 84%, 33%);
                --js-color: hsl(265, 61%, 51%);
            }

            .dark {
                color: white;
                --paper: hsl(0, 0%, 31%);
                --corner: hsl(0, 0%, 26%);
                --css-color: hsl(360, 100%, 70%);
                --js-color: hsl(255, 100%, 80%);
            }
        </style>
    </defs>

    <symbol id="clip" stroke="currentColor" stroke-width="1" viewBox="0 0 32 32">
        <path fill="var(--paper)" d="M 29.004 2.996 L 29.004 18.66 C 29.004 19.167 28.811 19.655 28.464 20.026 L 20.659 28.37 C 20.281 28.774 19.752 29.004 19.199 29.004 L 2.996 29.004 L 2.996 2.996 L 29.004 2.996 Z"/>
        <path fill="var(--corner)" d="M 29.004 15.62 C 29.004 18.615 29.004 18.99 26.595 18.99 L 21.009 18.99 L 21.009 26.536 C 21.009 28.901 19.364 29.004 16.942 29.004 L 2.996 29.004 L 2.996 2.996 L 29.004 2.996 L 29.004 15.62 Z"/>
    </symbol>

    <symbol id="css" fill="var(--css-color)" stroke="none" viewBox="0 0 32 32">
        <path d="M 7.73389452 13.2752979 C 8.67041119 13.2752979 9.25494845 12.5870995 9.27380449 11.4753943 L 11.0839844 11.4753943 C 11.0839844 13.639249 9.80177362 14.9627075 7.74017986 14.9627075 C 5.49631105 14.9627075 4.17638821 13.4870513 4.17638821 10.9724801 L 4.17638821 9.02037879 C 4.17638821 6.50580761 5.49631105 5.03015137 7.74017986 5.03015137 C 9.82691501 5.03015137 11.0651283 6.34699259 11.077699 8.60348936 L 9.26751914 8.60348936 C 9.2486631 7.45869774 8.63269911 6.71756097 7.70875313 6.71756097 C 6.60881743 6.71756097 6.03056553 7.51163608 6.03056553 9.02037879 L 6.03056553 10.9724801 C 6.03056553 12.4878401 6.60881743 13.2752979 7.73389452 13.2752979 Z M 12.05 12.0974198 L 13.759359 12.0974198 C 13.8422756 12.9245814 14.4928526 13.4010265 15.5388782 13.4010265 C 16.5338782 13.4010265 17.1653205 12.9047295 17.1653205 12.1305063 C 17.1653205 11.4820116 16.7571154 11.1379124 15.6919551 10.8930726 L 14.7352244 10.6614673 C 13.0705128 10.2710471 12.2541026 9.35786071 12.2541026 7.9417601 C 12.2541026 6.1617084 13.5233654 5.03015137 15.5133654 5.03015137 C 17.4395833 5.03015137 18.734359 6.14847381 18.7917628 7.8557353 L 17.0824039 7.8557353 C 17.0122436 7.06827748 16.4318269 6.58521512 15.5325 6.58521512 C 14.6204167 6.58521512 14.0527564 7.02857372 14.0527564 7.74324132 C 14.0527564 8.41820516 14.4609615 8.78877355 15.4559615 9.0137615 L 16.3999359 9.23874944 C 18.1794551 9.64902158 18.9575962 10.4761832 18.9575962 11.9386048 C 18.9575962 13.8245332 17.6564423 14.9627075 15.5069872 14.9627075 C 13.4213141 14.9627075 12.1137821 13.8840888 12.05 12.0974198 Z M 19.9236118 12.0974198 L 21.6329708 12.0974198 C 21.7158874 12.9245814 22.3664644 13.4010265 23.41249 13.4010265 C 24.40749 13.4010265 25.0389323 12.9047295 25.0389323 12.1305063 C 25.0389323 11.4820116 24.6307272 11.1379124 23.5655669 10.8930726 L 22.6088362 10.6614673 C 20.9441246 10.2710471 20.1277144 9.35786071 20.1277144 7.9417601 C 20.1277144 6.1617084 21.3969772 5.03015137 23.3869772 5.03015137 C 25.3131951 5.03015137 26.6079708 6.14847381 26.6653746 7.8557353 L 24.9560156 7.8557353 C 24.8858554 7.06827748 24.3054387 6.58521512 23.4061118 6.58521512 C 22.4940285 6.58521512 21.9263682 7.02857372 21.9263682 7.74324132 C 21.9263682 8.41820516 22.3345733 8.78877355 23.3295733 9.0137615 L 24.2735477 9.23874944 C 26.0530669 9.64902158 26.831208 10.4761832 26.831208 11.9386048 C 26.831208 13.8245332 25.5300541 14.9627075 23.380599 14.9627075 C 21.2949259 14.9627075 19.9873938 13.8840888 19.9236118 12.0974198 Z"/>
    </symbol>

    <symbol id="js" fill="var(--js-color)" stroke="none" viewBox="0 0 32 32">
        <path d="M 11.4147542 16 C 9.40498859 16 8.10616046 14.7763672 8.09932452 12.8759766 L 9.9723714 12.8759766 C 9.99287921 13.703125 10.560262 14.2431641 11.3874105 14.2431641 C 12.2897542 14.2431641 12.7819417 13.6962891 12.7819417 12.6914062 L 12.7819417 7.60546875 L 9.24092609 7.60546875 L 9.24092609 5.9375 L 14.7301839 5.9375 L 14.7301839 12.71875 C 14.7301839 14.7900391 13.4997151 16 11.4147542 16 Z M 15.5049235 13.0400391 L 17.3369548 13.0400391 C 17.425822 13.8945312 18.1230876 14.3867188 19.2441813 14.3867188 C 20.3105876 14.3867188 20.9873454 13.8740234 20.9873454 13.0742188 C 20.9873454 12.4042969 20.5498454 12.0488281 19.4082438 11.7958984 L 18.3828532 11.5566406 C 16.5986735 11.1533203 15.7236735 10.2099609 15.7236735 8.74707031 C 15.7236735 6.90820312 17.0840251 5.73925781 19.2168376 5.73925781 C 21.2812907 5.73925781 22.668986 6.89453125 22.7305095 8.65820312 L 20.8984782 8.65820312 C 20.8232829 7.84472656 20.2012126 7.34570312 19.2373454 7.34570312 C 18.2598063 7.34570312 17.6514079 7.80371094 17.6514079 8.54199219 C 17.6514079 9.23925781 18.0889079 9.62207031 19.1553141 9.85449219 L 20.1670329 10.0869141 C 22.0742595 10.5107422 22.9082438 11.3652344 22.9082438 12.8759766 C 22.9082438 14.8242188 21.5137126 16 19.2100016 16 C 16.9746501 16 15.5732829 14.8857422 15.5049235 13.0400391 Z"/>
    </symbol>

    <symbol id="range" fill="currentColor" stroke="none" viewBox="0 0 32 32">
        <path fill="currentColor" d="M 11.6445312 11.8374352 C 11.6445312 14.3341805 10.5699641 15.8222656 8.79101559 15.8222656 C 7.01206711 15.8222656 5.93749997 14.3341805 5.93749997 11.8374352 L 5.93749997 10.4614234 C 5.93749997 7.96467813 7.01206711 6.47659302 8.79101559 6.47659302 C 10.5699641 6.47659302 11.6445312 7.96467813 11.6445312 10.4614234 L 11.6445312 11.8374352 Z M 17.7869873 21.5620293 C 17.7869873 24.0587746 16.7124202 25.5468597 14.9334717 25.5468597 C 13.1545232 25.5468597 12.0799561 24.0587746 12.0799561 21.5620293 L 12.0799561 20.1860176 C 12.0799561 17.6892722 13.1545232 16.2011871 14.9334717 16.2011871 C 16.7124202 16.2011871 17.7869873 17.6892722 17.7869873 20.1860176 L 17.7869873 21.5620293 Z M 8.79101559 14.2532386 C 9.6856313 14.2532386 10.1586465 13.4375937 10.1586465 11.8187563 L 10.1586465 10.4801023 C 10.1586465 8.86126498 9.6856313 8.04562 8.79101559 8.04562 C 7.89639988 8.04562 7.42338468 8.86126498 7.42338468 10.4801023 L 7.42338468 11.8187563 C 7.42338468 13.4375937 7.89639988 14.2532386 8.79101559 14.2532386 Z M 14.9334717 23.9778328 C 15.8280874 23.9778328 16.3011026 23.1621878 16.3011026 21.5433504 L 16.3011026 20.2046965 C 16.3011026 18.5858591 15.8280874 17.7702141 14.9334717 17.7702141 C 14.038856 17.7702141 13.5658408 18.5858591 13.5658408 20.2046965 L 13.5658408 21.5433504 C 13.5658408 23.1621878 14.038856 23.9778328 14.9334717 23.9778328 Z M 17.7869873 15.3769684 L 12.2030029 15.3769684 L 12.2030029 14.0996246 L 14.2537842 14.0996246 L 14.2537842 7.73048401 L 12.3084717 7.73048401 L 12.3084717 6.45314026 L 15.8592529 6.45314026 L 15.8592529 14.0996246 L 17.7869873 14.0996246 L 17.7869873 15.3769684 Z M 11.6445312 25.3769379 L 6.06054684 25.3769379 L 6.06054684 24.0995941 L 8.11132809 24.0995941 L 8.11132809 17.7304535 L 6.16601559 17.7304535 L 6.16601559 16.4531097 L 9.71679684 16.4531097 L 9.71679684 24.0995941 L 11.6445312 24.0995941 L 11.6445312 25.3769379 Z"/>
    </symbol>

    <g id="generic-light" class="light"><use href="#clip"/></g>
    <g id="generic-dark" class="dark"><use href="#clip"/></g>
    <g id="css-light" class="light"><use href="#clip"/><use href="#css"/></g>
    <g id="css-dark" class="dark"><use href="#clip"/><use href="#css"/></g>
    <g id="js-light" class="light"><use href="#clip"/><use href="#js"/></g>
    <g id="js-dark" class="dark"><use href="#clip"/><use href="#js"/></g>
    <g id="range-light" class="light"><use href="#clip"/><use href="#range"/></g>
    <g id="range-dark" class="dark"><use href="#clip"/><use href="#range"/></g>
</svg>