<?xml version="1.0" encoding="utf-8"?>
<!-- Copyright © 2020 Apple Inc. All rights reserved. -->
<svg version="1.1" xmlns="http://www.w3.org/2000/svg">
    <defs>
        <style>
            g:not(:target) {
                display: none;
            }

            #light {
                --fill: black;
                --shading: black;
                --highlight: white;
            }

            #dark {
                --fill: white;
                --shading: black;
                --highlight: white;
            }
        </style>
    </defs>

    <symbol id="i" stroke="none" stroke-width="1" fill="none" viewBox="0 0 32 32">
        <path id="backfill" fill="var(--fill)" fill-opacity="0.3" d="M 3.358 18.536 L 3.358 13.464 C 3.358 12.851 3.844 12.252 4.786 11.712 C 3.844 11.171 3.358 10.566 3.358 9.953 L 3.358 4.881 C 3.358 2.886 9.017 1.0 16.0 1.0 C 22.983 1.0 28.642 2.886 28.642 4.881 L 28.642 9.953 C 28.642 10.566 28.155 11.171 27.214 11.712 C 28.155 12.252 28.642 12.851 28.642 13.464 L 28.642 18.536 C 28.642 19.149 28.155 19.751 27.214 20.292 C 28.155 20.832 28.642 21.434 28.642 22.047 L 28.642 27.119 C 28.642 29.114 22.983 31.0 16.0 31.0 C 9.017 31.0 3.358 29.114 3.358 27.119 L 3.358 22.047 C 3.358 21.434 3.824 20.832 4.765 20.292 C 3.824 19.751 3.358 19.149 3.358 18.536 Z"/>
        <path id="top-sidewall" fill="var(--fill)" fill-opacity="0.3" d="M 3.358 9.891 L 3.358 4.857 C 3.358 7.181 9.018 9.065 16.0 9.065 C 22.982 9.065 28.642 7.181 28.642 4.857 L 28.642 9.867 C 28.642 12.19 22.978 13.617 16.0 13.617 C 9.022 13.617 3.358 12.151 3.358 9.891 Z"/>
        <path id="top-highlight" fill="var(--highlight)" d="M 3.358 9.926 L 3.358 4.857 C 3.358 5.361 3.625 5.845 4.114 6.294 L 4.116 11.251 C 3.626 10.82 3.358 10.43 3.358 9.926 Z"/>
        <path id="top-shading" fill="var(--shading)" fill-opacity="0.6" d="M 16.0 9.065 C 22.978 9.065 28.636 7.183 28.642 4.86 L 28.642 9.867 C 28.642 10.116 28.577 10.357 28.452 10.589 C 28.316 10.817 28.109 11.063 27.838 11.28 L 27.829 8.027 C 27.448 8.348 26.942 8.646 26.33 8.915 L 26.335 12.137 C 23.987 13.088 20.566 13.562 16.501 13.614 C 16.335 13.616 16.168 13.617 16.0 13.617 C 15.832 13.617 15.665 13.616 15.498 13.614 C 13.85 13.593 12.281 13.509 10.855 13.327 L 10.852 10.215 C 6.437 9.627 3.358 8.284 3.358 6.571 L 3.358 4.86 C 3.364 7.183 9.022 9.065 16.0 9.065 Z"/>
        <path id="top-right-ring" fill="var(--fill)" fill-opacity="0.3" d="M 21.249 1.373 C 25.591 2.016 28.614 3.408 28.642 4.86 C 28.637 6.568 25.578 8.037 21.185 8.696 C 24.651 7.963 27.01 6.518 27.014 4.854 C 26.991 3.442 24.666 2.085 21.249 1.373 L 21.249 1.373 Z"/>
        <path id="top-left-ring" fill="var(--highlight)" d="M 10.751 1.373 C 7.326 2.086 4.998 3.448 4.986 4.864 C 4.999 6.523 7.355 7.964 10.815 8.696 C 6.43 8.039 3.374 6.573 3.358 4.87 C 3.373 3.414 6.399 2.018 10.751 1.373 L 10.751 1.373 Z"/>
        <path id="mid-sidewall" fill="var(--fill)" fill-opacity="0.3" d="M 3.358 18.511 L 3.358 13.41 C 3.358 15.734 9.018 17.618 16.0 17.618 C 22.982 17.618 28.642 15.734 28.642 13.41 L 28.642 18.511 C 28.642 20.74 22.978 22.17 16.0 22.17 C 9.022 22.17 3.358 20.744 3.358 18.511 Z"/>
        <path id="mid-highlight" fill="var(--highlight)" d="M 3.358 18.479 L 3.358 13.41 C 3.358 13.914 3.625 14.398 4.114 14.847 L 4.116 19.804 C 3.626 19.373 3.358 18.983 3.358 18.479 Z"/>
        <path id="mid-shading" fill="var(--shading)" fill-opacity="0.6" d="M 16.0 17.618 C 22.978 17.618 28.636 15.736 28.642 13.413 L 28.642 18.42 C 28.642 18.752 28.579 18.922 28.455 19.153 C 28.319 19.382 28.109 19.616 27.838 19.833 L 27.829 16.58 C 27.448 16.901 26.942 17.199 26.33 17.468 L 26.335 20.69 C 23.987 21.641 20.566 22.115 16.501 22.167 C 16.335 22.169 16.168 22.17 16.0 22.17 C 15.832 22.17 15.665 22.169 15.498 22.167 C 13.85 22.146 12.281 22.062 10.855 21.88 L 10.852 18.768 C 6.437 18.18 3.358 16.837 3.358 15.124 L 3.358 13.413 C 3.364 15.736 9.022 17.618 16.0 17.618 Z"/>
        <path id="mid-left-ring" fill="var(--highlight)" d="M 4.986 13.417 C 4.999 15.076 7.355 16.517 10.815 17.249 C 6.43 16.592 3.374 15.126 3.358 13.423 C 3.364 12.823 3.881 12.234 4.791 11.703 C 4.986 11.816 5.351 11.991 5.647 12.115 C 5.223 12.532 4.99 12.972 4.986 13.417 Z"/>
        <path id="mid-left-ring" fill="var(--fill)" fill-opacity="0.3" d="M 27.223 11.7 C 28.119 12.226 28.63 12.82 28.642 13.413 C 28.637 15.121 25.578 16.59 21.185 17.249 C 24.651 16.516 27.01 15.071 27.014 13.407 C 27.007 12.969 26.777 12.535 26.362 12.125 C 26.483 12.08 26.961 11.862 27.223 11.7 Z"/>
        <path id="low-sidewall" fill="var(--fill)" fill-opacity="0.3" d="M 3.358 27.271 L 3.358 22.237 C 3.358 24.561 9.018 26.445 16.0 26.445 C 22.982 26.445 28.642 24.561 28.642 22.237 L 28.642 27.247 C 28.642 29.57 22.978 30.997 16.0 30.997 C 9.022 30.997 3.358 29.531 3.358 27.271 Z"/>
        <path id="low-highlight" fill="var(--highlight)" d="M 3.358 27.306 L 3.358 22.237 C 3.358 22.741 3.625 23.225 4.114 23.674 L 4.116 28.631 C 3.626 28.2 3.358 27.81 3.358 27.306 Z"/>
        <path id="low-shading" fill="var(--shading)" fill-opacity="0.6" d="M 16.0 26.445 C 22.978 26.445 28.636 24.563 28.642 22.24 L 28.642 27.247 C 28.642 27.496 28.577 27.737 28.452 27.969 C 28.316 28.197 28.109 28.443 27.838 28.66 L 27.829 25.407 C 27.448 25.728 26.942 26.026 26.33 26.295 L 26.335 29.517 C 23.987 30.468 20.566 30.942 16.501 30.994 C 16.335 30.996 16.168 30.997 16.0 30.997 C 15.832 30.997 15.665 30.996 15.498 30.994 C 13.85 30.973 12.281 30.889 10.855 30.707 L 10.852 27.595 C 6.437 27.007 3.358 25.664 3.358 23.951 L 3.358 22.24 C 3.364 24.563 9.022 26.445 16.0 26.445 Z"/>
        <path id="low-left-ring" fill="var(--highlight)" d="M 4.986 22.244 C 4.999 23.903 7.355 25.344 10.815 26.076 C 6.43 25.419 3.374 23.953 3.358 22.25 C 3.359 22.167 3.358 22.071 3.358 22.004 C 3.36 21.362 3.972 20.901 4.781 20.294 C 5.231 20.554 5.764 20.75 5.828 20.776 C 5.289 21.241 4.99 21.739 4.986 22.244 Z"/>
        <path id="low-right-ring" fill="var(--fill)" fill-opacity="0.3" d="M 27.22 20.291 C 28.119 20.756 28.642 21.317 28.642 22.003 C 28.642 22.047 28.641 22.188 28.642 22.24 C 28.637 23.948 25.578 25.417 21.185 26.076 C 24.651 25.343 27.01 23.898 27.014 22.234 C 27.006 21.733 26.705 21.234 26.171 20.773 C 26.575 20.612 26.97 20.438 27.22 20.291 Z"/>
        <path id="border" fill="none" stroke="var(--fill)" d="M 3.955 20.292 C 3.25 19.754 2.858 19.161 2.858 18.536 L 2.858 13.464 C 2.858 12.84 3.25 12.246 3.955 11.709 C 3.25 11.171 2.858 10.578 2.858 9.953 L 2.858 4.881 C 2.858 2.461 8.742 0.5 16.0 0.5 C 23.258 0.5 29.142 2.461 29.142 4.881 L 29.142 9.953 C 29.142 10.578 28.75 11.171 28.044 11.709 C 28.75 12.246 29.142 12.84 29.142 13.464 L 29.142 18.536 C 29.142 19.161 28.75 19.754 28.044 20.292 C 28.75 20.829 29.142 21.423 29.142 22.047 L 29.142 27.119 C 29.142 29.539 23.258 31.5 16.0 31.5 C 8.742 31.5 2.858 29.539 2.858 27.119 L 2.858 22.047 C 2.858 21.423 3.25 20.829 3.955 20.292 Z"/>
    </symbol>

    <g id="light"><use href="#i"/></g>
    <g id="dark"><use href="#i"/></g>
</svg>