<?xml version="1.0" encoding="utf-8"?>
<!-- Copyright © 2013 Apple Inc. All rights reserved. -->
<svg version="1.1" xmlns="http://www.w3.org/2000/svg" viewBox="0 0 16 14">
    <path d="M 4.007812 1 L 11.992188 1 C 13.097656 1 14 1.898438 14 3.007812 L 14 10.992188 C 14 12.097656 13.101562 13 11.992188 13 L 4.007812 13 C 2.902344 13 2 12.101562 2 10.992188 L 2 3.007812 C 2 1.902344 2.898438 1 4.007812 1 Z M 9.007812 3 C 8.453125 3 8 3.453125 8 3.996094 L 8 10.003906 C 8 10.554688 8.441406 11 9.007812 11 L 10.992188 11 C 11.546875 11 12 10.546875 12 10.003906 L 12 3.996094 C 12 3.445312 11.558594 3 10.992188 3 Z"/>
</svg>
