<?xml version="1.0" encoding="utf-8"?>
<!-- Copyright © 2013 Apple Inc. All rights reserved. -->
<svg version="1.1" xmlns="http://www.w3.org/2000/svg" viewBox="0 0 16 14">
    <path d="M 4.007812 1 L 11.992188 1 C 13.097656 1 14 1.898438 14 3.007812 L 14 10.992188 C 14 12.097656 13.101562 13 11.992188 13 L 4.007812 13 C 2.902344 13 2 12.101562 2 10.992188 L 2 3.007812 C 2 1.902344 2.898438 1 4.007812 1 Z M 4.996094 7 C 4.445312 7 4 7.441406 4 8.007812 L 4 9.992188 C 4 10.546875 4.453125 11 4.996094 11 L 11.003906 11 C 11.554688 11 12 10.558594 12 9.992188 L 12 8.007812 C 12 7.453125 11.546875 7 11.003906 7 Z"/>
</svg>
