<?xml version="1.0" encoding="utf-8"?>
<!-- Copyright © 2020 Apple Inc. All rights reserved. -->
<svg version="1.1" xmlns="http://www.w3.org/2000/svg">
    <defs>
        <style>
            g:not(:target) {
                display: none;
            }

            .light {
                --border: black;
                --corner: hsl(0, 0%, 100%);
                --paper: hsl(0, 0%, 90%);
                --css-color: hsl(2, 84%, 33%);
                --font-color: hsl(212, 43%, 28%);
                --gl-color: hsl(208, 48%, 35%);
                --js-color: hsl(265, 61%, 51%);
                --markup-color: hsl(226, 77%, 44%);
                --square-color: hsl(141, 28%, 42%);
                --circle-color: hsl(205, 35%, 33%);
            }

            .dark {
                --border: white;
                --corner: hsl(0, 0%, 0%);
                --paper: hsl(0, 0%, 18%);
                --css-color: hsl(360, 100%, 70%);
                --font-color: hsl(212, 73%, 63%);
                --gl-color: hsl(208, 65%, 57%);
                --js-color: hsl(255, 100%, 80%);
                --markup-color: hsl(226, 100%, 70%);
                --square-color: hsl(141, 28%, 50%);
                --circle-color: hsl(205, 91%, 47%);
            }

            .markup.override.light {
                --border: hsl(226, 70%, 75%);
                --paper: hsl(226, 77%, 44%);
                --markup-color: hsl(0, 0%, 100%);
            }

            .markup.override.dark {
                --border: hsl(226, 30%, 20%);
                --paper: hsl(226, 100%, 70%);
                --markup-color: hsl(0, 0%, 0%);
            }

            .css.override.light {
                --border: hsl(2, 70%, 75%);
                --paper: hsl(2, 54%, 33%);
                --css-color: hsl(0, 0%, 100%);
            }

            .css.override.dark {
                --border: hsl(360, 50%, 20%);
                --paper: hsl(360, 54%, 61%);
                --css-color: hsl(0, 0%, 0%);
            }

            .font.override.light {
                --border: hsl(212, 43%, 75%);
                --paper: hsl(212, 43%, 28%);
                --font-color: hsl(0, 0%, 100%);
            }

            .font.override.dark {
                --border: hsl(212, 50%, 20%);
                --paper: hsl(212, 73%, 63%);
                --font-color: hsl(0, 0%, 0%);
            }

            .gl.override.light {
                --border: hsl(208, 48%, 80%);
                --paper: hsl(208, 48%, 35%);
                --gl-color: hsl(0, 0%, 100%);
            }

            .gl.override.dark {
                --border: hsl(208, 65%, 20%);
                --paper: hsl(208, 65%, 57%);
                --gl-color: hsl(0, 0%, 0%);
            }

            .image.override.light {
                --border: hsl(141, 28%, 85%);
                --paper: hsl(141, 28%, 50%);
                --square-color: hsl(0, 0%, 100%);
                --circle-color: hsla(0, 0%, 100%, 0.7);
            }

            .image.override.dark {
                --border: hsl(141, 28%, 16%);
                --paper: hsl(141, 28%, 50%);
                --square-color: hsla(0, 0%, 0%, 0.7);
                --circle-color: hsl(0, 0%, 0%);
            }

            .js.override.light,
            .worker.override.light {
                --border: hsl(265, 50%, 75%);
                --paper: hsl(265, 61%, 51%);
                --js-color: hsl(0, 0%, 100%);
            }

            .js.override.dark,
            .worker.override.dark {
                --border: hsl(255, 50%, 20%);
                --paper: hsl(255, 100%, 80%);
                --js-color: hsl(0, 0%, 0%);
            }
        </style>
    </defs>

    <symbol id="doc-orig" stroke-width="1" viewBox="0 0 32 32">
        <path fill="var(--corner)" stroke="var(--border)" d="M 4.5 0.502595742 L 15.7690119 0.502595742 C 16.0234963 0.502595742 16.2684072 0.599619214 16.453849 0.773899607 L 27.1848372 10.859008 C 27.385944 11.0480105 27.5 11.3117224 27.5 11.5877041 L 27.5 31.5025957 L 4.5 31.5025957 L 4.5 0.502595742 Z"/>
        <path fill="var(--paper)" stroke="var(--border)" d="M 13.0793124 0.502482594 C 16.6322416 0.502482594 17.5054626 0.465950315 17.5054626 3.33630812 L 17.5054626 10.5027448 L 24.5729133 10.5027448 C 27.3777853 10.5027448 27.5 12.8241896 27.5 15.7105249 L 27.5 31.5024601 L 4.5 31.5024601 L 4.5 0.502482594 L 13.0793124 0.502482594 Z"/>
    </symbol>
    
    <symbol id="doc" stroke-width="1" viewBox="0 0 32 32">
        <path fill="var(--corner)" stroke="var(--border)" d="M 5.49617004 0.502595742 L 16.0947971 0.502595742 C 16.3518371 0.502595742 16.5990068 0.601572878 16.785004 0.778983706 L 27.1902069 10.703837 C 27.3880513 10.8925479 27.5 11.1540368 27.5 11.427449 L 27.5 30.5 C 27.5 30.9976196 27.0015411 31.4974043 26.500885 31.4974043 L 5.5 31.4974043 C 4.99752808 31.4974043 4.5 30.9965057 4.5 30.5 L 4.5 1.49732971 C 4.5 1.00445557 4.99969482 0.502595742 5.49617004 0.502595742 Z"/>
        <path fill="var(--paper)" stroke="var(--border)" d="M 13.0793124 0.502595742 C 16.6322416 0.502595742 17.5054626 0.46595627 17.5054626 3.33584595 L 17.5054626 10.5011139 L 24.5729133 10.5011139 C 27.3777853 10.5011139 27.5 12.82218 27.5 15.7080446 L 27.5 30.4980011 C 27.5 30.9992065 27.0037842 31.4974043 26.4995422 31.4974043 L 5.50834656 31.4974043 C 4.99810791 31.4974043 4.5 31.0025787 4.5 30.4980011 L 4.5 1.4982605 C 4.5 1.00335693 4.9982605 0.502241152 5.50134277 0.502241152 L 13.0793124 0.502595742 Z"/>
    </symbol>
    
    <symbol id="css" stroke="none" fill="var(--css-color)" viewBox="0 0 32 32">
        <path d="M 10.0763038 24.5384018 C 10.862051 24.5384018 11.3524837 23.9032693 11.3683041 22.8772859 L 12.8870637 22.8772859 C 12.8870637 24.8742892 11.8112757 26.095698 10.0815773 26.095698 C 8.19894824 26.095698 7.0915194 24.7338272 7.0915194 22.4131506 L 7.0915194 20.6115726 C 7.0915194 18.2908959 8.19894824 16.9290252 10.0815773 16.9290252 C 11.8323696 16.9290252 12.8712433 18.1443269 12.8817902 20.2268289 L 11.3630307 20.2268289 C 11.3472103 19.1703103 10.8304101 18.4863213 10.0552099 18.4863213 C 9.13235256 18.4863213 8.64719325 19.2191666 8.64719325 20.6115726 L 8.64719325 22.4131506 C 8.64719325 23.8116636 9.13235256 24.5384018 10.0763038 24.5384018 Z M 13.7717646 23.451348 L 15.0908082 23.451348 C 15.1547916 24.2147285 15.6568156 24.6544357 16.4639915 24.6544357 C 17.231793 24.6544357 17.7190516 24.1964074 17.7190516 23.4818832 C 17.7190516 22.8833929 17.4040561 22.5658267 16.5821148 22.339866 L 15.8438442 22.1261195 C 14.5592533 21.7658039 13.9292624 20.9230319 13.9292624 19.6161245 C 13.9292624 17.9733297 14.9087014 16.9290252 16.4443043 16.9290252 C 17.9306892 16.9290252 18.9298154 17.9611156 18.9741117 19.5367329 L 17.6550681 19.5367329 C 17.6009283 18.8099947 17.1530441 18.3641805 16.4590697 18.3641805 C 15.7552517 18.3641805 15.3172112 18.7733524 15.3172112 19.4329131 C 15.3172112 20.0558316 15.6322066 20.3978261 16.4000081 20.6054656 L 17.1284351 20.8131051 C 18.5016185 21.1917418 19.1020786 21.9551223 19.1020786 23.304779 C 19.1020786 25.0452865 18.0980305 26.095698 16.4393825 26.095698 C 14.8299525 26.095698 13.8209827 25.1002499 13.7717646 23.451348 Z M 19.7379407 23.451348 L 21.0569065 23.451348 C 21.1208862 24.2147285 21.6228806 24.6544357 22.430009 24.6544357 C 23.1977652 24.6544357 23.6849951 24.1964074 23.6849951 23.4818832 C 23.6849951 22.8833929 23.3700182 22.5658267 22.5481253 22.339866 L 21.8098982 22.1261195 C 20.525383 21.7658039 19.8954291 20.9230319 19.8954291 19.6161245 C 19.8954291 17.9733297 20.8748105 16.9290252 22.4103229 16.9290252 C 23.8966203 16.9290252 24.8956877 17.9611156 24.9399813 19.5367329 L 23.6210155 19.5367329 C 23.5668788 18.8099947 23.119021 18.3641805 22.4250875 18.3641805 C 21.7213109 18.3641805 21.2832962 18.7733524 21.2832962 19.4329131 C 21.2832962 20.0558316 21.5982731 20.3978261 22.3660293 20.6054656 L 23.0944134 20.8131051 C 24.4675159 21.1917418 25.0679407 21.9551223 25.0679407 23.304779 C 25.0679407 25.0452865 24.0639517 26.095698 22.4054014 26.095698 C 20.7960662 26.095698 19.7871558 25.1002499 19.7379407 23.451348 Z"/>
    </symbol>

    <symbol id="font" stroke="none" fill="var(--font-color)" viewBox="0 0 32 32">
        <path d="M 22.8972041 28.003177 L 17.3971003 28.003177 L 17.3971003 27.6439866 C 18.8114127 27.5766384 19.1257044 27.2174479 19.1257044 26.4541682 C 19.1257044 26.274573 19.103255 26.0725284 19.0808056 25.8704837 L 18.6318175 22.9296119 L 13.6929488 22.9296119 L 12.368434 25.4214957 C 12.0541424 26.0051801 11.8745471 26.5439658 11.8745471 26.9031563 C 11.8745471 27.3296949 12.2112882 27.5990878 13.2664101 27.6439866 L 13.2664101 28.003177 L 9.09082115 28.003177 L 9.09082115 27.6439866 C 10.1234937 27.4419419 10.4153359 27.0603021 12.0990412 24.1418797 L 18.4971211 13.0069757 L 19.0808056 13.0069757 L 21.1461507 25.4214957 C 21.4604423 27.3072455 21.7073857 27.554189 22.8972041 27.6439866 L 22.8972041 28.003177 Z M 18.5195705 22.1214334 L 17.5093473 16.2172403 L 14.1643863 22.1214334 L 18.5195705 22.1214334 Z"/>
    </symbol>

    <symbol id="image" stroke="none" viewBox="0 0 32 32">
        <path fill="var(--square-color)" d="M 14.7323358 18.0009595 C 14.7323352 18.0019883 14.7323349 18.0030173 14.7323349 18.0040463 C 14.7323349 20.5451326 16.6279258 22.6434799 19.0821805 22.9621612 L 19.0821805 26.1416179 C 19.0821805 27.3776995 18.4454112 28.0019831 17.196844 28.0019831 L 10.8790937 28.0019831 C 9.63052646 28.0019831 9 27.3776995 9 26.1416179 L 9 19.8613247 C 9 18.6252431 9.63052646 18.0009595 10.8790937 18.0009595 L 14.7323358 18.0009595 Z"/>
        <circle cx="19.732" cy="18.004" r="4" fill="var(--circle-color)"/>
    </symbol>
    
    <symbol id="gl" stroke="none" fill="var(--gl-color)" viewBox="0 0 32 32">
        <path d="M 12.3485026 28.3331909 C 10.3934245 28.3331909 9.11510415 27.5060425 8.99205727 26.1661987 L 10.8172526 26.1661987 C 10.9471354 26.6515503 11.5486979 26.9591675 12.3758463 26.9591675 C 13.4627604 26.9591675 14.0369791 26.46698 14.0369791 25.5236206 L 14.0369791 24.0402222 L 13.8934245 24.0402222 C 13.6610026 24.8878784 12.7860026 25.4552612 11.6649088 25.4552612 C 9.92858071 25.4552612 8.88951821 24.2521362 8.88951821 22.2150269 L 8.88951821 21.0734253 C 8.88951821 19.0158081 9.94908852 17.8331909 11.753776 17.8331909 C 12.847526 17.8331909 13.6883463 18.3869019 13.9344401 19.241394 L 14.0711588 19.241394 L 14.0711588 17.9562378 L 15.910026 17.9562378 L 15.910026 25.4894409 C 15.910026 27.2462769 14.5496745 28.3331909 12.3485026 28.3331909 Z M 10.8035807 22.1603394 C 10.8035807 23.18573 11.425651 23.8283081 12.4031901 23.8283081 C 13.3875651 23.8283081 14.0096354 23.18573 14.0096354 22.1603394 L 14.0096354 21.0734253 C 14.0096354 20.0480347 13.3875651 19.4054565 12.4031901 19.4054565 C 11.425651 19.4054565 10.8035807 20.0480347 10.8035807 21.0734253 L 10.8035807 22.1603394 Z M 23.5379761 25.4962769 L 17.0233277 25.4962769 L 17.0233277 24.0060425 L 19.4159058 24.0060425 L 19.4159058 16.5753784 L 17.1463745 16.5753784 L 17.1463745 15.085144 L 21.2889527 15.085144 L 21.2889527 24.0060425 L 23.5379761 24.0060425 L 23.5379761 25.4962769 Z"/>
    </symbol>
    
    <symbol id="js" stroke="none" fill="var(--js-color)" viewBox="0 0 32 32">
        <path  d="M 11.7592448 26.2607422 C 9.74947913 26.2607422 8.450651 25.0371094 8.44381506 23.1367188 L 10.3168619 23.1367188 C 10.3373698 23.9638672 10.9047526 24.5039062 11.731901 24.5039062 C 12.6342448 24.5039062 13.1264323 23.9570312 13.1264323 22.9521484 L 13.1264323 17.8662109 L 9.58541663 17.8662109 L 9.58541663 16.1982422 L 15.0746744 16.1982422 L 15.0746744 22.9794922 C 15.0746744 25.0507812 13.8442057 26.2607422 11.7592448 26.2607422 Z M 15.8494141 23.3007812 L 17.6814453 23.3007812 C 17.7703125 24.1552734 18.4675781 24.6474609 19.5886719 24.6474609 C 20.6550781 24.6474609 21.3318359 24.1347656 21.3318359 23.3349609 C 21.3318359 22.6650391 20.8943359 22.3095703 19.7527344 22.0566406 L 18.7273437 21.8173828 C 16.9431641 21.4140625 16.0681641 20.4707031 16.0681641 19.0078125 C 16.0681641 17.1689453 17.4285156 16 19.5613281 16 C 21.6257812 16 23.0134766 17.1552734 23.075 18.9189453 L 21.2429687 18.9189453 C 21.1677734 18.1054688 20.5457031 17.6064453 19.5818359 17.6064453 C 18.6042969 17.6064453 17.9958984 18.0644531 17.9958984 18.8027344 C 17.9958984 19.5 18.4333984 19.8828125 19.4998047 20.1152344 L 20.5115234 20.3476562 C 22.41875 20.7714844 23.2527344 21.6259766 23.2527344 23.1367188 C 23.2527344 25.0849609 21.8582031 26.2607422 19.5544922 26.2607422 C 17.3191406 26.2607422 15.9177734 25.1464844 15.8494141 23.3007812 Z"/>
    </symbol>

    <symbol id="markup" stroke="none" fill="var(--markup-color)" viewBox="0 0 32 32">
        <polygon points="13.934 18.615 9.693 21.088 9.693 21.256 13.934 23.73 13.934 26.337 7.739 22.187 7.739 20.158 13.934 15.999"/>
        <polygon points="22.302 21.088 18.061 18.615 18.061 15.999 24.256 20.158 24.256 22.187 18.061 26.337 18.061 23.73 22.302 21.256"/>
    </symbol>

    <symbol id="worker" stroke="var(--js-color)" fill="none" stroke-width="1.4" viewBox="0 0 32 32">
        <path d="M 16 27.4111478 C 16.8166181 27.4111478 17.4847602 26.7430057 17.48575 25.9263876 L 17.4847602 25.1592615 C 17.6302667 25.1077898 17.7718138 25.051369 17.9094016 24.9870293 L 18.6478223 25.7264399 C 19.225889 26.3035167 20.1711863 26.3025269 20.7472732 25.7254501 C 21.0372964 25.4364168 21.1808232 25.0543385 21.1808232 24.6742399 C 21.1808232 24.2951311 21.0372964 23.9140426 20.7482631 23.6250093 L 20.0098424 22.8865886 C 20.0751718 22.748011 20.1306028 22.6064638 20.1820745 22.4619472 L 20.9492006 22.4609573 C 21.7658187 22.4619472 22.4339608 21.7938051 22.4339608 20.977187 C 22.4339608 20.159579 21.7658187 19.4924268 20.9492006 19.491437 L 20.1820745 19.4924268 C 20.1306028 19.3469203 20.0751718 19.2053732 20.0098424 19.0677854 L 20.7482631 18.3293647 C 21.0363066 18.0403313 21.1808232 17.6592429 21.1808232 17.2791443 C 21.1808232 16.8980558 21.0372964 16.5179572 20.7492529 16.2299137 C 20.1711863 15.6508573 19.225889 15.6508573 18.6488122 16.2279341 L 17.9094016 16.9673446 C 17.770824 16.9010253 17.6302667 16.8465841 17.4847602 16.7951125 L 17.4847602 16.0269965 C 17.4847602 15.2103784 16.8166181 14.5422363 16 14.5422363 C 15.1833819 14.5422363 14.5152398 15.2103784 14.5152398 16.0269965 L 14.5152398 16.7951125 C 14.3707232 16.8465841 14.2281862 16.9020152 14.0896086 16.9673446 L 13.3511878 16.2289239 C 12.774111 15.6518471 11.8288137 15.6518471 11.2517369 16.2289239 C 10.9627036 16.5179572 10.8181869 16.8980558 10.8181869 17.2781544 C 10.8181869 17.6592429 10.9627036 18.0393415 11.2507471 18.3283748 L 11.9901576 19.0677854 C 11.9248282 19.2053732 11.870387 19.3469203 11.8179255 19.4924268 L 11.0507994 19.491437 C 10.2341813 19.4924268 9.56603918 20.159579 9.56603918 20.977187 C 9.56603918 21.7938051 10.2341813 22.4619472 11.0507994 22.4619472 L 11.8179255 22.4619472 C 11.8693972 22.6064638 11.9248282 22.748011 11.9901576 22.8865886 L 11.2517369 23.6250093 C 10.9627036 23.9140426 10.8171971 24.2951311 10.8181869 24.6752297 C 10.8171971 25.0563182 10.9636934 25.4374066 11.2507471 25.7244602 C 11.8288137 26.3025269 12.774111 26.3025269 13.3511878 25.7254501 L 14.0905984 24.9870293 C 14.2281862 25.051369 14.3697333 25.1077898 14.5152398 25.1592615 L 14.51425 25.9263876 C 14.5152398 26.7430057 15.1833819 27.4111478 16 27.4111478 Z"/>
        <path d="M 15.9991091 19.0964907 C 17.0364616 19.0964907 17.8798054 19.9398345 17.8798054 20.977187 C 17.8798054 22.0145394 17.0364616 22.8578832 15.9991091 22.8578832 C 14.9617567 22.8578832 14.1184129 22.0145394 14.1184129 20.977187 C 14.1184129 19.9398345 14.9617567 19.0964907 15.9991091 19.0964907"/>
    </symbol>

    <g id="generic-light" class="light"><use href="#doc"/></g>
    <g id="generic-light-override" class="light override"><use href="#doc"/></g>
    <g id="generic-dark" class="dark"><use href="#doc"/></g>
    <g id="generic-dark-override" class="dark override"><use href="#doc"/></g>
    <g id="css-light" class="light"><use href="#doc"/><use href="#css"/></g>
    <g id="css-light-override" class="css light override"><use href="#doc"/><use href="#css"/></g>
    <g id="css-dark" class="dark"><use href="#doc"/><use href="#css"/></g>
    <g id="css-dark-override" class="css dark override"><use href="#doc"/><use href="#css"/></g>
    <g id="font-light" class="light"><use href="#doc"/><use href="#font"/></g>
    <g id="font-light-override" class="font light override"><use href="#doc"/><use href="#font"/></g>
    <g id="font-dark" class="dark"><use href="#doc"/><use href="#font"/></g>
    <g id="font-dark-override" class="font dark override"><use href="#doc"/><use href="#font"/></g>
    <g id="image-light" class="light"><use href="#doc"/><use href="#image"/></g>
    <g id="image-light-override" class="image light override"><use href="#doc"/><use href="#image"/></g>
    <g id="image-dark" class="dark"><use href="#doc"/><use href="#image"/></g>
    <g id="image-dark-override" class="image dark override"><use href="#doc"/><use href="#image"/></g>
    <g id="gl-light" class="light"><use href="#doc"/><use href="#gl"/></g>
    <g id="gl-light-override" class="gl light override"><use href="#doc"/><use href="#gl"/></g>
    <g id="gl-dark" class="dark"><use href="#doc"/><use href="#gl"/></g>
    <g id="gl-dark-override" class="gl dark override"><use href="#doc"/><use href="#gl"/></g>
    <g id="js-light" class="light"><use href="#doc"/><use href="#js"/></g>
    <g id="js-light-override" class="js light override"><use href="#doc"/><use href="#js"/></g>
    <g id="js-dark" class="dark"><use href="#doc"/><use href="#js"/></g>
    <g id="js-dark-override" class="js dark override"><use href="#doc"/><use href="#js"/></g>
    <g id="markup-light" class="light"><use href="#doc"/><use href="#markup"/></g>
    <g id="markup-light-override" class="markup light override"><use href="#doc"/><use href="#markup"/></g>
    <g id="markup-dark" class="dark"><use href="#doc"/><use href="#markup"/></g>
    <g id="markup-dark-override" class="markup dark override"><use href="#doc"/><use href="#markup"/></g>
    <g id="worker-light" class="light"><use href="#doc"/><use href="#worker"/></g>
    <g id="worker-light-override" class="worker light override"><use href="#doc"/><use href="#worker"/></g>
    <g id="worker-dark" class="dark"><use href="#doc"/><use href="#worker"/></g>
    <g id="worker-dark-override" class="worker dark override"><use href="#doc"/><use href="#worker"/></g>
</svg>