<?xml version="1.0" encoding="utf-8"?>
<!-- Copyright © 2013 Apple Inc. All rights reserved. -->
<svg version="1.1" xmlns="http://www.w3.org/2000/svg" viewBox="0 0 16 16">
    <path fill="rgb(203, 203, 203)" d="M 13 1 L 3 1 C 1.898438 1 1 1.898438 1 3 L 1 13 C 1 14.101562 1.898438 15 3 15 L 13 15 C 14.101562 15 15 14.101562 15 13 L 15 3 C 15 1.898438 14.101562 1 13 1 Z"/>
    <path fill="rgb(153, 153, 153)" d="M 13 1 L 3 1 C 1.898438 1 1 1.898438 1 3 L 1 13 C 1 14.101562 1.898438 15 3 15 L 13 15 C 14.101562 15 15 14.101562 15 13 L 15 3 C 15 1.898438 14.101562 1 13 1 M 13 2 C 13.550781 2 14 2.449219 14 3 L 14 13 C 14 13.550781 13.550781 14 13 14 L 3 14 C 2.449219 14 2 13.550781 2 13 L 2 3 C 2 2.449219 2.449219 2 3 2 L 13 2"/>
    <path fill="rgb(166, 166, 166)" d="M 4.445312 12.742188 C 3.890625 12.742188 3.445312 12.292969 3.445312 11.742188 L 3.445312 3.792969 C 3.445312 3.242188 3.890625 2.792969 4.445312 2.792969 L 7.867188 2.792969 C 9.367188 2.792969 10.554688 3.222656 11.402344 4.0625 C 12.25 4.910156 12.679688 6.101562 12.679688 7.601562 C 12.679688 9.171875 12.234375 10.429688 11.359375 11.347656 C 10.472656 12.273438 9.246094 12.742188 7.71875 12.742188 L 4.445312 12.742188 M 7.335938 9.613281 C 8.1875 9.613281 8.449219 9.324219 8.535156 9.226562 C 8.789062 8.941406 8.921875 8.414062 8.921875 7.699219 C 8.921875 7.140625 8.8125 6.703125 8.578125 6.363281 C 8.457031 6.183594 8.328125 6.070312 8.1875 6.011719 C 8.0625 5.964844 7.761719 5.882812 7.097656 5.882812 C 7.097656 6.960938 7.097656 8.539062 7.097656 9.613281 C 7.171875 9.613281 7.335938 9.613281 7.335938 9.613281"/>
    <path fill="white" d="M 4.445312 11.742188 L 4.445312 3.792969 L 7.867188 3.792969 C 9.097656 3.792969 10.039062 4.121094 10.695312 4.773438 C 11.351562 5.425781 11.679688 6.371094 11.679688 7.601562 C 11.679688 8.910156 11.332031 9.929688 10.636719 10.65625 C 9.941406 11.378906 8.96875 11.742188 7.71875 11.742188 Z M 6.097656 10.613281 L 7.332031 10.613281 C 8.203125 10.613281 8.851562 10.375 9.28125 9.890625 C 9.707031 9.410156 9.921875 8.679688 9.921875 7.699219 C 9.921875 6.9375 9.75 6.308594 9.40625 5.800781 C 9.171875 5.453125 8.886719 5.214844 8.554688 5.082031 C 8.21875 4.949219 7.734375 4.882812 7.097656 4.882812 L 6.097656 4.882812 Z"/>
</svg>
