<?xml version="1.0" encoding="utf-8"?>
<!-- Copyright © 2018 Apple Inc. All rights reserved. -->
<svg xmlns="http://www.w3.org/2000/svg" id="root" version="1.1" viewBox="0 0 16 16">
    <path fill="rgb(148, 190, 164)" d="M 13 1 L 3 1 C 1.898438 1 1 1.898438 1 3 L 1 13 C 1 14.101562 1.898438 15 3 15 L 13 15 C 14.101562 15 15 14.101562 15 13 L 15 3 C 15 1.898438 14.101562 1 13 1 Z"/>
    <path fill="rgb(101, 161, 134)" d="M 13 1 L 3 1 C 1.898438 1 1 1.898438 1 3 L 1 13 C 1 14.101562 1.898438 15 3 15 L 13 15 C 14.101562 15 15 14.101562 15 13 L 15 3 C 15 1.898438 14.101562 1 13 1 M 13 2 C 13.550781 2 14 2.449219 14 3 L 14 13 C 14 13.550781 13.550781 14 13 14 L 3 14 C 2.449219 14 2 13.550781 2 13 L 2 3 C 2 2.449219 2.449219 2 3 2 L 13 2"/>
    <path fill="rgb(101, 161, 134)" d="M 12 3 L 11 3 L 5 3 L 4 3 L 4 4 L 4 12 L 4 12.962999 L 4.962 12.999 L 6.962 13.075 L 8 13.115 L 8 12.076 L 8 9 L 10 9 L 11 9 L 11 8 L 11 7 L 11 6 L 10 6 L 8 6 L 11 6 L 12 6 L 12 5 L 12 4 L 12 3 Z M 11 4 L 11 5 L 7 5 L 7 7 L 10 7 L 10 8 L 7 8 L 7 12.076 L 5 12 L 5 4 L 11 4 Z"/>
    <path fill="white" d="M 5 12 L 5 4 L 11 4 L 11 5 L 7 5 L 7 7 L 10 7 L 10 8 L 7 8 L 7 12.076 L 5 12 Z"/>
</svg>
