<?xml version="1.0" encoding="utf-8"?>
<!-- Copyright © 2019 Apple Inc. All rights reserved. -->
<svg xmlns="http://www.w3.org/2000/svg" id="root" version="1.1" viewBox="0 0 16 16">
    <path fill="rgb(148, 183, 219)" d="M 13 1 L 3 1 C 1.898438 1 1 1.898438 1 3 L 1 13 C 1 14.101562 1.898438 15 3 15 L 13 15 C 14.101562 15 15 14.101562 15 13 L 15 3 C 15 1.898438 14.101562 1 13 1 Z"/>
    <path fill="rgb(106, 136, 170)" d="M 13 1 L 3 1 C 1.898438 1 1 1.898438 1 3 L 1 13 C 1 14.101562 1.898438 15 3 15 L 13 15 C 14.101562 15 15 14.101562 15 13 L 15 3 C 15 1.898438 14.101562 1 13 1 M 13 2 C 13.550781 2 14 2.449219 14 3 L 14 13 C 14 13.550781 13.550781 14 13 14 L 3 14 C 2.449219 14 2 13.550781 2 13 L 2 3 C 2 2.449219 2.449219 2 3 2 L 13 2"/>
    <path fill="rgb(113, 146, 184)" d="M 5.980469 5.882812 C 5.140625 5.882812 4.636719 5.882812 4.636719 5.882812 C 4.182031 5.882812 3.636719 5.4375 3.636719 4.882812 L 3.636719 3.792969 C 3.636719 3.242188 4.182031 2.792969 4.636719 2.792969 L 10.988281 2.792969 C 11.542969 2.792969 11.988281 3.242188 11.988281 3.792969 L 11.988281 4.882812 C 11.988281 5.4375 11.542969 5.882812 10.988281 5.882812"/>
    <path fill="rgb(113, 146, 184)" d="M 5.980469 12.742188 C 5.140625 12.742188 4.636719 12.742188 4.636719 12.742188 C 4.182031 12.742188 3.636719 12.296876 3.636719 11.742188 L 3.636719 10.652345 C 3.636719 10.101564 4.182031 9.652345 4.636719 9.652345 L 10.988281 9.652345 C 11.542969 9.652345 11.988281 10.101564 11.988281 10.652345 L 11.988281 11.742188 C 11.988281 12.296876 11.542969 12.742188 10.988281 12.742188"/>
    <path fill="rgb(113, 146, 184)" d="M 5.980469 5.882812 H 9.640625 V 9.652345 H 5.980469 Z"/>
    <path fill="white" d="M 6.980469 10.652345 L 6.980469 4.882812 L 4.636719 4.882812 L 4.636719 3.792969 L 10.988281 3.792969 L 10.988281 4.882812 L 8.640625 4.882812 L 8.640625 10.652345 L 10.988281 10.652345 L 10.988281 11.742188 L 4.636719 11.742188 L 4.636719 10.652345 Z"/>
</svg>
