<?xml version="1.0" encoding="utf-8"?>
<!-- Copyright © 2019 Apple Inc. All rights reserved. -->
<svg version="1.1" xmlns="http://www.w3.org/2000/svg" x="0" y="0" viewBox="0 0 14 14">
    <circle fill="rgb(191, 222, 255)" stroke="rgb(0, 122, 255)" cx="7" cy="7" r="6.25"/>
    <path fill="white" d="M 7 0.5 c 3.584 0 6.5 2.916 6.5 6.5 s -2.916 6.5 -6.5 6.5 S 0.5 10.584 0.5 7 3.416 0.5 7 0.5 M 7 0 a 7 7 0 1 0 0 14 A 7 7 0 0 0 7 0 z"/>
    <path fill="rgb(0, 122, 255)" d="M 10.2778182,6.85756083 L 10.2778182 7.18878965 L 10.2727273 7.18878965 C 10.2727273 8.91145673 8.80727273 10.3070527 7 10.3070527 C 5.19272727 10.3070527 3.72727273 8.91145673 3.72727273 7.18878965 C 3.72727273 5.58253773 5.00654545 4.27563905 6.64509091 4.10448106 L 6.64509091 5.84516477 L 9.92290909 3.92292886 L 6.64509091 2 L 6.64509091 3.39490299 C 4.60218182 3.56606098 3 5.19795196 3 7.18878965 C 3 9.29396366 4.79054545 11 7 11 C 9.18836364 11 10.9636364 9.32514629 10.9970909 7.24699723 L 11 7.24699723 L 11 6.85756083 L 10.2778182 6.85756083 Z"></path>
</svg>
