<svg version="1.1" id="Layer_1" xmlns="http://www.w3.org/2000/svg" x="0" y="0" viewBox="0 0 14 14" xml:space="preserve">
    <circle fill="rgb(191, 222, 255)" cx="7" cy="7" r="6.75"/>
    <path fill="white" d="M 7 0.5 c 3.584 0 6.5 2.916 6.5 6.5 s -2.916 6.5 -6.5 6.5 S 0.5 10.584 0.5 7 3.416 0.5 7 0.5 M 7 0 a 7 7 0 1 0 0 14 A 7 7 0 0 0 7 0 z"/>
    <path fill="rgb(0, 122, 255)" d="M 9.8 10 H 4.2 a 0.2 0.2 0 0 1 -0.2 -0.2 V 4.2 c 0 -0.11 0.09 -0.2 0.2 -0.2 h 5.6 c 0.11 0 0.2 0.09 0.2 0.2 v 5.6 a 0.2 0.2 0 0 1 -0.2 0.2 z"/>
</svg>
