<svg version="1.1" xmlns="http://www.w3.org/2000/svg" x="0" y="0" viewBox="0 0 14 14">
    <circle fill="rgb(191, 222, 255)" cx="7" cy="7" r="6.75"/>
    <path fill="white" d="M 7 0.5 c 3.584 0 6.5 2.916 6.5 6.5 s -2.916 6.5 -6.5 6.5 S 0.5 10.584 0.5 7 3.416 0.5 7 0.5 M 7 0 a 7 7 0 1 0 0 14 A 7 7 0 0 0 7 0 z"/>
    <path fill="rgb(0, 122, 255)" d="M 7 8.5 a 1.5 1.5 0 0 1 0 -3 1.5 1.5 0 0 1 0 3 z M 3 8.5 a 1.5 1.5 0 0 1 0 -3 1.5 1.5 0 0 1 0 3 z M 11 8.5 a 1.5 1.5 0 0 1 0 -3 1.5 1.5 0 0 1 0 3 z"/>
</svg>
