<?xml version="1.0" encoding="utf-8"?>
<!-- Copyright © 2013 Apple Inc. All rights reserved. -->
<svg version="1.1" xmlns="http://www.w3.org/2000/svg" viewBox="0 0 16 16">
    <path fill="rgb(148, 183, 219)" d="M 13 1 L 3 1 C 1.898438 1 1 1.898438 1 3 L 1 13 C 1 14.101562 1.898438 15 3 15 L 13 15 C 14.101562 15 15 14.101562 15 13 L 15 3 C 15 1.898438 14.101562 1 13 1 Z"/>
    <path fill="rgb(106, 136, 170)" d="M 13 1 L 3 1 C 1.898438 1 1 1.898438 1 3 L 1 13 C 1 14.101562 1.898438 15 3 15 L 13 15 C 14.101562 15 15 14.101562 15 13 L 15 3 C 15 1.898438 14.101562 1 13 1 M 13 2 C 13.550781 2 14 2.449219 14 3 L 14 13 C 14 13.550781 13.550781 14 13 14 L 3 14 C 2.449219 14 2 13.550781 2 13 L 2 3 C 2 2.449219 2.449219 2 3 2 L 13 2"/>
    <path fill="white" d="M 11.460938 9.433594 L 13.074219 7.09375 L 11.421875 7.09375 L 10.988281 7.898438 C 10.859375 8.136719 10.738281 8.378906 10.609375 8.648438 L 10.589844 8.648438 C 10.457031 8.410156 10.328125 8.167969 10.1875 7.917969 L 9.703125 7.09375 L 8 7.09375 L 9.625 9.5 L 8 11.941406 L 8 10.5 L 5.625 10.5 L 5.625 8.582031 L 7.25 8.582031 L 7.25 7.09375 L 5.625 7.09375 L 5.625 5.414062 L 8 5.414062 L 8 4 L 4 4 L 4 12 L 9.636719 12 L 10.097656 11.117188 C 10.21875 10.875 10.347656 10.636719 10.46875 10.375 L 10.496094 10.375 C 10.617188 10.625 10.738281 10.875 10.878906 11.117188 L 11.371094 12 L 13.097656 12 Z"/>
    <path fill="rgb(113, 146, 184)" d="M 9 3 L 3 3 L 3 13 L 10.242188 13 L 10.503906 12.5 L 10.78125 13 L 14.921875 13 L 13.941406 11.464844 L 12.660156 9.453125 L 13.898438 7.664062 L 14.980469 6.09375 L 10.824219 6.09375 L 10.5625 6.578125 L 10.277344 6.09375 L 9 6.09375 Z M 8 4 L 8 5.414062 L 5.628906 5.414062 L 5.628906 7.09375 L 7.25 7.09375 L 7.25 8.582031 L 5.628906 8.582031 L 5.628906 10.5 L 8 10.5 L 8 11.9375 L 9.625 9.503906 L 8 7.097656 L 8 7.09375 L 9.703125 7.09375 L 10.1875 7.917969 C 10.328125 8.167969 10.457031 8.410156 10.589844 8.648438 L 10.609375 8.648438 C 10.738281 8.378906 10.859375 8.136719 10.988281 7.898438 L 11.421875 7.09375 L 13.074219 7.09375 L 11.460938 9.433594 L 13.097656 12 L 11.371094 12 L 10.878906 11.117188 C 10.738281 10.875 10.617188 10.625 10.496094 10.375 L 10.46875 10.375 C 10.347656 10.636719 10.21875 10.875 10.097656 11.117188 L 9.636719 12 L 4 12 L 4 4 L 8 4"/>
</svg>
