<?xml version="1.0" encoding="utf-8"?>
<!-- Copyright © 2014 Apple Inc. All rights reserved. -->
<svg version="1.1" xmlns="http://www.w3.org/2000/svg" viewBox="0 0 13 13">
    <path fill="rgb(146, 146, 146)" fill-rule="evenodd" d="M 9.964556 7 C 9.987914 6.836699 10 6.669761 10 6.5 C 10 4.567003 8.432997 3 6.5 3 C 4.567003 3 3 4.567003 3 6.5 C 3 6.669761 3.012086 6.836699 3.035444 7 L 9.964556 7 L 9.964556 7 Z M 6.5 13 C 10.08985 13 13 10.089851 13 6.5 C 13 2.91015 10.08985 0 6.5 0 C 2.910149 0 0 2.91015 0 6.5 C 0 10.089851 2.910149 13 6.5 13 L 6.5 13 Z M 6.5 12 C 9.537566 12 12 9.537566 12 6.5 C 12 3.462434 9.537566 1 6.5 1 C 3.462434 1 1 3.462434 1 6.5 C 1 9.537566 3.462434 12 6.5 12 L 6.5 12 Z"/>
</svg>
