<?xml version="1.0" encoding="utf-8"?>
<!-- Copyright © 2015 Apple Inc. All rights reserved. -->
<svg xmlns="http://www.w3.org/2000/svg" id="root" version="1.1" viewBox="0 0 16 16">
    <path fill="currentColor" d="M 4.44335938 8.06054688 L 3.35449219 4.89160156 L 2.19726562 8.06054688 L 4.44335938 8.06054688 Z M 2.84667969 3.82714844 L 3.9453125 3.82714844 L 6.54785156 11 L 5.48339844 11 L 4.75585938 8.8515625 L 1.91894531 8.8515625 L 1.14257812 11 L 0.146484375 11 L 2.84667969 3.82714844 Z M 7.01611328 5.97900391 L 9.17285156 5.97900391 C 9.76074513 5.97900391 10.1788725 6.15445788 10.4272461 6.50537109 C 10.5730802 6.7127289 10.6459961 6.95198432 10.6459961 7.22314453 C 10.6459961 7.53987789 10.5559905 7.79964091 10.3759766 8.00244141 C 10.2825516 8.1095383 10.1481129 8.20751909 9.97265625 8.29638672 C 10.2301445 8.39436898 10.4226882 8.5048822 10.550293 8.62792969 C 10.77588 8.84668078 10.8886719 9.14859833 10.8886719 9.53369141 C 10.8886719 9.85726073 10.7872731 10.1500638 10.5844727 10.4121094 C 10.2814112 10.8040384 9.79948247 11 9.13867188 11 L 7.01611328 11 L 7.01611328 5.97900391 Z M 8.91992188 8.1015625 C 9.20703269 8.1015625 9.43033774 8.0616866 9.58984375 7.98193359 C 9.84049604 7.85660745 9.96582031 7.63102376 9.96582031 7.30517578 C 9.96582031 6.97704914 9.83252086 6.75602271 9.56591797 6.64208984 C 9.41552659 6.57828744 9.19222153 6.54638672 8.89599609 6.54638672 L 7.68261719 6.54638672 L 7.68261719 8.1015625 L 8.91992188 8.1015625 Z M 9.14892578 10.4189453 C 9.56592005 10.4189453 9.86328036 10.2981783 10.0410156 10.0566406 C 10.1526698 9.90397059 10.2084961 9.71940212 10.2084961 9.50292969 C 10.2084961 9.13834453 10.0455745 8.88997462 9.71972656 8.7578125 C 9.54654861 8.68717413 9.317547 8.65185547 9.03271484 8.65185547 L 7.68261719 8.65185547 L 7.68261719 10.4189453 L 9.14892578 10.4189453 Z M 15.1289062 6.34472656 C 15.4798195 6.67968917 15.6746417 7.06021922 15.7133789 7.48632812 L 15.050293 7.48632812 C 14.9750973 7.1627588 14.8252778 6.90641371 14.6008301 6.71728516 C 14.3763823 6.52815661 14.0613627 6.43359375 13.6557617 6.43359375 C 13.1612931 6.43359375 12.7619644 6.60733876 12.4577637 6.95483398 C 12.1535629 7.30232921 12.0014648 7.83495735 12.0014648 8.55273438 C 12.0014648 9.14062794 12.1387519 9.61742981 12.4133301 9.9831543 C 12.6879083 10.3488788 13.0974908 10.5317383 13.6420898 10.5317383 C 14.1433944 10.5317383 14.5250638 10.3391946 14.7871094 9.95410156 C 14.9261075 9.75130107 15.0297848 9.48470217 15.0981445 9.15429688 L 15.7612305 9.15429688 C 15.7019854 9.68294535 15.5060238 10.1261375 15.1733398 10.4838867 C 14.7745748 10.9145529 14.2368198 11.1298828 13.5600586 11.1298828 C 12.9767223 11.1298828 12.4868184 10.9532895 12.090332 10.6000977 C 11.5685195 10.1329729 11.3076172 9.41178873 11.3076172 8.43652344 C 11.3076172 7.69595984 11.5035788 7.0887068 11.8955078 6.61474609 C 12.3193381 6.09976956 12.9038049 5.84228516 13.6489258 5.84228516 C 14.2846711 5.84228516 14.777993 6.00976395 15.1289062 6.34472656 Z"/>
</svg>
