<?xml version="1.0" encoding="utf-8"?>
<!-- Copyright © 2015 Apple Inc. All rights reserved. -->
<svg xmlns="http://www.w3.org/2000/svg" id="root" version="1.1" viewBox="0 0 15 15">
    <path fill="none" stroke="currentColor" d="M 7.5009 14 C 8.3259 14 9.0009 13.325 9.0019 12.5 L 9.0009 11.725 C 9.1479 11.673 9.2909 11.616 9.4299 11.551 L 10.1759 12.298 C 10.7599 12.881 11.7149 12.88 12.2969 12.297 C 12.5899 12.005 12.7349 11.619 12.7349 11.235 C 12.7349 10.852 12.5899 10.467 12.2979 10.175 L 11.5519 9.429 C 11.6179 9.289 11.6739 9.146 11.7259 9 L 12.5009 8.999 C 13.3259 9 14.0009 8.325 14.0009 7.5 C 14.0009 6.674 13.3259 6 12.5009 5.999 L 11.7259 6 C 11.6739 5.853 11.6179 5.71 11.5519 5.571 L 12.2979 4.825 C 12.5889 4.533 12.7349 4.148 12.7349 3.764 C 12.7349 3.379 12.5899 2.995 12.2989 2.704 C 11.7149 2.119 10.7599 2.119 10.1769 2.702 L 9.4299 3.449 C 9.2899 3.382 9.1479 3.327 9.0009 3.275 L 9.0009 2.499 C 9.0009 1.674 8.3259 0.999 7.5009 0.999 C 6.6759 0.999 6.0009 1.674 6.0009 2.499 L 6.0009 3.275 C 5.8549 3.327 5.7109 3.383 5.5709 3.449 L 4.8249 2.703 C 4.2419 2.12 3.2869 2.12 2.7039 2.703 C 2.4119 2.995 2.2659 3.379 2.2659 3.763 C 2.2659 4.148 2.4119 4.532 2.7029 4.824 L 3.4499 5.571 C 3.3839 5.71 3.3289 5.853 3.2759 6 L 2.5009 5.999 C 1.6759 6 1.0009 6.674 1.0009 7.5 C 1.0009 8.325 1.6759 9 2.5009 9 L 3.2759 9 C 3.3279 9.146 3.3839 9.289 3.4499 9.429 L 2.7039 10.175 C 2.4119 10.467 2.2649 10.852 2.2659 11.236 C 2.2649 11.621 2.4129 12.006 2.7029 12.296 C 3.2869 12.88 4.2419 12.88 4.8249 12.297 L 5.5719 11.551 C 5.7109 11.616 5.8539 11.673 6.0009 11.725 L 5.9999 12.5 C 6.0009 13.325 6.6759 14 7.5009 14 Z"/>
    <path fill="none" stroke="currentColor" d="M 7.5 5.6 C 8.548 5.6 9.4 6.452 9.4 7.5 C 9.4 8.548 8.548 9.4 7.5 9.4 C 6.452 9.4 5.6 8.548 5.6 7.5 C 5.6 6.452 6.452 5.6 7.5 5.6"/>
</svg>
