<?xml version="1.0" encoding="utf-8"?>
<!-- Copyright © 2017 Apple Inc. All rights reserved. -->
<svg xmlns="http://www.w3.org/2000/svg" id="root" viewBox="0 0 16 16">
    <path fill="currentColor" d="M 11.9998221 10.0410502C 11.0811524 10.6435875 9.61857097 11 7.99238439 11 6.36619781 11 4.90361635 10.6435875 3.9849467 10.0410502L 3.9849467 11.5 2.9849467 11.5 2.9849467 8.5C 2.9849467 7.0082487 5.25725579 6 7.99238439 6 10.727513 6 12.9998221 7.0082487 12.9998221 8.5L 12.9998221 11.5 11.9998221 11.5 11.9998221 10.0410502 11.9998221 10.0410502zM 2.98000002 11.5L 3.98000002 11.5C 3.98000002 12.2173877 5.74378811 13 7.98743771 13 10.2310873 13 11.9948754 12.2173877 11.9948754 11.5L 12.9948754 11.5C 12.9948754 12.9917513 10.7225663 14 7.98743771 14 5.25230911 14 2.98000002 12.9917513 2.98000002 11.5zM 7.99238439 10C 10.236034 10 11.9998221 9.2173877 11.9998221 8.5 11.9998221 7.7826123 10.236034 7 7.99238439 7 5.74873479 7 3.9849467 7.7826123 3.9849467 8.5 3.9849467 9.2173877 5.74873479 10 7.99238439 10zM 14.006725 3.24933797C 11.0124982.107058363 3.67995721.257054505 1.09990772 3.69932639L .8000308 4.09941867 1.60021536 4.69917251 1.90009228 4.29908023C 4.11617595 1.34240728 10.793029 1.23749919 13.325665 3.98435594L 13.3068099 4.00340479 11 4.00340479 11 5.00340479 15 5.00340479 15 1 14.006725 1 14.006725 3.24933797 14.006725 3.24933797z"/>
</svg>