<?xml version="1.0" encoding="utf-8"?>
<!-- Copyright © 2013 Apple Inc. All rights reserved. -->
<svg xmlns="http://www.w3.org/2000/svg" id="root" version="1.1" viewBox="0 0 32 32">
    <path fill="rgb(48, 48, 48)" d="M 17.445312 1.4375 L 17.445312 7.28125 C 17.445312 8.078125 16.792969 8.726562 15.996094 8.726562 C 15.199219 8.726562 14.5625 8.078125 14.5625 7.28125 L 14.554688 1.441406 C 14.554688 0.644531 15.199219 0 15.996094 0 C 16.792969 0 17.445312 0.636719 17.445312 1.4375"/>
    <path fill="rgba(48, 48, 48, 0.87)" d="M 9.96875 2.664062 L 12.890625 7.726562 C 13.285156 8.417969 13.046875 9.300781 12.355469 9.699219 C 11.667969 10.101562 10.789062 9.859375 10.390625 9.167969 L 7.46875 4.117188 C 7.070312 3.425781 7.304688 2.542969 7.992188 2.144531 C 8.6875 1.746094 9.566406 1.972656 9.96875 2.664062"/>
    <path fill="rgba(48, 48, 48, 0.75)" d="M 4.109375 7.464844 L 9.171875 10.390625 C 9.859375 10.789062 10.101562 11.675781 9.695312 12.363281 C 9.296875 13.054688 8.421875 13.285156 7.730469 12.886719 L 2.667969 9.972656 C 1.980469 9.574219 1.738281 8.691406 2.136719 8.003906 C 2.542969 7.3125 3.417969 7.066406 4.109375 7.464844"/>
    <path fill="rgba(48, 48, 48, 0.64)" d="M 7.289062 17.445312 L 1.441406 17.441406 C 0.644531 17.441406 0 16.796875 0 15.996094 C 0 15.199219 0.644531 14.558594 1.441406 14.558594 L 7.277344 14.554688 C 8.082031 14.554688 8.726562 15.199219 8.726562 15.996094 C 8.726562 16.796875 8.089844 17.445312 7.289062 17.445312"/>
    <path fill="rgba(48, 48, 48, 0.53)" d="M 9.175781 21.605469 L 4.117188 24.527344 C 3.425781 24.925781 2.542969 24.6875 2.136719 23.996094 C 1.738281 23.308594 1.980469 22.429688 2.675781 22.03125 L 7.730469 19.105469 C 8.421875 18.707031 9.296875 18.945312 9.695312 19.636719 C 10.09375 20.324219 9.867188 21.210938 9.175781 21.605469"/>
    <path fill="rgba(48, 48, 48, 0.45)" d="M 12.894531 24.265625 L 9.972656 29.324219 C 9.574219 30.015625 8.6875 30.253906 7.992188 29.855469 C 7.304688 29.457031 7.078125 28.578125 7.476562 27.886719 L 10.386719 22.824219 C 10.78125 22.136719 11.667969 21.898438 12.355469 22.300781 C 13.046875 22.695312 13.292969 23.574219 12.894531 24.265625"/>
    <path fill="rgba(48, 48, 48, 0.37)" d="M 17.445312 24.710938 L 17.445312 30.554688 C 17.445312 31.351562 16.792969 32 15.996094 32 C 15.199219 32 14.5625 31.355469 14.5625 30.554688 L 14.554688 24.71875 C 14.554688 23.921875 15.199219 23.273438 15.996094 23.273438 C 16.792969 23.273438 17.445312 23.910156 17.445312 24.710938"/>
    <path fill="rgba(48, 48, 48, 0.31)" d="M 21.605469 22.820312 L 24.527344 27.882812 C 24.929688 28.574219 24.6875 29.460938 23.996094 29.855469 C 23.308594 30.257812 22.429688 30.015625 22.03125 29.324219 L 19.105469 24.273438 C 18.703125 23.582031 18.945312 22.699219 19.636719 22.300781 C 20.324219 21.902344 21.210938 22.128906 21.605469 22.820312"/>
    <path fill="rgba(48, 48, 48, 0.25)" d="M 24.265625 19.101562 L 29.324219 22.027344 C 30.015625 22.425781 30.253906 23.3125 29.855469 24.003906 C 29.457031 24.691406 28.578125 24.925781 27.890625 24.523438 L 22.828125 21.609375 C 22.132812 21.214844 21.898438 20.328125 22.296875 19.640625 C 22.695312 18.949219 23.574219 18.703125 24.265625 19.101562"/>
    <path fill="rgba(48, 48, 48, 0.22)" d="M 30.566406 17.445312 L 24.722656 17.441406 C 23.925781 17.441406 23.273438 16.796875 23.273438 15.996094 C 23.273438 15.199219 23.917969 14.558594 24.714844 14.558594 L 30.558594 14.554688 C 31.355469 14.554688 32 15.199219 32 15.996094 C 32 16.796875 31.363281 17.445312 30.566406 17.445312"/>
    <path fill="rgba(48, 48, 48, 0.19)" d="M 29.335938 9.96875 L 24.269531 12.890625 C 23.578125 13.289062 22.695312 13.050781 22.296875 12.359375 C 21.898438 11.671875 22.140625 10.792969 22.828125 10.394531 L 27.882812 7.46875 C 28.574219 7.070312 29.457031 7.308594 29.855469 7.996094 C 30.253906 8.6875 30.027344 9.570312 29.335938 9.96875"/>
    <path fill="rgba(48, 48, 48, 0.17)" d="M 24.535156 4.109375 L 21.605469 9.167969 C 21.210938 9.859375 20.324219 10.097656 19.636719 9.699219 C 18.945312 9.300781 18.710938 8.421875 19.109375 7.730469 L 22.023438 2.671875 C 22.425781 1.980469 23.308594 1.742188 23.996094 2.144531 C 24.6875 2.542969 24.933594 3.417969 24.535156 4.109375"/>
</svg>
