<?xml version="1.0" encoding="utf-8"?>
<!-- Copyright © 2013 Apple Inc. All rights reserved. -->
<svg version="1.1" xmlns="http://www.w3.org/2000/svg" viewBox="0 0 32 32">
    <path fill="rgb(48, 48, 48)" d="M 14.550781 30.5625 L 14.550781 24.71875 C 14.550781 23.921875 15.203125 23.273438 16 23.273438 C 16.796875 23.273438 17.433594 23.921875 17.433594 24.71875 L 17.441406 30.554688 C 17.441406 31.351562 16.796875 32 16 32 C 15.203125 32 14.550781 31.359375 14.550781 30.5625"/>
    <path fill="rgba(48, 48, 48, 0.87)" d="M 22.03125 29.335938 L 19.105469 24.269531 C 18.710938 23.582031 18.949219 22.695312 19.640625 22.296875 C 20.328125 21.898438 21.207031 22.140625 21.605469 22.828125 L 24.527344 27.882812 C 24.925781 28.574219 24.691406 29.457031 24.003906 29.855469 C 23.308594 30.253906 22.429688 30.027344 22.03125 29.335938"/>
    <path fill="rgba(48, 48, 48, 0.75)" d="M 27.886719 24.535156 L 22.828125 21.609375 C 22.136719 21.210938 21.894531 20.324219 22.300781 19.632812 C 22.699219 18.941406 23.578125 18.710938 24.265625 19.109375 L 29.328125 22.023438 C 30.015625 22.425781 30.257812 23.304688 29.859375 23.996094 C 29.453125 24.6875 28.578125 24.933594 27.886719 24.535156"/>
    <path fill="rgba(48, 48, 48, 0.64)" d="M 24.707031 14.554688 L 30.554688 14.558594 C 31.351562 14.558594 31.996094 15.203125 31.996094 16 C 31.996094 16.800781 31.351562 17.4375 30.554688 17.4375 L 24.71875 17.445312 C 23.914062 17.445312 23.269531 16.800781 23.269531 16 C 23.269531 15.203125 23.910156 14.554688 24.707031 14.554688"/>
    <path fill="rgba(48, 48, 48, 0.53)" d="M 22.820312 10.390625 L 27.878906 7.472656 C 28.570312 7.074219 29.453125 7.3125 29.859375 8 C 30.257812 8.691406 30.015625 9.570312 29.320312 9.96875 L 24.265625 12.894531 C 23.578125 13.292969 22.699219 13.054688 22.300781 12.363281 C 21.902344 11.671875 22.128906 10.789062 22.820312 10.390625"/>
    <path fill="rgba(48, 48, 48, 0.45)" d="M 19.101562 7.730469 L 22.023438 2.671875 C 22.421875 1.980469 23.308594 1.746094 24.003906 2.144531 C 24.691406 2.542969 24.917969 3.421875 24.519531 4.113281 L 21.613281 9.171875 C 21.214844 9.863281 20.328125 10.097656 19.640625 9.699219 C 18.949219 9.300781 18.703125 8.425781 19.101562 7.730469"/>
    <path fill="rgba(48, 48, 48, 0.37)" d="M 14.550781 7.289062 L 14.550781 1.445312 C 14.550781 0.644531 15.203125 0 16 0 C 16.796875 0 17.433594 0.644531 17.433594 1.441406 L 17.441406 7.28125 C 17.441406 8.078125 16.796875 8.726562 16 8.726562 C 15.203125 8.726562 14.550781 8.085938 14.550781 7.289062"/>
    <path fill="rgba(48, 48, 48, 0.31)" d="M 10.390625 9.179688 L 7.46875 4.113281 C 7.070312 3.425781 7.308594 2.539062 8 2.140625 C 8.6875 1.742188 9.566406 1.980469 9.964844 2.671875 L 12.890625 7.726562 C 13.292969 8.417969 13.050781 9.300781 12.363281 9.699219 C 11.671875 10.097656 10.789062 9.871094 10.390625 9.179688"/>
    <path fill="rgba(48, 48, 48, 0.25)" d="M 7.730469 12.894531 L 2.671875 9.972656 C 1.980469 9.570312 1.742188 8.6875 2.140625 7.996094 C 2.539062 7.308594 3.417969 7.074219 4.105469 7.472656 L 9.167969 10.386719 C 9.863281 10.785156 10.097656 11.667969 9.699219 12.359375 C 9.300781 13.050781 8.421875 13.296875 7.730469 12.894531"/>
    <path fill="rgba(48, 48, 48, 0.22)" d="M 1.429688 14.554688 L 7.273438 14.558594 C 8.070312 14.558594 8.722656 15.203125 8.722656 16 C 8.722656 16.800781 8.078125 17.4375 7.28125 17.4375 L 1.4375 17.445312 C 0.640625 17.445312 -0.00390625 16.800781 -0.00390625 16 C -0.00390625 15.203125 0.632812 14.554688 1.429688 14.554688"/>
    <path fill="rgba(48, 48, 48, 0.19)" d="M 2.660156 22.027344 L 7.726562 19.109375 C 8.417969 18.710938 9.300781 18.945312 9.699219 19.636719 C 10.097656 20.328125 9.855469 21.207031 9.167969 21.605469 L 4.113281 24.53125 C 3.421875 24.929688 2.539062 24.691406 2.140625 24 C 1.742188 23.308594 1.96875 22.429688 2.660156 22.027344"/>
    <path fill="rgba(48, 48, 48, 0.17)" d="M 7.460938 27.890625 L 10.390625 22.828125 C 10.789062 22.140625 11.671875 21.902344 12.363281 22.300781 C 13.050781 22.699219 13.285156 23.578125 12.886719 24.269531 L 9.972656 29.328125 C 9.574219 30.019531 8.6875 30.253906 8 29.855469 C 7.308594 29.457031 7.0625 28.578125 7.460938 27.890625"/>
</svg>
