<?xml version="1.0" encoding="utf-8"?>
<!-- Copyright © 2013 Apple Inc. All rights reserved. -->
<svg xmlns="http://www.w3.org/2000/svg" id="root" version="1.1" viewBox="0 0 32 32">
    <path fill="rgb(48, 48, 48)" d="M 24.53125 4.109375 L 21.609375 9.171875 C 21.210938 9.863281 20.324219 10.097656 19.632812 9.699219 C 18.941406 9.300781 18.714844 8.421875 19.113281 7.730469 L 22.027344 2.671875 C 22.425781 1.980469 23.304688 1.742188 23.996094 2.140625 C 24.6875 2.539062 24.929688 3.417969 24.53125 4.109375"/>
    <path fill="rgba(48, 48, 48, 0.87)" d="M 17.441406 1.433594 L 17.441406 7.28125 C 17.441406 8.078125 16.792969 8.722656 15.996094 8.722656 C 15.199219 8.722656 14.558594 8.078125 14.558594 7.28125 L 14.554688 1.445312 C 14.554688 0.644531 15.199219 -0.00390625 15.992188 0 C 16.792969 0 17.441406 0.636719 17.441406 1.433594"/>
    <path fill="rgba(48, 48, 48, 0.75)" d="M 9.96875 2.664062 L 12.890625 7.726562 C 13.289062 8.417969 13.054688 9.304688 12.355469 9.699219 C 11.667969 10.097656 10.792969 9.859375 10.394531 9.167969 L 7.46875 4.117188 C 7.070312 3.425781 7.304688 2.542969 7.996094 2.140625 C 8.691406 1.746094 9.570312 1.972656 9.96875 2.664062"/>
    <path fill="rgba(48, 48, 48, 0.64)" d="M 7.734375 12.898438 L 2.667969 9.96875 C 1.980469 9.570312 1.746094 8.6875 2.144531 8 C 2.542969 7.308594 3.421875 7.074219 4.109375 7.472656 L 9.167969 10.386719 C 9.867188 10.789062 10.101562 11.667969 9.699219 12.359375 C 9.300781 13.050781 8.425781 13.296875 7.734375 12.898438"/>
    <path fill="rgba(48, 48, 48, 0.53)" d="M 7.289062 17.445312 L 1.445312 17.441406 C 0.648438 17.441406 0 16.796875 -0.00390625 15.996094 C -0.00390625 15.199219 0.640625 14.558594 1.445312 14.5625 L 7.285156 14.554688 C 8.082031 14.554688 8.722656 15.199219 8.722656 15.996094 C 8.722656 16.792969 8.085938 17.445312 7.289062 17.445312"/>
    <path fill="rgba(48, 48, 48, 0.45)" d="M 9.179688 21.609375 L 4.117188 24.527344 C 3.425781 24.925781 2.539062 24.6875 2.140625 23.996094 C 1.742188 23.304688 1.984375 22.429688 2.675781 22.03125 L 7.722656 19.105469 C 8.414062 18.707031 9.296875 18.941406 9.695312 19.632812 C 10.09375 20.324219 9.867188 21.207031 9.179688 21.609375"/>
    <path fill="rgba(48, 48, 48, 0.37)" d="M 12.894531 24.265625 L 9.972656 29.328125 C 9.574219 30.019531 8.6875 30.253906 7.996094 29.855469 C 7.304688 29.457031 7.078125 28.578125 7.476562 27.886719 L 10.390625 22.828125 C 10.789062 22.136719 11.667969 21.898438 12.359375 22.296875 C 13.050781 22.695312 13.292969 23.574219 12.894531 24.265625"/>
    <path fill="rgba(48, 48, 48, 0.31)" d="M 17.445312 24.707031 L 17.445312 30.554688 C 17.445312 31.351562 16.792969 32 15.996094 32 C 15.199219 32 14.5625 31.355469 14.5625 30.558594 L 14.550781 24.714844 C 14.550781 23.917969 15.199219 23.273438 15.996094 23.273438 C 16.796875 23.273438 17.445312 23.914062 17.445312 24.707031"/>
    <path fill="rgba(48, 48, 48, 0.25)" d="M 21.605469 22.820312 L 24.523438 27.882812 C 24.921875 28.574219 24.6875 29.457031 23.996094 29.855469 C 23.308594 30.253906 22.433594 30.019531 22.035156 29.328125 L 19.109375 24.273438 C 18.703125 23.582031 18.945312 22.699219 19.632812 22.300781 C 20.324219 21.902344 21.207031 22.128906 21.605469 22.820312"/>
    <path fill="rgba(48, 48, 48, 0.22)" d="M 27.890625 24.535156 L 22.832031 21.609375 C 22.140625 21.210938 21.902344 20.324219 22.300781 19.636719 C 22.699219 18.945312 23.578125 18.710938 24.265625 19.109375 L 29.332031 22.027344 C 30.019531 22.425781 30.257812 23.308594 29.855469 24 C 29.457031 24.6875 28.582031 24.933594 27.890625 24.535156"/>
    <path fill="rgba(48, 48, 48, 0.19)" d="M 30.566406 17.445312 L 24.71875 17.441406 C 23.921875 17.441406 23.273438 16.796875 23.273438 15.996094 C 23.273438 15.199219 23.921875 14.558594 24.71875 14.558594 L 30.554688 14.554688 C 31.355469 14.554688 32 15.199219 32 15.996094 C 32 16.796875 31.363281 17.445312 30.566406 17.445312"/>
    <path fill="rgba(48, 48, 48, 0.17)" d="M 29.335938 9.972656 L 24.269531 12.886719 C 23.582031 13.289062 22.699219 13.050781 22.296875 12.359375 C 21.898438 11.667969 22.136719 10.792969 22.828125 10.390625 L 27.882812 7.46875 C 28.574219 7.070312 29.457031 7.308594 29.855469 8 C 30.253906 8.6875 30.027344 9.570312 29.335938 9.972656"/>
</svg>
