<?xml version="1.0" encoding="utf-8"?>
<!-- Copyright © 2013 Apple Inc. All rights reserved. -->
<svg version="1.1" xmlns="http://www.w3.org/2000/svg" viewBox="0 0 32 32">
    <path fill="rgb(48, 48, 48)" d="M 29.332031 9.96875 L 24.273438 12.890625 C 23.582031 13.289062 22.695312 13.050781 22.296875 12.359375 C 21.898438 11.671875 22.140625 10.796875 22.832031 10.398438 L 27.882812 7.472656 C 28.574219 7.074219 29.453125 7.308594 29.851562 7.996094 C 30.253906 8.6875 30.023438 9.570312 29.332031 9.96875"/>
    <path fill="rgba(48, 48, 48, 0.87)" d="M 24.53125 4.109375 L 21.605469 9.171875 C 21.207031 9.859375 20.324219 10.09375 19.632812 9.695312 C 18.941406 9.296875 18.710938 8.417969 19.109375 7.730469 L 22.023438 2.671875 C 22.425781 1.980469 23.304688 1.742188 23.996094 2.140625 C 24.6875 2.539062 24.929688 3.417969 24.53125 4.109375"/>
    <path fill="rgba(48, 48, 48, 0.75)" d="M 17.445312 1.4375 L 17.441406 7.28125 C 17.441406 8.078125 16.796875 8.730469 15.992188 8.722656 C 15.195312 8.722656 14.558594 8.082031 14.558594 7.28125 L 14.550781 1.441406 C 14.554688 0.644531 15.195312 -0.00390625 15.996094 -0.00390625 C 16.796875 0.00390625 17.445312 0.636719 17.445312 1.4375"/>
    <path fill="rgba(48, 48, 48, 0.64)" d="M 10.390625 9.183594 L 7.46875 4.113281 C 7.074219 3.421875 7.3125 2.542969 8 2.144531 C 8.691406 1.746094 9.566406 1.980469 9.964844 2.671875 L 12.890625 7.722656 C 13.292969 8.417969 13.054688 9.300781 12.363281 9.699219 C 11.671875 10.097656 10.789062 9.871094 10.390625 9.183594"/>
    <path fill="rgba(48, 48, 48, 0.53)" d="M 7.730469 12.894531 L 2.671875 9.972656 C 1.984375 9.574219 1.746094 8.691406 2.140625 7.996094 C 2.539062 7.304688 3.421875 7.074219 4.113281 7.476562 L 9.171875 10.390625 C 9.863281 10.789062 10.097656 11.667969 9.699219 12.355469 C 9.300781 13.046875 8.421875 13.292969 7.730469 12.894531"/>
    <path fill="rgba(48, 48, 48, 0.45)" d="M 7.289062 17.445312 L 1.445312 17.445312 C 0.648438 17.445312 -0.00390625 16.792969 -0.00390625 15.996094 C -0.00390625 15.199219 0.644531 14.5625 1.445312 14.5625 L 7.28125 14.550781 C 8.078125 14.550781 8.722656 15.199219 8.722656 15.996094 C 8.722656 16.792969 8.085938 17.445312 7.289062 17.445312"/>
    <path fill="rgba(48, 48, 48, 0.37)" d="M 9.179688 21.605469 L 4.117188 24.527344 C 3.425781 24.929688 2.539062 24.6875 2.140625 23.996094 C 1.742188 23.308594 1.984375 22.433594 2.675781 22.035156 L 7.726562 19.109375 C 8.417969 18.710938 9.300781 18.945312 9.699219 19.632812 C 10.097656 20.324219 9.867188 21.207031 9.179688 21.605469"/>
    <path fill="rgba(48, 48, 48, 0.31)" d="M 12.898438 24.265625 L 9.972656 29.328125 C 9.574219 30.019531 8.6875 30.253906 7.996094 29.855469 C 7.304688 29.457031 7.074219 28.578125 7.472656 27.886719 L 10.386719 22.824219 C 10.785156 22.132812 11.667969 21.902344 12.359375 22.300781 C 13.050781 22.699219 13.296875 23.578125 12.898438 24.265625"/>
    <path fill="rgba(48, 48, 48, 0.25)" d="M 17.445312 24.710938 L 17.441406 30.554688 C 17.441406 31.351562 16.792969 32 15.996094 32 C 15.199219 32 14.5625 31.359375 14.5625 30.5625 L 14.554688 24.71875 C 14.550781 23.917969 15.199219 23.273438 15.996094 23.273438 C 16.792969 23.273438 17.445312 23.910156 17.445312 24.710938"/>
    <path fill="rgba(48, 48, 48, 0.22)" d="M 22.03125 29.335938 L 19.109375 24.277344 C 18.710938 23.585938 18.949219 22.699219 19.636719 22.300781 C 20.328125 21.902344 21.207031 22.136719 21.605469 22.828125 L 24.53125 27.886719 C 24.929688 28.574219 24.691406 29.457031 24 29.855469 C 23.3125 30.253906 22.429688 30.027344 22.03125 29.335938"/>
    <path fill="rgba(48, 48, 48, 0.19)" d="M 27.890625 24.535156 L 22.828125 21.609375 C 22.136719 21.210938 21.898438 20.324219 22.300781 19.636719 C 22.699219 18.945312 23.578125 18.714844 24.269531 19.113281 L 29.328125 22.027344 C 30.019531 22.425781 30.253906 23.308594 29.855469 23.996094 C 29.457031 24.6875 28.582031 24.933594 27.890625 24.535156"/>
    <path fill="rgba(48, 48, 48, 0.17)" d="M 30.5625 17.449219 L 24.71875 17.441406 C 23.921875 17.441406 23.273438 16.796875 23.273438 16 C 23.273438 15.199219 23.917969 14.558594 24.71875 14.558594 L 30.554688 14.554688 C 31.355469 14.554688 32 15.203125 32 16 C 32 16.796875 31.363281 17.449219 30.5625 17.449219"/>
</svg>
