<?xml version="1.0" encoding="utf-8"?>
<!-- Copyright © 2013 Apple Inc. All rights reserved. -->
<svg version="1.1" xmlns="http://www.w3.org/2000/svg" viewBox="0 0 32 32">
    <path fill="rgb(48, 48, 48)" d="M 9.96875 2.664062 L 12.890625 7.726562 C 13.289062 8.414062 13.050781 9.300781 12.359375 9.699219 C 11.667969 10.101562 10.792969 9.859375 10.394531 9.167969 L 7.472656 4.113281 C 7.070312 3.421875 7.304688 2.542969 7.996094 2.144531 C 8.6875 1.746094 9.570312 1.972656 9.96875 2.664062"/>
    <path fill="rgba(48, 48, 48, 0.87)" d="M 4.105469 7.464844 L 9.167969 10.390625 C 9.859375 10.789062 10.09375 11.675781 9.695312 12.363281 C 9.296875 13.054688 8.417969 13.285156 7.726562 12.886719 L 2.671875 9.972656 C 1.980469 9.574219 1.742188 8.691406 2.140625 8.003906 C 2.539062 7.3125 3.414062 7.066406 4.105469 7.464844"/>
    <path fill="rgba(48, 48, 48, 0.75)" d="M 1.433594 14.550781 L 7.28125 14.554688 C 8.078125 14.554688 8.726562 15.203125 8.722656 16.003906 C 8.722656 16.800781 8.078125 17.4375 7.28125 17.4375 L 1.441406 17.445312 C 0.644531 17.445312 -0.00390625 16.800781 -0.00390625 16.003906 C 0 15.203125 0.636719 14.550781 1.433594 14.550781"/>
    <path fill="rgba(48, 48, 48, 0.64)" d="M 9.179688 21.605469 L 4.113281 24.527344 C 3.421875 24.925781 2.539062 24.6875 2.140625 23.996094 C 1.742188 23.304688 1.980469 22.429688 2.671875 22.03125 L 7.722656 19.105469 C 8.417969 18.703125 9.300781 18.941406 9.699219 19.632812 C 10.097656 20.324219 9.871094 21.207031 9.179688 21.605469"/>
    <path fill="rgba(48, 48, 48, 0.53)" d="M 12.894531 24.265625 L 9.972656 29.324219 C 9.574219 30.015625 8.691406 30.25 7.992188 29.855469 C 7.304688 29.457031 7.070312 28.578125 7.476562 27.882812 L 10.390625 22.824219 C 10.789062 22.132812 11.664062 21.898438 12.355469 22.300781 C 13.046875 22.699219 13.292969 23.578125 12.894531 24.265625"/>
    <path fill="rgba(48, 48, 48, 0.45)" d="M 17.445312 24.710938 L 17.445312 30.550781 C 17.445312 31.351562 16.792969 32 15.992188 32 C 15.195312 32 14.5625 31.351562 14.5625 30.554688 L 14.550781 24.71875 C 14.550781 23.921875 15.199219 23.273438 15.996094 23.273438 C 16.792969 23.273438 17.445312 23.910156 17.445312 24.710938"/>
    <path fill="rgba(48, 48, 48, 0.37)" d="M 21.605469 22.820312 L 24.527344 27.882812 C 24.925781 28.574219 24.6875 29.457031 23.996094 29.855469 C 23.304688 30.253906 22.429688 30.015625 22.03125 29.324219 L 19.109375 24.269531 C 18.710938 23.578125 18.941406 22.699219 19.632812 22.300781 C 20.324219 21.902344 21.207031 22.128906 21.605469 22.820312"/>
    <path fill="rgba(48, 48, 48, 0.31)" d="M 24.265625 19.101562 L 29.328125 22.027344 C 30.019531 22.425781 30.253906 23.308594 29.855469 24 C 29.457031 24.691406 28.578125 24.921875 27.886719 24.523438 L 22.824219 21.609375 C 22.132812 21.210938 21.898438 20.328125 22.296875 19.636719 C 22.695312 18.945312 23.574219 18.703125 24.265625 19.101562"/>
    <path fill="rgba(48, 48, 48, 0.25)" d="M 24.707031 14.554688 L 30.550781 14.558594 C 31.351562 14.558594 32 15.203125 32 16 C 32 16.796875 31.355469 17.4375 30.558594 17.4375 L 24.71875 17.445312 C 23.917969 17.445312 23.273438 16.800781 23.273438 16 C 23.273438 15.203125 23.910156 14.554688 24.707031 14.554688"/>
    <path fill="rgba(48, 48, 48, 0.22)" d="M 29.335938 9.96875 L 24.273438 12.886719 C 23.585938 13.285156 22.695312 13.050781 22.296875 12.359375 C 21.898438 11.667969 22.136719 10.792969 22.828125 10.394531 L 27.882812 7.464844 C 28.574219 7.066406 29.457031 7.304688 29.855469 7.996094 C 30.253906 8.6875 30.027344 9.570312 29.335938 9.96875"/>
    <path fill="rgba(48, 48, 48, 0.19)" d="M 24.535156 4.109375 L 21.605469 9.167969 C 21.207031 9.859375 20.324219 10.097656 19.632812 9.699219 C 18.945312 9.300781 18.710938 8.417969 19.109375 7.730469 L 22.023438 2.667969 C 22.421875 1.976562 23.304688 1.742188 23.996094 2.140625 C 24.6875 2.539062 24.933594 3.417969 24.535156 4.109375"/>
    <path fill="rgba(48, 48, 48, 0.17)" d="M 17.445312 1.433594 L 17.441406 7.28125 C 17.441406 8.078125 16.796875 8.722656 15.996094 8.722656 C 15.199219 8.722656 14.558594 8.078125 14.558594 7.28125 L 14.550781 1.441406 C 14.550781 0.644531 15.199219 0 15.996094 0 C 16.792969 0 17.445312 0.636719 17.445312 1.433594"/>
</svg>
