<?xml version="1.0" encoding="utf-8"?>
<!-- Copyright © 2018 Apple Inc. All rights reserved. -->
<svg xmlns="http://www.w3.org/2000/svg" id="root" version="1.1" viewBox="0 0 16 16">
    <path fill="rgb(148, 190, 164)" d="M 13 1 L 3 1 C 1.898438 1 1 1.898438 1 3 L 1 13 C 1 14.101562 1.898438 15 3 15 L 13 15 C 14.101562 15 15 14.101562 15 13 L 15 3 C 15 1.898438 14.101562 1 13 1 Z"/>
    <path fill="rgb(101, 161, 134)" d="M 13 1 L 3 1 C 1.898438 1 1 1.898438 1 3 L 1 13 C 1 14.101562 1.898438 15 3 15 L 13 15 C 14.101562 15 15 14.101562 15 13 L 15 3 C 15 1.898438 14.101562 1 13 1 M 13 2 C 13.550781 2 14 2.449219 14 3 L 14 13 C 14 13.550781 13.550781 14 13 14 L 3 14 C 2.449219 14 2 13.550781 2 13 L 2 3 C 2 2.449219 2.449219 2 3 2 L 13 2"/>
    <path fill="rgb(101, 161, 134)" d="M 5 13 L 6 13 L 11 13 L 12 13 L 12 12 L 12 10.8648649 L 12 9.86486486 L 11 9.86486486 L 8.57948709 9.86486483 L 8.57948718 4 L 8.57948718 3 L 7.57948718 3 L 6 3 L 5 3 L 5 4 L 5 12 L 5 13 Z M 5 13"/>
    <path fill="white" d="M 6 4 L 7.57948718 4 L 7.57948718 10.8648649 L 11 10.8648649 L 11 12 L 6 12 L 6 4 Z M 6 4"/>
</svg>
