<?xml version="1.0" encoding="UTF-8"?>
<!-- Copyright © 2018 Apple Inc. All rights reserved. -->
<svg xmlns="http://www.w3.org/2000/svg" id="root" version="1.1" viewBox="0 0 16 16">
    <circle cx="8" cy="8" r="7.5" id="Oval" stroke="rgb(101, 161, 134)" fill="rgb(148, 190, 164)"/>
    <path d="M 9.05 7.38920455 L 12.375 5.5 L 12.375 10.5 L 9.05 8.61079545 L 9.05 9.5 C 9.05 10.0522847 8.60228475 10.5 8.05 10.5 L 4.25 10.5 C 3.69771525 10.5 3.25 10.0522847 3.25 9.5 L 3.25 6.5 C 3.25 5.94771525 3.69771525 5.5 4.25 5.5 L 8.05 5.5 C 8.60228475 5.5 9.05 5.94771525 9.05 6.5 L 9.05 7.38920455 Z" stroke="rgb(101, 161, 134)" fill="rgb(101, 161, 134)" stroke-width="2" stroke-linejoin="round"/>
    <path d="M 9.05 7.38920455 L 12.375 5.5 L 12.375 10.5 L 9.05 8.61079545 L 9.05 9.5 C 9.05 10.0522847 8.60228475 10.5 8.05 10.5 L 4.25 10.5 C 3.69771525 10.5 3.25 10.0522847 3.25 9.5 L 3.25 6.5 C 3.25 5.94771525 3.69771525 5.5 4.25 5.5 L 8.05 5.5 C 8.60228475 5.5 9.05 5.94771525 9.05 6.5 L 9.05 7.38920455 Z" fill="white"/>
</svg>
