<?xml version="1.0" encoding="utf-8"?>
<!-- Copyright © 2013 Apple Inc. All rights reserved. -->
<svg version="1.1" xmlns="http://www.w3.org/2000/svg" viewBox="0 0 16 16">
    <path d="M 10 4 H 8.854 C 8.739 4.355 8.416 4.616 8.022 4.616 C 7.627 4.616 7.305 4.355 7.189 4 H 6 v 8 H 7.2 c 0.129 -0.33 0.446 -0.565 0.823 -0.565 c 0.375 0 0.692 0.235 0.822 0.565 H 10 V 4 z M 13.499 10.991 v 1.5 H 12 V 14 H 8.845 c -0.13 -0.33 -0.447 -0.566 -0.822 -0.566 C 7.646 13.434 7.329 13.67 7.2 14 H 4 v -1.509 H 2.502 v -1.5 H 4 v -1 H 2.502 v -1.5 H 4 v -1 H 2.502 v -1.5 H 4 v -1 H 2.502 v -1.5 H 4 V 2 h 3.189 c 0.116 0.356 0.438 0.617 0.833 0.617 c 0.394 0 0.717 -0.261 0.832 -0.617 H 12 v 1.491 h 1.499 v 1.5 H 12 v 1 h 1.499 v 1.5 H 12 v 1 h 1.499 v 1.5 H 12 v 1 H 13.499 z"/>
</svg>
