<?xml version="1.0" encoding="UTF-8"?>
<!-- Copyright © 2019 Apple Inc. All rights reserved. -->
<svg xmlns="http://www.w3.org/2000/svg" id="root" version="1.1" viewBox="0 0 16 16">
    <path fill="rgb(148, 183, 219)" d="M 13 1 L 3 1 C 1.898438 1 1 1.898438 1 3 L 1 13 C 1 14.101562 1.898438 15 3 15 L 13 15 C 14.101562 15 15 14.101562 15 13 L 15 3 C 15 1.898438 14.101562 1 13 1 Z"/>
    <path fill="rgb(106, 136, 170)" d="M 13 1 L 3 1 C 1.898438 1 1 1.898438 1 3 L 1 13 C 1 14.101562 1.898438 15 3 15 L 13 15 C 14.101562 15 15 14.101562 15 13 L 15 3 C 15 1.898438 14.101562 1 13 1 M 13 2 C 13.550781 2 14 2.449219 14 3 L 14 13 C 14 13.550781 13.550781 14 13 14 L 3 14 C 2.449219 14 2 13.550781 2 13 L 2 3 C 2 2.449219 2.449219 2 3 2 L 13 2"/>
    <path fill="rgb(113  146  184)" d="M 5.5 3 C 6 3 6.2 3.33 6.5 4 L 8 7 L 9.5 4 C 9.8 3.33 10.2 3 10.5 3 L 10.5 3 L 12 3 C 12.66 3 13 3.33 13 4 L 13 12 C 13 12.66 12.66 13 12 13 L 10.5 13 C 9.8 13 9.5 12.66 9.5 12 L 9.5 11 L 9 12 C 8.5 13 8.5 13 8 13 L 8 13 C 7.5 13 7.5 13 7 12 L 7 12 L 6.5 11 L 6.5 12 C 6.5 12.5 6 13 5.5 13 L 5.5 13 L 4 13 C 3.5 13 3 12.75 3 12 L 3 12 L 3 4 C 3 3.5 3.5 3 4 3 L 4 3 L 5.5 3 Z"/>
    <path fill="white" d="M 4 12 V 4 H 5.5 L 8 9 L 10.5 4 H 12 V 12 H 10.5 V 7 L 8 12 L 5.5 7 V 12 H 4 Z"/>
</svg>
