<?xml version="1.0" encoding="utf-8"?>
<!-- Copyright © 2013 Apple Inc. All rights reserved. -->
<svg version="1.1" xmlns="http://www.w3.org/2000/svg" viewBox="0 0 16 16">
    <path d="M 5.410156 3.832031 C 5.289062 3.957031 5.226562 4.203125 5.21875 4.566406 C 5.191406 5.570312 5.160156 6.046875 5.121094 6.347656 C 5.078125 6.648438 4.988281 6.9375 4.839844 7.210938 C 4.695312 7.488281 4.421875 7.75 4.023438 8 C 4.402344 8.226562 4.675781 8.496094 4.847656 8.8125 C 5.019531 9.128906 5.121094 9.578125 5.148438 10.171875 L 5.242188 11.820312 C 5.28125 11.996094 5.375 12.128906 5.515625 12.21875 C 5.660156 12.308594 6.25 12.355469 6.765625 12.355469 L 6.765625 14.042969 L 6.4375 14.042969 C 5.757812 14.042969 4.800781 13.964844 4.429688 13.8125 C 4.0625 13.660156 3.796875 13.410156 3.628906 13.0625 C 3.464844 12.714844 3.382812 12.152344 3.382812 11.375 C 3.382812 10.523438 3.351562 9.976562 3.292969 9.738281 C 3.234375 9.496094 3.121094 9.277344 2.949219 9.078125 C 2.78125 8.878906 2.480469 8.878906 2.011719 8.863281 L 2.011719 7.140625 C 2.472656 7.136719 2.800781 7.109375 3.035156 6.84375 C 3.265625 6.574219 3.382812 5.976562 3.382812 5.046875 C 3.382812 4.339844 3.410156 3.8125 3.460938 3.472656 C 3.515625 3.132812 3.644531 2.84375 3.847656 2.613281 C 4.050781 2.382812 4.3125 2.21875 4.632812 2.117188 C 4.953125 2.011719 5.847656 1.960938 6.4375 1.960938 L 6.773438 1.960938 L 6.773438 3.644531 C 6.15625 3.644531 5.53125 3.707031 5.410156 3.832031 Z M 13.050781 9.078125 C 12.878906 9.277344 12.765625 9.496094 12.707031 9.738281 C 12.648438 9.976562 12.617188 10.523438 12.617188 11.375 C 12.617188 12.152344 12.535156 12.714844 12.371094 13.0625 C 12.203125 13.410156 11.9375 13.660156 11.570312 13.8125 C 11.199219 13.964844 10.242188 14.042969 9.5625 14.042969 L 9.234375 14.042969 L 9.234375 12.355469 C 9.75 12.355469 10.339844 12.308594 10.484375 12.21875 C 10.625 12.128906 10.71875 11.996094 10.757812 11.820312 L 10.851562 10.171875 C 10.878906 9.578125 10.980469 9.128906 11.152344 8.8125 C 11.324219 8.496094 11.597656 8.226562 11.976562 8 C 11.578125 7.75 11.304688 7.488281 11.160156 7.210938 C 11.011719 6.9375 10.921875 6.648438 10.878906 6.347656 C 10.839844 6.046875 10.808594 5.570312 10.78125 4.566406 C 10.773438 4.203125 10.710938 3.957031 10.589844 3.832031 C 10.46875 3.707031 9.84375 3.644531 9.226562 3.644531 L 9.226562 1.960938 L 9.5625 1.960938 C 10.152344 1.960938 11.046875 2.011719 11.367188 2.117188 C 11.6875 2.21875 11.949219 2.382812 12.152344 2.613281 C 12.355469 2.84375 12.484375 3.132812 12.539062 3.472656 C 12.589844 3.8125 12.617188 4.339844 12.617188 5.046875 C 12.617188 5.976562 12.734375 6.574219 12.964844 6.84375 C 13.199219 7.109375 13.527344 7.136719 13.988281 7.140625 L 13.988281 8.863281 C 13.519531 8.878906 13.21875 8.878906 13.050781 9.078125 Z"/>
</svg>
