<?xml version="1.0" encoding="utf-8"?>
<!-- Copyright © 2015 Apple Inc. All rights reserved. -->
<svg viewBox="0 0 16 16" version="1.1" xmlns="http://www.w3.org/2000/svg">
    <path d="M 5.37429912 13.9462607 C 6.17726141 14.3022717 7.06560591 14.5 8 14.5 C 11.5898509 14.5 14.5 11.5814876 14.5 7.98132007 C 14.5 7.04424071 14.3028383 6.15334327 13.9478475 5.34807342 L 13.9478475 5.34807342 L 11.8426159 6.56702248 C 12.0090316 7.01308754 12.0999999 7.49592037 12.0999999 8 C 12.0999999 10.2643674 10.2643674 12.0999999 8 12.0999999 C 7.50160696 12.0999999 7.02398405 12.0110724 6.58213286 11.8482191 L 5.37429912 13.9462607 Z M 4.16246106 13.2432112 C 2.54820632 12.0571351 1.5 10.1419902 1.5 7.98132007 C 1.5 4.61832804 4.03934379 1.850136 7.30000001 1.5 L 7.30000001 3.95951995 C 5.36910249 4.2916812 3.9000001 5.97427697 3.9000001 8 C 3.9000001 9.2634575 4.47149612 10.393435 5.37008678 11.145531 L 4.16246106 13.2432112 Z M 13.2468127 4.13275273 C 12.1939572 2.69156387 10.5649628 1.70026355 8.69999999 1.5 L 8.69999999 1.5 L 8.69999999 3.95951995 C 9.67061775 4.12648977 10.5245472 4.634693 11.1338417 5.35618297 L 13.2468127 4.13275273 L 13.2468127 4.13275273 Z" fill="black" stroke-width="1"/>
</svg>
