<?xml version="1.0" encoding="utf-8"?>
<!-- Copyright © 2013 Apple Inc. All rights reserved. -->
<svg version="1.1" xmlns="http://www.w3.org/2000/svg" viewBox="0 0 16 16">
    <path d="M 8.902344 5.539062 L 8.761719 5.097656 C 8.554688 4.476562 8.070312 3.367188 6.707031 2.582031 L 3.175781 3.738281 L 3.359375 4.292969 C 4.238281 3.945312 4.398438 3.945312 4.558594 3.945312 C 5.460938 3.945312 5.921875 4.730469 6.40625 6.046875 L 7.167969 8.148438 L 5.761719 10.386719 C 5.113281 11.402344 4.882812 11.75 4.628906 11.75 C 4.214844 11.75 4.582031 10.710938 3.496094 10.710938 C 2.574219 10.710938 2.113281 11.3125 2.113281 12.050781 C 2.113281 12.789062 2.757812 13.4375 3.914062 13.4375 C 5.4375 13.4375 6.316406 12.28125 6.914062 11.265625 L 7.746094 9.832031 L 8.417969 11.566406 C 8.738281 12.421875 9.179688 13.4375 10.542969 13.4375 C 11.972656 13.4375 12.804688 11.957031 13.289062 10.085938 L 12.734375 10.085938 C 12.25 11.542969 11.859375 11.660156 11.464844 11.660156 C 11.003906 11.660156 10.863281 10.851562 10.703125 10.410156 L 9.570312 7.222656 L 10.65625 5.398438 C 11.074219 4.707031 11.210938 4.476562 11.535156 4.476562 C 11.859375 4.476562 11.765625 5.261719 12.457031 5.261719 C 13.773438 5.261719 13.890625 4.246094 13.890625 3.738281 C 13.890625 3.207031 13.3125 2.582031 12.226562 2.582031 C 10.910156 2.582031 9.917969 3.96875 9.410156 4.753906 Z"/>
</svg>
