<?xml version="1.0" encoding="utf-8"?>
<!-- Copyright © 2020 Apple Inc. All rights reserved. -->
<svg xmlns="http://www.w3.org/2000/svg" id="root" viewBox="0 0 13 14">
    <path fill="none" stroke="currentColor" d="M 4.544 10.498 C 3.829 10.498 2.756 10.498 1.326 10.498 C 1.162 10.498 1 10.337 1 10.177 L 1 0.821 C 1 0.662 1.163 0.5 1.325 0.5 L 1.325 0.5 L 8.177 0.5 C 8.356 0.5 8.5 0.644 8.5 0.823 C 8.5 2.019 8.5 2.916 8.5 3.514"/>
    <path fill="currentColor" d="M 4.825 3 L 8.283 3 C 8.493 3 8.695 3.080 8.848 3.224 L 12.242 6.427 C 12.407 6.582 12.5 6.799 12.5 7.025 L 12.5 13.177 C 12.5 13.615 12.112 13.998 11.674 13.998 L 4.826 13.998 C 4.388 13.998 4 13.615 4 13.177 L 4 3.821 C 4 3.384 4.388 3 4.825 3 Z M 8.010 3.806 L 8.010 7 L 11.395 7 L 8.010 3.806 Z"/>
</svg>