<?xml version="1.0" encoding="utf-8"?>
<!-- Copyright © 2017 Apple Inc. All rights reserved. -->
<svg xmlns="http://www.w3.org/2000/svg" id="root" viewBox="0 0 16 16">
    <path fill="currentColor" fill-rule="evenodd" d="M 6.85268842 1.31225524 L 2.2924099 1.31225524 C 1.02521157 1.31225524 0 2.33984362 0 3.60743812 L 0 12.729684 L 1.14285714 12.7391526 L 1.14285714 12.6691677 L 1.14358757 12.6691523 C 1.14213118 12.5505612 1.15865867 12.3224063 1.21233688 11.9970222 C 1.30136713 11.4573428 1.46586283 10.8392793 1.72513981 10.1519913 C 2.43346319 8.27437684 3.70022787 6.24707859 5.66336654 4.13473232 L 8.07379426 6.54516004 C 6.2997923 8.95249292 5.83493999 10.7203417 5.78635567 13.8907914 L 5.77971622 13.8907988 L 5.78225654 14.3244001 C 5.78185029 14.4262334 5.78180246 14.5294892 5.78208681 14.6342277 C 5.78258859 14.8189069 5.78258859 14.8189069 5.7827549 15.0017468 L 5.78622489 15.0017468 L 5.78641183 15.0336559 L 13.7075901 15.0248668 C 14.9747884 15.0248668 16 13.9972785 16 12.729684 L 16 3.60743812 C 16 2.34292982 14.9736531 1.31225524 13.7075901 1.31225524 L 9.47719891 1.31225524 L 8.16494367 0 L 6.85268842 1.31225524 L 6.85268842 1.31225524 Z M 8.97096491 7.25423676 C 7.84755495 8.78544902 7.31340061 10.0146365 7.08158958 11.6437637 L 14.9321757 11.6005727 L 14.8678561 4.73915256 L 13.7142857 4.73915256 L 13.7142857 3.59629542 L 14.8571429 3.59629542 C 14.8571429 2.96772377 14.3428563 2.45343828 13.7142857 2.45050859 L 10.6162464 2.45130276 L 12.1950727 4.030129 L 8.97096491 7.25423676 L 8.97096491 7.25423676 Z M 5.71238381 2.45255986 L 2.28571429 2.45343828 C 1.65714373 2.45343828 1.14285714 2.96772377 1.14285714 3.59629542 L 4.60612667 3.59629542 C 4.68781604 3.50633989 4.77068025 3.41627117 4.85472816 3.32609397 L 4.84678894 3.31815472 L 5.71238381 2.45255986 Z M 1.14285714 8.60749667 L 1.14285714 4.73915256 L 3.62561145 4.73915256 C 2.55552925 6.0633814 1.73771096 7.35803319 1.14285714 8.60749667 L 1.14285714 8.60749667 Z M 6.92928635 13.8895254 L 13.7142857 13.8820097 C 14.3350157 13.8820097 14.8459386 13.3804732 14.9393236 12.7434078 L 6.96927289 12.787256 C 6.94811354 13.1334719 6.93542219 13.4993353 6.92928635 13.8895254 Z M 6.46303301 3.31815472 L 8.87691794 5.73203965 L 10.5788286 4.030129 L 8.16494367 1.61624407 L 6.46303301 3.31815472 Z"/>
</svg>
