<?xml version="1.0" encoding="utf-8"?>
<!-- Copyright © 2014 Apple Inc. All rights reserved. -->
<svg version="1.1" xmlns="http://www.w3.org/2000/svg" viewBox="0 0 16 16">
    <path d="M 2.00678414 3 C 1.45075261 3 1 3.44483697 1 3.9955775 L 1 13.0044225 C 1 13.5542648 1.45117188 14 2.00678414 14 L 10.4932159 14 C 11.0492474 14 11.7814952 13.6559504 12.1351958 13.2236495 L 16 8.5 L 12.1351958 3.77635048 C 11.7843869 3.34758395 11.0488281 3 10.4932159 3 L 2.00678414 3 Z  M 7.81658283 6.92324842 L 7.72683888 6.64155229 C 7.594716 6.24518302 7.28559732 5.53720361 6.41557974 5.03613275 L 4.16200945 5.77402745 L 4.27917532 6.12801779 C 4.84007485 5.90615033 4.94228371 5.90615033 5.04449194 5.90615033 C 5.62034911 5.90615033 5.91450952 6.40722119 6.22362757 7.24732412 L 6.70974079 8.5884979 L 5.81230129 10.0169223 C 5.39848165 10.665073 5.25140112 10.8869399 5.0893636 10.8869399 C 4.82511784 10.8869399 5.05944895 10.2238321 4.36642654 10.2238321 C 3.7781051 10.2238321 3.48394405 10.6077365 3.48394405 11.078892 C 3.48394405 11.5500476 3.89527033 11.9638672 4.63316503 11.9638672 C 5.60539147 11.9638672 6.16629099 11.2259726 6.54770262 10.5778218 L 7.07868813 9.66293194 L 7.50746478 10.769774 C 7.71188124 11.3157165 7.993578 11.9638672 8.86359558 11.9638672 C 9.77599208 11.9638672 10.3069776 11.0190627 10.616095 9.8249701 L 10.2621053 9.8249701 C 9.95298725 10.754817 9.7036985 10.8296033 9.45191703 10.8296033 C 9.15775598 10.8296033 9.06801203 10.3135754 8.96580381 10.0318793 L 8.24286611 7.99768309 L 8.93588916 6.83350511 C 9.20262828 6.39226355 9.2898795 6.24518302 9.49678868 6.24518302 C 9.7036985 6.24518302 9.6438692 6.74625389 10.0851101 6.74625389 C 10.9252137 6.74625389 11 6.09810314 11 5.77402745 C 11 5.43499475 10.6310527 5.03613275 9.93802961 5.03613275 C 9.09792668 5.03613275 8.46473358 5.92110797 8.14065789 6.4221782 L 7.81658283 6.92324842 Z" fill-rule="evenodd"/>
</svg>
