<?xml version="1.0" encoding="utf-8"?>
<!-- Copyright © 2019-2020 Apple Inc. All rights reserved. -->
<svg xmlns="http://www.w3.org/2000/svg" version="1.1">
    <defs>
        <style>
          g:not(:target) {
              display: none;
          }

          #root,
          #light {
              color: black;
          }

          #dark {
              color: white;
          }
        </style>
    </defs>

    <symbol id="i" stroke-width="1" viewBox="0 0 32 32">
        <path fill="currentColor" fill-opacity="0.7" stroke="none" d="M 15.8169892 31.3925714 C 15.751381 30.6270139 15.7175753 29.8470591 15.7175753 29.0554498 C 15.7175753 28.4307507 15.7386281 27.8133095 15.7797492 27.2044743 C 16.4931465 27.1037153 17.0764948 26.5983202 17.2901459 25.9279371 C 19.3908004 25.8776576 21.419195 25.5546537 23.3359814 24.9953658 C 23.7762636 25.5498694 24.4562612 25.9054534 25.2193098 25.9054534 C 25.8418291 25.9054534 26.4090712 25.6687833 26.8359669 25.2805122 C 27.1467276 25.4826722 27.4634789 25.6785843 27.785955 25.8680282 C 24.952458 29.2457025 20.700281 31.3931034 15.9465517 31.3931034 C 15.9033225 31.3931034 15.8601348 31.3929259 15.8169892 31.3925714 Z M 14.6640302 31.3406191 C 12.8371669 31.1904628 11.1003839 30.722404 9.50911572 29.9918772 C 8.26090587 28.2843356 7.27597614 26.4684695 6.59139223 24.5708198 C 6.87577944 24.4304368 7.12839117 24.2354547 7.33553775 23.9995634 C 9.31440735 24.8623518 11.45214 25.4604364 13.6961991 25.7451635 C 13.8106934 26.2926689 14.1658752 26.7517509 14.646016 27.0066808 C 14.5975213 27.6805251 14.5726934 28.3640176 14.5726934 29.0554498 C 14.5726934 29.8278756 14.6036786 30.5903927 14.6640302 31.3406191 Z M 7.31809753 28.7603814 C 4.24167658 26.6847366 1.95309454 23.5304004 0.994815281 19.8398368 C 1.69758965 20.4987215 2.44762844 21.1136379 3.23976424 21.679798 C 3.16552796 21.9113338 3.12544525 22.1581605 3.12544525 22.4143491 C 3.12544525 23.7189998 4.16494943 24.7808613 5.46089585 24.8168717 C 5.93928061 26.1754143 6.56246254 27.4927556 7.31809753 28.7603814 Z M 0.612248724 17.8182477 C 0.538139856 17.2047043 0.5 16.580082 0.5 15.9465517 C 0.5 14.2444946 0.775291305 12.6067353 1.28377715 11.0753704 C 2.09426283 11.3869555 2.94688095 11.6527444 3.83404088 11.8678532 C 3.93038234 12.5697199 4.32975746 13.1749859 4.89592473 13.5474095 C 4.52132696 15.0696219 4.32600013 16.6362819 4.32600013 18.2363156 C 4.32600013 18.9222999 4.36190324 19.6021499 4.43244417 20.2749927 C 4.21391028 20.3872216 4.01481219 20.5319511 3.84153291 20.7027984 C 2.65798835 19.8500695 1.57513411 18.882533 0.612248724 17.8182477 Z M 1.68454255 10.0038659 C 3.70116332 5.16971281 8.10394973 1.57973847 13.4214704 0.705374328 C 10.4499785 3.1768328 8.09518973 6.03221065 6.52671136 9.15452545 C 6.42469404 9.14131645 6.32067021 9.13450424 6.21505531 9.13450424 C 5.17514904 9.13450424 4.28949422 9.7949332 3.95463899 10.719243 C 3.16451474 10.5215306 2.40580282 10.2816388 1.68454255 10.0038659 Z M 15.5270474 0.505586307 C 15.6664297 0.501869958 15.8062724 0.5 15.9465517 0.5 C 17.1593236 0.5 18.3394513 0.639766305 19.4717061 0.904070184 C 18.2626002 3.21336837 17.5467758 5.74910336 17.4376261 8.41729232 C 16.7638587 8.69700342 16.2900163 9.36130376 16.2900163 10.1362759 C 16.2900163 10.1758359 16.291251 10.2151075 16.2936841 10.2540543 C 14.2086584 10.9645191 11.8445107 11.367024 9.334073 11.367024 C 9.0918897 11.367024 8.85106786 11.3632781 8.61172673 11.3558711 C 8.55659818 10.6199637 8.17008778 9.97644464 7.60096388 9.5740822 C 9.33236356 6.17101186 12.0545158 3.09080726 15.5270507 0.50558387 Z M 20.6053948 1.21498351 C 21.9611091 1.64332533 23.2359856 2.25363804 24.4013638 3.01726152 C 23.7762032 5.29852905 21.99268 7.32899279 19.4615207 8.81631236 C 19.2242527 8.58063283 18.923794 8.40849061 18.5877972 8.32753829 C 18.7127954 5.80216348 19.4217338 3.40031199 20.6053948 1.21498351 Z M 25.387543 3.72007886 C 27.2057731 5.12613482 28.7017662 6.92876508 29.7458817 8.99832914 C 29.4607666 8.97473685 29.173302 8.96277195 28.8837175 8.96277195 C 25.394897 8.96277195 22.2137842 10.6994355 19.7414594 13.5825768 C 19.5813586 13.5376853 19.4125266 13.5136776 19.2380873 13.5136776 C 19.2147557 13.5136776 19.1915243 13.5141071 19.1684008 13.5149586 C 19.0185796 12.9781042 18.8956906 12.4326993 18.8009812 11.8798062 C 19.5076515 11.6160267 20.0108826 10.9349193 20.0108826 10.1362759 C 20.0108826 10.0337018 20.0025814 9.93306651 19.9866143 9.8350052 C 22.6512866 8.28420676 24.5886394 6.15771937 25.3875408 3.72007715 Z M 30.2952945 10.216233 C 31.0035463 11.9881116 31.3931034 13.9218387 31.3931034 15.9465517 C 31.3931034 17.2139101 31.2404723 18.4456195 30.9525891 19.624301 C 29.818034 20.5958358 28.5681107 21.4528903 27.2239829 22.1756397 C 26.7936449 21.5265209 26.0564598 21.0985204 25.2193098 21.0985204 C 24.7448195 21.0985204 24.3024434 21.2360171 23.9298513 21.4733406 C 22.5190098 20.064698 21.3451183 18.485143 20.4589827 16.7779372 C 20.8508349 16.4368577 21.0985204 15.9344093 21.0985204 15.3741108 C 21.0985204 14.9402427 20.9500031 14.5410628 20.7010342 14.2246365 C 22.9548522 11.6456385 25.8033943 10.1076539 28.8837175 10.1076539 C 29.360238 10.1076539 29.8312115 10.1444602 30.2952945 10.216233 Z M 30.3387851 21.5668379 C 29.865168 22.7787539 29.242894 23.9161998 28.4943838 24.956755 C 28.1477919 24.7560237 27.8081263 24.5475464 27.475743 24.3316264 C 27.5708511 24.0730358 27.6227763 23.7935753 27.6227763 23.5019869 C 27.6227763 23.4223902 27.618907 23.3436972 27.6113463 23.2660857 C 28.5667867 22.7618382 29.4781888 22.1933331 30.3387851 21.5668379 Z M 13.8168079 24.6064219 C 11.7178315 24.3379121 9.71811584 23.781522 7.86504235 22.9816351 C 7.90905573 22.7997414 7.93237821 22.6097688 7.93237821 22.4143491 C 7.93237821 21.0963035 6.87141925 20.0260581 5.55693087 20.0110425 C 5.49987265 19.4244618 5.47088206 18.8326658 5.47088206 18.2363156 C 5.47088206 16.7701979 5.64610543 15.3316069 5.98283729 13.9303632 C 6.05925493 13.9376894 6.13671744 13.9414372 6.21505531 13.9414372 C 7.20237556 13.9414372 8.05065031 13.3461126 8.4204986 12.4948445 C 8.72298587 12.5061709 9.02758515 12.5119059 9.334073 12.5119059 C 11.9834088 12.5119059 14.4916266 12.0833704 16.7144124 11.3191552 C 16.9528091 11.608241 17.2768069 11.8241076 17.6476101 11.9279592 C 17.7566276 12.600031 17.9044263 13.2615362 18.0890295 13.9108363 C 17.655855 14.2514657 17.3776541 14.7802996 17.3776541 15.3741108 C 17.3776541 15.7785833 17.5067284 16.1529089 17.7259341 16.4581447 C 16.5423815 18.5251484 15.6452824 20.9275286 15.1161593 23.5453258 C 14.53396 23.673244 14.0539492 24.0738364 13.8168079 24.6064219 Z M 16.2612375 23.6567227 C 16.7593409 21.2479762 17.5818208 19.0419616 18.6539553 17.1409942 C 18.8376601 17.201694 19.0340374 17.2345439 19.2380873 17.2345439 C 19.2928066 17.2345439 19.3469741 17.2321816 19.4004934 17.2275533 C 20.349731 19.0774745 21.6145139 20.7843879 23.1372211 22.3005359 C 22.932823 22.65399 22.8158433 23.0643274 22.8158433 23.5019869 C 22.8158433 23.6523812 22.8296567 23.7995493 22.856084 23.9422915 C 21.0872575 24.4439045 19.2191729 24.7346258 17.2855971 24.7828253 C 17.1200965 24.2775611 16.7440838 23.8676341 16.2612375 23.6567227 Z"/>
        <circle cx="15.947" cy="15.947" r="15.447" fill="none" stroke="currentColor"/>
    </symbol>

    <g id="root"><use href="#i"/></g>
    <g id="light"><use href="#i"/></g>
    <g id="dark"><use href="#i"/></g>
</svg>