<?xml version="1.0" encoding="utf-8"?>
<!-- Copyright © 2019-2020 Apple Inc. All rights reserved. -->
<svg xmlns="http://www.w3.org/2000/svg" version="1.1">
    <defs>
        <style>
          g:not(:target) {
              display: none;
          }

          #root,
          #light {
              color: black;
          }

          #dark {
              color: white;
          }
        </style>
    </defs>

    <symbol id="i" stroke-width="1" viewBox="0 0 32 32">
        <path fill="currentColor" fill-opacity="0.7" stroke="none" d="M 15.817 31.393 C 15.751 30.627 15.718 29.847 15.718 29.055 C 15.718 28.431 15.739 27.813 15.78 27.204 C 16.493 27.104 17.076 26.598 17.29 25.928 C 19.391 25.878 21.419 25.555 23.336 24.995 C 23.776 25.55 24.456 25.905 25.219 25.905 C 25.842 25.905 26.409 25.669 26.836 25.281 C 27.147 25.483 27.463 25.679 27.786 25.868 C 24.952 29.246 20.7 31.393 15.947 31.393 C 15.903 31.393 15.86 31.393 15.817 31.393 Z M 14.664 31.341 C 12.837 31.19 11.1 30.722 9.509 29.992 C 8.261 28.284 7.276 26.468 6.591 24.571 C 6.876 24.43 7.128 24.235 7.336 24 C 9.314 24.862 11.452 25.46 13.696 25.745 C 13.811 26.293 14.166 26.752 14.646 27.007 C 14.598 27.681 14.573 28.364 14.573 29.055 C 14.573 29.828 14.604 30.59 14.664 31.341 Z M 7.318 28.76 C 4.242 26.685 1.953 23.53 0.995 19.84 C 1.698 20.499 2.448 21.114 3.24 21.68 C 3.166 21.911 3.125 22.158 3.125 22.414 C 3.125 23.719 4.165 24.781 5.461 24.817 C 5.939 26.175 6.562 27.493 7.318 28.76 Z M 0.612 17.818 C 0.538 17.205 0.5 16.58 0.5 15.947 C 0.5 14.244 0.775 12.607 1.284 11.075 C 2.094 11.387 2.947 11.653 3.834 11.868 C 3.93 12.57 4.33 13.175 4.896 13.547 C 4.521 15.07 4.326 16.636 4.326 18.236 C 4.326 18.922 4.362 19.602 4.432 20.275 C 4.214 20.387 4.015 20.532 3.842 20.703 C 2.658 19.85 1.575 18.883 0.612 17.818 Z M 1.685 10.004 C 3.701 5.17 8.104 1.58 13.421 0.705 C 10.45 3.177 8.095 6.032 6.527 9.155 C 6.425 9.141 6.321 9.135 6.215 9.135 C 5.175 9.135 4.289 9.795 3.955 10.719 C 3.165 10.522 2.406 10.282 1.685 10.004 Z M 15.527 0.506 C 15.666 0.502 15.806 0.5 15.947 0.5 C 17.159 0.5 18.339 0.64 19.472 0.904 C 18.263 3.213 17.547 5.749 17.438 8.417 C 16.764 8.697 16.29 9.361 16.29 10.136 C 16.29 10.176 16.291 10.215 16.294 10.254 C 14.209 10.965 11.845 11.367 9.334 11.367 C 9.092 11.367 8.851 11.363 8.612 11.356 C 8.557 10.62 8.17 9.976 7.601 9.574 C 9.332 6.171 12.055 3.091 15.527 0.506 Z M 20.605 1.215 C 21.961 1.643 23.236 2.254 24.401 3.017 C 23.776 5.299 21.993 7.329 19.462 8.816 C 19.224 8.581 18.924 8.408 18.588 8.328 C 18.713 5.802 19.422 3.4 20.605 1.215 Z M 25.388 3.72 C 27.206 5.126 28.702 6.929 29.746 8.998 C 29.461 8.975 29.173 8.963 28.884 8.963 C 25.395 8.963 22.214 10.699 19.741 13.583 C 19.581 13.538 19.413 13.514 19.238 13.514 C 19.215 13.514 19.192 13.514 19.168 13.515 C 19.019 12.978 18.896 12.433 18.801 11.88 C 19.508 11.616 20.011 10.935 20.011 10.136 C 20.011 10.034 20.003 9.933 19.987 9.835 C 22.651 8.284 24.589 6.158 25.388 3.72 Z M 30.295 10.216 C 31.004 11.988 31.393 13.922 31.393 15.947 C 31.393 17.214 31.24 18.446 30.953 19.624 C 29.818 20.596 28.568 21.453 27.224 22.176 C 26.794 21.527 26.056 21.099 25.219 21.099 C 24.745 21.099 24.302 21.236 23.93 21.473 C 22.519 20.065 21.345 18.485 20.459 16.778 C 20.851 16.437 21.099 15.934 21.099 15.374 C 21.099 14.94 20.95 14.541 20.701 14.225 C 22.955 11.646 25.803 10.108 28.884 10.108 C 29.36 10.108 29.831 10.144 30.295 10.216 Z M 30.339 21.567 C 29.865 22.779 29.243 23.916 28.494 24.957 C 28.148 24.756 27.808 24.548 27.476 24.332 C 27.571 24.073 27.623 23.794 27.623 23.502 C 27.623 23.422 27.619 23.344 27.611 23.266 C 28.567 22.762 29.478 22.193 30.339 21.567 Z M 13.817 24.606 C 11.718 24.338 9.718 23.782 7.865 22.982 C 7.909 22.80 7.932 22.61 7.932 22.414 C 7.932 21.096 6.871 20.026 5.557 20.011 C 5.50 19.424 5.471 18.833 5.471 18.236 C 5.471 16.77 5.646 15.332 5.983 13.93 C 6.059 13.938 6.137 13.941 6.215 13.941 C 7.202 13.941 8.051 13.346 8.42 12.495 C 8.723 12.506 9.028 12.512 9.334 12.512 C 11.983 12.512 14.492 12.083 16.714 11.319 C 16.953 11.608 17.277 11.824 17.648 11.928 C 17.757 12.60 17.904 13.262 18.089 13.911 C 17.656 14.251 17.378 14.78 17.378 15.374 C 17.378 15.779 17.507 16.153 17.726 16.458 C 16.542 18.525 15.645 20.928 15.116 23.545 C 14.534 23.673 14.054 24.074 13.817 24.606 Z M 16.261 23.657 C 16.759 21.248 17.582 19.042 18.654 17.141 C 18.838 17.202 19.034 17.235 19.238 17.235 C 19.293 17.235 19.347 17.232 19.40 17.228 C 20.35 19.077 21.615 20.784 23.137 22.301 C 22.933 22.654 22.816 23.064 22.816 23.502 C 22.816 23.652 22.83 23.80 22.856 23.942 C 21.087 24.444 19.219 24.735 17.286 24.783 C 17.12 24.278 16.744 23.868 16.261 23.657 Z"/>
        <circle cx="15.947" cy="15.947" r="15.447" fill="none" stroke="currentColor"/>
    </symbol>

    <g id="root"><use href="#i"/></g>
    <g id="light"><use href="#i"/></g>
    <g id="dark"><use href="#i"/></g>
</svg>