<?xml version="1.0" encoding="utf-8"?>
<!-- Copyright © 2013 Apple Inc. All rights reserved. -->
<svg xmlns="http://www.w3.org/2000/svg" id="root" version="1.1" viewBox="0 0 16 16">
    <path fill="currentColor" d="M 1.367188 13.789062 C 1.367188 13.789062 2.820312 14.105469 3.289062 12.722656 C 3.757812 11.34375 3.960938 10.867188 5.222656 10.976562 C 5.222656 10.976562 5.714844 11.886719 6.933594 12.308594 C 6.933594 12.308594 5.75 16.207031 1.367188 13.789062 Z M 14.339844 2.351562 C 14.054688 2.839844 10.289062 8.804688 9.554688 9.65625 C 8.820312 10.511719 6.917969 11.71875 6.917969 11.71875 C 6.003906 11.242188 5.710938 10.738281 5.710938 10.738281 C 5.710938 10.738281 6.328125 8.992188 7.230469 7.683594 C 8.132812 6.378906 13.050781 1.949219 13.460938 1.636719 C 13.871094 1.320312 14.625 1.867188 14.339844 2.351562 Z"/>
</svg>
