<?xml version="1.0" encoding="utf-8"?>
<!-- Copyright © 2017 Apple Inc. All rights reserved. -->
<svg xmlns="http://www.w3.org/2000/svg" id="root" version="1.1" viewBox="0 0 16 16">
    <path d="M 8.8 2.062 A 6.152 6.152 0 0 0 2.07 7.117 a 5.961 5.961 0 0 0 3.261 6.3 c 1.194.619 4.476 1.266 3.386 -1.021 -0.688 -1.443 0.745 -1.661 1.829 -1.756 a 3.387 3.387 0 0 0 3.226 -2.128 C 14.9 5.318 11.605 2.5 8.8 2.062 Z m -4.5 6.106 A 1.083 1.083 0 1 1 5.375 7.085 1.083 1.083 0 0 1 4.292 8.168 Z m 2.076 -2.73 A 1.083 1.083 0 1 1 7.451 4.355 1.083 1.083 0 0 1 6.368 5.438 Z m 3.362 0 a 1.083 1.083 0 1 1 1.083 -1.083 A 1.083 1.083 0 0 1 9.73 5.438 Z m 2.076 2.73 a 1.083 1.083 0 1 1 1.083 -1.083 A 1.083 1.083 0 0 1 11.806 8.168 Z"/>
</svg>
