<?xml version="1.0" encoding="utf-8"?>
<!-- Copyright © 2013 Apple Inc. All rights reserved. -->
<svg version="1.1" xmlns="http://www.w3.org/2000/svg" viewBox="0 0 16 16">
    <path d="M 3.988281 6.382812 C 3.625 6.382812 3.3125 6.253906 3.058594 5.996094 C 2.796875 5.738281 2.671875 5.429688 2.671875 5.0625 C 2.671875 4.699219 2.796875 4.386719 3.058594 4.128906 C 3.3125 3.871094 3.625 3.742188 3.988281 3.742188 C 4.355469 3.742188 4.667969 3.871094 4.921875 4.128906 C 5.179688 4.386719 5.308594 4.699219 5.308594 5.0625 C 5.308594 5.429688 5.179688 5.738281 4.921875 5.996094 C 4.667969 6.253906 4.355469 6.382812 3.988281 6.382812 Z M 7.078125 5.0625 C 7.078125 4.210938 6.777344 3.484375 6.171875 2.878906 C 5.570312 2.277344 4.84375 1.972656 3.988281 1.972656 C 3.136719 1.972656 2.410156 2.277344 1.808594 2.878906 C 1.203125 3.484375 0.902344 4.210938 0.902344 5.0625 C 0.902344 5.914062 1.203125 6.640625 1.808594 7.246094 C 2.410156 7.847656 3.136719 8.148438 3.988281 8.148438 C 4.847656 8.148438 5.578125 7.847656 6.175781 7.246094 C 6.777344 6.640625 7.078125 5.914062 7.078125 5.0625 Z M 13.378906 11.105469 C 13.378906 11.46875 13.25 11.78125 12.992188 12.039062 C 12.734375 12.296875 12.421875 12.425781 12.058594 12.425781 C 11.691406 12.425781 11.382812 12.296875 11.125 12.039062 C 10.867188 11.78125 10.738281 11.46875 10.738281 11.105469 C 10.738281 10.742188 10.867188 10.429688 11.125 10.171875 C 11.382812 9.914062 11.691406 9.785156 12.058594 9.785156 C 12.421875 9.785156 12.734375 9.914062 12.992188 10.171875 C 13.25 10.429688 13.378906 10.742188 13.378906 11.105469 Z M 15.148438 11.105469 C 15.148438 10.253906 14.84375 9.527344 14.242188 8.921875 C 13.636719 8.320312 12.910156 8.019531 12.058594 8.019531 C 11.207031 8.019531 10.480469 8.316406 9.875 8.917969 C 9.273438 9.519531 8.972656 10.25 8.972656 11.105469 C 8.972656 11.957031 9.273438 12.683594 9.875 13.289062 C 10.480469 13.890625 11.207031 14.195312 12.058594 14.195312 C 12.910156 14.195312 13.636719 13.890625 14.242188 13.289062 C 14.84375 12.683594 15.148438 11.957031 15.148438 11.105469 Z M 4.007812 14.269531 L 5.292969 14.269531 L 11.996094 1.917969 L 10.738281 1.917969 Z"/>
</svg>
