<?xml version="1.0" encoding="utf-8"?>
<!-- Copyright © 2017 Apple Inc. All rights reserved. -->
<svg xmlns="http://www.w3.org/2000/svg" id="root" version="1.1" viewBox="0 0 16 16">
    <path fill="currentColor" d="M 13 1 L 3 1 C 1.898438 1 1 1.898438 1 3 L 1 13 C 1 14.101562 1.898438 15 3 15 L 13 15 C 14.101562 15 15 14.101562 15 13 L 15 3 C 15 1.898438 14.101562 1 13 1 M 13 2 C 13.550781 2 14 2.449219 14 3 L 14 13 C 14 13.550781 13.550781 14 13 14 L 3 14 C 2.449219 14 2 13.550781 2 13 L 2 3 C 2 2.449219 2.449219 2 3 2 L 13 2"/>
    <rect fill="currentColor" x="4.25" y="4.5" width="7.5" height="1"/>
    <rect fill="currentColor" x="4.25" y="6.5" width="7.5" height="1"/>
    <rect fill="currentColor" x="4.25" y="8.5" width="7.5" height="1"/>
    <rect fill="currentColor" x="4.25" y="10.5" width="7.5" height="1"/>
</svg>
