<?xml version="1.0" encoding="utf-8"?>
<!-- Copyright © 2016 Apple Inc. All rights reserved. -->
<svg xmlns="http://www.w3.org/2000/svg" id="root" version="1.1" viewBox="0 0 16 16">
    <path d="M 12.028679 14.5679516 C 15.2984803 12.6801309 16.418797 8.49905207 14.5309763 5.22925071 C 12.6431556 1.95944935 8.46207684 0.839132668 5.19227548 2.72695336 C 1.92247412 4.61477406 0.802157432 8.79585284 2.68997813 12.0656542 C 4.57779882 15.3354556 8.75887761 16.4557722 12.028679 14.5679516 L 12.028679 14.5679516 Z" fill="rgb(243, 243, 248)" stroke="rgb(142, 142, 147)"/>
    <path d="M 7.61218548 0.145717854 L 9.66310653 0.145717854 L 9.66310653 2.13287799 L 7.61218548 2.13287799 L 7.61218548 0.145717854 L 7.61218548 0.145717854 L 7.61218548 0.145717854 Z M 5.4196076 1.41160328 L 5.93233786 2.29967815 L 4.15618813 3.32513867 L 3.64345787 2.43706381 L 3.19096465 2.69831089 C 2.95039955 2.83720121 2.64564077 2.75971493 2.49661602 2.50159649 L 2.24265275 2.0617192 L 5.7949522 0.0107981556 L 6.04891548 0.450675447 C 6.19182854 0.698208131 6.11669542 1.00913944 5.87210082 1.1503562 L 5.4196076 1.41160328 L 5.4196076 1.41160328 L 5.4196076 1.41160328 Z M 0.576279396 5.39199994 L 1.60173992 3.61585022 L 3.32267108 4.60943029 L 2.29721056 6.38558001 L 0.576279396 5.39199994 L 0.576279396 5.39199994 L 0.576279396 5.39199994 Z" fill="rgb(142, 142, 147)"/>
    <path d="M 6.06972352 4.58855814 C 6.31495862 4.44697158 6.39898238 4.13339067 6.25739582 3.88815557 C 6.11580927 3.64292047 5.80222836 3.55889672 5.55699326 3.70048327 C 5.31175816 3.84206982 5.22773441 4.15565073 5.36932096 4.40088583 C 5.51090751 4.64612094 5.82448842 4.73014469 6.06972352 4.58855814 L 6.06972352 4.58855814 Z M 11.1970261 13.4693068 C 11.4422612 13.3277202 11.526285 13.0141393 11.3846984 12.7689042 C 11.2431119 12.5236691 10.929531 12.4396454 10.6842959 12.5812319 C 10.4390608 12.7228185 10.355037 13.0363994 10.4966236 13.2816345 C 10.6382101 13.5268696 10.951791 13.6108933 11.1970261 13.4693068 L 11.1970261 13.4693068 Z M 4.38067281 10.8921812 C 4.23908626 10.6469461 3.92550535 10.5629223 3.68027025 10.7045089 C 3.43503515 10.8460955 3.3510114 11.1596764 3.49259795 11.4049115 C 3.6341845 11.6501466 3.94776541 11.7341703 4.19300051 11.5925838 C 4.43823561 11.4509972 4.52225936 11.1374163 4.38067281 10.8921812 L 4.38067281 10.8921812 L 4.38067281 10.8921812 Z M 13.2614215 5.76487858 C 13.1198349 5.51964348 12.806254 5.43561973 12.5610189 5.57720628 C 12.3157838 5.71879283 12.23176 6.03237374 12.3733466 6.27760885 C 12.5149331 6.52284395 12.828514 6.6068677 13.0737492 6.46528115 C 13.3189843 6.32369459 13.403008 6.01011369 13.2614215 5.76487858 L 13.2614215 5.76487858 L 13.2614215 5.76487858 Z M 6.06972352 12.5812319 C 5.82448842 12.4396454 5.51090751 12.5236691 5.36932096 12.7689042 C 5.22773441 13.0141393 5.31175816 13.3277202 5.55699326 13.4693068 C 5.80222836 13.6108933 6.11580927 13.5268696 6.25739582 13.2816345 C 6.39898238 13.0363994 6.31495862 12.7228185 6.06972352 12.5812319 L 6.06972352 12.5812319 L 6.06972352 12.5812319 Z M 11.1970261 3.70048327 C 10.951791 3.55889672 10.6382101 3.64292047 10.4966236 3.88815557 C 10.355037 4.13339067 10.4390608 4.44697158 10.6842959 4.58855814 C 10.929531 4.73014469 11.2431119 4.64612094 11.3846984 4.40088583 C 11.526285 4.15565073 11.4422612 3.84206982 11.1970261 3.70048327 L 11.1970261 3.70048327 L 11.1970261 3.70048327 Z M 8.3770097 13.1994674 C 8.0938366 13.1994674 7.86427944 13.4290245 7.86427944 13.7121976 C 7.86427944 13.9953707 8.0938366 14.2249279 8.3770097 14.2249279 C 8.6601828 14.2249279 8.88973996 13.9953707 8.88973996 13.7121976 C 8.88973996 13.4290245 8.6601828 13.1994674 8.3770097 13.1994674 L 8.3770097 13.1994674 L 8.3770097 13.1994674 Z M 8.3770097 2.94486214 C 8.0938366 2.94486214 7.86427944 3.1744193 7.86427944 3.45759241 C 7.86427944 3.74076551 8.0938366 3.97032267 8.3770097 3.97032267 C 8.6601828 3.97032267 8.88973996 3.74076551 8.88973996 3.45759241 C 8.88973996 3.1744193 8.6601828 2.94486214 8.3770097 2.94486214 L 8.3770097 2.94486214 L 8.3770097 2.94486214 Z M 12.3733466 10.8921812 C 12.23176 11.1374163 12.3157838 11.4509972 12.5610189 11.5925838 C 12.806254 11.7341703 13.1198349 11.6501466 13.2614215 11.4049115 C 13.403008 11.1596764 13.3189843 10.8460955 13.0737492 10.7045089 C 12.828514 10.5629223 12.5149331 10.6469461 12.3733466 10.8921812 L 12.3733466 10.8921812 L 12.3733466 10.8921812 Z M 3.49259795 5.76487858 C 3.3510114 6.01011369 3.43503515 6.32369459 3.68027025 6.46528115 C 3.92550535 6.6068677 4.23908626 6.52284395 4.38067281 6.27760885 C 4.52225936 6.03237374 4.43823561 5.71879283 4.19300051 5.57720628 C 3.94776541 5.43561973 3.6341845 5.51964348 3.49259795 5.76487858 L 3.49259795 5.76487858 L 3.49259795 5.76487858 Z M 12.9915821 8.58489502 C 12.9915821 8.86806813 13.2211392 9.09762529 13.5043123 9.09762529 C 13.7874854 9.09762529 14.0170426 8.86806813 14.0170426 8.58489502 C 14.0170426 8.30172192 13.7874854 8.07216476 13.5043123 8.07216476 C 13.2211392 8.07216476 12.9915821 8.30172192 12.9915821 8.58489502 L 12.9915821 8.58489502 L 12.9915821 8.58489502 Z M 2.73697682 8.58489502 C 2.73697682 8.86806813 2.96653398 9.09762529 3.24970708 9.09762529 C 3.53288019 9.09762529 3.76243734 8.86806813 3.76243734 8.58489502 C 3.76243734 8.30172192 3.53288019 8.07216476 3.24970708 8.07216476 C 2.96653398 8.07216476 2.73697682 8.30172192 2.73697682 8.58489502 L 2.73697682 8.58489502 L 2.73697682 8.58489502 Z" fill="rgb(186, 186, 191)"/>
    <path d="M 7.88311513 8.75490505 C 8.05714913 9.05634079 8.38813973 9.17051901 8.63337483 9.02893246 C 8.87143787 8.8914867 8.94031188 8.5351025 8.77118999 8.24217479 L 6.30725297 3.97451068 C 6.13321896 3.67307494 5.80222836 3.55889672 5.55699326 3.70048327 C 5.31893022 3.83792903 5.25005621 4.19431323 5.4191781 4.48724094 L 7.88311513 8.75490505 L 7.88311513 8.75490505 Z" fill="rgb(142, 142, 147)"/>
    <path d="M 8.10457581 8.15456785 C 7.85845456 8.4006891 7.83383354 8.74995297 8.03406716 8.95018659 C 8.22844482 9.14456425 8.59051142 9.11885242 8.8296859 8.87967794 L 12.3142191 5.39514479 C 12.5603403 5.14902354 12.5849613 4.79975967 12.3847277 4.59952605 C 12.19035 4.40514839 11.8282834 4.43086022 11.589109 4.6700347 L 8.10457581 8.15456785 L 8.10457581 8.15456785 L 8.10457581 8.15456785 L 8.10457581 8.15456785 L 8.10457581 8.15456785 Z" fill="rgb(210, 106, 106)"/>
</svg>
