<?xml version="1.0" encoding="utf-8"?>
<!-- Copyright © 2015 Apple Inc. All rights reserved. -->
<svg xmlns="http://www.w3.org/2000/svg" id="root" version="1.1" viewBox="0 0 16 16">
    <path fill="currentColor" d="M 13.4475645 6.5701038 C 14.1131101 6.95915994 14.5 7.44243562 14.5 8 C 14.5 9.52952015 11.5885604 10.5 8 10.5 C 4.41143956 10.5 1.5 9.52952015 1.5 8 C 1.5 7.44243562 1.88688992 6.95915994 2.55243554 6.5701038 C 2.95984566 6.75017534 3.43583057 6.90963763 3.96620982 7.04342621 C 3.94919939 7.04895616 3.93228678 7.05452352 3.91547313 7.06012807 C 2.98303097 7.37094212 2.5 7.7516133 2.5 8 C 2.5 8.2483867 2.98303097 8.62905788 3.91547313 8.93987193 C 4.97873363 9.2942921 6.43777802 9.5 8 9.5 C 9.56222198 9.5 11.0212664 9.2942921 12.0845269 8.93987193 C 13.016969 8.62905788 13.5 8.2483867 13.5 8 C 13.5 7.7516133 13.016969 7.37094212 12.0845269 7.06012807 C 12.0677132 7.05452352 12.0508006 7.04895616 12.0337902 7.04342621 C 12.5641694 6.90963763 13.0401543 6.75017534 13.4475645 6.5701038 Z"/>
    <path fill="currentColor" d="M 13.4475645 10.5701038 C 14.1131101 10.9591599 14.5 11.4424356 14.5 12 C 14.5 13.5295201 11.5885604 14.5 8 14.5 C 4.41143956 14.5 1.5 13.5295201 1.5 12 C 1.5 11.4424356 1.88688992 10.9591599 2.55243554 10.5701038 C 2.95984566 10.7501753 3.43583057 10.9096376 3.96620982 11.0434262 C 3.94919939 11.0489562 3.93228678 11.0545235 3.91547313 11.0601281 C 2.98303097 11.3709421 2.5 11.7516133 2.5 12 C 2.5 12.2483867 2.98303097 12.6290579 3.91547313 12.9398719 C 4.97873363 13.2942921 6.43777802 13.5 8 13.5 C 9.56222198 13.5 11.0212664 13.2942921 12.0845269 12.9398719 C 13.016969 12.6290579 13.5 12.2483867 13.5 12 C 13.5 11.7516133 13.016969 11.3709421 12.0845269 11.0601281 C 12.0677132 11.0545235 12.0508006 11.0489562 12.0337902 11.0434262 C 12.5641694 10.9096376 13.0401543 10.7501753 13.4475645 10.5701038 Z"/>
    <path fill="currentColor" d="M 14.5 4 C 14.5 2.47047985 11.5885604 1.5 8 1.5 C 4.41143956 1.5 1.5 2.47047985 1.5 4 C 1.5 5.52952015 4.41143956 6.5 8 6.5 C 11.5885604 6.5 14.5 5.52952015 14.5 4 Z M 3.91547313 4.93987193 C 2.98303097 4.62905788 2.5 4.2483867 2.5 4 C 2.5 3.7516133 2.98303097 3.37094212 3.91547313 3.06012807 C 4.97873363 2.7057079 6.43777802 2.5 8 2.5 C 9.56222198 2.5 11.0212664 2.7057079 12.0845269 3.06012807 C 13.016969 3.37094212 13.5 3.7516133 13.5 4 C 13.5 4.2483867 13.016969 4.62905788 12.0845269 4.93987193 C 11.0212664 5.2942921 9.56222198 5.5 8 5.5 C 6.43777802 5.5 4.97873363 5.2942921 3.91547313 4.93987193 Z"/>
</svg>
