<?xml version="1.0" encoding="utf-8"?>
<!-- Copyright © 2019 Apple Inc. All rights reserved. -->
<svg xmlns="http://www.w3.org/2000/svg" xmlns:xlink="http://www.w3.org/1999/xlink" version="1.1" viewBox="0 0 16 16">
    <style>
        svg {
            display: none;
        }

        svg:target {
            display: initial;
        }

        #author {
            --background: rgb(148, 183, 219);
            --border: rgb(106, 136, 170);
            --outline: rgb(113, 146, 184);
        }

        #user {
            --background: rgb(246, 222, 146);
            --border: rgb(204, 181, 108);
            --outline: rgb(216, 193, 115);
        }

        #useragent {
            --background: rgb(236, 151, 153);
            --border: rgb(191, 109, 113);
            --outline: rgb(204, 116, 121);
        }

        #inspector {
            --background: rgb(165, 202, 164);
            --border: rgb(118, 153, 116);
            --outline: rgb(128, 166, 126);
        }
    </style>

    <svg>
        <symbol id="style-rule">
            <path fill="var(--background)" d="M 13 1 L 3 1 C 1.898438 1 1 1.898438 1 3 L 1 13 C 1 14.101562 1.898438 15 3 15 L 13 15 C 14.101562 15 15 14.101562 15 13 L 15 3 C 15 1.898438 14.101562 1 13 1 Z"/>
            <path fill="var(--border)" d="M 13 1 L 3 1 C 1.898438 1 1 1.898438 1 3 L 1 13 C 1 14.101562 1.898438 15 3 15 L 13 15 C 14.101562 15 15 14.101562 15 13 L 15 3 C 15 1.898438 14.101562 1 13 1 M 13 2 C 13.550781 2 14 2.449219 14 3 L 14 13 C 14 13.550781 13.550781 14 13 14 L 3 14 C 2.449219 14 2 13.550781 2 13 L 2 3 C 2 2.449219 2.449219 2 3 2 L 13 2"/>
            <path fill="white" d="M 6.78125 7.769531 L 7.136719 7.769531 C 7.757812 7.769531 8.246094 7.636719 8.605469 7.371094 C 8.96875 7.105469 9.148438 6.746094 9.148438 6.292969 C 9.148438 5.496094 8.59375 5.097656 7.488281 5.097656 L 6.78125 5.097656 Z M 5 12 L 5 4 L 8.042969 4 C 9.105469 4 9.863281 4.164062 10.316406 4.488281 C 10.773438 4.816406 11 5.359375 11 6.125 C 11 6.988281 10.695312 7.660156 10.085938 8.144531 C 9.480469 8.625 8.628906 8.863281 7.535156 8.863281 L 6.78125 8.863281 L 6.78125 12 Z"/>
            <path fill="var(--outline)" d="M 7.78125 6.679688 L 7.78125 6.113281 C 8.019531 6.136719 8.117188 6.1875 8.144531 6.203125 C 8.140625 6.210938 8.148438 6.242188 8.148438 6.292969 C 8.148438 6.441406 8.105469 6.496094 8.015625 6.566406 C 7.953125 6.613281 7.875 6.648438 7.78125 6.679688 M 8.042969 3 L 4 3 L 4 13 L 7.78125 13 L 7.78125 9.863281 C 8.988281 9.824219 9.96875 9.507812 10.707031 8.925781 C 11.550781 8.257812 12 7.289062 12 6.125 C 12 4.753906 11.402344 4.035156 10.902344 3.675781 C 10.265625 3.222656 9.332031 3 8.042969 3 M 6.78125 7.769531 L 7.136719 7.769531 C 7.757812 7.769531 8.246094 7.636719 8.605469 7.371094 C 8.96875 7.105469 9.148438 6.746094 9.148438 6.292969 C 9.148438 5.496094 8.59375 5.097656 7.488281 5.097656 L 6.78125 5.097656 L 6.78125 7.769531 M 8.042969 4 C 9.105469 4 9.863281 4.164062 10.316406 4.488281 C 10.773438 4.816406 11 5.359375 11 6.125 C 11 6.988281 10.695312 7.660156 10.085938 8.144531 C 9.480469 8.625 8.628906 8.863281 7.535156 8.863281 L 6.78125 8.863281 L 6.78125 12 L 5 12 L 5 4 L 8.042969 4"/>
        </symbol>
    </svg>

    <svg id="author"><use xlink:href="#style-rule"/></svg>
    <svg id="user"><use xlink:href="#style-rule"/></svg>
    <svg id="useragent"><use xlink:href="#style-rule"/></svg>
    <svg id="inspector"><use xlink:href="#style-rule"/></svg>
</svg>
