<?xml version="1.0" encoding="utf-8"?>
<!-- Copyright © 2015 Apple Inc. All rights reserved. -->
<svg xmlns="http://www.w3.org/2000/svg" id="root" version="1.1" viewBox="0 0 16 16">
    <path fill="currentColor" d="M 2.13749999 10.2880859 C 2.30449301 10.4199225 2.50224494 10.4858398 2.73076171 10.4858398 C 3.00908341 10.4858398 3.27861197 10.4213874 3.53935546 10.2924805 C 3.97881078 10.0786122 4.19853514 9.72851806 4.19853514 9.2421875 L 4.19853514 8.60498047 C 4.10185497 8.66650421 3.9773445 8.71777323 3.82499999 8.75878906 C 3.67265548 8.79980489 3.52324291 8.82910147 3.3767578 8.84667969 L 2.89775389 8.90820312 C 2.61064308 8.94628925 2.39531321 9.00634725 2.2517578 9.08837891 C 2.00859252 9.22607491 1.88701171 9.44579927 1.88701171 9.74755859 C 1.88701171 9.97607536 1.97050697 10.1562493 2.13749999 10.2880859 L 2.13749999 10.2880859 Z M 3.80302733 8.14794922 C 3.98466887 8.1245116 4.10624968 8.04834049 4.16777343 7.91943359 C 4.20292985 7.84912074 4.2205078 7.74804753 4.2205078 7.61621094 C 4.2205078 7.34667834 4.12456149 7.15112365 3.932666 7.02954102 C 3.74077051 6.90795838 3.46611506 6.84716797 3.10869139 6.84716797 C 2.69560339 6.84716797 2.40263757 6.95849498 2.22978514 7.18115234 C 2.13310497 7.30419983 2.07011732 7.48730347 2.0408203 7.73046875 L 1.30253905 7.73046875 C 1.31718756 7.15038772 1.5054181 6.74682731 1.86723632 6.51977539 C 2.22905453 6.29272347 2.64872807 6.17919922 3.12626952 6.17919922 C 3.67998323 6.17919922 4.12968576 6.28466691 4.47539061 6.49560547 C 4.81816576 6.70654402 4.98955077 7.03466574 4.98955077 7.47998047 L 4.98955077 10.1914062 C 4.98955077 10.2734379 5.0063963 10.3393552 5.04008788 10.3891602 C 5.07377945 10.4389651 5.14482366 10.4638672 5.25322264 10.4638672 C 5.28837907 10.4638672 5.32792946 10.4616699 5.37187499 10.4572754 C 5.41582052 10.4528808 5.46269505 10.4462891 5.51249999 10.4375 L 5.51249999 11.0219727 C 5.3894525 11.0571291 5.29570344 11.0791015 5.23124999 11.0878906 C 5.16679654 11.0966797 5.07890679 11.1010742 4.96757811 11.1010742 C 4.69511581 11.1010742 4.49736388 11.0043955 4.37431639 10.8110352 C 4.30986295 10.7084956 4.26445324 10.5634775 4.23808593 10.3759766 C 4.07695231 10.5869151 3.84550931 10.7700188 3.54374999 10.925293 C 3.24199067 11.0805672 2.90947446 11.1582031 2.54619139 11.1582031 C 2.10966577 11.1582031 1.75297989 11.0256361 1.47612303 10.760498 C 1.19926618 10.49536 1.06083983 10.1635762 1.06083983 9.76513672 C 1.06083983 9.3286111 1.19706894 8.99023558 1.46953124 8.75 C 1.74199354 8.50976442 2.09941184 8.36181668 2.54179686 8.30615234 L 3.80302733 8.14794922 Z M 6.22441405 4.52246094 L 6.99345702 4.52246094 L 6.99345702 6.86474609 C 7.16630945 6.63915903 7.37285035 6.46704161 7.61308593 6.34838867 C 7.8533215 6.22973573 8.11406108 6.17041016 8.39531249 6.17041016 C 8.98125292 6.17041016 9.45658996 6.37182416 9.82133788 6.7746582 C 10.1860858 7.17749225 10.368457 7.77148045 10.368457 8.55664062 C 10.368457 9.30078497 10.188283 9.91894285 9.82792968 10.4111328 C 9.46757631 10.9033228 8.96806959 11.1494141 8.32939452 11.1494141 C 7.97197086 11.1494141 7.67021606 11.0629891 7.42412108 10.8901367 C 7.27763597 10.7875971 7.12089926 10.6235363 6.95390624 10.3979492 L 6.95390624 11 L 6.22441405 11 L 6.22441405 4.52246094 Z M 9.24125975 9.94091797 C 9.45366316 9.60107252 9.55986327 9.15283481 9.55986327 8.59619141 C 9.55986327 8.10107174 9.45366316 7.69091959 9.24125975 7.36572266 C 9.02885635 7.04052572 8.71611533 6.87792969 8.30302733 6.87792969 C 7.94267397 6.87792969 7.6270033 7.01122914 7.35600585 7.27783203 C 7.0850084 7.54443493 6.94951171 7.98388366 6.94951171 8.59619141 C 6.94951171 9.03857643 7.00517521 9.39745956 7.11650389 9.67285156 C 7.32451275 10.1914088 7.71269246 10.4506836 8.28105468 10.4506836 C 8.70879119 10.4506836 9.02885635 10.2807634 9.24125975 9.94091797 L 9.24125975 9.94091797 Z M 14.4004394 6.54394531 C 14.7329606 6.8017591 14.9329098 7.24560232 15.000293 7.87548828 L 14.23125 7.87548828 C 14.1843748 7.58544777 14.0774422 7.34448338 13.9104492 7.15258789 C 13.7434562 6.9606924 13.4753925 6.86474609 13.10625 6.86474609 C 12.6023412 6.86474609 12.2419933 7.11083738 12.0251953 7.60302734 C 11.8845696 7.92236488 11.8142578 8.31640391 11.8142578 8.78515625 C 11.8142578 9.2568383 11.9138662 9.65380698 12.1130859 9.97607422 C 12.3123057 10.2983415 12.6257791 10.4594727 13.0535156 10.4594727 C 13.3816423 10.4594727 13.6416494 10.3591319 13.8335449 10.1584473 C 14.0254404 9.95776267 14.1580074 9.68310721 14.23125 9.33447266 L 15.000293 9.33447266 C 14.9124019 9.95849921 14.6926775 10.4147935 14.3411133 10.7033691 C 13.989549 10.9919448 13.5398465 11.1362305 12.9919922 11.1362305 C 12.3767547 11.1362305 11.886037 10.9113792 11.5198242 10.4616699 C 11.1536114 10.0119606 10.9705078 9.45019868 10.9705078 8.77636719 C 10.9705078 7.95019118 11.1711894 7.30713121 11.5725586 6.84716797 C 11.9739278 6.38720473 12.4851531 6.15722656 13.10625 6.15722656 C 13.6365261 6.15722656 14.0679182 6.28613152 14.4004394 6.54394531 L 14.4004394 6.54394531 Z"/>
</svg>
