<?xml version="1.0" encoding="utf-8"?>
<!-- Copyright © 2015 Apple Inc. All rights reserved. -->
<svg xmlns="http://www.w3.org/2000/svg" id="root" version="1.1" viewBox="0 0 16 16">
    <path fill="currentColor" d="M 3.77685547 8.30146484 L 2.85131836 5.60786133 L 1.86767578 8.30146484 L 3.77685547 8.30146484 Z M 2.41967773 4.70307617 L 3.35351562 4.70307617 L 5.56567383 10.8 L 4.66088867 10.8 L 4.04248047 8.97382813 L 1.63110352 8.97382813 L 0.971191406 10.8 L 0.124511719 10.8 L 2.41967773 4.70307617 Z M 8.05791016 7.28046875 C 8.40654471 7.28046875 8.67770085 7.23204801 8.87138672 7.13520508 C 9.17575022 6.98302333 9.32792969 6.70910029 9.32792969 6.31342773 C 9.32792969 5.91498824 9.16606607 5.646599 8.84233398 5.50825195 C 8.65971588 5.43077761 8.38855974 5.39204102 8.02885742 5.39204102 L 6.55546875 5.39204102 L 6.55546875 7.28046875 L 8.05791016 7.28046875 Z M 8.33598633 10.0944336 C 8.84233652 10.0944336 9.20341689 9.94778792 9.41923828 9.65449219 C 9.55481839 9.46910715 9.62260742 9.24498829 9.62260742 8.98212891 C 9.62260742 8.53941836 9.42477411 8.23782632 9.02910156 8.07734375 C 8.81881405 7.99156858 8.54074066 7.94868164 8.19487305 7.94868164 L 6.55546875 7.94868164 L 6.55546875 10.0944336 L 8.33598633 10.0944336 Z M 5.74614258 4.70307617 L 8.36503906 4.70307617 C 9.07890982 4.70307617 9.58663586 4.91612743 9.88823242 5.34223633 C 10.0653166 5.59402795 10.1538574 5.88455239 10.1538574 6.21381836 C 10.1538574 6.59842315 10.0445649 6.91384968 9.82597656 7.16010742 C 9.71253198 7.29015365 9.54928492 7.40913032 9.33623047 7.51704102 C 9.64889479 7.63601948 9.88269779 7.7702141 10.0376465 7.91962891 C 10.3115736 8.18525523 10.4485352 8.55186941 10.4485352 9.01948242 C 10.4485352 9.41238803 10.3254081 9.76793461 10.0791504 10.0861328 C 9.71114725 10.5620467 9.12594802 10.8 8.32353516 10.8 L 5.74614258 10.8 L 5.74614258 4.70307617 Z M 15.2525391 5.14716797 C 15.678648 5.55390828 15.9152179 6.01598049 15.9622559 6.53339844 L 15.1570801 6.53339844 C 15.065771 6.14049283 14.8838474 5.82921664 14.6113037 5.59956055 C 14.33876 5.36990445 13.9562362 5.25507813 13.4637207 5.25507813 C 12.8632945 5.25507813 12.3783954 5.46605421 12.0090088 5.8880127 C 11.6396222 6.30997119 11.4549316 6.95673392 11.4549316 7.82832031 C 11.4549316 8.54219107 11.6216373 9.12116477 11.9550537 9.56525879 C 12.2884701 10.0093528 12.7858203 10.2313965 13.4471191 10.2313965 C 14.0558461 10.2313965 14.5193018 9.99759348 14.8375 9.52998047 C 15.0062834 9.28372273 15.1321773 8.9599955 15.2151855 8.55878906 L 16.0203613 8.55878906 C 15.9484209 9.20071936 15.7104675 9.73888129 15.3064941 10.173291 C 14.8222795 10.6962428 14.1692912 10.9577148 13.3475098 10.9577148 C 12.6391729 10.9577148 12.0442895 10.7432801 11.5628418 10.3144043 C 10.9292123 9.74718141 10.6124023 8.87145774 10.6124023 7.68720703 C 10.6124023 6.78795123 10.8503557 6.05057254 11.3262695 5.47504883 C 11.8409205 4.84972018 12.5506302 4.53706055 13.4554199 4.53706055 C 14.2273964 4.53706055 14.8264302 4.74042765 15.2525391 5.14716797 L 15.2525391 5.14716797 Z"/>
</svg>
