<?xml version="1.0" encoding="utf-8"?>
<!-- Copyright © 2015 Apple Inc. All rights reserved. -->
<svg xmlns="http://www.w3.org/2000/svg" id="root" version="1.1" viewBox="0 0 16 16">
    <path fill="currentColor" d="M 3.99902344 8.35449219 L3.01904297 5.50244141 L1.97753906 8.35449219 L3.99902344 8.35449219 Z M 2.56201172 4.54443359 L3.55078125 4.54443359 L5.89306641 11 L4.93505859 11 L4.28027344 9.06640625 L1.72705078 9.06640625 L1.02832031 11 L0.131835938 11 L2.56201172 4.54443359 Z M 6.85148439 4.52246094 L7.62052736 4.52246094 L7.62052736 6.86474609 C 7.79337978 6.63915903 7.99992069 6.46704161 8.24015626 6.34838867 C 8.48039184 6.22973573 8.74113142 6.17041016 9.02238283 6.17041016 C 9.60832326 6.17041016 10.0836603 6.37182416 10.4484082 6.7746582 C 10.8131561 7.17749225 10.9955274 7.77148045 10.9955274 8.55664062 C 10.9955274 9.30078497 10.8153534 9.91894285 10.455 10.4111328 C 10.0946466 10.9033228 9.59513993 11.1494141 8.95646486 11.1494141 C 8.59904119 11.1494141 8.2972864 11.0629891 8.05119142 10.8901367 C 7.90470631 10.7875971 7.7479696 10.6235363 7.58097658 10.3979492 L7.58097658 11 L6.85148439 11 L6.85148439 4.52246094 Z M 9.86833009 9.94091797 C 10.0807335 9.60107252 10.1869336 9.15283481 10.1869336 8.59619141 C 10.1869336 8.10107174 10.0807335 7.69091959 9.86833009 7.36572266 C 9.65592669 7.04052572 9.34318567 6.87792969 8.93009767 6.87792969 C 8.56974431 6.87792969 8.25407363 7.01122914 7.98307618 7.27783203 C 7.71207874 7.54443493 7.57658204 7.98388366 7.57658204 8.59619141 C 7.57658204 9.03857643 7.63224555 9.39745956 7.74357423 9.67285156 C 7.95158308 10.1914088 8.3397628 10.4506836 8.90812501 10.4506836 C 9.33586153 10.4506836 9.65592669 10.2807634 9.86833009 9.94091797 L9.86833009 9.94091797 Z M 15.3575098 6.54394531 C 15.690031 6.8017591 15.8899802 7.24560232 15.9573633 7.87548828 L15.1883203 7.87548828 C 15.1414451 7.58544777 15.0345126 7.34448338 14.8675196 7.15258789 C 14.7005265 6.9606924 14.4324628 6.86474609 14.0633203 6.86474609 C 13.5594116 6.86474609 13.1990636 7.11083738 12.9822657 7.60302734 C 12.8416399 7.92236488 12.7713282 8.31640391 12.7713282 8.78515625 C 12.7713282 9.2568383 12.8709365 9.65380698 13.0701563 9.97607422 C 13.269376 10.2983415 13.5828495 10.4594727 14.010586 10.4594727 C 14.3387126 10.4594727 14.5987198 10.3591319 14.7906153 10.1584473 C 14.9825108 9.95776267 15.1150778 9.68310721 15.1883203 9.33447266 L15.9573633 9.33447266 C 15.8694722 9.95849921 15.6497479 10.4147935 15.2981836 10.7033691 C 14.9466194 10.9919448 14.4969168 11.1362305 13.9490625 11.1362305 C 13.3338251 11.1362305 12.8431073 10.9113792 12.4768946 10.4616699 C 12.1106818 10.0119606 11.9275782 9.45019868 11.9275782 8.77636719 C 11.9275782 7.95019118 12.1282597 7.30713121 12.5296289 6.84716797 C 12.9309981 6.38720473 13.4422235 6.15722656 14.0633203 6.15722656 C 14.5935964 6.15722656 15.0249886 6.28613152 15.3575098 6.54394531 L15.3575098 6.54394531 Z"/>
    <line stroke="currentColor" x1="0" y1="12.5" x2="16" y2="12.5"/>
</svg>
