<?xml version="1.0" encoding="utf-8"?>
<!-- Copyright © 2013 Apple Inc. All rights reserved. -->
<svg version="1.1" xmlns="http://www.w3.org/2000/svg" viewBox="0 0 16 16">
    <path d="M 8 1.5 C 4.409 1.5 1.5 4.41 1.5 8 s 2.909 6.5 6.5 6.5 c 3.59 0 6.5 -2.91 6.5 -6.5 S 11.59 1.5 8 1.5 M 8 12.5 c -2.486 0 -4.5 -2.015 -4.5 -4.5 c 0 -2.485 2.014 -4.5 4.5 -4.5 c 2.485 0 4.5 2.015 4.5 4.5 C 12.499 10.485 10.484 12.5 8 12.5"/>
    <polygon points="8.999 7.604 8.999 4 7 4 7 8.563 9.484 10.646 10.754 9.074"/>
</svg>
