<?xml version="1.0" encoding="utf-8"?>
<!-- Copyright © 2013 Apple Inc. All rights reserved. -->
<svg viewBox="0 0 16 16" version="1.1" xmlns="http://www.w3.org/2000/svg">
    <path fill="rgb(236, 151, 153)" d="M 13 1 L 3 1 C 1.898438 1 1 1.898438 1 3 L 1 13 C 1 14.101562 1.898438 15 3 15 L 13 15 C 14.101562 15 15 14.101562 15 13 L 15 3 C 15 1.898438 14.101562 1 13 1 Z"/>
    <path fill="rgb(191, 109, 113)" d="M 13 1 L 3 1 C 1.898438 1 1 1.898438 1 3 L 1 13 C 1 14.101562 1.898438 15 3 15 L 13 15 C 14.101562 15 15 14.101562 15 13 L 15 3 C 15 1.898438 14.101562 1 13 1 M 13 2 C 13.550781 2 14 2.449219 14 3 L 14 13 C 14 13.550781 13.550781 14 13 14 L 3 14 C 2.449219 14 2 13.550781 2 13 L 2 3 C 2 2.449219 2.449219 2 3 2 L 13 2"/>
    <path fill="rgb(204, 116, 121)" d="M 7.09187665 9.86486483 L 8.09187665 9.86486483 L 8.09187675 12 L 8.09187675 13 L 7.09187675 13 L 5.4 13 L 4.4 13 L 4.4 12 L 4.4 4 L 4.4 3 L 5.4 3 L 8.2907563 3 C 9.49663194 3 10.4135483 3.20769232 11.0534889 3.69149996 C 11.7636984 4.22843229 12.097479 5.0719049 12.097479 6.12432432 C 12.097479 7.27475638 11.6870881 8.23200847 10.8722916 8.91131913 C 10.0975424 9.55724163 9.06464428 9.86486486 7.80896359 9.86486486 L 7.09187675 9.86486486 L 7.09187675 9.36486486 L 7.09187675 8.86486486 L 7.80896359 8.86486486 C 8.11369101 8.86486486 8.39855198 8.84414571 8.66354709 8.80270722 C 9.30146061 8.70295376 9.82425299 8.48313329 10.2319328 8.14324324 C 10.8089665 7.66215976 11.097479 6.98919351 11.097479 6.12432432 C 11.097479 5.36035654 10.8817949 4.81531695 10.4504202 4.48918919 C 10.0190455 4.16306143 9.29916471 4 8.2907563 4 L 5.4 4 L 5.4 12 L 7.09187675 12 L 7.09187675 9.36486486 L 7.09187665 9.86486483 Z M 7.09187675 7.76756757 L 7.4280112 7.76756757 C 8.01811686 7.76756757 8.4840319 7.63513646 8.82577031 7.37027027 C 9.16750871 7.10540408 9.33837535 6.74594822 9.33837535 6.29189189 C 9.33837535 5.49549151 8.81363737 5.0972973 7.76414566 5.0972973 L 7.09187675 5.0972973 L 7.09187675 7.76756757 Z M 7.09187675 7.76756757"/>
    <path fill="white" d="M 5.4 12 L 5.4 4 L 8.2907563 4 C 9.29916471 4 10.0190455 4.16306143 10.4504202 4.48918919 C 10.8817949 4.81531695 11.097479 5.36035654 11.097479 6.12432432 C 11.097479 6.98919351 10.8089665 7.66215976 10.2319328 8.14324324 C 9.65489908 8.62432673 8.84725076 8.86486486 7.80896359 8.86486486 L 7.09187675 8.86486486 L 7.09187675 12 L 5.4 12 Z M 7.09187675 7.76756757 L 7.4280112 7.76756757 C 8.01811686 7.76756757 8.4840319 7.63513646 8.82577031 7.37027027 C 9.16750871 7.10540408 9.33837535 6.74594822 9.33837535 6.29189189 C 9.33837535 5.49549151 8.81363737 5.0972973 7.76414566 5.0972973 L 7.09187675 5.0972973 L 7.09187675 7.76756757 Z M 7.09187675 7.76756757"/>
</svg>
