<?xml version="1.0" encoding="utf-8"?>
<!-- Copyright © 2016 Apple Inc. All rights reserved. -->
<svg xmlns="http://www.w3.org/2000/svg" id="root" version="1.1" viewBox="0 0 16 16">
    <path fill="rgb(203, 203, 203)" d="M 3 1 C 1.898438 1 1 1.898438 1 3 L 1 13 C 1 14.101562 1.898438 15 3 15 L 13 15 C 14.101562 15 15 14.101562 15 13 L 15 3 C 15 1.898438 14.101562 1 13 1 L 3 1 Z M 3 1"/>
    <path fill="rgb(153, 153, 153)" d="M 13 1 L 3 1 C 1.898438 1 1 1.898438 1 3 L 1 13 C 1 14.101562 1.898438 15 3 15 L 13 15 C 14.101562 15 15 14.101562 15 13 L 15 3 C 15 1.898438 14.101562 1 13 1 M 13 2 C 13.550781 2 14 2.449219 14 3 L 14 13 C 14 13.550781 13.550781 14 13 14 L 3 14 C 2.449219 14 2 13.550781 2 13 L 2 3 C 2 2.449219 2.449219 2 3 2 L 13 2"/>
    <path fill="rgb(166, 166, 166)" d="M 5.19849793 12.6584609 C 5.2831472 12.676395 6.98277851 12.9487305 7.62939453 12.9487305 C 8.79640591 12.9487305 9.76331344 12.6806542 10.5034462 12.1146703 C 11.3037555 11.5026691 11.7177734 10.6286312 11.7177734 9.58544922 C 11.7177734 8.84534902 11.4998181 8.18341061 11.0628295 7.63852362 C 10.6767371 7.15709971 10.0557113 6.69185669 9.18734192 6.20492057 L 8.61524891 5.88648574 C 8.27558142 5.69523066 8.15431716 5.69238281 8.23632812 5.69238281 C 8.56703836 5.69238281 9.10333246 5.81936052 9.8138795 6.08542439 L 11.1645508 6.59118236 L 11.1645508 5.14892578 L 11.1645508 3.87597656 L 11.1645508 3.07965768 L 10.3884483 2.90136387 C 9.52406853 2.70279014 8.73593121 2.60205078 8.02148438 2.60205078 C 7.01081351 2.60205078 6.14909735 2.87110984 5.47554965 3.42697448 C 4.76046595 4.01711791 4.38964844 4.82767811 4.38964844 5.77734375 C 4.38964844 6.49239045 4.61205052 7.14196725 5.04920932 7.68841575 C 5.43639142 8.17239338 6.03437082 8.62885808 6.84888633 9.08727887 L 7.38545082 9.38538774 C 7.71699471 9.57330366 7.92926232 9.72631865 7.99164827 9.79813503 C 7.94460492 9.81851991 7.82252674 9.85302734 7.60253906 9.85302734 C 7.14294036 9.85302734 6.53493744 9.70437137 5.79174704 9.39341305 L 4.40576172 8.81350287 L 4.40576172 10.315918 L 4.40576172 11.6801758 L 4.40576172 12.4905083 L 5.19849793 12.6584609 C 5.52713094 12.7280865 5.52713094 12.7280865 5.57407851 12.738033 L 5.19849793 12.6584609 Z M 5.19849793 12.6584609"/>
    <path fill="white" d="M 5.40576172 11.6801758 L 5.40576172 10.315918 C 6.26156027 10.6739927 6.99381206 10.8530273 7.60253906 10.8530273 C 8.02864796 10.8530273 8.36433797 10.758139 8.60961914 10.5683594 C 8.85490031 10.3785798 8.97753906 10.1207699 8.97753906 9.79492188 C 8.97753906 9.53710809 8.90055416 9.31958096 8.74658203 9.14233398 C 8.59260991 8.965087 8.3007834 8.75472127 7.87109375 8.51123047 L 7.33935547 8.21582031 C 6.6267868 7.81477664 6.12369938 7.43074728 5.83007812 7.0637207 C 5.53645687 6.69669413 5.38964844 6.2679061 5.38964844 5.77734375 C 5.38964844 5.12206704 5.63045007 4.59570511 6.11206055 4.19824219 C 6.59367103 3.80077926 7.23013927 3.60205078 8.02148438 3.60205078 C 8.65527661 3.60205078 9.36962493 3.69335846 10.1645508 3.87597656 L 10.1645508 5.14892578 C 9.3517212 4.84456228 8.70898674 4.69238281 8.23632812 4.69238281 C 7.87109192 4.69238281 7.57837024 4.77384359 7.3581543 4.93676758 C 7.13793835 5.09969157 7.02783203 5.313638 7.02783203 5.57861328 C 7.02783203 5.79703885 7.10481694 5.98860595 7.25878906 6.15332031 C 7.41276119 6.31803468 7.70279735 6.52034385 8.12890625 6.76025391 L 8.69824219 7.07714844 C 9.46452206 7.50683809 9.99267433 7.9025047 10.2827148 8.26416016 C 10.5727554 8.62581561 10.7177734 9.06624089 10.7177734 9.58544922 C 10.7177734 10.3230831 10.4438504 10.9013651 9.89599609 11.3203125 C 9.34814179 11.7392599 8.59261549 11.9487305 7.62939453 11.9487305 C 6.99202155 11.9487305 6.25081803 11.8592131 5.40576172 11.6801758 C 5.40576172 11.6801758 6.25081803 11.8592131 5.40576172 11.6801758 L 5.40576172 11.6801758 L 5.40576172 11.6801758 Z M 5.40576172 11.6801758"/>
</svg>
