<?xml version="1.0" encoding="utf-8"?>
<!-- Copyright © 2015 Apple Inc. All rights reserved. -->
<svg xmlns="http://www.w3.org/2000/svg" id="root" version="1.1" viewBox="0 0 16 16">
    <path d="M 13 1 L 3 1 C 1.9 1 1 1.9 1 3 L 1 13 C 1 14.1 1.9 15 3 15 L 13 15 C 14.1 15 15 14.1 15 13 L 15 3 C 15 1.9 14.1 1 13 1 L 13 1 Z" fill="rgb(246, 222, 146)"/>
    <path d="M 13 1 L 3 1 C 1.9 1 1 1.9 1 3 L 1 13 C 1 14.1 1.9 15 3 15 L 13 15 C 14.1 15 15 14.1 15 13 L 15 3 C 15 1.9 14.1 1 13 1 M 13 2 C 13.552 2 14 2.449 14 3 L 14 13 C 14 13.552 13.552 14 13 14 L 3 14 C 2.449 14 2 13.552 2 13 L 2 3 C 2 2.449 2.449 2 3 2 L 13 2" fill="rgb(204, 181, 108)"/>
    <path d="M 7.9736 11.041 C 8.6766 11.041 9.2346 10.757999 9.6436 10.193 C 10.0536 9.629 10.2586 8.864 10.2586 7.898 C 10.2586 6.962 10.0526 6.210999 9.6406 5.645 C 9.2286 5.079 8.683599 4.795 8.0056 4.795 C 7.3206 4.795 6.7726 5.079 6.3626 5.645 C 5.9526 6.210999 5.7476 6.967999 5.7476 7.915 C 5.7476 8.855 5.9516 9.611 6.3596 10.183 C 6.7676 10.754999 7.3066 11.041 7.9736 11.041 M 7.9526 12.15 C 6.7556 12.15 5.7986 11.766 5.0816 10.997 C 4.3646 10.226999 4.0056 9.202 4.0056 7.92 C 4.0056 6.624 4.3666 5.596 5.0866 4.833 C 5.8076 4.071 6.7806 3.69 8.0056 3.69 C 9.223599 3.69 10.1936 4.071 10.9156 4.833 C 11.6386 5.596 11.9996 6.62 11.9996 7.903999 C 11.9996 9.217999 11.6386 10.254999 10.9156 11.013 C 10.1936 11.771 9.2056 12.15 7.9526 12.15" fill="white"/>
    <path d="M 7.9736 10.041 C 7.6326 10.041 7.3936 9.91 7.1736 9.601999 C 6.8906 9.205999 6.7476 8.638 6.7476 7.915 C 6.7476 7.186999 6.8906 6.620999 7.1726 6.23 C 7.3936 5.926 7.6426 5.795 8.0056 5.795 C 8.3616 5.795 8.6086 5.926 8.8316 6.233 C 9.1156 6.622 9.2586 7.183 9.2586 7.898 C 9.2586 8.643999 9.1166 9.217999 8.834599 9.605 C 8.6136 9.910999 8.355599 10.041 7.9736 10.041 M 8.0056 2.69 C 6.5006 2.69 5.2736 3.18 4.3606 4.146 C 3.4616 5.097 3.0056 6.367 3.0056 7.92 C 3.0056 9.455999 3.4576 10.721 4.3496 11.679 C 5.2616 12.655 6.4736 13.15 7.9526 13.15 C 9.4846 13.15 10.7246 12.663 11.6406 11.702 C 12.5416 10.756 12.9996 9.478 12.9996 7.903999 C 12.9996 6.360999 12.5426 5.096 11.6416 4.145 C 10.7256 3.18 9.5026 2.69 8.0056 2.69 M 7.9736 11.041 C 8.6766 11.041 9.2346 10.757999 9.6436 10.193 C 10.0536 9.629 10.2586 8.864 10.2586 7.898 C 10.2586 6.962 10.0526 6.210999 9.6406 5.645 C 9.2286 5.079 8.683599 4.795 8.0056 4.795 C 7.3206 4.795 6.7726 5.079 6.3626 5.645 C 5.9526 6.210999 5.7476 6.967999 5.7476 7.915 C 5.7476 8.855 5.9516 9.611 6.3596 10.183 C 6.7676 10.754999 7.3066 11.041 7.9736 11.041 M 8.0056 3.69 C 9.223599 3.69 10.1936 4.071 10.9156 4.833 C 11.6386 5.596 11.9996 6.62 11.9996 7.903999 C 11.9996 9.217999 11.6386 10.254999 10.9156 11.013 C 10.1936 11.771 9.2056 12.15 7.9526 12.15 C 6.7556 12.15 5.7986 11.766 5.0816 10.997 C 4.3646 10.226999 4.0056 9.202 4.0056 7.92 C 4.0056 6.624 4.3666 5.596 5.0866 4.833 C 5.8076 4.071 6.7806 3.69 8.0056 3.69" fill="rgb(216, 193, 115)"/>
</svg>
