<?xml version="1.0" encoding="utf-8"?>
<!-- Copyright © 2020 Apple Inc. All rights reserved. -->
<svg xmlns="http://www.w3.org/2000/svg" version="1.1">
    <defs>
        <style>
            g:not(:target) {
                display: none;
            }

            .light {
                --outline: hsla(0, 0%, 100%, 0.5);
            }

            .dark {
                --outline: hsla(0, 0%, 0%, 0.5);
                --shadow: hsla(0, 0%, 0%, 0.5);
            }

            .light.grey {
                --fill: hsl(0, 0%, 85%);
                --stroke: hsl(0, 0%, 60%);
                --light: hsl(0, 0%, 40%);
                --shadow: hsl(0, 0%, 65%);
            }

            .dark.grey {
                --fill: hsl(0, 0%, 20%);
                --stroke: hsl(0, 0%, 79%);
                --light: hsl(0, 0%, 100%);
            }

            .light.blue {
                --fill: hsl(210, 50%, 72%);
                --stroke: hsl(212, 27%, 54%);
                --shadow: hsl(212, 33%, 58%);
            }

            .dark.blue {
                --fill: hsl(210, 50%, 21%);
                --stroke: hsl(212, 94%, 54%);
            }

            .light.red {
                --fill: hsl(359, 69%, 76%);
                --stroke: hsl(359, 39%, 59%);
                --shadow: hsl(357, 46%, 63%);
            }

            .dark.red {
                --fill: hsl(359, 69%, 25%);
                --stroke: hsl(357, 50%, 50%);
            }

            .light.green {
                --fill: hsl(118, 26%, 72%);
                --stroke: hsl(117, 15%, 53%);
                --shadow: hsl(117, 18%, 57%);
            }

            .dark.green {
                --fill: hsl(118, 26%, 24%);
                --stroke: hsl(117, 56%, 65%);
            }

            .light.purple {
                --fill: hsl(281, 26%, 72%);
                --stroke: hsl(279, 15%, 53%);
                --shadow: hsl(280, 18%, 57%);
            }

            .dark.purple {
                --fill: hsl(281, 26%, 23%);
                --stroke: hsl(279, 40%, 53%);
            }

            .light.beige {
                --fill: hsl(28, 51%, 78%);
                --stroke: hsl(28, 28%, 62%);
                --shadow: hsl(28, 28%, 62%);
            }

            .dark.beige {
                --fill: hsl(28, 51%, 21%);
                --stroke: hsl(28, 56%, 65%);
            }

            .light.yellow {
                --fill: hsl(46, 85%, 77%);
                --stroke: hsl(46, 48%, 61%);
                --shadow: hsl(46, 56%, 65%);
            }

            .dark.yellow {
                --fill: hsl(46, 85%, 25%);
                --stroke: hsl(46, 86%, 61%);
            }

            .light.lime {
                --fill: hsl(77, 49%, 61%);
                --stroke: hsl(79, 45%, 43%);
                --shadow: hsl(79, 45%, 52%);
            }

            .dark.lime {
                --fill: hsl(77, 49%, 23%);
                --stroke: hsl(79, 75%, 52%);
            }

            .light.cyan {
                --fill: hsl(192, 50%, 75%);
                --stroke: hsl(192, 48%, 45%);
                --shadow: hsl(192, 40%, 50%);
            }

            .dark.cyan {
                --fill: hsl(192, 50%, 20%);
                --stroke: hsl(192, 48%, 52%);
            }

            .light.teal {
                --fill: hsl(172, 48%, 75%);
                --stroke: hsl(173, 46%, 45%);
                --shadow: hsl(173, 31%, 51%);
            }

            .dark.teal {
                --fill: hsl(173, 48%, 20%);
                --stroke: hsl(173, 50%, 52%);
            }
        </style>
        <clipPath id="clipbox">
            <path d="M 13 2 C 13.550781 2 14 2.449219 14 3 L 14 13 C 14 13.550781 13.550781 14 13 14 L 3 14 C 2.449219 14 2 13.550781 2 13 L 2 3 C 2 2.449219 2.449219 2 3 2 L 13 2"/>
        </clipPath>
    </defs>

    <symbol id="box" viewBox="0 0 16 16">
        <path fill="var(--outline)" d="M13.7142857,0 L2.28571429,0 C1.02678629,0 0,1.02678629 0,2.28571429 L0,13.7142857 C0,14.9732137 1.02678629,16 2.28571429,16 L13.7142857,16 C14.9732137,16 16,14.9732137 16,13.7142857 L16,2.28571429 C16,1.02678629 14.9732137,0 13.7142857,0 Z"/>
        <path fill="var(--fill)" d="M 13 1 L 3 1 C 1.898438 1 1 1.898438 1 3 L 1 13 C 1 14.101562 1.898438 15 3 15 L 13 15 C 14.101562 15 15 14.101562 15 13 L 15 3 C 15 1.898438 14.101562 1 13 1 Z"/>
        <path fill="var(--stroke)" d="M 13 1 L 3 1 C 1.898438 1 1 1.898438 1 3 L 1 13 C 1 14.101562 1.898438 15 3 15 L 13 15 C 14.101562 15 15 14.101562 15 13 L 15 3 C 15 1.898438 14.101562 1 13 1 M 13 2 C 13.550781 2 14 2.449219 14 3 L 14 13 C 14 13.550781 13.550781 14 13 14 L 3 14 C 2.449219 14 2 13.550781 2 13 L 2 3 C 2 2.449219 2.449219 2 3 2 L 13 2"/>
    </symbol>

    <symbol id="A" viewBox="0 0 16 16">
        <path fill="var(--shadow)" d="M 2.61147641 12.75 L 5.96029528 12.75 L 6.8114662 10.628418 L 8.70346974 10.628418 L 9.53482191 12.75 L 13.3777814 12.75 L 9.50565303 2.80078125 L 6.48360478 2.80078125 L 2.61147641 12.75 Z M 2.61147641 12.75"/>
        <path fill="white" d="M 4.07373047 11.75 L 7.16748047 3.80078125 L 8.82177734 3.80078125 L 11.9155273 11.75 L 10.2182617 11.75 L 9.39111328 9.62841797 L 6.10400391 9.62841797 L 5.27685547 11.75 L 4.07373047 11.75 Z M 6.51220703 8.5703125 L 8.98291016 8.5703125 L 7.74755859 5.40136719 L 6.51220703 8.5703125 Z M 6.51220703 8.5703125"/>
    </symbol>

    <symbol id="t" viewBox="0 0 16 16">
        <path fill="var(--shadow)" d="M 6 4.6 L 6 3.1 L 9.7 3.1 L 9.7 4.6 L 11.9 4.6 L 11.9 7.9 L 9.7 7.9 L 9.7 9.7 L 10.9 9.7 L 10.9 12.9 L 9.96771801 12.9 C 9.96433085 12.902539 9.92515143 12.9101747 9.82111614 12.9305807 C 9.59802359 12.9751992 9.40788401 13 9.2 13 C 7.10576174 13 6.1 12.1102877 6.1 10.2 L 6.1 7.9 L 4.1 7.9 L 4.1 4.6 L 6 4.6 Z"/>
        <path fill="white" d="M 8.7 4.1 L 8.7 5.6 L 10.9 5.6 L 10.9 6.9 L 8.7 6.9 L 8.7 9.9 C 8.7 10.5 9 10.7 9.6 10.7 L 9.9 10.7 L 9.9 11.9 C 9.8 11.9 9.5 12 9.2 12 C 7.6 12 7.1 11.5 7.1 10.2 L 7.1 6.9 L 5.1 6.9 L 5.1 5.6 L 7 5.6 L 7 4.1 L 8.7 4.1 L 8.7 4.1 Z"/>
    </symbol>

    <symbol id="T" viewBox="0 0 16 16">
        <polygon fill="var(--shadow)" fill-rule="nonzero" points="9.828 12.975 6.168 12.975 6.168 6.115 3.324 6.115 3.324 3.025 12.676 3.025 12.676 6.115 9.828 6.115"/>
        <polygon fill="white" fill-rule="nonzero" points="7.168 11.975 7.168 5.115 4.324 5.115 4.324 4.025 11.676 4.025 11.676 5.115 8.828 5.115 8.828 11.975"/>
    </symbol>

    <symbol id="R" viewBox="0 0 16 16">
        <path fill="var(--shadow)" d="M 8.1104 3 L 5.0004 3 L 4.0004 3 L 4.0004 4 L 4.0004 12 L 4.0004 13 L 5.0004 13 L 7.0004 13 L 8.0004 13 L 8.0004 12 L 8.0004 11.646 L 8.5584 12.533 L 8.8524 13 L 9.4044 13 L 11.7494 13 L 13.7134 13 L 12.5574 11.412 L 10.5494 8.650999 C 10.8754 8.459 11.1754 8.226 11.3874 7.924999 C 11.7944 7.351999 12.0004 6.702999 12.0004 6 C 12.0004 4.178 10.4734 3 8.1104 3 M 7.0004 7.632 L 7.0274 7.632 C 8.280399 7.632 9.0624 7.144 9.0624 6.167 C 9.0624 5.454 8.3484 5.097 7.2294 5.097 L 7.0004 5.097 L 7.0004 7.632 M 8.1104 4 C 9.7984 4 11.0004 4.678 11.0004 6 C 11.0004 6.493999 10.8574 6.943 10.5704 7.349 C 10.2854 7.754 9.5334 8.049 9.0314 8.264999 L 11.7494 12 L 9.4044 12 L 7.3434 8.729 L 7.0004 8.729 L 7.0004 12 L 5.0004 12 L 5.0004 4 L 8.1104 4"/>
        <path fill="white" d="M 7 7.6323 L 7.027 7.6323 C 8.281 7.6323 9.063001 7.1443 9.063001 6.1673 C 9.063001 5.4543 8.348001 5.0973 7.229001 5.0973 L 7 5.0973 L 7 7.6323 Z M 5 12.0003 L 5 4.0003 L 8.11 4.0003 C 9.799001 4.0003 11 4.6773 11 6.0003 C 11 6.4943 10.857 6.9433 10.57 7.3493 C 10.285 7.7543 9.533 8.0493 9.031 8.2643 L 11.749 12.0003 L 9.404 12.0003 L 7.344 8.7293 L 7 8.7293 L 7 12.0003 L 5 12.0003 Z"/>
    </symbol>

    <symbol id="S" viewBox="0 0 16 16">
        <path fill="var(--shadow)" d="M 5.19849793 12.6584609 C 5.2831472 12.676395 6.98277851 12.9487305 7.62939453 12.9487305 C 8.79640591 12.9487305 9.76331344 12.6806542 10.5034462 12.1146703 C 11.3037555 11.5026691 11.7177734 10.6286312 11.7177734 9.58544922 C 11.7177734 8.84534902 11.4998181 8.18341061 11.0628295 7.63852362 C 10.6767371 7.15709971 10.0557113 6.69185669 9.18734192 6.20492057 L 8.61524891 5.88648574 C 8.27558142 5.69523066 8.15431716 5.69238281 8.23632812 5.69238281 C 8.56703836 5.69238281 9.10333246 5.81936052 9.8138795 6.08542439 L 11.1645508 6.59118236 L 11.1645508 5.14892578 L 11.1645508 3.87597656 L 11.1645508 3.07965768 L 10.3884483 2.90136387 C 9.52406853 2.70279014 8.73593121 2.60205078 8.02148438 2.60205078 C 7.01081351 2.60205078 6.14909735 2.87110984 5.47554965 3.42697448 C 4.76046595 4.01711791 4.38964844 4.82767811 4.38964844 5.77734375 C 4.38964844 6.49239045 4.61205052 7.14196725 5.04920932 7.68841575 C 5.43639142 8.17239338 6.03437082 8.62885808 6.84888633 9.08727887 L 7.38545082 9.38538774 C 7.71699471 9.57330366 7.92926232 9.72631865 7.99164827 9.79813503 C 7.94460492 9.81851991 7.82252674 9.85302734 7.60253906 9.85302734 C 7.14294036 9.85302734 6.53493744 9.70437137 5.79174704 9.39341305 L 4.40576172 8.81350287 L 4.40576172 10.315918 L 4.40576172 11.6801758 L 4.40576172 12.4905083 L 5.19849793 12.6584609 C 5.52713094 12.7280865 5.52713094 12.7280865 5.57407851 12.738033 L 5.19849793 12.6584609 Z M 5.19849793 12.6584609"/>
        <path fill="white" d="M 5.40576172 11.6801758 L 5.40576172 10.315918 C 6.26156027 10.6739927 6.99381206 10.8530273 7.60253906 10.8530273 C 8.02864796 10.8530273 8.36433797 10.758139 8.60961914 10.5683594 C 8.85490031 10.3785798 8.97753906 10.1207699 8.97753906 9.79492188 C 8.97753906 9.53710809 8.90055416 9.31958096 8.74658203 9.14233398 C 8.59260991 8.965087 8.3007834 8.75472127 7.87109375 8.51123047 L 7.33935547 8.21582031 C 6.6267868 7.81477664 6.12369938 7.43074728 5.83007812 7.0637207 C 5.53645687 6.69669413 5.38964844 6.2679061 5.38964844 5.77734375 C 5.38964844 5.12206704 5.63045007 4.59570511 6.11206055 4.19824219 C 6.59367103 3.80077926 7.23013927 3.60205078 8.02148438 3.60205078 C 8.65527661 3.60205078 9.36962493 3.69335846 10.1645508 3.87597656 L 10.1645508 5.14892578 C 9.3517212 4.84456228 8.70898674 4.69238281 8.23632812 4.69238281 C 7.87109192 4.69238281 7.57837024 4.77384359 7.3581543 4.93676758 C 7.13793835 5.09969157 7.02783203 5.313638 7.02783203 5.57861328 C 7.02783203 5.79703885 7.10481694 5.98860595 7.25878906 6.15332031 C 7.41276119 6.31803468 7.70279735 6.52034385 8.12890625 6.76025391 L 8.69824219 7.07714844 C 9.46452206 7.50683809 9.99267433 7.9025047 10.2827148 8.26416016 C 10.5727554 8.62581561 10.7177734 9.06624089 10.7177734 9.58544922 C 10.7177734 10.3230831 10.4438504 10.9013651 9.89599609 11.3203125 C 9.34814179 11.7392599 8.59261549 11.9487305 7.62939453 11.9487305 C 6.99202155 11.9487305 6.25081803 11.8592131 5.40576172 11.6801758 C 5.40576172 11.6801758 6.25081803 11.8592131 5.40576172 11.6801758 L 5.40576172 11.6801758 L 5.40576172 11.6801758 Z M 5.40576172 11.6801758"/>
    </symbol>

    <symbol id="C" viewBox="0 0 16 16">
        <path fill="var(--shadow)" d="M 4.773438 11.542969 C 3.855469 10.621094 3.390625 9.347656 3.390625 7.769531 C 3.390625 6.15625 3.863281 4.878906 4.789062 3.964844 C 5.710938 3.054688 7.003906 2.59375 8.625 2.59375 C 9.570312 2.59375 10.519531 2.707031 11.441406 2.929688 C 11.890625 3.035156 12.210938 3.4375 12.210938 3.902344 L 12.210938 5.195312 C 12.210938 5.519531 12.050781 5.824219 11.789062 6.011719 C 11.613281 6.132812 11.410156 6.195312 11.207031 6.195312 C 11.097656 6.195312 10.984375 6.179688 10.878906 6.140625 C 10.015625 5.835938 9.308594 5.683594 8.769531 5.683594 C 8.058594 5.683594 7.753906 5.941406 7.589844 6.132812 C 7.296875 6.476562 7.148438 7.019531 7.148438 7.746094 C 7.148438 8.445312 7.308594 8.972656 7.621094 9.320312 C 7.808594 9.523438 8.148438 9.796875 8.921875 9.796875 C 9.542969 9.796875 10.1875 9.632812 10.839844 9.308594 C 10.980469 9.242188 11.132812 9.207031 11.285156 9.207031 C 11.46875 9.207031 11.648438 9.257812 11.8125 9.359375 C 12.105469 9.539062 12.285156 9.859375 12.285156 10.207031 L 12.285156 11.425781 C 12.285156 11.820312 12.050781 12.179688 11.691406 12.339844 C 10.792969 12.738281 9.730469 12.941406 8.527344 12.941406 C 6.957031 12.941406 5.691406 12.472656 4.773438 11.542969"/>
        <path fill="white" d="M 11.285156 11.425781 C 10.515625 11.769531 9.597656 11.941406 8.527344 11.941406 C 7.226562 11.941406 6.210938 11.574219 5.484375 10.839844 C 4.757812 10.105469 4.394531 9.082031 4.394531 7.769531 C 4.394531 6.429688 4.757812 5.398438 5.492188 4.675781 C 6.222656 3.957031 7.269531 3.59375 8.625 3.59375 C 9.492188 3.59375 10.351562 3.695312 11.210938 3.902344 L 11.210938 5.195312 C 10.238281 4.855469 9.425781 4.683594 8.769531 4.683594 C 7.933594 4.683594 7.285156 4.949219 6.832031 5.484375 C 6.375 6.015625 6.148438 6.769531 6.148438 7.746094 C 6.148438 8.707031 6.394531 9.453125 6.882812 9.992188 C 7.371094 10.527344 8.050781 10.796875 8.921875 10.796875 C 9.703125 10.796875 10.488281 10.601562 11.285156 10.207031 Z"/>
    </symbol>

    <symbol id="D" viewBox="0 0 16 16">
        <path fill="var(--shadow)" d="M 4.445312 12.742188 C 3.890625 12.742188 3.445312 12.292969 3.445312 11.742188 L 3.445312 3.792969 C 3.445312 3.242188 3.890625 2.792969 4.445312 2.792969 L 7.867188 2.792969 C 9.367188 2.792969 10.554688 3.222656 11.402344 4.0625 C 12.25 4.910156 12.679688 6.101562 12.679688 7.601562 C 12.679688 9.171875 12.234375 10.429688 11.359375 11.347656 C 10.472656 12.273438 9.246094 12.742188 7.71875 12.742188 L 4.445312 12.742188 M 7.335938 9.613281 C 8.1875 9.613281 8.449219 9.324219 8.535156 9.226562 C 8.789062 8.941406 8.921875 8.414062 8.921875 7.699219 C 8.921875 7.140625 8.8125 6.703125 8.578125 6.363281 C 8.457031 6.183594 8.328125 6.070312 8.1875 6.011719 C 8.0625 5.964844 7.761719 5.882812 7.097656 5.882812 C 7.097656 6.960938 7.097656 8.539062 7.097656 9.613281 C 7.171875 9.613281 7.335938 9.613281 7.335938 9.613281"/>
        <path fill="white" d="M 4.445312 11.742188 L 4.445312 3.792969 L 7.867188 3.792969 C 9.097656 3.792969 10.039062 4.121094 10.695312 4.773438 C 11.351562 5.425781 11.679688 6.371094 11.679688 7.601562 C 11.679688 8.910156 11.332031 9.929688 10.636719 10.65625 C 9.941406 11.378906 8.96875 11.742188 7.71875 11.742188 Z M 6.097656 10.613281 L 7.332031 10.613281 C 8.203125 10.613281 8.851562 10.375 9.28125 9.890625 C 9.707031 9.410156 9.921875 8.679688 9.921875 7.699219 C 9.921875 6.9375 9.75 6.308594 9.40625 5.800781 C 9.171875 5.453125 8.886719 5.214844 8.554688 5.082031 C 8.21875 4.949219 7.734375 4.882812 7.097656 4.882812 L 6.097656 4.882812 Z"/>
    </symbol>

    <symbol id="E" viewBox="0 0 16 16">
        <path fill="var(--shadow)" d="M 5.503906 12.742188 C 4.949219 12.742188 4.503906 12.292969 4.503906 11.742188 L 4.503906 3.792969 C 4.503906 3.242188 4.949219 2.792969 5.503906 2.792969 L 10.472656 2.792969 C 11.023438 2.792969 11.472656 3.242188 11.472656 3.792969 L 11.472656 4.882812 C 11.472656 5.4375 11.023438 5.882812 10.472656 5.882812 C 10.472656 5.882812 9.132812 5.882812 8.15625 5.882812 C 8.15625 5.992188 8.15625 5.996094 8.15625 6.101562 C 8.957031 6.101562 9.875 6.101562 9.875 6.101562 C 10.425781 6.101562 10.875 6.550781 10.875 7.101562 L 10.875 8.164062 C 10.875 8.71875 10.425781 9.164062 9.875 9.164062 C 9.875 9.164062 8.957031 9.164062 8.15625 9.164062 C 8.15625 9.382812 8.15625 9.398438 8.15625 9.613281 C 9.191406 9.613281 10.722656 9.613281 10.722656 9.613281 C 11.277344 9.613281 11.722656 10.0625 11.722656 10.613281 L 11.722656 11.742188 C 11.722656 12.292969 11.277344 12.742188 10.722656 12.742188 L 5.503906 12.742188"/>
        <path fill="white" d="M 5.503906 11.742188 L 5.503906 3.792969 L 10.46875 3.792969 L 10.46875 4.882812 L 7.15625 4.882812 L 7.15625 7.101562 L 9.875 7.101562 L 9.875 8.164062 L 7.15625 8.164062 L 7.15625 10.613281 L 10.722656 10.613281 L 10.722656 11.742188 Z"/>
    </symbol>

    <symbol id="N" viewBox="0 0 16 16">
        <path fill="var(--shadow)" d="M 9.5625 12.742188 C 9.230469 12.742188 8.917969 12.574219 8.734375 12.300781 C 8.734375 12.300781 7.816406 10.941406 6.90625 9.585938 C 6.90625 10.617188 6.90625 11.742188 6.90625 11.742188 C 6.90625 12.292969 6.457031 12.742188 5.90625 12.742188 L 4.578125 12.742188 C 4.027344 12.742188 3.578125 12.292969 3.578125 11.742188 L 3.578125 3.792969 C 3.578125 3.242188 4.027344 2.792969 4.578125 2.792969 L 6.035156 2.792969 C 6.367188 2.792969 6.675781 2.957031 6.863281 3.230469 C 6.863281 3.230469 7.789062 4.601562 8.71875 5.96875 C 8.71875 4.925781 8.71875 3.792969 8.71875 3.792969 C 8.71875 3.242188 9.164062 2.792969 9.71875 2.792969 L 11.046875 2.792969 C 11.597656 2.792969 12.046875 3.242188 12.046875 3.792969 L 12.046875 11.742188 C 12.046875 12.292969 11.597656 12.742188 11.046875 12.742188 L 9.5625 12.742188"/>
        <path fill="white" d="M 4.578125 11.742188 L 4.578125 3.792969 L 6.035156 3.792969 L 9.71875 9.222656 L 9.71875 3.792969 L 11.046875 3.792969 L 11.046875 11.742188 L 9.5625 11.742188 L 5.90625 6.3125 L 5.90625 11.742188 Z"/>
    </symbol>

    <symbol id="I" viewBox="0 0 16 16">
        <path fill="var(--shadow)" d="M 9.641 5.883 L 9.641 9.652 L 10.988 9.652 C 11.543 9.652 11.988 10.102 11.988 10.652 L 11.988 11.742 C 11.988 12.297 11.543 12.742 10.988 12.742 L 4.637 12.742 C 4.182 12.742 3.637 12.297 3.637 11.742 L 3.637 10.652 C 3.637 10.102 4.182 9.652 4.637 9.652 L 5.98 9.652 L 5.98 5.883 L 4.637 5.883 C 4.182 5.883 3.637 5.438 3.637 4.883 L 3.637 3.793 C 3.637 3.242 4.182 2.793 4.637 2.793 L 10.988 2.793 C 11.543 2.793 11.988 3.242 11.988 3.793 L 11.988 4.883 C 11.988 5.438 11.543 5.883 10.988 5.883 L 9.641 5.883 Z"/>
        <path fill="white" d="M 6.980469 10.652345 L 6.980469 4.882812 L 4.636719 4.882812 L 4.636719 3.792969 L 10.988281 3.792969 L 10.988281 4.882812 L 8.640625 4.882812 L 8.640625 10.652345 L 10.988281 10.652345 L 10.988281 11.742188 L 4.636719 11.742188 L 4.636719 10.652345 Z"/>
    </symbol>

    <symbol id="Ex" viewBox="0 0 16 16">
        <polygon fill="var(--shadow)" points="9 3 3 3 3 13 10.242 13 10.504 12.5 10.781 13 14.922 13 13.941 11.465 12.66 9.453 13.898 7.664 14.98 6.094 10.824 6.094 10.563 6.578 10.277 6.094 9 6.094" style="clip-path: url(#clipbox);"/>
        <path fill="white" d="M 11.460938 9.433594 L 13.074219 7.09375 L 11.421875 7.09375 L 10.988281 7.898438 C 10.859375 8.136719 10.738281 8.378906 10.609375 8.648438 L 10.589844 8.648438 C 10.457031 8.410156 10.328125 8.167969 10.1875 7.917969 L 9.703125 7.09375 L 8 7.09375 L 9.625 9.5 L 8 11.941406 L 8 10.5 L 5.625 10.5 L 5.625 8.582031 L 7.25 8.582031 L 7.25 7.09375 L 5.625 7.09375 L 5.625 5.414062 L 8 5.414062 L 8 4 L 4 4 L 4 12 L 9.636719 12 L 10.097656 11.117188 C 10.21875 10.875 10.347656 10.636719 10.46875 10.375 L 10.496094 10.375 C 10.617188 10.625 10.738281 10.875 10.878906 11.117188 L 11.371094 12 L 13.097656 12 L 11.460938 9.433594 Z"/>
    </symbol>

    <symbol id="f" viewBox="0 0 16 16">
        <path fill="var(--shadow)" d="M 10.504 2.559 C 8.164 2.559 6.574 3.742 5.883 5.988 L 4.445 6.0 L 3.449 6.008 L 3.449 9.0 L 5.156 9.0 L 4.219 12.926 L 3.922 14.156 L 7.965 14.156 L 8.148 13.387 L 9.191 9.0 L 11.301 9.0 L 11.301 6.0 L 9.902 6.0 C 10.07 5.59 10.297 5.59 10.48 5.59 C 10.801 5.59 11.191 5.652 11.645 5.77 L 12.797 6.074 L 12.898 4.891 L 12.996 3.758 L 13.078 2.828 L 12.156 2.684 C 11.637 2.598 11.082 2.559 10.504 2.559" style="clip-path: url(#clipbox);"/>
        <path fill="white" d="M 5.191 13.156 L 6.426 8.0 L 4.449 8.0 L 4.449 7.0 L 6.613 6.984 L 6.742 6.617 C 7.258 4.578 8.508 3.559 10.5 3.559 C 11.031 3.559 11.531 3.594 12.0 3.668 L 11.902 4.805 C 11.363 4.66 10.891 4.59 10.484 4.59 C 9.605 4.59 9.051 5.102 8.82 6.129 L 8.625 7.0 L 10.301 7.0 L 10.301 8.0 L 8.398 8.0 L 7.176 13.156 L 5.191 13.156 Z"/>
    </symbol>

    <symbol id="O" viewBox="0 0 16 16">
        <path fill="var(--shadow)" d="M 7.9736 10.041 C 7.6326 10.041 7.3936 9.91 7.1736 9.601999 C 6.8906 9.205999 6.7476 8.638 6.7476 7.915 C 6.7476 7.186999 6.8906 6.620999 7.1726 6.23 C 7.3936 5.926 7.6426 5.795 8.0056 5.795 C 8.3616 5.795 8.6086 5.926 8.8316 6.233 C 9.1156 6.622 9.2586 7.183 9.2586 7.898 C 9.2586 8.643999 9.1166 9.217999 8.834599 9.605 C 8.6136 9.910999 8.355599 10.041 7.9736 10.041 M 8.0056 2.69 C 6.5006 2.69 5.2736 3.18 4.3606 4.146 C 3.4616 5.097 3.0056 6.367 3.0056 7.92 C 3.0056 9.455999 3.4576 10.721 4.3496 11.679 C 5.2616 12.655 6.4736 13.15 7.9526 13.15 C 9.4846 13.15 10.7246 12.663 11.6406 11.702 C 12.5416 10.756 12.9996 9.478 12.9996 7.903999 C 12.9996 6.360999 12.5426 5.096 11.6416 4.145 C 10.7256 3.18 9.5026 2.69 8.0056 2.69 M 7.9736 11.041 C 8.6766 11.041 9.2346 10.757999 9.6436 10.193 C 10.0536 9.629 10.2586 8.864 10.2586 7.898 C 10.2586 6.962 10.0526 6.210999 9.6406 5.645 C 9.2286 5.079 8.683599 4.795 8.0056 4.795 C 7.3206 4.795 6.7726 5.079 6.3626 5.645 C 5.9526 6.210999 5.7476 6.967999 5.7476 7.915 C 5.7476 8.855 5.9516 9.611 6.3596 10.183 C 6.7676 10.754999 7.3066 11.041 7.9736 11.041 M 8.0056 3.69 C 9.223599 3.69 10.1936 4.071 10.9156 4.833 C 11.6386 5.596 11.9996 6.62 11.9996 7.903999 C 11.9996 9.217999 11.6386 10.254999 10.9156 11.013 C 10.1936 11.771 9.2056 12.15 7.9526 12.15 C 6.7556 12.15 5.7986 11.766 5.0816 10.997 C 4.3646 10.226999 4.0056 9.202 4.0056 7.92 C 4.0056 6.624 4.3666 5.596 5.0866 4.833 C 5.8076 4.071 6.7806 3.69 8.0056 3.69"/>
        <path fill="white" d="M 7.9736 11.041 C 8.6766 11.041 9.2346 10.757999 9.6436 10.193 C 10.0536 9.629 10.2586 8.864 10.2586 7.898 C 10.2586 6.962 10.0526 6.210999 9.6406 5.645 C 9.2286 5.079 8.683599 4.795 8.0056 4.795 C 7.3206 4.795 6.7726 5.079 6.3626 5.645 C 5.9526 6.210999 5.7476 6.967999 5.7476 7.915 C 5.7476 8.855 5.9516 9.611 6.3596 10.183 C 6.7676 10.754999 7.3066 11.041 7.9736 11.041 M 7.9526 12.15 C 6.7556 12.15 5.7986 11.766 5.0816 10.997 C 4.3646 10.226999 4.0056 9.202 4.0056 7.92 C 4.0056 6.624 4.3666 5.596 5.0866 4.833 C 5.8076 4.071 6.7806 3.69 8.0056 3.69 C 9.223599 3.69 10.1936 4.071 10.9156 4.833 C 11.6386 5.596 11.9996 6.62 11.9996 7.903999 C 11.9996 9.217999 11.6386 10.254999 10.9156 11.013 C 10.1936 11.771 9.2056 12.15 7.9526 12.15"/>
    </symbol>

    <symbol id="braces" viewBox="0 0 16 16">
        <path fill="var(--shadow)" d="M 7.984375 3 L 6.585938 3 C 6.101562 3 5.714844 3.050781 5.394531 3.160156 C 4.984375 3.296875 4.648438 3.527344 4.382812 3.84375 C 4.121094 4.160156 3.953125 4.546875 3.886719 4.984375 C 3.847656 5.265625 3.828125 5.636719 3.828125 6.152344 C 3.828125 6.21875 3.828125 6.277344 3.824219 6.332031 L 3 6.339844 L 3 9.652344 L 3.820312 9.683594 C 3.824219 9.796875 3.828125 9.941406 3.828125 10.136719 C 3.828125 10.8125 3.90625 11.308594 4.082031 11.691406 C 4.300781 12.1875 4.679688 12.558594 5.171875 12.777344 C 5.546875 12.941406 6.011719 13.023438 6.585938 13.023438 L 7.980469 13.023438 L 7.980469 9.652344 L 7.1875 9.652344 L 7.171875 9.316406 C 7.144531 8.789062 7.050781 8.363281 6.882812 8.015625 C 7.015625 7.730469 7.105469 7.433594 7.144531 7.121094 C 7.160156 7.015625 7.175781 6.820312 7.195312 6.363281 L 7.984375 6.363281 Z M 6.984375 4 L 6.984375 5.363281 L 6.785156 5.363281 C 6.367188 5.363281 6.277344 5.417969 6.265625 5.425781 C 6.265625 5.425781 6.21875 5.488281 6.214844 5.742188 C 6.199219 6.386719 6.175781 6.804688 6.152344 7 C 6.125 7.210938 6.0625 7.417969 5.964844 7.613281 C 5.894531 7.753906 5.789062 7.886719 5.644531 8.011719 C 5.78125 8.132812 5.890625 8.269531 5.96875 8.421875 C 6.085938 8.648438 6.152344 8.957031 6.171875 9.363281 L 6.226562 10.515625 C 6.234375 10.539062 6.257812 10.574219 6.296875 10.601562 C 6.308594 10.605469 6.394531 10.652344 6.78125 10.652344 L 6.980469 10.652344 L 6.980469 12.023438 L 6.585938 12.023438 C 6.152344 12.023438 5.820312 11.96875 5.574219 11.859375 C 5.308594 11.742188 5.113281 11.550781 4.992188 11.285156 C 4.882812 11.035156 4.828125 10.660156 4.828125 10.136719 C 4.828125 9.453125 4.796875 9.230469 4.78125 9.152344 C 4.753906 9.03125 4.699219 8.925781 4.617188 8.824219 C 4.554688 8.75 4.40625 8.703125 4.195312 8.695312 L 4 8.6875 L 4 7.328125 L 4.199219 7.328125 C 4.414062 7.324219 4.570312 7.265625 4.667969 7.144531 C 4.714844 7.085938 4.828125 6.875 4.828125 6.152344 C 4.828125 5.691406 4.84375 5.355469 4.878906 5.128906 C 4.914062 4.875 5.007812 4.65625 5.152344 4.484375 C 5.296875 4.3125 5.484375 4.183594 5.710938 4.105469 C 5.925781 4.035156 6.210938 4 6.585938 4 L 6.984375 4"/>
        <path fill="var(--shadow)" d="M 9.414062 3 L 8.015625 3 L 8.015625 6.363281 L 8.808594 6.363281 C 8.824219 6.804688 8.851562 7.113281 8.890625 7.328125 C 8.933594 7.570312 9.011719 7.804688 9.117188 8.019531 C 9 8.261719 8.921875 8.519531 8.878906 8.785156 C 8.851562 8.921875 8.828125 9.136719 8.808594 9.652344 L 8.019531 9.652344 L 8.019531 13.023438 L 9.421875 13.023438 C 9.90625 13.023438 10.296875 12.96875 10.617188 12.859375 C 11.003906 12.730469 11.355469 12.496094 11.617188 12.179688 C 11.886719 11.855469 12.054688 11.472656 12.117188 11.035156 C 12.15625 10.753906 12.171875 10.382812 12.171875 9.863281 C 12.171875 9.800781 12.175781 9.742188 12.175781 9.691406 L 13 9.683594 L 13 6.371094 L 12.179688 6.339844 C 12.175781 6.230469 12.171875 6.078125 12.171875 5.886719 C 12.171875 5.210938 12.09375 4.714844 11.921875 4.328125 C 11.699219 3.839844 11.324219 3.464844 10.828125 3.246094 C 10.453125 3.078125 9.988281 3 9.414062 3 M 9.414062 4 C 9.847656 4 10.179688 4.054688 10.425781 4.160156 C 10.691406 4.277344 10.886719 4.472656 11.007812 4.738281 C 11.117188 4.988281 11.171875 5.363281 11.171875 5.886719 C 11.171875 6.59375 11.203125 6.816406 11.222656 6.886719 C 11.253906 7.003906 11.308594 7.105469 11.390625 7.203125 C 11.425781 7.246094 11.523438 7.316406 11.808594 7.328125 L 12 7.335938 L 12 8.695312 L 11.800781 8.695312 C 11.585938 8.699219 11.433594 8.757812 11.332031 8.878906 C 11.273438 8.953125 11.171875 9.175781 11.171875 9.863281 C 11.171875 10.332031 11.15625 10.667969 11.125 10.894531 C 11.089844 11.144531 10.996094 11.363281 10.851562 11.539062 C 10.707031 11.714844 10.519531 11.839844 10.292969 11.914062 C 10.082031 11.984375 9.796875 12.023438 9.421875 12.023438 L 9.019531 12.023438 L 9.019531 10.652344 L 9.21875 10.652344 C 9.636719 10.652344 9.726562 10.59375 9.730469 10.59375 C 9.730469 10.59375 9.785156 10.53125 9.789062 10.277344 C 9.808594 9.582031 9.828125 9.148438 9.863281 8.945312 C 9.898438 8.730469 9.972656 8.527344 10.078125 8.339844 C 10.144531 8.21875 10.238281 8.109375 10.355469 8.007812 C 10.230469 7.902344 10.140625 7.796875 10.074219 7.6875 C 9.976562 7.523438 9.910156 7.34375 9.875 7.148438 C 9.839844 6.96875 9.816406 6.644531 9.800781 6.183594 C 9.78125 5.597656 9.761719 5.480469 9.757812 5.457031 C 9.695312 5.402344 9.609375 5.363281 9.214844 5.363281 L 9.015625 5.363281 L 9.015625 4 L 9.414062 4"/>
        <path fill="white" d="M 6.585938 12.023438 C 6.152344 12.023438 5.820312 11.96875 5.574219 11.863281 C 5.308594 11.746094 5.113281 11.550781 4.992188 11.285156 C 4.882812 11.035156 4.828125 10.660156 4.828125 10.136719 C 4.828125 9.453125 4.796875 9.226562 4.78125 9.152344 C 4.753906 9.03125 4.699219 8.925781 4.617188 8.824219 C 4.558594 8.75 4.40625 8.703125 4.191406 8.695312 L 4 8.6875 L 4 7.328125 L 4.199219 7.328125 C 4.414062 7.324219 4.566406 7.265625 4.667969 7.144531 C 4.714844 7.085938 4.828125 6.875 4.828125 6.152344 C 4.828125 5.691406 4.84375 5.355469 4.878906 5.128906 C 4.914062 4.875 5.007812 4.660156 5.152344 4.484375 C 5.296875 4.308594 5.484375 4.183594 5.710938 4.109375 C 5.925781 4.035156 6.210938 4 6.585938 4 L 6.984375 4 L 6.984375 5.367188 L 6.785156 5.367188 C 6.363281 5.367188 6.273438 5.417969 6.265625 5.425781 C 6.265625 5.425781 6.21875 5.488281 6.214844 5.742188 C 6.199219 6.386719 6.175781 6.804688 6.152344 7 C 6.125 7.210938 6.0625 7.417969 5.964844 7.613281 C 5.894531 7.753906 5.789062 7.882812 5.644531 8.011719 C 5.78125 8.132812 5.890625 8.273438 5.96875 8.421875 C 6.085938 8.648438 6.152344 8.957031 6.171875 9.367188 L 6.226562 10.515625 C 6.234375 10.539062 6.257812 10.574219 6.300781 10.601562 C 6.308594 10.605469 6.394531 10.65625 6.78125 10.65625 L 6.980469 10.65625 L 6.980469 12.023438 Z"/>
        <path fill="white" d="M 9.019531 12.023438 L 9.019531 10.65625 L 9.21875 10.65625 C 9.636719 10.65625 9.726562 10.59375 9.734375 10.589844 C 9.734375 10.589844 9.785156 10.53125 9.789062 10.277344 C 9.804688 9.582031 9.832031 9.148438 9.863281 8.945312 C 9.898438 8.730469 9.96875 8.527344 10.078125 8.339844 C 10.144531 8.21875 10.238281 8.109375 10.351562 8.007812 C 10.230469 7.902344 10.140625 7.796875 10.074219 7.6875 C 9.976562 7.523438 9.910156 7.34375 9.875 7.152344 C 9.839844 6.96875 9.816406 6.644531 9.800781 6.183594 C 9.78125 5.597656 9.761719 5.476562 9.757812 5.457031 C 9.695312 5.402344 9.609375 5.367188 9.214844 5.367188 L 9.015625 5.367188 L 9.015625 4 L 9.414062 4 C 9.847656 4 10.179688 4.050781 10.425781 4.160156 C 10.691406 4.277344 10.886719 4.472656 11.007812 4.738281 C 11.117188 4.988281 11.171875 5.363281 11.171875 5.886719 C 11.171875 6.589844 11.207031 6.816406 11.222656 6.886719 C 11.253906 7.003906 11.308594 7.105469 11.390625 7.203125 C 11.425781 7.246094 11.527344 7.316406 11.804688 7.328125 L 12 7.335938 L 12 8.695312 L 11.800781 8.695312 C 11.585938 8.699219 11.433594 8.757812 11.332031 8.878906 C 11.273438 8.953125 11.171875 9.175781 11.171875 9.867188 C 11.171875 10.332031 11.15625 10.667969 11.125 10.890625 C 11.089844 11.144531 11 11.363281 10.851562 11.539062 C 10.707031 11.710938 10.519531 11.839844 10.292969 11.914062 C 10.082031 11.988281 9.792969 12.023438 9.417969 12.023438 Z"/>
    </symbol>    

    <symbol id="M" viewBox="0 0 16 16">
        <path fill="var(--shadow)" d="M 5.5 3 C 6 3 6.2 3.33 6.5 4 L 8 7 L 9.5 4 C 9.8 3.33 10.2 3 10.5 3 L 10.5 3 L 12 3 C 12.66 3 13 3.33 13 4 L 13 12 C 13 12.66 12.66 13 12 13 L 10.5 13 C 9.8 13 9.5 12.66 9.5 12 L 9.5 11 L 9 12 C 8.5 13 8.5 13 8 13 L 8 13 C 7.5 13 7.5 13 7 12 L 7 12 L 6.5 11 L 6.5 12 C 6.5 12.5 6 13 5.5 13 L 5.5 13 L 4 13 C 3.5 13 3 12.75 3 12 L 3 12 L 3 4 C 3 3.5 3.5 3 4 3 L 4 3 L 5.5 3 Z"/>
        <path fill="white" d="M 4 12 V 4 H 5.5 L 8 9 L 10.5 4 H 12 V 12 H 10.5 V 7 L 8 12 L 5.5 7 V 12 H 4 Z"/>
    </symbol>

    <symbol id="P" viewBox="0 0 16 16">
        <path fill="var(--shadow)" d="M 7.78125 6.679688 L 7.78125 6.113281 C 8.019531 6.136719 8.117188 6.1875 8.144531 6.203125 C 8.140625 6.210938 8.148438 6.242188 8.148438 6.292969 C 8.148438 6.441406 8.105469 6.496094 8.015625 6.566406 C 7.953125 6.613281 7.875 6.648438 7.78125 6.679688 M 8.042969 3 L 4 3 L 4 13 L 7.78125 13 L 7.78125 9.863281 C 8.988281 9.824219 9.96875 9.507812 10.707031 8.925781 C 11.550781 8.257812 12 7.289062 12 6.125 C 12 4.753906 11.402344 4.035156 10.902344 3.675781 C 10.265625 3.222656 9.332031 3 8.042969 3 M 6.78125 7.769531 L 7.136719 7.769531 C 7.757812 7.769531 8.246094 7.636719 8.605469 7.371094 C 8.96875 7.105469 9.148438 6.746094 9.148438 6.292969 C 9.148438 5.496094 8.59375 5.097656 7.488281 5.097656 L 6.78125 5.097656 L 6.78125 7.769531 M 8.042969 4 C 9.105469 4 9.863281 4.164062 10.316406 4.488281 C 10.773438 4.816406 11 5.359375 11 6.125 C 11 6.988281 10.695312 7.660156 10.085938 8.144531 C 9.480469 8.625 8.628906 8.863281 7.535156 8.863281 L 6.78125 8.863281 L 6.78125 12 L 5 12 L 5 4 L 8.042969 4"/>
        <path fill="white" d="M 6.78125 7.769531 L 7.136719 7.769531 C 7.757812 7.769531 8.246094 7.636719 8.605469 7.371094 C 8.96875 7.105469 9.148438 6.746094 9.148438 6.292969 C 9.148438 5.496094 8.59375 5.097656 7.488281 5.097656 L 6.78125 5.097656 Z M 5 12 L 5 4 L 8.042969 4 C 9.105469 4 9.863281 4.164062 10.316406 4.488281 C 10.773438 4.816406 11 5.359375 11 6.125 C 11 6.988281 10.695312 7.660156 10.085938 8.144531 C 9.480469 8.625 8.628906 8.863281 7.535156 8.863281 L 6.78125 8.863281 L 6.78125 12 Z"/>
    </symbol>

    <symbol id="F" viewBox="0 0 16 16">
        <path fill="var(--shadow)" d="M 12 3 L 11 3 L 5 3 L 4 3 L 4 4 L 4 12 L 4 12.962999 L 4.962 12.999 L 6.962 13.075 L 8 13.115 L 8 12.076 L 8 9 L 10 9 L 11 9 L 11 8 L 11 7 L 11 6 L 10 6 L 8 6 L 11 6 L 12 6 L 12 5 L 12 4 L 12 3 Z M 11 4 L 11 5 L 7 5 L 7 7 L 10 7 L 10 8 L 7 8 L 7 12.076 L 5 12 L 5 4 L 11 4 Z"/>
        <path fill="white" d="M 5 12 L 5 4 L 11 4 L 11 5 L 7 5 L 7 7 L 10 7 L 10 8 L 7 8 L 7 12.076 L 5 12 Z"/>
    </symbol>
    
    <symbol id="question-mark" viewBox="0 0 16 16">
        <path fill="var(--shadow)" d="M 6.796875 12.742188 C 6.242188 12.742188 5.796875 12.292969 5.796875 11.742188 L 5.796875 10.417969 C 5.796875 10.25 5.835938 10.09375 5.910156 9.953125 C 5.835938 9.816406 5.796875 9.660156 5.796875 9.492188 L 5.796875 9.339844 C 5.796875 8.511719 6.152344 7.699219 6.847656 6.925781 L 7.234375 6.503906 C 7.671875 6.019531 7.734375 5.757812 7.746094 5.671875 C 7.691406 5.660156 7.609375 5.652344 7.488281 5.652344 C 7.097656 5.652344 6.613281 5.78125 6.046875 6.039062 C 5.914062 6.101562 5.773438 6.128906 5.632812 6.128906 C 5.441406 6.128906 5.253906 6.078125 5.089844 5.972656 C 4.804688 5.785156 4.628906 5.472656 4.628906 5.128906 L 4.628906 3.917969 C 4.628906 3.476562 4.917969 3.089844 5.339844 2.960938 C 6.144531 2.71875 6.941406 2.59375 7.71875 2.59375 C 8.769531 2.59375 9.632812 2.816406 10.285156 3.25 C 11.058594 3.761719 11.46875 4.511719 11.46875 5.414062 C 11.46875 6.214844 11.066406 7 10.269531 7.753906 L 9.917969 8.09375 C 9.546875 8.441406 9.460938 8.601562 9.453125 8.621094 C 9.4375 8.652344 9.390625 8.765625 9.390625 9.035156 L 9.390625 9.492188 C 9.390625 9.660156 9.351562 9.816406 9.277344 9.953125 C 9.351562 10.09375 9.390625 10.25 9.390625 10.417969 L 9.390625 11.742188 C 9.390625 12.292969 8.945312 12.742188 8.390625 12.742188 L 6.796875 12.742188"/>
        <path fill="white" d="M 6.796875 11.742188 L 6.796875 10.414062 L 8.390625 10.414062 L 8.390625 11.742188 Z M 8.390625 9.492188 L 6.796875 9.492188 L 6.796875 9.339844 C 6.796875 8.765625 7.0625 8.183594 7.589844 7.597656 L 7.972656 7.175781 C 8.488281 6.609375 8.746094 6.097656 8.746094 5.652344 C 8.746094 4.984375 8.328125 4.652344 7.488281 4.652344 C 6.949219 4.652344 6.328125 4.8125 5.632812 5.128906 L 5.632812 3.917969 C 6.34375 3.703125 7.039062 3.59375 7.71875 3.59375 C 8.570312 3.59375 9.238281 3.757812 9.730469 4.082031 C 10.222656 4.410156 10.46875 4.851562 10.46875 5.414062 C 10.46875 5.929688 10.175781 6.46875 9.585938 7.027344 L 9.222656 7.371094 C 8.886719 7.6875 8.664062 7.957031 8.554688 8.179688 C 8.445312 8.398438 8.390625 8.683594 8.390625 9.035156 Z"/>
    </symbol>

    <symbol id="L" viewBox="0 0 16 16">
        <path fill="var(--shadow)" d="M 5 13 L 6 13 L 11 13 L 12 13 L 12 12 L 12 10.8648649 L 12 9.86486486 L 11 9.86486486 L 8.57948709 9.86486483 L 8.57948718 4 L 8.57948718 3 L 7.57948718 3 L 6 3 L 5 3 L 5 4 L 5 12 L 5 13 Z M 5 13"/>
        <path fill="white" d="M 6 4 L 7.57948718 4 L 7.57948718 10.8648649 L 11 10.8648649 L 11 12 L 6 12 L 6 4 Z M 6 4"/>
    </symbol>

    <symbol id="B" viewBox="0 0 16 16">
    <path fill="var(--shadow)" d="M 7.7266 9.8457 L 7.7266 9.5417 C 7.7836 9.568701 7.8366 9.5987 7.8856 9.6337 C 7.9926 9.7117 8.0186 9.7607 8.025599 9.7997 C 7.9596 9.8147 7.8636 9.8317 7.7266 9.8457 M 7.9306 3.0457 L 5.0876 3.0457 L 4.0876 3.0457 L 4.0876 4.0457 L 4.0876 11.999701 L 4.0876 12.999701 L 5.0876 12.999701 L 8.190599 12.999701 C 9.2586 12.999701 10.1216 12.7637 10.7536 12.2987 C 11.4706 11.7637 11.8476 10.9817 11.8476 10.0337 C 11.8476 9.419701 11.6646 8.485701 10.7176 7.7477 C 11.3386 7.1267 11.5086 6.4107 11.5086 5.8137 C 11.5086 4.9037 11.1306 4.1627 10.4156 3.6727 C 9.8006 3.2507 8.987599 3.0457 7.9306 3.0457 M 6.7266 10.8717 L 7.1006 10.8717 C 7.8306 10.8717 8.3356 10.7967 8.6116 10.6477 C 8.8896 10.499701 9.027599 10.228701 9.027599 9.8347 C 9.027599 9.428699 8.841599 9.0927 8.4716 8.8237 C 8.0996 8.554701 7.6316 8.4207 7.0656 8.4207 L 6.7266 8.4207 L 6.7266 10.8717 M 6.7266 7.3567 L 7.1396 7.3567 C 7.6286 7.3567 8.0186 7.2417 8.3056 7.0127 C 8.5956 6.782701 8.7386 6.471701 8.7386 6.077701 C 8.7386 5.7117 8.6226 5.4637 8.3926 5.3337 C 8.1586 5.2027 7.7216 5.1377 7.0776 5.1377 L 6.7266 5.1377 L 6.7266 7.3567 M 7.9306 4.0457 C 8.770599 4.0457 9.4116 4.1967 9.850599 4.4977 C 10.2896 4.7987 10.5086 5.2377 10.5086 5.8137 C 10.5086 6.7707 9.8386 7.447701 8.501599 7.8457 C 10.0656 8.207701 10.8476 8.936701 10.8476 10.0337 C 10.8476 10.6677 10.6186 11.1527 10.1616 11.492701 C 9.7036 11.8297 9.0456 11.999701 8.190599 11.999701 L 5.0876 11.999701 L 5.0876 4.0457 L 7.9306 4.0457"/>
    <path fill="white" d="M 6.7266 10.872101 L 7.1006 10.872101 C 7.8306 10.872101 8.3356 10.7971 8.6116 10.6471 C 8.8896 10.5001 9.027599 10.2281 9.027599 9.8351 C 9.027599 9.4291 8.841599 9.0931 8.4716 8.8241 C 8.0996 8.555099 7.6316 8.421101 7.0656 8.421101 L 6.7266 8.421101 L 6.7266 10.872101 Z M 6.7266 7.3571 L 7.1396 7.3571 C 7.6286 7.3571 8.0186 7.2421 8.3056 7.013101 C 8.5956 6.7831 8.7386 6.4721 8.7386 6.0781 C 8.7386 5.7121 8.6226 5.4641 8.3926 5.3331 C 8.1586 5.2031 7.7216 5.1371 7.0776 5.1371 L 6.7266 5.1371 L 6.7266 7.3571 Z M 5.0876 12.0001 L 5.0876 4.0461 L 7.9306 4.0461 C 8.770599 4.0461 9.4116 4.1961 9.850599 4.4971 C 10.2896 4.7981 10.5086 5.2371 10.5086 5.8141 C 10.5086 6.770101 9.8386 7.4481 8.501599 7.8461 C 10.0656 8.2071 10.8476 8.9361 10.8476 10.0331 C 10.8476 10.6681 10.6186 11.1521 10.1616 11.4931 C 9.7036 11.8301 9.0456 12.0001 8.190599 12.0001 L 5.0876 12.0001 Z"/>
    </symbol>

    <symbol id="arrows" viewBox="0 0 16 16">
        <path stroke="var(--shadow)" stroke-linejoin="round" stroke-width="2" d="M 11 13.9325755 H 10 V 5.31711004 L 8.46831066 6.74134473 L 7.75 6.0705206 L 10.5 3.50231934 L 13.25 6.0705206 L 12.5316893 6.74134473 L 11 5.31711004 L 11 13.9325755 Z" style="clip-path: url(#clipbox);"/>
        <path stroke="var(--shadow)" stroke-linejoin="round" stroke-width="2" d="M 6 2.09199219 H 5 V 10.7839483 L 3.46831066 9.34604471 L 2.75 10.020373 L 5.5 12.6019897 L 8.25 10.020373 L 7.53168934 9.34604471 L 6 10.7839483 L 6 2.09199219 Z" style="clip-path: url(#clipbox);"/>
        <path d="M 11 13.9325755 H 10 V 5.31711004 L 8.46831066 6.74134473 L 7.75 6.0705206 L 10.5 3.50231934 L 13.25 6.0705206 L 12.5316893 6.74134473 L 11 5.31711004 L 11 13.9325755 Z" fill="white"/>
        <path d="M 6 2.09199219 H 5 V 10.7839483 L 3.46831066 9.34604471 L 2.75 10.020373 L 5.5 12.6019897 L 8.25 10.020373 L 7.53168934 9.34604471 L 6 10.7839483 L 6 2.09199219 Z" fill="white"/>
    </symbol>

    <symbol id="downarrow" viewBox="0 0 16 16">
        <path fill="var(--shadow)" d="M 7.292969 12.707031 L 3.292969 8.707031 C 3.101562 8.515625 3 8.257812 3 8 C 3 7.871094 3.027344 7.742188 3.074219 7.617188 C 3.230469 7.242188 3.59375 7 4 7 C 4 7 5.109375 7 6 7 C 6 5.875 6 4 6 4 C 6 3.445312 6.445312 3 7 3 L 9 3 C 9.554688 3 10 3.445312 10 4 C 10 4 10 5.875 10 7 C 10.890625 7 12 7 12 7 C 12.40625 7 12.769531 7.242188 12.925781 7.617188 C 12.972656 7.742188 13 7.871094 13 8 C 13 8.257812 12.898438 8.515625 12.707031 8.707031 L 8.707031 12.707031 C 8.511719 12.902344 8.253906 13 8 13 C 7.746094 13 7.488281 12.902344 7.292969 12.707031"/>
        <path fill="white" d="M 7 4 L 7 8 L 4 8 L 8 12 L 12 8 L 9 8 L 9 4 L 7 4"/>
    </symbol>

    <symbol id="list" viewBox="0 0 16 16">
        <path fill="var(--light)" d="M 12 6 L 4 6 L 4 4 L 12 4 Z"/>
        <path fill="var(--light)" d="M 12 9 L 4 9 L 4 7 L 12 7 Z"/>
        <path fill="var(--light)" d="M 12 12 L 4 12 L 4 10 L 12 10 Z"/>
    </symbol>

    <symbol id="calltree" viewBox="0 0 16 16">
        <path fill="var(--light)" d="M 9 6 L 4 6 L 4 4 L 9 4 Z"/>
        <path fill="var(--light)" d="M 12 9 L 7 9 L 7 7 L 12 7 Z"/>
        <path fill="var(--light)" d="M 12 12 L 7 12 L 7 10 L 12 10 Z"/>
        <path fill="var(--light)" opacity="0.8" d="M 6 12 L 4 12 L 4 7 L 6 7 Z"/>
    </symbol>

    <g id="Assertion-dark" class="dark blue"><use href="#box"/><use href="#A"/></g>
    <g id="Assertion-light" class="light blue"><use href="#box"/><use href="#A"/></g>
    <g id="AuditTestCase-dark" class="dark blue"><use href="#box"/><use href="#t"/></g>
    <g id="AuditTestCase-light" class="light blue"><use href="#box"/><use href="#t"/></g>
    <g id="AuditTestCaseResult-dark" class="dark grey"><use href="#box"/><use href="#t"/></g>
    <g id="AuditTestCaseResult-light" class="light grey"><use href="#box"/><use href="#t"/></g>
    <g id="AuditTestGroup-dark" class="dark blue"><use href="#box"/><use href="#T"/></g>
    <g id="AuditTestGroup-light" class="light blue"><use href="#box"/><use href="#T"/></g>
    <g id="AuditTestGroupResult-dark" class="dark grey"><use href="#box"/><use href="#T"/></g>
    <g id="AuditTestGroupResult-light" class="light grey"><use href="#box"/><use href="#T"/></g>
    <g id="CallTrees-dark" class="dark grey"><use href="#box"/><use href="#calltree"/></g>
    <g id="CallTrees-light" class="light grey"><use href="#box"/><use href="#calltree"/></g>
    <g id="DOMBreakpointAttributeModified-dark" class="dark blue"><use href="#box"/><use href="#A"/></g>
    <g id="DOMBreakpointAttributeModified-light" class="light blue"><use href="#box"/><use href="#A"/></g>
    <g id="DOMBreakpointNodeRemoved-dark" class="dark blue"><use href="#box"/><use href="#R"/></g>
    <g id="DOMBreakpointNodeRemoved-light" class="light blue"><use href="#box"/><use href="#R"/></g>
    <g id="DOMBreakpointSubtreeModified-dark" class="dark blue"><use href="#box"/><use href="#S"/></g>
    <g id="DOMBreakpointSubtreeModified-light" class="light blue"><use href="#box"/><use href="#S"/></g>
    <g id="DOMCharacterData-dark" class="dark red"><use href="#box"/><use href="#C"/></g>
    <g id="DOMCharacterData-light" class="light red"><use href="#box"/><use href="#C"/></g>
    <g id="DOMComment-dark" class="dark green"><use href="#box"/><use href="#C"/></g>
    <g id="DOMComment-light" class="light green"><use href="#box"/><use href="#C"/></g>
    <g id="DOMDocument-dark" class="dark grey"><use href="#box"/><use href="#D"/></g>
    <g id="DOMDocument-light" class="light grey"><use href="#box"/><use href="#D"/></g>
    <g id="DOMDocumentType-dark" class="dark grey"><use href="#box"/><use href="#D"/></g>
    <g id="DOMDocumentType-light" class="light grey"><use href="#box"/><use href="#D"/></g>
    <g id="DOMElement-dark" class="dark purple"><use href="#box"/><use href="#E"/></g>
    <g id="DOMElement-light" class="light purple"><use href="#box"/><use href="#E"/></g>
    <g id="DOMNode-dark" class="dark grey"><use href="#box"/><use href="#N"/></g>
    <g id="DOMNode-light" class="light grey"><use href="#box"/><use href="#N"/></g>
    <g id="DOMTextNode-dark" class="dark red"><use href="#box"/><use href="#T"/></g>
    <g id="DOMTextNode-light" class="light red"><use href="#box"/><use href="#T"/></g>
    <g id="Events-dark" class="dark grey"><use href="#box"/><use href="#list"/></g>
    <g id="Events-light" class="light grey"><use href="#box"/><use href="#list"/></g>
    <g id="EventBreakpointAnimationFrame-dark" class="dark blue"><use href="#box"/><use href="#R"/></g>
    <g id="EventBreakpointAnimationFrame-light" class="light blue"><use href="#box"/><use href="#R"/></g>
    <g id="EventBreakpointInterval-dark" class="dark blue"><use href="#box"/><use href="#I"/></g>
    <g id="EventBreakpointInterval-light" class="light blue"><use href="#box"/><use href="#I"/></g>
    <g id="EventBreakpointListener-dark" class="dark blue"><use href="#box"/><use href="#I"/></g>
    <g id="EventBreakpointListener-light" class="light blue"><use href="#box"/><use href="#I"/></g>
    <g id="EventListener-dark" class="dark beige"><use href="#box"/><use href="#E"/></g>
    <g id="EventListener-light" class="light beige"><use href="#box"/><use href="#E"/></g>
    <g id="Exception-dark" class="dark blue"><use href="#box"/><use href="#Ex"/></g>
    <g id="Exception-light" class="light blue"><use href="#box"/><use href="#Ex"/></g>
    <g id="Function-dark" class="dark green"><use href="#box"/><use href="#f"/></g>
    <g id="Function-light" class="light green"><use href="#box"/><use href="#f"/></g>
    <g id="HeapSnapshot-dark" class="dark beige"><use href="#box"/><use href="#S"/></g>
    <g id="HeapSnapshot-light" class="light beige"><use href="#box"/><use href="#S"/></g>
    <g id="HeapSnapshotDiff-dark" class="dark green"><use href="#box"/><use href="#D"/></g>
    <g id="HeapSnapshotDiff-light" class="light green"><use href="#box"/><use href="#D"/></g>
    <g id="HeapSnapshotInstances-dark" class="dark yellow"><use href="#box"/><use href="#O"/></g>
    <g id="HeapSnapshotInstances-light" class="light yellow"><use href="#box"/><use href="#O"/></g>
    <g id="HeapSnapshotObjectGraph-dark" class="dark red"><use href="#box"/><use href="#braces"/></g>
    <g id="HeapSnapshotObjectGraph-light" class="light red"><use href="#box"/><use href="#braces"/></g>
    <g id="Microtask-dark" class="dark blue"><use href="#box"/><use href="#M"/></g>
    <g id="Microtask-light" class="light blue"><use href="#box"/><use href="#M"/></g>
    <g id="Native-dark" class="dark grey"><use href="#box"/><use href="#N"/></g>
    <g id="Native-light" class="light grey"><use href="#box"/><use href="#N"/></g>
    <g id="Object-dark" class="dark yellow"><use href="#box"/><use href="#O"/></g>
    <g id="Object-light" class="light yellow"><use href="#box"/><use href="#O"/></g>
    <g id="PausedBreakpoint-dark" class="dark red"><use href="#box"/><use href="#P"/></g>
    <g id="PausedBreakpoint-light" class="light red"><use href="#box"/><use href="#P"/></g>
    <g id="Program-dark" class="dark purple"><use href="#box"/><use href="#S"/></g>
    <g id="Program-light" class="light purple"><use href="#box"/><use href="#S"/></g>
    <g id="PseudoElement-dark" class="dark red"><use href="#box"/><use href="#P"/></g>
    <g id="PseudoElement-light" class="light red"><use href="#box"/><use href="#P"/></g>
    <g id="Reflection-dark" class="dark blue"><use href="#box"/><use href="#R"/></g>
    <g id="Reflection-light" class="light blue"><use href="#box"/><use href="#R"/></g>
    <g id="RenderingFrame-dark" class="dark grey"><use href="#box"/><use href="#F"/></g>
    <g id="RenderingFrame-light" class="light grey"><use href="#box"/><use href="#F"/></g>
    <g id="Request-dark" class="dark beige"><use href="#box"/><use href="#question-mark"/></g>
    <g id="Request-light" class="light beige"><use href="#box"/><use href="#question-mark"/></g>
    <g id="Response-dark" class="dark blue"><use href="#box"/><use href="#downarrow"/></g>
    <g id="Response-light" class="light blue"><use href="#box"/><use href="#downarrow"/></g>
    <g id="Source-dark" class="dark grey"><use href="#box"/><use href="#list"/></g>
    <g id="Source-light" class="light grey"><use href="#box"/><use href="#list"/></g>
    <g id="StyleRuleAuthor-dark" class="dark blue"><use href="#box"/><use href="#braces"/></g>
    <g id="StyleRuleAuthor-light" class="light blue"><use href="#box"/><use href="#braces"/></g>
    <g id="StyleRuleUser-dark" class="dark yellow"><use href="#box"/><use href="#braces"/></g>
    <g id="StyleRuleUser-light" class="light yellow"><use href="#box"/><use href="#braces"/></g>
    <g id="StyleRuleUserAgent-dark" class="dark red"><use href="#box"/><use href="#braces"/></g>
    <g id="StyleRuleUserAgent-light" class="light red"><use href="#box"/><use href="#braces"/></g>
    <g id="StyleRuleInspector-dark" class="dark green"><use href="#box"/><use href="#braces"/></g>
    <g id="StyleRuleInspector-light" class="light green"><use href="#box"/><use href="#braces"/></g>
    <g id="StyleRuleInherited-dark" class="dark grey"><use href="#box"/><use href="#braces"/></g>
    <g id="StyleRuleInherited-light" class="light grey"><use href="#box"/><use href="#braces"/></g>
    <g id="StyleRuleInheritedElement-dark" class="dark grey"><use href="#box"/><use href="#E"/></g>
    <g id="StyleRuleInheritedElement-light" class="light grey"><use href="#box"/><use href="#E"/></g>
    <g id="StyleRulePseudoAuthor-dark" class="dark blue"><use href="#box"/><use href="#P"/></g>
    <g id="StyleRulePseudoAuthor-light" class="light blue"><use href="#box"/><use href="#P"/></g>
    <g id="StyleRulePseudoUser-dark" class="dark yellow"><use href="#box"/><use href="#P"/></g>
    <g id="StyleRulePseudoUser-light" class="light yellow"><use href="#box"/><use href="#P"/></g>
    <g id="StyleRulePseudoUserAgent-dark" class="dark red"><use href="#box"/><use href="#P"/></g>
    <g id="StyleRulePseudoUserAgent-light" class="light red"><use href="#box"/><use href="#P"/></g>
    <g id="StyleRulePseudoInspector-dark" class="dark green"><use href="#box"/><use href="#P"/></g>
    <g id="StyleRulePseudoInspector-light" class="light green"><use href="#box"/><use href="#P"/></g>
    <g id="TailDeletedFunction-dark" class="dark grey"><use href="#box"/><use href="#f"/></g>
    <g id="TailDeletedFunction-light" class="light grey"><use href="#box"/><use href="#f"/></g>
    <g id="TimelineRecordAnimationFrame-dark" class="dark purple"><use href="#box"/><use href="#A"/></g>
    <g id="TimelineRecordAnimationFrame-light" class="light purple"><use href="#box"/><use href="#A"/></g>
    <g id="TimelineRecordAPI-dark" class="dark grey"><use href="#box"/><use href="#S"/></g>
    <g id="TimelineRecordAPI-light" class="light grey"><use href="#box"/><use href="#S"/></g>
    <g id="TimelineRecordComposite-dark" class="dark lime"><use href="#box"/><use href="#C"/></g>
    <g id="TimelineRecordComposite-light" class="light lime"><use href="#box"/><use href="#C"/></g>
    <g id="TimelineRecordConsoleProfile-dark" class="dark purple"><use href="#box"/><use href="#P"/></g>
    <g id="TimelineRecordConsoleProfile-light" class="light purple"><use href="#box"/><use href="#P"/></g>
    <g id="TimelineRecordCSSAnimation-dark" class="dark green"><use href="#box"/><use href="#A"/></g>
    <g id="TimelineRecordCSSAnimation-light" class="light green"><use href="#box"/><use href="#A"/></g>
    <g id="TimelineRecordCSSTransition-dark" class="dark green"><use href="#box"/><use href="#T"/></g>
    <g id="TimelineRecordCSSTransition-light" class="light green"><use href="#box"/><use href="#T"/></g>
    <g id="TimelineRecordEvent-dark" class="dark purple"><use href="#box"/><use href="#E"/></g>
    <g id="TimelineRecordEvent-light" class="light purple"><use href="#box"/><use href="#E"/></g>
    <g id="TimelineRecordGarbageCollection-dark" class="dark beige"><use href="#box"/><use href="#C"/></g>
    <g id="TimelineRecordGarbageCollection-light" class="light beige"><use href="#box"/><use href="#C"/></g>
    <g id="TimelineRecordLayout-dark" class="dark red"><use href="#box"/><use href="#L"/></g>
    <g id="TimelineRecordLayout-light" class="light red"><use href="#box"/><use href="#L"/></g>
    <g id="TimelineRecordMediaElement-dark" class="dark green"><use href="#box"/><use href="#E"/></g>
    <g id="TimelineRecordMediaElement-light" class="light green"><use href="#box"/><use href="#E"/></g>
    <g id="TimelineRecordPaint-dark" class="dark lime"><use href="#box"/><use href="#P"/></g>
    <g id="TimelineRecordPaint-light" class="light lime"><use href="#box"/><use href="#P"/></g>
    <g id="TimelineRecordProbeSampled-dark" class="dark purple"><use href="#box"/><use href="#P"/></g>
    <g id="TimelineRecordProbeSampled-light" class="light purple"><use href="#box"/><use href="#P"/></g>
    <g id="TimelineRecordScriptEvaluated-dark" class="dark purple"><use href="#box"/><use href="#S"/></g>
    <g id="TimelineRecordScriptEvaluated-light" class="light purple"><use href="#box"/><use href="#S"/></g>
    <g id="TimelineRecordStyle-dark" class="dark red"><use href="#box"/><use href="#S"/></g>
    <g id="TimelineRecordStyle-light" class="light red"><use href="#box"/><use href="#S"/></g>
    <g id="TimelineRecordTimer-dark" class="dark purple"><use href="#box"/><use href="#T"/></g>
    <g id="TimelineRecordTimer-light" class="light purple"><use href="#box"/><use href="#T"/></g>
    <g id="TypeBigInt-dark" class="dark cyan"><use href="#box"/><use href="#B"/></g>
    <g id="TypeBigInt-light" class="light cyan"><use href="#box"/><use href="#B"/></g>
    <g id="TypeBoolean-dark" class="dark purple"><use href="#box"/><use href="#B"/></g>
    <g id="TypeBoolean-light" class="light purple"><use href="#box"/><use href="#B"/></g>
    <g id="TypeNull-dark" class="dark grey"><use href="#box"/><use href="#N"/></g>
    <g id="TypeNull-light" class="light grey"><use href="#box"/><use href="#N"/></g>
    <g id="TypeNumber-dark" class="dark blue"><use href="#box"/><use href="#N"/></g>
    <g id="TypeNumber-light" class="light blue"><use href="#box"/><use href="#N"/></g>
    <g id="TypeObject-dark" class="dark yellow"><use href="#box"/><use href="#O"/></g>
    <g id="TypeObject-light" class="light yellow"><use href="#box"/><use href="#O"/></g>
    <g id="TypeRegex-dark" class="dark red"><use href="#box"/><use href="#R"/></g>
    <g id="TypeRegex-light" class="light red"><use href="#box"/><use href="#R"/></g>
    <g id="TypeString-dark" class="dark red"><use href="#box"/><use href="#S"/></g>
    <g id="TypeString-light" class="light red"><use href="#box"/><use href="#S"/></g>
    <g id="TypeSymbol-dark" class="dark teal"><use href="#box"/><use href="#S"/></g>
    <g id="TypeSymbol-light" class="light teal"><use href="#box"/><use href="#S"/></g>
    <g id="TypeUndefined-dark" class="dark grey"><use href="#box"/><use href="#question-mark"/></g>
    <g id="TypeUndefined-light" class="light grey"><use href="#box"/><use href="#question-mark"/></g>
    <g id="URLBreakpoint-dark" class="dark blue"><use href="#box"/><use href="#arrows"/></g>
    <g id="URLBreakpoint-light" class="light blue"><use href="#box"/><use href="#arrows"/></g>
</svg>