<?xml version="1.0" encoding="utf-8"?>
<!-- Copyright © 2020 Apple Inc. All rights reserved. -->
<svg xmlns="http://www.w3.org/2000/svg" version="1.1">
    <defs>
        <style>
            g:not(:target) {
                display: none;
            }

            .light {
                --outline: hsla(0, 0%, 100%, 0);
            }

            .dark {
                --outline: hsla(0, 0%, 0%, 0.5);
                --shadow: hsla(0, 0%, 0%, 0.5);
            }

            .selected {
                --outline: hsla(0, 0%, 100%, 0);
                --fill: hsl(212, 92%, 54%);
                --stroke: hsl(212, 92%, 54%);
                --light: hsl(212, 92%, 54%);
                --shadow: hsl(212, 92%, 54%);
            }

            .light.grey {
                --fill: hsl(0, 0%, 85%);
                --stroke: hsl(0, 0%, 60%);
                --light: hsl(0, 0%, 40%);
                --shadow: hsl(0, 0%, 65%);
            }

            .dark.grey {
                --fill: hsl(0, 0%, 20%);
                --stroke: hsl(0, 0%, 79%);
                --light: hsl(0, 0%, 100%);
            }

            .light.blue {
                --fill: hsl(210, 50%, 72%);
                --stroke: hsl(212, 27%, 54%);
                --shadow: hsl(212, 33%, 58%);
            }

            .dark.blue {
                --fill: hsl(210, 50%, 21%);
                --stroke: hsl(212, 94%, 54%);
            }

            .light.red {
                --fill: hsl(359, 69%, 76%);
                --stroke: hsl(359, 39%, 59%);
                --shadow: hsl(357, 46%, 63%);
            }

            .dark.red {
                --fill: hsl(359, 69%, 25%);
                --stroke: hsl(357, 50%, 50%);
            }

            .light.green {
                --fill: hsl(118, 26%, 72%);
                --stroke: hsl(117, 15%, 53%);
                --shadow: hsl(117, 18%, 57%);
            }

            .dark.green {
                --fill: hsl(118, 26%, 24%);
                --stroke: hsl(117, 56%, 65%);
            }

            .light.purple {
                --fill: hsl(281, 26%, 72%);
                --stroke: hsl(279, 15%, 53%);
                --shadow: hsl(280, 18%, 57%);
            }

            .dark.purple {
                --fill: hsl(281, 26%, 23%);
                --stroke: hsl(279, 40%, 53%);
            }

            .light.beige {
                --fill: hsl(28, 51%, 78%);
                --stroke: hsl(28, 28%, 62%);
                --shadow: hsl(28, 28%, 62%);
            }

            .dark.beige {
                --fill: hsl(28, 51%, 21%);
                --stroke: hsl(28, 56%, 65%);
            }

            .light.yellow {
                --fill: hsl(46, 85%, 77%);
                --stroke: hsl(46, 48%, 61%);
                --shadow: hsl(46, 56%, 65%);
            }

            .dark.yellow {
                --fill: hsl(46, 85%, 25%);
                --stroke: hsl(46, 86%, 61%);
            }

            .light.lime {
                --fill: hsl(77, 49%, 61%);
                --stroke: hsl(79, 45%, 43%);
                --shadow: hsl(79, 45%, 52%);
            }

            .dark.lime {
                --fill: hsl(77, 49%, 23%);
                --stroke: hsl(79, 75%, 52%);
            }

            .light.cyan {
                --fill: hsl(192, 50%, 75%);
                --stroke: hsl(192, 48%, 45%);
                --shadow: hsl(192, 40%, 50%);
            }

            .dark.cyan {
                --fill: hsl(192, 50%, 20%);
                --stroke: hsl(192, 48%, 52%);
            }

            .light.teal {
                --fill: hsl(172, 48%, 75%);
                --stroke: hsl(173, 46%, 45%);
                --shadow: hsl(173, 31%, 51%);
            }

            .dark.teal {
                --fill: hsl(173, 48%, 20%);
                --stroke: hsl(173, 50%, 52%);
            }
        </style>
        <clipPath id="clipbox">
            <path d="M 13 2 C 13.551 2 14 2.449 14 3 L 14 13 C 14 13.551 13.551 14 13 14 L 3 14 C 2.449 14 2 13.551 2 13 L 2 3 C 2 2.449 2.449 2 3 2 L 13 2"/>
        </clipPath>
    </defs>

    <symbol id="box" viewBox="0 0 16 16">
        <path fill="var(--outline)" d="M13.714,0 L2.286,0 C1.027,0 0,1.027 0,2.286 L0,13.714 C0,14.973 1.027,16 2.286,16 L13.714,16 C14.973,16 16,14.973 16,13.714 L16,2.286 C16,1.027 14.973,0 13.714,0 Z"/>
        <path fill="var(--fill)" d="M 13 1 L 3 1 C 1.898 1 1 1.898 1 3 L 1 13 C 1 14.102 1.898 15 3 15 L 13 15 C 14.102 15 15 14.102 15 13 L 15 3 C 15 1.898 14.102 1 13 1 Z"/>
        <path fill="var(--stroke)" d="M 13 1 L 3 1 C 1.898 1 1 1.898 1 3 L 1 13 C 1 14.102 1.898 15 3 15 L 13 15 C 14.102 15 15 14.102 15 13 L 15 3 C 15 1.898 14.102 1 13 1 M 13 2 C 13.551 2 14 2.449 14 3 L 14 13 C 14 13.551 13.551 14 13 14 L 3 14 C 2.449 14 2 13.551 2 13 L 2 3 C 2 2.449 2.449 2 3 2 L 13 2"/>
    </symbol>

    <symbol id="A" viewBox="0 0 16 16">
        <path fill="var(--shadow)" d="M 2.611 12.75 L 5.96 12.75 L 6.811 10.628 L 8.7 10.628 L 9.535 12.75 L 13.378 12.75 L 9.506 2.801 L 6.484 2.801 L 2.611 12.75 Z M 2.611 12.75"/>
        <path fill="white" d="M 4.074 11.75 L 7.167 3.801 L 8.822 3.801 L 11.916 11.75 L 10.218 11.75 L 9.391 9.628 L 6.104 9.628 L 5.277 11.75 L 4.074 11.75 Z M 6.512 8.570 L 8.983 8.570 L 7.748 5.401 L 6.512 8.570 Z M 6.512 8.570"/>
    </symbol>

    <symbol id="t" viewBox="0 0 16 16">
        <path fill="var(--shadow)" d="M 6 4.6 L 6 3.1 L 9.7 3.1 L 9.7 4.6 L 11.9 4.6 L 11.9 7.9 L 9.7 7.9 L 9.7 9.7 L 10.9 9.7 L 10.9 12.9 L 9.968 12.9 C 9.964 12.903 9.925 12.910 9.821 12.931 C 9.598 12.975 9.408 13 9.2 13 C 7.106 13 6.1 12.110 6.1 10.2 L 6.1 7.9 L 4.1 7.9 L 4.1 4.6 L 6 4.6 Z"/>
        <path fill="white" d="M 8.7 4.1 L 8.7 5.6 L 10.9 5.6 L 10.9 6.9 L 8.7 6.9 L 8.7 9.9 C 8.7 10.5 9 10.7 9.6 10.7 L 9.9 10.7 L 9.9 11.9 C 9.8 11.9 9.5 12 9.2 12 C 7.6 12 7.1 11.5 7.1 10.2 L 7.1 6.9 L 5.1 6.9 L 5.1 5.6 L 7 5.6 L 7 4.1 L 8.7 4.1 L 8.7 4.1 Z"/>
    </symbol>

    <symbol id="T" viewBox="0 0 16 16">
        <polygon fill="var(--shadow)" fill-rule="nonzero" points="9.828 12.975 6.168 12.975 6.168 6.115 3.324 6.115 3.324 3.025 12.676 3.025 12.676 6.115 9.828 6.115"/>
        <polygon fill="white" fill-rule="nonzero" points="7.168 11.975 7.168 5.115 4.324 5.115 4.324 4.025 11.676 4.025 11.676 5.115 8.828 5.115 8.828 11.975"/>
    </symbol>

    <symbol id="R" viewBox="0 0 16 16">
        <path fill="var(--shadow)" d="M 8.110 3 L 5 3 L 4 3 L 4 4 L 4 12 L 4 13 L 5 13 L 7 13 L 8 13 L 8 12 L 8 11.646 L 8.558 12.533 L 8.852 13 L 9.404 13 L 11.749 13 L 13.713 13 L 12.557 11.412 L 10.549 8.651 C 10.875 8.459 11.175 8.226 11.387 7.925 C 11.794 7.352 12 6.703 12 6 C 12 4.178 10.473 3 8.110 3 M 7 7.632 L 7.027 7.632 C 8.280 7.632 9.062 7.144 9.062 6.167 C 9.062 5.454 8.348 5.097 7.229 5.097 L 7 5.097 L 7 7.632 M 8.110 4 C 9.798 4 11 4.678 11 6 C 11 6.494 10.857 6.943 10.570 7.349 C 10.285 7.754 9.533 8.049 9.031 8.265 L 11.749 12 L 9.404 12 L 7.343 8.729 L 7 8.729 L 7 12 L 5 12 L 5 4 L 8.110 4"/>
        <path fill="white" d="M 7 7.632 L 7.027 7.632 C 8.281 7.632 9.063 7.144 9.063 6.167 C 9.063 5.454 8.348 5.097 7.229 5.097 L 7 5.097 L 7 7.632 Z M 5 12 L 5 4 L 8.11 4 C 9.799 4 11 4.677 11 6 C 11 6.494 10.857 6.943 10.57 7.349 C 10.285 7.754 9.533 8.049 9.031 8.264 L 11.749 12 L 9.404 12 L 7.344 8.729 L 7 8.729 L 7 12 L 5 12 Z"/>
    </symbol>

    <symbol id="S" viewBox="0 0 16 16">
        <path fill="var(--shadow)" d="M 5.198 12.658 C 5.283 12.676 6.983 12.949 7.629 12.949 C 8.796 12.949 9.763 12.681 10.503 12.115 C 11.304 11.503 11.718 10.629 11.718 9.585 C 11.718 8.845 11.500 8.183 11.063 7.639 C 10.677 7.157 10.056 6.692 9.187 6.205 L 8.615 5.886 C 8.276 5.695 8.154 5.692 8.236 5.692 C 8.567 5.692 9.103 5.819 9.814 6.085 L 11.165 6.591 L 11.165 5.149 L 11.165 3.876 L 11.165 3.080 L 10.388 2.901 C 9.524 2.703 8.736 2.602 8.021 2.602 C 7.011 2.602 6.149 2.871 5.476 3.427 C 4.760 4.017 4.390 4.828 4.390 5.777 C 4.390 6.492 4.612 7.142 5.049 7.688 C 5.436 8.172 6.034 8.629 6.849 9.087 L 7.385 9.385 C 7.717 9.573 7.929 9.726 7.992 9.798 C 7.945 9.819 7.823 9.853 7.603 9.853 C 7.143 9.853 6.535 9.704 5.792 9.393 L 4.406 8.814 L 4.406 10.316 L 4.406 11.680 L 4.406 12.491 L 5.198 12.658 C 5.527 12.728 5.527 12.728 5.574 12.738 L 5.198 12.658 Z M 5.198 12.658"/>
        <path fill="white" d="M 5.406 11.680 L 5.406 10.316 C 6.262 10.674 6.994 10.853 7.603 10.853 C 8.029 10.853 8.364 10.758 8.610 10.568 C 8.855 10.379 8.978 10.121 8.978 9.795 C 8.978 9.537 8.901 9.320 8.747 9.142 C 8.593 8.965 8.301 8.755 7.871 8.511 L 7.339 8.216 C 6.627 7.815 6.124 7.431 5.830 7.064 C 5.536 6.697 5.390 6.268 5.390 5.777 C 5.390 5.122 5.630 4.596 6.112 4.198 C 6.594 3.801 7.230 3.602 8.021 3.602 C 8.655 3.602 9.370 3.693 10.165 3.876 L 10.165 5.149 C 9.352 4.845 8.709 4.692 8.236 4.692 C 7.871 4.692 7.578 4.774 7.358 4.937 C 7.138 5.100 7.028 5.314 7.028 5.579 C 7.028 5.797 7.105 5.989 7.259 6.153 C 7.413 6.318 7.703 6.520 8.129 6.760 L 8.698 7.077 C 9.465 7.507 9.993 7.903 10.283 8.264 C 10.573 8.626 10.718 9.066 10.718 9.585 C 10.718 10.323 10.444 10.901 9.896 11.320 C 9.348 11.739 8.593 11.949 7.629 11.949 C 6.992 11.949 6.251 11.859 5.406 11.680 C 5.406 11.680 6.251 11.859 5.406 11.680 L 5.406 11.680 L 5.406 11.680 Z M 5.406 11.680"/>
    </symbol>

    <symbol id="C" viewBox="0 0 16 16">
        <path fill="var(--shadow)" d="M 4.773 11.543 C 3.855 10.621 3.391 9.348 3.391 7.770 C 3.391 6.25 3.863 4.879 4.789 3.965 C 5.711 3.055 7.004 2.594 8.625 2.594 C 9.570 2.594 10.520 2.707 11.441 2.930 C 11.891 3.035 12.211 3.438 12.211 3.902 L 12.211 5.195 C 12.211 5.520 12.051 5.824 11.789 6.012 C 11.613 6.133 11.410 6.195 11.207 6.195 C 11.098 6.195 10.984 6.180 10.879 6.141 C 10.025 5.836 9.309 5.684 8.770 5.684 C 8.059 5.684 7.754 5.941 7.590 6.133 C 7.297 6.477 7.148 7.020 7.148 7.746 C 7.148 8.445 7.309 8.973 7.621 9.320 C 7.809 9.523 8.148 9.797 8.922 9.797 C 9.543 9.797 10.188 9.633 10.840 9.309 C 10.980 9.242 11.133 9.207 11.285 9.207 C 11.469 9.207 11.648 9.258 11.813 9.359 C 12.105 9.539 12.285 9.859 12.285 10.207 L 12.285 11.426 C 12.285 11.820 12.051 12.180 11.691 12.340 C 10.793 12.738 9.730 12.941 8.527 12.941 C 6.957 12.941 5.691 12.473 4.773 11.543"/>
        <path fill="white" d="M 11.285 11.426 C 10.525 11.770 9.598 11.941 8.527 11.941 C 7.227 11.941 6.211 11.574 5.484 10.840 C 4.758 10.105 4.395 9.082 4.395 7.770 C 4.395 6.430 4.758 5.398 5.492 4.676 C 6.223 3.957 7.270 3.594 8.625 3.594 C 9.492 3.594 10.352 3.695 11.211 3.902 L 11.211 5.195 C 10.238 4.855 9.426 4.684 8.770 4.684 C 7.934 4.684 7.285 4.949 6.832 5.484 C 6.375 6.025 6.148 6.770 6.148 7.746 C 6.148 8.707 6.395 9.453 6.883 9.992 C 7.371 10.527 8.051 10.797 8.922 10.797 C 9.703 10.797 10.488 10.602 11.285 10.207 Z"/>
    </symbol>

    <symbol id="D" viewBox="0 0 16 16">
        <path fill="var(--shadow)" d="M 4.445 12.742 C 3.891 12.742 3.445 12.293 3.445 11.742 L 3.445 3.793 C 3.445 3.242 3.891 2.793 4.445 2.793 L 7.867 2.793 C 9.367 2.793 10.555 3.223 11.402 4.063 C 12.25 4.910 12.680 6.102 12.680 7.602 C 12.680 9.172 12.234 10.430 11.359 11.348 C 10.473 12.273 9.246 12.742 7.719 12.742 L 4.445 12.742 M 7.336 9.613 C 8.188 9.613 8.449 9.324 8.535 9.227 C 8.789 8.941 8.922 8.414 8.922 7.699 C 8.922 7.141 8.813 6.703 8.578 6.363 C 8.457 6.184 8.328 6.070 8.188 6.012 C 8.063 5.965 7.762 5.883 7.098 5.883 C 7.098 6.961 7.098 8.539 7.098 9.613 C 7.172 9.613 7.336 9.613 7.336 9.613"/>
        <path fill="white" d="M 4.445 11.742 L 4.445 3.793 L 7.867 3.793 C 9.098 3.793 10.039 4.121 10.695 4.773 C 11.352 5.426 11.680 6.371 11.680 7.602 C 11.680 8.910 11.332 9.930 10.637 10.656 C 9.941 11.379 8.969 11.742 7.719 11.742 Z M 6.098 10.613 L 7.332 10.613 C 8.203 10.613 8.852 10.375 9.281 9.891 C 9.707 9.410 9.922 8.680 9.922 7.699 C 9.922 6.938 9.75 6.309 9.406 5.801 C 9.172 5.453 8.887 5.215 8.555 5.082 C 8.219 4.949 7.734 4.883 7.098 4.883 L 6.098 4.883 Z"/>
    </symbol>

    <symbol id="E" viewBox="0 0 16 16">
        <path fill="var(--shadow)" d="M 5.504 12.742 C 4.949 12.742 4.504 12.293 4.504 11.742 L 4.504 3.793 C 4.504 3.242 4.949 2.793 5.504 2.793 L 10.473 2.793 C 11.023 2.793 11.473 3.242 11.473 3.793 L 11.473 4.883 C 11.473 5.438 11.023 5.883 10.473 5.883 C 10.473 5.883 9.133 5.883 8.25 5.883 C 8.25 5.992 8.25 5.996 8.25 6.102 C 8.957 6.102 9.875 6.102 9.875 6.102 C 10.426 6.102 10.875 6.551 10.875 7.102 L 10.875 8.164 C 10.875 8.719 10.426 9.164 9.875 9.164 C 9.875 9.164 8.957 9.164 8.25 9.164 C 8.25 9.383 8.25 9.398 8.25 9.613 C 9.191 9.613 10.723 9.613 10.723 9.613 C 11.277 9.613 11.723 10.063 11.723 10.613 L 11.723 11.742 C 11.723 12.293 11.277 12.742 10.723 12.742 L 5.504 12.742"/>
        <path fill="white" d="M 5.504 11.742 L 5.504 3.793 L 10.469 3.793 L 10.469 4.883 L 7.25 4.883 L 7.25 7.102 L 9.875 7.102 L 9.875 8.164 L 7.25 8.164 L 7.25 10.613 L 10.723 10.613 L 10.723 11.742 Z"/>
    </symbol>

    <symbol id="N" viewBox="0 0 16 16">
        <path fill="var(--shadow)" d="M 9.563 12.742 C 9.230 12.742 8.918 12.574 8.734 12.301 C 8.734 12.301 7.816 10.941 6.906 9.586 C 6.906 10.617 6.906 11.742 6.906 11.742 C 6.906 12.293 6.457 12.742 5.906 12.742 L 4.578 12.742 C 4.027 12.742 3.578 12.293 3.578 11.742 L 3.578 3.793 C 3.578 3.242 4.027 2.793 4.578 2.793 L 6.035 2.793 C 6.367 2.793 6.676 2.957 6.863 3.230 C 6.863 3.230 7.789 4.602 8.719 5.969 C 8.719 4.926 8.719 3.793 8.719 3.793 C 8.719 3.242 9.164 2.793 9.719 2.793 L 11.047 2.793 C 11.598 2.793 12.047 3.242 12.047 3.793 L 12.047 11.742 C 12.047 12.293 11.598 12.742 11.047 12.742 L 9.563 12.742"/>
        <path fill="white" d="M 4.578 11.742 L 4.578 3.793 L 6.035 3.793 L 9.719 9.223 L 9.719 3.793 L 11.047 3.793 L 11.047 11.742 L 9.563 11.742 L 5.906 6.313 L 5.906 11.742 Z"/>
    </symbol>

    <symbol id="I" viewBox="0 0 16 16">
        <path fill="var(--shadow)" d="M 9.641 5.883 L 9.641 9.652 L 10.988 9.652 C 11.543 9.652 11.988 10.102 11.988 10.652 L 11.988 11.742 C 11.988 12.297 11.543 12.742 10.988 12.742 L 4.637 12.742 C 4.182 12.742 3.637 12.297 3.637 11.742 L 3.637 10.652 C 3.637 10.102 4.182 9.652 4.637 9.652 L 5.98 9.652 L 5.98 5.883 L 4.637 5.883 C 4.182 5.883 3.637 5.438 3.637 4.883 L 3.637 3.793 C 3.637 3.242 4.182 2.793 4.637 2.793 L 10.988 2.793 C 11.543 2.793 11.988 3.242 11.988 3.793 L 11.988 4.883 C 11.988 5.438 11.543 5.883 10.988 5.883 L 9.641 5.883 Z"/>
        <path fill="white" d="M 6.980 10.652 L 6.980 4.883 L 4.637 4.883 L 4.637 3.793 L 10.988 3.793 L 10.988 4.883 L 8.641 4.883 L 8.641 10.652 L 10.988 10.652 L 10.988 11.742 L 4.637 11.742 L 4.637 10.652 Z"/>
    </symbol>

    <symbol id="Ex" viewBox="0 0 16 16">
        <polygon fill="var(--shadow)" points="9 3 3 3 3 13 10.242 13 10.504 12.5 10.781 13 14.922 13 13.941 11.465 12.66 9.453 13.898 7.664 14.98 6.094 10.824 6.094 10.563 6.578 10.277 6.094 9 6.094" style="clip-path: url(#clipbox);"/>
        <path fill="white" d="M 11.461 9.434 L 13.074 7.094 L 11.422 7.094 L 10.988 7.898 C 10.859 8.137 10.738 8.379 10.609 8.648 L 10.590 8.648 C 10.457 8.410 10.328 8.168 10.188 7.918 L 9.703 7.094 L 8 7.094 L 9.625 9.5 L 8 11.941 L 8 10.5 L 5.625 10.5 L 5.625 8.582 L 7.25 8.582 L 7.25 7.094 L 5.625 7.094 L 5.625 5.414 L 8 5.414 L 8 4 L 4 4 L 4 12 L 9.637 12 L 10.098 11.117 C 10.219 10.875 10.348 10.637 10.469 10.375 L 10.496 10.375 C 10.617 10.625 10.738 10.875 10.879 11.117 L 11.371 12 L 13.098 12 L 11.461 9.434 Z"/>
    </symbol>

    <symbol id="f" viewBox="0 0 16 16">
        <path fill="var(--shadow)" d="M 10.504 2.559 C 8.164 2.559 6.574 3.742 5.883 5.988 L 4.445 6.0 L 3.449 6.008 L 3.449 9.0 L 5.156 9.0 L 4.219 12.926 L 3.922 14.156 L 7.965 14.156 L 8.148 13.387 L 9.191 9.0 L 11.301 9.0 L 11.301 6.0 L 9.902 6.0 C 10.07 5.59 10.297 5.59 10.48 5.59 C 10.801 5.59 11.191 5.652 11.645 5.77 L 12.797 6.074 L 12.898 4.891 L 12.996 3.758 L 13.078 2.828 L 12.156 2.684 C 11.637 2.598 11.082 2.559 10.504 2.559" style="clip-path: url(#clipbox);"/>
        <path fill="white" d="M 5.191 13.156 L 6.426 8.0 L 4.449 8.0 L 4.449 7.0 L 6.613 6.984 L 6.742 6.617 C 7.258 4.578 8.508 3.559 10.5 3.559 C 11.031 3.559 11.531 3.594 12.0 3.668 L 11.902 4.805 C 11.363 4.66 10.891 4.59 10.484 4.59 C 9.605 4.59 9.051 5.102 8.82 6.129 L 8.625 7.0 L 10.301 7.0 L 10.301 8.0 L 8.398 8.0 L 7.176 13.156 L 5.191 13.156 Z"/>
    </symbol>

    <symbol id="O" viewBox="0 0 16 16">
        <path fill="var(--shadow)" d="M 7.974 10.041 C 7.633 10.041 7.394 9.91 7.174 9.602 C 6.891 9.206 6.748 8.638 6.748 7.915 C 6.748 7.187 6.891 6.621 7.173 6.23 C 7.394 5.926 7.643 5.795 8.006 5.795 C 8.362 5.795 8.609 5.926 8.832 6.233 C 9.116 6.622 9.259 7.183 9.259 7.898 C 9.259 8.644 9.117 9.218 8.835 9.605 C 8.614 9.911 8.356 10.041 7.974 10.041 M 8.006 2.69 C 6.501 2.69 5.274 3.18 4.361 4.146 C 3.462 5.097 3.006 6.367 3.006 7.92 C 3.006 9.456 3.458 10.721 4.350 11.679 C 5.262 12.655 6.474 13.15 7.953 13.15 C 9.485 13.15 10.725 12.663 11.641 11.702 C 12.542 10.756 13 9.478 13 7.904 C 13 6.361 12.543 5.096 11.642 4.145 C 10.726 3.18 9.503 2.69 8.006 2.69 M 7.974 11.041 C 8.677 11.041 9.235 10.758 9.644 10.193 C 10.054 9.629 10.259 8.864 10.259 7.898 C 10.259 6.962 10.053 6.211 9.641 5.645 C 9.229 5.079 8.684 4.795 8.006 4.795 C 7.321 4.795 6.773 5.079 6.363 5.645 C 5.953 6.211 5.748 6.968 5.748 7.915 C 5.748 8.855 5.952 9.611 6.360 10.183 C 6.768 10.755 7.307 11.041 7.974 11.041 M 8.006 3.69 C 9.224 3.69 10.194 4.071 10.916 4.833 C 11.639 5.596 12 6.62 12 7.904 C 12 9.218 11.639 10.255 10.916 11.013 C 10.194 11.771 9.206 12.15 7.953 12.15 C 6.756 12.15 5.799 11.766 5.082 10.997 C 4.365 10.227 4.006 9.202 4.006 7.92 C 4.006 6.624 4.367 5.596 5.087 4.833 C 5.808 4.071 6.781 3.69 8.006 3.69"/>
        <path fill="white" d="M 7.974 11.041 C 8.677 11.041 9.235 10.758 9.644 10.193 C 10.054 9.629 10.259 8.864 10.259 7.898 C 10.259 6.962 10.053 6.211 9.641 5.645 C 9.229 5.079 8.684 4.795 8.006 4.795 C 7.321 4.795 6.773 5.079 6.363 5.645 C 5.953 6.211 5.748 6.968 5.748 7.915 C 5.748 8.855 5.952 9.611 6.360 10.183 C 6.768 10.755 7.307 11.041 7.974 11.041 M 7.953 12.15 C 6.756 12.15 5.799 11.766 5.082 10.997 C 4.365 10.227 4.006 9.202 4.006 7.92 C 4.006 6.624 4.367 5.596 5.087 4.833 C 5.808 4.071 6.781 3.69 8.006 3.69 C 9.224 3.69 10.194 4.071 10.916 4.833 C 11.639 5.596 12 6.62 12 7.904 C 12 9.218 11.639 10.255 10.916 11.013 C 10.194 11.771 9.206 12.15 7.953 12.15"/>
    </symbol>

    <symbol id="braces" viewBox="0 0 16 16">
        <path fill="var(--shadow)" d="M 7.984 3 L 6.586 3 C 6.102 3 5.715 3.051 5.395 3.160 C 4.984 3.297 4.648 3.527 4.383 3.844 C 4.121 4.160 3.953 4.547 3.887 4.984 C 3.848 5.266 3.828 5.637 3.828 6.152 C 3.828 6.219 3.828 6.277 3.824 6.332 L 3 6.340 L 3 9.652 L 3.820 9.684 C 3.824 9.797 3.828 9.941 3.828 10.137 C 3.828 10.813 3.906 11.309 4.082 11.691 C 4.301 12.188 4.680 12.559 5.172 12.777 C 5.547 12.941 6.012 13.023 6.586 13.023 L 7.980 13.023 L 7.980 9.652 L 7.188 9.652 L 7.172 9.316 C 7.145 8.789 7.051 8.363 6.883 8.025 C 7.025 7.730 7.105 7.434 7.145 7.121 C 7.160 7.025 7.176 6.820 7.195 6.363 L 7.984 6.363 Z M 6.984 4 L 6.984 5.363 L 6.785 5.363 C 6.367 5.363 6.277 5.418 6.266 5.426 C 6.266 5.426 6.219 5.488 6.215 5.742 C 6.199 6.387 6.176 6.805 6.152 7 C 6.125 7.211 6.063 7.418 5.965 7.613 C 5.895 7.754 5.789 7.887 5.645 8.012 C 5.781 8.133 5.891 8.270 5.969 8.422 C 6.086 8.648 6.152 8.957 6.172 9.363 L 6.227 10.525 C 6.234 10.539 6.258 10.574 6.297 10.602 C 6.309 10.605 6.395 10.652 6.781 10.652 L 6.980 10.652 L 6.980 12.023 L 6.586 12.023 C 6.152 12.023 5.820 11.969 5.574 11.859 C 5.309 11.742 5.113 11.551 4.992 11.285 C 4.883 11.035 4.828 10.660 4.828 10.137 C 4.828 9.453 4.797 9.230 4.781 9.152 C 4.754 9.031 4.699 8.926 4.617 8.824 C 4.555 8.75 4.406 8.703 4.195 8.695 L 4 8.688 L 4 7.328 L 4.199 7.328 C 4.414 7.324 4.570 7.266 4.668 7.145 C 4.715 7.086 4.828 6.875 4.828 6.152 C 4.828 5.691 4.844 5.355 4.879 5.129 C 4.914 4.875 5.008 4.656 5.152 4.484 C 5.297 4.313 5.484 4.184 5.711 4.105 C 5.926 4.035 6.211 4 6.586 4 L 6.984 4"/>
        <path fill="var(--shadow)" d="M 9.414 3 L 8.025 3 L 8.025 6.363 L 8.809 6.363 C 8.824 6.805 8.852 7.113 8.891 7.328 C 8.934 7.570 9.012 7.805 9.117 8.020 C 9 8.262 8.922 8.520 8.879 8.785 C 8.852 8.922 8.828 9.137 8.809 9.652 L 8.020 9.652 L 8.020 13.023 L 9.422 13.023 C 9.906 13.023 10.297 12.969 10.617 12.859 C 11.004 12.730 11.355 12.496 11.617 12.180 C 11.887 11.855 12.055 11.473 12.117 11.035 C 12.25 10.754 12.172 10.383 12.172 9.863 C 12.172 9.801 12.176 9.742 12.176 9.691 L 13 9.684 L 13 6.371 L 12.180 6.340 C 12.176 6.230 12.172 6.1 12.172 5.887 C 12.172 5.211 12.094 4.715 11.922 4.328 C 11.699 3.840 11.324 3.465 10.828 3.246 C 10.453 3.1 9.988 3 9.414 3 M 9.414 4 C 9.848 4 10.180 4.055 10.426 4.160 C 10.691 4.277 10.887 4.473 11.008 4.738 C 11.117 4.988 11.172 5.363 11.172 5.887 C 11.172 6.594 11.203 6.816 11.223 6.887 C 11.254 7.004 11.309 7.105 11.391 7.203 C 11.426 7.246 11.523 7.316 11.809 7.328 L 12 7.336 L 12 8.695 L 11.801 8.695 C 11.586 8.699 11.434 8.758 11.332 8.879 C 11.273 8.953 11.172 9.176 11.172 9.863 C 11.172 10.332 11.25 10.668 11.125 10.895 C 11.090 11.145 10.996 11.363 10.852 11.539 C 10.707 11.715 10.520 11.840 10.293 11.914 C 10.082 11.984 9.797 12.023 9.422 12.023 L 9.020 12.023 L 9.020 10.652 L 9.219 10.652 C 9.637 10.652 9.727 10.594 9.730 10.594 C 9.730 10.594 9.785 10.531 9.789 10.277 C 9.809 9.582 9.828 9.148 9.863 8.945 C 9.898 8.730 9.973 8.527 10.1 8.340 C 10.145 8.219 10.238 8.109 10.355 8.008 C 10.230 7.902 10.141 7.797 10.074 7.688 C 9.977 7.523 9.910 7.344 9.875 7.148 C 9.840 6.969 9.816 6.645 9.801 6.184 C 9.781 5.598 9.762 5.480 9.758 5.457 C 9.695 5.402 9.609 5.363 9.215 5.363 L 9.025 5.363 L 9.025 4 L 9.414 4"/>
        <path fill="white" d="M 6.586 12.023 C 6.152 12.023 5.820 11.969 5.574 11.863 C 5.309 11.746 5.113 11.551 4.992 11.285 C 4.883 11.035 4.828 10.660 4.828 10.137 C 4.828 9.453 4.797 9.227 4.781 9.152 C 4.754 9.031 4.699 8.926 4.617 8.824 C 4.559 8.75 4.406 8.703 4.191 8.695 L 4 8.688 L 4 7.328 L 4.199 7.328 C 4.414 7.324 4.566 7.266 4.668 7.145 C 4.715 7.086 4.828 6.875 4.828 6.152 C 4.828 5.691 4.844 5.355 4.879 5.129 C 4.914 4.875 5.008 4.660 5.152 4.484 C 5.297 4.309 5.484 4.184 5.711 4.109 C 5.926 4.035 6.211 4 6.586 4 L 6.984 4 L 6.984 5.367 L 6.785 5.367 C 6.363 5.367 6.273 5.418 6.266 5.426 C 6.266 5.426 6.219 5.488 6.215 5.742 C 6.199 6.387 6.176 6.805 6.152 7 C 6.125 7.211 6.063 7.418 5.965 7.613 C 5.895 7.754 5.789 7.883 5.645 8.012 C 5.781 8.133 5.891 8.273 5.969 8.422 C 6.086 8.648 6.152 8.957 6.172 9.367 L 6.227 10.525 C 6.234 10.539 6.258 10.574 6.301 10.602 C 6.309 10.605 6.395 10.656 6.781 10.656 L 6.980 10.656 L 6.980 12.023 Z"/>
        <path fill="white" d="M 9.020 12.023 L 9.020 10.656 L 9.219 10.656 C 9.637 10.656 9.727 10.594 9.734 10.590 C 9.734 10.590 9.785 10.531 9.789 10.277 C 9.805 9.582 9.832 9.148 9.863 8.945 C 9.898 8.730 9.969 8.527 10.1 8.340 C 10.145 8.219 10.238 8.109 10.352 8.008 C 10.230 7.902 10.141 7.797 10.074 7.688 C 9.977 7.523 9.910 7.344 9.875 7.152 C 9.840 6.969 9.816 6.645 9.801 6.184 C 9.781 5.598 9.762 5.477 9.758 5.457 C 9.695 5.402 9.609 5.367 9.215 5.367 L 9.025 5.367 L 9.025 4 L 9.414 4 C 9.848 4 10.180 4.051 10.426 4.160 C 10.691 4.277 10.887 4.473 11.008 4.738 C 11.117 4.988 11.172 5.363 11.172 5.887 C 11.172 6.590 11.207 6.816 11.223 6.887 C 11.254 7.004 11.309 7.105 11.391 7.203 C 11.426 7.246 11.527 7.316 11.805 7.328 L 12 7.336 L 12 8.695 L 11.801 8.695 C 11.586 8.699 11.434 8.758 11.332 8.879 C 11.273 8.953 11.172 9.176 11.172 9.867 C 11.172 10.332 11.25 10.668 11.125 10.891 C 11.090 11.145 11 11.363 10.852 11.539 C 10.707 11.711 10.520 11.840 10.293 11.914 C 10.082 11.988 9.793 12.023 9.418 12.023 Z"/>
    </symbol>    

    <symbol id="M" viewBox="0 0 16 16">
        <path fill="var(--shadow)" d="M 5.5 3 C 6 3 6.2 3.33 6.5 4 L 8 7 L 9.5 4 C 9.8 3.33 10.2 3 10.5 3 L 10.5 3 L 12 3 C 12.66 3 13 3.33 13 4 L 13 12 C 13 12.66 12.66 13 12 13 L 10.5 13 C 9.8 13 9.5 12.66 9.5 12 L 9.5 11 L 9 12 C 8.5 13 8.5 13 8 13 L 8 13 C 7.5 13 7.5 13 7 12 L 7 12 L 6.5 11 L 6.5 12 C 6.5 12.5 6 13 5.5 13 L 5.5 13 L 4 13 C 3.5 13 3 12.75 3 12 L 3 12 L 3 4 C 3 3.5 3.5 3 4 3 L 4 3 L 5.5 3 Z"/>
        <path fill="white" d="M 4 12 V 4 H 5.5 L 8 9 L 10.5 4 H 12 V 12 H 10.5 V 7 L 8 12 L 5.5 7 V 12 H 4 Z"/>
    </symbol>

    <symbol id="P" viewBox="0 0 16 16">
        <path fill="var(--shadow)" d="M 7.781 6.680 L 7.781 6.113 C 8.020 6.137 8.117 6.188 8.145 6.203 C 8.141 6.211 8.148 6.242 8.148 6.293 C 8.148 6.441 8.105 6.496 8.025 6.566 C 7.953 6.613 7.875 6.648 7.781 6.680 M 8.043 3 L 4 3 L 4 13 L 7.781 13 L 7.781 9.863 C 8.988 9.824 9.969 9.508 10.707 8.926 C 11.551 8.258 12 7.289 12 6.125 C 12 4.754 11.402 4.035 10.902 3.676 C 10.266 3.223 9.332 3 8.043 3 M 6.781 7.770 L 7.137 7.770 C 7.758 7.770 8.246 7.637 8.605 7.371 C 8.969 7.105 9.148 6.746 9.148 6.293 C 9.148 5.496 8.594 5.098 7.488 5.098 L 6.781 5.098 L 6.781 7.770 M 8.043 4 C 9.105 4 9.863 4.164 10.316 4.488 C 10.773 4.816 11 5.359 11 6.125 C 11 6.988 10.695 7.660 10.086 8.145 C 9.480 8.625 8.629 8.863 7.535 8.863 L 6.781 8.863 L 6.781 12 L 5 12 L 5 4 L 8.043 4"/>
        <path fill="white" d="M 6.781 7.770 L 7.137 7.770 C 7.758 7.770 8.246 7.637 8.605 7.371 C 8.969 7.105 9.148 6.746 9.148 6.293 C 9.148 5.496 8.594 5.098 7.488 5.098 L 6.781 5.098 Z M 5 12 L 5 4 L 8.043 4 C 9.105 4 9.863 4.164 10.316 4.488 C 10.773 4.816 11 5.359 11 6.125 C 11 6.988 10.695 7.660 10.086 8.145 C 9.480 8.625 8.629 8.863 7.535 8.863 L 6.781 8.863 L 6.781 12 Z"/>
    </symbol>

    <symbol id="F" viewBox="0 0 16 16">
        <path fill="var(--shadow)" d="M 12 3 L 11 3 L 5 3 L 4 3 L 4 4 L 4 12 L 4 12.963 L 4.962 12.999 L 6.962 13.075 L 8 13.115 L 8 12.076 L 8 9 L 10 9 L 11 9 L 11 8 L 11 7 L 11 6 L 10 6 L 8 6 L 11 6 L 12 6 L 12 5 L 12 4 L 12 3 Z M 11 4 L 11 5 L 7 5 L 7 7 L 10 7 L 10 8 L 7 8 L 7 12.076 L 5 12 L 5 4 L 11 4 Z"/>
        <path fill="white" d="M 5 12 L 5 4 L 11 4 L 11 5 L 7 5 L 7 7 L 10 7 L 10 8 L 7 8 L 7 12.076 L 5 12 Z"/>
    </symbol>
    
    <symbol id="question-mark" viewBox="0 0 16 16">
        <path fill="var(--shadow)" d="M 6.797 12.742 C 6.242 12.742 5.797 12.293 5.797 11.742 L 5.797 10.418 C 5.797 10.25 5.836 10.094 5.910 9.953 C 5.836 9.816 5.797 9.660 5.797 9.492 L 5.797 9.340 C 5.797 8.512 6.152 7.699 6.848 6.926 L 7.234 6.504 C 7.672 6.020 7.734 5.758 7.746 5.672 C 7.691 5.660 7.609 5.652 7.488 5.652 C 7.098 5.652 6.613 5.781 6.047 6.039 C 5.914 6.102 5.773 6.129 5.633 6.129 C 5.441 6.129 5.254 6.1 5.090 5.973 C 4.805 5.785 4.629 5.473 4.629 5.129 L 4.629 3.918 C 4.629 3.477 4.918 3.090 5.340 2.961 C 6.145 2.719 6.941 2.594 7.719 2.594 C 8.770 2.594 9.633 2.816 10.285 3.25 C 11.059 3.762 11.469 4.512 11.469 5.414 C 11.469 6.215 11.066 7 10.270 7.754 L 9.918 8.094 C 9.547 8.441 9.461 8.602 9.453 8.621 C 9.438 8.652 9.391 8.766 9.391 9.035 L 9.391 9.492 C 9.391 9.660 9.352 9.816 9.277 9.953 C 9.352 10.094 9.391 10.25 9.391 10.418 L 9.391 11.742 C 9.391 12.293 8.945 12.742 8.391 12.742 L 6.797 12.742"/>
        <path fill="white" d="M 6.797 11.742 L 6.797 10.414 L 8.391 10.414 L 8.391 11.742 Z M 8.391 9.492 L 6.797 9.492 L 6.797 9.340 C 6.797 8.766 7.063 8.184 7.590 7.598 L 7.973 7.176 C 8.488 6.609 8.746 6.098 8.746 5.652 C 8.746 4.984 8.328 4.652 7.488 4.652 C 6.949 4.652 6.328 4.813 5.633 5.129 L 5.633 3.918 C 6.344 3.703 7.039 3.594 7.719 3.594 C 8.570 3.594 9.238 3.758 9.730 4.082 C 10.223 4.410 10.469 4.852 10.469 5.414 C 10.469 5.930 10.176 6.469 9.586 7.027 L 9.223 7.371 C 8.887 7.688 8.664 7.957 8.555 8.180 C 8.445 8.398 8.391 8.684 8.391 9.035 Z"/>
    </symbol>

    <symbol id="L" viewBox="0 0 16 16">
        <path fill="var(--shadow)" d="M 5 13 L 6 13 L 11 13 L 12 13 L 12 12 L 12 10.865 L 12 9.865 L 11 9.865 L 8.579 9.865 L 8.579 4 L 8.579 3 L 7.579 3 L 6 3 L 5 3 L 5 4 L 5 12 L 5 13 Z M 5 13"/>
        <path fill="white" d="M 6 4 L 7.579 4 L 7.579 10.865 L 11 10.865 L 11 12 L 6 12 L 6 4 Z M 6 4"/>
    </symbol>

    <symbol id="B" viewBox="0 0 16 16">
    <path fill="var(--shadow)" d="M 7.727 9.846 L 7.727 9.542 C 7.784 9.569 7.837 9.599 7.886 9.634 C 7.993 9.712 8.019 9.761 8.026 9.800 C 7.960 9.815 7.864 9.832 7.727 9.846 M 7.931 3.046 L 5.088 3.046 L 4.088 3.046 L 4.088 4.046 L 4.088 12 L 4.088 13 L 5.088 13 L 8.191 13 C 9.259 13 10.122 12.764 10.754 12.299 C 11.471 11.764 11.848 10.982 11.848 10.034 C 11.848 9.420 11.665 8.486 10.718 7.748 C 11.339 7.127 11.509 6.411 11.509 5.814 C 11.509 4.904 11.131 4.163 10.416 3.673 C 9.801 3.251 8.988 3.046 7.931 3.046 M 6.727 10.872 L 7.101 10.872 C 7.831 10.872 8.336 10.797 8.612 10.648 C 8.890 10.500 9.028 10.229 9.028 9.835 C 9.028 9.429 8.842 9.093 8.472 8.824 C 8.100 8.555 7.632 8.421 7.066 8.421 L 6.727 8.421 L 6.727 10.872 M 6.727 7.357 L 7.140 7.357 C 7.629 7.357 8.019 7.242 8.306 7.013 C 8.596 6.783 8.739 6.472 8.739 6.078 C 8.739 5.712 8.623 5.464 8.393 5.334 C 8.159 5.203 7.722 5.138 7.078 5.138 L 6.727 5.138 L 6.727 7.357 M 7.931 4.046 C 8.771 4.046 9.412 4.197 9.851 4.498 C 10.290 4.799 10.509 5.238 10.509 5.814 C 10.509 6.771 9.839 7.448 8.502 7.846 C 10.066 8.208 10.848 8.937 10.848 10.034 C 10.848 10.668 10.619 11.153 10.162 11.493 C 9.704 11.830 9.046 12 8.191 12 L 5.088 12 L 5.088 4.046 L 7.931 4.046"/>
    <path fill="white" d="M 6.727 10.872 L 7.101 10.872 C 7.831 10.872 8.336 10.797 8.612 10.647 C 8.890 10.500 9.028 10.228 9.028 9.835 C 9.028 9.429 8.842 9.093 8.472 8.824 C 8.100 8.555 7.632 8.421 7.066 8.421 L 6.727 8.421 L 6.727 10.872 Z M 6.727 7.357 L 7.140 7.357 C 7.629 7.357 8.019 7.242 8.306 7.013 C 8.596 6.783 8.739 6.472 8.739 6.1 C 8.739 5.712 8.623 5.464 8.393 5.333 C 8.159 5.203 7.722 5.137 7.078 5.137 L 6.727 5.137 L 6.727 7.357 Z M 5.088 12 L 5.088 4.046 L 7.931 4.046 C 8.771 4.046 9.412 4.196 9.851 4.497 C 10.290 4.798 10.509 5.237 10.509 5.814 C 10.509 6.770 9.839 7.448 8.502 7.846 C 10.066 8.207 10.848 8.936 10.848 10.033 C 10.848 10.668 10.619 11.152 10.162 11.493 C 9.704 11.830 9.046 12 8.191 12 L 5.088 12 Z"/>
    </symbol>

    <symbol id="arrows" viewBox="0 0 16 16">
        <path stroke="var(--shadow)" stroke-linejoin="round" stroke-width="2" d="M 11 13.933 H 10 V 5.317 L 8.468 6.741 L 7.75 6.071 L 10.5 3.502 L 13.25 6.071 L 12.532 6.741 L 11 5.317 L 11 13.933 Z" style="clip-path: url(#clipbox);"/>
        <path stroke="var(--shadow)" stroke-linejoin="round" stroke-width="2" d="M 6 2.092 H 5 V 10.784 L 3.468 9.346 L 2.75 10.020 L 5.5 12.602 L 8.25 10.020 L 7.532 9.346 L 6 10.784 L 6 2.092 Z" style="clip-path: url(#clipbox);"/>
        <path d="M 11 13.933 H 10 V 5.317 L 8.468 6.741 L 7.75 6.071 L 10.5 3.502 L 13.25 6.071 L 12.532 6.741 L 11 5.317 L 11 13.933 Z" fill="white"/>
        <path d="M 6 2.092 H 5 V 10.784 L 3.468 9.346 L 2.75 10.020 L 5.5 12.602 L 8.25 10.020 L 7.532 9.346 L 6 10.784 L 6 2.092 Z" fill="white"/>
    </symbol>

    <symbol id="downarrow" viewBox="0 0 16 16">
        <path fill="var(--shadow)" d="M 7.293 12.707 L 3.293 8.707 C 3.102 8.525 3 8.258 3 8 C 3 7.871 3.027 7.742 3.074 7.617 C 3.230 7.242 3.594 7 4 7 C 4 7 5.109 7 6 7 C 6 5.875 6 4 6 4 C 6 3.445 6.445 3 7 3 L 9 3 C 9.555 3 10 3.445 10 4 C 10 4 10 5.875 10 7 C 10.891 7 12 7 12 7 C 12.406 7 12.770 7.242 12.926 7.617 C 12.973 7.742 13 7.871 13 8 C 13 8.258 12.898 8.525 12.707 8.707 L 8.707 12.707 C 8.512 12.902 8.254 13 8 13 C 7.746 13 7.488 12.902 7.293 12.707"/>
        <path fill="white" d="M 7 4 L 7 8 L 4 8 L 8 12 L 12 8 L 9 8 L 9 4 L 7 4"/>
    </symbol>

    <symbol id="list" viewBox="0 0 16 16">
        <path fill="var(--light)" d="M 12 6 L 4 6 L 4 4 L 12 4 Z"/>
        <path fill="var(--light)" d="M 12 9 L 4 9 L 4 7 L 12 7 Z"/>
        <path fill="var(--light)" d="M 12 12 L 4 12 L 4 10 L 12 10 Z"/>
    </symbol>

        <symbol id="list-line" viewBox="0 0 16 16">
        <path opacity="0.6" fill="var(--light)" d="M 12 6 L 4 6 L 4 4 L 12 4 Z"/>
        <path fill="var(--light)" d="M 12 9 L 4 9 L 4 7 L 12 7 Z"/>
        <path opacity="0.6" fill="var(--light)" d="M 12 12 L 4 12 L 4 10 L 12 10 Z"/>
    </symbol>

    <symbol id="calltree" viewBox="0 0 16 16">
        <path fill="var(--light)" d="M 9 6 L 4 6 L 4 4 L 9 4 Z"/>
        <path fill="var(--light)" d="M 12 9 L 7 9 L 7 7 L 12 7 Z"/>
        <path fill="var(--light)" d="M 12 12 L 7 12 L 7 10 L 12 10 Z"/>
        <path fill="var(--light)" opacity="0.8" d="M 6 12 L 4 12 L 4 7 L 6 7 Z"/>
    </symbol>

    <g id="Assertion-dark" class="dark blue"><use href="#box"/><use href="#A"/></g>
    <g id="Assertion-light" class="light blue"><use href="#box"/><use href="#A"/></g>
    <g id="AuditTestCase-dark" class="dark blue"><use href="#box"/><use href="#t"/></g>
    <g id="AuditTestCase-light" class="light blue"><use href="#box"/><use href="#t"/></g>
    <g id="AuditTestCaseResult-dark" class="dark grey"><use href="#box"/><use href="#t"/></g>
    <g id="AuditTestCaseResult-light" class="light grey"><use href="#box"/><use href="#t"/></g>
    <g id="AuditTestGroup-dark" class="dark blue"><use href="#box"/><use href="#T"/></g>
    <g id="AuditTestGroup-light" class="light blue"><use href="#box"/><use href="#T"/></g>
    <g id="AuditTestGroupResult-dark" class="dark grey"><use href="#box"/><use href="#T"/></g>
    <g id="AuditTestGroupResult-light" class="light grey"><use href="#box"/><use href="#T"/></g>
    <g id="CallTrees-dark" class="dark grey"><use href="#box"/><use href="#calltree"/></g>
    <g id="CallTrees-light" class="light grey"><use href="#box"/><use href="#calltree"/></g>
    <g id="DebuggerStatement-dark" class="dark blue"><use href="#box"/><use href="#D"/></g>
    <g id="DebuggerStatement-light" class="light blue"><use href="#box"/><use href="#D"/></g>
    <g id="DOMBreakpointAttributeModified-dark" class="dark blue"><use href="#box"/><use href="#A"/></g>
    <g id="DOMBreakpointAttributeModified-light" class="light blue"><use href="#box"/><use href="#A"/></g>
    <g id="DOMBreakpointNodeRemoved-dark" class="dark blue"><use href="#box"/><use href="#R"/></g>
    <g id="DOMBreakpointNodeRemoved-light" class="light blue"><use href="#box"/><use href="#R"/></g>
    <g id="DOMBreakpointSubtreeModified-dark" class="dark blue"><use href="#box"/><use href="#S"/></g>
    <g id="DOMBreakpointSubtreeModified-light" class="light blue"><use href="#box"/><use href="#S"/></g>
    <g id="DOMCharacterData-dark" class="dark red"><use href="#box"/><use href="#C"/></g>
    <g id="DOMCharacterData-light" class="light red"><use href="#box"/><use href="#C"/></g>
    <g id="DOMComment-dark" class="dark green"><use href="#box"/><use href="#C"/></g>
    <g id="DOMComment-light" class="light green"><use href="#box"/><use href="#C"/></g>
    <g id="DOMDocument-dark" class="dark grey"><use href="#box"/><use href="#D"/></g>
    <g id="DOMDocument-light" class="light grey"><use href="#box"/><use href="#D"/></g>
    <g id="DOMDocumentType-dark" class="dark grey"><use href="#box"/><use href="#D"/></g>
    <g id="DOMDocumentType-light" class="light grey"><use href="#box"/><use href="#D"/></g>
    <g id="DOMElement-dark" class="dark purple"><use href="#box"/><use href="#E"/></g>
    <g id="DOMElement-light" class="light purple"><use href="#box"/><use href="#E"/></g>
    <g id="DOMNode-dark" class="dark grey"><use href="#box"/><use href="#N"/></g>
    <g id="DOMNode-light" class="light grey"><use href="#box"/><use href="#N"/></g>
    <g id="DOMTextNode-dark" class="dark red"><use href="#box"/><use href="#T"/></g>
    <g id="DOMTextNode-light" class="light red"><use href="#box"/><use href="#T"/></g>
    <g id="Events-dark" class="dark grey"><use href="#box"/><use href="#list"/></g>
    <g id="Events-light" class="light grey"><use href="#box"/><use href="#list"/></g>
    <g id="EventBreakpointAnimationFrame-dark" class="dark blue"><use href="#box"/><use href="#R"/></g>
    <g id="EventBreakpointAnimationFrame-light" class="light blue"><use href="#box"/><use href="#R"/></g>
    <g id="EventBreakpointInterval-dark" class="dark blue"><use href="#box"/><use href="#I"/></g>
    <g id="EventBreakpointInterval-light" class="light blue"><use href="#box"/><use href="#I"/></g>
    <g id="EventBreakpointListener-dark" class="dark blue"><use href="#box"/><use href="#E"/></g>
    <g id="EventBreakpointListener-light" class="light blue"><use href="#box"/><use href="#E"/></g>
    <g id="EventBreakpointTimeout-dark" class="dark blue"><use href="#box"/><use href="#T"/></g>
    <g id="EventBreakpointTimeout-light" class="light blue"><use href="#box"/><use href="#T"/></g>
    <g id="EventListener-dark" class="dark beige"><use href="#box"/><use href="#E"/></g>
    <g id="EventListener-light" class="light beige"><use href="#box"/><use href="#E"/></g>
    <g id="Exception-dark" class="dark blue"><use href="#box"/><use href="#Ex"/></g>
    <g id="Exception-light" class="light blue"><use href="#box"/><use href="#Ex"/></g>
    <g id="Function-dark" class="dark green"><use href="#box"/><use href="#f"/></g>
    <g id="Function-light" class="light green"><use href="#box"/><use href="#f"/></g>
    <g id="HeapSnapshot-dark" class="dark beige"><use href="#box"/><use href="#S"/></g>
    <g id="HeapSnapshot-light" class="light beige"><use href="#box"/><use href="#S"/></g>
    <g id="HeapSnapshot-selected" class="selected"><use href="#box"/><use href="#S"/></g>
    <g id="HeapSnapshotDiff-dark" class="dark green"><use href="#box"/><use href="#D"/></g>
    <g id="HeapSnapshotDiff-light" class="light green"><use href="#box"/><use href="#D"/></g>
    <g id="HeapSnapshotInstances-dark" class="dark yellow"><use href="#box"/><use href="#O"/></g>
    <g id="HeapSnapshotInstances-light" class="light yellow"><use href="#box"/><use href="#O"/></g>
    <g id="HeapSnapshotList-dark" class="dark grey"><use href="#box"/><use href="#list"/></g>
    <g id="HeapSnapshotList-light" class="light grey"><use href="#box"/><use href="#list"/></g>
    <g id="HeapSnapshotObjectGraph-dark" class="dark red"><use href="#box"/><use href="#braces"/></g>
    <g id="HeapSnapshotObjectGraph-light" class="light red"><use href="#box"/><use href="#braces"/></g>
    <g id="Microtask-dark" class="dark blue"><use href="#box"/><use href="#M"/></g>
    <g id="Microtask-light" class="light blue"><use href="#box"/><use href="#M"/></g>
    <g id="Native-dark" class="dark grey"><use href="#box"/><use href="#N"/></g>
    <g id="Native-light" class="light grey"><use href="#box"/><use href="#N"/></g>
    <g id="Object-dark" class="dark yellow"><use href="#box"/><use href="#O"/></g>
    <g id="Object-light" class="light yellow"><use href="#box"/><use href="#O"/></g>
    <g id="PausedBreakpoint-dark" class="dark red"><use href="#box"/><use href="#P"/></g>
    <g id="PausedBreakpoint-light" class="light red"><use href="#box"/><use href="#P"/></g>
    <g id="Program-dark" class="dark purple"><use href="#box"/><use href="#S"/></g>
    <g id="Program-light" class="light purple"><use href="#box"/><use href="#S"/></g>
    <g id="PseudoElement-dark" class="dark red"><use href="#box"/><use href="#P"/></g>
    <g id="PseudoElement-light" class="light red"><use href="#box"/><use href="#P"/></g>
    <g id="Reflection-dark" class="dark blue"><use href="#box"/><use href="#R"/></g>
    <g id="Reflection-light" class="light blue"><use href="#box"/><use href="#R"/></g>
    <g id="RenderingFrame-dark" class="dark grey"><use href="#box"/><use href="#F"/></g>
    <g id="RenderingFrame-light" class="light grey"><use href="#box"/><use href="#F"/></g>
    <g id="Request-dark" class="dark beige"><use href="#box"/><use href="#question-mark"/></g>
    <g id="Request-light" class="light beige"><use href="#box"/><use href="#question-mark"/></g>
    <g id="Response-dark" class="dark blue"><use href="#box"/><use href="#downarrow"/></g>
    <g id="Response-light" class="light blue"><use href="#box"/><use href="#downarrow"/></g>
    <g id="ResultLine-dark" class="dark grey"><use href="#box"/><use href="#list-line"/></g>
    <g id="ResultLine-light" class="light grey"><use href="#box"/><use href="#list-line"/></g>
    <g id="Source-dark" class="dark grey"><use href="#box"/><use href="#list"/></g>
    <g id="Source-light" class="light grey"><use href="#box"/><use href="#list"/></g>
    <g id="StyleRuleAuthor-dark" class="dark blue"><use href="#box"/><use href="#braces"/></g>
    <g id="StyleRuleAuthor-light" class="light blue"><use href="#box"/><use href="#braces"/></g>
    <g id="StyleRuleUser-dark" class="dark yellow"><use href="#box"/><use href="#braces"/></g>
    <g id="StyleRuleUser-light" class="light yellow"><use href="#box"/><use href="#braces"/></g>
    <g id="StyleRuleUserAgent-dark" class="dark red"><use href="#box"/><use href="#braces"/></g>
    <g id="StyleRuleUserAgent-light" class="light red"><use href="#box"/><use href="#braces"/></g>
    <g id="StyleRuleInspector-dark" class="dark green"><use href="#box"/><use href="#braces"/></g>
    <g id="StyleRuleInspector-light" class="light green"><use href="#box"/><use href="#braces"/></g>
    <g id="StyleRuleInherited-dark" class="dark grey"><use href="#box"/><use href="#braces"/></g>
    <g id="StyleRuleInherited-light" class="light grey"><use href="#box"/><use href="#braces"/></g>
    <g id="StyleRuleInheritedElement-dark" class="dark grey"><use href="#box"/><use href="#E"/></g>
    <g id="StyleRuleInheritedElement-light" class="light grey"><use href="#box"/><use href="#E"/></g>
    <g id="StyleRulePseudoAuthor-dark" class="dark blue"><use href="#box"/><use href="#P"/></g>
    <g id="StyleRulePseudoAuthor-light" class="light blue"><use href="#box"/><use href="#P"/></g>
    <g id="StyleRulePseudoUser-dark" class="dark yellow"><use href="#box"/><use href="#P"/></g>
    <g id="StyleRulePseudoUser-light" class="light yellow"><use href="#box"/><use href="#P"/></g>
    <g id="StyleRulePseudoUserAgent-dark" class="dark red"><use href="#box"/><use href="#P"/></g>
    <g id="StyleRulePseudoUserAgent-light" class="light red"><use href="#box"/><use href="#P"/></g>
    <g id="StyleRulePseudoInspector-dark" class="dark green"><use href="#box"/><use href="#P"/></g>
    <g id="StyleRulePseudoInspector-light" class="light green"><use href="#box"/><use href="#P"/></g>
    <g id="TailDeletedFunction-dark" class="dark grey"><use href="#box"/><use href="#f"/></g>
    <g id="TailDeletedFunction-light" class="light grey"><use href="#box"/><use href="#f"/></g>
    <g id="TimelineRecordAnimationFrame-dark" class="dark purple"><use href="#box"/><use href="#A"/></g>
    <g id="TimelineRecordAnimationFrame-light" class="light purple"><use href="#box"/><use href="#A"/></g>
    <g id="TimelineRecordAPI-dark" class="dark grey"><use href="#box"/><use href="#S"/></g>
    <g id="TimelineRecordAPI-light" class="light grey"><use href="#box"/><use href="#S"/></g>
    <g id="TimelineRecordComposite-dark" class="dark lime"><use href="#box"/><use href="#C"/></g>
    <g id="TimelineRecordComposite-light" class="light lime"><use href="#box"/><use href="#C"/></g>
    <g id="TimelineRecordConsoleProfile-dark" class="dark purple"><use href="#box"/><use href="#P"/></g>
    <g id="TimelineRecordConsoleProfile-light" class="light purple"><use href="#box"/><use href="#P"/></g>
    <g id="TimelineRecordCSSAnimation-dark" class="dark green"><use href="#box"/><use href="#A"/></g>
    <g id="TimelineRecordCSSAnimation-light" class="light green"><use href="#box"/><use href="#A"/></g>
    <g id="TimelineRecordCSSTransition-dark" class="dark green"><use href="#box"/><use href="#T"/></g>
    <g id="TimelineRecordCSSTransition-light" class="light green"><use href="#box"/><use href="#T"/></g>
    <g id="TimelineRecordEvent-dark" class="dark purple"><use href="#box"/><use href="#E"/></g>
    <g id="TimelineRecordEvent-light" class="light purple"><use href="#box"/><use href="#E"/></g>
    <g id="TimelineRecordGarbageCollection-dark" class="dark beige"><use href="#box"/><use href="#C"/></g>
    <g id="TimelineRecordGarbageCollection-light" class="light beige"><use href="#box"/><use href="#C"/></g>
    <g id="TimelineRecordLayout-dark" class="dark red"><use href="#box"/><use href="#L"/></g>
    <g id="TimelineRecordLayout-light" class="light red"><use href="#box"/><use href="#L"/></g>
    <g id="TimelineRecordMediaElement-dark" class="dark green"><use href="#box"/><use href="#E"/></g>
    <g id="TimelineRecordMediaElement-light" class="light green"><use href="#box"/><use href="#E"/></g>
    <g id="TimelineRecordPaint-dark" class="dark lime"><use href="#box"/><use href="#P"/></g>
    <g id="TimelineRecordPaint-light" class="light lime"><use href="#box"/><use href="#P"/></g>
    <g id="TimelineRecordProbeSampled-dark" class="dark purple"><use href="#box"/><use href="#P"/></g>
    <g id="TimelineRecordProbeSampled-light" class="light purple"><use href="#box"/><use href="#P"/></g>
    <g id="TimelineRecordScriptEvaluated-dark" class="dark purple"><use href="#box"/><use href="#S"/></g>
    <g id="TimelineRecordScriptEvaluated-light" class="light purple"><use href="#box"/><use href="#S"/></g>
    <g id="TimelineRecordStyle-dark" class="dark red"><use href="#box"/><use href="#S"/></g>
    <g id="TimelineRecordStyle-light" class="light red"><use href="#box"/><use href="#S"/></g>
    <g id="TimelineRecordTimer-dark" class="dark purple"><use href="#box"/><use href="#T"/></g>
    <g id="TimelineRecordTimer-light" class="light purple"><use href="#box"/><use href="#T"/></g>
    <g id="TypeBigInt-dark" class="dark cyan"><use href="#box"/><use href="#B"/></g>
    <g id="TypeBigInt-light" class="light cyan"><use href="#box"/><use href="#B"/></g>
    <g id="TypeBoolean-dark" class="dark purple"><use href="#box"/><use href="#B"/></g>
    <g id="TypeBoolean-light" class="light purple"><use href="#box"/><use href="#B"/></g>
    <g id="TypeNull-dark" class="dark grey"><use href="#box"/><use href="#N"/></g>
    <g id="TypeNull-light" class="light grey"><use href="#box"/><use href="#N"/></g>
    <g id="TypeNumber-dark" class="dark blue"><use href="#box"/><use href="#N"/></g>
    <g id="TypeNumber-light" class="light blue"><use href="#box"/><use href="#N"/></g>
    <g id="TypeObject-dark" class="dark yellow"><use href="#box"/><use href="#O"/></g>
    <g id="TypeObject-light" class="light yellow"><use href="#box"/><use href="#O"/></g>
    <g id="TypeRegex-dark" class="dark red"><use href="#box"/><use href="#R"/></g>
    <g id="TypeRegex-light" class="light red"><use href="#box"/><use href="#R"/></g>
    <g id="TypeString-dark" class="dark red"><use href="#box"/><use href="#S"/></g>
    <g id="TypeString-light" class="light red"><use href="#box"/><use href="#S"/></g>
    <g id="TypeSymbol-dark" class="dark teal"><use href="#box"/><use href="#S"/></g>
    <g id="TypeSymbol-light" class="light teal"><use href="#box"/><use href="#S"/></g>
    <g id="TypeUndefined-dark" class="dark grey"><use href="#box"/><use href="#question-mark"/></g>
    <g id="TypeUndefined-light" class="light grey"><use href="#box"/><use href="#question-mark"/></g>
    <g id="URLBreakpoint-dark" class="dark blue"><use href="#box"/><use href="#arrows"/></g>
    <g id="URLBreakpoint-light" class="light blue"><use href="#box"/><use href="#arrows"/></g>
</svg>