<?xml version="1.0" encoding="utf-8"?>
<!-- Copyright © 2015 Apple Inc. All rights reserved. -->
<svg xmlns="http://www.w3.org/2000/svg" id="root" version="1.1" viewBox="0 0 16 16">
    <path d="M 13 1 L 3 1 C 1.9 1 1 1.9 1 3 L 1 13 C 1 14.1 1.9 15 3 15 L 13 15 C 14.1 15 15 14.1 15 13 L 15 3 C 15 1.9 14.1 1 13 1 L 13 1 Z" fill="rgb(190, 165, 202)"/>
    <path d="M 13 1 L 3 1 C 1.9 1 1 1.9 1 3 L 1 13 C 1 14.1 1.9 15 3 15 L 13 15 C 14.1 15 15 14.1 15 13 L 15 3 C 15 1.9 14.1 1 13 1 M 13 2 C 13.552 2 14 2.449 14 3 L 14 13 C 14 13.552 13.552 14 13 14 L 3 14 C 2.449 14 2 13.552 2 13 L 2 3 C 2 2.449 2.449 2 3 2 L 13 2" fill="rgb(141, 118, 153)"/>
    <path d="M 6.7266 10.872101 L 7.1006 10.872101 C 7.8306 10.872101 8.3356 10.7971 8.6116 10.6471 C 8.8896 10.5001 9.027599 10.2281 9.027599 9.8351 C 9.027599 9.4291 8.841599 9.0931 8.4716 8.8241 C 8.0996 8.555099 7.6316 8.421101 7.0656 8.421101 L 6.7266 8.421101 L 6.7266 10.872101 Z M 6.7266 7.3571 L 7.1396 7.3571 C 7.6286 7.3571 8.0186 7.2421 8.3056 7.013101 C 8.5956 6.7831 8.7386 6.4721 8.7386 6.0781 C 8.7386 5.7121 8.6226 5.4641 8.3926 5.3331 C 8.1586 5.2031 7.7216 5.1371 7.0776 5.1371 L 6.7266 5.1371 L 6.7266 7.3571 Z M 5.0876 12.0001 L 5.0876 4.0461 L 7.9306 4.0461 C 8.770599 4.0461 9.4116 4.1961 9.850599 4.4971 C 10.2896 4.7981 10.5086 5.2371 10.5086 5.8141 C 10.5086 6.770101 9.8386 7.4481 8.501599 7.8461 C 10.0656 8.2071 10.8476 8.9361 10.8476 10.0331 C 10.8476 10.6681 10.6186 11.1521 10.1616 11.4931 C 9.7036 11.8301 9.0456 12.0001 8.190599 12.0001 L 5.0876 12.0001 Z" fill="white"/>
    <path d="M 7.7266 9.8457 L 7.7266 9.5417 C 7.7836 9.568701 7.8366 9.5987 7.8856 9.6337 C 7.9926 9.7117 8.0186 9.7607 8.025599 9.7997 C 7.9596 9.8147 7.8636 9.8317 7.7266 9.8457 M 7.9306 3.0457 L 5.0876 3.0457 L 4.0876 3.0457 L 4.0876 4.0457 L 4.0876 11.999701 L 4.0876 12.999701 L 5.0876 12.999701 L 8.190599 12.999701 C 9.2586 12.999701 10.1216 12.7637 10.7536 12.2987 C 11.4706 11.7637 11.8476 10.9817 11.8476 10.0337 C 11.8476 9.419701 11.6646 8.485701 10.7176 7.7477 C 11.3386 7.1267 11.5086 6.4107 11.5086 5.8137 C 11.5086 4.9037 11.1306 4.1627 10.4156 3.6727 C 9.8006 3.2507 8.987599 3.0457 7.9306 3.0457 M 6.7266 10.8717 L 7.1006 10.8717 C 7.8306 10.8717 8.3356 10.7967 8.6116 10.6477 C 8.8896 10.499701 9.027599 10.228701 9.027599 9.8347 C 9.027599 9.428699 8.841599 9.0927 8.4716 8.8237 C 8.0996 8.554701 7.6316 8.4207 7.0656 8.4207 L 6.7266 8.4207 L 6.7266 10.8717 M 6.7266 7.3567 L 7.1396 7.3567 C 7.6286 7.3567 8.0186 7.2417 8.3056 7.0127 C 8.5956 6.782701 8.7386 6.471701 8.7386 6.077701 C 8.7386 5.7117 8.6226 5.4637 8.3926 5.3337 C 8.1586 5.2027 7.7216 5.1377 7.0776 5.1377 L 6.7266 5.1377 L 6.7266 7.3567 M 7.9306 4.0457 C 8.770599 4.0457 9.4116 4.1967 9.850599 4.4977 C 10.2896 4.7987 10.5086 5.2377 10.5086 5.8137 C 10.5086 6.7707 9.8386 7.447701 8.501599 7.8457 C 10.0656 8.207701 10.8476 8.936701 10.8476 10.0337 C 10.8476 10.6677 10.6186 11.1527 10.1616 11.492701 C 9.7036 11.8297 9.0456 11.999701 8.190599 11.999701 L 5.0876 11.999701 L 5.0876 4.0457 L 7.9306 4.0457" fill="rgb(153, 127, 166)"/>
</svg>
