<svg version="1.1" xmlns="http://www.w3.org/2000/svg" xmlns:xlink="http://www.w3.org/1999/xlink">
<defs>
<filter id="0x0">
    <feGaussianBlur stdDeviation="0"/>
</filter>
<filter id="0x5">
    <feGaussianBlur stdDeviation="0 5"/>
</filter>
<filter id="5x0">
    <feGaussianBlur stdDeviation="5 0"/>
</filter>
<filter id="3x3">
    <feGaussianBlur stdDeviation="3"/>
</filter>
<filter id="1x6">
    <feGaussianBlur stdDeviation="1 6"/>
</filter>
<filter id="6x1">
    <feGaussianBlur stdDeviation="6 1"/>
</filter>
<filter id="2x10">
    <feGaussianBlur stdDeviation="2 10"/>
</filter>
<filter id="1x1">
    <feGaussianBlur stdDeviation="1"/>
</filter>
<filter id="10x100">
    <feGaussianBlur stdDeviation="10 100"/>
</filter>
<filter id="15x15">
    <feGaussianBlur stdDeviation="15 15"/>
</filter>
</defs>
<g filter="url(#0x0)"  transform="translate(10, 10)">
    <rect x="0" y="0" width="50" height="50" fill="red"/>
    <rect x="25" y="25" width="50" height="50" fill="blue"/>
</g>
<g filter="url(#0x5)"  transform="translate(110, 10)">
    <rect x="0" y="0" width="50" height="50" fill="red"/>
    <rect x="25" y="25" width="50" height="50" fill="blue"/>
</g>
<g filter="url(#5x0)"  transform="translate(210, 10)">
    <rect x="0" y="0" width="50" height="50" fill="red"/>
    <rect x="25" y="25" width="50" height="50" fill="blue"/>
</g>
<g filter="url(#3x3)"  transform="translate(310, 10)">
    <rect x="0" y="0" width="50" height="50" fill="red"/>
    <rect x="25" y="25" width="50" height="50" fill="blue"/>
</g>
<g filter="url(#1x6)"  transform="translate(410, 10)">
    <rect x="0" y="0" width="50" height="50" fill="red"/>
    <rect x="25" y="25" width="50" height="50" fill="blue"/>
</g>
<g filter="url(#6x1)"  transform="translate(10, 110)">
    <rect x="0" y="0" width="50" height="50" fill="red"/>
    <rect x="25" y="25" width="50" height="50" fill="blue"/>
</g>
<g filter="url(#2x10)"  transform="translate(110, 110)">
    <rect x="0" y="0" width="50" height="50" fill="red"/>
    <rect x="25" y="25" width="50" height="50" fill="blue"/>
</g>
<g filter="url(#1x1)"  transform="translate(210, 110)">
    <rect x="0" y="0" width="50" height="50" fill="red"/>
    <rect x="25" y="25" width="50" height="50" fill="blue"/>
</g>
<g filter="url(#10x100)"  transform="translate(310, 110)">
    <rect x="0" y="0" width="50" height="50" fill="red"/>
    <rect x="25" y="25" width="50" height="50" fill="blue"/>
</g>
<g filter="url(#15x15)"  transform="translate(410, 110)">
    <rect x="0" y="0" width="50" height="50" fill="red"/>
    <rect x="25" y="25" width="50" height="50" fill="blue"/>
</g>
</svg>
