<?xml version="1.0" encoding="utf-8"?>
<!-- Copyright © 2015 Apple Inc. All rights reserved. -->
<svg viewBox="0 0 510 552" version="1.1" xmlns="http://www.w3.org/2000/svg">
    <defs>
        <linearGradient x1="50%" y1="0%" x2="50%" y2="100%" id="blues">
            <stop stop-color="#34AADC" offset="0%"/>
            <stop stop-color="#007AFF" offset="100%"/>
        </linearGradient>
        <filter x="-50%" y="-50%" width="200%" height="200%" id="shadow">
            <feOffset dx="0" dy="5" in="SourceAlpha" result="offset"/>
            <feGaussianBlur stdDeviation="2.5" in="offset" result="blur"/>
            <feColorMatrix values="0 0 0 0 0  0 0 0 0 0  0 0 0 0 0  0 0 0 0.07 0" in="blur" type="matrix" result="matrix"/>
            <feMerge>
                <feMergeNode in="matrix"/>
                <feMergeNode in="SourceGraphic"/>
            </feMerge>
        </filter>
    </defs>
    <path d="M 477.861111 306.92819 C 512.046296 333.587507 512.046296 377.446382 477.861111 404.320693 L 317.015432 530.737452 C 282.830247 557.396768 227.169753 557.396768 192.984568 530.737452 L 32.1388889 404.535688 C -2.0462963 377.876371 -2.0462963 334.017496 32.1388889 307.143185 L 192.984568 180.726426 C 227.169753 154.06711 282.830247 154.06711 317.015432 180.726426 L 477.861111 306.92819 Z" fill="rgb(255, 157, 0)" id="base"/>
    <path d="M 193.370239 451.831773 L 31.8122232 324.860059 C 15.5243578 312.097996 6.5 295.009809 6.5 276.840092 C 6.5 258.670375 15.5243578 241.582189 31.8122232 228.820125 L 193.370239 101.632105 C 209.658105 88.8700422 231.668733 81.7319391 255 81.7319391 C 278.331267 81.7319391 300.121789 88.8700422 316.629761 101.632105 L 478.187777 228.603819 C 494.475642 241.365882 503.5 258.454069 503.5 276.623786 C 503.5 294.793503 494.475642 311.881689 478.187777 324.643753 L 316.629761 451.615467 C 300.121789 464.593836 278.331267 471.731939 255 471.731939 C 231.668733 471.731939 209.878211 464.593836 193.370239 451.831773 Z" fill="rgba(0, 0, 0, 0.1)" filter="url(#shadow)" id="mid-shadow"/>
    <path d="M 193.370239 451.831773 L 31.8122232 324.860059 C 15.5243578 312.097996 6.5 295.009809 6.5 276.840092 C 6.5 258.670375 15.5243578 241.582189 31.8122232 228.820125 L 193.370239 101.632105 C 209.658105 88.8700422 231.668733 81.7319391 255 81.7319391 C 278.331267 81.7319391 300.121789 88.8700422 316.629761 101.632105 L 478.187777 228.603819 C 494.475642 241.365882 503.5 258.454069 503.5 276.623786 C 503.5 294.793503 494.475642 311.881689 478.187777 324.643753 L 316.629761 451.615467 C 300.121789 464.593836 278.331267 471.731939 255 471.731939 C 231.668733 471.731939 209.878211 464.593836 193.370239 451.831773 Z" fill="rgb(255, 204, 0)" id="mid"/>
    <path d="M 193.370239 371.831773 L 31.8122232 244.860059 C 15.5243578 232.097996 6.5 215.009809 6.5 196.840092 C 6.5 178.670375 15.5243578 161.582189 31.8122232 148.820125 L 193.370239 21.6321055 C 209.658105 8.87004222 231.668733 1.73193906 255 1.73193906 C 278.331267 1.73193906 300.121789 8.87004222 316.629761 21.6321055 L 478.187777 148.603819 C 494.475642 161.365882 503.5 178.454069 503.5 196.623786 C 503.5 214.793503 494.475642 231.881689 478.187777 244.643753 L 316.629761 371.615467 C 300.121789 384.593836 278.331267 391.731939 255 391.731939 C 231.668733 391.731939 209.878211 384.593836 193.370239 371.831773 Z" fill="rgba(0, 0, 0, 0.1)" filter="url(#shadow)" id="top-shadow"/>
    <path d="M 193.370239 371.831773 L 31.8122232 244.860059 C 15.5243578 232.097996 6.5 215.009809 6.5 196.840092 C 6.5 178.670375 15.5243578 161.582189 31.8122232 148.820125 L 193.370239 21.6321055 C 209.658105 8.87004222 231.668733 1.73193906 255 1.73193906 C 278.331267 1.73193906 300.121789 8.87004222 316.629761 21.6321055 L 478.187777 148.603819 C 494.475642 161.365882 503.5 178.454069 503.5 196.623786 C 503.5 214.793503 494.475642 231.881689 478.187777 244.643753 L 316.629761 371.615467 C 300.121789 384.593836 278.331267 391.731939 255 391.731939 C 231.668733 391.731939 209.878211 384.593836 193.370239 371.831773 Z" fill="url(#blues)" id="top"/>
    <path d="M 255.557796 318.523438 L 255.557796 318.523438 C 338.113251 318.523438 405.03767 263.81823 405.03767 196.335938 C 405.03767 128.853645 338.113251 74.1484375 255.557796 74.1484375 C 173.002341 74.1484375 106.077922 128.853645 106.077922 196.335938 C 106.077922 263.81823 173.002341 318.523438 255.557796 318.523438 L 255.557796 318.523438 Z M 255.557796 331.101563 L 255.557796 331.101563 C 164.503985 331.101563 90.6902879 270.764937 90.6902879 196.335938 C 90.6902879 121.906938 164.503985 61.5703125 255.557796 61.5703125 C 346.611606 61.5703125 420.425304 121.906938 420.425304 196.335938 C 420.425304 270.764937 346.611606 331.101563 255.557796 331.101563 L 255.557796 331.101563 Z" fill="white" id="ring"/>
    <path d="M 266.575605 248.199383 C 274.839361 247.116964 282.893943 244.813421 290.267395 241.288755 L 337.32129 260.629992 L 312.674012 223.705812 C 325.63867 207.004736 325.63867 185.850561 312.674012 169.149485 L 337.32129 132.225305 L 292.974868 150.45365 L 291.700073 169.952942 C 309.829164 185.157289 309.365846 209.169068 290.527893 223.847168 C 285.721068 227.691529 280.20166 230.389527 274.405151 232.306091 L 266.575605 248.199383 Z M 244.579776 144.624146 C 230.931152 146.398682 220.701293 151.565675 220.701293 151.565675 L 173.690288 132.225305 L 198.337566 169.149485 C 185.372907 185.850561 185.372907 207.004736 198.337566 223.705812 L 173.690288 260.629992 L 219.248736 241.90345 L 220.218932 223.640565 C 201.161804 208.480714 201.314025 184.227967 220.529419 169.002319 C 224.999999 165.000001 235.105895 160.762757 236.622498 160.537354 C 236.622497 160.537354 244.579776 144.624146 244.579776 144.624146 Z" fill="rgb(140, 200, 246)" id="rosette"/>
    <path d="M 232.944378 192.304563 L 226.682617 303.302063 L 277.389053 200.3587 L 284.649978 89.5703125 L 232.944378 192.304563 Z M 232.289215 281.968558 L 272.904208 199.563458 L 237.312925 193.069439 L 232.289215 281.968558 Z" fill="white" fill-rule="evenodd" id="needle"/>
</svg>
