<?xml version="1.0" encoding="UTF-8"?>
<svg width="19px" height="16px" viewBox="0 0 19 16" version="1.1" xmlns="http://www.w3.org/2000/svg">
    <path d="M13.1856947,11.4456442 L14.1626814,12.554005 L17.3153027,12.554005 C18.3826655,12.554005 18.9736832,11.9710867 18.9736832,10.895569 L18.9736832,1.93020885 C18.9736832,0.854707965 18.3826655,0.28 17.3153027,0.28 L1.68343097,0.28 C0.673589381,0.28 0.025,0.854707965 0.025,1.93020885 L0.025,10.895569 C0.025,11.9710867 0.616118584,12.554005 1.68343097,12.554005 L4.84429115,12.554005 L5.81307257,11.4456442 L1.88868142,11.4456442 C1.43712035,11.4456442 1.19903186,11.1993504 1.19903186,10.7477894 L1.19903186,2.0779885 C1.19903186,1.61823894 1.43712035,1.38015044 1.88868142,1.38015044 L17.1100018,1.38015044 C17.5616301,1.38015044 17.7997186,1.61823894 17.7997186,2.0779885 L17.7997186,10.7477894 C17.7997186,11.1993504 17.5616301,11.4456442 17.1100018,11.4456442 L13.1856947,11.4456442 Z M14.5157115,15.7230823 C14.9016301,15.7230823 15.0494265,15.3207884 14.8030991,15.0416465 L9.85240531,9.43418319 C9.6635823,9.22072743 9.33518496,9.22072743 9.14634513,9.43418319 L4.19570177,15.0416465 C3.94939115,15.3207884 4.0971708,15.7230823 4.48303894,15.7230823 L14.5157115,15.7230823 Z"/>
</svg>