<?xml version="1.0" encoding="UTF-8"?>
<svg width="16px" height="13px" viewBox="0 0 16 13" version="1.1" xmlns="http://www.w3.org/2000/svg">
    <path d="M11.1001033,9.39348478 L11.9211522,10.324939 L14.5705804,10.324939 C15.4675804,10.324939 15.9642652,9.83506087 15.9642652,8.93120761 L15.9642652,1.39681739 C15.9642652,0.492978261 15.4675804,0.01 14.5705804,0.01 L1.43372717,0.01 C0.585067391,0.01 0.04,0.492978261 0.04,1.39681739 L0.04,8.93120761 C0.04,9.83506087 0.536769565,10.324939 1.43372717,10.324939 L4.09007935,10.324939 L4.90423261,9.39348478 L1.60621739,9.39348478 C1.22673043,9.39348478 1.02664348,9.18650217 1.02664348,8.80701522 L1.02664348,1.52100978 C1.02664348,1.1346413 1.22673043,0.934554348 1.60621739,0.934554348 L14.3980478,0.934554348 C14.7775913,0.934554348 14.9776783,1.1346413 14.9776783,1.52100978 L14.9776783,8.80701522 C14.9776783,9.18650217 14.7775913,9.39348478 14.3980478,9.39348478 L11.1001033,9.39348478 Z M12.2178348,12.9881967 C12.5421565,12.9881967 12.666363,12.6501134 12.4593522,12.4155255 L8.29884348,7.703075 C8.1401587,7.52368913 7.86417717,7.52368913 7.70547826,7.703075 L3.54501196,12.4155255 C3.33801522,12.6501134 3.46220761,12.9881967 3.78648696,12.9881967 L12.2178348,12.9881967 Z"/>
</svg>