<svg width="18" height="18" viewBox="0 0 92 92" xmlns="http://www.w3.org/2000/svg">
  <path d="M14.8926 52.8027q2.2949 0 4.1504-1.0742 1.8554-1.0742 2.9541-2.8808 1.0986-1.8067 1.0986-4.0528 0-3.3691-2.3926-5.7129-2.3926-2.3437-5.8105-2.3437-3.3203 0-5.6885 2.3437-2.36816 2.3438-2.36816 5.7129 0 2.2461 1.09863 4.0528 1.09863 1.8066 2.92973 2.8808 1.831 1.0742 4.0283 1.0742ZM44.043 52.8027q2.2461 0 4.0771-1.0742 1.8311-1.0742 2.9053-2.8808 1.0742-1.8067 1.0742-4.0528 0-3.3691-2.3437-5.7129-2.3438-2.3437-5.7129-2.3437-3.3203 0-5.6641 2.3437-2.3437 2.3438-2.3437 5.7129 0 2.2461 1.0742 4.0528 1.0742 1.8066 2.9052 2.8808 1.8311 1.0742 4.0284 1.0742ZM73.2422 52.8027q2.1973 0 4.0283-1.0742 1.8311-1.0742 2.9297-2.8808 1.0986-1.8067 1.0986-4.0528 0-3.3691-2.3681-5.7129-2.3682-2.3437-5.6885-2.3437-3.418 0-5.8106 2.3437-2.3925 2.3438-2.3925 5.7129 0 2.2461 1.0986 4.0528 1.0986 1.8066 2.9541 2.8808 1.8555 1.0742 4.1504 1.0742Z"/>
</svg>
