<?xml version="1.0" encoding="UTF-8"?>
<svg width="15px" height="15px" viewBox="0 0 15 15" version="1.1" xmlns="http://www.w3.org/2000/svg" xmlns:xlink="http://www.w3.org/1999/xlink">
    <!-- Generator: Sketch 43.1 (39012) - http://www.bohemiancoding.com/sketch -->
    <title>_Assets/Inline/EnterFullscreen</title>
    <desc>Created with Sketch.</desc>
    <defs></defs>
    <g id="Media-Control-Symbols" stroke="none" stroke-width="1" fill="none" fill-rule="evenodd">
        <g id="_Assets/Inline/EnterFullscreen" fill="#000000">
            <path d="M4.4422604,5.50287881 L0.217753178,1.27837158 C-0.0730433981,0.987575009 -0.073385731,0.516442937 0.221549485,0.22150772 C0.514442704,-0.0713854983 0.985704487,-0.0749974502 1.27841335,0.217711413 L5.51126516,4.45056322 L5.51126516,2.04212906 C5.51126516,1.62925727 5.84416377,1.29455855 6.26126516,1.29455855 C6.67547872,1.29455855 7.01126516,1.63514069 7.01126516,2.04212906 L7.01126516,6.20936961 C7.01662139,6.28867693 7.00930259,6.36877542 6.98926528,6.44645137 C6.90860394,6.7717969 6.61525998,7.0128788 6.26126516,7.0128788 C6.21972421,7.0128788 6.17897207,7.00945328 6.13926833,7.00287881 L2.04051542,7.00287881 C1.62764362,7.00287881 1.29294491,6.66998019 1.29294491,6.25287881 C1.29294491,5.83866525 1.63352704,5.50287881 2.04051542,5.50287881 L4.4422604,5.50287881 Z" id="Combined-Shape" transform="translate(3.506481, 3.506439) rotate(180.000000) translate(-3.506481, -3.506439) "></path>
            <path d="M12.4422604,13.5028788 L8.21775318,9.27837158 C7.9269566,8.98757501 7.92661427,8.51644294 8.22154949,8.22150772 C8.5144427,7.9286145 8.98570449,7.92500255 9.27841335,8.21771141 L13.5112652,12.4505632 L13.5112652,10.0421291 C13.5112652,9.62925727 13.8441638,9.29455855 14.2612652,9.29455855 C14.6754787,9.29455855 15.0112652,9.63514069 15.0112652,10.0421291 L15.0112652,14.2093696 C15.0166214,14.2886769 15.0093026,14.3687754 14.9892653,14.4464514 C14.9086039,14.7717969 14.61526,15.0128788 14.2612652,15.0128788 C14.2197242,15.0128788 14.1789721,15.0094533 14.1392683,15.0028788 L10.0405154,15.0028788 C9.62764362,15.0028788 9.29294491,14.6699802 9.29294491,14.2528788 C9.29294491,13.8386652 9.63352704,13.5028788 10.0405154,13.5028788 L12.4422604,13.5028788 Z" id="Combined-Shape"></path>
        </g>
    </g>
</svg>