<?xml version="1.0" encoding="UTF-8"?>
<svg width="15px" height="15px" viewBox="0 0 15 15" version="1.1" xmlns="http://www.w3.org/2000/svg">
    <path d="M0.791840426,6.36849468 C1.20478723,6.36849468 1.50087766,6.05682979 1.50087766,5.64386702 L1.50087766,4.98935638 L1.34505319,2.27004787 L3.3942766,4.42835638 L5.79411702,6.84378723 C5.92657979,6.98403723 6.09799468,7.04638298 6.285,7.04638298 C6.72912766,7.04638298 7.05638298,6.75807979 7.05638298,6.32173936 C7.05638298,6.11137234 6.98625,5.92436702 6.846,5.78411702 L4.43835638,3.38426064 L2.28004787,1.33503723 L5.00715957,1.49087766 L5.65386702,1.49087766 C6.06682979,1.49087766 6.38629787,1.20259043 6.38629787,0.781824468 C6.38629787,0.361074468 6.07461702,0.065 5.65386702,0.065 L1.32946277,0.065 C0.534702128,0.065 0.075,0.524702128 0.075,1.31946277 L0.075,5.64386702 C0.075,6.04904255 0.37887766,6.36849468 0.791840426,6.36849468 Z M9.33935106,14.9315957 L13.6637553,14.9315957 C14.4585319,14.9315957 14.9260851,14.4718888 14.9260851,13.677133 L14.9260851,9.35272872 C14.9260851,8.94755319 14.6220957,8.62810106 14.2014574,8.62810106 C13.7962181,8.62810106 13.4923404,8.93976596 13.4923404,9.35272872 L13.4923404,10.0072394 L13.6559681,12.7265431 L11.5989574,10.5682394 L9.2068883,8.15280851 C9.07444149,8.01255851 8.8952234,7.95021277 8.70821809,7.95021277 C8.27189362,7.95021277 7.93685106,8.23851596 7.93685106,8.67484043 C7.93685106,8.8852234 8.01475532,9.07222872 8.15500532,9.21247872 L10.5548617,11.6123255 L12.7209574,13.6615489 L9.9938617,13.5057149 L9.33935106,13.5057149 C8.9263883,13.5057149 8.60693617,13.7940085 8.60693617,14.2147617 C8.60693617,14.6355149 8.9263883,14.9315957 9.33935106,14.9315957 Z"/>
</svg>