<?xml version="1.0" encoding="UTF-8"?>
<svg width="16px" height="16px" viewBox="0 0 16 16" version="1.1" xmlns="http://www.w3.org/2000/svg">
    <path d="M1.66493878,7.19582449 L6.08936327,7.19582449 C6.90250612,7.19582449 7.37285714,6.71750612 7.37285714,5.90436327 L7.37285714,1.48792245 C7.37285714,1.07337551 7.06195102,0.746518367 6.63943673,0.746518367 C6.21692245,0.746518367 5.91398367,1.06540816 5.91398367,1.48792245 L5.91398367,2.1575551 L6.08139592,4.93975918 L3.97680816,2.73153061 L1.52942857,0.260232653 C1.39390204,0.116738776 1.21053878,0.045 1.01922449,0.045 C0.56482449,0.045 0.23,0.347922449 0.23,0.794355102 C0.23,1.00162041 0.309722449,1.20091837 0.453216327,1.34442857 L2.90856327,3.79977551 L5.11679184,5.89639592 L2.33458776,5.73695102 L1.66493878,5.73695102 C1.24242449,5.73695102 0.915583673,6.03192245 0.915583673,6.46240408 C0.915583673,6.88491837 1.23445714,7.19582449 1.66493878,7.19582449 Z M9.31003265,15.2873412 C9.73254694,15.2873412 10.0354857,14.9764351 10.0354857,14.5459502 L10.0354857,13.7886168 L9.86807347,11.0143878 L11.9726612,13.2226098 L14.4758449,15.7417347 C14.6113551,15.8852286 14.786702,15.9569837 14.986049,15.9569837 C15.4324163,15.9569837 15.7672735,15.6540449 15.7672735,15.207622 C15.7672735,15.0003518 15.6956,14.8010522 15.5520898,14.6575584 L13.0409061,12.1463976 L10.8247102,10.0497837 L13.6148816,10.2092122 L14.3722204,10.2092122 C14.794702,10.2092122 15.1215592,9.91425714 15.1215592,9.49174286 C15.1215592,9.06126122 14.802702,8.75832245 14.3722204,8.75832245 L9.8600898,8.75832245 C9.04696327,8.75832245 8.57661224,9.22867347 8.57661224,10.0418 L8.57661224,14.5459502 C8.57661224,14.9684645 8.87955102,15.2873412 9.31003265,15.2873412 Z"/>
</svg>