<?xml version="1.0" encoding="UTF-8"?>
<svg width="24px" height="16px" viewBox="0 0 24 16" version="1.1" xmlns="http://www.w3.org/2000/svg">
    <path d="M1.29499111,14.8171609 C1.65090222,14.8171609 1.94603111,14.7043129 2.29326667,14.4959804 L11.1387422,9.28764444 C11.6161822,9.00986667 11.8765911,8.69736889 11.9720756,8.33278222 L11.9720756,13.3327858 C11.9720756,14.2963273 12.545,14.8171609 13.2220844,14.8171609 C13.5779778,14.8171609 13.8731244,14.7043129 14.2203422,14.4959804 L23.0744756,9.28764444 C23.68212,8.92305778 23.9512756,8.49772444 23.9512756,7.99424 C23.9512756,7.49944889 23.68212,7.07409778 23.0744756,6.70952889 L14.2203422,1.50119111 C13.8731244,1.29285333 13.5779778,1.18 13.2220844,1.18 C12.545,1.18 11.9720756,1.70083556 11.9720756,2.66439111 L11.9720756,7.66439111 C11.8765911,7.29980444 11.6161822,6.98730667 11.1387422,6.70952889 L2.29326667,1.50119111 C1.93735556,1.29285333 1.65090222,1.18 1.29499111,1.18 C0.617906667,1.18 0.045,1.70083556 0.045,2.66439111 L0.045,13.3327858 C0.045,14.2963273 0.617906667,14.8171609 1.29499111,14.8171609 Z"/>
</svg>