<?xml version="1.0" encoding="UTF-8"?>
<svg width="16px" height="13px" viewBox="0 0 16 13" version="1.1" xmlns="http://www.w3.org/2000/svg">
    <path d="M4.96726373,12.9357863 C5.2721902,12.9357863 5.48378431,12.7739873 5.86339706,12.4379373 L8.01039804,10.5274112 L12.0056931,10.5274112 C13.8602196,10.5274112 14.8558667,9.50058471 14.8558667,7.67718431 L14.8558667,2.91022451 C14.8558667,1.08683431 13.8602196,0.06 12.0056931,0.06 L3.99022451,0.06 C2.13571078,0.06 1.14,1.08060196 1.14,2.91022451 L1.14,7.67718431 C1.14,9.50680814 2.13571078,10.5274112 3.99022451,10.5274112 L4.28893137,10.5274112 L4.28893137,12.1454373 C4.28893137,12.6246275 4.53163627,12.9357863 4.96726373,12.9357863 Z M5.22240784,11.7969429 L5.22240784,9.99221667 C5.22240784,9.65616412 5.09171961,9.52547716 4.75566961,9.52547716 L3.99022451,9.52547716 C2.73313725,9.52547716 2.14193039,8.88448922 2.14193039,7.67096471 L2.14193039,2.91022451 C2.14193039,1.6967 2.73313725,1.06193039 3.99022451,1.06193039 L12.0056931,1.06193039 C13.2566118,1.06193039 13.8539745,1.6967 13.8539745,2.91022451 L13.8539745,7.67096471 C13.8539745,8.88448922 13.2566118,9.52547716 12.0056931,9.52547716 L7.97306765,9.52547716 C7.62456569,9.52547716 7.45031471,9.57526333 7.21382941,9.81796696 L5.22240784,11.7969429 Z M4.10224118,6.14628137 L6.66618529,6.14628137 C6.86532745,6.14628137 7.02713922,5.99070196 7.02713922,5.7853402 C7.02713922,5.59241765 6.86532745,5.42439902 6.66618529,5.42439902 L4.10224118,5.42439902 C3.90309902,5.42439902 3.74751961,5.59241765 3.74751961,5.7853402 C3.74751961,5.99070196 3.90309902,6.14628137 4.10224118,6.14628137 Z M7.95439608,6.14628137 L11.980802,6.14628137 C12.1799441,6.14628137 12.3355235,5.99070196 12.3355235,5.7853402 C12.3355235,5.59241765 12.1799441,5.42439902 11.980802,5.42439902 L7.95439608,5.42439902 C7.75525392,5.42439902 7.59344216,5.59241765 7.59344216,5.7853402 C7.59344216,5.99070196 7.75525392,6.14628137 7.95439608,6.14628137 Z M4.10224118,7.77676176 L5.16017353,7.77676176 C5.35931569,7.77676176 5.5148951,7.62118235 5.5148951,7.4220402 C5.5148951,7.21667843 5.35931569,7.05486667 5.16017353,7.05486667 L4.10224118,7.05486667 C3.90309902,7.05486667 3.74751961,7.21667843 3.74751961,7.4220402 C3.74751961,7.62118235 3.90309902,7.77676176 4.10224118,7.77676176 Z M6.44215196,7.77676176 L9.5662049,7.77676176 C9.76534706,7.77676176 9.92092647,7.62118235 9.92092647,7.4220402 C9.92092647,7.21667843 9.76534706,7.05486667 9.5662049,7.05486667 L6.44215196,7.05486667 C6.2430098,7.05486667 6.08743039,7.21667843 6.08743039,7.4220402 C6.08743039,7.62118235 6.2430098,7.77676176 6.44215196,7.77676176 Z M10.8481706,7.77676176 L11.980802,7.77676176 C12.1799441,7.77676176 12.3355235,7.62118235 12.3355235,7.4220402 C12.3355235,7.21667843 12.1799441,7.05486667 11.980802,7.05486667 L10.8481706,7.05486667 C10.6490284,7.05486667 10.493449,7.21667843 10.493449,7.4220402 C10.493449,7.62118235 10.6490284,7.77676176 10.8481706,7.77676176 Z"/>
</svg>