<?xml version="1.0" encoding="UTF-8"?>
<svg width="17px" height="16px" viewBox="0 0 17 16" version="1.1" xmlns="http://www.w3.org/2000/svg">
    <path d="M4.79346881,15.876255 C5.16661101,15.876255 5.42554128,15.6782596 5.89007798,15.2670312 L8.51738899,12.9290975 L13.4064798,12.9290975 C15.6758862,12.9290975 16.8942716,11.6725574 16.8942716,9.44124037 L16.8942716,3.60785413 C16.8942716,1.37654954 15.6758862,0.12 13.4064798,0.12 L3.59785413,0.12 C1.3284633,0.12 0.11,1.36892294 0.11,3.60785413 L0.11,9.44124037 C0.11,11.6801731 1.3284633,12.9290975 3.59785413,12.9290975 L3.96338532,12.9290975 L3.96338532,14.9090954 C3.96338532,15.4954862 4.26038624,15.876255 4.79346881,15.876255 Z M5.10569174,14.4826387 L5.10569174,12.2741734 C5.10569174,11.8629418 4.94576697,11.7030186 4.53453853,11.7030186 L3.59785413,11.7030186 C2.05954128,11.7030186 1.33607431,10.9186339 1.33607431,9.43362936 L1.33607431,3.60785413 C1.33607431,2.12284954 2.05954128,1.34607431 3.59785413,1.34607431 L13.4064798,1.34607431 C14.937244,1.34607431 15.668244,2.12284954 15.668244,3.60785413 L15.668244,9.43362936 C15.668244,10.9186339 14.937244,11.7030186 13.4064798,11.7030186 L8.47170734,11.7030186 C8.04524128,11.7030186 7.83200826,11.7639426 7.54261835,12.0609419 L5.10569174,14.4826387 Z M3.73493028,7.56785596 L6.87245963,7.56785596 C7.11615229,7.56785596 7.3141633,7.37747156 7.3141633,7.12616789 C7.3141633,6.89008624 7.11615229,6.68447982 6.87245963,6.68447982 L3.73493028,6.68447982 C3.49123761,6.68447982 3.30085321,6.89008624 3.30085321,7.12616789 C3.30085321,7.37747156 3.49123761,7.56785596 3.73493028,7.56785596 Z M8.44885872,7.56785596 L13.3760202,7.56785596 C13.6197128,7.56785596 13.8100972,7.37747156 13.8100972,7.12616789 C13.8100972,6.89008624 13.6197128,6.68447982 13.3760202,6.68447982 L8.44885872,6.68447982 C8.20516606,6.68447982 8.00715505,6.89008624 8.00715505,7.12616789 C8.00715505,7.37747156 8.20516606,7.56785596 8.44885872,7.56785596 Z M3.73493028,9.5630945 L5.02953486,9.5630945 C5.27322752,9.5630945 5.46361193,9.37271009 5.46361193,9.12901743 C5.46361193,8.87771376 5.27322752,8.67970275 5.02953486,8.67970275 L3.73493028,8.67970275 C3.49123761,8.67970275 3.30085321,8.87771376 3.30085321,9.12901743 C3.30085321,9.37271009 3.49123761,9.5630945 3.73493028,9.5630945 Z M6.59830734,9.5630945 L10.4212486,9.5630945 C10.6649413,9.5630945 10.8553257,9.37271009 10.8553257,9.12901743 C10.8553257,8.87771376 10.6649413,8.67970275 10.4212486,8.67970275 L6.59830734,8.67970275 C6.35461468,8.67970275 6.16423028,8.87771376 6.16423028,9.12901743 C6.16423028,9.37271009 6.35461468,9.5630945 6.59830734,9.5630945 Z M11.9900055,9.5630945 L13.3760202,9.5630945 C13.6197128,9.5630945 13.8100972,9.37271009 13.8100972,9.12901743 C13.8100972,8.87771376 13.6197128,8.67970275 13.3760202,8.67970275 L11.9900055,8.67970275 C11.7463128,8.67970275 11.5559284,8.87771376 11.5559284,9.12901743 C11.5559284,9.37271009 11.7463128,9.5630945 11.9900055,9.5630945 Z"/>
</svg>