<?xml version="1.0" encoding="UTF-8"?>
<svg width="16px" height="13px" viewBox="0 0 16 13" version="1.1" xmlns="http://www.w3.org/2000/svg">
    <path d="M3.4654228,6.50010323 C3.4654228,5.56764731 2.70936258,4.82 1.76011527,4.82 C0.836055054,4.82 0.08,5.56764731 0.08,6.50010323 C0.08,7.43255914 0.836055054,8.18020645 1.76011527,8.18020645 C2.70936258,8.18020645 3.4654228,7.43255914 3.4654228,6.50010323 Z M9.68181849,6.50010323 C9.68181849,5.56764731 8.93417118,4.82 8.00171527,4.82 C7.07765505,4.82 6.33000774,5.56764731 6.33000774,6.50010323 C6.33000774,7.43255914 7.07765505,8.18020645 8.00171527,8.18020645 C8.93417118,8.18020645 9.68181849,7.43255914 9.68181849,6.50010323 Z M15.9234013,6.50010323 C15.9234013,5.56764731 15.1757712,4.82 14.2433153,4.82 C13.2940508,4.82 12.5464034,5.56764731 12.5464034,6.50010323 C12.5464034,7.43255914 13.2940508,8.18020645 14.2433153,8.18020645 C15.1757712,8.18020645 15.9234013,7.43255914 15.9234013,6.50010323 Z"/>
</svg>
