<?xml version="1.0" encoding="UTF-8"?>
<svg width="16px" height="13px" viewBox="0 0 16 13" version="1.1" xmlns="http://www.w3.org/2000/svg">
    <path d="M8.36028023,12.9107829 C8.5521814,12.9107829 8.71456047,12.8369716 8.8400407,12.7114959 L14.6858535,6.99860814 C14.8259814,6.8583593 14.9071558,6.68860349 14.9071558,6.50407907 C14.9071558,6.31217791 14.8259814,6.12765349 14.6858535,6.00955 L8.8400407,0.289277907 C8.70718372,0.163797674 8.5521814,0.09 8.36028023,0.09 C7.97646279,0.09 7.68122674,0.385236047 7.68122674,0.769038372 C7.68122674,0.946186047 7.76241628,1.12333372 7.88050465,1.24881395 L13.2538733,6.50407907 L7.88050465,11.7593471 C7.76241628,11.884824 7.68122674,12.0545863 7.68122674,12.2391122 C7.68122674,12.6229236 7.97646279,12.9107829 8.36028023,12.9107829 Z M1.76166163,12.9107829 C1.95357791,12.9107829 2.11595698,12.8369716 2.24881395,12.7114959 L8.09456628,6.99860814 C8.2348,6.8583593 8.30861279,6.68860349 8.30861279,6.50407907 C8.30861279,6.31217791 8.2348,6.12765349 8.09456628,6.00955 L2.24143721,0.289277907 C2.11595698,0.163797674 1.95357791,0.09 1.76166163,0.09 C1.3778593,0.09 1.09,0.385236047 1.09,0.769038372 C1.09,0.946186047 1.16381279,1.12333372 1.28190116,1.24881395 L6.65526977,6.50407907 L1.28190116,11.7593471 C1.16381279,11.884824 1.09,12.0545863 1.09,12.2391122 C1.09,12.6229236 1.3778593,12.9107829 1.76166163,12.9107829 Z"/>
</svg>
