<?xml version="1.0" encoding="UTF-8"?>
<svg width="19px" height="16px" viewBox="0 0 19 16" version="1.1" xmlns="http://www.w3.org/2000/svg">
    <path d="M2.30583077,12.2470921 L7.68668923,12.2470921 L7.68668923,13.6315578 C7.68668923,15.0231631 8.35752077,15.6868477 9.77052154,15.6868477 L16.8427015,15.6868477 C18.2557169,15.6868477 18.9337246,15.0231631 18.9337246,13.6315578 L18.9337246,9.16416231 C18.9337246,7.77255846 18.2557169,7.10887385 16.8427015,7.10887385 L15.3655246,7.10887385 L15.3655246,2.52728692 C15.3655246,1.05718385 14.6161938,0.315 13.1246938,0.315 L2.30583077,0.315 C0.807183846,0.315 0.065,1.05718385 0.065,2.52728692 L0.065,10.0419331 C0.065,11.5120362 0.807183846,12.2470921 2.30583077,12.2470921 Z M2.32011,11.0981285 C1.60645538,11.0981285 1.21395923,10.7198969 1.21395923,9.97771308 L1.21395923,2.59152154 C1.21395923,1.84933769 1.60645538,1.46395923 2.32011,1.46395923 L13.1103708,1.46395923 C13.8097169,1.46395923 14.2164631,1.84933769 14.2164631,2.59152154 L14.2164631,7.10887385 L9.77052154,7.10887385 C8.35752077,7.10887385 7.68668923,7.77255846 7.68668923,9.16416231 L7.68668923,11.0981285 L2.32011,11.0981285 Z M2.70547385,2.49161077 C2.42715308,2.49161077 2.21305231,2.68428538 2.21305231,2.94120923 C2.21305231,3.09106077 2.26300769,3.19811846 2.37719769,3.31229385 L3.89010923,4.82522 L3.21929231,5.49603692 C2.86960462,5.84572462 3.08370538,6.29532308 3.56898,6.37382231 L5.94539769,6.73777462 C6.27367385,6.78773 6.52345077,6.53795308 6.48064231,6.20967692 L6.11667538,3.82611231 C6.03817615,3.32657308 5.58857769,3.11247231 5.23175769,3.47643923 L4.56094077,4.14725615 L3.05516154,2.63433 C2.94810385,2.52728692 2.84106077,2.49161077 2.70547385,2.49161077 Z"/>
</svg>