<?xml version="1.0" encoding="UTF-8"?>
<svg width="19px" height="13px" viewBox="0 0 19 13" version="1.1" xmlns="http://www.w3.org/2000/svg">
    <path d="M3.46533962,10.0625301 L7.98055849,10.0625301 L7.98055849,11.2242714 C7.98055849,12.3920038 8.54347075,12.9489189 9.7291566,12.9489189 L15.6636075,12.9489189 C16.8493057,12.9489189 17.4182396,12.3920038 17.4182396,11.2242714 L17.4182396,7.47556321 C17.4182396,6.30783208 16.8493057,5.75091698 15.6636075,5.75091698 L14.4240698,5.75091698 L14.4240698,1.90638774 C14.4240698,0.672785849 13.7952868,0.05 12.5437302,0.05 L3.46533962,0.05 C2.20778585,0.05 1.585,0.672785849 1.585,1.90638774 L1.585,8.21212358 C1.585,9.44572547 2.20778585,10.0625301 3.46533962,10.0625301 Z M3.4773217,9.09840472 C2.87847547,9.09840472 2.5491217,8.78102075 2.5491217,8.15823491 L2.5491217,1.96028868 C2.5491217,1.33750283 2.87847547,1.0141217 3.4773217,1.0141217 L12.5317113,1.0141217 C13.1185509,1.0141217 13.4598623,1.33750283 13.4598623,1.96028868 L13.4598623,5.75091698 L9.7291566,5.75091698 C8.54347075,5.75091698 7.98055849,6.30783208 7.98055849,7.47556321 L7.98055849,9.09840472 L3.4773217,9.09840472 Z M3.80069057,1.87645094 C3.56714434,1.87645094 3.38748679,2.03812925 3.38748679,2.25372075 C3.38748679,2.37946509 3.42940566,2.4693 3.52522547,2.56510755 L4.79474906,3.8346434 L4.23184906,4.3975434 C3.93841698,4.69097547 4.11807453,5.06824528 4.52528113,5.13411604 L6.51939528,5.43951792 C6.79486038,5.48143679 7.00445472,5.27184245 6.96853302,4.99637736 L6.66311887,2.99626604 C6.59724811,2.57708962 6.2199783,2.39743208 5.92056132,2.70284623 L5.35766132,3.26574623 L4.09412264,1.99621038 C4.00428774,1.90638774 3.91446509,1.87645094 3.80069057,1.87645094 Z"/>
</svg>