<?xml version="1.0" encoding="UTF-8"?>
<svg width="24px" height="16px" viewBox="0 0 24 16" version="1.1" xmlns="http://www.w3.org/2000/svg">
    <path d="M10.7704924,15.8171609 C11.4475769,15.8171609 12.0204836,15.2963273 12.0204836,14.3327858 L12.0204836,9.33278222 C12.115968,9.69736889 12.3850702,10.0098667 12.8538169,10.2876444 L21.699328,15.4959804 C22.046528,15.7043129 22.3416391,15.8171609 22.6975502,15.8171609 C23.3747058,15.8171609 23.9475058,15.2963273 23.9475058,14.3327858 L23.9475058,3.66439111 C23.9475058,2.70083556 23.3747058,2.18 22.6975502,2.18 C22.3416391,2.18 22.0552391,2.29285333 21.699328,2.50119111 L12.8538169,7.70952889 C12.3763947,7.98730667 12.115968,8.29980444 12.0204836,8.66439111 L12.0204836,3.66439111 C12.0204836,2.70083556 11.4475769,2.18 10.7704924,2.18 C10.4145813,2.18 10.128128,2.29285333 9.77221689,2.50119111 L0.926736,7.70952889 C0.310417778,8.07409778 0.05,8.49944889 0.05,8.99424 C0.05,9.49772444 0.310417778,9.92305778 0.926736,10.2876444 L9.77221689,15.4959804 C10.1194524,15.7043129 10.4145813,15.8171609 10.7704924,15.8171609 Z"/>
</svg>