<?xml version="1.0" encoding="UTF-8"?>
<svg width="13px" height="17px" viewBox="0 0 13 17" version="1.1" xmlns="http://www.w3.org/2000/svg">
    <path d="M6.50050208,15.5196499 C10.0074258,15.5196499 12.9110595,12.6160664 12.9110595,9.10914391 C12.9110595,6.01702312 10.6547615,3.39624886 7.71347931,2.8180449 L7.71347931,1.92560134 C7.71347931,1.47939243 7.40552089,1.35997263 7.06614366,1.60508055 L5.06128624,3.00659639 C4.77218426,3.20771025 4.76590307,3.50937461 5.06128624,3.71678253 L7.0598496,5.12457956 C7.40552089,5.37596867 7.71347931,5.25656173 7.71347931,4.80404589 L7.71347931,3.90532114 C10.0891328,4.44581223 11.836307,6.5637954 11.836307,9.10914391 C11.836307,12.0755766 9.46693475,14.4512301 6.50050208,14.4512301 C3.53406941,14.4512301 1.15213475,12.0755766 1.15841594,9.10914391 C1.16469713,7.32425678 2.03200307,5.7467647 3.37066842,4.79148352 C3.62835158,4.59665084 3.71004564,4.30126768 3.55292584,4.03730332 C3.39580604,3.77962015 3.05014762,3.71048847 2.77360802,3.92417758 C1.15841594,5.09944193 0.09,6.99744193 0.09,9.10914391 C0.09,12.6160664 2.99987238,15.5196499 6.50050208,15.5196499 Z M4.63392089,11.6859112 C4.87902881,11.6859112 5.03614861,11.5162291 5.03614861,11.2522647 L5.03614861,7.28654391 C5.03614861,6.96602312 4.87273475,6.79632807 4.58992683,6.79632807 C4.41395059,6.79632807 4.2882496,6.85289738 4.06827931,7.00373599 L3.20098624,7.58822114 C3.05642881,7.69506569 2.98729713,7.80819144 2.98729713,7.95273599 C2.98729713,8.16013104 3.15069812,8.33610728 3.35181198,8.33610728 C3.47751297,8.33610728 3.54036347,8.31096966 3.6597704,8.21670035 L4.2505496,7.78305381 L4.2505496,11.2522647 C4.2505496,11.509935 4.40137535,11.6859112 4.63392089,11.6859112 Z M7.82660505,11.761337 C8.86987436,11.761337 9.56120406,11.0888637 9.56120406,10.0770003 C9.56120406,9.15313797 8.93900604,8.49322708 8.04028129,8.49322708 C7.66948525,8.49322708 7.26725752,8.66292213 7.07870604,8.94574292 L7.18555059,7.58822114 L9.07098822,7.58822114 C9.25324564,7.58822114 9.41036545,7.43738253 9.41036545,7.22370629 C9.41036545,7.01001718 9.25324564,6.87175381 9.07098822,6.87175381 L7.0598496,6.87175381 C6.73304762,6.87175381 6.55077733,7.06029243 6.51935851,7.39338847 L6.38109515,9.20341322 C6.35595752,9.51765282 6.51935851,9.66849144 6.79588525,9.66849144 C7.00329317,9.66849144 7.09128129,9.63077857 7.27353871,9.4925152 C7.51235257,9.2725449 7.70718525,9.18455678 7.95229317,9.18455678 C8.44250901,9.18455678 8.76932386,9.54279045 8.76932386,10.0895756 C8.76932386,10.6426419 8.38595257,11.0448697 7.86430505,11.0448697 C7.49350901,11.0448697 7.17297535,10.8311805 7.00957436,10.5043657 C6.91530505,10.3409647 6.80217931,10.2529766 6.6450595,10.2529766 C6.43765158,10.2529766 6.29310703,10.4038152 6.29310703,10.6174914 C6.29310703,10.7054796 6.31196347,10.7871865 6.34338228,10.8688934 C6.51307733,11.3213964 7.06614366,11.761337 7.82660505,11.761337 Z"/>
</svg>