<?xml version="1.0" encoding="UTF-8"?>
<svg width="13px" height="15px" viewBox="0 0 13 15" version="1.1" xmlns="http://www.w3.org/2000/svg">
    <path d="M0.0055458,7.76906 C0.0055458,8.65215867 0.175019867,9.484202 0.513968,10.26519 C0.852921333,11.0461737 1.32023667,11.7356094 1.915914,12.3334971 C2.51159133,12.9313849 3.19968133,13.3984552 3.980184,13.734708 C4.760678,14.0709573 5.59247,14.239082 6.47556,14.239082 C7.36404933,14.239082 8.19829833,14.0709573 8.978307,13.734708 C9.758307,13.3984552 10.4463927,12.9313849 11.042564,12.3334971 C11.6387613,11.7356094 12.1063367,11.0461737 12.44529,10.26519 C12.7842433,9.484202 12.95372,8.65215867 12.95372,7.76906 C12.95372,7.05726667 12.8406633,6.377137 12.61455,5.728671 C12.3885233,5.08019633 12.0722637,4.484623 11.665771,3.941951 C11.2593043,3.399279 10.7841067,2.92938533 10.240178,2.53227 C10.102274,2.42479467 9.957129,2.38418267 9.804743,2.410434 C9.652357,2.436694 9.536163,2.51558667 9.456161,2.647112 C9.37715567,2.77962533 9.35544133,2.91434433 9.391018,3.051269 C9.42660333,3.18819367 9.50794867,3.30548833 9.635054,3.403153 C10.310092,3.888651 10.8506147,4.51234767 11.256622,5.274243 C11.6626207,6.03613833 11.86783,6.867744 11.87225,7.76906 C11.87225,8.51964533 11.733449,9.22052733 11.455847,9.871706 C11.178245,10.522876 10.79338,11.09563 10.301252,11.589968 C9.809124,12.0843019 9.23636567,12.4702706 8.582977,12.7478741 C7.929597,13.025477 7.22712467,13.1642784 6.47556,13.1642784 C5.72939467,13.1642784 5.03072267,13.025477 4.379544,12.7478741 C3.728374,12.4702706 3.156725,12.0843019 2.664597,11.589968 C2.172469,11.09563 1.787357,10.522876 1.509261,9.871706 C1.231165,9.22052733 1.092117,8.51964533 1.092117,7.76906 C1.092117,6.91145867 1.27240533,6.118164 1.632982,5.389176 C1.99355867,4.66017933 2.48741567,4.04421767 3.114553,3.541291 C3.74168167,3.038373 4.455828,2.69659 5.256992,2.515942 L5.256992,3.426176 C5.256992,3.653416 5.322759,3.79562733 5.454293,3.85281 C5.585827,3.90999267 5.737732,3.87649167 5.910008,3.752307 L7.937813,2.334176 C8.08063967,2.22963 8.153405,2.11024233 8.156109,1.976013 C8.15880433,1.841775 8.086039,1.72287267 7.937813,1.619306 L5.916638,0.199706 C5.739942,0.072098 5.585827,0.0366383333 5.454293,0.093327 C5.322759,0.150015667 5.256992,0.29198 5.256992,0.51922 L5.256992,1.414647 C4.51477867,1.560923 3.8246,1.82624 3.186456,2.210598 C2.548312,2.594956 1.99128367,3.07061733 1.515371,3.637582 C1.03945833,4.20454667 0.668841333,4.840355 0.40352,5.545007 C0.138203867,6.24966767 0.0055458,6.99101867 0.0055458,7.76906 Z M4.590521,10.366785 C4.714203,10.366785 4.81236167,10.3271567 4.884997,10.2479 C4.957641,10.1686347 4.993963,10.061272 4.993963,9.925812 L4.993963,5.926635 C4.993963,5.76467233 4.95518833,5.64160567 4.877639,5.557435 C4.80008967,5.47326433 4.68916933,5.431179 4.544878,5.431179 C4.45653,5.431179 4.37493333,5.44676167 4.300088,5.477927 C4.22524267,5.50909233 4.132115,5.56344967 4.020705,5.640999 L3.145844,6.23012 C3.00155267,6.33416333 2.929407,6.45833067 2.929407,6.602622 C2.929407,6.70422133 2.965235,6.79440667 3.036891,6.873178 C3.108547,6.95194933 3.19517033,6.991335 3.296761,6.991335 C3.400813,6.991335 3.50265067,6.949618 3.602274,6.866184 L4.212845,6.419881 L4.200339,6.419881 L4.200339,9.925812 C4.200339,10.061272 4.235309,10.1686347 4.305249,10.2479 C4.375189,10.3271567 4.47027967,10.366785 4.590521,10.366785 Z M7.817173,10.441912 C8.344375,10.441912 8.76702667,10.287407 9.085128,9.978397 C9.40322067,9.669387 9.562267,9.25864333 9.562267,8.746166 C9.562267,8.275904 9.41954,7.89093067 9.134086,7.591246 C8.848632,7.29156133 8.480342,7.141719 8.029216,7.141719 C7.82794133,7.141719 7.631455,7.18860133 7.439757,7.282366 C7.24805033,7.37613067 7.10899367,7.503275 7.022587,7.663799 L7.057908,7.663799 L7.1669,6.234397 L9.071179,6.234397 C9.163947,6.234397 9.244196,6.199674 9.311926,6.130228 C9.379656,6.06077333 9.413521,5.97304067 9.413521,5.86703 C9.413521,5.756608 9.379656,5.66912667 9.311926,5.604586 C9.244196,5.54004533 9.163947,5.507775 9.071179,5.507775 L7.041008,5.507775 C6.70579,5.507775 6.52395033,5.68421533 6.495489,6.037096 L6.358521,7.861867 C6.34526967,8.02136833 6.37692467,8.13878867 6.453486,8.214128 C6.53004733,8.28946733 6.636552,8.327137 6.773,8.327137 C6.87901067,8.327137 6.96342833,8.31572733 7.026253,8.292908 C7.089069,8.27008 7.16587733,8.22259533 7.256678,8.150454 C7.37745667,8.04340333 7.49001067,7.965698 7.59434,7.917338 C7.698678,7.86896933 7.814677,7.844785 7.942337,7.844785 C8.191261,7.844785 8.39096267,7.92775533 8.541442,8.093696 C8.69193,8.25964533 8.767174,8.479835 8.767174,8.754265 C8.767174,9.034103 8.68002633,9.26484867 8.505731,9.446502 C8.33144433,9.62814667 8.112234,9.718969 7.8481,9.718969 C7.66349133,9.718969 7.495332,9.66962533 7.343622,9.570938 C7.191912,9.47225067 7.07261533,9.34214667 6.985732,9.180626 C6.939608,9.096698 6.88733933,9.032647 6.828926,8.988473 C6.77052133,8.944299 6.701565,8.922212 6.622057,8.922212 C6.51604633,8.922212 6.43052367,8.95583 6.365489,9.023066 C6.300463,9.090302 6.26795,9.17913533 6.26795,9.289566 C6.26795,9.334234 6.27236567,9.378161 6.281197,9.421347 C6.29002833,9.46454167 6.30205333,9.50478533 6.317272,9.542078 C6.406114,9.77183133 6.582342,9.979242 6.845956,10.16431 C7.10957,10.349378 7.433309,10.441912 7.817173,10.441912 Z"/>
</svg>
