<?xml version="1.0" encoding="UTF-8"?>
<svg width="13px" height="15px" viewBox="0 0 13 15" version="1.1" xmlns="http://www.w3.org/2000/svg">
    <path d="M0.0055458,7.76906 C0.0055458,8.65215867 0.175019867,9.484202 0.513968,10.26519 C0.852921333,11.0461737 1.32023667,11.7356094 1.915914,12.3334971 C2.51159133,12.9313849 3.19968133,13.3984552 3.980184,13.734708 C4.760678,14.0709573 5.59247,14.239082 6.47556,14.239082 C7.36404933,14.239082 8.19829833,14.0709573 8.978307,13.734708 C9.758307,13.3984552 10.4463927,12.9313849 11.042564,12.3334971 C11.6387613,11.7356094 12.1063367,11.0461737 12.44529,10.26519 C12.7842433,9.484202 12.95372,8.65215867 12.95372,7.76906 C12.95372,7.05726667 12.8406633,6.377137 12.61455,5.728671 C12.3885233,5.08019633 12.0722637,4.484623 11.665771,3.941951 C11.2593043,3.399279 10.7841067,2.92938533 10.240178,2.53227 C10.102274,2.42479467 9.957129,2.38418267 9.804743,2.410434 C9.652357,2.436694 9.536163,2.51558667 9.456161,2.647112 C9.37715567,2.77962533 9.35544133,2.91434433 9.391018,3.051269 C9.42660333,3.18819367 9.50794867,3.30548833 9.635054,3.403153 C10.310092,3.888651 10.8506147,4.51234767 11.256622,5.274243 C11.6626207,6.03613833 11.86783,6.867744 11.87225,7.76906 C11.87225,8.51964533 11.733449,9.22052733 11.455847,9.871706 C11.178245,10.522876 10.79338,11.09563 10.301252,11.589968 C9.809124,12.0843019 9.23636567,12.4702706 8.582977,12.7478741 C7.929597,13.025477 7.22712467,13.1642784 6.47556,13.1642784 C5.72939467,13.1642784 5.03072267,13.025477 4.379544,12.7478741 C3.728374,12.4702706 3.156725,12.0843019 2.664597,11.589968 C2.172469,11.09563 1.787357,10.522876 1.509261,9.871706 C1.231165,9.22052733 1.092117,8.51964533 1.092117,7.76906 C1.092117,6.91145867 1.27240533,6.118164 1.632982,5.389176 C1.99355867,4.66017933 2.48741567,4.04421767 3.114553,3.541291 C3.74168167,3.038373 4.455828,2.69659 5.256992,2.515942 L5.256992,3.426176 C5.256992,3.653416 5.322759,3.79562733 5.454293,3.85281 C5.585827,3.90999267 5.737732,3.87649167 5.910008,3.752307 L7.937813,2.334176 C8.08063967,2.22963 8.153405,2.11024233 8.156109,1.976013 C8.15880433,1.841775 8.086039,1.72287267 7.937813,1.619306 L5.916638,0.199706 C5.739942,0.072098 5.585827,0.0366383333 5.454293,0.093327 C5.322759,0.150015667 5.256992,0.29198 5.256992,0.51922 L5.256992,1.414647 C4.51477867,1.560923 3.8246,1.82624 3.186456,2.210598 C2.548312,2.594956 1.99128367,3.07061733 1.515371,3.637582 C1.03945833,4.20454667 0.668841333,4.840355 0.40352,5.545007 C0.138203867,6.24966767 0.0055458,6.99101867 0.0055458,7.76906 Z M4.704622,10.360168 C4.827316,10.360168 4.92633267,10.3205353 5.001672,10.24127 C5.07701133,10.1620047 5.114681,10.055136 5.114681,9.920664 L5.114681,5.933252 C5.114681,5.77570933 5.07480133,5.651542 4.995042,5.56075 C4.91529133,5.46994933 4.80327033,5.424549 4.658979,5.424549 C4.57504233,5.424549 4.49565133,5.44013167 4.420806,5.471297 C4.34596067,5.50246233 4.252833,5.55681967 4.141423,5.634369 L3.259945,6.22349 C3.120065,6.323122 3.050125,6.44729367 3.050125,6.596005 C3.050125,6.69759567 3.085953,6.78777667 3.157609,6.866548 C3.229265,6.94531933 3.31588833,6.984705 3.417479,6.984705 C3.512691,6.984705 3.61452867,6.945198 3.722992,6.866184 L4.333563,6.419881 L4.31444,6.419881 L4.31444,9.920664 C4.31444,10.055136 4.34941,10.1620047 4.41935,10.24127 C4.48929,10.3205353 4.58438067,10.360168 4.704622,10.360168 Z M8.015215,10.435282 C8.54143767,10.435282 8.96249033,10.2055503 9.278373,9.746087 C9.59425567,9.286615 9.752197,8.67619567 9.752197,7.914829 C9.752197,7.150039 9.59425567,6.536556 9.278373,6.07438 C8.96249033,5.61221267 8.54143767,5.381129 8.015215,5.381129 C7.48898367,5.381129 7.066579,5.61221267 6.748001,6.07438 C6.42941433,6.536556 6.270121,7.150039 6.270121,7.914829 C6.270121,8.67619567 6.42941433,9.286615 6.748001,9.746087 C7.066579,10.2055503 7.48898367,10.435282 8.015215,10.435282 Z M8.015215,9.671116 C7.732907,9.671116 7.50927233,9.514141 7.344311,9.200191 C7.179341,8.886241 7.096856,8.457787 7.096856,7.914829 C7.096856,7.36206033 7.178236,6.928701 7.340996,6.614751 C7.503756,6.300801 7.72849567,6.143826 8.015215,6.143826 C8.296535,6.143826 8.51881767,6.300801 8.682063,6.614751 C8.845317,6.928701 8.926944,7.36206033 8.926944,7.914829 C8.926944,8.457787 8.844212,8.886241 8.678748,9.200191 C8.51329267,9.514141 8.292115,9.671116 8.015215,9.671116 Z"/>
</svg>
