<?xml version="1.0" encoding="UTF-8"?>
<svg width="22px" height="15px" viewBox="0 0 22 15" version="1.1" xmlns="http://www.w3.org/2000/svg">
    <path d="M10.3877167,14.960135 C10.9411,14.960135 11.3398667,14.553235 11.3398667,14.0079867 L11.3398667,1.02785 C11.3398667,0.4826 10.9411,0.035 10.37145,0.035 C9.97268333,0.035 9.70413333,0.2059 9.27281667,0.6128 L5.66766667,4.00636667 C5.6107,4.05518333 5.5456,4.0796 5.46421667,4.0796 L3.03095,4.0796 C1.88348333,4.0796 1.265,4.70623333 1.265,5.93506667 L1.265,9.08448333 C1.265,10.3051833 1.88348333,10.9318167 3.03095,10.9318167 L5.46421667,10.9318167 C5.5456,10.9318167 5.6107,10.9562333 5.66766667,11.00505 L9.27281667,14.4311633 C9.66343333,14.797375 9.98896667,14.960135 10.3877167,14.960135 Z M18.0945,13.259289 C18.4118333,13.4708777 18.8025,13.3894973 19.0303333,13.0639767 C20.1045,11.5665833 20.7311667,9.57276667 20.7311667,7.48943333 C20.7311667,5.39796667 20.1208333,3.396 19.0303333,1.90675 C18.7943333,1.58936667 18.4118333,1.50798333 18.0945,1.71958333 C17.7851667,1.93116667 17.7363333,2.32993333 17.9805,2.67986667 C18.8675,3.98195 19.421,5.69093333 19.421,7.48943333 C19.421,9.28793333 18.8756667,11.0132 17.9805,12.2990033 C17.7445,12.6489367 17.7851667,13.0477 18.0945,13.259289 Z M14.84735,11.0620167 C15.12405,11.2573333 15.5228167,11.2003667 15.7588167,10.87485 C16.3935,10.02035 16.776,8.7671 16.776,7.48943333 C16.776,6.21176667 16.3935,4.96665 15.7588167,4.10401667 C15.5228167,3.7785 15.1321833,3.72153333 14.84735,3.9087 C14.4974167,4.15285 14.4486,4.56788333 14.7090167,4.91781667 C15.1810167,5.55258333 15.46585,6.521 15.46585,7.48943333 C15.46585,8.45785 15.1647333,9.42628333 14.7008667,10.0691833 C14.4567333,10.4191167 14.4974167,10.8178833 14.84735,11.0620167 Z" transform="translate(11.000000, 7.500000) scale(-1, 1) translate(-11.000000, -7.500000)"/>
</svg>