<?xml version="1.0" encoding="UTF-8"?>
<svg width="22px" height="15px" viewBox="0 0 22 15" version="1.1" xmlns="http://www.w3.org/2000/svg">
    <path d="M12.3677167,14.960135 C12.9211,14.960135 13.3198667,14.553235 13.3198667,14.0079867 L13.3198667,1.02785 C13.3198667,0.4826 12.9211,0.035 12.35145,0.035 C11.9526833,0.035 11.6841333,0.2059 11.2528167,0.6128 L7.64766667,4.00636667 C7.5907,4.05518333 7.5256,4.0796 7.44421667,4.0796 L5.01095,4.0796 C3.86348333,4.0796 3.245,4.70623333 3.245,5.93506667 L3.245,9.08448333 C3.245,10.3051833 3.86348333,10.9318167 5.01095,10.9318167 L7.44421667,10.9318167 C7.5256,10.9318167 7.5907,10.9562333 7.64766667,11.00505 L11.2528167,14.4311633 C11.6434333,14.797375 11.9689667,14.960135 12.3677167,14.960135 Z M16.82735,11.0620167 C17.10405,11.2573333 17.5028167,11.2003667 17.7388167,10.87485 C18.3735,10.02035 18.756,8.7671 18.756,7.48943333 C18.756,6.21176667 18.3735,4.96665 17.7388167,4.10401667 C17.5028167,3.7785 17.1121833,3.72153333 16.82735,3.9087 C16.4774167,4.15285 16.4286,4.56788333 16.6890167,4.91781667 C17.1610167,5.55258333 17.44585,6.521 17.44585,7.48943333 C17.44585,8.45785 17.1447333,9.42628333 16.6808667,10.0691833 C16.4367333,10.4191167 16.4774167,10.8178833 16.82735,11.0620167 Z"/>
</svg>