<?xml version="1.0" encoding="UTF-8"?>
<svg width="12px" height="12px" viewBox="0 0 12 12" version="1.1" xmlns="http://www.w3.org/2000/svg">
    <path d="M7.04761277,11.7170183 C7.47148085,11.7170183 7.77691915,11.4053502 7.77691915,10.9877132 L7.77691915,1.04548085 C7.77691915,0.627842553 7.47148085,0.285 7.03515319,0.285 C6.72971489,0.285 6.52401702,0.415902128 6.19364681,0.727570213 L3.43225532,3.32689787 C3.38862128,3.36428936 3.33875745,3.38299149 3.27642128,3.38299149 L1.41264255,3.38299149 C0.533731915,3.38299149 0.06,3.86296596 0.06,4.8042 L0.06,7.21651915 C0.06,8.1515234 0.533731915,8.63149787 1.41264255,8.63149787 L3.27642128,8.63149787 C3.33875745,8.63149787 3.38862128,8.6502 3.43225532,8.68759149 L6.19364681,11.3118485 C6.49284255,11.5923511 6.74218723,11.7170183 7.04761277,11.7170183 Z M10.4635021,8.73122553 C10.6754426,8.88082979 10.9808809,8.83719574 11.1616468,8.58786383 C11.6477872,7.93335319 11.940766,6.97341702 11.940766,5.99477872 C11.940766,5.01614043 11.6477872,4.06243404 11.1616468,3.40169362 C10.9808809,3.1523617 10.6816723,3.10872766 10.4635021,3.25208936 C10.1954681,3.43909787 10.1580766,3.75699574 10.3575447,4.02502979 C10.7190766,4.51123404 10.9372468,5.253 10.9372468,5.99477872 C10.9372468,6.73654468 10.7066043,7.4783234 10.3513021,7.97075745 C10.1643064,8.23879149 10.1954681,8.54422979 10.4635021,8.73122553 Z"/>
</svg>