<svg xmlns="http://www.w3.org/2000/svg" width="10" height="10" viewBox="0 0 10 10">
  <g id="CheckmarkSize75">
    <rect id="Frame" width="10" height="10" fill="red" opacity="0"/>
    <path d="M9.10449,1.18994a.95929.95929,0,0,0-1.34765.16162L3.6449,6.5849,2.22754,4.88428A.96.96,0,0,0,.75293,6.11377L2.92969,8.72559c.02.024.04925.03283.071.05438a.90036.90036,0,0,0,.073.08575.921.921,0,0,0,.134.0727.93725.93725,0,0,0,.09949.05395.95592.95592,0,0,0,.35925.07843L3.667,9.07068l.00049.00012a.95484.95484,0,0,0,.3714-.08386.93535.93535,0,0,0,.10278-.05878.91092.91092,0,0,0,.14008-.08.89563.89563,0,0,0,.07178-.08935c.02069-.02173.04943-.03064.06836-.05469l4.84472-6.166A.96055.96055,0,0,0,9.10449,1.18994Z"/>
  </g>
</svg>
