<svg xmlns="http://www.w3.org/2000/svg" width="10" height="10" viewBox="0 0 10 10">
  <g id="CheckmarkSize100">
    <rect id="Frame" width="10" height="10" fill="red" opacity="0"/>
    <path d="M9.56445.71094a.9982.9982,0,0,0-1.40332.1748L3.4812,6.89648l-1.657-2.0288A.99977.99977,0,0,0,.27539,6.13232l2.4502,3c.02154.02637.05328.0362.07678.05976a.93683.93683,0,0,0,.08337.097.95478.95478,0,0,0,.13367.072.95912.95912,0,0,0,.10351.05579A.99454.99454,0,0,0,3.49951,9.5L3.5,9.49988,3.50049,9.5a.99309.99309,0,0,0,.38635-.08765.962.962,0,0,0,.10724-.06024.94719.94719,0,0,0,.13824-.0777.94481.94481,0,0,0,.082-.09991c.02264-.02387.05407-.03375.0747-.06024l5.4502-7A1.00056,1.00056,0,0,0,9.56445.71094Z"/>
  </g>
</svg>
