<svg xmlns="http://www.w3.org/2000/svg" height="18" viewBox="0 0 18 18" width="18">
  <defs>
    <style>
      .fill {
        fill: #464646;
      }
    </style>
  </defs>
  <title>S Edit 18 N</title>
  <rect id="Canvas" fill="#ff13dc" opacity="0" width="18" height="18" /><path class="fill" d="M16.7835,4.1,13.9,1.216a.60751.60751,0,0,0-.433-.1765H13.45a.6855.6855,0,0,0-.4635.203L2.542,11.686a.49494.49494,0,0,0-.1255.211L1.0275,16.55c-.057.1885.2295.4255.3915.4255a.12544.12544,0,0,0,.031-.0035c.138-.0315,3.933-1.172,4.6555-1.389a.486.486,0,0,0,.207-.1245L16.7565,5.014a.686.686,0,0,0,.2-.4415A.61049.61049,0,0,0,16.7835,4.1ZM5.7,14.658c-1.0805.3245-2.431.7325-3.3645,1.011L3.34,12.304Z" />
</svg>