<svg xmlns="http://www.w3.org/2000/svg" height="18" viewBox="0 0 18 18" width="18">
  <defs>
    <style>
      .fill {
        fill: #464646;
      }
    </style>
  </defs>
  <title>S RealTimeCustomerProfile 18 N</title>
  <rect id="Canvas" fill="#ff13dc" opacity="0" width="18" height="18" /><path class="fill" d="M9,.5A8.5,8.5,0,1,0,17.5,9,8.5,8.5,0,0,0,9,.5Zm5.491,13.59161a5.41289,5.41289,0,0,0-3.11213-1.56415.65361.65361,0,0,1-.5655-.65569V10.9256a.65656.65656,0,0,1,.16645-.42218A4.99536,4.99536,0,0,0,12.12006,7.3855c0-2.36029-1.25416-3.67963-3.14337-3.67963s-3.179,1.36835-3.179,3.67963A5.05147,5.05147,0,0,0,6.9892,10.5047a.655.655,0,0,1,.16656.42206v.94165a.64978.64978,0,0,1-.57006.65539,5.43158,5.43158,0,0,0-3.11963,1.5205,7.49965,7.49965,0,1,1,11.025.04731Z" />
</svg>