<svg xmlns="http://www.w3.org/2000/svg" height="18" viewBox="0 0 18 18" width="18">
  <defs>
    <style>
      .fill {
        fill: #464646;
      }
    </style>
  </defs>
  <title>S Bell 18 N</title>
  <rect id="Canvas" fill="#ff13dc" opacity="0" width="18" height="18" /><path class="fill" d="M9,18a2.203,2.203,0,0,0,2-2H7A2.203,2.203,0,0,0,9,18Z" />
  <path class="fill" d="M13.5715,5.6925c0-1.7185-1.603-2.4455-3.5715-2.634V1.5A.5395.5395,0,0,0,9.4285,1h-.857A.5395.5395,0,0,0,8,1.5V3.0585c-1.9685.1885-3.5715.9155-3.5715,2.634C4.4285,13.4,2,13.0555,2,14.077V15H16v-.923C16,13,13.5715,13.4,13.5715,5.6925Z" />
</svg>