<svg xmlns="http://www.w3.org/2000/svg" width="1582" height="400" viewBox="0 0 1582 400" xmlns:xlink="http://www.w3.org/1999/xlink">
    <!-- Copyright © 2019 Apple Inc. All rights reserved. -->
    <defs>
        <path id="b" d="M1581.5351,399.898438 L1581.5351,358.005601 C1581.5351,312.268183 1541.19277,275.1917 1491.43042,275.1917 C1450.64807,275.1917 1416.21078,300.099758 1405.10264,334.260413 C1400.43887,333.385508 1395.61073,332.926025 1390.66617,332.926025 C1388.37195,332.926025 1386.10341,333.036175 1383.86398,333.229724 C1376.13724,267.399376 1315.50132,216.14187 1241.82258,216.14187 C1199.31271,216.14187 1161.16187,233.219838 1134.9872,260.299423 C1113.40269,263.202662 1094.87257,274.711761 1083.62404,290.913249 C1073.08089,286.962012 1061.57383,284.746424 1049.51034,284.658304 C1044.8089,230.165536 995.241732,187.282576 934.742775,187.282576 C879.5873,187.282576 833.514544,222.927109 822.238618,270.513473 C806.788579,260.746317 788.255038,254.823396 768.250798,254.201835 C768.855171,251.032663 769.18732,247.780091 769.18732,244.451989 C769.18732,213.446343 741.83986,188.311692 708.104535,188.311692 C696.749852,188.311692 686.126238,191.167723 677.017838,196.127619 C663.949337,174.58071 638.921781,160 610.177243,160 C568.537128,160 534.69394,190.587075 533.736873,228.645467 C507.409829,230.16711 484.936733,244.705333 473.845714,265.347439 C452.004386,227.565997 408.768588,201.827094 358.973715,201.827094 C322.127494,201.827094 288.886968,215.937306 265.229096,238.56998 C261.739825,237.690353 258.069071,237.211988 254.276757,237.211988 C236.873206,237.211988 221.99501,247.101882 215.903339,261.097224 C210.077045,258.211294 203.411818,256.571633 196.328838,256.571633 C173.761577,256.571633 155.431776,273.199559 155.024295,293.851107 C140.462839,286.979322 123.970128,283.078439 106.475835,283.078439 C47.6701506,283.078439 4.8316906e-13,326.89138 4.8316906e-13,380.938827 L0,399.898438"/>
        <filter id="a" width="120.5%" height="235.5%" x="-10.3%" y="-78.2%" filterUnits="objectBoundingBox">
            <feOffset dy="-25" in="SourceAlpha" result="shadowOffsetOuter1"/>
            <feGaussianBlur stdDeviation="50" in="shadowOffsetOuter1" result="shadowBlurOuter1"/>
            <feColorMatrix values="0 0 0 0 0.807429766 0 0 0 0 0.94268743 0 0 0 0 1 0 0 0 1 0" in="shadowBlurOuter1"/>
        </filter>
    </defs>
    <g fill="none" fill-rule="evenodd">
        <use fill="black" filter="url(#a)" xlink:href="#b"/>
        <use fill="white" xlink:href="#b"/>
    </g>
</svg>