<svg xmlns="http://www.w3.org/2000/svg" height="18" viewBox="0 0 18 18" width="18">
  <defs>
    <style>
      .fill {
        fill: #464646;
      }
    </style>
  </defs>
  <title>S Cut 18 N</title>
  <rect id="Canvas" fill="#ff13dc" opacity="0" width="18" height="18" /><path class="fill" d="M14.957,11.0605c0-.0035.0165-.0145.012-.0145A4.24048,4.24048,0,0,1,11.4,9.037c-.0085-.014-.023-.0235-.0325-.037.0095-.0135.024-.023.0325-.037a4.2405,4.2405,0,0,1,3.571-2.009c.0045,0-.0115-.0105-.013-.014a2.95851,2.95851,0,1,0-1.965-.794L9.758,7.868l-6.3-3.35a2,2,0,0,0-1.9.0115l-1.147.627L7.63,9,.411,12.8435l1.146.6275a2,2,0,0,0,1.9.0115l6.3-3.35,3.235,1.722a2.946,2.946,0,1,0,1.965-.794Zm.1825-9.0195a1.9665,1.9665,0,1,1-2.10018,1.823l.00018-.00254A1.966,1.966,0,0,1,15.1395,2.041Zm0,13.918a1.9665,1.9665,0,1,1,1.82032-2.10254L16.96,13.859A1.96649,1.96649,0,0,1,15.1395,15.959Z" />
</svg>