<svg xmlns="http://www.w3.org/2000/svg" xmlns:xlink="http://www.w3.org/1999/xlink">
  <path id="path" d="M10,10
                 L40,10
                 l-30,60
                 H40
                 V10
                 h30
                 v60

                 M80,10
                 C110,10 95,70 110,70
                 S110,10 140,10

                 m10,0
                 c30,0 15,60 30,60
                 s0,-60 30,-60

                 M220,40
                 Q235,98 250,40
                 T280,40

                 M290,40
                 q15,58 30,0
                 t30,0

                 M372,70
                 A30,15 -90 1 1 384,70

                 M410,70
                 a30,15 -90 1 1 12,0
                ">
  </path>

  <use xlink:href="#path" transform="translate(0, 70)"/>
  <use xlink:href="#path" transform="translate(0, 140)"/>
  <use xlink:href="#path" transform="translate(0, 210)"/>
</svg>
