<?xml version="1.0" encoding="UTF-8"?>
<svg width="11px" height="13px" viewBox="0 0 11 13" version="1.1" xmlns="http://www.w3.org/2000/svg" xmlns:xlink="http://www.w3.org/1999/xlink">
    <!-- Generator: Sketch 43.1 (39012) - http://www.bohemiancoding.com/sketch -->
    <title>_Assets/Inline/Pause</title>
    <desc>Created with Sketch.</desc>
    <defs></defs>
    <g id="Media-Control-Symbols" stroke="none" stroke-width="1" fill="none" fill-rule="evenodd">
        <g id="_Assets/Inline/Pause" fill="#000000">
            <path d="M7,0.998502329 C7,0.44704472 7.44335318,0 8.0093689,0 L9.9906311,0 C10.5480902,0 11,0.447489426 11,0.998502329 L11,12.0014977 C11,12.5529553 10.5566468,13 9.9906311,13 L8.0093689,13 C7.45190985,13 7,12.5525106 7,12.0014977 L7,0.998502329 Z M0,0.998502329 C0,0.44704472 0.443353176,0 1.0093689,0 L2.9906311,0 C3.54809015,0 4,0.447489426 4,0.998502329 L4,12.0014977 C4,12.5529553 3.55664682,13 2.9906311,13 L1.0093689,13 C0.451909848,13 0,12.5525106 0,12.0014977 L0,0.998502329 Z" id="Combined-Shape"></path>
        </g>
    </g>
</svg>