<?xml version="1.0" encoding="UTF-8"?>
<svg width="11px" height="13px" viewBox="0 0 11 13" version="1.1" xmlns="http://www.w3.org/2000/svg">
    <path d="M1.71529125,12.9604158 L3.52437125,12.9604158 C4.2146875,12.9604158 4.57967875,12.5954245 4.57967875,11.8971831 L4.57967875,1.09029125 C4.57967875,0.368255 4.2146875,0.035 3.52437125,0.035 L1.71529125,0.035 C1.02499125,0.035 0.66,0.39999125 0.66,1.09029125 L0.66,11.8971831 C0.66,12.5954245 1.02499125,12.9604158 1.71529125,12.9604158 Z M7.4837325,12.9604158 L9.28486625,12.9604158 C9.9831125,12.9604158 10.3401738,12.5954245 10.3401738,11.8971831 L10.3401738,1.09029125 C10.3401738,0.368255 9.9831125,0.035 9.28486625,0.035 L7.4837325,0.035 C6.78548625,0.035 6.420495,0.39999125 6.420495,1.09029125 L6.420495,11.8971831 C6.420495,12.5954245 6.78548625,12.9604158 7.4837325,12.9604158 Z"/>
</svg>