<?xml version="1.0" encoding="UTF-8"?>
<svg width="13px" height="17px" viewBox="0 0 13 17" version="1.1" xmlns="http://www.w3.org/2000/svg">
    <path d="M6.50050208,15.5176184 C10.0074258,15.5176184 12.9110595,12.6140349 12.9110595,9.10711247 C12.9110595,6.99541049 11.842614,5.09741049 10.2273961,3.92214613 C9.95086941,3.70845703 9.60519812,3.77758871 9.44807832,4.03527188 C9.29095851,4.29923623 9.37266545,4.5946194 9.63033574,4.78945207 C10.9690011,5.74473326 11.836307,7.32222534 11.842614,9.10711247 C11.8489209,12.0735451 9.46693475,14.4491986 6.50050208,14.4491986 C3.53406941,14.4491986 1.16469713,12.0735451 1.16469713,9.10711247 C1.16469713,6.56176396 2.91188426,4.44378079 5.28753772,3.9032897 L5.28753772,4.80830851 C5.28753772,5.25453029 5.59549614,5.37393722 5.94115455,5.1288293 L7.94601198,3.72103227 C8.22883277,3.5261996 8.23511396,3.22453524 7.94601198,3.01712732 L5.94743574,1.60933029 C5.59549614,1.35794118 5.28753772,1.47736099 5.28753772,1.92986396 L5.28753772,2.81601346 C2.34624267,3.38793623 0.09,6.01499168 0.09,9.10711247 C0.09,12.6140349 2.99987238,15.5176184 6.50050208,15.5176184 Z M4.63392089,11.6838798 C4.87902881,11.6838798 5.03614861,11.5141976 5.03614861,11.2502333 L5.03614861,7.28451247 C5.03614861,6.96399168 4.87273475,6.79429663 4.58992683,6.79429663 C4.41395059,6.79429663 4.2882496,6.85086594 4.06827931,7.00170455 L3.20098624,7.5861897 C3.05642881,7.69303425 2.98729713,7.80616 2.98729713,7.95070455 C2.98729713,8.1580996 3.15069812,8.33407584 3.35181198,8.33407584 C3.47751297,8.33407584 3.54036347,8.30893821 3.6597704,8.21466891 L4.2505496,7.78102237 L4.2505496,11.2502333 C4.2505496,11.5079036 4.40137535,11.6838798 4.63392089,11.6838798 Z M7.82660505,11.7593055 C8.86987436,11.7593055 9.56120406,11.0868323 9.56120406,10.0749689 C9.56120406,9.15110653 8.93900604,8.49119564 8.04028129,8.49119564 C7.66948525,8.49119564 7.26725752,8.66089069 7.07870604,8.94371148 L7.18555059,7.5861897 L9.07098822,7.5861897 C9.25324564,7.5861897 9.41036545,7.43535108 9.41036545,7.22167485 C9.41036545,7.00798574 9.25324564,6.86972237 9.07098822,6.86972237 L7.0598496,6.86972237 C6.73304762,6.86972237 6.55077733,7.05826099 6.51935851,7.39135703 L6.38109515,9.20138178 C6.35595752,9.51562138 6.51935851,9.66646 6.79588525,9.66646 C7.00329317,9.66646 7.09128129,9.62874712 7.27353871,9.49048376 C7.51235257,9.27051346 7.70718525,9.18252534 7.95229317,9.18252534 C8.44250901,9.18252534 8.76932386,9.54075901 8.76932386,10.0875442 C8.76932386,10.6406105 8.38595257,11.0428382 7.86430505,11.0428382 C7.49350901,11.0428382 7.17297535,10.8291491 7.00957436,10.5023343 C6.91530505,10.3389333 6.80217931,10.2509451 6.6450595,10.2509451 C6.43765158,10.2509451 6.29310703,10.4017838 6.29310703,10.61546 C6.29310703,10.7034481 6.31196347,10.785155 6.34338228,10.866862 C6.51307733,11.3193649 7.06614366,11.7593055 7.82660505,11.7593055 Z"/>
</svg>