<?xml version="1.0" encoding="UTF-8"?>
<svg width="13px" height="15px" viewBox="0 0 13 15" version="1.1" xmlns="http://www.w3.org/2000/svg">
    <path d="M0.0055458,7.76906 C0.0055458,8.65215867 0.175019867,9.484202 0.513968,10.26519 C0.852921333,11.0461737 1.32023667,11.7356094 1.915914,12.3334971 C2.51159133,12.9313849 3.19968133,13.3984552 3.980184,13.734708 C4.760678,14.0709573 5.59247,14.239082 6.47556,14.239082 C7.36404933,14.239082 8.19829833,14.0709573 8.978307,13.734708 C9.758307,13.3984552 10.4463927,12.9313849 11.042564,12.3334971 C11.6387613,11.7356094 12.1063367,11.0461737 12.44529,10.26519 C12.7842433,9.484202 12.95372,8.65215867 12.95372,7.76906 C12.95372,6.99101867 12.8210333,6.24991467 12.55566,5.545748 C12.2903733,4.84158133 11.9189113,4.20576867 11.441274,3.63831 C10.9636453,3.07086 10.406617,2.595203 9.770189,2.211339 C9.133761,1.82746633 8.44493,1.56190233 7.703696,1.414647 L7.703696,0.511121 C7.703696,0.288292333 7.637929,0.148533667 7.506395,0.091845 C7.374861,0.0351563333 7.22246633,0.0684103333 7.049211,0.191607 L5.022875,1.611207 C4.879069,1.71035367 4.806061,1.828151 4.803851,1.964599 C4.801641,2.10103833 4.874649,2.221531 5.022875,2.326077 L7.042581,3.744208 C7.21583633,3.868384 7.369336,3.90298567 7.50308,3.848013 C7.636824,3.793049 7.703696,3.649737 7.703696,3.418077 L7.703696,2.515942 C8.50388067,2.69659 9.21729467,3.03862 9.843938,3.542032 C10.4705813,4.04545267 10.9641913,4.661657 11.324768,5.390645 C11.685336,6.119633 11.86562,6.912438 11.86562,7.76906 C11.86562,8.51964533 11.726572,9.22052733 11.448476,9.871706 C11.17038,10.522876 10.785515,11.09563 10.293881,11.589968 C9.802247,12.0843019 9.230845,12.4702706 8.579675,12.7478741 C7.92849633,13.025477 7.22712467,13.1642784 6.47556,13.1642784 C5.72939467,13.1642784 5.029622,13.025477 4.376242,12.7478741 C3.72285333,12.4702706 3.14899433,12.0843019 2.654665,11.589968 C2.160327,11.09563 1.774357,10.522876 1.496755,9.871706 C1.219153,9.22052733 1.082068,8.51964533 1.0855,7.76906 C1.0855,6.867744 1.28874633,6.03613833 1.695239,5.274243 C2.10174033,4.51234767 2.64471567,3.888651 3.324165,3.403153 C3.45127033,3.30548833 3.53261567,3.18819367 3.568201,3.051269 C3.60377767,2.91434433 3.58156933,2.77962533 3.501576,2.647112 C3.422562,2.51558667 3.30661933,2.436694 3.153748,2.410434 C3.000868,2.38418267 2.85375567,2.42479467 2.712411,2.53227 C2.167503,2.92938533 1.69291633,3.399279 1.288651,3.941951 C0.884394333,4.484623 0.569478,5.08019633 0.343902,5.728671 C0.1183312,6.377137 0.0055458,7.05726667 0.0055458,7.76906 Z M4.622228,10.366785 C4.74590133,10.366785 4.84406,10.3271567 4.916704,10.2479 C4.98933933,10.1686347 5.025657,10.061272 5.025657,9.925812 L5.025657,5.926635 C5.025657,5.76467233 4.98688233,5.64160567 4.909333,5.557435 C4.83179233,5.47326433 4.720872,5.431179 4.576572,5.431179 C4.48823267,5.431179 4.406636,5.44676167 4.331782,5.477927 C4.25693667,5.50909233 4.163809,5.56344967 4.052399,5.640999 L3.177538,6.23012 C3.03324667,6.33416333 2.961101,6.45833067 2.961101,6.602622 C2.961101,6.70422133 2.996929,6.79440667 3.068585,6.873178 C3.140241,6.95194933 3.22686867,6.991335 3.328468,6.991335 C3.43251133,6.991335 3.53434467,6.949618 3.633968,6.866184 L4.244539,6.419881 L4.232046,6.419881 L4.232046,9.925812 C4.232046,10.061272 4.267016,10.1686347 4.336956,10.2479 C4.40688733,10.3271567 4.501978,10.366785 4.622228,10.366785 Z M7.848867,10.441912 C8.37607767,10.441912 8.79872933,10.287407 9.116822,9.978397 C9.43491467,9.669387 9.593961,9.25864333 9.593961,8.746166 C9.593961,8.275904 9.451234,7.89093067 9.16578,7.591246 C8.880326,7.29156133 8.512036,7.141719 8.06091,7.141719 C7.85963533,7.141719 7.663149,7.18860133 7.471451,7.282366 C7.279753,7.37613067 7.14069633,7.503275 7.054281,7.663799 L7.089602,7.663799 L7.198607,6.234397 L9.102886,6.234397 C9.19564533,6.234397 9.27589,6.199674 9.34362,6.130228 C9.41135,6.06077333 9.445215,5.97304067 9.445215,5.86703 C9.445215,5.756608 9.41135,5.66912667 9.34362,5.604586 C9.27589,5.54004533 9.19564533,5.507775 9.102886,5.507775 L7.072702,5.507775 C6.737484,5.507775 6.55564433,5.68421533 6.527183,6.037096 L6.390215,7.861867 C6.37696367,8.02136833 6.40861867,8.13878867 6.48518,8.214128 C6.56175,8.28946733 6.66825467,8.327137 6.804694,8.327137 C6.91070467,8.327137 6.99512233,8.31572733 7.057947,8.292908 C7.12077167,8.27008 7.19758,8.22259533 7.288372,8.150454 C7.40915067,8.04340333 7.521709,7.965698 7.626047,7.917338 C7.73037633,7.86896933 7.846371,7.844785 7.974031,7.844785 C8.222955,7.844785 8.422661,7.92775533 8.573149,8.093696 C8.72362833,8.25964533 8.798868,8.479835 8.798868,8.754265 C8.798868,9.034103 8.71172467,9.26484867 8.537438,9.446502 C8.36314267,9.62814667 8.143928,9.718969 7.879794,9.718969 C7.69518533,9.718969 7.527026,9.66962533 7.375316,9.570938 C7.223606,9.47225067 7.10431367,9.34214667 7.017439,9.180626 C6.97130633,9.096698 6.91903767,9.032647 6.860633,8.988473 C6.80222833,8.944299 6.73326767,8.922212 6.653751,8.922212 C6.54774033,8.922212 6.46221767,8.95583 6.397183,9.023066 C6.332157,9.090302 6.299644,9.17913533 6.299644,9.289566 C6.299644,9.334234 6.30405967,9.378161 6.312891,9.421347 C6.32172233,9.46454167 6.33374733,9.50478533 6.348966,9.542078 C6.437808,9.77183133 6.614036,9.979242 6.87765,10.16431 C7.141264,10.349378 7.465003,10.441912 7.848867,10.441912 Z"/>
</svg>
