<?xml version="1.0" encoding="UTF-8"?>
<svg width="13px" height="15px" viewBox="0 0 13 15" version="1.1" xmlns="http://www.w3.org/2000/svg">
    <path d="M0.0055458,7.76906 C0.0055458,8.65215867 0.175019867,9.484202 0.513968,10.26519 C0.852921333,11.0461737 1.32023667,11.7356094 1.915914,12.3334971 C2.51159133,12.9313849 3.19968133,13.3984552 3.980184,13.734708 C4.760678,14.0709573 5.59247,14.239082 6.47556,14.239082 C7.36404933,14.239082 8.19829833,14.0709573 8.978307,13.734708 C9.758307,13.3984552 10.4463927,12.9313849 11.042564,12.3334971 C11.6387613,11.7356094 12.1063367,11.0461737 12.44529,10.26519 C12.7842433,9.484202 12.95372,8.65215867 12.95372,7.76906 C12.95372,6.99101867 12.8210333,6.24991467 12.55566,5.545748 C12.2903733,4.84158133 11.9189113,4.20576867 11.441274,3.63831 C10.9636453,3.07086 10.406617,2.595203 9.770189,2.211339 C9.133761,1.82746633 8.44493,1.56190233 7.703696,1.414647 L7.703696,0.511121 C7.703696,0.288292333 7.637929,0.148533667 7.506395,0.091845 C7.374861,0.0351563333 7.22246633,0.0684103333 7.049211,0.191607 L5.022875,1.611207 C4.879069,1.71035367 4.806061,1.828151 4.803851,1.964599 C4.801641,2.10103833 4.874649,2.221531 5.022875,2.326077 L7.042581,3.744208 C7.21583633,3.868384 7.369336,3.90298567 7.50308,3.848013 C7.636824,3.793049 7.703696,3.649737 7.703696,3.418077 L7.703696,2.515942 C8.50388067,2.69659 9.21729467,3.03862 9.843938,3.542032 C10.4705813,4.04545267 10.9641913,4.661657 11.324768,5.390645 C11.685336,6.119633 11.86562,6.912438 11.86562,7.76906 C11.86562,8.51964533 11.726572,9.22052733 11.448476,9.871706 C11.17038,10.522876 10.785515,11.09563 10.293881,11.589968 C9.802247,12.0843019 9.230845,12.4702706 8.579675,12.7478741 C7.92849633,13.025477 7.22712467,13.1642784 6.47556,13.1642784 C5.72939467,13.1642784 5.029622,13.025477 4.376242,12.7478741 C3.72285333,12.4702706 3.14899433,12.0843019 2.654665,11.589968 C2.160327,11.09563 1.774357,10.522876 1.496755,9.871706 C1.219153,9.22052733 1.082068,8.51964533 1.0855,7.76906 C1.0855,6.867744 1.28874633,6.03613833 1.695239,5.274243 C2.10174033,4.51234767 2.64471567,3.888651 3.324165,3.403153 C3.45127033,3.30548833 3.53261567,3.18819367 3.568201,3.051269 C3.60377767,2.91434433 3.58156933,2.77962533 3.501576,2.647112 C3.422562,2.51558667 3.30661933,2.436694 3.153748,2.410434 C3.000868,2.38418267 2.85375567,2.42479467 2.712411,2.53227 C2.167503,2.92938533 1.69291633,3.399279 1.288651,3.941951 C0.884394333,4.484623 0.569478,5.08019633 0.343902,5.728671 C0.1183312,6.377137 0.0055458,7.05726667 0.0055458,7.76906 Z M4.734847,10.360168 C4.857541,10.360168 4.95655767,10.3205353 5.031897,10.24127 C5.10723633,10.1620047 5.144906,10.055136 5.144906,9.920664 L5.144906,5.933252 C5.144906,5.77570933 5.10502633,5.651542 5.025267,5.56075 C4.94551633,5.46994933 4.833491,5.424549 4.689191,5.424549 C4.605263,5.424549 4.52587633,5.44013167 4.451031,5.471297 C4.37618567,5.50246233 4.283058,5.55681967 4.171648,5.634369 L3.29017,6.22349 C3.15029,6.323122 3.08035,6.44729367 3.08035,6.596005 C3.08035,6.69759567 3.116178,6.78777667 3.187834,6.866548 C3.25949,6.94531933 3.34611333,6.984705 3.447704,6.984705 C3.542916,6.984705 3.64475367,6.945198 3.753217,6.866184 L4.363788,6.419881 L4.344665,6.419881 L4.344665,9.920664 C4.344665,10.055136 4.379635,10.1620047 4.449575,10.24127 C4.51950633,10.3205353 4.614597,10.360168 4.734847,10.360168 Z M8.04544,10.435282 C8.57166267,10.435282 8.99271533,10.2055503 9.308598,9.746087 C9.62448067,9.286615 9.782422,8.67619567 9.782422,7.914829 C9.782422,7.150039 9.62448067,6.536556 9.308598,6.07438 C8.99271533,5.61221267 8.57166267,5.381129 8.04544,5.381129 C7.51920867,5.381129 7.096804,5.61221267 6.778226,6.07438 C6.45963933,6.536556 6.300346,7.150039 6.300346,7.914829 C6.300346,8.67619567 6.45963933,9.286615 6.778226,9.746087 C7.096804,10.2055503 7.51920867,10.435282 8.04544,10.435282 Z M8.04544,9.671116 C7.763132,9.671116 7.53949733,9.514141 7.374536,9.200191 C7.209566,8.886241 7.127081,8.457787 7.127081,7.914829 C7.127081,7.36206033 7.208461,6.928701 7.371221,6.614751 C7.533981,6.300801 7.75872067,6.143826 8.04544,6.143826 C8.32675133,6.143826 8.549034,6.300801 8.712288,6.614751 C8.87553333,6.928701 8.957156,7.36206033 8.957156,7.914829 C8.957156,8.457787 8.87442833,8.886241 8.708973,9.200191 C8.54351767,9.514141 8.32234,9.671116 8.04544,9.671116 Z"/>
</svg>
