<?xml version="1.0" encoding="UTF-8"?>
<svg width="22px" height="15px" viewBox="0 0 22 15" version="1.1" xmlns="http://www.w3.org/2000/svg">
    <path d="M14.7046,1.01559474 C14.7046,0.499042105 14.3191158,0.075 13.7794316,0.075 C13.4016526,0.075 13.1472368,0.236905263 12.7386211,0.622389474 L9.56992632,3.61375263 C9.52367895,3.66001579 9.47741579,3.69085263 9.42344737,3.70627895 L9.10734211,3.72168947 L14.7046,9.31894737 L14.7046,1.01559474 Z M17.1794105,14.7542842 C17.4184158,14.9855684 17.7961789,14.9855684 18.0196947,14.7542842 C18.2510105,14.5152789 18.2587474,14.1452147 18.0196947,13.9139242 L4.82075263,0.714915789 C4.58946842,0.483615789 4.20398421,0.483615789 3.97268421,0.714915789 C3.74910526,0.938494737 3.74910526,1.33168421 3.97268421,1.55526316 L17.1794105,14.7542842 Z M6.83297895,10.3983 L9.13047368,10.3983 C9.20757368,10.3983 9.27696842,10.4214316 9.32321579,10.4676789 L12.7386211,13.7134705 C13.1086789,14.0604079 13.4170789,14.2146016 13.7948421,14.2146016 C14.1494895,14.2146016 14.4347579,14.0295695 14.5735316,13.7597289 C14.6043684,13.6903421 14.6352053,13.6132453 14.6583368,13.5284384 L5.54545789,4.41557368 C5.29104211,4.69312105 5.15997368,5.11714737 5.15997368,5.66453684 L5.15997368,8.64819474 C5.15997368,9.80464737 5.74592105,10.3983 6.83297895,10.3983 Z"/>
</svg>