<?xml version="1.0" encoding="UTF-8"?>
<svg width="22px" height="15px" viewBox="0 0 22 15" version="1.1" xmlns="http://www.w3.org/2000/svg">
    <path d="M15.1748895,3.90672632 L12.8696895,3.90672632 C12.7925895,3.90672632 12.7231947,3.88359474 12.6769474,3.83734737 L9.26154211,0.622389474 C8.85292632,0.236905263 8.59851053,0.075 8.22073158,0.075 C7.68104737,0.075 7.30328421,0.499042105 7.30328421,1.01559474 L7.30328421,1.90220526 L15.6837211,10.2903632 L15.8379211,10.2903632 C16.4855421,10.0976211 16.8478947,9.5271 16.8478947,8.64819474 L16.8478947,5.66453684 C16.8478947,4.50037895 16.2619474,3.90672632 15.1748895,3.90672632 Z M17.1794105,14.7542842 C17.4184158,14.9855684 17.7961789,14.9855684 18.0196947,14.7542842 C18.2510105,14.5152789 18.2587474,14.1452147 18.0196947,13.9139242 L4.82075263,0.714915789 C4.58946842,0.483615789 4.20398421,0.483615789 3.97268421,0.714915789 C3.74910526,0.938494737 3.74910526,1.33168421 3.97268421,1.55526316 L17.1794105,14.7542842 Z M12.1218368,10.9919526 L7.30328421,6.16567895 L7.30328421,13.3125663 C7.30328421,13.8291174 7.68104737,14.2146016 8.20530526,14.2146016 C8.58308421,14.2146016 8.89148421,14.0604079 9.26154211,13.7134705 L12.1218368,10.9919526 Z"/>
</svg>