<?xml version="1.0" encoding="UTF-8"?>
<svg width="22px" height="15px" viewBox="0 0 22 15" version="1.1" xmlns="http://www.w3.org/2000/svg">
    <path d="M15.0795833,14.960135 C15.6329833,14.960135 16.0398833,14.553235 16.0398833,14.0079867 L16.0398833,1.02785 C16.0398833,0.4826 15.6329833,0.035 15.0633167,0.035 C14.66455,0.035 14.396,0.2059 13.9646833,0.6128 L10.3595333,4.00636667 C10.3107167,4.05518333 10.2374667,4.0796 10.1560833,4.0796 L7.73095,4.0796 C6.5835,4.0796 5.965,4.70623333 5.965,5.93506667 L5.965,9.08448333 C5.965,10.3051833 6.5835,10.9318167 7.73095,10.9318167 L10.1560833,10.9318167 C10.2374667,10.9318167 10.3107167,10.9562333 10.3595333,11.00505 L13.9646833,14.4311633 C14.3553,14.797375 14.6808333,14.960135 15.0795833,14.960135 Z" transform="translate(11.000000, 7.500000) scale(-1, 1) translate(-11.000000, -7.500000)"/>
</svg>