<?xml version="1.0" encoding="UTF-8"?>
<svg width="22px" height="15px" viewBox="0 0 22 15" version="1.1" xmlns="http://www.w3.org/2000/svg">
    <path d="M18.722449,14.8400398 C18.9990306,15.0268816 19.3653061,14.9521418 19.5820408,14.6457285 C20.9646429,12.6950918 21.7493878,10.1689785 21.7493878,7.50087649 C21.7493878,4.83277445 20.9421429,2.31413669 19.5820408,0.356024448 C19.3653061,0.0421264886 18.9990306,-0.0326133073 18.722449,0.161713223 C18.4385204,0.363493836 18.3936735,0.729708121 18.6104082,1.04360608 C19.8136224,2.81487649 20.5610204,5.08687139 20.5610204,7.50087649 C20.5610204,9.91488159 19.8436224,12.2242494 18.6104082,13.9581454 C18.3936735,14.2720418 18.4385204,14.6382591 18.722449,14.8400398 Z M8.6330051,14.361725 C9.14121429,14.361725 9.50742857,13.9880413 9.50742857,13.487303 L9.50742857,1.56676935 C9.50742857,1.06602955 9.14121429,0.654968325 8.61806633,0.654968325 C8.25185204,0.654968325 8.00522449,0.811917305 7.60911735,1.18560098 L4.29826531,4.30214179 C4.24594898,4.34697343 4.18616327,4.3693969 4.11142347,4.3693969 L1.87679082,4.3693969 C0.822994898,4.3693969 0.255,4.94487649 0.255,6.0733969 L0.255,8.96571833 C0.255,10.0867693 0.822994898,10.6622489 1.87679082,10.6622489 L4.11142347,10.6622489 C4.18616327,10.6622489 4.24594898,10.6846724 4.29826531,10.729504 L7.60911735,13.8759347 C7.96784694,14.2122515 8.26680612,14.361725 8.6330051,14.361725 Z M15.7106633,12.7997235 C16.0020918,12.9940397 16.3608673,12.9193026 16.570102,12.6203551 C17.5565816,11.2451979 18.1320918,9.41414179 18.1320918,7.50087649 C18.1320918,5.58014179 17.5715816,3.74160098 16.570102,2.37392241 C16.3533673,2.08244792 16.0020918,2.00770812 15.7106633,2.20203465 C15.4265816,2.39634588 15.3817347,2.76256016 15.6059694,3.08392751 C16.4205612,4.27971833 16.9288776,5.84919282 16.9288776,7.50087649 C16.9288776,9.15256016 16.4280612,10.7369887 15.6059694,11.9178285 C15.3892347,12.2391959 15.4265816,12.6054071 15.7106633,12.7997235 Z M12.7285867,10.7818204 C12.982699,10.9611928 13.3489133,10.9088765 13.565648,10.6099326 C14.1485204,9.82518771 14.4997959,8.67424384 14.4997959,7.50087649 C14.4997959,6.32750914 14.1485204,5.18403465 13.565648,4.39182037 C13.3489133,4.09287649 12.9901684,4.04056016 12.7285867,4.21244792 C12.4072194,4.4366673 12.3623878,4.81782037 12.6015459,5.13918771 C13.0350153,5.72213669 13.2965969,6.61149894 13.2965969,7.50087649 C13.2965969,8.39023873 13.0200612,9.27961628 12.5940612,9.87003465 C12.3698571,10.191402 12.4072194,10.5576163 12.7285867,10.7818204 Z" transform="translate(11.000000, 7.500000) scale(-1, 1) translate(-11.000000, -7.500000)"/>
</svg>