<?xml version="1.0" encoding="UTF-8"?>
<svg version="1.1" xmlns="http://www.w3.org/2000/svg" width="15" height="15" viewBox="0 0 78 78">
   <path transform="matrix(1 0 0 1 -12 74)" d="M13.7207 2.24609Q14.5996 3.07617 15.7227 3.36914Q16.8457 3.66211 17.9688 3.36914Q19.0918 3.07617 19.9219 2.24609L51.1719-29.0039L82.4219 2.24609Q83.252 3.07617 84.375 3.36914Q85.498 3.66211 86.6455 3.39355Q87.793 3.125 88.623 2.24609Q89.4531 1.41602 89.7217 0.292969Q89.9902-0.830078 89.7217-1.95312Q89.4531-3.07617 88.623-3.90625L57.373-35.2051L88.623-66.4551Q89.4531-67.2852 89.7461-68.4082Q90.0391-69.5312 89.7461-70.6543Q89.4531-71.7773 88.623-72.6074Q87.7441-73.4863 86.6211-73.7549Q85.498-74.0234 84.375-73.7549Q83.252-73.4863 82.4219-72.6074L51.1719-41.3574L19.9219-72.6074Q19.0918-73.4863 17.9443-73.7549Q16.7969-74.0234 15.6738-73.7549Q14.5508-73.4863 13.7207-72.6074Q12.8906-71.7773 12.6221-70.6543Q12.3535-69.5312 12.6221-68.4082Q12.8906-67.2852 13.7207-66.4551L44.9707-35.2051L13.7207-3.90625Q12.8906-3.07617 12.5977-1.95312Q12.3047-0.830078 12.5732 0.292969Q12.8418 1.41602 13.7207 2.24609Z"/>
</svg>
