<!-- Copyright © 2020 Apple Inc. All rights reserved. -->
<svg xmlns="http://www.w3.org/2000/svg" xmlns:xlink="http://www.w3.org/1999/xlink" version="1.1" width="100"
    height="400">
    <style>
        svg { color: white; }
    </style>
    
    <defs>
        
        <symbol id="twitter">
            <path d="M 81.812 30.141 C 79.464 31.18 76.943 31.884 74.293 32.201 C 76.996 30.581 79.071 28.014 80.049 24.957 C 77.52 26.457 74.719 27.549 71.736 28.133 C 69.349 25.591 65.948 24 62.182 24 C 54.953 24 49.09 29.861 49.09 37.093 C 49.09 38.119 49.208 39.114 49.428 40.074 C 38.543 39.526 28.9 34.317 22.441 26.395 C 21.315 28.331 20.67 30.579 20.67 32.976 C 20.67 37.518 22.982 41.527 26.494 43.874 C 24.348 43.805 22.329 43.217 20.564 42.236 C 20.562 42.291 20.562 42.346 20.562 42.398 C 20.562 48.743 25.075 54.036 31.066 55.238 C 29.965 55.536 28.81 55.695 27.617 55.695 C 26.771 55.695 25.95 55.617 25.152 55.464 C 26.819 60.664 31.651 64.45 37.382 64.554 C 32.9 68.066 27.253 70.16 21.122 70.16 C 20.067 70.16 19.026 70.099 18 69.976 C 23.794 73.693 30.676 75.858 38.067 75.858 C 62.15 75.858 75.318 55.909 75.318 38.609 C 75.318 38.043 75.304 37.475 75.279 36.915 C 77.838 35.068 80.058 32.765 81.812 30.141 L 81.812 30.141 Z" fill="currentColor"/>
        </symbol>

        <symbol id="reply">
            <path d="M 38.3020404 47.8542775 L 34.8980705 51.5166522 L 19.231132 36.9551203 L 34.6484605 20.4499969 L 38.302351 23.8630723 L 28.7868053 34.050003 L 70.4483126 34.050003 C 76.1495533 34.050003 80.7688667 38.6674478 80.7688667 44.370557 L 80.768868 79.5500029 L 75.768868 79.5500031 L 75.7688667 44.3705571 C 75.7688667 41.4293245 73.3885824 39.050003 70.4483126 39.050003 L 28.837205 39.050003 L 38.3020404 47.8542775 Z" fill="currentColor"/>
        </symbol>

        <symbol id="retweet">
            <path d="M 6.62115213 44.0860477 L 2.90704329 40.7386016 L 21.182056 20.4618342 L 41.9727366 40.4891625 L 38.5039285 44.090186 L 24.107044 30.2218987 L 24.107044 66.8576043 C 24.107044 70.7091434 27.2244324 73.8252707 31.0747104 73.8252707 L 66.607044 73.8252707 L 66.607044 78.8252707 L 31.0747104 78.8252707 C 24.4634614 78.8252707 19.107044 73.4710201 19.107044 66.8576043 L 19.107044 30.2325128 L 6.62115213 44.0860477 Z" fill="currentColor"/>
            <path d="M 93.4849846 57.0204941 L 97.0929567 60.4820742 L 78.8100584 79.5381658 L 58.0270441 60.7315523 L 61.3818985 57.0241338 L 75.8770445 70.140836 L 75.8770445 34.0229366 C 75.8770445 30.1713975 72.7596561 27.0552702 68.9093781 27.0552702 L 35.607044 27.0552702 L 35.607044 22.0552702 L 68.9093781 22.0552702 C 75.5206271 22.0552702 80.8770445 27.4095208 80.8770445 34.0229366 L 80.8770445 70.1616305 L 93.4849846 57.0204941 Z" fill="currentColor"/>
        </symbol>
        
        <symbol id="favorite">
            <path d="M 25.2947401 27.7278335 C 34.6110304 16.908572 46.1630367 29.7374149 49.6931294 33.1935192 C 53.4878214 29.7374151 64.7866342 17.7659811 74.0915188 27.7278335 C 90.8907207 45.7131368 49.6931294 76.5246123 49.6931294 76.5246123 C 49.6931294 76.5246123 9.80788797 45.7131364 25.2947401 27.7278335 Z" stroke="currentColor" stroke-width="5" fill="none"/>            
        </symbol>

    </defs>

    <use y="0" xlink:href="#twitter"/>
    <use y="100" xlink:href="#reply"/>
    <use y="200" xlink:href="#retweet"/>
    <use y="300" xlink:href="#favorite"/>
        
</svg>