<!-- Copyright © 2020 Apple Inc. All rights reserved. -->
<svg xmlns="http://www.w3.org/2000/svg" width="2002" height="2002" xmlns:xlink="http://www.w3.org/1999/xlink">
  <defs>
    <path id="a" d="M1001,2001.11124 C1553.34618,2001.11124 2001.11124,1553.34618 2001.11124,1001 C2001.11124,448.653815 1553.34618,0.888762275 1001,0.888762275 C448.653815,0.888762275 0.888762275,448.653815 0.888762275,1001 C0.888762275,1553.34618 448.653815,2001.11124 1001,2001.11124 Z M1001,1420.1898 C1232.51213,1420.1898 1420.1898,1232.51213 1420.1898,1001 C1420.1898,769.487869 1232.51213,581.810204 1001,581.810204 C769.487869,581.810204 581.810204,769.487869 581.810204,1001 C581.810204,1232.51213 769.487869,1420.1898 1001,1420.1898 Z"/>
  </defs>
  <g fill="none" fill-rule="evenodd">
    <mask id="b" fill="white">
      <use xlink:href="#a"/>
    </mask>
    <use stroke="#979797" xlink:href="#a"/>
    <ellipse cx="1001" cy="1001" stroke="#979797" mask="url(#b)" rx="715.551" ry="715.551"/>
    <ellipse cx="1001" cy="1001" stroke="#979797" mask="url(#b)" rx="715.551" ry="715.551"/>
    <path stroke="#979797" d="M46.9325334 996.5L1955.06747 996.5M996.5 46.9325334L996.5 1955.06747M996.5 46.9325334L996.5 1955.06747M1247.93083 79.441594L754.069169 1922.55841M1478.03373 174.753337L523.966267 1827.24666M1675.62758 326.372425L326.372425 1675.62758M1827.24666 523.966267L174.753337 1478.03373M1922.55841 754.069169L79.441594 1247.93083M754.069169 79.441594L1247.93083 1922.55841M523.966267 174.753337L1478.03373 1827.24666M326.372425 326.372425L1675.62758 1675.62758M174.753337 523.966267L1827.24666 1478.03373M79.441594 754.069169L1922.55841 1247.93083" stroke-linecap="square" mask="url(#b)"/>
    <ellipse cx="1001" cy="1001" stroke="#979797" mask="url(#b)" rx="569.207" ry="569.207"/>
    <ellipse cx="1001" cy="1001" stroke="#979797" mask="url(#b)" rx="976.838" ry="976.838"/>
  </g>
</svg>
