<?xml version="1.0" encoding="utf-8"?>
<!-- Copyright © 2017 Apple Inc. All rights reserved. -->
<svg xmlns="http://www.w3.org/2000/svg" viewBox="0 0 1450 1450">
    <path d="M 725.000002 1447.03875 L 725.000002 1447.03875 C 1123.60498 1447.03875 1446.73816 1123.77099 1446.73816 725.000001 C 1446.73816 326.229011 1123.60498 2.96125272 725.000002 2.96125272 C 326.395019 2.96125272 3.26183556 326.229011 3.26183556 725.000001 C 3.26183556 1123.77099 326.395019 1447.03875 725.000002 1447.03875 L 725.000002 1447.03875 L 725.000002 1447.03875 Z" stroke="white" fill-rule="evenodd" fill="none"/>
    <path d="M 562.84813 953.349909 C 591.496191 973.66411 624.145787 988.769366 659.394813 997.273047 L 725.961517 1208.84553 L 792.526922 997.27345 C 894.269986 972.728938 974.355877 893.184104 999.067337 792.12841 L 1212.07851 726.012715 L 1011.32358 663.700093 L 933.715581 733.260552 C 930.013119 843.927177 837.732412 932.850162 726.199411 932.457112 C 697.365092 932.72906 670.753732 926.587741 646.277521 916.690383 L 562.84813 953.349909 L 562.84813 953.349909 Z M 889.619426 498.977454 C 842.353604 465.376331 792.401124 454.619626 792.401124 454.619626 L 725.958556 243.17696 L 659.39315 454.749041 C 557.650085 479.293552 477.564195 558.838386 452.852735 659.894081 L 239.841563 726.009774 C 239.841563 726.009774 377.336053 768.686895 446.083297 790.025455 L 518.105575 724.21539 C 518.88254 610.97766 611.15129 520.230613 725.878523 519.678486 C 754.311916 517.820405 800.376259 531.70741 805.735165 535.334966 C 805.735159 535.334967 889.619426 498.977454 889.619426 498.977454 L 889.619426 498.977454 Z M 671.674231 642.356546 L 251.789169 1022.45099 L 774.594196 802.423012 L 1196.69162 426.027748 L 671.674231 642.356546 L 671.674231 642.356546 Z M 345.571131 962.390058 L 764.145471 786.333744 L 681.887232 657.993607 L 345.571131 962.390058 L 345.571131 962.390058 Z" stroke="white" fill-rule="evenodd" fill="none"/>
    <path d="M 725.493385 86.2657049L 725.493385 22.8266657M 725.480154 1366.46552L 725.480154 1429.90456M 1368.62174 725L 1431.15002 725M 86.6488 725L 23.1218951 725M 1365.5407 663.680439L 1428.76225 657.467835 1365.5407 663.680439zM 89.6676327 788.419442L 26.446084 794.632045 89.6676327 788.419442zM 1356.30537 601.488314L 1418.61162 589.111972 1356.30537 601.488314zM 98.8412405 850.620707L 36.5349872 862.997049 98.8412405 850.620707zM 1341.00484 540.500963L 1401.79469 522.080284 1341.00484 540.500963zM 114.08124 911.623201L 53.291392 930.04388 114.08124 911.623201zM 1319.82955 481.409982L 1378.52076 457.132913 1319.82955 481.409982zM 135.197883 970.73514L 76.5066757 995.012209 135.197883 970.73514zM 1292.96124 424.673869L 1348.98958 394.773795 1292.96124 424.673869zM 162.009891 1027.49784L 105.98155 1057.39792 162.009891 1027.49784zM 1260.59604 370.745157L 1313.41673 335.500315 1260.59604 370.745157zM 194.321562 1081.45859L 141.500871 1116.70343 194.321562 1081.45859zM 1223.08903 320.247351L 1272.19247 279.997771M 231.778463 1131.99352L 182.675018 1172.2431M 1180.88115 273.746627L 1225.80146 228.888452 1180.88115 273.746627zM 273.940188 1178.53601L 229.019882 1223.39419 273.940188 1178.53601zM 1134.31602 231.597131L 1174.62135 182.561603 1134.31602 231.597131zM 320.463486 1220.73159L 280.158159 1269.76712 320.463486 1220.73159zM 1083.74827 194.14199L 1119.04193 141.394357 1083.74827 194.14199zM 370.994061 1258.23678L 335.700404 1310.98442 370.994061 1258.23678zM 790.407264 89.3424882L 796.628473 26.2083829 790.407264 89.3424882zM 664.231062 1363.32661L 658.009854 1426.46071 664.231062 1363.32661zM 1029.74487 161.821563L 1059.68636 105.870716 1029.74487 161.821563zM 424.96539 1290.61066L 395.023903 1346.56151 424.96539 1290.61066zM 972.930174 134.990409L 997.240868 76.3803791 972.930174 134.990409zM 481.753456 1317.49804L 457.442762 1376.10807 481.753456 1317.49804zM 913.650293 113.811979L 932.085875 53.1029969M 541.012318 1338.73514L 522.576736 1399.44412M 852.685528 98.5650451L 865.079012 36.3449692 852.685528 98.5650451zM 601.961951 1354.04241L 589.568467 1416.26249 601.961951 1354.04241zM 790.407264 1363.38873L 796.628473 1426.52284M 665.495493 89.2803621L 659.274285 26.1462568M 852.685528 1354.16618L 865.079012 1416.38625M 603.208076 98.4412817L 590.814592 36.2212058M 913.757349 1338.88681L 932.203541 1399.59258M 542.121091 113.660203L 523.674899 52.9544344M 972.930174 1317.74081L 997.240868 1376.35084M 482.92728 134.747638L 458.616586 76.1376084M 1029.74487 1290.90966L 1059.68636 1346.86051M 426.085956 161.522562L 396.14447 105.571715M 1083.74827 1258.58923L 1119.04193 1311.33686M 372.050475 193.789542L 336.756817 141.041908M 1134.31602 1221.13409L 1174.62135 1270.16962M 321.445555 231.194635L 281.140228 182.159107M 1180.88115 1178.9846L 1225.80146 1223.84277M 274.838594 273.298045L 229.918288 228.43987M 1223.08903 1132.48387L 1272.19247 1172.73345M 232.584569 319.756996L 183.481125 279.507416M 1260.59604 1081.98606L 1313.41673 1117.23091M 195.027435 370.217681L 142.206744 334.972839M 1365.5407 789.050783L 1428.76225 795.263386M 89.7920568 663.049098L 26.5705082 656.836494M 1292.96124 1028.05735L 1348.98958 1057.95743M 162.608721 424.11436L 106.580379 394.214287M 1319.82955 971.32124L 1378.52076 995.598309M 135.684097 480.823882L 76.9928895 456.546812M 1341.03731 912.123351L 1401.83038 930.533434M 114.417583 540.000781L 53.6245161 521.590698M 1356.30537 851.242908L 1418.61162 863.61925M 99.0891102 600.866113L 36.7828569 588.489771" stroke="white" fill-rule="evenodd" fill="none"/>
</svg>
