<?xml version="1.0" encoding="utf-8"?>
<!-- Copyright © 2018 Apple Inc. All rights reserved. -->
<svg xmlns="http://www.w3.org/2000/svg" viewBox="0 0 20 20">
    <path fill="hsl(240, 2.3%, 56.7%)" fill-rule="evenodd" d="M 10 20 C 15.5228462 20 20 15.5228477 20 10 C 20 4.47715385 15.5228462 0 10 0 C 4.47715231 0 0 4.47715385 0 10 C 0 15.5228477 4.47715231 20 10 20 L 10 20 L 10 20 Z M 10 17.9985352 C 14.4174688 17.9985352 17.9985352 14.4174688 17.9985352 10 C 17.9985352 5.58253119 14.4174688 2.00146484 10 2.00146484 C 5.58253119 2.00146484 2.00146484 5.58253119 2.00146484 10 C 2.00146484 14.4174688 5.58253119 17.9985352 10 17.9985352 L 10 17.9985352 L 10 17.9985352 Z M 8.35454673 15 L 8.35454673 13 L 11.610756 13 L 11.610756 15 L 8.35454673 15 Z M 6.29802601 12 L 6.29802601 10 L 13.6980874 10 L 13.6980874 12 L 6.29802601 12 Z M 4.49986963 9 L 4.49986963 7 L 15.5110923 7 L 15.5110923 9 L 4.49986963 9 Z"/>
</svg>
