<?xml version="1.0" encoding="utf-8"?>
<!-- Copyright © 2015 Apple Inc. All rights reserved. -->
<svg xmlns="http://www.w3.org/2000/svg" xmlns:xlink="http://www.w3.org/1999/xlink" version="1.1" width="48"
    height="528">
    <style>
        svg,symbol { color: white; }
    </style>
    
    <defs>
        
        <symbol id="compass">
            <path d="M 24 45.7600002 L 24 45.7600002 C 36.0177159 45.7600002 45.7599999 36.0177161 45.7599999 24.0000001 C 45.7599999 11.9822838 36.0177159 2.24000001 24 2.24000001 C 11.9822838 2.24000001 2.23999999 11.9822838 2.23999999 24.0000001 C 2.23999999 36.0177161 11.9822838 45.7600002 24 45.7600002 L 24 45.7600002 L 24 45.7600002 L 24 45.7600002 Z M 24 48 L 24 48 C 10.745166 48 8.52651283e-14 37.254834 8.52651283e-14 24.0000001 C 8.52651283e-14 10.745166 10.745166 0 24 0 C 37.254834 0 48 10.745166 48 24.0000001 C 48 37.254834 37.254834 48 24 48 L 24 48 L 24 48 L 24 48 Z" fill="currentColor"/>
            <path d="M 19.2141787 30.7527044 C 20.0566026 31.3582067 21.0164459 31.8087988 22.052466 32.0629879 L 24.0150243 38.3621108 L 25.9644157 32.0671275 C 28.9532689 31.3397602 31.304042 28.97474 32.0270276 25.9677724 L 38.2840894 24.0065666 L 32.38318 22.1457238 L 30.1049072 24.2136546 C 29.9995478 27.5073249 27.2907334 30.1510903 24.0134391 30.1359337 C 23.1661809 30.1431339 22.3840431 29.959524 21.6645278 29.6641888 L 19.2141787 30.7527044 L 19.2141787 30.7527044 L 19.2141787 30.7527044 Z M 28.8019182 17.2563866 C 27.4120183 16.2548466 25.9438825 15.9331447 25.9438825 15.9331447 L 23.9849759 9.63788916 L 22.0355845 15.9328727 C 19.0467312 16.6602398 16.695958 19.0252601 15.9729726 22.0322277 L 9.71591065 23.9934336 C 9.71591065 23.9934336 13.7573684 25.2679011 15.7780972 25.9051349 L 17.8923556 23.9486543 C 17.9116726 20.5783691 20.6200789 17.8803136 23.9912031 17.8674375 C 24.8266313 17.8130168 26.1806153 18.2277657 26.3381938 18.3358993 C 26.3381937 18.3358993 28.8019182 17.2563866 28.8019182 17.2563866 L 28.8019182 17.2563866 L 28.8019182 17.2563866 Z" fill="currentColor"/>
            <path d="M 22.4528571 21.5612813 L 10.1267612 32.8610634 L 25.4820204 26.3285511 L 37.8732388 15.1389366 L 22.4528571 21.5612813 L 22.4528571 21.5612813 L 22.4528571 21.5612813 Z" fill="currentColor"/>
        </symbol>

        <symbol id="performance">
            <path d="M 24 45.76 L 24 45.76 C 36.0177161 45.76 45.76 36.0177162 45.76 24 C 45.76 11.9822838 36.0177161 2.24 24 2.24 C 11.9822838 2.24 2.24 11.9822838 2.24 24 C 2.24 36.0177162 11.9822838 45.76 24 45.76 L 24 45.76 L 24 45.76 L 24 45.76 Z M 24 48 L 24 48 C 10.745166 48 -1.77635684e-14 37.254834 -1.77635684e-14 24 C -1.77635684e-14 10.745166 10.745166 2.84217094e-14 24 2.84217094e-14 C 37.254834 2.84217094e-14 48 10.745166 48 24 C 48 37.254834 37.254834 48 24 48 L 24 48 L 24 48 L 24 48 Z" fill="currentColor"/>
            <path d="M 25.4586474 22.9633529 L 36.6273818 12.9367924 L 19.3784717 20.0882179 L 22.54035 25.0378408 L 11.3720064 35.0646845 L 28.6179627 27.9103051 L 25.4586474 22.9633529 L 25.4586474 22.9633529 Z" fill="currentColor"/>
        </symbol>

        <symbol id="inspector">
            <path d="M 28.5 25.5 L 48 25.5 L 48 23 L 28.5 23 L 28.5 25.5" fill="currentColor"/>
            <path d="M 23 28.5 L 23 48 L 25.5 48 L 25.5 28.5 L 23 28.5" fill="currentColor"/>
            <path d="M 0 25.5 L 19.5 25.5 L 19.5 23 L 5.99520433e-15 23 L 0 25.5" fill="currentColor"/>
            <path d="M 23 0 L 23 19.5 L 25.5 19.5 L 25.5 0 L 23 0" fill="currentColor"/>
            <circle stroke="currentColor" fill="none" stroke-width="2.5" cx="24" cy="24" r="18"/>
        </symbol>
        
        <symbol id="script">
            <path d="M 11.4057939 18.0146224 C 12.1528885 17.323319 13.14598 16.88131 14.2562501 16.88131 C 16.6587038 16.88131 18.5125003 18.9853621 18.5125003 21.1375602 C 18.5125003 21.1375602 20.178953 19.4758651 21.0121793 18.6450175 C 23.6138782 16.0507463 28.817276 10.8622038 28.817276 10.8622038 C 28.817276 10.8622038 39.1931445 22.2383022 39.5748423 22.7381568 C 40.0895548 23.4122017 41.2154452 24.6437363 41.2154452 26.8207002 C 41.2154452 27.9043457 40.7691081 28.9601004 40.0240604 29.7480538 C 39.2725506 30.5428415 23.5041804 46.2228621 24.256517 45.5146369 C 25.0871144 44.7325638 25.6062505 43.6260296 25.6062505 42.4188109 C 25.6062505 40.105895 24.4995839 38.9998346 23.9516194 38.3444074 C 23.9377433 38.32781 23.4369464 37.7753288 22.6469581 36.9043367 L 17.0937502 42.4188109 C 17.0937502 44.7694729 18.9993383 46.675061 21.3500004 46.675061 C 22.4737422 46.675061 23.4957691 46.2309411 24.256517 45.5146369 L 24.256517 45.5146368 C 24.2567055 45.5144594 24.256895 45.5142809 24.2570855 45.5141014 C 25.0873513 44.7320588 25.6062505 43.6257541 25.6062505 42.4188109 C 25.6062505 40.105895 24.4995839 38.9998346 23.9516194 38.3444074 C 23.4036549 37.6889802 12.6902909 25.9456715 11.9591809 25.1002579 C 11.2280709 24.2548443 10 23.3242225 10 21.1375602 C 10 19.9614421 10.5362909 18.819193 11.4057939 18.0146224 C 10.5362926 18.8191912 26.254167 3.0662162 27.2247918 2.26492532 C 27.9645636 1.65421303 28.8917931 1.2750595 29.8625007 1.2750595 C 32.1068344 1.2750595 34.1634331 3.37253043 34.1634331 5.53130965 L 18.5125003 21.1375602 C 18.5125003 18.9853621 16.6587038 16.88131 14.2562501 16.88131 C 13.1459801 16.88131 12.1528886 17.323319 11.405794 18.0146222 Z" stroke="currentColor" stroke-width="2.5" fill="none"/>            
        </symbol>

        <symbol id="style">
            <path d="M 34.3509426 18.7507162 C 32.564454 17.6916021 31.096954 15.1643395 31.0728076 13.0728197 L 30.9858202 5.538126 C 30.9618449 3.46142442 32.3778969 2.62894951 34.1771329 3.69562079 L 40.6588754 7.538301 C 42.445364 8.597415 43.912864 11.1246777 43.9370104 13.2161974 L 44.0239979 20.7508912 C 44.0479731 22.8275927 42.6319212 23.6600677 40.8326851 22.5933964 L 34.3509426 18.7507162 L 34.3509426 18.7507162 L 34.3509426 18.7507162 Z" stroke="currentColor" stroke-width="2.5" fill="none"/>
            <path d="M 22.3883659 25.2906441 C 20.6046264 24.23316 19.1392369 21.6969806 19.1152755 19.6214854 L 18.9412495 4.54767084 C 18.9173111 2.47416506 20.3422003 1.64950223 22.1276511 2.70800103 L 35.0949445 10.3956191 C 36.8786839 11.4531034 38.3440734 13.9892828 38.3680349 16.064778 L 38.5420608 31.1385925 C 38.5659993 33.2120983 37.14111 34.0367611 35.3556591 32.9782623 L 22.3883659 25.2906441 L 22.3883659 25.2906441 L 22.3883659 25.2906441 Z" stroke="currentColor" stroke-width="2.5" fill="none"/>
            <path d="M 8.57225363 34.8880373 C 6.19393433 33.4780584 4.24008165 30.0964858 4.2081331 27.3291589 L 3.97609854 7.2307395 C 3.94418061 4.46606514 5.84403281 3.36651469 8.224634 4.77784643 L 25.5143585 15.0280039 C 27.8926778 16.4379829 29.8465304 19.8195554 29.8784789 22.5868824 L 30.1105135 42.6853018 C 30.1424314 45.4499761 28.2425793 46.5495265 25.861978 45.1381948 L 8.57225363 34.8880373 L 8.57225363 34.8880373 L 8.57225363 34.8880373 Z" stroke="currentColor" stroke-width="2.5" fill="none"/>       
        </symbol>
        
        <symbol id="standards">
            <path d="M 8.20156221 41.7446204 L 4.60455725 1.39999998 L 44.1294427 1.39999998 L 40.5286241 41.7383005 L 24.34281 46.2255399 L 8.20156221 41.7446204 Z" stroke="currentColor" stroke-width="2.5" fill="none"/>
            <path d="M 42.0710239 24.0177617 C 39.1538386 16.9070258 32.1617573 11.8990479 24 11.8990479 C 16.3635634 11.8990479 9.75107907 16.2831086 6.54212676 22.6716502" stroke="currentColor" stroke-width="2.5" fill="none"/>
            <path d="M 30.9761247 44.4830419 C 32.2260967 41.0462637 32.9749756 36.6675422 32.9749756 31.8990479 C 32.9749756 20.8533529 28.9567421 11.8990479 24 11.8990479 C 19.0432579 11.8990479 15.0250244 20.8533529 15.0250244 31.8990479 C 15.0250244 36.5317055 15.7318455 40.7964804 16.9182797 44.1870585 L 16.9182797 44.1870585" stroke="currentColor" stroke-width="2.5" fill="none"/>
            <path d="M 6.58618164 23.392334 C 6.58618164 25.4881886 14.5338788 27.1872144 24.3378601 27.1872144 C 34.1418414 27.1872144 42.0895386 25.4881886 42.0895386 23.392334" stroke="currentColor" stroke-width="2.5" fill="none"/>
            <path d="M 7.57792629 35.5492537 C 10.9596878 37.443268 17.049483 38.7070228 24 38.7070228 C 31.5250917 38.7070228 38.041274 37.2256916 41.204187 35.0669761" stroke="currentColor" stroke-width="2.5" fill="none"/>
            <path d="M 24.25 12.9990234 L 24.25 45" stroke="currentColor" stroke-width="2.5" fill="none"/>
        </symbol>
        
        
        <symbol id="contribute">
            <path d="M 24 45.76 L 24 45.76 C 36.0177161 45.76 45.76 36.0177162 45.76 24 C 45.76 11.9822838 36.0177161 2.24 24 2.24 C 11.9822838 2.24 2.24 11.9822838 2.24 24 C 2.24 36.0177162 11.9822838 45.76 24 45.76 L 24 45.76 L 24 45.76 L 24 45.76 Z M 24 48 L 24 48 C 10.745166 48 -1.77635684e-14 37.254834 -1.77635684e-14 24 C -1.77635684e-14 10.745166 10.745166 2.84217094e-14 24 2.84217094e-14 C 37.254834 2.84217094e-14 48 10.745166 48 24 C 48 37.254834 37.254834 48 24 48 L 24 48 L 24 48 L 24 48 Z" fill="currentColor"/>
            <path d="M 29.4897098 23.3065925 L 26.2706917 20.9393745 L 26.6482584 24.3031351 L 28.4802897 29.4247528 L 29.4897098 33.8205977 L 30.4989581 29.4247528 L 32.3309894 24.3031351 L 32.7087278 20.9393745 L 29.4897098 23.3065925 Z M 18.8503641 23.3065925 L 15.631346 20.9393745 L 16.0090845 24.3031351 L 17.8411157 29.4247528 L 18.8503641 33.8205977 L 19.8597841 29.4247528 L 21.6916437 24.3031351 L 22.0693821 20.9393745 L 18.8503641 23.3065925 Z M 37.2876041 24.3031351 L 39.1196354 29.4247528 L 40.3400738 34.740219 L 38.3454433 35 L 36.6368638 29.562799 C 36.6368638 29.562799 34.8092967 25.6310573 34.8092967 25.4866582 C 34.8092967 25.6310573 32.9819013 29.562799 32.9819013 29.562799 L 31.2733218 35 L 29.4897098 34.7676909 L 27.7060977 35 L 25.9975182 29.562799 C 25.9975182 29.562799 24.1701228 25.6310573 24.1701228 25.4866582 C 24.1701228 25.6310573 22.3425557 29.562799 22.3425557 29.562799 L 20.6339762 35 L 18.8503641 34.7676909 L 17.066752 35 L 15.3581725 29.562799 C 15.3581725 29.562799 13.5307771 25.6310573 13.5307771 25.4866582 C 13.5307771 25.6310573 11.7033817 29.562799 11.7033817 29.562799 L 9.9946305 35 L 8 34.740219 L 9.22043846 29.4247528 L 11.0524697 24.3031351 L 11.4302081 20.9393745 L 8.21101841 23.3065925 L 8.21101841 21.228001 L 11.6719607 18.326455 L 12.3810787 18.2218901 L 12.3810787 17.9233051 C 11.4619725 17.51054 10.825655 16.6183906 10.825655 15.5839024 C 10.825655 14.156738 12.0368217 13 13.5307771 13 C 15.0247325 13 16.2358992 14.156738 16.2358992 15.5839024 C 16.2358992 16.6183906 15.5995817 17.51054 14.6804755 17.9233051 L 14.6804755 18.2218901 L 15.3895935 18.326455 L 18.8503641 21.228001 L 22.3113064 18.326455 L 23.0204244 18.2218901 L 23.0204244 17.9233051 C 22.1013182 17.51054 21.4650007 16.6183906 21.4650007 15.5839024 C 21.4650007 14.156738 22.6761674 13 24.1701228 13 C 25.6640782 13 26.8750732 14.156738 26.8750732 15.5839024 C 26.8750732 16.6183906 26.2387556 17.51054 25.3198211 17.9233051 L 25.3198211 18.2218901 L 26.0289391 18.326455 L 29.4897098 21.228001 L 32.9504804 18.326455 L 33.6595984 18.2218901 L 33.6595984 17.9233051 C 32.7406639 17.51054 32.1043463 16.6183906 32.1043463 15.5839024 C 32.1043463 14.156738 33.3153413 13 34.8092967 13 C 36.3034238 13 37.5142471 14.156738 37.5144188 15.5839024 C 37.5144188 16.6183906 36.8781013 17.51054 35.9591668 17.9233051 L 35.9591668 18.2218901 L 36.6682848 18.326455 L 40.1290554 21.228001 L 40.1290554 23.3065925 L 36.9100374 20.9393745 L 37.2876041 24.3031351 Z" fill="currentColor"/>
        </symbol>
        
        <symbol id="storage">
                <path d="M 39.9236499 31.5126111 C 41.869091 32.6498521 43 34.0625041 43 35.6923077 C 43 40.1632127 34.4896382 43 24 43 C 13.5103618 43 5 40.1632127 5 35.6923077 C 5 34.0625041 6.130909 32.6498521 8.07635005 31.5126111 C 9.14708175 31.9858647 10.3798534 32.4104194 11.7445378 32.7755154 C 9.22593316 33.7562269 7.92307692 34.9214488 7.92307692 35.6923077 C 7.92307692 36.4947878 9.3350136 37.7246485 12.0606138 38.728817 C 15.168606 39.8738668 19.433505 40.5384615 24 40.5384615 C 28.566495 40.5384615 32.831394 39.8738668 35.9393862 38.728817 C 38.6649864 37.7246485 40.0769231 36.4947878 40.0769231 35.6923077 C 40.0769231 34.9214488 38.7740668 33.7562269 36.2554622 32.7755154 C 37.6201466 32.4104194 38.8529182 31.9858647 39.9236499 31.5126111 Z M 39.9236499 19.8203034 C 41.869091 20.9575444 43 22.3701964 43 24 C 43 28.470905 34.4896382 31.3076923 24 31.3076923 C 13.5103618 31.3076923 5 28.470905 5 24 C 5 22.3701964 6.130909 20.9575444 8.07635005 19.8203034 C 9.06881359 20.2589632 10.2004933 20.6557834 11.4473978 21.0021956 C 9.12353139 22.0250817 7.92307692 23.2072017 7.92307692 24 C 7.92307692 24.8598001 9.3350136 26.177508 12.0606138 27.2534028 C 15.168606 28.4802419 19.433505 29.1923077 24 29.1923077 C 28.566495 29.1923077 32.831394 28.4802419 35.9393862 27.2534028 C 38.6649864 26.177508 40.0769231 24.8598001 40.0769231 24 C 40.0769231 23.2072017 38.8764686 22.0250817 36.5526022 21.0021956 C 37.7995067 20.6557834 38.9311864 20.2589632 39.9236499 19.8203034 Z M 43 12.3076923 C 43 7.83678727 34.4896382 5 24 5 C 13.5103618 5 5 7.83678727 5 12.3076923 C 5 16.7785973 13.5103618 19.6153846 24 19.6153846 C 34.4896382 19.6153846 43 16.7785973 43 12.3076923 Z M 12.0606138 15.3442016 C 9.3350136 14.3400331 7.92307692 13.1101724 7.92307692 12.3076923 C 7.92307692 11.5052122 9.3350136 10.2753515 12.0606138 9.27118298 C 15.168606 8.12613322 19.433505 7.46153846 24 7.46153846 C 28.566495 7.46153846 32.831394 8.12613322 35.9393862 9.27118298 C 38.6649864 10.2753515 40.0769231 11.5052122 40.0769231 12.3076923 C 40.0769231 13.1101724 38.6649864 14.3400331 35.9393862 15.3442016 C 32.831394 16.4892514 28.566495 17.1538462 24 17.1538462 C 19.433505 17.1538462 15.168606 16.4892514 12.0606138 15.3442016 Z" fill="currentColor"/>
        </symbol>
        
        <symbol id="layout">
            <path d="M 44.5086986 24.2230775 L 24.1090229 24.2230775 L 24.1090229 4.50363839 L 24.1090229 4.50363839" stroke="currentColor" stroke-width="2.5" fill="none"/>
            <rect id="Rectangle-1-Copy" x="3.70934714" y="4.50363839" width="40.7993514" height="39.4388783" stroke="currentColor" stroke-width="2.5" fill="none"/>
        </symbol>
        
    </defs>

    <use y="0" xlink:href="#compass"/>
    <use y="48" xlink:href="#inspector"/>
    <use y="96" xlink:href="#performance"/>
    <use y="144" xlink:href="#script"/>
    <use y="192" xlink:href="#style"/>
    <use y="240" xlink:href="#standards"/>
    <use y="288" xlink:href="#contribute"/>
    <use y="336" xlink:href="#storage"/>
    <use y="384" xlink:href="#layout"/>
        
</svg>