<!-- Copyright © 2020 Apple Inc. All rights reserved. -->
<svg xmlns="http://www.w3.org/2000/svg" viewBox="0 0 23 22">
    <path fill="hsl(240, 2.3%, 56.7%)" d="M 11.8360196 13.5 L 14.0160155 11.4064292 L 22.4436989 19.5 L 20.263703 21.5935708 L 11.8360196 13.5 Z M 8.28896869 14 C 11.7711172 14 14.5779374 11.3044556 14.5779374 8 C 14.5779374 4.69554511 11.7711168 2 8.28896869 2 C 4.80681985 2 2 4.69554471 2 8 C 2 11.304456 4.80681944 14 8.28896869 14 Z M 8.28896869 16 C 3.71994516 16 0 12.4275308 0 8 C 0 3.57246993 3.71994553 0 8.28896869 0 C 12.8579911 0 16.5779374 3.57247028 16.5779374 8 C 16.5779374 12.4275305 12.8579915 16 8.28896869 16 Z"/>
</svg>
