<!-- Copyright © 2020 Apple Inc. All rights reserved. -->
<svg xmlns="http://www.w3.org/2000/svg" width="1450" height="1451" viewBox="0 0 1450 1451">
  <g fill="none" fill-rule="evenodd">
    <path stroke="#FFFFFF" d="M98.6024246 3.12108458L98.6024246 1447.38377M1447.35194 1351.87414L3.1246209 1351.87414M1447.35194 97.1878967L3.1246209 97.1878967M1449.47656 725.238281L1 725.238281M1447.35194 1447.38306L3.1246209 3.12037731M1447.35194 3.12108458L3.1246209 1447.38377M1449.47656 995.413109L1 995.413109M1449.47656 453.648926L1 453.648926M1350.45961 1447.38306L1350.45961 3.12037731M725.238281 1449.50358L725.238281 1.02701748M993.998581 1449.50358L993.998581 1.02701748M455.063454 1449.50358L455.063454 1.02701748M994.965552 725.261055C994.965552 874.520624 874.207306 995.536314 725.237715 995.536314 576.269539 995.536314 455.511293 874.520624 455.511293 725.261055 455.511293 575.983098 576.269539 454.995698 725.237715 454.995698 874.207306 454.995698 994.965552 575.983098 994.965552 725.261055L994.965552 725.261055z"/>
    <path stroke="#FFFFFF" d="M1107.53934,725.261055 C1107.53934,935.162849 936.370149,1105.32631 725.237715,1105.32631 C514.106697,1105.32631 342.937505,935.162849 342.937505,725.261055 C342.937505,515.350774 514.106697,345.188727 725.237715,345.188727 C936.370149,345.188727 1107.53934,515.350774 1107.53934,725.261055 L1107.53934,725.261055 Z"/>
    <path stroke="#FFFFFF" d="M1351.77611,725.261055 C1351.77611,1071.60821 1071.26674,1352.37361 725.237857,1352.37361 C379.208971,1352.37361 98.7010172,1071.60821 98.7010172,725.261055 C98.7010172,378.896926 379.208971,98.1584043 725.237857,98.1584043 C1071.26674,98.1584043 1351.77611,378.896926 1351.77611,725.261055 L1351.77611,725.261055 Z"/>
    <path stroke="#FFFFFF" d="M3.1246209,1122.37463 C3.1246209,1301.87539 149.494309,1447.38363 330.047478,1447.38363 L1120.42908,1447.24359 C1300.97377,1447.24359 1447.35194,1301.70847 1447.35194,1122.23459 L1447.35194,328.156821 C1447.35194,148.65606 1300.98367,3.12094312 1120.42908,3.12094312 L330.047478,3.27937025 C149.502796,3.27937025 3.1246209,148.796098 3.1246209,328.305346 L3.1246209,1122.37463 L3.1246209,1122.37463 Z"/>
  </g>
</svg>
