<?xml version="1.0" encoding="utf-8"?>
<!-- Copyright © 2013 Apple Inc. All rights reserved. -->
<svg version="1.1" xmlns="http://www.w3.org/2000/svg" viewBox="0 0 16 16">
    <path d="M 9.988281 10 L 9.988281 6.007812 L 8.613281 6.015625 L 8.621094 10 Z M 7.335938 6.007812 L 6 6.007812 L 6 10 L 7.335938 10 Z M 11.007812 10.105469 C 11.007812 10.105469 11.03125 11.007812 10.1875 11.007812 L 5.804688 11.007812 C 5.035156 11.007812 4.984375 10.105469 4.984375 10.105469 L 4.984375 5 L 11.007812 5 Z M 14 3 L 2 3 L 2 5 L 3.003906 5 L 3 11.320312 C 3 11.320312 3.003906 12.996094 4.546875 12.996094 L 11.457031 12.996094 C 11.457031 12.996094 13 13.117188 13 11.414062 C 13 9.746094 12.996094 5.175781 12.996094 5 L 14 5 Z M 6.867188 2.007812 L 9.183594 2.007812 C 9.757812 2.007812 9.90625 2.789062 10 2.996094 L 11 2.996094 C 10.953125 2.617188 10.792969 1 9.183594 1 C 8.425781 1 8.355469 1.003906 8.511719 1.007812 L 9.214844 1.019531 C 9.214844 1.019531 8.699219 1.011719 8.511719 1.007812 L 7.988281 1 L 6.867188 1 C 5.21875 1 5.039062 2.617188 5 2.996094 L 6 2.996094 C 6.097656 2.789062 6.292969 2.007812 6.867188 2.007812"/>
</svg>
