<?xml version="1.0" encoding="utf-8"?>
<!-- Copyright © 2013 Apple Inc. All rights reserved. -->
<svg version="1.1" xmlns="http://www.w3.org/2000/svg" viewBox="0 0 16 16">
    <path d="M 12.65625 4.960938 L 12.65625 6.933594 C 11.023438 4.941406 9.324219 3.550781 7.023438 3.816406 C 4.542969 4.105469 2.421875 6.441406 1.382812 9.125 L 2.882812 9.574219 C 3.734375 7.375 5.492188 6.292969 7.171875 6.117188 C 8.816406 5.945312 9.914062 6.71875 11.304688 8.644531 L 9.160156 8.648438 L 9.160156 10 L 14 10 L 14 4.960938 Z"/>
    <path d="M 12 13 C 12 13.550781 11.550781 14 11 14 L 5 14 C 4.449219 14 4 13.550781 4 13 L 4 12 C 4 11.449219 4.449219 11 5 11 L 11 11 C 11.550781 11 12 11.449219 12 12 Z"/>
</svg>
