<?xml version="1.0" encoding="utf-8"?>
<!-- Copyright © 2013 Apple Inc. All rights reserved. -->
<svg version="1.1" xmlns="http://www.w3.org/2000/svg" viewBox="0 0 10 10">
    <path fill="rgb(181, 181, 181)" d="M 3.515625 5.011719 L 5.742188 7.238281 C 6.148438 7.644531 6.148438 8.304688 5.742188 8.710938 C 5.335938 9.117188 4.675781 9.117188 4.269531 8.710938 L 1.324219 5.765625 C 1.21875 5.65625 1.140625 5.535156 1.089844 5.402344 C 0.933594 5.023438 1.007812 4.574219 1.316406 4.265625 L 4.261719 1.320312 C 4.667969 0.914062 5.328125 0.914062 5.734375 1.320312 C 6.140625 1.726562 6.140625 2.386719 5.734375 2.792969 Z M 7 6 C 6.445312 6 6 5.550781 6 5 C 6 4.449219 6.445312 4 7 4 C 7.554688 4 8 4.449219 8 5 C 8 5.550781 7.554688 6 7 6 Z"/>
</svg>
