<svg xmlns="http://www.w3.org/2000/svg"
     xmlns:xlink="http://www.w3.org/1999/xlink"
     onload="setTimeAndSnapshot(101, true)">
  <script xlink:href="../smil-util.js" type="text/javascript"/>
  <g transform="translate(50 50) rotate(90)">
    <path d="M-2 50h4v -90h4l -6 -10 -6 10h4z" fill="blue">
      <animateTransform attributeName="transform"
        type="rotate" from="0" to="0" begin="100s" dur="4s" fill="freeze"/>
    </path>
  </g>
  <g transform="translate(150 50)">
    <path d="M-2 50h4v -90h4l -6 -10 -6 10h4z" fill="blue">
      <animateTransform attributeName="transform"
        type="rotate" from="0" to="90" begin="100s" dur="1s" fill="freeze"/>
    </path>
  </g>
  <g transform="translate(250 50)">
    <path d="M-2 50h4v -90h4l -6 -10 -6 10h4z" fill="blue">
      <animateTransform attributeName="transform"
        type="rotate" from="0" to="180" begin="100s" dur="2s" fill="freeze"/>
    </path>
  </g>
  <g transform="translate(50 150)">
    <path d="M-2 50h4v -90h4l -6 -10 -6 10h4z" fill="blue">
      <animateTransform attributeName="transform"
        type="rotate" from="0" to="270" begin="100s" dur="3s" fill="freeze"/>
    </path>
  </g>
  <g transform="translate(150 150)">
    <path d="M-2 50h4v -90h4l -6 -10 -6 10h4z" fill="blue">
      <animateTransform attributeName="transform"
        type="rotate" from="0" to="360" begin="100s" dur="4s" fill="freeze"/>
    </path>
  </g>
  <g transform="translate(250 150)">
    <path d="M-2 50h4v -90h4l -6 -10 -6 10h4z" fill="blue">
      <animateTransform attributeName="transform"
        type="rotate" from="0" to="540" begin="100s" dur="6s" fill="freeze"/>
    </path>
  </g>
  <g transform="translate(50 250)">
    <path d="M-2 50h4v -90h4l -6 -10 -6 10h4z" fill="blue">
      <animateTransform attributeName="transform"
        type="rotate" from="0" to="3600" begin="100s" dur="40s" fill="freeze"/>
    </path>
  </g>
  <g transform="translate(150 250)">
    <path d="M-2 50h4v -90h4l -6 -10 -6 10h4z" fill="blue">
      <animateTransform attributeName="transform"
        type="rotate" from="0" to="-270" begin="100s" dur="1s" fill="freeze"/>
    </path>
  </g>
  <g transform="translate(250 250)">
    <path d="M-2 50h4v -90h4l -6 -10 -6 10h4z" fill="blue">
      <animateTransform attributeName="transform"
        type="rotate" from="0" to="-540" begin="100s" dur="2s" fill="freeze"/>
    </path>
  </g>
</svg>
