<?xml version="1.0" encoding="utf-8"?>
<!-- Copyright © 2013 Apple Inc. All rights reserved. -->
<svg version="1.1" xmlns="http://www.w3.org/2000/svg" viewBox="0 0 16 16">
    <path d="M 8 10.335 c -0.703 0 -1.272 0.57 -1.272 1.274 c 0 0.702 0.57 1.271 1.272 1.271 c 0.702 0 1.272 -0.569 1.272 -1.271 C 9.272 10.905 8.702 10.335 8 10.335 z M 8.909 4.708 C 8.909 4.206 8.501 3.8 8 3.8 S 7.091 4.206 7.091 4.708 v 3.633 c 0 0.501 0.408 0.909 0.909 0.909 s 0.909 -0.408 0.909 -0.909 V 4.708 z M 14.142 13.278 c -0.349 0.507 -1.068 0.68 -1.541 0.68 c -0.298 0 -8.912 0 -9.201 0 c -0.474 0 -1.193 -0.173 -1.541 -0.68 c -0.329 -0.477 -0.148 -1.309 0.105 -1.76 c 1.416 -2.53 2.793 -5.417 4.797 -9.186 C 7.411 1.112 8.686 1.201 9.27 2.315 c 1.398 2.674 3.351 6.673 4.767 9.203 C 14.289 11.97 14.47 12.802 14.142 13.278 z"/>
</svg>
