<?xml version="1.0" encoding="utf-8"?>
<!-- Copyright © 2013 Apple Inc. All rights reserved. -->
<svg version="1.1" xmlns="http://www.w3.org/2000/svg" viewBox="0 0 16 16">
    <path class="filled" d="M 11.3333594 8.19978872 C 11.3373138 8.13355217 11.3392924 8.06721247 11.3392924 8.00085802 L 13.5 8.00085802 C 13.5 8.11015036 13.4967412 8.21941842 13.4902278 8.32851658 C 13.3092357 11.3601207 10.7044904 13.671017 7.67237326 13.4900575 C 4.64025461 13.309098 2.32895216 10.7048051 2.50994432 7.67319946 C 2.6855607 4.73163777 5.14309162 2.46860779 8 2.50032937 L 8 0.3 L 11.0969295 2.13000381 L 13.5 3.55 L 8 6.8 L 8 4.66165014 C 6.25756644 4.65173653 4.94768721 5.89954424 4.84179688 7.67319965 C 4.731911 9.51378018 5.96019866 11.2236643 7.80111758 11.333532 C 9.64203807 11.4433997 11.2234734 10.0403708 11.3333594 8.19978872 Z M 11.3333594 8.19978872"/>
</svg>
