<?xml version="1.0" encoding="utf-8"?>
<!-- Copyright © 2013 Apple Inc. All rights reserved. -->
<svg version="1.1" xmlns="http://www.w3.org/2000/svg" viewBox="0 0 16 14">
    <path d="M 3 1 L 9 1 C 10.113281 1 11 1.894531 11 3 L 11 4 L 5.992188 4 C 4.890625 4 4 4.894531 4 5.996094 L 4 9 L 3 9 C 1.886719 9 1 8.105469 1 7 L 1 3 C 1 1.886719 1.894531 1 3 1 Z"/>
    <path d="M 7 5 L 13 5 C 14.113281 5 15 5.894531 15 7 L 15 11 C 15 12.113281 14.105469 13 13 13 L 7 13 C 5.886719 13 5 12.105469 5 11 L 5 7 C 5 5.886719 5.894531 5 7 5 Z M 7.992188 7 C 7.445312 7 7 7.441406 7 8.007812 L 7 9.992188 C 7 10.546875 7.449219 11 7.992188 11 L 12.007812 11 C 12.554688 11 13 10.558594 13 9.992188 L 13 8.007812 C 13 7.453125 12.550781 7 12.007812 7 Z"/>
</svg>
