<?xml version="1.0" encoding="utf-8"?>
<!-- Copyright © 2018 Apple Inc. All rights reserved. -->
<svg xmlns="http://www.w3.org/2000/svg" id="root" version="1.1" viewBox="0 0 16 16">
    <path fill="currentColor" fill-rule="evenodd" d="M 3.99119893 1 L 12.0087973 1 C 13.048904 1 13.4260733 1.10829467 13.8063227 1.31165867 C 14.1865627 1.51501333 14.4849867 1.81343733 14.6883413 2.19367733 C 14.8917053 2.57392667 15 2.951096 15 3.99120267 L 15 12.0088011 C 15 13.0489059 14.8917053 13.4260733 14.6883413 13.8063199 C 14.4849867 14.1865669 14.1865627 14.4849869 13.8063227 14.6883452 C 13.4260733 14.8917035 13.048904 15 12.0087973 15 L 3.99119893 15 C 2.95109413 15 2.57392667 14.8917035 2.19368013 14.6883452 C 1.81343313 14.4849869 1.51501305 14.1865669 1.31165484 13.8063199 C 1.10829653 13.4260733 1 13.0489059 1 12.0088011 L 1 3.99120267 C 1 2.951096 1.10829653 2.57392667 1.31165484 2.19367733 C 1.51501305 1.81343733 1.81343313 1.51501333 2.19368013 1.31165867 C 2.57392667 1.10829467 2.95109413 1 3.99119893 1 Z M 3.5 4 L 12.5 4 C 13.3284271 4 14 4.67157288 14 5.5 L 14 12.5 C 14 13.3284271 13.3284271 14 12.5 14 L 3.5 14 C 2.67157288 14 2 13.3284271 2 12.5 L 2 5.5 C 2 4.67157288 2.67157288 4 3.5 4 Z M 4.1 5 L 11.9 5 C 12.5075132 5 13 5.49248678 13 6.1 L 13 11.9 C 13 12.5075132 12.5075132 13 11.9 13 L 4.1 13 C 3.49248678 13 3 12.5075132 3 11.9 L 3 6.1 C 3 5.49248678 3.49248678 5 4.1 5 Z M 3 2 L 4 2 L 4 3 L 3 3 L 3 2 Z M 5 2 L 6 2 L 6 3 L 5 3 L 5 2 Z M 7 2 L 8 2 L 8 3 L 7 3 L 7 2 Z"/>
</svg>
