<?xml version="1.0" encoding="utf-8"?>
<!-- Copyright © 2018 Apple Inc. All rights reserved. -->
<svg xmlns="http://www.w3.org/2000/svg" id="root" version="1.1" viewBox="0 0 16 16">
    <path fill="rgb(181, 201, 116)" stroke="rgb(148, 172, 85)" stroke-width="0.5" stroke-miterlimit="10" d="M 7.3 14.7 l -6 -6 c -0.4 -0.4 -0.4 -1.1 0 -1.5 l 6 -6 c 0.4 -0.4 1.1 -0.4 1.5 0 l 6 6 c 0.4 0.4 0.4 1.1 0 1.5 l -6 6 c -0.5 0.4 -1.1 0.4 -1.5 0 z"/>
    <path fill="white" d="M 6.9 11.465 a 0.164 0.164 0 0 1 -0.127 -0.06 l -2.4 -2.9 a 0.165 0.165 0 0 1 -0.002 -0.208 l 0.8 -1 a 0.165 0.165 0 0 1 0.127 -0.062 H 5.3 c 0.049 0 0.095 0.021 0.126 0.058 l 1.472 1.749 3.175 -3.847 a 0.165 0.165 0 0 1 0.127 -0.06 h 0.001 c 0.05 0 0.097 0.023 0.128 0.062 l 0.8 1 a 0.165 0.165 0 0 1 -0.001 0.207 l -4.1 5 a 0.164 0.164 0 0 1 -0.128 0.06 z"/>
    <path fill="rgb(148, 172, 85)" d="M 10.2 5.3 l 0.8 1 -4.1 5 -2.4 -2.9 0.8 -1 1.6 1.9 3.3 -4 m 0 -0.33 a 0.33 0.33 0 0 0 -0.255 0.12 L 6.897 8.785 5.552 7.187 A 0.33 0.33 0 0 0 5.3 7.07 h -0.004 a 0.33 0.33 0 0 0 -0.254 0.124 l -0.8 1 a 0.33 0.33 0 0 0 0.004 0.416 l 2.4 2.9 a 0.33 0.33 0 0 0 0.51 -0.001 l 4.1 -5 a 0.33 0.33 0 0 0 0.002 -0.415 l -0.8 -1 a 0.33 0.33 0 0 0 -0.256 -0.124 H 10.2 z"/>
</svg>
