<?xml version="1.0" encoding="utf-8"?>
<!-- Copyright © 2018 Apple Inc. All rights reserved. -->
<svg xmlns="http://www.w3.org/2000/svg" id="root" version="1.1" viewBox="0 0 16 16">
    <path fill="rgb(216, 82, 92)" stroke="rgb(219, 25, 34)" stroke-width="0.5" stroke-miterlimit="10" d="M 7.3 14.7 l -6 -6 c -0.4 -0.4 -0.4 -1.1 0 -1.5 l 6 -6 c 0.4 -0.4 1.1 -0.4 1.5 0 l 6 6 c 0.4 0.4 0.4 1.1 0 1.5 l -6 6 c -0.5 0.4 -1.1 0.4 -1.5 0 z"/>
    <path fill="white" d="M 10.191 11.206 a 0.162 0.162 0 0 1 -0.116 -0.049 L 8 9.082 l -2.075 2.075 a 0.164 0.164 0 0 1 -0.234 0 l -0.848 -0.848 a 0.164 0.164 0 0 1 0 -0.233 L 6.918 8 4.843 5.925 a 0.165 0.165 0 0 1 0 -0.234 l 0.848 -0.848 a 0.165 0.165 0 0 1 0.234 0 L 8 6.918 l 2.075 -2.075 a 0.163 0.163 0 0 1 0.233 0 l 0.848 0.848 a 0.165 0.165 0 0 1 0 0.234 L 9.082 8 l 2.075 2.076 a 0.165 0.165 0 0 1 0 0.233l -0.85 0.848 a 0.161 0.161 0 0 1 -0.116 0.05 z"/>
    <path fill="rgb(219, 25, 34)" d="M 10.192 4.96 l 0.848 0.848 L 8.848 8 l 2.192 2.192 -0.848 0.849 L 8 8.848 5.808 11.04 l -0.849 -0.848 L 7.151 8 4.96 5.808 l 0.849 -0.849 L 8 7.152 l 2.192 -2.192 m 0 -0.33 a 0.329 0.329 0 0 0 -0.233 0.096 l -1.96 1.959 -1.958 -1.959 a 0.329 0.329 0 0 0 -0.467 0 l -0.848 0.849 a 0.33 0.33 0 0 0 0 0.466 L 6.685 8 4.726 9.959 a 0.33 0.33 0 0 0 0 0.466 l 0.849 0.849 a 0.33 0.33 0 0 0 0.466 0 L 8 9.315 l 1.959 1.959 a 0.33 0.33 0 0 0 0.466 0 l 0.849 -0.849 a 0.33 0.33 0 0 0 0 -0.466 L 9.315 8 l 1.959 -1.959 a 0.33 0.33 0 0 0 0 -0.466 l -0.849 -0.849 a 0.33 0.33 0 0 0 -0.233 -0.096 z"/>
</svg>
