<?xml version="1.0" encoding="utf-8"?>
<!-- Copyright © 2018 Apple Inc. All rights reserved. -->
<svg xmlns="http://www.w3.org/2000/svg" id="root" version="1.1" viewBox="0 0 16 16">
    <path fill="rgb(148, 183, 219)" d="M 13 1 L 3 1 C 1.898438 1 1 1.898438 1 3 L 1 13 C 1 14.101562 1.898438 15 3 15 L 13 15 C 14.101562 15 15 14.101562 15 13 L 15 3 C 15 1.898438 14.101562 1 13 1 Z"/>
    <path fill="rgb(106, 136, 170)" d="M 13 1 L 3 1 C 1.898438 1 1 1.898438 1 3 L 1 13 C 1 14.101562 1.898438 15 3 15 L 13 15 C 14.101562 15 15 14.101562 15 13 L 15 3 C 15 1.898438 14.101562 1 13 1 M 13 2 C 13.550781 2 14 2.449219 14 3 L 14 13 C 14 13.550781 13.550781 14 13 14 L 3 14 C 2.449219 14 2 13.550781 2 13 L 2 3 C 2 2.449219 2.449219 2 3 2 L 13 2"/>
    <path fill="white" d="M 9.1 12.4 c -1.8 0 -2.6 -0.7 -2.6 -2.3 V 7.4 H 4.6 V 5.1 h 1.9 V 3.6 h 2.6 v 1.5 h 2.2 v 2.3 H 9.2 v 2.7 h 0.6 l 0.6 -0.1 v 2.2 l -0.4 0.1 c -0.2 0 -0.5 0.1 -0.9 0.1 z"/>
    <path fill="rgb(113, 146, 184)" d="M 8.7 4.1 v 1.5 h 2.2 v 1.3 H 8.7 v 3 c 0 0.6 0.3 0.8 0.9 0.8 h 0.3 v 1.2 c -0.1 0 -0.4 0.1 -0.7 0.1 -1.6 0 -2.1 -0.5 -2.1 -1.8 V 6.9 h -2 V 5.6 H 7 V 4.1 h 1.7 m 1 -1 H 6.1 v 1.5 h -2 v 3.3 H 6 v 2.2 c 0 1.9 1.1 2.8 3.1 2.8 0.3 0 0.7 0 0.9 -0.1 l 0.8 -0.2 V 9.4 l -1.1 0.2 h -0.1 V 7.9 h 2.2 V 4.6 H 9.7 V 3.1 sz"/>
</svg>
