<?xml version="1.0" encoding="utf-8"?>
<!-- Copyright © 2018 Apple Inc. All rights reserved. -->
<svg xmlns="http://www.w3.org/2000/svg" id="root" version="1.1" viewBox="0 0 16 16">
    <path fill="rgb(216, 82, 92)" stroke="rgb(219, 25, 34)" stroke-width="0.5" stroke-miterlimit="10" d="M 10.7 1.5 H 5.3 L 1.5 5.3 v 5.4 l 3.8 3.8 h 5.4 l 3.8 -3.8 V 5.3 z"/>
    <path fill="white" d="M 8 9.165 c -0.588 0 -1.165 -0.665 -1.165 -1.341 V 4.176 c 0 -0.802 0.468 -1.341 1.165 -1.341 s 1.165 0.539 1.165 1.341 v 3.648 c 0 0.677 -0.577 1.341 -1.165 1.341 z"/>
    <path fill="rgb(219, 25, 34)" d="M 8 3 c 0.6 0 1 0.47 1 1.177 v 3.647 C 9 8.412 8.5 9 8 9 s -1 -0.588 -1 -1.176 V 4.177 C 7 3.47 7.4 3 8 3 m 0 -0.33 c -0.783 0 -1.33.62 -1.33 1.506 v 3.648 c 0 0.774 0.646 1.506 1.33 1.506 s 1.33 -0.732 1.33 -1.506 V 4.177 C 9.33 3.29 8.783 2.67 8 2.67 z"/>
    <circle fill="white" cx="8" cy="11.5" r="1.415"/>
    <path fill="rgb(219, 25, 34)" d="M 8 10.25 a 1.25 1.25 0 1 1 0 2.5 1.25 1.25 0 0 1 0 -2.5 m 0 -0.33 c -0.871 0 -1.58 0.709 -1.58 1.58 s 0.709 1.58 1.58 1.58 1.58 -0.709 1.58 -1.58 S 8.871 9.92 8 9.92 z"/>
</svg>
