<?xml version="1.0" encoding="utf-8"?>
<!-- Copyright © 2019 Apple Inc. All rights reserved. -->
<svg xmlns="http://www.w3.org/2000/svg" id="root" version="1.1" viewBox="0 0 16 13">
    <path fill="currentColor" d="M 13 1 L 3 1 C 1.898438 1 1 1.898438 1 3 L 1 10 C 1 11.101562 1.898438 12 3 12 L 13 12 C 14.101562 12 15 11.101562 15 10 L 15 3 C 15 1.898438 14.101562 1 13 1 M 13 2 C 13.550781 2 14 2.449219 14 3 L 14 10 C 14 10.550781 13.550781 11 13 11 L 3 11 C 2.449219 11 2 10.550781 2 10 L 2 3 C 2 2.449219 2.449219 2 3 2 L 13 2"/>
    <path fill="currentColor" d="M 12 6 L 7 6 L 7 4 L 12 4 Z"/>
    <path fill="currentColor" d="M 12 9 L 7 9 L 7 7 L 12 7 Z"/>
    <path fill="currentColor" fill-opacity="0.7" d="M 6 9 L 4 9 L 4 4 L 6 4 Z"/>
</svg>
