<?xml version="1.0" encoding="utf-8"?>
<!-- Copyright © 2016 Apple Inc. All rights reserved. -->
<svg xmlns="http://www.w3.org/2000/svg" id="root" version="1.1" viewBox="0 0 16 16">
    <path d="M 12 3.5 L 11.5 2.41528547 C 11.5 2.41528547 11.0826911 1.5 10.5 1.5 L 5.5 1.5 C 4.91636759 1.5 4.5 2.41528544 4.5 2.41528544 L 4 3.5 L 2.38174379 3.5 C 2.38174379 3.5 0.5 3.65837937 0.5 5.5 L 0.5 12.5 C 0.5 14.3416206 2.38174379 14.5 2.38174379 14.5 L 13.5 14.5 C 13.5 14.5 15.5 14.3416206 15.5 12.5 L 15.5 5.5 C 15.5 3.65837937 13.5 3.5 13.5 3.5 L 12 3.5 Z" fill="none" stroke="currentColor"/>
    <path d="M 8 12.5 C 10.209139 12.5 12 10.709139 12 8.5 C 12 6.290861 10.209139 4.5 8 4.5 C 5.790861 4.5 4 6.290861 4 8.5 C 4 10.709139 5.790861 12.5 8 12.5 Z" fill="none" stroke="currentColor"/>
    <path d="M 8 10.5 C 9.1045695 10.5 10 9.6045695 10 8.5 C 10 7.3954305 9.1045695 6.5 8 6.5 C 6.8954305 6.5 6 7.3954305 6 8.5 C 6 9.6045695 6.8954305 10.5 8 10.5 Z" fill="none" stroke="currentColor"/>
</svg>
