<?xml version="1.0" encoding="utf-8"?>
<!-- Copyright © 2019 Apple Inc. All rights reserved. -->
<svg xmlns="http://www.w3.org/2000/svg" id="root" version="1.1" viewBox="0 0 16 16">
    <path fill="rgb(148, 183, 219)" d="M 13 1 L 3 1 C 1.898438 1 1 1.898438 1 3 L 1 13 C 1 14.101562 1.898438 15 3 15 L 13 15 C 14.101562 15 15 14.101562 15 13 L 15 3 C 15 1.898438 14.101562 1 13 1 Z"/>
    <path fill="rgb(106, 136, 170)" d="M 13 1 L 3 1 C 1.898438 1 1 1.898438 1 3 L 1 13 C 1 14.101562 1.898438 15 3 15 L 13 15 C 14.101562 15 15 14.101562 15 13 L 15 3 C 15 1.898438 14.101562 1 13 1 M 13 2 C 13.550781 2 14 2.449219 14 3 L 14 13 C 14 13.550781 13.550781 14 13 14 L 3 14 C 2.449219 14 2 13.550781 2 13 L 2 3 C 2 2.449219 2.449219 2 3 2 L 13 2"/>
    <path fill="rgb(113, 146, 184)" d="M 2.61147641 12.75 L 5.96029528 12.75 L 6.8114662 10.628418 L 8.70346974 10.628418 L 9.53482191 12.75 L 13.3777814 12.75 L 9.50565303 2.80078125 L 6.48360478 2.80078125 L 2.61147641 12.75 Z M 2.61147641 12.75"/>
    <path fill="white" d="M 4.07373047 11.75 L 7.16748047 3.80078125 L 8.82177734 3.80078125 L 11.9155273 11.75 L 10.2182617 11.75 L 9.39111328 9.62841797 L 6.10400391 9.62841797 L 5.27685547 11.75 L 4.07373047 11.75 Z M 6.51220703 8.5703125 L 8.98291016 8.5703125 L 7.74755859 5.40136719 L 6.51220703 8.5703125 Z M 6.51220703 8.5703125"/>
</svg>
