<?xml version="1.0" encoding="utf-8"?>
<!-- Copyright © 2013 Apple Inc. All rights reserved. -->
<svg xmlns="http://www.w3.org/2000/svg" id="root" version="1.1" viewBox="0 0 16 16">
    <path fill="rgb(190, 165, 202)" d="M 13 1 L 3 1 C 1.898438 1 1 1.898438 1 3 L 1 13 C 1 14.101562 1.898438 15 3 15 L 13 15 C 14.101562 15 15 14.101562 15 13 L 15 3 C 15 1.898438 14.101562 1 13 1 Z"/>
    <path fill="rgb(141, 118, 153)" d="M 13 1 L 3 1 C 1.898438 1 1 1.898438 1 3 L 1 13 C 1 14.101562 1.898438 15 3 15 L 13 15 C 14.101562 15 15 14.101562 15 13 L 15 3 C 15 1.898438 14.101562 1 13 1 M 13 2 C 13.550781 2 14 2.449219 14 3 L 14 13 C 14 13.550781 13.550781 14 13 14 L 3 14 C 2.449219 14 2 13.550781 2 13 L 2 3 C 2 2.449219 2.449219 2 3 2 L 13 2"/>
    <path fill="rgb(153, 127, 166)" d="M 5.503906 12.742188 C 4.949219 12.742188 4.503906 12.292969 4.503906 11.742188 L 4.503906 3.792969 C 4.503906 3.242188 4.949219 2.792969 5.503906 2.792969 L 10.472656 2.792969 C 11.023438 2.792969 11.472656 3.242188 11.472656 3.792969 L 11.472656 4.882812 C 11.472656 5.4375 11.023438 5.882812 10.472656 5.882812 C 10.472656 5.882812 9.132812 5.882812 8.15625 5.882812 C 8.15625 5.992188 8.15625 5.996094 8.15625 6.101562 C 8.957031 6.101562 9.875 6.101562 9.875 6.101562 C 10.425781 6.101562 10.875 6.550781 10.875 7.101562 L 10.875 8.164062 C 10.875 8.71875 10.425781 9.164062 9.875 9.164062 C 9.875 9.164062 8.957031 9.164062 8.15625 9.164062 C 8.15625 9.382812 8.15625 9.398438 8.15625 9.613281 C 9.191406 9.613281 10.722656 9.613281 10.722656 9.613281 C 11.277344 9.613281 11.722656 10.0625 11.722656 10.613281 L 11.722656 11.742188 C 11.722656 12.292969 11.277344 12.742188 10.722656 12.742188 L 5.503906 12.742188"/>
    <path fill="white" d="M 5.503906 11.742188 L 5.503906 3.792969 L 10.46875 3.792969 L 10.46875 4.882812 L 7.15625 4.882812 L 7.15625 7.101562 L 9.875 7.101562 L 9.875 8.164062 L 7.15625 8.164062 L 7.15625 10.613281 L 10.722656 10.613281 L 10.722656 11.742188 Z"/>
</svg>
