<?xml version="1.0" encoding="utf-8"?>
<!-- Copyright © 2013 Apple Inc. All rights reserved. -->
<svg xmlns="http://www.w3.org/2000/svg" id="root" version="1.1" viewBox="0 0 10 10">
    <path fill="white" d="M 4 0.558594 L 6.195312 0.558594 L 6.195312 9.304688 L 4 9.304688 Z"/>
    <path fill="rgb(231, 38, 34)" d="M 9.996094 7.085938 L 7.058594 10.007812 L 2.917969 9.996094 L -0.00390625 7.0625 L 0.0078125 2.921875 L 2.945312 0 L 7.082031 0.0117188 L 10.007812 2.945312 Z M 6 2 C 6 1.449219 5.550781 1 5 1 C 4.445312 1 4 1.449219 4 2 L 4 5 C 4 5.550781 4.445312 6 5 6 C 5.550781 6 6 5.550781 6 5 Z M 5 7 C 4.445312 7 4 7.449219 4 8 C 4 8.550781 4.445312 9 5 9 C 5.550781 9 6 8.550781 6 8 C 6 7.449219 5.550781 7 5 7 Z"/>
</svg>
