<?xml version="1.0" encoding="utf-8"?>
<!-- Copyright © 2017 Apple Inc. All rights reserved. -->
<svg xmlns="http://www.w3.org/2000/svg" id="root" version="1.1" viewBox="0 0 16 16">
    <path d="M 15 13.5 A 1.39 1.39 0 0 1 13.5 15 1.39 1.39 0 0 1 12 13.5 c 0 -1.12 1.5 -3.5 1.5 -3.5 S 15 12.38 15 13.5 Z"/>
    <polygon points="7.226 2.796 7.226 4.211 11.54 8.524 10.43 8.786 6.166 13.049 2.277 9.16 4.73 6.707 4.73 5.292 0.863 9.16 6.166 14.464 10.932 9.698 13.52 9.09 7.226 2.796"/>
    <path d="M 5.979 7.459 a.5.5 0 0 1 -0.5 -0.5 V 2.046 a 0.5 0.5 0 0 1 1 0 V 6.959 A 0.5 0.5 0 0 1 5.979 7.459 Z"/>
</svg>
