<?xml version="1.0" encoding="utf-8"?>
<!-- Copyright © 2013 Apple Inc. All rights reserved. -->
<svg xmlns="http://www.w3.org/2000/svg" id="root" version="1.1" viewBox="0 0 16 16">
    <path fill="rgb(165, 202, 164)" d="M 13 1 L 3 1 C 1.898438 1 1 1.898438 1 3 L 1 13 C 1 14.101562 1.898438 15 3 15 L 13 15 C 14.101562 15 15 14.101562 15 13 L 15 3 C 15 1.898438 14.101562 1 13 1 Z"/>
    <path fill="rgb(128, 166, 126)" d="M 10.503906 2.558594 C 8.164062 2.558594 6.574219 3.742188 5.882812 5.988281 L 4.445312 6 L 3.449219 6.007812 L 3.449219 9 L 5.15625 9 L 4.21875 12.925781 L 3.921875 14.15625 L 7.964844 14.15625 L 8.148438 13.386719 L 9.191406 9 L 11.300781 9 L 11.300781 6 L 9.902344 6 C 10.070312 5.589844 10.296875 5.589844 10.480469 5.589844 C 10.800781 5.589844 11.191406 5.652344 11.644531 5.769531 L 12.796875 6.074219 L 12.898438 4.890625 L 12.996094 3.757812 L 13.078125 2.828125 L 12.15625 2.683594 C 11.636719 2.597656 11.082031 2.558594 10.503906 2.558594 M 10.503906 3.558594 C 11.03125 3.558594 11.53125 3.59375 12 3.667969 L 11.902344 4.804688 C 11.363281 4.660156 10.890625 4.589844 10.480469 4.589844 C 9.605469 4.589844 9.050781 5.101562 8.820312 6.128906 L 8.625 7 L 10.300781 7 L 10.300781 8 L 8.398438 8 L 7.175781 13.15625 L 5.191406 13.15625 L 6.425781 8 L 4.449219 8 L 4.449219 7 L 6.613281 6.984375 L 6.742188 6.617188 C 7.257812 4.578125 8.507812 3.558594 10.503906 3.558594"/>
    <path fill="white" d="M 5.191406 13.15625 L 6.425781 8 L 4.449219 8 L 4.449219 7 L 6.613281 6.984375 L 6.742188 6.617188 C 7.257812 4.578125 8.507812 3.558594 10.5 3.558594 C 11.03125 3.558594 11.53125 3.59375 12 3.667969 L 11.902344 4.804688 C 11.363281 4.660156 10.890625 4.589844 10.484375 4.589844 C 9.605469 4.589844 9.050781 5.101562 8.820312 6.128906 L 8.625 7 L 10.300781 7 L 10.300781 8 L 8.398438 8 L 7.175781 13.15625 Z"/>
    <path fill="rgb(118, 153, 116)" d="M 13 1 L 3 1 C 1.898438 1 1 1.898438 1 3 L 1 13 C 1 14.101562 1.898438 15 3 15 L 13 15 C 14.101562 15 15 14.101562 15 13 L 15 3 C 15 1.898438 14.101562 1 13 1 M 13 2 C 13.550781 2 14 2.449219 14 3 L 14 13 C 14 13.550781 13.550781 14 13 14 L 3 14 C 2.449219 14 2 13.550781 2 13 L 2 3 C 2 2.449219 2.449219 2 3 2 L 13 2"/>
</svg>
