<?xml version="1.0" encoding="utf-8"?>
<!-- Copyright © 2013 Apple Inc. All rights reserved. -->
<svg xmlns="http://www.w3.org/2000/svg" id="root" version="1.1" viewBox="0 0 32 32">
    <path fill="rgb(48, 48, 48)" d="M 30.5625 17.445312 L 24.71875 17.445312 C 23.917969 17.445312 23.273438 16.792969 23.273438 15.996094 C 23.273438 15.199219 23.917969 14.5625 24.714844 14.5625 L 30.554688 14.558594 C 31.351562 14.558594 31.996094 15.199219 31.996094 15.996094 C 31.996094 16.792969 31.359375 17.445312 30.5625 17.445312"/>
    <path fill="rgba(48, 48, 48, 0.87)" d="M 29.332031 9.96875 L 24.269531 12.890625 C 23.578125 13.289062 22.695312 13.050781 22.296875 12.359375 C 21.898438 11.667969 22.136719 10.792969 22.828125 10.394531 L 27.878906 7.472656 C 28.570312 7.074219 29.453125 7.304688 29.851562 7.996094 C 30.25 8.6875 30.023438 9.570312 29.332031 9.96875"/>
    <path fill="rgba(48, 48, 48, 0.75)" d="M 24.53125 4.109375 L 21.605469 9.171875 C 21.207031 9.859375 20.324219 10.101562 19.632812 9.695312 C 18.941406 9.296875 18.710938 8.421875 19.109375 7.730469 L 22.023438 2.671875 C 22.421875 1.980469 23.304688 1.742188 23.996094 2.140625 C 24.6875 2.542969 24.933594 3.421875 24.53125 4.109375"/>
    <path fill="rgba(48, 48, 48, 0.64)" d="M 14.550781 7.292969 L 14.554688 1.441406 C 14.554688 0.644531 15.203125 0 16 0 C 16.796875 0 17.4375 0.644531 17.4375 1.441406 L 17.445312 7.277344 C 17.445312 8.082031 16.796875 8.726562 16 8.726562 C 15.203125 8.726562 14.550781 8.089844 14.550781 7.292969"/>
    <path fill="rgba(48, 48, 48, 0.53)" d="M 10.390625 9.179688 L 7.472656 4.117188 C 7.074219 3.425781 7.308594 2.542969 8 2.140625 C 8.691406 1.742188 9.566406 1.980469 9.964844 2.675781 L 12.890625 7.730469 C 13.289062 8.421875 13.054688 9.296875 12.363281 9.695312 C 11.671875 10.09375 10.789062 9.867188 10.390625 9.179688"/>
    <path fill="rgba(48, 48, 48, 0.45)" d="M 7.730469 12.898438 L 2.671875 9.976562 C 1.980469 9.578125 1.742188 8.6875 2.144531 7.996094 C 2.542969 7.304688 3.421875 7.078125 4.113281 7.476562 L 9.171875 10.386719 C 9.863281 10.785156 10.097656 11.667969 9.699219 12.359375 C 9.300781 13.050781 8.421875 13.296875 7.730469 12.898438"/>
    <path fill="rgba(48, 48, 48, 0.37)" d="M 7.289062 17.445312 L 1.441406 17.445312 C 0.644531 17.445312 -0.00390625 16.792969 -0.00390625 15.996094 C -0.00390625 15.199219 0.644531 14.5625 1.441406 14.5625 L 7.28125 14.558594 C 8.078125 14.558594 8.722656 15.199219 8.722656 15.996094 C 8.722656 16.792969 8.085938 17.445312 7.289062 17.445312"/>
    <path fill="rgba(48, 48, 48, 0.31)" d="M 9.179688 21.609375 L 4.113281 24.53125 C 3.421875 24.929688 2.539062 24.6875 2.140625 24 C 1.742188 23.308594 1.980469 22.433594 2.671875 22.035156 L 7.726562 19.105469 C 8.414062 18.707031 9.296875 18.945312 9.695312 19.636719 C 10.097656 20.328125 9.867188 21.210938 9.179688 21.609375"/>
    <path fill="rgba(48, 48, 48, 0.25)" d="M 12.894531 24.265625 L 9.96875 29.324219 C 9.570312 30.015625 8.6875 30.253906 7.996094 29.855469 C 7.304688 29.457031 7.074219 28.582031 7.472656 27.890625 L 10.386719 22.832031 C 10.785156 22.132812 11.667969 21.898438 12.359375 22.300781 C 13.050781 22.699219 13.292969 23.574219 12.894531 24.265625"/>
    <path fill="rgba(48, 48, 48, 0.22)" d="M 14.550781 30.566406 L 14.554688 24.722656 C 14.554688 23.925781 15.203125 23.273438 16 23.273438 C 16.796875 23.273438 17.4375 23.917969 17.4375 24.714844 L 17.445312 30.558594 C 17.445312 31.355469 16.796875 32 16 32 C 15.203125 32 14.550781 31.363281 14.550781 30.566406"/>
    <path fill="rgba(48, 48, 48, 0.19)" d="M 22.027344 29.339844 L 19.109375 24.273438 C 18.710938 23.582031 18.945312 22.699219 19.636719 22.300781 C 20.328125 21.898438 21.207031 22.140625 21.605469 22.832031 L 24.527344 27.882812 C 24.925781 28.574219 24.691406 29.457031 24 29.855469 C 23.308594 30.253906 22.425781 30.027344 22.027344 29.339844"/>
    <path fill="rgba(48, 48, 48, 0.17)" d="M 27.886719 24.539062 L 22.828125 21.609375 C 22.136719 21.210938 21.898438 20.328125 22.296875 19.636719 C 22.699219 18.945312 23.578125 18.714844 24.269531 19.109375 L 29.328125 22.027344 C 30.019531 22.425781 30.253906 23.308594 29.855469 24 C 29.457031 24.6875 28.578125 24.9375 27.886719 24.539062"/>
</svg>
