<?xml version="1.0" encoding="utf-8"?>
<!-- Copyright © 2015 Apple Inc. All rights reserved. -->
<svg xmlns="http://www.w3.org/2000/svg" id="root" version="1.1" viewBox="0 0 10 10">
	<circle fill="rgb(11, 36, 251)" cx="5" cy="5" r="5"/>
    <path fill="white" d="M 4.998 2.998 C 5.552 2.998 5.997 2.549 5.997 1.998 C 5.997 1.448 5.552 0.999 4.998 0.999 C 4.448 0.999 3.999 1.448 3.999 1.998 C 3.999 2.549 4.448 2.998 4.998 2.998 L 4.998 2.998 L 4.998 2.998 Z M 3.999 7.994 C 3.999 8.544 4.448 8.993 4.998 8.993 C 5.552 8.993 5.997 8.544 5.997 7.994 L 5.997 4.996 C 5.997 4.446 5.552 3.997 4.998 3.997 C 4.448 3.997 3.999 4.446 3.999 4.996 L 3.999 7.994 L 3.999 7.994 Z"/>
</svg>
