<?xml version="1.0" encoding="utf-8"?>
<!-- Copyright © 2016 Apple Inc. All rights reserved. -->
<svg xmlns="http://www.w3.org/2000/svg" id="root" version="1.1" viewBox="0 0 16 16">
    <circle stroke="rgb(141, 174, 69)" fill="rgb(176, 203, 103)" cx="8" cy="8" r="7.5"/>
    <path d="M 3 10.4935773 C 3 11.6310702 3.94215347 11.9907402 4.93496556 12 C 6.42418369 11.9907402 6.92058973 11.3204375 6.92058973 10.4935773 C 6.92058973 9.66671703 6.24966718 8.99641436 5.42204226 8.99641436 C 4.59441735 8.99641436 3.94215347 9.66671703 3.94215347 10.4935773 C 3.94215347 10.999895 3.31764654 10.7238538 3 10.4935773 Z M 8.99763014 9.08837807 L 11.7565232 5.32059047 C 12.059741 4.94168339 12.0992889 4.42825986 11.8436112 4.17258216 C 11.5879335 3.91690445 11.070247 3.9521894 10.6860812 4.25014853 L 6.88966617 6.98041409 C 6.48986361 7.26273645 5.98436755 8.19410964 6.86513881 9.0748809 C 7.74591007 9.95565216 8.71076191 9.48363474 8.99763014 9.08837807 Z" stroke="rgb(141, 174, 69)" stroke-width="2" stroke-linejoin="round"/>
    <path d="M 3 10.4935773 C 3 11.6310702 3.94215347 11.9907402 4.93496556 12 C 6.42418369 11.9907402 6.92058973 11.3204375 6.92058973 10.4935773 C 6.92058973 9.66671703 6.24966718 8.99641436 5.42204226 8.99641436 C 4.59441735 8.99641436 3.94215347 9.66671703 3.94215347 10.4935773 C 3.94215347 10.999895 3.31764654 10.7238538 3 10.4935773 Z M 8.99763014 9.08837807 L 11.7565232 5.32059047 C 12.059741 4.94168339 12.0992889 4.42825986 11.8436112 4.17258216 C 11.5879335 3.91690445 11.070247 3.9521894 10.6860812 4.25014853 L 6.88966617 6.98041409 C 6.48986361 7.26273645 5.98436755 8.19410964 6.86513881 9.0748809 C 7.74591007 9.95565216 8.71076191 9.48363474 8.99763014 9.08837807 Z" fill="white"/>
</svg>
