<?xml version="1.0" encoding="utf-8"?>
<!-- Copyright © 2015 Apple Inc. All rights reserved. -->
<svg xmlns="http://www.w3.org/2000/svg" id="root" version="1.1" viewBox="0 0 10 10">
    <path fill="rgb(181, 181, 181)" d="M 3.998 6.998 L 3.998 2.001 C 3.998 1.451 3.553 1.002 2.999 1.002 C 2.449 1.002 2 1.451 2 2.001 L 2 7.997 C 2 8.272 2.112 8.522 2.293 8.703 C 2.474 8.885 2.724 8.996 2.999 8.996 L 7.009 8.996 C 7.559 8.996 8.008 8.551 8.008 7.997 C 8.008 7.447 7.559 6.998 7.009 6.998 L 3.998 6.998 L 3.998 6.998 Z M 5 5 C 5 5.554 5.449 5.999 5.999 5.999 L 7.005 5.999 C 7.555 5.999 8.004 5.554 8.004 5 C 8.004 4.45 7.555 4.001 7.005 4.001 L 5.999 4.001 C 5.449 4.001 5 4.45 5 5 Z M 5 2.001 C 5 2.555 5.449 3 5.999 3 L 7.005 3 C 7.555 3 8.004 2.555 8.004 2.001 C 8.004 1.451 7.555 1.002 7.005 1.002 L 5.999 1.002 C 5.449 1.002 5 1.451 5 2.001 Z"/>
</svg>
