<?xml version="1.0"?>
<!-- Copyright © 2019 Apple Inc. All rights reserved. -->
<svg xmlns="http://www.w3.org/2000/svg" id="root" version="1.1" viewBox="0 0 13 14">
    <path fill="none" stroke="currentColor" d="M 9.0 3.0 C 9.0 1.33 8.17 0.5 6.5 0.5 C 6.17 0.5 5.17 0.5 3.5 0.5 C 1.83 0.5 1.0 1.33 1.0 3.0 C 1.0 4.67 1.0 6.33 1.0 8.0 C 1.0 9.67 1.83 10.5 3.5 10.5"/>
    <path fill="currentColor" stroke="currentColor" d="M 9.5 3.5 C 9.5 3.5 9.0 3.5 6.5 3.5 C 4.83 3.5 4.0 4.33 4.0 6.0 C 4.0 7.67 4.0 9.33 4.0 11.0 C 4.0 12.67 4.83 13.5 6.5 13.5 C 6.83 13.5 7.83 13.5 9.5 13.5 C 11.17 13.5 12.0 12.67 12.0 11.0 C 12.0 9.33 12.0 7.67 12.0 6.0 C 12.0 3.5 9.5 3.5 9.5 3.5 Z"/>
</svg>
