<?xml version="1.0" encoding="utf-8"?>
<!-- Copyright © 2016 Apple Inc. All rights reserved. -->
<svg xmlns="http://www.w3.org/2000/svg" id="root" version="1.1" viewBox="0 0 16 16">
    <circle stroke="rgb(61, 148, 199)" fill="rgb(119, 177, 225)" cx="8" cy="8" r="7.5"/>
    <path d="M 11 14.3325755 L 10 14.6900635 L 10 4.81711004 L 8.46831066 6.24134473 L 7.75 5.5705206 L 10.5 3.00231934 L 13.25 5.5705206 L 12.5316893 6.24134473 L 11 4.81091327 L 11 14.3325755 Z" stroke="rgb(61, 148, 199)" stroke-linejoin="round" stroke-width="2"/>
    <path d="M 6 1.32731142 L 5 1.79199219 L 5 10.2777191 L 3.46831066 8.84604471 L 2.75 9.520373 L 5.5 12.1019897 L 8.25 9.520373 L 7.53168934 8.84604471 L 6 10.2839483 L 6 1.32731142 Z" stroke="rgb(61, 148, 199)" stroke-linejoin="round" stroke-width="2"/>
    <path d="M 11 14.3325755 L 10 14.6900635 L 10 4.81711004 L 8.46831066 6.24134473 L 7.75 5.5705206 L 10.5 3.00231934 L 13.25 5.5705206 L 12.5316893 6.24134473 L 11 4.81091327 L 11 14.3325755 Z" fill="white"/>
    <path d="M 6 1.32731142 L 5 1.79199219 L 5 10.2777191 L 3.46831066 8.84604471 L 2.75 9.520373 L 5.5 12.1019897 L 8.25 9.520373 L 7.53168934 8.84604471 L 6 10.2839483 L 6 1.32731142 Z" fill="white"/>
</svg>
