<?xml version="1.0" encoding="utf-8"?>
<!-- Copyright © 2013 Apple Inc. All rights reserved. -->
<svg xmlns="http://www.w3.org/2000/svg" id="root" version="1.1" viewBox="0 0 16 16">
    <path fill="rgb(228, 198, 172)" d="M 13 1 L 3 1 C 1.898438 1 1 1.898438 1 3 L 1 13 C 1 14.101562 1.898438 15 3 15 L 13 15 C 14.101562 15 15 14.101562 15 13 L 15 3 C 15 1.898438 14.101562 1 13 1 Z"/>
    <path fill="rgb(186, 157, 132)" d="M 13 1 L 3 1 C 1.898438 1 1 1.898438 1 3 L 1 13 C 1 14.101562 1.898438 15 3 15 L 13 15 C 14.101562 15 15 14.101562 15 13 L 15 3 C 15 1.898438 14.101562 1 13 1 M 13 2 C 13.550781 2 14 2.449219 14 3 L 14 13 C 14 13.550781 13.550781 14 13 14 L 3 14 C 2.449219 14 2 13.550781 2 13 L 2 3 C 2 2.449219 2.449219 2 3 2 L 13 2"/>
    <path fill="rgb(196, 166, 140)" d="M 6.796875 12.742188 C 6.242188 12.742188 5.796875 12.292969 5.796875 11.742188 L 5.796875 10.417969 C 5.796875 10.25 5.835938 10.09375 5.910156 9.953125 C 5.835938 9.816406 5.796875 9.660156 5.796875 9.492188 L 5.796875 9.339844 C 5.796875 8.511719 6.152344 7.699219 6.847656 6.925781 L 7.234375 6.503906 C 7.671875 6.019531 7.734375 5.757812 7.746094 5.671875 C 7.691406 5.660156 7.609375 5.652344 7.488281 5.652344 C 7.097656 5.652344 6.613281 5.78125 6.046875 6.039062 C 5.914062 6.101562 5.773438 6.128906 5.632812 6.128906 C 5.441406 6.128906 5.253906 6.078125 5.089844 5.972656 C 4.804688 5.785156 4.628906 5.472656 4.628906 5.128906 L 4.628906 3.917969 C 4.628906 3.476562 4.917969 3.089844 5.339844 2.960938 C 6.144531 2.71875 6.941406 2.59375 7.71875 2.59375 C 8.769531 2.59375 9.632812 2.816406 10.285156 3.25 C 11.058594 3.761719 11.46875 4.511719 11.46875 5.414062 C 11.46875 6.214844 11.066406 7 10.269531 7.753906 L 9.917969 8.09375 C 9.546875 8.441406 9.460938 8.601562 9.453125 8.621094 C 9.4375 8.652344 9.390625 8.765625 9.390625 9.035156 L 9.390625 9.492188 C 9.390625 9.660156 9.351562 9.816406 9.277344 9.953125 C 9.351562 10.09375 9.390625 10.25 9.390625 10.417969 L 9.390625 11.742188 C 9.390625 12.292969 8.945312 12.742188 8.390625 12.742188 L 6.796875 12.742188"/>
    <path fill="white" d="M 6.796875 11.742188 L 6.796875 10.414062 L 8.390625 10.414062 L 8.390625 11.742188 Z M 8.390625 9.492188 L 6.796875 9.492188 L 6.796875 9.339844 C 6.796875 8.765625 7.0625 8.183594 7.589844 7.597656 L 7.972656 7.175781 C 8.488281 6.609375 8.746094 6.097656 8.746094 5.652344 C 8.746094 4.984375 8.328125 4.652344 7.488281 4.652344 C 6.949219 4.652344 6.328125 4.8125 5.632812 5.128906 L 5.632812 3.917969 C 6.34375 3.703125 7.039062 3.59375 7.71875 3.59375 C 8.570312 3.59375 9.238281 3.757812 9.730469 4.082031 C 10.222656 4.410156 10.46875 4.851562 10.46875 5.414062 C 10.46875 5.929688 10.175781 6.46875 9.585938 7.027344 L 9.222656 7.371094 C 8.886719 7.6875 8.664062 7.957031 8.554688 8.179688 C 8.445312 8.398438 8.390625 8.683594 8.390625 9.035156 Z"/>
</svg>
