<?xml version="1.0" encoding="utf-8"?>
<!-- Copyright © 2016 Apple Inc. All rights reserved. -->
<svg xmlns="http://www.w3.org/2000/svg" id="root" version="1.1" viewBox="0 0 16 16">
    <circle stroke="rgb(151, 113, 183)" fill="rgb(187, 146, 232)" cx="8" cy="8" r="7.5"/>
    <path d="M 5.22715696 6.125 C 5.91982955 6.125 6.45431395 6.6811371 6.45431395 7.25000001 C 6.45431395 7.25000001 6.93478361 6.81078546 7.17501843 6.59117817 C 7.92513716 5.90546775 9.42537462 4.53404687 9.42537462 4.53404687 C 9.42537462 4.53404687 12.4169327 7.54094502 12.5269833 7.67306518 C 12.6753846 7.85122682 13 8.17674256 13 8.7521515 C 13 9.03857762 12.8713126 9.31763171 12.6565014 9.52590133 C 12.4398269 9.73597737 7.89350922 13.8804761 8.11042201 13.69328 C 8.34989886 13.4865646 8.49957557 13.1940886 8.49957557 12.875 C 8.49957557 12.2636566 8.18050277 11.9713059 8.0225143 11.7980652 C 8.01851356 11.7936782 7.87412439 11.647648 7.6463559 11.4174298 L 6.04526161 12.875 C 6.04526161 13.4963203 6.59467851 14 7.2724186 14 C 7.5964145 14 7.89108408 13.8826115 8.11042201 13.69328 C 8.34996717 13.4864312 8.49957557 13.1940158 8.49957557 12.875 C 8.49957557 12.2636566 8.18050277 11.9713059 8.0225143 11.7980652 C 7.86452582 11.6248245 4.77566147 8.52086639 4.5648687 8.29740906 C 4.35407594 8.07395173 4 7.82797241 4 7.25000001 C 4 6.9391318 4.15462275 6.63721575 4.40531682 6.42455392 C 4.15462324 6.63721527 8.68638208 2.47343347 8.96623147 2.26163853 C 9.17952159 2.10021679 9.4468593 2 9.72673256 2 C 10.3738162 2 10.9667723 2.55439758 10.9667723 3.125 L 6.45431395 7.25000001 C 6.45431395 6.6811371 5.91982955 6.125 5.22715696 6.125 C 4.90704524 6.125 4.62071828 6.24183056 4.40531685 6.42455387 C 4.62071825 6.24183056 4.90704521 6.125 5.22715696 6.125 Z" stroke="rgb(151, 113, 183)" />
    <path d="M 5.22715696 6.125 C 5.91982955 6.125 6.45431395 6.6811371 6.45431395 7.25000001 C 6.45431395 7.25000001 6.93478361 6.81078546 7.17501843 6.59117817 C 7.92513716 5.90546775 9.42537462 4.53404687 9.42537462 4.53404687 C 9.42537462 4.53404687 12.4169327 7.54094502 12.5269833 7.67306518 C 12.6753846 7.85122682 13 8.17674256 13 8.7521515 C 13 9.03857762 12.8713126 9.31763171 12.6565014 9.52590133 C 12.4398269 9.73597737 7.89350922 13.8804761 8.11042201 13.69328 C 8.34989886 13.4865646 8.49957557 13.1940886 8.49957557 12.875 C 8.49957557 12.2636566 8.18050277 11.9713059 8.0225143 11.7980652 C 8.01851356 11.7936782 7.87412439 11.647648 7.6463559 11.4174298 L 6.04526161 12.875 C 6.04526161 13.4963203 6.59467851 14 7.2724186 14 C 7.5964145 14 7.89108408 13.8826115 8.11042201 13.69328 C 8.34996717 13.4864312 8.49957557 13.1940158 8.49957557 12.875 C 8.49957557 12.2636566 8.18050277 11.9713059 8.0225143 11.7980652 C 7.86452582 11.6248245 4.77566147 8.52086639 4.5648687 8.29740906 C 4.35407594 8.07395173 4 7.82797241 4 7.25000001 C 4 6.9391318 4.15462275 6.63721575 4.40531682 6.42455392 C 4.15462324 6.63721527 8.68638208 2.47343347 8.96623147 2.26163853 C 9.17952159 2.10021679 9.4468593 2 9.72673256 2 C 10.3738162 2 10.9667723 2.55439758 10.9667723 3.125 L 6.45431395 7.25000001 C 6.45431395 6.6811371 5.91982955 6.125 5.22715696 6.125 C 4.90704524 6.125 4.62071828 6.24183056 4.40531685 6.42455387 C 4.62071825 6.24183056 4.90704521 6.125 5.22715696 6.125 Z" fill="white" stroke="rgb(151, 113, 183)" stroke-width="0.5"/>
</svg>
