<?xml version="1.0" encoding="utf-8"?>
<!-- Copyright © 2013 Apple Inc. All rights reserved. -->
<svg xmlns="http://www.w3.org/2000/svg" id="root" version="1.1" viewBox="0 0 16 16">
    <path fill="rgb(190, 165, 202)" d="M 13 1 L 3 1 C 1.898438 1 1 1.898438 1 3 L 1 13 C 1 14.101562 1.898438 15 3 15 L 13 15 C 14.101562 15 15 14.101562 15 13 L 15 3 C 15 1.898438 14.101562 1 13 1 Z"/>
    <path fill="rgb(141, 118, 153)" d="M 13 1 L 3 1 C 1.898438 1 1 1.898438 1 3 L 1 13 C 1 14.101562 1.898438 15 3 15 L 13 15 C 14.101562 15 15 14.101562 15 13 L 15 3 C 15 1.898438 14.101562 1 13 1 M 13 2 C 13.550781 2 14 2.449219 14 3 L 14 13 C 14 13.550781 13.550781 14 13 14 L 3 14 C 2.449219 14 2 13.550781 2 13 L 2 3 C 2 2.449219 2.449219 2 3 2 L 13 2"/>
    <path fill="rgb(153, 127, 166)" d="M 6.980469 12.742188 C 6.429688 12.742188 5.980469 12.292969 5.980469 11.742188 C 5.980469 11.742188 5.980469 7.34375 5.980469 5.882812 C 5.140625 5.882812 4.136719 5.882812 4.136719 5.882812 C 3.582031 5.882812 3.136719 5.4375 3.136719 4.882812 L 3.136719 3.792969 C 3.136719 3.242188 3.582031 2.792969 4.136719 2.792969 L 11.488281 2.792969 C 12.042969 2.792969 12.488281 3.242188 12.488281 3.792969 L 12.488281 4.882812 C 12.488281 5.4375 12.042969 5.882812 11.488281 5.882812 C 11.488281 5.882812 10.484375 5.882812 9.640625 5.882812 C 9.640625 7.34375 9.640625 11.742188 9.640625 11.742188 C 9.640625 12.292969 9.195312 12.742188 8.640625 12.742188 L 6.980469 12.742188"/>
    <path fill="white" d="M 6.980469 11.742188 L 6.980469 4.882812 L 4.136719 4.882812 L 4.136719 3.792969 L 11.488281 3.792969 L 11.488281 4.882812 L 8.640625 4.882812 L 8.640625 11.742188 Z"/>
</svg>
