<?xml version="1.0" encoding="utf-8"?>
<!-- Copyright © 2015 Apple Inc. All rights reserved. -->
<svg xmlns="http://www.w3.org/2000/svg" id="root" version="1.1" viewBox="0 0 16 16">
    <path d="M 13 1 L 3 1 C 1.9 1 1 1.9 1 3 L 1 13 C 1 14.1 1.9 15 3 15 L 13 15 C 14.1 15 15 14.1 15 13 L 15 3 C 15 1.9 14.1 1 13 1 L 13 1 Z" fill="rgb(236, 151, 153)"/>
    <path d="M 13 1 L 3 1 C 1.9 1 1 1.9 1 3 L 1 13 C 1 14.1 1.9 15 3 15 L 13 15 C 14.1 15 15 14.1 15 13 L 15 3 C 15 1.9 14.1 1 13 1 M 13 2 C 13.552 2 14 2.449 14 3 L 14 13 C 14 13.552 13.552 14 13 14 L 3 14 C 2.449 14 2 13.552 2 13 L 2 3 C 2 2.449 2.449 2 3 2 L 13 2" fill="rgb(191, 109, 113)"/>
    <path d="M 8.1104 3 L 5.0004 3 L 4.0004 3 L 4.0004 4 L 4.0004 12 L 4.0004 13 L 5.0004 13 L 7.0004 13 L 8.0004 13 L 8.0004 12 L 8.0004 11.646 L 8.5584 12.533 L 8.8524 13 L 9.4044 13 L 11.7494 13 L 13.7134 13 L 12.5574 11.412 L 10.5494 8.650999 C 10.8754 8.459 11.1754 8.226 11.3874 7.924999 C 11.7944 7.351999 12.0004 6.702999 12.0004 6 C 12.0004 4.178 10.4734 3 8.1104 3 M 7.0004 7.632 L 7.0274 7.632 C 8.280399 7.632 9.0624 7.144 9.0624 6.167 C 9.0624 5.454 8.3484 5.097 7.2294 5.097 L 7.0004 5.097 L 7.0004 7.632 M 8.1104 4 C 9.7984 4 11.0004 4.678 11.0004 6 C 11.0004 6.493999 10.8574 6.943 10.5704 7.349 C 10.2854 7.754 9.5334 8.049 9.0314 8.264999 L 11.7494 12 L 9.4044 12 L 7.3434 8.729 L 7.0004 8.729 L 7.0004 12 L 5.0004 12 L 5.0004 4 L 8.1104 4" fill="rgb(204, 116, 121)"/>
    <path d="M 7 7.6323 L 7.027 7.6323 C 8.281 7.6323 9.063001 7.1443 9.063001 6.1673 C 9.063001 5.4543 8.348001 5.0973 7.229001 5.0973 L 7 5.0973 L 7 7.6323 Z M 5 12.0003 L 5 4.0003 L 8.11 4.0003 C 9.799001 4.0003 11 4.6773 11 6.0003 C 11 6.4943 10.857 6.9433 10.57 7.3493 C 10.285 7.7543 9.533 8.0493 9.031 8.2643 L 11.749 12.0003 L 9.404 12.0003 L 7.344 8.7293 L 7 8.7293 L 7 12.0003 L 5 12.0003 Z" fill="white"/>
</svg>
