<?xml version="1.0" encoding="utf-8"?>
<!-- Copyright © 2015 Apple Inc. All rights reserved. -->
<svg xmlns="http://www.w3.org/2000/svg" id="root" version="1.1" viewBox="0 0 16 16">
    <path fill="rgb(203, 203, 203)" d="M 13 1 L 3 1 C 1.898438 1 1 1.898438 1 3 L 1 13 C 1 14.101562 1.898438 15 3 15 L 13 15 C 14.101562 15 15 14.101562 15 13 L 15 3 C 15 1.898438 14.101562 1 13 1 Z"/>
    <path fill="rgb(153, 153, 153)" d="M 13 1 L 3 1 C 1.898438 1 1 1.898438 1 3 L 1 13 C 1 14.101562 1.898438 15 3 15 L 13 15 C 14.101562 15 15 14.101562 15 13 L 15 3 C 15 1.898438 14.101562 1 13 1 M 13 2 C 13.550781 2 14 2.449219 14 3 L 14 13 C 14 13.550781 13.550781 14 13 14 L 3 14 C 2.449219 14 2 13.550781 2 13 L 2 3 C 2 2.449219 2.449219 2 3 2 L 13 2"/>
    <path fill="rgb(166, 166, 166)" d="M 9.5625 12.742188 C 9.230469 12.742188 8.917969 12.574219 8.734375 12.300781 C 8.734375 12.300781 7.816406 10.941406 6.90625 9.585938 C 6.90625 10.617188 6.90625 11.742188 6.90625 11.742188 C 6.90625 12.292969 6.457031 12.742188 5.90625 12.742188 L 4.578125 12.742188 C 4.027344 12.742188 3.578125 12.292969 3.578125 11.742188 L 3.578125 3.792969 C 3.578125 3.242188 4.027344 2.792969 4.578125 2.792969 L 6.035156 2.792969 C 6.367188 2.792969 6.675781 2.957031 6.863281 3.230469 C 6.863281 3.230469 7.789062 4.601562 8.71875 5.96875 C 8.71875 4.925781 8.71875 3.792969 8.71875 3.792969 C 8.71875 3.242188 9.164062 2.792969 9.71875 2.792969 L 11.046875 2.792969 C 11.597656 2.792969 12.046875 3.242188 12.046875 3.792969 L 12.046875 11.742188 C 12.046875 12.292969 11.597656 12.742188 11.046875 12.742188 L 9.5625 12.742188"/>
    <path fill="white" d="M 4.578125 11.742188 L 4.578125 3.792969 L 6.035156 3.792969 L 9.71875 9.222656 L 9.71875 3.792969 L 11.046875 3.792969 L 11.046875 11.742188 L 9.5625 11.742188 L 5.90625 6.3125 L 5.90625 11.742188 Z"/>
</svg>
